<svg width="17" height="16" viewBox="0 0 17 16" fill="none" xmlns="http://www.w3.org/2000/svg">
<g clip-path="url(#clip0_34790_1996)">
<path d="M8.66602 14C8.66602 14.3687 8.36735 14.6667 7.99935 14.6667H3.99935C2.16135 14.6667 0.666016 13.1713 0.666016 11.3333V3.33333C0.666016 1.49533 2.16135 0 3.99935 0H11.9993C13.8373 0 15.3327 1.49533 15.3327 3.33333V7.33333C15.3327 7.702 15.034 8 14.666 8C14.298 8 13.9993 7.702 13.9993 7.33333V3.33333C13.9993 2.23067 13.102 1.33333 11.9993 1.33333H3.99935C2.89668 1.33333 1.99935 2.23067 1.99935 3.33333V7.97267L3.87135 6.10067C4.89268 5.07867 6.55468 5.07867 7.57668 6.10067L11.1373 9.66133C11.398 9.922 11.398 10.3433 11.1373 10.604C11.0073 10.734 10.8367 10.7993 10.666 10.7993C10.4953 10.7993 10.3247 10.734 10.1947 10.604L6.63402 7.04333C6.13268 6.54267 5.31668 6.542 4.81402 7.04333L1.99935 9.858V11.3333C1.99935 12.436 2.89668 13.3333 3.99935 13.3333H7.99935C8.36735 13.3333 8.66602 13.6313 8.66602 14ZM10.666 2.33333C11.7687 2.33333 12.666 3.23067 12.666 4.33333C12.666 5.436 11.7687 6.33333 10.666 6.33333C9.56335 6.33333 8.66602 5.436 8.66602 4.33333C8.66602 3.23067 9.56335 2.33333 10.666 2.33333ZM10.666 3.66667C10.2987 3.66667 9.99935 3.96533 9.99935 4.33333C9.99935 4.70133 10.2987 5 10.666 5C11.0333 5 11.3327 4.70133 11.3327 4.33333C11.3327 3.96533 11.0333 3.66667 10.666 3.66667ZM15.9993 12H13.9993V10C13.9993 9.63133 13.7007 9.33333 13.3327 9.33333C12.9647 9.33333 12.666 9.63133 12.666 10V12H10.666C10.298 12 9.99935 12.298 9.99935 12.6667C9.99935 13.0353 10.298 13.3333 10.666 13.3333H12.666V15.3333C12.666 15.702 12.9647 16 13.3327 16C13.7007 16 13.9993 15.702 13.9993 15.3333V13.3333H15.9993C16.3673 13.3333 16.666 13.0353 16.666 12.6667C16.666 12.298 16.3673 12 15.9993 12Z" fill="#6A6D76"/>
</g>
<defs>
<clipPath id="clip0_34790_1996">
<rect width="16" height="16" fill="white" transform="translate(0.5)"/>
</clipPath>
</defs>
</svg>
