<svg width="18" height="18" viewBox="0 0 18 18" fill="none" xmlns="http://www.w3.org/2000/svg">
<path d="M4.50078 3.60313C4.50078 3.10607 4.09784 2.70312 3.60078 2.70312C3.10373 2.70312 2.70078 3.10607 2.70078 3.60313V10.1439C2.16276 10.4552 1.80078 11.0369 1.80078 11.7031C1.80078 12.3694 2.16276 12.9511 2.70078 13.2623V14.4031C2.70078 14.9002 3.10373 15.3031 3.60078 15.3031C4.09784 15.3031 4.50078 14.9002 4.50078 14.4031V13.2623C5.0388 12.9511 5.40078 12.3694 5.40078 11.7031C5.40078 11.0369 5.0388 10.4552 4.50078 10.1439V3.60313Z" fill="#0D0D0D"/>
<path d="M9.90078 3.60313C9.90078 3.10607 9.49784 2.70312 9.00078 2.70312C8.50373 2.70312 8.10078 3.10607 8.10078 3.60313V4.74393C7.56276 5.05516 7.20078 5.63687 7.20078 6.30313C7.20078 6.96938 7.56276 7.55109 8.10078 7.86232V14.4031C8.10078 14.9002 8.50373 15.3031 9.00078 15.3031C9.49784 15.3031 9.90078 14.9002 9.90078 14.4031V7.86232C10.4388 7.55109 10.8008 6.96938 10.8008 6.30313C10.8008 5.63687 10.4388 5.05516 9.90078 4.74393V3.60313Z" fill="#0D0D0D"/>
<path d="M14.4008 2.70312C14.8978 2.70312 15.3008 3.10607 15.3008 3.60313V10.1439C15.8388 10.4552 16.2008 11.0369 16.2008 11.7031C16.2008 12.3694 15.8388 12.9511 15.3008 13.2623V14.4031C15.3008 14.9002 14.8978 15.3031 14.4008 15.3031C13.9037 15.3031 13.5008 14.9002 13.5008 14.4031V13.2623C12.9628 12.9511 12.6008 12.3694 12.6008 11.7031C12.6008 11.0369 12.9628 10.4552 13.5008 10.1439V3.60313C13.5008 3.10607 13.9037 2.70312 14.4008 2.70312Z" fill="#0D0D0D"/>
</svg>
