<svg width="257" height="178" viewBox="0 0 257 178" fill="none" xmlns="http://www.w3.org/2000/svg">
<path d="M256.365 168.844H0V168.972H256.365V168.844Z" fill="#EBEBEB"/>
<path d="M230.678 177.094H213.695V177.222H230.678V177.094Z" fill="#EBEBEB"/>
<path d="M154.559 177.156H150.102V177.284H154.559V177.156Z" fill="#EBEBEB"/>
<path d="M213.18 172.336H181.676V172.464H213.18V172.336Z" fill="#EBEBEB"/>
<path d="M115.438 175.359H108.93V175.488H115.438V175.359Z" fill="#EBEBEB"/>
<path d="M104.366 175.359H85.4805V175.488H104.366V175.359Z" fill="#EBEBEB"/>
<path d="M39.9372 173.195H26.8984V173.323H39.9372V173.195Z" fill="#EBEBEB"/>
<path d="M81.4096 173.195H43.0117V173.323H81.4096V173.195Z" fill="#EBEBEB"/>
<path d="M121.524 145.978H22.5165C20.9029 145.978 19.5898 144.665 19.5898 143.051V3.87979C19.5898 2.26623 20.9029 0.953125 22.5165 0.953125H121.524C123.137 0.953125 124.45 2.26623 124.45 3.87979V143.051C124.45 144.665 123.137 145.978 121.524 145.978ZM22.5165 1.08182C20.9732 1.08182 19.718 2.33698 19.718 3.8803V143.052C19.718 144.595 20.9732 145.85 22.5165 145.85H121.524C123.067 145.85 124.322 144.595 124.322 143.052V3.87979C124.322 2.33698 123.067 1.08131 121.524 1.08131L22.5165 1.08182Z" fill="#EBEBEB"/>
<path d="M232.426 145.978H133.418C131.805 145.978 130.492 144.665 130.492 143.051V3.87979C130.492 2.26623 131.805 0.953125 133.418 0.953125H232.426C234.04 0.953125 235.352 2.26623 235.352 3.87979V143.051C235.353 144.665 234.04 145.978 232.426 145.978ZM133.418 1.08182C131.876 1.08182 130.62 2.33698 130.62 3.8803V143.052C130.62 144.595 131.876 145.85 133.418 145.85H232.426C233.969 145.85 235.224 144.595 235.224 143.052V3.87979C235.224 2.33698 233.969 1.08131 232.426 1.08131L133.418 1.08182Z" fill="#EBEBEB"/>
<path d="M97.8118 100.711L222.426 100.711V9.68439L97.8118 9.68439L97.8118 100.711Z" fill="#E6E6E6"/>
<path d="M92.3034 100.711L221.148 100.711V9.68439L92.3034 9.68439V100.711Z" fill="#F0F0F0"/>
<path d="M213.438 93.0073V17.4062L100.018 17.4062L100.018 93.0073L213.438 93.0073Z" fill="#FAFAFA"/>
<path d="M185.868 93.0073L160.048 17.4062H135.391L161.211 93.0073H185.868Z" fill="white"/>
<path d="M155.913 93.0073L130.093 17.4062H120.48L146.301 93.0073H155.913Z" fill="white"/>
<path d="M100.996 93.0073L100.996 17.4062H100.017L100.017 93.0073H100.996Z" fill="#E6E6E6"/>
<path d="M33.1113 75.9531H77.1133L77.1133 13.5687L33.1113 13.5687L33.1113 75.9531Z" fill="#E0E0E0"/>
<path d="M29.9905 75.9531H75.3477L75.3477 13.5687L29.9905 13.5687L29.9905 75.9531Z" fill="#F5F5F5"/>
<path d="M70.8711 71.0362L70.8711 18.4844L34.4683 18.4844L34.4683 71.0362H70.8711Z" fill="white"/>
<path d="M50.2085 119.627C53.4751 111.568 61.2435 108.567 63.9271 103.479C67.4434 96.8121 67.4234 86.8113 64.4296 83.2022C61.8285 80.0663 53.2141 101.272 52.2441 103.641C48.9067 111.79 47.9366 117.837 47.3111 123.696C47.3823 118.716 47.4505 114.143 47.5064 110.615C47.689 99.1081 47.9171 95.4067 48.0212 94.2679C48.3806 93.7116 48.8057 93.0635 49.0523 92.7159C51.1371 89.7769 55.7624 86.278 58.0738 82.0055C61.4491 75.7671 60.9036 68.3007 58.5363 65.5207C56.0608 62.614 51.6852 69.4841 49.3615 76.2916C47.0383 83.0991 48.031 89.6149 47.3793 95.2683C47.2429 96.3773 47.1029 100.589 46.9716 106.431C46.2666 100.145 44.8628 95.9338 42.2612 92.0093C39.0612 87.1825 36.2987 81.3051 33.6617 82.0649C31.0252 82.8248 32.4445 90.6014 34.5302 96.0615C36.3879 100.924 45.5524 105.773 46.9024 109.683C46.7435 117.601 46.6015 127.634 46.5005 136.974C45.778 132.149 46.2748 131.744 43.3143 124.358C41.5541 119.966 34.3385 114.551 33.4781 117.568C32.6337 120.529 33.9257 126.288 36.6499 130.282C38.8474 133.504 43.723 133.501 44.851 135.5C45.114 135.966 45.9846 137.754 46.4815 138.782C46.3636 150.186 46.3113 160.252 46.3692 163.684L46.8419 163.718C46.8194 162.832 46.8763 157.031 46.9691 149.355C48.153 145.27 56.1234 142.886 58.5855 138.638C61.1625 134.192 63.014 129.004 61.909 125.531C60.9876 122.635 53.7243 126.573 50.7766 131.372C48.8134 134.569 47.6141 137.98 47.0542 142.564C47.1214 137.334 47.1978 131.716 47.2721 126.413C47.8689 125.091 49.2297 122.043 50.2085 119.627Z" fill="#E6E6E6"/>
<path d="M54.8874 168.843H38.134C37.2187 168.843 36.4296 168.198 36.2481 167.301L35.0586 161.438H57.9633L56.7737 167.301C56.5917 168.198 55.8032 168.843 54.8874 168.843Z" fill="#F0F0F0"/>
<path d="M58.4432 163.714H34.5803C34.0086 163.714 33.5276 163.285 33.464 162.716L32.9759 158.382C32.9011 157.716 33.422 157.133 34.0921 157.133H58.9308C59.601 157.133 60.1224 157.716 60.0471 158.382L59.5589 162.716C59.4954 163.285 59.0149 163.714 58.4432 163.714Z" fill="#F0F0F0"/>
<path d="M207.98 165.117H213.102V110.003H207.98V165.117Z" fill="#F0F0F0"/>
<path d="M103.602 168.789H211.137V165.116H103.602V168.789Z" fill="#F0F0F0"/>
<path d="M207.979 110.008H101.633V165.122H207.979V110.008Z" fill="#F5F5F5"/>
<path d="M209.184 110.008H214.477V106.534H209.184V110.008Z" fill="#E0E0E0"/>
<path d="M209.185 106.531H100.258V110.005H209.185V106.531Z" fill="#EBEBEB"/>
<path d="M200.347 133.812H109.266C106.995 133.812 105.148 131.965 105.148 129.694V117.891C105.148 115.62 106.996 113.773 109.266 113.773H200.347C202.618 113.773 204.465 115.62 204.465 117.891V129.694C204.465 131.965 202.618 133.812 200.347 133.812ZM109.266 114.799C107.561 114.799 106.174 116.186 106.174 117.891V129.694C106.174 131.399 107.561 132.786 109.266 132.786H200.347C202.052 132.786 203.439 131.399 203.439 129.694V117.891C203.439 116.186 202.052 114.799 200.347 114.799H109.266Z" fill="white"/>
<path d="M200.347 158.499H109.266C106.995 158.499 105.148 156.652 105.148 154.382V142.579C105.148 140.308 106.996 138.461 109.266 138.461H200.347C202.618 138.461 204.465 140.308 204.465 142.579V154.382C204.465 156.653 202.618 158.499 200.347 158.499ZM109.266 139.486C107.561 139.486 106.174 140.874 106.174 142.579V154.382C106.174 156.087 107.561 157.474 109.266 157.474H200.347C202.052 157.474 203.439 156.087 203.439 154.382V142.579C203.439 140.874 202.052 139.486 200.347 139.486H109.266Z" fill="white"/>
<path d="M179.648 125.61H129.964C129.23 125.61 128.633 125.012 128.633 124.278V123.308C128.633 122.574 129.23 121.977 129.964 121.977H179.648C180.382 121.977 180.98 122.574 180.98 123.308V124.278C180.98 125.012 180.382 125.61 179.648 125.61ZM129.964 123.003C129.799 123.003 129.658 123.143 129.658 123.309V124.279C129.658 124.444 129.798 124.585 129.964 124.585H179.648C179.814 124.585 179.954 124.445 179.954 124.279V123.309C179.954 123.143 179.814 123.003 179.648 123.003H129.964Z" fill="white"/>
<path d="M179.648 150.297H129.964C129.23 150.297 128.633 149.7 128.633 148.966V147.996C128.633 147.261 129.23 146.664 129.964 146.664H179.648C180.382 146.664 180.98 147.261 180.98 147.996V148.966C180.98 149.7 180.382 150.297 179.648 150.297ZM129.964 147.69C129.799 147.69 129.658 147.83 129.658 147.996V148.966C129.658 149.132 129.798 149.272 129.964 149.272H179.648C179.814 149.272 179.954 149.132 179.954 148.966V147.996C179.954 147.831 179.814 147.69 179.648 147.69H129.964Z" fill="white"/>
</svg>
