<svg width="72" height="72" viewBox="0 0 72 72" fill="none" xmlns="http://www.w3.org/2000/svg">
<path d="M65.0202 42.4267C68.8118 26.5791 59.0385 10.6584 43.1909 6.86674C27.3433 3.07512 11.4226 12.8484 7.63097 28.696C3.83935 44.5436 13.6126 60.4643 29.4602 64.256C45.3079 68.0476 61.2286 58.2743 65.0202 42.4267Z" fill="#F9FAFC"/>
<path d="M36.3126 70.3596C17.1256 70.3596 1.51562 54.7496 1.51562 35.5626C1.51562 16.3756 17.1256 0.765625 36.3126 0.765625C55.4996 0.765625 71.1096 16.3756 71.1096 35.5626C71.1096 54.7496 55.4996 70.3596 36.3126 70.3596ZM36.3126 1.84763C17.7216 1.84763 2.59763 16.9726 2.59763 35.5626C2.59763 54.1536 17.7216 69.2776 36.3126 69.2776C54.9036 69.2776 70.0276 54.1536 70.0276 35.5626C70.0286 16.9716 54.9036 1.84763 36.3126 1.84763Z" fill="#00C0B5"/>
<mask id="mask0_34630_3844" style="mask-type:luminance" maskUnits="userSpaceOnUse" x="11" y="10" width="51" height="51">
<path d="M36.3119 60.4129C50.0368 60.4129 61.1629 49.2868 61.1629 35.5619C61.1629 21.8371 50.0368 10.7109 36.3119 10.7109C22.5871 10.7109 11.4609 21.8371 11.4609 35.5619C11.4609 49.2868 22.5871 60.4129 36.3119 60.4129Z" fill="white"/>
</mask>
<g mask="url(#mask0_34630_3844)">
<path d="M40.3008 42.9452V39.4922H32.3218V42.9452C32.3218 44.3632 30.9998 45.5122 29.3688 45.5122L26.2578 55.4772H46.3658L43.2548 45.5122C41.6228 45.5132 40.3008 44.3632 40.3008 42.9452Z" fill="#FFE7BC"/>
<path d="M36.3104 43.8312C37.8674 43.8312 39.2774 43.5272 40.3054 43.0352C40.3044 43.0052 40.3004 42.9752 40.3004 42.9452V39.4922H32.3214V42.9452C32.3214 42.9752 32.3174 43.0052 32.3164 43.0352C33.3434 43.5272 34.7534 43.8312 36.3104 43.8312Z" fill="#FFEDD2"/>
<path d="M26.1095 31.9866C26.4595 33.2746 25.9675 34.5286 25.0115 34.7876C24.0555 35.0476 22.9975 34.2136 22.6475 32.9266C22.2985 31.6386 22.7895 30.3846 23.7455 30.1256C24.7015 29.8656 25.7605 30.6996 26.1095 31.9866Z" fill="#FFE7BC"/>
<path d="M46.5112 31.9866C46.1612 33.2746 46.6532 34.5286 47.6092 34.7876C48.5652 35.0476 49.6232 34.2136 49.9732 32.9266C50.3232 31.6386 49.8312 30.3846 48.8752 30.1256C47.9182 29.8656 46.8602 30.6996 46.5112 31.9866Z" fill="#FFE7BC"/>
<path d="M26.5498 32.1301C26.8848 33.0301 26.4138 33.9061 25.4988 34.0871C24.5838 34.2681 23.5708 33.6861 23.2368 32.7871C22.9018 31.8871 23.3728 31.0111 24.2878 30.8301C25.2018 30.6481 26.2148 31.2311 26.5498 32.1301Z" fill="#FFEDD2"/>
<path d="M46.0763 32.1301C45.7423 33.0301 46.2123 33.9061 47.1273 34.0871C48.0423 34.2681 49.0553 33.6861 49.3893 32.7871C49.7243 31.8871 49.2533 31.0111 48.3383 30.8301C47.4243 30.6481 46.4113 31.2311 46.0763 32.1301Z" fill="#FFEDD2"/>
<path d="M36.3112 42.4564C43.0695 42.4564 48.5482 36.0827 48.5482 28.2204C48.5482 20.3581 43.0695 13.9844 36.3112 13.9844C29.5529 13.9844 24.0742 20.3581 24.0742 28.2204C24.0742 36.0827 29.5529 42.4564 36.3112 42.4564Z" fill="#FFE7BC"/>
<path d="M31.4523 23.7939C33.7593 23.7939 41.2613 24.0329 43.8133 21.6119C45.5143 25.9969 46.1723 28.0439 48.5643 30.0809C53.8693 23.0299 50.4233 15.9839 45.0793 14.9959C43.7483 11.7109 39.7653 11.7109 36.3123 11.7109C32.5443 11.7109 28.3043 14.2819 24.0753 13.9859C21.0863 17.1219 19.9283 26.1929 24.1313 30.0809C26.2533 26.3889 25.1943 23.7939 31.4523 23.7939Z" fill="#B28056"/>
<path d="M39.1003 36.867C39.1003 37.431 37.8803 38.857 36.3763 38.857C34.8713 38.857 33.6523 37.432 33.6523 36.867C33.6523 36.303 34.8723 36.813 36.3763 36.813C37.8813 36.814 39.1003 36.303 39.1003 36.867Z" fill="white"/>
<path d="M28.0704 31.0495C27.9374 31.0495 27.8034 30.9985 27.7014 30.8975C27.4964 30.6935 27.4954 30.3625 27.6984 30.1575C27.7594 30.0955 29.2414 28.6435 32.5604 28.9695C32.8484 28.9975 33.0584 29.2535 33.0304 29.5415C33.0024 29.8295 32.7504 30.0425 32.4584 30.0115C29.6724 29.7365 28.4524 30.8835 28.4414 30.8955C28.3394 30.9985 28.2044 31.0495 28.0704 31.0495Z" fill="#B57852"/>
<path d="M31.9846 32.2501C31.9846 32.8281 31.5156 33.2971 30.9376 33.2971C30.3596 33.2971 29.8906 32.8281 29.8906 32.2501C29.8906 31.6721 30.3596 31.2031 30.9376 31.2031C31.5156 31.2031 31.9846 31.6721 31.9846 32.2501Z" fill="#B57852"/>
<path d="M44.5494 31.0495C44.6824 31.0495 44.8164 30.9985 44.9184 30.8975C45.1244 30.6935 45.1254 30.3625 44.9214 30.1575C44.8604 30.0955 43.3774 28.6435 40.0584 28.9695C39.7704 28.9975 39.5604 29.2535 39.5884 29.5415C39.6164 29.8295 39.8684 30.0425 40.1604 30.0115C42.9464 29.7365 44.1664 30.8835 44.1774 30.8955C44.2794 30.9985 44.4144 31.0495 44.5494 31.0495Z" fill="#B57852"/>
<path d="M40.6328 32.2501C40.6328 32.8281 41.1018 33.2971 41.6798 33.2971C42.2578 33.2971 42.7268 32.8281 42.7268 32.2501C42.7268 31.6721 42.2578 31.2031 41.6798 31.2031C41.1008 31.2031 40.6328 31.6721 40.6328 32.2501Z" fill="#B57852"/>
<path d="M50.058 45.5H43.032C43.237 47.114 40.522 49.645 36.311 49.645C32.1 49.645 29.385 47.115 29.59 45.5H22.564C21.456 45.5 20.505 46.29 20.302 47.379L17.875 60.413H54.746L52.319 47.379C52.117 46.29 51.166 45.5 50.058 45.5Z" fill="#60A2BF"/>
<path d="M44.1819 55.4609H37.0859V60.4089H44.1819V55.4609Z" fill="#60A2BF"/>
</g>
</svg>
