<svg width="85" height="85" viewBox="0 0 85 85" fill="none" xmlns="http://www.w3.org/2000/svg">
<path d="M63.1707 63.4944C74.6922 51.9729 74.6922 33.2928 63.1706 21.7712C51.6491 10.2497 32.969 10.2497 21.4475 21.7712C9.92598 33.2928 9.92597 51.9728 21.4475 63.4944C32.969 75.0159 51.6491 75.0159 63.1707 63.4944Z" fill="#F9FAFC"/>
<path d="M42.3126 77.4299C23.1256 77.4299 7.51562 61.8199 7.51562 42.6329C7.51562 23.4459 23.1256 7.83594 42.3126 7.83594C61.4996 7.83594 77.1096 23.4459 77.1096 42.6329C77.1096 61.8199 61.4996 77.4299 42.3126 77.4299ZM42.3126 8.91693C23.7216 8.91693 8.59763 24.0409 8.59763 42.6319C8.59763 61.2229 23.7216 76.3469 42.3126 76.3469C60.9036 76.3469 76.0276 61.2229 76.0276 42.6319C76.0286 24.0409 60.9036 8.91693 42.3126 8.91693Z" fill="#00C0B5"/>
<mask id="mask0_34630_3911" style="mask-type:luminance" maskUnits="userSpaceOnUse" x="17" y="17" width="51" height="51">
<path d="M42.3119 67.4832C56.0368 67.4832 67.1629 56.3571 67.1629 42.6322C67.1629 28.9074 56.0368 17.7812 42.3119 17.7812C28.5871 17.7812 17.4609 28.9074 17.4609 42.6322C17.4609 56.3571 28.5871 67.4832 42.3119 67.4832Z" fill="white"/>
</mask>
<g mask="url(#mask0_34630_3911)">
<path d="M42.3151 57.4134C49.0734 57.4134 54.5521 54.8637 54.5521 51.7184C54.5521 48.5732 49.0734 46.0234 42.3151 46.0234C35.5568 46.0234 30.0781 48.5732 30.0781 51.7184C30.0781 54.8637 35.5568 57.4134 42.3151 57.4134Z" fill="#AA313D"/>
<path opacity="0.2" d="M52.4662 52.4026C52.4662 55.1706 47.9202 57.4146 42.3132 57.4146C36.7062 57.4146 32.1602 55.1706 32.1602 52.4026C32.1602 49.6346 36.7062 47.3906 42.3132 47.3906C47.9212 47.3906 52.4662 49.6346 52.4662 52.4026Z" fill="#AA313D"/>
<path d="M46.3047 50.1796V46.7266H38.3257V50.1796C38.3257 51.5976 37.0037 52.7466 35.3727 52.7466L32.2617 62.7116H52.3697L49.2587 52.7466C47.6267 52.7476 46.3047 51.5976 46.3047 50.1796Z" fill="#FFECC2"/>
<path d="M42.3124 51.8176C43.9594 51.8176 45.4204 51.3496 46.3494 50.6276C46.3204 50.4816 46.3014 50.3326 46.3014 50.1796V46.9156C46.2144 46.8496 46.1214 46.7876 46.0254 46.7266H38.5974C38.5014 46.7876 38.4094 46.8506 38.3214 46.9156V50.1796C38.3214 50.3326 38.3034 50.4816 38.2734 50.6276C39.2054 51.3496 40.6654 51.8176 42.3124 51.8176Z" fill="#FFEDD2"/>
<path d="M32.1134 39.0566C32.4634 40.3446 31.9714 41.5986 31.0154 41.8576C30.0594 42.1166 29.0014 41.2836 28.6514 39.9966C28.3024 38.7086 28.7934 37.4546 29.7494 37.1956C30.7054 36.9366 31.7644 37.7696 32.1134 39.0566Z" fill="#FFECC2"/>
<path d="M52.519 39.0566C52.169 40.3446 52.661 41.5986 53.617 41.8576C54.573 42.1166 55.631 41.2836 55.981 39.9966C56.331 38.7086 55.839 37.4546 54.883 37.1956C53.927 36.9366 52.868 37.7696 52.519 39.0566Z" fill="#FFECC2"/>
<path d="M32.5498 39.2004C32.8848 40.1004 32.4138 40.9764 31.4988 41.1574C30.5838 41.3384 29.5708 40.7565 29.2368 39.8575C28.9018 38.9575 29.3728 38.0815 30.2878 37.9005C31.2018 37.7185 32.2148 38.3014 32.5498 39.2004Z" fill="#FFEDD2"/>
<path d="M52.0763 39.2002C51.7423 40.1002 52.2123 40.9762 53.1273 41.1572C54.0423 41.3382 55.0553 40.7562 55.3893 39.8572C55.7243 38.9572 55.2533 38.0812 54.3383 37.9002C53.4233 37.7192 52.4113 38.3012 52.0763 39.2002Z" fill="#FFEDD2"/>
<path d="M42.3151 49.8187C49.0734 49.8187 54.5521 43.3796 54.5521 35.4367C54.5521 27.4937 49.0734 21.0547 42.3151 21.0547C35.5568 21.0547 30.0781 27.4937 30.0781 35.4367C30.0781 43.3796 35.5568 49.8187 42.3151 49.8187Z" fill="#FFECC2"/>
<path d="M35.2645 28.5318C40.9155 31.4988 52.8065 27.9687 54.5645 37.1537C58.4305 30.3207 57.0995 24.2708 50.1845 20.1118C39.6215 13.7588 35.3235 18.3977 32.9735 22.4677C26.9185 21.7847 26.7025 32.8507 30.1315 37.1537C31.8615 37.1527 31.6005 32.3708 35.2645 28.5318Z" fill="#F5C871"/>
<path d="M45.1042 43.8669C45.1042 44.2809 43.8842 45.3268 42.3802 45.3268C40.8752 45.3268 39.6562 44.2809 39.6562 43.8669C39.6562 43.4529 40.8762 43.8268 42.3802 43.8268C43.8852 43.8268 45.1042 43.4529 45.1042 43.8669Z" fill="#0D0D0D"/>
<path d="M34.0704 38.1208C33.9374 38.1208 33.8034 38.0698 33.7014 37.9688C33.4964 37.7648 33.4954 37.4338 33.6984 37.2278C33.7594 37.1658 35.2414 35.7138 38.5604 36.0398C38.8484 36.0678 39.0584 36.3238 39.0304 36.6118C39.0024 36.8998 38.7504 37.1118 38.4584 37.0818C35.6724 36.8058 34.4524 37.9538 34.4414 37.9658C34.3394 38.0688 34.2044 38.1208 34.0704 38.1208Z" fill="#B5663A"/>
<path d="M37.9846 39.3204C37.9846 39.8984 37.5156 40.3674 36.9376 40.3674C36.3596 40.3674 35.8906 39.8984 35.8906 39.3204C35.8906 38.7424 36.3596 38.2734 36.9376 38.2734C37.5156 38.2734 37.9846 38.7414 37.9846 39.3204Z" fill="#B5663A"/>
<path d="M50.5494 38.1208C50.6824 38.1208 50.8164 38.0698 50.9184 37.9688C51.1244 37.7648 51.1254 37.4338 50.9214 37.2278C50.8604 37.1658 49.3774 35.7138 46.0584 36.0398C45.7704 36.0678 45.5604 36.3238 45.5884 36.6118C45.6164 36.8998 45.8684 37.1118 46.1604 37.0818C48.9464 36.8058 50.1664 37.9538 50.1774 37.9658C50.2794 38.0688 50.4144 38.1208 50.5494 38.1208Z" fill="#B5663A"/>
<path d="M46.6328 39.3204C46.6328 39.8984 47.1018 40.3674 47.6798 40.3674C48.2578 40.3674 48.7268 39.8984 48.7268 39.3204C48.7268 38.7424 48.2578 38.2734 47.6798 38.2734C47.1008 38.2724 46.6328 38.7414 46.6328 39.3204Z" fill="#B5663A"/>
<path d="M56.0599 52.5703H48.5109C48.7159 54.1853 46.5249 56.7153 42.3139 56.7153C38.1029 56.7153 35.9119 54.1853 36.1169 52.5703H28.5679C27.4599 52.5703 26.5089 53.3603 26.3059 54.4493L23.8789 67.4833H60.7499L58.3229 54.4493C58.1189 53.3603 57.1679 52.5703 56.0599 52.5703Z" fill="#AA313D"/>
<path opacity="0.2" d="M42.6085 57.4141H42.0195V67.4801H42.6085V57.4141Z" fill="#AA313D"/>
<path opacity="0.2" d="M32.1797 52.5703C32.3587 55.2613 36.8217 57.4163 42.3157 57.4163C47.8097 57.4163 52.2727 55.2603 52.4517 52.5703H48.5127C48.7177 54.1843 46.5267 56.7153 42.3157 56.7153C38.1047 56.7153 35.9137 54.1853 36.1187 52.5703H32.1797Z" fill="#AA313D"/>
<path opacity="0.2" d="M30.7812 53.7188C30.7812 53.7188 32.8752 58.6917 42.0173 58.5617C42.0173 58.5617 32.6463 61.4408 30.7812 53.7188Z" fill="#AA313D"/>
<path opacity="0.2" d="M53.8454 53.7188C53.8454 53.7188 51.7514 58.6917 42.6094 58.5617C42.6094 58.5617 51.9804 61.4408 53.8454 53.7188Z" fill="#AA313D"/>
</g>
</svg>
