<svg width="71" height="71" viewBox="0 0 71 71" fill="none" xmlns="http://www.w3.org/2000/svg">
<path d="M35.3155 65.006C51.6096 65.006 64.8185 51.7971 64.8185 35.503C64.8185 19.2089 51.6096 6 35.3155 6C19.0214 6 5.8125 19.2089 5.8125 35.503C5.8125 51.7971 19.0214 65.006 35.3155 65.006Z" fill="#F9FAFC"/>
<path d="M35.3126 70.2971C16.1256 70.2971 0.515625 54.6871 0.515625 35.5001C0.515625 16.3131 16.1256 0.703125 35.3126 0.703125C54.4996 0.703125 70.1096 16.3131 70.1096 35.5001C70.1096 54.6871 54.4996 70.2971 35.3126 70.2971ZM35.3126 1.78513C16.7216 1.78513 1.59763 16.9091 1.59763 35.5001C1.59763 54.0911 16.7216 69.2151 35.3126 69.2151C53.9036 69.2151 69.0276 54.0911 69.0276 35.5001C69.0276 16.9091 53.9036 1.78513 35.3126 1.78513Z" fill="#00C0B5"/>
<mask id="mask0_34630_3777" style="mask-type:luminance" maskUnits="userSpaceOnUse" x="10" y="10" width="51" height="51">
<path d="M35.3119 60.3504C49.0368 60.3504 60.1629 49.2243 60.1629 35.4994C60.1629 21.7746 49.0368 10.6484 35.3119 10.6484C21.5871 10.6484 10.4609 21.7746 10.4609 35.4994C10.4609 49.2243 21.5871 60.3504 35.3119 60.3504Z" fill="white"/>
</mask>
<g mask="url(#mask0_34630_3777)">
<path d="M51.3883 27.2544C49.5733 16.7064 44.1913 11.6484 35.3123 11.6484C26.4333 11.6484 21.0513 16.7064 19.2363 27.2544C18.5333 31.3414 17.1523 41.5194 17.1523 41.5194C20.0843 44.5424 30.6973 46.2634 35.3123 46.2634C39.9273 46.2634 50.5403 44.5424 53.4723 41.5194C53.4723 41.5194 52.0913 31.3414 51.3883 27.2544Z" fill="#FFC149"/>
<path opacity="0.2" d="M48.0574 26.5979C49.2054 35.3709 43.3314 43.7329 35.3114 43.7329C27.2914 43.7329 21.4174 35.3709 22.5654 26.5979C23.5384 19.1639 29.1884 13.9219 35.3114 13.9219C41.4344 13.9219 47.0844 19.1639 48.0574 26.5979Z" fill="#FFC149"/>
<path d="M38.7797 42.8671V39.4141H31.8427V42.8671C31.8427 44.2851 30.6937 45.4341 29.2757 45.4341H23.4297V55.3991H47.1927V45.4341H41.3467C39.9287 45.4341 38.7797 44.2851 38.7797 42.8671Z" fill="#FFEDD2"/>
<path d="M25.1134 31.9241C25.4634 33.2111 24.9714 34.4661 24.0154 34.7251C23.0594 34.9841 22.0014 34.1511 21.6514 32.8641C21.3024 31.5761 21.7934 30.3221 22.7494 30.0631C23.7054 29.8031 24.7644 30.6371 25.1134 31.9241Z" fill="#FFEDD2"/>
<path d="M45.519 31.9241C45.169 33.2111 45.661 34.4661 46.617 34.7251C47.573 34.9841 48.631 34.1511 48.981 32.8641C49.331 31.5761 48.839 30.3221 47.883 30.0631C46.926 29.8031 45.868 30.6371 45.519 31.9241Z" fill="#FFEDD2"/>
<path d="M25.5498 32.0677C25.8848 32.9667 25.4138 33.8437 24.4988 34.0247C23.5838 34.2057 22.5708 33.6237 22.2368 32.7247C21.9018 31.8247 22.3728 30.9487 23.2878 30.7677C24.2018 30.5857 25.2148 31.1677 25.5498 32.0677Z" fill="#FFEDD2"/>
<path d="M45.0763 32.0677C44.7423 32.9667 45.2123 33.8437 46.1273 34.0247C47.0423 34.2057 48.0553 33.6237 48.3893 32.7247C48.7243 31.8247 48.2533 30.9487 47.3383 30.7677C46.4243 30.5857 45.4113 31.1677 45.0763 32.0677Z" fill="#FFEDD2"/>
<path d="M49.3603 47.0605C49.0613 46.0955 48.1693 45.4375 47.1593 45.4375H41.3553C41.1353 47.2315 38.2273 52.8945 35.3123 52.8945C32.3973 52.8945 29.4903 47.2315 29.2693 45.4375H23.4653C22.4553 45.4375 21.5633 46.0955 21.2643 47.0605L17.1523 60.3505H53.4713L49.3603 47.0605Z" fill="#FFA4C2"/>
<path d="M31.8457 39.4141V42.8671C31.8457 43.2881 31.7347 43.6801 31.5547 44.0311C32.7527 44.4551 34.0177 44.6841 35.3137 44.6841C36.6107 44.6841 37.8747 44.4551 39.0727 44.0311C38.8927 43.6801 38.7817 43.2881 38.7817 42.8671V39.4141H31.8457Z" fill="#FFEDD2"/>
<path d="M35.3151 42.3939C42.0734 42.3939 47.5521 36.0202 47.5521 28.1579C47.5521 20.2955 42.0734 13.9219 35.3151 13.9219C28.5568 13.9219 23.0781 20.2955 23.0781 28.1579C23.0781 36.0202 28.5568 42.3939 35.3151 42.3939Z" fill="#FFEDD2"/>
<path d="M35.3131 26.9034C41.5711 26.9034 47.1751 27.5414 50.9621 30.7684C48.8161 17.8594 43.5811 11.6484 35.3131 11.6484C27.0451 11.6484 21.8111 17.8594 19.6641 30.7684C23.4521 27.5414 29.0551 26.9034 35.3131 26.9034Z" fill="#FFC149"/>
<path d="M26.1233 30.0964C26.0483 30.0944 25.9743 30.0644 25.9183 30.0064C25.8063 29.8894 25.8083 29.7034 25.9253 29.5914C26.0073 29.5114 27.9843 27.6434 31.7123 28.4114C31.8713 28.4444 31.9733 28.5994 31.9413 28.7584C31.9083 28.9184 31.7493 29.0194 31.5933 28.9874C28.1883 28.2884 26.4073 29.9434 26.3333 30.0144C26.2753 30.0714 26.1993 30.0984 26.1233 30.0964Z" fill="#B5663A"/>
<path d="M29.7749 30.7656C29.4189 30.7656 29.0999 30.9166 28.8729 31.1556C28.6679 31.1576 28.4079 31.1176 28.1049 30.9656C27.9779 30.9016 27.8189 30.9536 27.7539 31.0826C27.6899 31.2116 27.7419 31.3696 27.8709 31.4346C28.1309 31.5646 28.3699 31.6306 28.5849 31.6606C28.5509 31.7736 28.5279 31.8906 28.5279 32.0146C28.5279 32.7036 29.0859 33.2616 29.7749 33.2616C30.4639 33.2616 31.0219 32.7036 31.0219 32.0146C31.0219 31.3236 30.4639 30.7656 29.7749 30.7656Z" fill="#B5663A"/>
<path d="M44.3164 30.0964C44.3914 30.0944 44.4664 30.0644 44.5214 30.0064C44.6334 29.8894 44.6314 29.7034 44.5144 29.5914C44.4324 29.5114 42.4553 27.6434 38.7273 28.4114C38.5683 28.4444 38.4653 28.5994 38.4983 28.7584C38.5313 28.9184 38.6904 29.0194 38.8464 28.9874C42.2514 28.2884 44.0323 29.9434 44.1063 30.0144C44.1643 30.0714 44.2404 30.0984 44.3164 30.0964Z" fill="#B5663A"/>
<path d="M40.6611 30.7656C41.0171 30.7656 41.3361 30.9166 41.5631 31.1556C41.7681 31.1576 42.0281 31.1176 42.3311 30.9656C42.4581 30.9016 42.6171 30.9536 42.6821 31.0826C42.7461 31.2116 42.6941 31.3696 42.5651 31.4346C42.3051 31.5646 42.0661 31.6306 41.8511 31.6606C41.8851 31.7736 41.9081 31.8906 41.9081 32.0146C41.9081 32.7036 41.3501 33.2616 40.6611 33.2616C39.9721 33.2616 39.4141 32.7036 39.4141 32.0146C39.4141 31.3236 39.9721 30.7656 40.6611 30.7656Z" fill="#B5663A"/>
<path d="M37.4487 36.7547C37.4487 37.2127 36.5207 38.3687 35.3767 38.3687C34.2327 38.3687 33.3047 37.2127 33.3047 36.7547C33.3047 36.2967 34.2327 36.7107 35.3767 36.7107C36.5207 36.7107 37.4487 36.2967 37.4487 36.7547Z" fill="#FFA4C2"/>
</g>
</svg>
