<svg width="44" height="44" viewBox="0 0 44 44" fill="none" xmlns="http://www.w3.org/2000/svg">
<rect width="44" height="44" rx="22" fill="#00C0B5"/>
<g clip-path="url(#clip0_34630_3025)">
<path d="M29.3455 32.7344C29.5512 32.7344 29.7543 32.8127 29.9087 32.9618C30.8961 33.9153 32.3364 34.2328 33.6168 33.8354C32.7928 32.1187 32.6786 30.1521 33.3172 28.3311C34.1096 26.0655 34.3082 23.7946 33.4063 21.5171C32.614 19.5164 31.0849 17.8541 29.1498 16.9062C29.2688 17.5409 29.3288 18.1876 29.3288 18.8412C29.3289 21.6151 28.2622 24.2241 26.3254 26.1876C24.3884 28.1513 21.7919 29.2555 19.0143 29.2968C18.4982 29.3049 17.9845 29.2745 17.4766 29.2076C19.0031 31.8834 21.8822 33.6261 25.0459 33.673C26.4299 33.6944 27.7587 33.4045 28.9963 32.8135C29.1077 32.7602 29.2271 32.7344 29.3455 32.7344Z" fill="white"/>
<path d="M19.0355 10.0018C14.108 9.90392 10.0119 13.8902 10 18.8166C9.99712 20.0202 10.2321 21.1872 10.6984 22.2852C10.7052 22.3012 10.7115 22.3174 10.7172 22.3338C11.3557 24.1548 11.2416 26.1214 10.4175 27.8381C11.698 28.2353 13.1381 27.918 14.1256 26.9645C14.3689 26.7295 14.7328 26.6703 15.0381 26.8162C16.2754 27.4072 17.6045 27.698 18.9884 27.6758C23.8773 27.6032 27.7069 23.7213 27.7069 18.8383C27.7069 14.0619 23.8169 10.0979 19.0355 10.0018ZM14.1309 20.1583C13.423 20.1583 12.8491 19.5854 12.8491 18.8786C12.8491 18.1719 13.423 17.5989 14.1309 17.5989C14.8389 17.5989 15.4128 18.1719 15.4128 18.8786C15.4127 19.5854 14.8389 20.1583 14.1309 20.1583ZM18.8535 20.1583C18.1455 20.1583 17.5716 19.5854 17.5716 18.8786C17.5716 18.1719 18.1455 17.5989 18.8535 17.5989C19.5614 17.5989 20.1353 18.1719 20.1353 18.8786C20.1353 19.5854 19.5614 20.1583 18.8535 20.1583ZM23.5761 20.1583C22.8681 20.1583 22.2942 19.5854 22.2942 18.8786C22.2942 18.1719 22.8681 17.5989 23.5761 17.5989C24.284 17.5989 24.8579 18.1719 24.8579 18.8786C24.8579 19.5854 24.284 20.1583 23.5761 20.1583Z" fill="white"/>
</g>
<defs>
<clipPath id="clip0_34630_3025">
<rect width="24" height="24" fill="white" transform="translate(10 10)"/>
</clipPath>
</defs>
</svg>
