<svg width="24" height="28" viewBox="0 0 24 28" fill="none" xmlns="http://www.w3.org/2000/svg">
<path d="M21.189 28.0007H2.83465C2.45669 28.0007 2.07874 27.9323 1.72441 27.7956C1.3937 27.6589 1.08661 27.4539 0.826772 27.2033C0.566929 26.9527 0.354331 26.6565 0.212599 26.3375C0.0708663 25.9958 0 25.654 0 25.2667V6.83549C0 6.47097 0.0708663 6.10644 0.212599 5.7647C0.354331 5.44574 0.566929 5.14957 0.826772 4.89896C1.08661 4.64835 1.3937 4.4433 1.72441 4.30661C2.07874 4.16991 2.43307 4.10156 2.83465 4.10156H5.62205V5.46853H2.83465C2.05512 5.46853 1.41732 6.08366 1.41732 6.83549V25.2667C1.41732 26.0186 2.05512 26.6337 2.83465 26.6337H21.189C21.9685 26.6337 22.6063 26.0186 22.6063 25.2667V6.83549C22.6063 6.08366 21.9685 5.46853 21.189 5.46853H18.4016V4.10156H21.1654C21.5433 4.10156 21.9213 4.16991 22.2756 4.30661C22.6063 4.4433 22.9134 4.64835 23.1732 4.89896C23.4331 5.14957 23.6457 5.44574 23.7874 5.7647C23.9291 6.10644 24 6.44819 24 6.83549V25.2667C24 25.6313 23.9291 25.9958 23.7874 26.3375C23.6457 26.6565 23.4331 26.9527 23.1732 27.2033C22.9134 27.4539 22.6063 27.6589 22.2756 27.7956C21.9449 27.9323 21.5669 28.0007 21.189 28.0007Z" fill="#0084BF"/>
<path d="M19.0623 8.20179H4.93633V3.78194C4.93633 2.84784 5.71586 2.07323 6.70798 2.07323H8.52688C9.1883 0.820179 10.5111 0 11.9993 0C13.4875 0 14.8103 0.820179 15.4718 2.07323H17.2907C18.2592 2.07323 19.0623 2.82506 19.0623 3.78194V8.20179ZM6.35365 6.83483H17.645V3.78194C17.645 3.59967 17.4796 3.4402 17.2907 3.4402H14.5033L14.3379 2.98454C13.9836 2.02766 13.0623 1.38975 11.9993 1.38975C10.9363 1.38975 10.0151 2.02766 9.66074 2.98454L9.49539 3.4402H6.70798C6.51901 3.4402 6.35365 3.59967 6.35365 3.78194V6.83483ZM9.6135 21.9854C9.42452 21.9854 9.25917 21.917 9.11743 21.7803L4.29854 17.1326C4.1568 16.9959 4.08594 16.8365 4.08594 16.6542C4.08594 16.4719 4.1568 16.3124 4.29854 16.1758C4.44027 16.0391 4.60562 15.9707 4.7946 15.9707C4.98358 15.9707 5.14893 16.0391 5.29066 16.1758L9.1883 19.9349C9.30641 20.0488 9.44814 20.0944 9.58987 20.0944C9.73161 20.0944 9.89696 20.0488 9.99145 19.9349L18.708 11.5281C18.8497 11.3914 19.0151 11.323 19.204 11.323C19.393 11.323 19.5584 11.3914 19.7001 11.5281C19.9836 11.8015 19.9836 12.2116 19.7001 12.4849L10.1096 21.7803C9.96783 21.8942 9.77885 21.9854 9.6135 21.9854Z" fill="#0084BF"/>
</svg>
