<svg width="130" height="141" viewBox="0 0 130 141" fill="none" xmlns="http://www.w3.org/2000/svg">
<path d="M64.777 140.999C100.552 140.999 129.554 111.998 129.554 76.2224C129.554 40.447 100.552 11.4453 64.777 11.4453C29.0017 11.4453 0 40.447 0 76.2224C0 111.998 29.0017 140.999 64.777 140.999Z" fill="#E6FAF9"/>
<path d="M75.8071 51.1864C75.541 53.2469 75.9689 55.3913 76.7858 57.5126C77.4743 59.2822 76.8377 61.3942 75.5022 62.744C74.1667 64.0937 72.2472 64.7488 70.3523 64.8688C68.4571 64.9883 66.566 64.6181 64.7223 64.1649C63.1949 63.7893 61.6626 63.3468 60.309 62.5464C58.9554 61.7456 57.7814 60.545 57.1274 58.9985C57.3496 54.358 57.1155 49.6963 56.4297 45.1016C57.3881 46.4559 58.7563 47.4789 60.2267 48.2474C61.6972 49.0159 63.278 49.5468 64.8511 50.0746C66.4899 50.6243 68.1391 51.1768 69.848 51.4374C71.5564 51.6977 73.3455 51.6538 75.8071 51.1864Z" fill="#FF9D77"/>
<path d="M84.4013 11.2976C85.0029 17.7395 85.0833 24.2845 83.8227 30.6307C82.5621 36.9766 79.8961 43.1429 75.5162 47.9049C73.1539 50.4733 70.0581 52.6999 66.5689 52.7606C63.5012 52.8137 60.5933 51.1418 58.5416 48.8609C56.4899 46.5801 55.1809 43.7353 54.0649 40.8774C51.5987 34.5612 49.9245 27.9389 49.0557 21.214C48.6447 18.034 48.4156 14.7817 49.0515 11.6386C49.6873 8.49543 51.2773 5.44149 53.9019 3.5989C57.5805 1.01627 62.4924 1.2304 66.9407 1.87856C70.4686 2.39254 74.0119 3.12835 77.2101 4.70414C80.4078 6.27994 84.1441 8.54502 84.4013 11.2976Z" fill="#7A300A"/>
<path d="M83.1562 13.7827C84.0012 23.9006 84.8097 34.3445 81.5374 43.978C80.499 47.0346 78.9317 50.1089 76.1791 51.875C73.4439 53.63 69.8714 53.8149 66.7305 52.9218C63.5897 52.0288 60.5377 50.8344 58.075 48.728C55.7035 46.6998 53.2884 43.7585 52.583 40.7476C51.7138 37.0382 51.1902 34.642 51.0949 31.4589C50.9299 25.953 50.8396 20.368 52.2078 15.0248C52.7525 12.8965 53.5525 10.7783 54.988 9.09333C57.4872 6.15972 61.5476 4.95491 65.4358 4.62852C69.2766 4.3056 73.2582 4.72002 76.7154 6.38923C80.173 8.05806 82.9317 11.0989 83.1562 13.7827Z" fill="#FF9D77"/>
<path d="M77.7015 39.5547C77.1436 41.9974 75.0323 43.9591 72.7984 44.1106C70.5641 44.2621 68.4055 42.5898 67.9453 40.1298C70.837 41.5622 74.3696 41.4211 77.7015 39.5547Z" fill="black"/>
<path d="M72.1514 23.7188C72.4421 24.9889 72.7446 26.2399 73.1525 27.4428C73.5731 28.6456 74.107 29.7682 74.8313 30.815C75.0097 31.0853 75.1846 31.377 75.3491 31.6419C75.5171 31.9149 75.6971 32.184 75.8631 32.4769C76.0261 32.7695 76.1926 33.0843 76.2779 33.4645C76.3779 33.8428 76.3018 34.2864 76.1245 34.614C75.9669 34.9377 75.6886 35.2544 75.3687 35.4251C75.0508 35.6062 74.7164 35.7042 74.3873 35.7681C73.7253 35.8841 73.0787 35.8945 72.4271 35.9118C73.0522 35.7265 73.6984 35.6116 74.2908 35.4032C74.8882 35.2022 75.3991 34.8881 75.5798 34.3622C75.6775 34.1065 75.6974 33.872 75.6233 33.6229C75.5537 33.373 75.406 33.112 75.2384 32.851L74.1889 31.2371C73.8341 30.6893 73.4889 30.1073 73.2213 29.4964C72.958 28.8832 72.735 28.2558 72.5793 27.6134C72.266 26.3306 72.1257 25.0216 72.1514 23.7188Z" fill="black"/>
<path d="M63.7767 28.5309C63.7313 27.7094 64.1673 27.0174 64.7504 26.9855C65.3336 26.9536 65.8426 27.5933 65.888 28.4148C65.9333 29.2364 65.4974 29.9284 64.9142 29.9603C64.3314 29.9926 63.822 29.3525 63.7767 28.5309Z" fill="black"/>
<path d="M78.5384 28.2223C78.493 27.4008 78.929 26.7088 79.5122 26.6769C80.095 26.645 80.6043 27.2847 80.6497 28.1062C80.6951 28.9278 80.2591 29.6198 79.6759 29.6517C79.0931 29.684 78.5838 29.0439 78.5384 28.2223Z" fill="black"/>
<path d="M61.302 33.9071C61.3528 32.4347 62.962 31.2953 64.8961 31.3622C66.8302 31.4291 68.3568 32.6769 68.306 34.1493C68.2549 35.6217 66.646 36.7612 64.712 36.6943C62.7779 36.6274 61.2509 35.3795 61.302 33.9071Z" fill="#ED906B"/>
<path d="M76.5051 33.8017C76.5559 32.3293 78.1651 31.1898 80.0992 31.2567C82.0333 31.3236 83.5599 32.5715 83.5091 34.0438C83.458 35.5162 81.8491 36.6557 79.9151 36.5888C77.981 36.5219 76.4544 35.274 76.5051 33.8017Z" fill="#ED906B"/>
<path d="M61.2609 23.5583C62.5865 22.8202 64.0181 22.2728 65.4978 21.9383C65.931 21.8403 66.3904 21.7615 66.8141 21.8952C67.2377 22.0294 67.6049 22.4434 67.5368 22.8825C67.4768 23.2669 67.1089 23.541 66.7303 23.6294C66.3512 23.7178 65.956 23.6633 65.5681 23.6371C63.8143 23.5187 62.0252 24.0096 60.5774 25.0065C60.4298 25.108 60.2572 25.2202 60.0853 25.1702C59.8597 25.1049 59.8012 24.7854 59.9181 24.5817C60.0342 24.3779 60.1895 24.1546 61.2609 23.5583Z" fill="#7A300A"/>
<path d="M82.1726 23.3756C80.7702 22.797 79.2847 22.4203 77.7758 22.2603C77.3341 22.2134 76.869 22.1888 76.4638 22.3711C76.0586 22.5533 75.7422 23.0077 75.8614 23.4355C75.9655 23.8104 76.3631 24.0395 76.7498 24.0833C77.1365 24.1271 77.5225 24.0268 77.905 23.9557C79.633 23.6335 81.4672 23.9126 83.0214 24.7342C83.1798 24.818 83.3643 24.9091 83.5293 24.8395C83.7457 24.748 83.7669 24.4239 83.6265 24.2356C83.4862 24.0464 83.3063 23.843 82.1726 23.3756Z" fill="#7A300A"/>
<path d="M57.2877 9.84581C59.3687 8.621 62.0474 9.19534 64.2356 10.2168C66.4238 11.2382 68.4567 12.6802 70.8167 13.1923C73.4155 13.7559 76.1023 13.1289 78.753 12.9167C81.4036 12.7048 84.3776 13.0489 85.7443 14.8727C86.2244 11.6142 85.1484 8.21081 83.0813 5.64664C81.0142 3.08285 78.0175 1.3406 74.8214 0.545592C71.6252 -0.249416 68.241 -0.131394 65.0329 0.613638C62.9335 1.10148 60.8265 1.89726 59.3026 3.42154C57.7783 4.94582 56.9683 7.33161 57.2877 9.84581Z" fill="#7A300A"/>
<path d="M58.8907 8.09943C57.1965 10.2526 57.1876 13.2635 57.5332 15.9811C57.8784 18.699 58.4947 21.4908 57.7839 24.1368C57.0281 26.9513 54.8107 29.4178 54.9656 32.328C55.0044 33.0557 55.0198 34.0548 54.3071 34.2071C53.8723 34.3001 53.4498 33.9338 53.3025 33.5139C53.1553 33.0941 53.2514 32.6348 53.2222 32.1911C52.5125 21.5016 50.6861 26.8383 50.6845 23.694C50.6834 21.269 49.2198 14.9097 49.7035 12.5335C50.317 9.51761 51.4061 6.25723 54.0783 4.73026C55.3443 4.00675 57.0046 3.79186 58.2383 4.5688C59.4719 5.3465 59.7072 7.06185 58.8907 8.09943Z" fill="#7A300A"/>
<path d="M51.4028 25.0423C50.5378 24.5656 49.393 24.7344 48.6153 25.3226C47.8376 25.9108 47.4032 26.8526 47.2913 27.8045C47.1794 28.7563 47.3613 29.7224 47.6384 30.6454C47.9252 31.6011 48.3262 32.5476 48.9993 33.303C49.6725 34.0588 50.6532 34.6051 51.6796 34.589C52.0417 34.5832 52.4346 34.489 52.6476 34.2072C52.8733 33.9081 52.8294 33.4979 52.776 33.1293C52.3958 30.5205 52.016 27.9113 51.4028 25.0423Z" fill="#FF9D77"/>
<path d="M48.2109 28.369C48.2405 28.023 48.3951 27.7128 48.5996 27.4448C48.808 27.1788 49.0771 26.9589 49.3792 26.8024C49.6814 26.6456 50.0182 26.5526 50.3584 26.5399C50.6975 26.531 51.0438 26.5933 51.3348 26.784C51.015 26.9151 50.742 27.0162 50.4806 27.1319C50.22 27.2438 49.9747 27.3606 49.7318 27.4852C49.4892 27.6101 49.2501 27.7435 49.0048 27.8904L48.2109 28.369Z" fill="black"/>
<path d="M49.1602 27.5938C49.5223 27.9228 49.7453 28.3734 49.9148 28.8109C50.0813 29.2533 50.1927 29.6966 50.3088 30.1168C50.4238 30.53 50.5541 30.9314 50.7329 31.3085C50.9128 31.686 51.135 32.0359 51.5144 32.3384C51.0174 32.3465 50.5437 32.0247 50.2277 31.6407C49.9052 31.2501 49.6964 30.7888 49.568 30.3213C49.4416 29.8588 49.382 29.4017 49.3297 28.955C49.2813 28.5045 49.2359 28.0712 49.1602 27.5938Z" fill="black"/>
<path d="M54.4131 28.9918C54.6103 37.1991 59.8256 45.0826 67.302 48.4745C68.2496 48.9043 69.4733 49.2276 70.2402 48.5241C70.6004 48.1935 70.7642 47.7076 71.0064 47.2828C71.2486 46.858 71.6573 46.4497 72.1447 46.4893C72.8348 46.545 73.1162 47.375 73.5433 47.9194C74.3821 48.9881 76.0867 48.9966 77.2519 48.298C78.4171 47.5995 79.1641 46.3886 79.8411 45.2107C81.6598 42.0456 83.0027 38.3001 83.5297 35.0482C83.7165 38.7691 83.8115 40.8908 83.3421 43.8171C82.8723 46.7434 81.5557 49.6497 79.1864 51.4304C76.1374 53.7224 69.5306 57.7601 59.7475 50.4947C56.6305 48.18 54.7295 44.0912 54.1932 40.0915C53.3117 36.4471 52.8735 32.6954 52.8911 28.946C52.8923 28.6912 52.8996 28.4221 53.0322 28.2045C53.2429 27.8593 53.773 27.7655 54.0894 28.0184C54.4058 28.2714 54.4085 28.808 54.4131 28.9918Z" fill="#7A300A"/>
<path d="M79.2849 47.2077C80.1383 44.4859 80.5589 42.5761 80.7169 39.6771C80.8214 37.7634 80.6158 37.2378 78.6913 36.9003C77.5445 36.6992 76.1471 37.4862 75.0188 37.3228C74.6163 37.2644 74.2246 37.1087 73.8194 37.0956C73.4142 37.0825 72.9671 37.2532 72.7726 37.6765C72.555 38.1501 72.7441 38.7733 73.087 39.1262C73.4299 39.4791 73.8878 39.6229 74.3311 39.7378C75.9914 40.1691 77.6979 40.3502 79.3833 40.3321C79.0773 43.1124 78.629 45.8707 78.0416 48.5859C78.408 48.7355 78.9074 48.411 79.2849 47.2077Z" fill="#7A300A"/>
<path d="M73.5317 38.7343C71.9436 40.0975 69.9134 40.7087 67.9721 40.4085C67.0921 40.2724 66.0653 40.0079 65.4217 40.7352C64.955 41.2627 64.8977 42.11 64.8697 42.875C64.8259 44.0775 64.7824 45.2796 64.7386 46.4821C64.7236 46.8996 64.7021 47.3406 64.5064 47.6873C64.3107 48.0341 63.8755 48.2248 63.5991 47.9672C63.3942 47.7765 63.3542 47.4325 63.3323 47.1241C63.1643 44.7541 63.1601 42.3679 63.32 39.9971C63.3685 39.2806 63.4561 38.5017 63.8905 38.0023C64.4998 37.3019 65.4748 37.4653 66.3167 37.5756C67.9997 37.7963 69.7197 37.6052 71.3393 37.0178C71.8806 36.8217 72.4699 36.5822 72.9931 36.8371C73.5163 37.092 73.7366 38.1261 73.5317 38.7343Z" fill="#7A300A"/>
<path d="M60.8622 1.60938C60.3417 2.33326 59.87 3.05715 59.4637 3.81218C59.0627 4.56875 58.7136 5.34607 58.4468 6.15261C58.167 6.95454 57.969 7.78338 57.8252 8.62759C57.6864 9.47373 57.618 10.3349 57.5876 11.2264C57.3005 10.3798 57.1963 9.47143 57.2282 8.56954C57.2551 7.66497 57.4335 6.76617 57.7199 5.90542C58.0194 5.04929 58.4265 4.22814 58.9574 3.49541C59.4821 2.76152 60.1188 2.10529 60.8622 1.60938Z" fill="black"/>
<path d="M56.1734 3.17969C56.1826 3.80747 56.1649 4.40795 56.1615 5.00498C56.158 5.60162 56.1699 6.19172 56.1918 6.78106C56.2164 7.3704 56.2487 7.95973 56.2983 8.55445C56.3475 9.14955 56.4106 9.74696 56.4482 10.3736C56.1061 9.84576 55.8724 9.26142 55.7078 8.65979C55.5437 8.05776 55.446 7.43537 55.4241 6.81028C55.3995 6.18519 55.4491 5.55779 55.5671 4.94462C55.6851 4.3326 55.8731 3.73212 56.1734 3.17969Z" fill="black"/>
<path d="M54.6831 9.36047C54.3514 9.14211 54.063 8.95028 53.764 8.78613C53.4687 8.62005 53.1731 8.47743 52.8694 8.35326C52.5657 8.22947 52.2554 8.12298 51.9287 8.03379C51.6008 7.94076 51.2609 7.87425 50.8711 7.79544C51.1932 7.55786 51.5908 7.45291 51.9879 7.43215C52.3865 7.41485 52.7906 7.48905 53.1612 7.64205C53.5321 7.79467 53.8716 8.02533 54.1426 8.31789C54.4106 8.61236 54.6197 8.96527 54.6831 9.36047Z" fill="black"/>
<path d="M55.6895 11.8281C54.4789 12.8423 53.6228 14.0632 52.9631 15.4118C52.6337 16.0857 52.3446 16.7862 52.0705 17.5035C51.796 18.2205 51.535 18.9536 51.207 19.6767C51.2224 18.8836 51.3224 18.1032 51.4957 17.3309C51.6695 16.5597 51.9159 15.7947 52.2735 15.0731C52.6287 14.3496 53.0954 13.6742 53.6686 13.1018C54.2383 12.5301 54.9276 12.0607 55.6895 11.8281Z" fill="black"/>
<path d="M53.7057 11.1094C52.4179 12.0189 51.554 13.2349 50.9193 14.5797C50.6033 15.2543 50.3354 15.9594 50.084 16.6829C49.8318 17.4056 49.5938 18.146 49.2813 18.8742C49.2801 18.083 49.3551 17.3034 49.5042 16.5276C49.6538 15.7537 49.8775 14.981 50.2239 14.2517C50.5683 13.5205 51.0377 12.8409 51.6248 12.2784C52.2083 11.7175 52.9272 11.2751 53.7057 11.1094Z" fill="black"/>
<path d="M63.0195 6.75486C63.6231 5.86028 64.4058 5.0845 65.2815 4.43557C66.1557 3.78127 67.133 3.26574 68.1559 2.87631C69.1839 2.49995 70.2603 2.24968 71.3494 2.17241C72.4362 2.08976 73.5361 2.16395 74.5775 2.44613C73.5011 2.48303 72.4531 2.57953 71.4256 2.76751C70.3999 2.9605 69.3938 3.22807 68.4243 3.59635C67.4497 3.95157 66.514 4.40789 65.6122 4.93341C64.7118 5.46393 63.8568 6.0771 63.0195 6.75486Z" fill="black"/>
<path d="M67 8.93716C68.048 7.78001 69.3904 6.87505 70.857 6.26919C72.3236 5.6564 73.9252 5.35385 75.526 5.37615C77.1268 5.4119 78.716 5.77365 80.1592 6.43988C81.6023 7.09956 82.9105 8.05373 83.9143 9.2497C82.6891 8.28708 81.3494 7.52436 79.9289 6.99384C78.5088 6.46986 77.013 6.16539 75.5117 6.14425C74.0105 6.10926 72.5043 6.35799 71.0658 6.82892C69.6264 7.30677 68.2594 8.0199 67 8.93716Z" fill="black"/>
<path d="M74.3164 11.2208C75.1683 10.6776 76.0544 10.2028 76.9863 9.80572C77.9155 9.40437 78.8977 9.09952 79.9149 8.9296C80.9356 8.7739 81.9889 8.76621 83.0046 8.98611C84.0153 9.19793 84.9971 9.64003 85.7352 10.3382C84.8191 9.91028 83.8711 9.6727 82.912 9.5789C81.9532 9.49164 80.9859 9.53123 80.036 9.68847C79.0799 9.83301 78.1365 10.0906 77.1893 10.3678C76.2432 10.6496 75.2959 10.969 74.3164 11.2208Z" fill="black"/>
<mask id="mask0_35124_4039" style="mask-type:luminance" maskUnits="userSpaceOnUse" x="0" y="11" width="130" height="130">
<path d="M64.777 140.992C100.552 140.992 129.554 111.99 129.554 76.2145C129.554 40.4392 100.552 11.4375 64.777 11.4375C29.0017 11.4375 0 40.4392 0 76.2145C0 111.99 29.0017 140.992 64.777 140.992Z" fill="white"/>
</mask>
<g mask="url(#mask0_35124_4039)">
<path d="M56.9431 52.3945C58.0537 56.656 59.0033 58.3644 61.5063 60.0075C64.0094 61.6505 67.129 62.4751 70.0588 61.8581C72.9886 61.2411 75.4416 57.7981 76.1313 54.7146C80.6634 58.8872 81.4373 60.6479 82.3945 64.1255C83.3517 67.6031 88.8188 94.1417 88.7211 103.856C88.625 113.405 86.5514 134.962 88.3501 144.34C88.3501 144.34 48.3564 142.919 48.3398 142.767C49.9387 117.952 51.9497 80.3213 56.9431 52.3945Z" fill="#2B3126"/>
<path d="M53.2617 89.4455C64.9143 90.4946 76.6968 90.0906 88.2502 88.2461C88.2502 88.2461 87.5866 97.4183 87.5101 97.4025C76.3331 99.4131 64.8139 99.5085 53.605 97.6824L53.2617 89.4455Z" fill="#FFE1CC"/>
<path d="M54.0312 106.36C65.6838 107.409 77.4663 107.005 89.0197 105.16C89.0197 105.16 88.3562 114.332 88.2797 114.317C77.1026 116.327 65.5835 116.423 54.3745 114.596L54.0312 106.36Z" fill="#FFE1CC"/>
<path d="M54.9922 123.852C66.6448 124.901 78.4273 124.497 89.9806 122.652C89.9806 122.652 89.3171 131.825 89.2406 131.809C78.0636 133.819 66.5444 133.915 55.3355 132.089L54.9922 123.852Z" fill="#FFE1CC"/>
<path d="M51.4844 56.8945C52.522 58.1436 53.6337 59.3184 54.8063 60.4344C55.3864 60.998 55.9738 61.5546 56.5654 62.1086C57.159 62.6518 57.7403 63.2461 58.3331 63.7644C60.7069 65.8749 63.8743 66.9217 67.0336 67.0474C68.6182 67.1185 70.2147 66.984 71.7702 66.6522C73.3287 66.3328 74.8414 65.7972 76.2523 65.0695C77.6385 64.3172 78.9587 63.3515 79.819 62.0263C80.6936 60.7319 80.9477 58.9678 80.2842 57.475C80.6956 58.1778 80.8724 59.0166 80.8316 59.842C80.7924 60.667 80.5652 61.4962 80.1424 62.2205C79.3047 63.6813 77.9645 64.7635 76.5429 65.5946C73.6543 67.2262 70.3051 67.9405 66.999 67.8151C66.1717 67.7686 65.3467 67.6721 64.5313 67.5149C63.7201 67.3407 62.9113 67.1378 62.1366 66.8306C61.3647 66.5231 60.6047 66.1744 59.9019 65.7254C59.7212 65.6216 59.5471 65.5081 59.3791 65.3847C59.2099 65.2636 59.0358 65.1491 58.8713 65.0218C58.5526 64.7539 58.2204 64.5025 57.929 64.2045C56.7603 63.0501 55.6486 61.8906 54.5375 60.695C53.4504 59.486 52.3836 58.2485 51.4844 56.8945Z" fill="black"/>
<path d="M98.7656 71.4737C102.906 78.9217 105.065 87.4592 104.964 95.9802C104.913 100.289 104.299 104.634 105.012 108.884C105.629 112.569 107.225 116.042 107.764 119.739C108.712 126.235 107.018 139.377 108.759 143.261C108.759 143.261 94.2881 144.103 94.1209 143.692C94.5534 120.234 92.6797 93.3168 93.1122 69.859C93.1268 69.0663 93.1806 68.1814 93.7599 67.6405C94.5323 66.9197 95.8736 67.251 96.5701 68.0453C97.2671 68.8399 97.7926 69.7237 98.7656 71.4737Z" fill="#91C8CF"/>
<path d="M76.0514 55.0877C79.3052 57.7303 81.3888 61.8241 81.7802 65.9976C82.1715 70.1713 81.4534 74.3601 80.1417 78.4086C82.308 84.7233 84.2994 91.1695 84.8218 97.8248C85.2616 103.424 84.6515 109.044 84.3667 114.653C84.0818 120.262 85.099 138.68 86.8128 144.028C86.8128 144.028 98.558 144.579 98.4104 143.853C96.7643 133.569 97.2648 112.339 98.9524 102.062C100.64 91.7857 101.956 81.072 99.2181 70.7188C96.1626 65.7254 90.8271 62.1917 84.8753 61.0314C83.9238 56.7792 78.7255 51.7539 78.7255 51.7539C78.7255 51.7539 78.0777 52.3121 75.9299 53.4204L75.6992 53.5165C75.7 53.5165 75.9552 54.6787 76.0514 55.0877Z" fill="#91C8CF"/>
<path d="M99.6849 80.3047C99.967 81.6045 100.158 82.9311 100.227 84.2628L100.293 85.2616L100.323 86.2611L100.352 87.2614L100.353 88.2617C100.335 90.9293 100.2 93.5942 99.9978 96.2525C99.8033 98.912 99.4934 101.561 99.1513 104.206C98.7987 106.849 98.402 109.486 97.868 112.111C97.5939 113.419 97.3218 114.697 97.1341 116.009C96.9385 117.315 96.7966 118.631 96.6894 119.95C96.4721 122.59 96.4352 125.244 96.396 127.901C96.3676 130.558 96.3983 133.219 96.388 135.882C96.3514 138.545 96.3076 141.212 96.0693 143.865C96.1331 141.204 96.1019 138.545 96.0108 135.886C95.9447 133.228 95.8478 130.568 95.8044 127.903C95.7217 122.584 95.9478 117.188 97.1165 111.952C98.1986 106.768 98.8518 101.479 99.4111 96.2002C99.6841 93.558 99.8828 90.9077 99.9782 88.254C100.079 85.6037 100.1 82.9365 99.6849 80.3047Z" fill="black"/>
<path d="M104.96 123.812C104.181 123.81 103.425 123.793 102.674 123.805C101.923 123.816 101.178 123.856 100.437 123.918C99.6946 123.984 98.9541 124.071 98.2126 124.187C97.4702 124.304 96.729 124.448 95.9609 124.582C96.6114 124.15 97.3311 123.836 98.0753 123.603C98.82 123.371 99.5915 123.217 100.371 123.153C101.15 123.085 101.937 123.105 102.71 123.208C103.482 123.311 104.245 123.498 104.96 123.812Z" fill="black"/>
<path d="M105.557 120.849C104.709 121.044 103.881 121.223 103.063 121.431C102.247 121.643 101.439 121.868 100.645 122.139C99.8475 122.396 99.0648 122.698 98.2829 123.014C97.5025 123.335 96.7305 123.686 95.9336 124.034C96.5514 123.42 97.2633 122.909 98.018 122.476C98.7715 122.037 99.5769 121.69 100.403 121.409C101.235 121.142 102.088 120.94 102.955 120.843C103.819 120.741 104.695 120.726 105.557 120.849Z" fill="black"/>
<path d="M105.882 118.993C105.031 119.118 104.208 119.254 103.401 119.441C102.595 119.633 101.803 119.858 101.035 120.149C100.261 120.426 99.5124 120.768 98.7746 121.143C98.0385 121.524 97.3234 121.953 96.5938 122.408C97.1074 121.716 97.7532 121.126 98.4636 120.63C99.1725 120.129 99.9552 119.734 100.77 119.428C101.589 119.135 102.441 118.928 103.306 118.851C104.168 118.769 105.042 118.8 105.882 118.993Z" fill="black"/>
<path d="M104.802 116.995C103.915 117.284 103.068 117.606 102.257 117.995C101.449 118.388 100.673 118.833 99.9485 119.352C99.2157 119.861 98.5357 120.442 97.8937 121.07C97.2544 121.703 96.6658 122.391 96.0938 123.128C96.3832 122.239 96.8603 121.411 97.4462 120.67C98.0294 119.925 98.7344 119.276 99.5064 118.724C100.286 118.184 101.135 117.739 102.033 117.441C102.927 117.139 103.868 116.969 104.802 116.995Z" fill="black"/>
<path d="M104.307 103.77C104.297 104.822 104.164 105.867 103.96 106.897C103.761 107.929 103.472 108.942 103.133 109.937C102.779 110.927 102.373 111.899 101.886 112.83C101.404 113.762 100.856 114.662 100.207 115.491C100.576 114.506 100.966 113.547 101.339 112.583C101.707 111.618 102.073 110.656 102.407 109.683C102.754 108.714 103.067 107.734 103.381 106.75C103.69 105.764 103.983 104.77 104.307 103.77Z" fill="black"/>
<path d="M91.7339 73.4648C92.6877 75.7799 93.3462 78.2138 93.8225 80.678C94.2754 83.1483 94.5176 85.6552 94.6206 88.1644C94.8171 93.189 94.3846 98.2047 93.8821 103.182L93.0348 110.635C92.7569 113.118 92.5328 115.604 92.3136 118.09C92.1061 120.577 91.9604 123.069 91.9281 125.564C91.8731 128.059 91.9634 130.557 92.2368 133.044C91.7904 130.58 91.6236 128.07 91.5513 125.566C91.5071 123.059 91.5867 120.551 91.7235 118.05C92.008 113.045 92.6116 108.071 93.1186 103.1C93.6841 98.1382 94.1009 93.1609 94.0325 88.1802C94.0017 85.6914 93.8264 83.2025 93.4535 80.7399C93.1044 78.2729 92.5247 75.8387 91.7339 73.4648Z" fill="black"/>
<path d="M85.4883 70.5391C86.5782 73.4104 87.3413 76.3998 87.9656 79.4087C88.5645 82.4254 88.9932 85.4732 89.3372 88.5271C89.6905 91.5814 89.8997 94.648 90.0938 97.7127C90.2822 100.778 90.429 103.844 90.5716 106.91C90.8042 113.042 91.0457 119.169 91.51 125.278C91.7384 128.332 92.0429 131.381 92.4781 134.413C92.8894 137.448 93.461 140.461 94.2211 143.435C93.2931 140.508 92.6445 137.496 92.1055 134.471C91.5931 131.44 91.2217 128.387 90.9207 125.329C90.3325 119.21 90.0973 113.07 89.8043 106.943C89.5717 100.812 89.2969 94.6869 88.751 88.5863C88.4796 85.5366 88.117 82.4942 87.5969 79.4775C87.0991 76.457 86.414 73.4658 85.4883 70.5391Z" fill="black"/>
<path d="M82.0576 69.1406C82.6031 69.74 83.096 70.3896 83.4443 71.1531C83.7906 71.9109 83.9821 72.7931 83.8172 73.6769C83.7368 74.1179 83.5492 74.5381 83.3247 74.8983C83.0925 75.2573 82.8411 75.5818 82.577 75.8813C82.0641 76.491 81.5386 77.0423 81.2772 77.8181C81.2391 77.4094 81.3472 76.9892 81.5033 76.6036C81.667 76.2192 81.8781 75.8621 82.0937 75.5253C82.5282 74.8506 82.938 74.2182 83.0621 73.5343C83.1917 72.8416 83.1006 72.0908 82.8853 71.3634C82.6708 70.6303 82.3336 69.906 82.0576 69.1406Z" fill="black"/>
<path d="M82.9307 70.1306C83.8626 70.0107 84.8502 69.8996 85.5637 69.3583C85.9154 69.0946 86.1988 68.7386 86.3103 68.3469C86.4271 67.9574 86.3495 67.5572 86.1699 67.1509L84.9132 64.6252C84.4927 63.7779 84.0736 62.9317 83.6361 62.0971C83.2036 61.2602 82.765 60.4268 82.2914 59.616C81.832 58.7964 81.3353 57.9999 80.8171 57.2175C79.783 55.6494 78.5954 54.1893 77.2695 52.8242C78.8057 53.9468 80.1597 55.3361 81.3057 56.8696C82.4725 58.3931 83.4316 60.0577 84.3181 61.7442C85.1827 63.4538 85.9789 65.1457 86.7258 66.9333C86.8108 67.1717 86.8811 67.4277 86.9015 67.7003C86.9223 67.9713 86.8861 68.2585 86.7839 68.5099C86.5844 69.0196 86.2026 69.4064 85.7724 69.6705C84.8752 70.1937 83.8668 70.1718 82.9307 70.1306Z" fill="black"/>
<path d="M84.8711 61.2031C85.3497 62.0039 85.8618 62.7693 86.4104 63.5036C86.9613 64.2363 87.5521 64.9333 88.1722 65.6014C88.7992 66.2623 89.4501 66.9004 90.1474 67.4813C90.836 68.0714 91.5714 68.6042 92.3364 69.0606L92.3576 69.0732C92.5217 69.1713 92.5755 69.3839 92.4775 69.548C92.4379 69.6141 92.3798 69.6626 92.3137 69.6899C91.8324 69.8917 91.3284 70.0374 90.8148 70.1001C90.3028 70.165 89.7849 70.175 89.2778 70.1066C88.2653 69.9836 87.2899 69.5926 86.5192 68.9706C87.4087 69.4031 88.3652 69.6176 89.3113 69.6322C89.7841 69.633 90.2547 69.5957 90.711 69.4946C91.1658 69.3916 91.6102 69.252 92.0239 69.0486L92.0016 69.6783C91.1451 69.2359 90.3777 68.6696 89.6515 68.0641C88.9357 67.4463 88.2633 66.7801 87.6602 66.0554C87.0504 65.3373 86.5049 64.565 86.0317 63.7538C85.5573 62.9446 85.1579 62.0904 84.8711 61.2031Z" fill="black"/>
<path d="M88.1666 120.086C88.7504 120.086 89.2238 119.483 89.2238 118.74C89.2238 117.997 88.7504 117.395 88.1666 117.395C87.5827 117.395 87.1094 117.997 87.1094 118.74C87.1094 119.483 87.5827 120.086 88.1666 120.086Z" fill="black"/>
<path d="M87.397 98.941C87.9809 98.941 88.4542 98.3386 88.4542 97.5955C88.4542 96.8524 87.9809 96.25 87.397 96.25C86.8132 96.25 86.3398 96.8524 86.3398 97.5955C86.3398 98.3386 86.8132 98.941 87.397 98.941Z" fill="black"/>
<path d="M83.7447 79.3356C84.3286 79.3356 84.8019 78.7332 84.8019 77.99C84.8019 77.2469 84.3286 76.6445 83.7447 76.6445C83.1608 76.6445 82.6875 77.2469 82.6875 77.99C82.6875 78.7332 83.1608 79.3356 83.7447 79.3356Z" fill="black"/>
<path d="M56.7857 51.3242C57.6464 57.0258 57.059 62.7492 61.9351 68.5622C60.9418 72.819 59.9465 77.0901 59.5017 81.4388C59.0888 85.4773 59.1542 89.5473 59.2203 93.6065C59.4352 106.789 59.6505 129.981 60.8334 143.112C60.8334 143.112 25.0345 142.341 25.3828 142.239C24.4517 117.536 23.4114 85.518 22.8125 60.2842C25.0511 56.3961 29.8453 54.9429 34.189 53.82C39.8971 52.3441 50.2184 51.4449 56.7857 51.3242Z" fill="#91C8CF"/>
<path d="M30.6664 94.9207C33.1925 86.7696 34.3343 78.2002 34.1336 69.6688C34.0502 66.1247 33.6566 62.3669 31.4999 59.5532C30.0667 57.6834 27.7413 56.3528 25.4051 56.6565C23.6213 56.8883 22.0767 58.012 20.8015 59.2811C17.4942 62.5718 15.5036 66.9809 14.2703 71.4807C13.0371 75.9805 12.4958 80.6356 11.6631 85.2261C10.8078 89.9427 9.63792 94.6401 9.56065 99.4332C9.48338 104.226 11.5931 113.672 14.8139 117.222C16.053 118.589 22.6994 113.288 24.0361 111.401C27.5014 106.508 28.9092 100.591 30.6664 94.9207Z" fill="#91C8CF"/>
<path d="M60.6936 70.0399C58.7841 69.1161 56.9803 67.952 55.3353 66.5907C53.6826 65.2375 52.1864 63.6921 50.8547 62.0183C49.5338 60.3356 48.3767 58.5226 47.4425 56.6016C46.4987 54.6864 45.7841 52.6616 45.3281 50.5898C46.0709 52.5762 46.9593 54.4888 47.9742 56.3237C48.9987 58.1532 50.1558 59.9043 51.4575 61.5416C54.0459 64.8343 57.1775 67.6729 60.6936 70.0399Z" fill="black"/>
<path d="M55.3146 66.3203C55.0051 67.8688 54.716 69.4204 54.4581 70.9762C54.2105 72.5339 53.9833 74.0943 53.8072 75.6605C53.4305 78.789 53.1875 81.9329 53.1045 85.0803C53.0226 88.2273 53.0491 91.375 53.2337 94.5181C53.4124 97.662 53.7069 100.802 53.9814 103.949C54.2393 107.095 54.4538 110.26 54.5496 113.418C54.6576 116.575 54.7625 119.736 54.731 122.899C54.7114 126.06 54.6272 129.223 54.4008 132.379L54.1817 134.741C54.0806 135.526 54.0125 136.314 53.8845 137.095C53.6758 138.663 53.3536 140.216 52.9499 141.742C53.6046 138.651 53.891 135.504 54.0244 132.356C54.174 129.208 54.1917 126.054 54.1394 122.902C54.0771 119.75 53.9941 116.598 53.8499 113.446C53.7315 110.293 53.4931 107.158 53.2156 104.013C52.9645 100.867 52.692 97.7174 52.5355 94.5554C52.4563 92.9746 52.4098 91.3904 52.4052 89.8065C52.3964 89.0146 52.4098 88.2226 52.4217 87.4311C52.4509 86.6395 52.469 85.848 52.5155 85.0576C52.6708 81.8949 52.9799 78.7414 53.4351 75.6113C53.9168 72.4843 54.5242 69.3785 55.3146 66.3203Z" fill="black"/>
<path d="M38.0312 57.5352C38.624 59.6111 39.1696 61.6974 39.6666 63.7941C40.1741 65.8885 40.6381 67.9921 41.0933 70.0973C41.5342 72.2055 41.9659 74.3161 42.3538 76.4358C42.7525 78.5533 43.1019 80.6811 43.4033 82.8193C42.8094 80.7434 42.2639 78.6571 41.7668 76.5608C41.2593 74.4664 40.7957 72.3628 40.3413 70.2572C39.9011 68.1486 39.4694 66.0381 39.0819 63.9183C38.6836 61.8008 38.3338 59.673 38.0312 57.5352Z" fill="black"/>
<path d="M28.8164 62.8633C31.9376 68.2434 34.1843 74.1372 35.6293 80.2039C36.3405 83.2417 36.858 86.3256 37.1413 89.4303C37.4354 92.5335 37.4896 95.6574 37.3005 98.7598C37.1905 95.6539 36.936 92.5642 36.5451 89.4964C36.1429 86.4302 35.5986 83.3851 34.8816 80.3804C33.4707 74.3628 31.396 68.516 28.8164 62.8633Z" fill="black"/>
<path d="M21.9805 62.8398C23.233 63.4515 24.4135 64.2057 25.5284 65.0465C26.6471 65.8842 27.6889 66.8233 28.6658 67.8248C29.6322 68.8362 30.5333 69.9111 31.3307 71.059C32.1314 72.2031 32.8426 73.4102 33.4081 74.6842C32.5674 73.5736 31.7301 72.4807 30.8536 71.4227C29.9736 70.3682 29.0687 69.3395 28.113 68.3588C27.1676 67.3681 26.1719 66.4266 25.1497 65.5094C24.1237 64.5948 23.0607 63.719 21.9805 62.8398Z" fill="black"/>
<path d="M23.3047 68.9414C24.5968 69.3589 25.832 69.9521 26.9983 70.6583C28.1685 71.361 29.2615 72.1918 30.2779 73.1056C31.2851 74.0298 32.2162 75.0385 33.0274 76.1369C33.8416 77.2306 34.5494 78.4042 35.0872 79.651C34.273 78.5657 33.4441 77.5147 32.5611 76.5148C31.675 75.5183 30.7489 74.5634 29.7612 73.6746C28.7832 72.7754 27.7441 71.9442 26.6681 71.1569C25.5882 70.3727 24.463 69.648 23.3047 68.9414Z" fill="black"/>
<path d="M17.9648 73.9214C19.2673 73.5428 20.6301 73.364 21.9949 73.3398C23.3611 73.3102 24.7313 73.4524 26.0733 73.7246C27.4123 74.0106 28.7248 74.4285 29.9653 75.0021C31.2067 75.5703 32.3842 76.2792 33.426 77.148C32.2108 76.5486 30.9895 76.0081 29.7385 75.5572C28.4868 75.1116 27.2132 74.7407 25.9165 74.4766C24.6225 74.199 23.3069 74.0295 21.9814 73.9372C20.654 73.8499 19.3184 73.8569 17.9648 73.9214Z" fill="black"/>
<path d="M20.6523 81.7834C21.9521 81.3971 23.3203 81.2299 24.687 81.2345C26.0556 81.2341 27.4241 81.4228 28.7547 81.7565C30.0813 82.1041 31.3719 82.5977 32.5713 83.257C33.7715 83.9109 34.8898 84.717 35.8425 85.6824C34.6915 84.9685 33.5197 84.3307 32.3061 83.7952C31.0913 83.265 29.8434 82.8226 28.5636 82.5008C27.2873 82.1656 25.9802 81.9518 24.6604 81.8315C23.3388 81.7162 22.0048 81.7112 20.6523 81.7834Z" fill="black"/>
<path d="M55.8951 95.734C56.2872 94.3219 56.2926 92.805 55.9105 91.3906C55.7371 91.3933 55.586 91.5236 55.5087 91.6786C55.4311 91.8335 55.4134 92.0107 55.3992 92.1837C55.3184 93.1548 55.3065 94.1313 55.3634 95.1039C55.3746 95.2972 55.3899 95.4952 55.4718 95.6705C55.5537 95.8458 55.8105 96.0392 55.8951 95.734Z" stroke="black" stroke-miterlimit="10" stroke-linecap="round" stroke-linejoin="round"/>
<path d="M57.3547 77.4764C57.8622 76.1017 57.9929 74.5905 57.7291 73.1492C57.5561 73.1377 57.3951 73.2549 57.3047 73.4033C57.2148 73.5513 57.1825 73.7266 57.1536 73.8973C56.9929 74.8584 56.9003 75.8306 56.8769 76.8048C56.8722 76.9982 56.8711 77.1969 56.938 77.3784C57.0049 77.5598 57.2448 77.774 57.3547 77.4764Z" stroke="black" stroke-miterlimit="10" stroke-linecap="round" stroke-linejoin="round"/>
<path d="M57.1062 118.208C57.3926 116.771 57.2857 115.257 56.7998 113.875C56.6271 113.891 56.4861 114.032 56.4203 114.192C56.3546 114.352 56.35 114.53 56.3484 114.704C56.34 115.678 56.4003 116.653 56.5291 117.619C56.5545 117.81 56.5845 118.007 56.679 118.176C56.7736 118.344 57.0443 118.518 57.1062 118.208Z" stroke="black" stroke-miterlimit="10" stroke-linecap="round" stroke-linejoin="round"/>
<path d="M57.8757 137.426C58.1621 135.989 58.0552 134.476 57.5693 133.094C57.3967 133.11 57.2556 133.251 57.1899 133.411C57.1241 133.571 57.1195 133.749 57.118 133.923C57.1095 134.897 57.1699 135.872 57.2987 136.837C57.324 137.029 57.354 137.226 57.4486 137.394C57.5432 137.563 57.8138 137.737 57.8757 137.426Z" stroke="black" stroke-miterlimit="10" stroke-linecap="round" stroke-linejoin="round"/>
<path d="M52.3357 24.7629L56.9296 43.6136C56.9516 43.7032 56.9227 43.7974 56.8551 43.8593L50.7776 49.4166C50.633 49.5485 50.4 49.4732 50.3605 49.2813L46.5599 30.8281C46.5438 30.7505 46.5653 30.6694 46.6184 30.6102L51.9024 24.6553C52.037 24.503 52.2872 24.5653 52.3357 24.7629Z" fill="#C64300"/>
<path d="M51.9255 30.0455C52.2705 30.0455 52.5502 29.7013 52.5502 29.2767C52.5502 28.852 52.2705 28.5078 51.9255 28.5078C51.5805 28.5078 51.3008 28.852 51.3008 29.2767C51.3008 29.7013 51.5805 30.0455 51.9255 30.0455Z" fill="black"/>
<path d="M51.3513 27.8346C51.6963 27.8346 51.976 27.4904 51.976 27.0657C51.976 26.6411 51.6963 26.2969 51.3513 26.2969C51.0063 26.2969 50.7266 26.6411 50.7266 27.0657C50.7266 27.4904 51.0063 27.8346 51.3513 27.8346Z" fill="black"/>
<path d="M44.3373 97.118C48.2397 88.4974 50.2583 80.2102 53.0586 71.1714C53.0586 71.1714 57.6987 64.4211 57.8005 64.0213C58.2707 61.2277 58.2107 58.3459 57.9536 55.2028C59.7719 53.7477 60.8587 51.4208 60.798 48.7132C61.0778 48.4906 61.154 48.0835 61.0763 47.7344C60.999 47.3854 60.7957 47.0793 60.5965 46.7822C59.4794 45.1168 58.3626 43.4511 57.2304 41.7826C57.0732 41.5854 56.8126 41.4931 56.5604 41.4847C56.3082 41.4758 56.0598 41.5408 55.8169 41.6085C54.2015 42.0583 52.6276 42.6568 51.171 43.1866C51.9249 41.5235 52.4869 39.7732 52.8421 37.9821C52.9997 37.1871 53.117 36.3767 53.0647 35.5683C53.0124 34.7594 52.7802 33.9467 52.2951 33.2978C52.056 32.9783 51.6827 32.68 51.2956 32.7761C50.8246 32.893 50.6797 33.4758 50.5901 33.9529C50.0811 36.6727 48.6218 39.1058 47.1883 41.4724C46.2906 42.9548 45.3926 44.4371 44.4949 45.9191C43.9371 46.8402 43.3735 47.7736 42.946 49.068C44.631 53.0315 45.8416 57.1961 46.5355 61.564C45.4929 64.5811 43.9571 67.4274 42.0072 69.9547C42.0072 69.9547 29.8665 83.8942 30.021 83.98C32.847 89.748 37.2637 95.784 44.3373 97.118Z" fill="#FF9D77"/>
<path d="M59.651 49.7227C59.5852 49.9891 59.4322 50.194 59.2527 50.3647C59.0701 50.5319 58.8529 50.6568 58.6203 50.7353C58.3877 50.8141 58.1386 50.8452 57.8922 50.8217C57.6461 50.7941 57.4005 50.7226 57.1875 50.5484C57.4174 50.4004 57.6169 50.3105 57.8103 50.2228C58.0033 50.1394 58.1882 50.0686 58.3758 50.0064C58.5634 49.9437 58.7537 49.8887 58.9582 49.8388C59.1654 49.7926 59.3788 49.7438 59.651 49.7227Z" fill="black"/>
<path d="M59.1581 52.0896C58.9985 52.2587 58.809 52.3326 58.6179 52.3695C58.4265 52.4018 58.232 52.386 58.0505 52.3291C57.869 52.2726 57.7003 52.1738 57.5623 52.0377C57.427 51.8981 57.3139 51.7282 57.2812 51.4976C57.5119 51.4737 57.6818 51.4864 57.8433 51.5026C58.0017 51.5222 58.1439 51.5522 58.2819 51.5964C58.4203 51.6402 58.5541 51.6971 58.6952 51.7724C58.8363 51.852 58.9828 51.9385 59.1581 52.0896Z" fill="black"/>
<path d="M57.1296 49.293C57.3302 49.7604 57.4552 50.2348 57.554 50.7115C57.652 51.1882 57.7243 51.6672 57.7658 52.1485C57.81 52.6299 57.8215 53.1142 57.8085 53.6005C57.7946 54.0869 57.7535 54.5759 57.6362 55.0714C57.4344 54.6039 57.3091 54.1295 57.2107 53.6528C57.113 53.1761 57.0404 52.6971 57 52.2154C56.9573 51.7341 56.9446 51.2497 56.9585 50.7634C56.9727 50.2771 57.0135 49.7881 57.1296 49.293Z" fill="black"/>
<path d="M51.1406 46.9384C51.8968 46.7062 52.6599 46.5497 53.4257 46.4194C54.1915 46.2894 54.96 46.186 55.7311 46.113C56.5019 46.0373 57.2762 45.9938 58.0527 45.9757C58.441 45.9646 58.8293 45.9684 59.221 45.9757C59.4209 45.9857 59.6293 45.9961 59.8319 46.0549C60.0333 46.1091 60.2309 46.2249 60.3378 46.3948C59.9934 46.1841 59.6205 46.2741 59.2552 46.3521C58.8754 46.4324 58.4925 46.5109 58.11 46.5732C57.3442 46.7023 56.5757 46.8065 55.8046 46.8784C55.0334 46.9526 54.2595 46.9968 53.483 47.0145C52.706 47.0322 51.9268 47.0229 51.1406 46.9384Z" fill="black"/>
<path d="M48.6016 46.15C49.3935 45.689 50.2423 45.3415 51.1073 45.0547C51.9715 44.7622 52.8584 44.5522 53.7472 44.3685C54.6391 44.199 55.534 44.0602 56.4348 43.9714C56.8896 43.9252 57.3244 43.8814 57.8018 43.8672C58.0402 43.871 58.2924 43.8945 58.5203 43.9921C58.7464 44.0852 58.9482 44.2497 59.0451 44.4604C58.6987 44.1432 58.2455 44.1486 57.8391 44.2428L56.5343 44.563C55.6559 44.7721 54.774 44.9417 53.8964 45.1224L51.2599 45.6329C50.3803 45.8067 49.5031 45.9881 48.6016 46.15Z" fill="black"/>
<path d="M45.7695 45.963C46.0805 45.5174 46.4638 45.1434 46.8775 44.8101C47.2915 44.4772 47.7374 44.1842 48.2088 43.9397C48.6789 43.6929 49.1752 43.4969 49.6858 43.3489C50.1959 43.2012 50.7226 43.1032 51.2662 43.1055C50.8164 43.4096 50.3635 43.6595 49.9126 43.9044C49.4616 44.1489 49.0145 44.3895 48.5636 44.6217L47.2008 45.3129C46.741 45.5413 46.2762 45.7685 45.7695 45.963Z" fill="black"/>
<path d="M25.5298 121.417C29.9008 118.352 34.3106 115.252 37.9043 111.304C41.498 107.356 44.021 100.264 44.8041 96.2704C38.1554 95.3355 33.2903 89.7916 30.1076 83.5811C29.5414 83.4369 28.5537 83.7041 27.6838 84.3468C26.8465 84.9654 27.0214 85.4944 26.1372 86.4328C25.253 87.3712 23.3093 87.4696 22.4635 88.1889C19.6449 90.5854 17.0134 94.4513 15.2708 97.0893C13.206 100.215 11.8601 103.873 11.7917 107.619C11.7232 111.364 13.0023 115.186 15.591 117.894C18.1802 120.601 22.6857 123.411 25.5298 121.417Z" fill="#91C8CF"/>
<path d="M30.339 83.5782C29.1618 83.4552 27.9724 84.0276 27.3953 84.9814C27.0963 85.4492 26.909 86.0485 26.417 86.5222C25.9245 86.9869 25.3013 87.1699 24.7724 87.3875C23.7171 87.8016 22.8002 88.4935 21.9844 89.3058C21.1679 90.1158 20.3994 91.0123 19.6717 91.9227C18.2055 93.7391 16.9215 95.7013 15.9415 97.8157C14.9754 99.9327 14.3046 102.203 14.1116 104.565C14.0467 103.381 14.1647 102.189 14.37 101.013C14.5964 99.8409 14.942 98.6891 15.3906 97.5781C16.2856 95.3511 17.5838 93.3063 19.0724 91.4418C19.8308 90.518 20.6036 89.6172 21.4824 88.7815C22.3627 87.9622 23.3849 87.2099 24.5651 86.8266C25.1333 86.6344 25.6827 86.4791 26.0833 86.1473C26.4877 85.8248 26.7199 85.2697 27.0866 84.7688C27.8478 83.7662 29.1818 83.2825 30.339 83.5782Z" fill="black"/>
<path d="M17.3988 94.4805C16.3147 95.5984 15.4501 96.8716 14.7927 98.2387C14.1415 99.6077 13.6794 101.062 13.4165 102.551C13.1397 104.042 13.0532 105.568 13.0655 107.098C13.0824 108.631 13.2127 110.168 13.3538 111.719C12.8986 110.23 12.5972 108.691 12.4661 107.127C12.3301 105.564 12.3843 103.974 12.6603 102.414C12.9505 100.857 13.4711 99.3339 14.2638 97.96C15.0488 96.5875 16.1056 95.3554 17.3988 94.4805Z" fill="black"/>
<path d="M19.3555 91.7266C19.6942 93.2774 20.092 94.7967 20.5887 96.2806C21.0896 97.7618 21.6721 99.2119 22.3629 100.609C23.041 102.013 23.8264 103.363 24.6868 104.669C25.5522 105.973 26.5052 107.221 27.5193 108.442C26.2795 107.449 25.1746 106.284 24.1989 105.019C23.2186 103.756 22.3806 102.382 21.6721 100.946C20.9762 99.5044 20.408 97.9994 20.0152 96.4497C19.6176 94.9028 19.3778 93.315 19.3555 91.7266Z" fill="black"/>
<path d="M21.7812 89.3281C22.9911 91.1046 24.2136 92.8622 25.5045 94.5583C26.8035 96.2475 28.1767 97.8745 29.6944 99.3534C31.2006 100.841 32.8541 102.177 34.6386 103.318C36.4282 104.449 38.3511 105.388 40.4036 106.029C38.2804 105.68 36.2167 104.906 34.3303 103.833C32.4351 102.768 30.7093 101.417 29.1562 99.9012C27.6127 98.375 26.2361 96.6912 25.0209 94.9086C23.7957 93.1317 22.7343 91.2541 21.7812 89.3281Z" fill="black"/>
<path d="M44.7062 96.5078C44.125 99.1689 43.4022 101.812 42.3554 104.352C41.3301 106.898 39.8985 109.298 38.1409 111.423C36.3755 113.545 34.3111 115.385 32.1276 117.029C29.947 118.682 27.6458 120.152 25.3008 121.539C27.4809 119.903 29.6587 118.273 31.7558 116.558C33.8429 114.835 35.8416 113.006 37.5492 110.933C39.2715 108.873 40.687 106.569 41.808 104.113C42.9294 101.656 43.8386 99.0912 44.7062 96.5078Z" fill="black"/>
</g>
<path d="M98.7609 28.4511L97.2501 25.293L96.5258 28.7613L93.207 29.2349L96.1099 30.8307L95.1746 33.3661L97.701 30.9176L100.792 32.9317L99.313 30.3164L101.665 28.3523L98.7609 28.4511Z" fill="#0084BF"/>
<path d="M18.7412 48.4389L17.5483 46.2969L17.3499 48.8091L15.2852 49.3673L17.2423 50.3069L16.8402 52.1702L18.2557 50.2619L20.3624 51.4863L19.2306 49.7272L20.5715 48.1748L18.7412 48.4389Z" fill="#0084BF"/>
<path d="M109.992 53.1175C110.523 53.1175 110.953 52.6872 110.953 52.1564C110.953 51.6256 110.523 51.1953 109.992 51.1953C109.462 51.1953 109.031 51.6256 109.031 52.1564C109.031 52.6872 109.462 53.1175 109.992 53.1175Z" fill="#0084BF"/>
<path d="M4.6564 80.7972C5.18719 80.7972 5.61748 80.3669 5.61748 79.8361C5.61748 79.3053 5.18719 78.875 4.6564 78.875C4.1256 78.875 3.69531 79.3053 3.69531 79.8361C3.69531 80.3669 4.1256 80.7972 4.6564 80.7972Z" fill="#0084BF"/>
<path d="M20.8009 22.3636C21.3317 22.3636 21.762 21.9333 21.762 21.4025C21.762 20.8717 21.3317 20.4414 20.8009 20.4414C20.2701 20.4414 19.8398 20.8717 19.8398 21.4025C19.8398 21.9333 20.2701 22.3636 20.8009 22.3636Z" fill="#0084BF"/>
<path d="M36.9477 29.2822C37.2662 29.2822 37.5244 29.024 37.5244 28.7056C37.5244 28.3871 37.2662 28.1289 36.9477 28.1289C36.6293 28.1289 36.3711 28.3871 36.3711 28.7056C36.3711 29.024 36.6293 29.2822 36.9477 29.2822Z" fill="#0084BF"/>
<path d="M96.5376 48.8916C96.8561 48.8916 97.1142 48.6334 97.1142 48.3149C97.1142 47.9965 96.8561 47.7383 96.5376 47.7383C96.2191 47.7383 95.9609 47.9965 95.9609 48.3149C95.9609 48.6334 96.2191 48.8916 96.5376 48.8916Z" fill="#0084BF"/>
<path d="M95.3852 5.06346C95.7037 5.06346 95.9619 4.80528 95.9619 4.48681C95.9619 4.16833 95.7037 3.91016 95.3852 3.91016C95.0668 3.91016 94.8086 4.16833 94.8086 4.48681C94.8086 4.80528 95.0668 5.06346 95.3852 5.06346Z" fill="#0084BF"/>
<path d="M28.7986 46.5542C29.2763 46.5542 29.6635 46.1669 29.6635 45.6892C29.6635 45.2115 29.2763 44.8242 28.7986 44.8242C28.3209 44.8242 27.9336 45.2115 27.9336 45.6892C27.9336 46.1669 28.3209 46.5542 28.7986 46.5542Z" stroke="#0084BF" stroke-miterlimit="10"/>
<path d="M118.756 21.1831C119.233 21.1831 119.621 20.7958 119.621 20.3181C119.621 19.8404 119.233 19.4531 118.756 19.4531C118.278 19.4531 117.891 19.8404 117.891 20.3181C117.891 20.7958 118.278 21.1831 118.756 21.1831Z" stroke="#0084BF" stroke-miterlimit="10"/>
<path d="M104.533 64.2417C105.011 64.2417 105.398 63.8544 105.398 63.3767C105.398 62.899 105.011 62.5117 104.533 62.5117C104.055 62.5117 103.668 62.899 103.668 63.3767C103.668 63.8544 104.055 64.2417 104.533 64.2417Z" stroke="#0084BF" stroke-miterlimit="10"/>
</svg>
