<svg width="39" height="39" viewBox="0 0 39 39" fill="none" xmlns="http://www.w3.org/2000/svg">
<g clip-path="url(#clip0_34433_3677)">
<path d="M19.4375 7.0649C19.7531 7.38044 19.7531 9.7785 19.4375 10.094L15.4618 12.1766C15.0201 12.3659 14.7045 12.4921 14.389 12.1766C14.0735 11.861 14.0735 11.4193 14.389 11.1037L18.3647 7.12801C18.6803 6.81248 19.122 6.81248 19.4375 7.0649Z" fill="#668B96"/>
<path d="M19.4375 7.06626C19.7531 7.38179 19.7531 9.77985 19.4375 10.0954L15.4618 12.1779C15.0201 12.3672 14.7045 12.4934 14.389 12.1779C14.0735 11.8624 14.0735 11.4206 14.389 11.1051L19.0589 7.88665C19.3113 7.57111 19.122 6.81383 19.4375 7.06626Z" fill="#54737F"/>
<path d="M12.5594 4.2899C12.5594 4.98407 11.9915 5.55203 11.2973 5.55203C10.6031 5.55203 10.0352 4.98407 10.0352 4.2899V3.02776C10.0352 2.33359 10.6031 1.76562 11.2973 1.76562C11.9915 1.76562 12.5594 2.33359 12.5594 3.02776V4.2899Z" fill="#62D122"/>
<path d="M12.5594 3.03125V4.35649C12.5594 5.11377 12.0546 5.74484 11.2973 5.74484C10.54 5.74484 10.0352 5.11377 10.0352 4.35649V3.03125" fill="#4DB20D"/>
<path d="M27.8276 4.6699C27.8276 5.49029 27.9538 8.70874 23.978 9.21359L12.8081 6.94175C11.9878 6.94175 11.2305 6.24757 11.2305 5.42719V2.27184C11.2305 1.45146 11.9878 0.757282 12.8081 0.757282L24.546 0C25.3664 0 26.0606 0.694175 26.0606 1.51456L27.8276 4.6699Z" fill="#AFCCD8"/>
<path d="M24.6102 5.55469C25.4306 5.55469 26.1248 5.93333 26.1248 6.37508L25.3675 12.4333C25.3675 12.8751 24.6734 13.1906 23.853 13.1906H20.6976C19.8772 13.1906 19.1831 12.8751 19.1831 12.4333L18.4258 6.37508C18.4258 5.93333 19.12 5.61779 19.9403 5.61779H24.6102V5.55469Z" fill="#7FA6B5"/>
<path d="M24.6085 0C25.4289 0 26.1231 0.694175 26.1231 1.51456L27.8269 4.6068C27.8269 5.42718 27.9532 8.70874 24.0405 9.15049L12.8706 6.94175C12.0503 6.94175 11.293 6.24757 11.293 5.42718V3.02913" fill="#99B9C9"/>
<path d="M25.8089 14.1322C25.8089 14.3846 25.6827 14.3846 25.4934 14.3846H19.1196C18.8672 14.3846 18.8672 14.3846 18.8672 14.1322V12.6807C18.8672 12.4283 18.8672 12.4914 19.1196 12.4914H25.4934C25.7458 12.4914 25.8089 12.4283 25.8089 12.6807V14.1322Z" fill="#62D122"/>
<path d="M25.8089 12.4922V14.133C25.8089 14.3854 25.6827 14.3854 25.4934 14.3854H19.1196C18.8672 14.3854 18.8672 14.3854 18.8672 14.133V12.4922" fill="#4DB20D"/>
<path d="M26.3144 14.3906H18.2368C16.4698 14.3906 15.0814 15.5897 15.0814 17.4198V20.2596L9.46493 33.0071C9.46493 36.2887 9.40182 39.0023 12.6834 39.0023H26.2513C29.5329 39.0023 29.5329 36.1625 29.5329 32.8809V21.0168V18.9343V17.4198C29.596 15.5897 28.1445 14.3906 26.3144 14.3906Z" fill="#88E2E2"/>
<path d="M26.3144 14.3906H19.3096C17.5426 14.3906 16.3436 15.5897 16.3436 17.4198V20.2596L9.46493 33.0071C9.46493 36.2887 9.40182 39.0023 12.6834 39.0023H26.2513C29.5329 39.0023 29.5329 36.1625 29.5329 32.8809V21.0168V18.9343V17.4198C29.596 15.5897 28.1445 14.3906 26.3144 14.3906Z" fill="#4FC7D3"/>
<path d="M9.46493 33.0078C9.46493 36.2894 9.40182 39.003 12.6834 39.003H26.2513C29.5329 39.003 29.5329 36.2894 29.5329 33.0078" fill="#41B9BF"/>
<path d="M22.0234 14.3906V19.0605C22.0234 19.313 22.4021 19.5023 22.6545 19.5023C22.9069 19.5023 23.2856 19.313 23.2856 19.0605V14.3906H22.0234Z" fill="#41B9BF"/>
<path d="M26.4422 34.7024C26.4422 35.5228 25.9373 36.4694 25.1169 36.4694H19.6266C18.8062 36.4694 18.2383 35.5228 18.2383 34.7024V18.4208C18.2383 17.6004 18.8062 16.9062 19.6266 16.9062H25.1169C25.9373 16.9062 26.4422 17.5373 26.4422 18.4208V34.7024Z" fill="#62D122"/>
<path d="M26.4422 18.1719V34.7059C26.4422 35.5262 25.9373 36.4728 25.1169 36.4728H19.6266C18.8062 36.4728 18.2383 35.5262 18.2383 34.7059V18.1719" fill="#4DB20D"/>
</g>
<defs>
<clipPath id="clip0_34433_3677">
<rect width="39" height="39" fill="white"/>
</clipPath>
</defs>
</svg>
