<svg width="16" height="15" viewBox="0 0 16 15" fill="none" xmlns="http://www.w3.org/2000/svg">
<path d="M15.3327 7.5013C15.3327 11.5514 12.0494 14.8346 7.99935 14.8346C3.94926 14.8346 0.666016 11.5514 0.666016 7.5013C0.666016 3.45121 3.94926 0.167969 7.99935 0.167969C12.0494 0.167969 15.3327 3.45121 15.3327 7.5013ZM2.0039 7.5013C2.0039 10.8125 4.68816 13.4967 7.99935 13.4967C11.3105 13.4967 13.9948 10.8125 13.9948 7.5013C13.9948 4.19011 11.3105 1.50586 7.99935 1.50586C4.68816 1.50586 2.0039 4.19011 2.0039 7.5013Z" fill="#6A6D76"/>
<path d="M7.99935 2.83464C7.63116 2.83464 7.33268 3.13311 7.33268 3.5013V7.81241C7.33268 7.81241 7.33268 7.98623 7.41717 8.117C7.47367 8.22786 7.56182 8.3242 7.67761 8.39105L10.7575 10.1692C11.0763 10.3533 11.4841 10.2441 11.6681 9.92519C11.8522 9.60633 11.743 9.1986 11.4241 9.01451L8.66602 7.42211V3.5013C8.66602 3.13311 8.36754 2.83464 7.99935 2.83464Z" fill="#6A6D76"/>
</svg>
