<svg width="32" height="39" viewBox="0 0 32 39" fill="none" xmlns="http://www.w3.org/2000/svg">
<path d="M30.0053 11.4263V17.5859L3.20594 17.3164C1.35931 17.3164 0 15.4885 0 13.6417C0 11.7952 1.49708 10.2981 3.34376 10.2981H28.8768C29.4999 10.2981 30.0053 10.8032 30.0053 11.4263Z" fill="#83362B"/>
<path d="M17.2938 21.3241L10.6906 22.5685L5.70689 23.5078L1.6875 2.17995L13.2747 -0.003479L13.4498 0.925724L17.2938 21.3241Z" fill="#57B445"/>
<path d="M4.75104 2.30762L10.4644 1.23105C10.7542 2.44176 11.9179 3.23735 13.1507 3.06917L16.0613 18.5149C14.8519 18.8066 14.0577 19.9716 14.2284 21.2045L8.51506 22.2812C8.22524 21.0706 7.0615 20.2747 5.82873 20.4431L2.91797 4.99759C4.12746 4.70565 4.9217 3.54082 4.75104 2.30762Z" fill="#8CD24F"/>
<path d="M10.4351 16.7707C11.2698 16.6134 12.074 17.1625 12.2314 17.9973C12.3886 18.8319 11.8395 19.6361 11.0048 19.7934C10.17 19.9507 9.36583 19.4016 9.20852 18.5668C9.05122 17.7322 9.60038 16.928 10.4351 16.7707Z" fill="#57B445"/>
<path d="M8.54579 6.73872C9.38052 6.58135 9.92968 5.77722 9.77239 4.94265C9.61507 4.10781 8.81086 3.55866 7.97613 3.71603C7.1414 3.87313 6.59224 4.67753 6.74953 5.5121C6.90685 6.34694 7.71104 6.89609 8.54579 6.73872Z" fill="#57B445"/>
<path d="M8.86529 8.43631C10.8871 8.05538 12.8055 9.22948 13.1502 11.0589C13.495 12.8884 12.1355 14.6801 10.1138 15.061C8.092 15.4422 6.17358 14.2681 5.82882 12.4386C5.48409 10.6092 6.84357 8.81748 8.86529 8.43631Z" fill="#57B445"/>
<path d="M9.70509 11.5307L9.70598 11.5128C9.72135 11.2207 9.77077 11.0156 9.85425 10.8982C9.93776 10.7806 10.0569 10.7072 10.2119 10.6782L10.2146 10.6778C10.3338 10.655 10.448 10.6639 10.5572 10.704C10.6664 10.744 10.7621 10.8236 10.844 10.9419C10.9054 11.0306 10.9553 11.1458 10.9932 11.2879L9.70509 11.5307ZM9.05765 12.5332C8.97302 12.6508 8.86198 12.7225 8.72411 12.7488L8.72117 12.749C8.61736 12.7686 8.5122 12.756 8.40569 12.7103C8.39013 12.7038 8.375 12.6962 8.35989 12.6881C8.27186 12.6407 8.19199 12.5688 8.12022 12.472C8.06562 12.3986 8.02161 12.3096 7.98797 12.2063L8.4946 12.111L9.20499 11.9771C9.19055 12.231 9.14137 12.4165 9.05765 12.5332ZM11.9753 11.4552L11.9112 11.115L11.4344 11.2049C11.385 11.0218 11.3116 10.8547 11.2144 10.7036C11.0898 10.5099 10.9323 10.3646 10.7418 10.2673C10.5516 10.1702 10.3342 10.1444 10.0905 10.1905L10.0878 10.191C9.78927 10.2472 9.576 10.3892 9.4476 10.6168C9.31941 10.8444 9.24609 11.1487 9.22804 11.5295L9.22328 11.6214L8.58057 11.7426L7.92254 11.8666C7.91711 11.7722 7.92344 11.6823 7.94216 11.5972C7.97128 11.4657 8.02725 11.3529 8.1103 11.2589C8.19333 11.1652 8.30143 11.098 8.43457 11.0572L8.45963 11.0495L8.36665 10.5563L8.32467 10.5671C8.11188 10.6211 7.93607 10.7237 7.79729 10.875C7.65849 11.0263 7.56281 11.2092 7.51024 11.4236C7.46941 11.5903 7.45855 11.7662 7.4773 11.9508L7 12.0404L7.06409 12.3806L7.54273 12.2903C7.59351 12.4688 7.66707 12.6276 7.76344 12.7667C7.89117 12.951 8.04711 13.0861 8.23148 13.1715C8.23598 13.1739 8.24071 13.1758 8.24547 13.1777C8.42601 13.2582 8.62413 13.2778 8.83965 13.2374L8.84235 13.2367C9.12196 13.1841 9.32754 13.0498 9.45888 12.8329C9.59022 12.6166 9.66515 12.3237 9.68365 11.9546L9.68702 11.8865L11.053 11.629C11.0634 11.7559 11.0568 11.8678 11.0325 11.9644C10.9966 12.1062 10.9345 12.2209 10.8465 12.3091C10.7583 12.3971 10.6558 12.4626 10.5387 12.5064L10.506 12.5186L10.5987 13.0115L10.638 13.0012C10.8634 12.9412 11.0462 12.8294 11.1866 12.6661C11.327 12.5028 11.4213 12.3072 11.4694 12.0801C11.5057 11.9087 11.515 11.7304 11.4969 11.5451L11.9753 11.4552Z" fill="#8CD24F"/>
<path d="M10.6894 22.5781L9.0278 22.1904L9.09891 22.177L10.7601 22.5647L10.6894 22.5781ZM8.44693 22.0543L6.28906 21.5504L6.54429 20.4579C6.82054 20.5026 7.08416 20.5948 7.32466 20.7273L7.09537 21.7089L8.43533 22.0218C8.43924 22.0326 8.44311 22.0436 8.4469 22.0543M11.5299 2.72279C11.2608 2.55315 11.0254 2.33126 10.8396 2.06799L10.8397 2.0677L11.2253 0.416153L12.025 0.602819L11.5299 2.72279Z" fill="#448737"/>
<path d="M9.02837 22.1875L8.44749 22.0515C8.44369 22.0407 8.43981 22.0297 8.4359 22.019L9.09949 22.1741L9.02837 22.1875ZM7.32523 20.7244C7.08474 20.592 6.82112 20.4997 6.54492 20.4547L7.85417 14.849C8.10424 14.9527 8.3688 15.0306 8.64355 15.0802L7.32523 20.7244ZM10.2002 8.41565C10.0136 8.38873 9.82276 8.37485 9.62925 8.37485C9.54152 8.37485 9.45314 8.37768 9.36436 8.38335L10.8402 2.06507C11.0259 2.32832 11.2614 2.5502 11.5305 2.71994L10.2002 8.41565Z" fill="#6DAB41"/>
<path d="M8.64288 15.0781C8.36813 15.0285 8.10358 14.9507 7.85352 14.8469H7.85354L8.24463 13.1725C8.36459 13.2261 8.49227 13.2527 8.62769 13.2527C8.69612 13.2527 8.76651 13.2459 8.83881 13.2324L8.84152 13.2317C8.93307 13.2146 9.01668 13.1884 9.09237 13.1536L8.64288 15.0781ZM8.62598 12.7529C8.55292 12.7529 8.47923 12.737 8.40486 12.7052C8.3893 12.6986 8.37415 12.6912 8.35906 12.6829L8.49377 12.1058L9.20416 11.9719C9.18972 12.2259 9.14055 12.4113 9.05682 12.528C8.9722 12.6457 8.86114 12.7174 8.72328 12.7436L8.72032 12.7441C8.68903 12.7499 8.65756 12.7529 8.62598 12.7529ZM8.57974 11.7375L9.3637 8.38131C9.45249 8.37569 9.54086 8.37275 9.62859 8.37275C9.82209 8.37275 10.013 8.3867 10.1995 8.41361L9.7588 10.3004C9.62575 10.3748 9.52177 10.4785 9.44676 10.6116C9.31858 10.8394 9.24526 11.1435 9.2272 11.5245L9.22246 11.6164L8.57974 11.7375Z" fill="#448737"/>
<path d="M8.62915 13.2578C8.49374 13.2578 8.36603 13.2313 8.24609 13.1777L8.36051 12.6881C8.37562 12.6962 8.39075 12.7039 8.40632 12.7103C8.48069 12.7421 8.55437 12.7582 8.62743 12.7582C8.65901 12.7582 8.69047 12.7551 8.72179 12.7491L8.72473 12.7488C8.8626 12.7225 8.97365 12.6508 9.05828 12.5332C9.142 12.4165 9.19118 12.231 9.20562 11.9771L8.49523 12.111L8.58119 11.7426L9.2239 11.6214L9.22866 11.5296C9.24671 11.1488 9.32003 10.8444 9.44822 10.6168C9.52324 10.4837 9.62721 10.3802 9.76025 10.3056L9.09383 13.1588C9.01814 13.1935 8.93454 13.2196 8.84297 13.2368L8.84027 13.2375C8.76795 13.2511 8.69757 13.2578 8.62915 13.2578Z" fill="#6DAB41"/>
<path d="M23.5139 3.24863L18.6984 23.8657L18.5777 24.3828L7.0957 21.701L12.032 0.566713L17.7168 1.89451L23.5139 3.24863Z" fill="#57B445"/>
<path d="M14.7853 1.91656L20.4468 3.23886C20.2228 4.46338 20.9661 5.66147 22.1619 6.00512L18.5873 21.3109C17.3627 21.0895 16.1657 21.8342 15.8241 23.0312L10.1625 21.709C10.3862 20.4845 9.64305 19.2864 8.44727 18.9425L12.0221 3.6368C13.2464 3.85823 14.4435 3.11351 14.7853 1.91656Z" fill="#8CD24F"/>
<path d="M14.144 17.4482C14.9712 17.6414 15.4852 18.4686 15.292 19.2957C15.0988 20.1229 14.2717 20.6369 13.4444 20.4437C12.6172 20.2503 12.1033 19.4232 12.2965 18.596C12.4897 17.7688 13.3169 17.2551 14.144 17.4482Z" fill="#57B445"/>
<path d="M16.4658 7.50621C17.293 7.69945 18.1201 7.18548 18.3134 6.35833C18.5066 5.53118 17.9926 4.70403 17.1655 4.51079C16.3384 4.31755 15.5112 4.83151 15.3181 5.65866C15.1247 6.48581 15.6387 7.31296 16.4658 7.50621Z" fill="#57B445"/>
<path d="M16.0729 9.19423C18.076 9.66199 19.3571 11.5109 18.9337 13.3237C18.5103 15.1365 16.543 16.2267 14.5394 15.7588C12.536 15.291 11.2551 13.4421 11.6785 11.6293C12.1019 9.81645 14.0695 8.72624 16.0729 9.19423Z" fill="#57B445"/>
<path d="M16.8716 12.6547L15.5952 12.3566L15.6031 12.3411C15.7353 12.0795 15.8632 11.9119 15.9873 11.8381C16.1109 11.7647 16.2495 11.7455 16.403 11.7814L16.4059 11.7819C16.5237 11.8096 16.6246 11.8639 16.7083 11.9444C16.7925 12.0253 16.8479 12.1364 16.8749 12.2779C16.8953 12.3841 16.8941 12.5096 16.8716 12.6547ZM14.5981 13.0124C14.4733 13.0858 14.3425 13.1066 14.2057 13.0745L14.2031 13.0738C14.1218 13.0549 14.0477 13.0169 13.9815 12.9602C13.9636 12.9449 13.9464 12.9284 13.9299 12.911C13.8512 12.8264 13.7962 12.7152 13.7649 12.578C13.7448 12.4883 13.7405 12.3894 13.7515 12.2813L14.1771 12.381L14.9574 12.5632C14.8414 12.7896 14.7217 12.9394 14.5981 13.0124ZM17.3088 12.757C17.3373 12.5696 17.3378 12.387 17.31 12.2093C17.2742 11.982 17.1888 11.7852 17.054 11.6196C16.9189 11.4539 16.7305 11.3425 16.4891 11.2861L16.4864 11.2856C16.1905 11.2165 15.938 11.2602 15.7288 11.4166C15.5194 11.5729 15.3296 11.8218 15.1589 12.1632L15.1175 12.2452L14.2882 12.0516L13.8287 11.9442C13.8617 11.8555 13.904 11.7759 13.9554 11.7056C14.0351 11.5971 14.1319 11.5165 14.2459 11.4639C14.3267 11.4269 14.4135 11.407 14.5067 11.4046C14.5447 11.4034 14.5839 11.4056 14.6241 11.4104L14.6502 11.4135L14.764 10.9248L14.7214 10.9179C14.7054 10.9153 14.6896 10.9129 14.6738 10.9107C14.4752 10.8847 14.2887 10.91 14.1147 10.9863C13.9265 11.0687 13.7651 11.1974 13.6305 11.3721C13.5258 11.5084 13.4448 11.6645 13.3875 11.8412L12.9147 11.7307L12.8359 12.0676L13.3101 12.1785C13.2845 12.3621 13.2877 12.5371 13.3198 12.7032C13.362 12.9234 13.4502 13.1097 13.5845 13.2627C13.6509 13.3384 13.7279 13.4016 13.8151 13.4522C13.904 13.5041 14.0035 13.5429 14.1142 13.5687L14.1168 13.5689C14.3939 13.6337 14.6363 13.5938 14.8438 13.4487C15.0516 13.3035 15.2383 13.0659 15.4042 12.7355L15.435 12.6746L16.7886 12.9908C16.7468 13.1111 16.6956 13.211 16.6342 13.2894C16.5441 13.4044 16.441 13.4845 16.3251 13.5295C16.2089 13.5746 16.0884 13.5933 15.9638 13.5859L15.9289 13.5837L15.8147 14.0721L15.8546 14.0786C16.0851 14.1147 16.2976 14.0863 16.4919 13.9935C16.6865 13.9007 16.8515 13.7602 16.9873 13.5718C17.0899 13.4295 17.1702 13.2703 17.2283 13.0934L17.7023 13.2043L17.7812 12.8672L17.3088 12.757Z" fill="#8CD24F"/>
<path d="M18.6984 23.8672L15.8633 22.9097C16.2025 21.9236 17.1339 21.2743 18.1555 21.2743C18.2983 21.2743 18.4425 21.2869 18.5875 21.3132L22.1622 6.00758C20.9664 5.66376 20.2233 4.46565 20.4468 3.24109L17.4954 2.55174L17.7168 1.89594L23.5139 3.2499L21.8693 10.2907L20.1903 17.48L18.6984 23.8672Z" fill="#448737"/>
<path d="M15.8641 22.9062L11.1562 21.316L13.2249 15.1926C13.6114 15.4474 14.0539 15.6417 14.539 15.755C14.8531 15.8284 15.166 15.8635 15.4728 15.8635C17.1211 15.8635 18.5762 14.8486 18.9333 13.32C19.3567 11.5072 18.0757 9.65824 16.0724 9.19032C15.8091 9.12892 15.5467 9.09444 15.288 9.08463L15.9081 7.24882V7.24854C16.0702 7.36713 16.2584 7.45572 16.4661 7.50423C16.5837 7.5317 16.7016 7.54488 16.8173 7.54488C17.5158 7.54488 18.148 7.06602 18.3137 6.35643C18.5069 5.52908 17.993 4.70201 17.1659 4.50884C17.0592 4.48389 16.9526 4.47072 16.8474 4.46847L17.4962 2.54827L20.4479 3.23769C20.2241 4.46231 20.9674 5.66029 22.1631 6.00401L18.5882 21.3098C18.4435 21.2835 18.2992 21.2708 18.1562 21.2708C17.1348 21.2708 16.2034 21.9201 15.8641 22.9062ZM13.794 17.4004C13.0957 17.4004 12.4635 17.8796 12.2977 18.5892C12.1045 19.4162 12.6185 20.2433 13.4457 20.4367C13.5633 20.4642 13.681 20.4773 13.7969 20.4773C14.4952 20.4773 15.1275 19.9983 15.2932 19.2887C15.4864 18.4616 14.9724 17.6342 14.1452 17.4411C14.0276 17.4136 13.91 17.4004 13.794 17.4004Z" fill="#6DAB41"/>
<path d="M13.7957 20.4844C13.6797 20.4844 13.5621 20.4712 13.4444 20.4437C12.6172 20.2503 12.1033 19.4232 12.2965 18.596C12.4622 17.8867 13.0944 17.4076 13.7928 17.4076C13.9088 17.4076 14.0264 17.4207 14.144 17.4482C14.9712 17.6414 15.4852 18.4686 15.292 19.2957C15.1263 20.0053 14.494 20.4844 13.7957 20.4844Z" fill="#448737"/>
<path d="M16.8175 7.54688C16.7017 7.54688 16.5838 7.53371 16.4662 7.50632C16.2584 7.4577 16.0703 7.36907 15.9082 7.25063L16.8476 4.47082V4.47056C16.9526 4.4727 17.0592 4.48586 17.1659 4.51084C17.9931 4.70395 18.5069 5.53118 18.3138 6.35841C18.1481 7.068 17.5158 7.54688 16.8175 7.54688Z" fill="#448737"/>
<path d="M15.4725 15.8672C15.1656 15.8672 14.8528 15.8321 14.5386 15.7588C14.0535 15.6454 13.6111 15.4513 13.2246 15.1961L13.2247 15.1959L13.8151 13.4473C13.9043 13.4989 14.0037 13.5379 14.1143 13.5636L14.1169 13.5638C14.2024 13.584 14.2851 13.5941 14.3639 13.5941C14.5405 13.5941 14.7005 13.5439 14.8439 13.4437C15.0518 13.2986 15.2384 13.0609 15.4042 12.7306L15.4352 12.6696L16.7888 12.9857C16.747 13.1061 16.6959 13.2061 16.6344 13.2844C16.5443 13.3995 16.4412 13.4795 16.3251 13.5244C16.2254 13.5631 16.1228 13.5826 16.0169 13.5826C15.9994 13.5826 15.9816 13.5818 15.964 13.5809L15.9292 13.5787L15.8148 14.0672L15.8547 14.0734C15.9193 14.0835 15.9823 14.0888 16.044 14.0888C16.2029 14.0888 16.3523 14.0551 16.4921 13.9884C16.6867 13.8956 16.8516 13.7551 16.9875 13.5667C17.0899 13.4245 17.1704 13.2652 17.2285 13.0883L17.7026 13.1993L17.7814 12.862L17.309 12.752C17.3374 12.5646 17.3378 12.382 17.3102 12.2044C17.2744 11.9769 17.1889 11.7804 17.0541 11.6143C16.9191 11.4488 16.7307 11.3376 16.4892 11.2811L16.4866 11.2804C16.396 11.2592 16.3095 11.2487 16.2269 11.2487C16.04 11.2487 15.8742 11.303 15.7291 11.4116C15.5196 11.568 15.3297 11.8169 15.1592 12.158L15.1176 12.2402L14.2885 12.0466L14.5069 11.3995C14.5138 11.3993 14.5208 11.3993 14.5275 11.3993C14.559 11.3993 14.5912 11.4012 14.6243 11.4053L14.6503 11.4084L14.7642 10.9197L14.7216 10.9128C14.7055 10.9101 14.6897 10.9077 14.6741 10.9056L15.2877 9.08848C15.5462 9.09809 15.8088 9.13269 16.0722 9.1942C18.0754 9.66198 19.3563 11.5108 18.9329 13.3236C18.5759 14.8523 17.1209 15.8672 15.4725 15.8672ZM14.3283 13.084C14.2882 13.084 14.2471 13.0792 14.2058 13.0696L14.2032 13.0689C14.122 13.0499 14.048 13.0119 13.9816 12.955L14.1772 12.3757L14.9576 12.5581C14.8415 12.7844 14.7219 12.9343 14.5982 13.0071C14.5112 13.0583 14.4213 13.084 14.3283 13.084ZM16.8717 12.6499L15.5952 12.3517L15.6032 12.3358C15.7355 12.0744 15.8634 11.9067 15.9873 11.833C16.0705 11.7835 16.1606 11.7587 16.2574 11.7587C16.3045 11.7587 16.353 11.7647 16.4032 11.7765L16.4061 11.777C16.5238 11.8046 16.6248 11.8587 16.7084 11.9394C16.7927 12.0201 16.848 12.1314 16.8751 12.2729C16.8953 12.3788 16.8943 12.5047 16.8717 12.6499Z" fill="#448737"/>
<path d="M16.0433 14.0938C15.9816 14.0938 15.9185 14.0887 15.8539 14.0787L15.814 14.0722L15.9283 13.5838L15.9632 13.586C15.9809 13.5872 15.9986 13.5876 16.016 13.5876C16.1219 13.5876 16.2247 13.5683 16.3244 13.5296C16.4404 13.4846 16.5434 13.4045 16.6335 13.2895C16.695 13.2111 16.7461 13.1112 16.788 12.9909L15.4344 12.6746L15.4035 12.7356C15.2376 13.066 15.0509 13.3036 14.8432 13.4487C14.6997 13.5492 14.5398 13.5991 14.3631 13.5991C14.2842 13.5991 14.2017 13.5891 14.1162 13.569L14.1135 13.5688C14.0028 13.5429 13.9034 13.5042 13.8145 13.4523L13.9808 12.9603C14.0471 13.017 14.1212 13.055 14.2025 13.0739L14.2051 13.0746C14.2464 13.0844 14.2873 13.0892 14.3275 13.0892C14.4205 13.0892 14.5104 13.0636 14.5974 13.0124C14.721 12.9395 14.8408 12.7896 14.9567 12.5632L14.1764 12.3811L14.2876 12.0516L15.1169 12.2453L15.1583 12.1633C15.3289 11.8219 15.5188 11.573 15.7282 11.4167C15.8733 11.3081 16.0392 11.2539 16.2262 11.2539C16.3086 11.2539 16.3952 11.2644 16.4858 11.2857L16.4884 11.2861C16.7299 11.3426 16.9183 11.454 17.0533 11.6196C17.1882 11.7853 17.2735 11.9821 17.3094 12.2094C17.3371 12.387 17.3366 12.5697 17.3082 12.7571L17.7806 12.8673L17.7017 13.2044L17.2276 13.0935C17.1695 13.2704 17.0892 13.4296 16.9866 13.5719C16.8508 13.7603 16.6859 13.9008 16.4913 13.9936C16.3514 14.0603 16.202 14.0938 16.0433 14.0938ZM16.2565 11.764C16.1597 11.764 16.0696 11.7887 15.9866 11.8381C15.8625 11.912 15.7346 12.0796 15.6024 12.3411L15.5945 12.3567L16.8709 12.6548C16.8934 12.5097 16.8946 12.3842 16.8743 12.278C16.8473 12.1365 16.7918 12.0253 16.7076 11.9445C16.624 11.864 16.5231 11.8097 16.4052 11.782L16.4024 11.7815C16.3522 11.7698 16.3036 11.764 16.2565 11.764ZM14.6495 11.4136L14.6235 11.4105C14.5905 11.4064 14.5582 11.4045 14.5266 11.4045C14.5199 11.4045 14.513 11.4045 14.5061 11.4047L14.6732 10.9108C14.689 10.913 14.7047 10.9153 14.7208 10.918L14.7633 10.9249L14.6495 11.4136Z" fill="#6DAB41"/>
<path d="M23.132 25.25L11.9609 21.4765L18.9067 0.914825L30.0776 4.68822L23.132 25.25Z" fill="#57B445"/>
<path d="M21.5181 2.52391L27.0261 4.38461C26.6859 5.58187 27.3103 6.84591 28.4675 7.30316L23.4374 22.1938C22.2402 21.8557 20.977 22.4821 20.5217 23.6406L15.0136 21.78C15.3541 20.5827 14.7294 19.3187 13.5723 18.8615L18.6024 3.97056C19.7996 4.30887 21.0628 3.68246 21.5181 2.52391Z" fill="#8CD24F"/>
<path d="M19.3861 17.9183C20.1908 18.1901 20.6228 19.063 20.351 19.8677C20.0792 20.6726 19.2063 21.1046 18.4016 20.8328C17.5969 20.5607 17.1649 19.6881 17.4368 18.8834C17.7086 18.0785 18.5814 17.6465 19.3861 17.9183Z" fill="#57B445"/>
<path d="M22.6537 8.25462C23.4583 8.52646 24.3313 8.09459 24.6032 7.28967C24.8747 6.48503 24.4429 5.61228 23.6382 5.34045C22.8333 5.06861 21.9606 5.50074 21.6887 6.30539C21.4169 7.11004 21.849 7.98278 22.6537 8.25462Z" fill="#57B445"/>
<path d="M22.0983 9.88932C24.0476 10.5476 25.1447 12.511 24.5489 14.2747C23.953 16.0385 21.8901 16.9345 19.9411 16.2759C17.9916 15.6176 16.8945 13.654 17.4903 11.8905C18.0861 10.1268 20.1493 9.23079 22.0983 9.88932Z" fill="#57B445"/>
<path d="M22.1826 12.4944C22.2973 12.5331 22.3925 12.5967 22.468 12.6851C22.5438 12.7736 22.5882 12.8895 22.6016 13.033C22.6117 13.1406 22.5985 13.2653 22.562 13.4078L21.3202 12.9883L21.3298 12.9732C21.4864 12.7258 21.6298 12.5713 21.7601 12.5099C21.8904 12.4485 22.0305 12.443 22.1797 12.4934L22.1826 12.4944ZM20.2645 13.5448C20.1333 13.606 20.0013 13.6141 19.8681 13.5692L19.8655 13.5682C19.7653 13.5345 19.68 13.4717 19.6095 13.3799C19.5392 13.2881 19.4952 13.1723 19.4773 13.0323C19.4658 12.9414 19.471 12.8424 19.4923 12.7361L20.6657 13.1324C20.5284 13.3466 20.3948 13.4841 20.2645 13.5448ZM21.5435 12.0655C21.3202 12.201 21.1072 12.4303 20.9047 12.7535L20.8557 12.8314L19.6016 12.4078C19.6432 12.3227 19.6929 12.2474 19.7508 12.1826C19.8404 12.0822 19.9446 12.0112 20.063 11.9701C20.1813 11.929 20.3087 11.9232 20.4448 11.9529L20.4701 11.9584L20.6308 11.4831L20.5889 11.4719C20.3769 11.4145 20.1734 11.4178 19.9784 11.4819C19.7833 11.5457 19.6102 11.6583 19.4593 11.8195C19.3422 11.9447 19.2466 12.0927 19.1725 12.2627L18.7123 12.1073L18.6016 12.4353L19.063 12.5912C19.0199 12.7714 19.0061 12.946 19.0221 13.1145C19.0429 13.3375 19.1129 13.5317 19.2317 13.6966C19.3506 13.8616 19.5165 13.9799 19.7295 14.0519L19.7324 14.0528C20.0018 14.1439 20.2468 14.1274 20.4675 14.0029C20.6881 13.8786 20.8968 13.66 21.0938 13.3471L21.1302 13.2893L22.4472 13.7342C22.3941 13.8501 22.3334 13.9445 22.2648 14.0165C22.1641 14.1226 22.0537 14.1925 21.9339 14.2259C21.8139 14.2594 21.6925 14.2666 21.5691 14.2472L21.5344 14.2417L21.3738 14.717L21.413 14.7272C21.6389 14.7853 21.8531 14.7774 22.0556 14.7038C22.2579 14.6302 22.4357 14.5061 22.5892 14.3316C22.7047 14.1999 22.8001 14.049 22.8751 13.8788L23.3363 14.0347L23.447 13.7067L22.9875 13.5515C23.0339 13.3677 23.052 13.186 23.0413 13.0064C23.0277 12.7767 22.9614 12.5728 22.8431 12.3947C22.7248 12.2168 22.5478 12.0882 22.3131 12.0088L22.3102 12.0079C22.0226 11.9106 21.7671 11.9297 21.5435 12.0655Z" fill="#8CD24F"/>
<path d="M31.3466 18.1038V37.2857C31.3466 37.9087 30.8412 38.4141 30.2181 38.4141H3.34375C1.49709 38.4141 0 36.917 0 35.0702V13.6318C0 15.4785 1.49709 16.9756 3.34375 16.9756H30.2181C30.8412 16.9756 31.3466 17.4807 31.3466 18.1038Z" fill="#A14C37"/>
<path d="M4.10357 19.2344H3.08805C2.83878 19.2344 2.63672 19.0324 2.63672 18.783C2.63672 18.5337 2.83878 18.3317 3.08805 18.3317H4.10357C4.35284 18.3317 4.5549 18.5337 4.5549 18.783C4.5549 19.0324 4.35284 19.2344 4.10357 19.2344Z" fill="#823A2D"/>
<path d="M7.56627 19.2276H6.41228C6.16302 19.2276 5.96094 19.0255 5.96094 18.7763C5.96094 18.527 6.16302 18.325 6.41228 18.325H7.56627C7.81552 18.325 8.01758 18.527 8.01758 18.7763C8.01758 19.0255 7.81552 19.2276 7.56627 19.2276ZM11.0282 19.2276H9.87423C9.62495 19.2276 9.42289 19.0255 9.42289 18.7763C9.42289 18.527 9.62495 18.325 9.87423 18.325H11.0282C11.2775 18.325 11.4795 18.527 11.4795 18.7763C11.4795 19.0255 11.2775 19.2276 11.0282 19.2276ZM14.4901 19.2276H13.3361C13.0869 19.2276 12.8848 19.0255 12.8848 18.7763C12.8848 18.527 13.0869 18.325 13.3361 18.325H14.4901C14.7393 18.325 14.9416 18.527 14.9416 18.7763C14.9416 19.0255 14.7393 19.2276 14.4901 19.2276ZM17.952 19.2276H16.7982C16.5487 19.2276 16.3469 19.0255 16.3469 18.7763C16.3469 18.527 16.5487 18.325 16.7982 18.325H17.952C18.2012 18.325 18.4033 18.527 18.4033 18.7763C18.4033 19.0255 18.2012 19.2276 17.952 19.2276ZM21.4137 19.2276H20.2601C20.0107 19.2276 19.8086 19.0255 19.8086 18.7763C19.8086 18.527 20.0107 18.325 20.2601 18.325H21.4137C21.6632 18.325 21.8653 18.527 21.8653 18.7763C21.8653 19.0255 21.6632 19.2276 21.4137 19.2276ZM24.8757 19.2276H23.7219C23.4726 19.2276 23.2705 19.0255 23.2705 18.7763C23.2705 18.527 23.4726 18.325 23.7219 18.325H24.8757C25.1251 18.325 25.327 18.527 25.327 18.7763C25.327 19.0255 25.1251 19.2276 24.8757 19.2276ZM28.3376 19.2276H27.1838C26.9346 19.2276 26.7322 19.0255 26.7322 18.7763C26.7322 18.527 26.9346 18.325 27.1838 18.325H28.3376C28.5871 18.325 28.7889 18.527 28.7889 18.7763C28.7889 19.0255 28.5871 19.2276 28.3376 19.2276ZM29.2754 21.8485C29.0259 21.8485 28.8241 21.6467 28.8241 21.3975V20.2437C28.8241 19.9942 29.0259 19.7921 29.2754 19.7921C29.5244 19.7921 29.7264 19.9942 29.7264 20.2437V21.3975C29.7264 21.6467 29.5244 21.8485 29.2754 21.8485ZM29.2754 25.3106C29.0259 25.3106 28.8241 25.1086 28.8241 24.8592V23.7053C28.8241 23.4561 29.0259 23.254 29.2754 23.254C29.5244 23.254 29.7264 23.4561 29.7264 23.7053V24.8592C29.7264 25.1086 29.5244 25.3106 29.2754 25.3106ZM29.2754 28.7725C29.0259 28.7725 28.8241 28.5705 28.8241 28.3212V27.1672C28.8241 26.9181 29.0259 26.7158 29.2754 26.7158C29.5244 26.7158 29.7264 26.9181 29.7264 27.1672V28.3212C29.7264 28.5705 29.5244 28.7725 29.2754 28.7725ZM29.2754 32.2345C29.0259 32.2345 28.8241 32.0325 28.8241 31.7831V30.6291C28.8241 30.38 29.0259 30.1778 29.2754 30.1778C29.5244 30.1778 29.7264 30.38 29.7264 30.6291V31.7831C29.7264 32.0325 29.5244 32.2345 29.2754 32.2345ZM29.2754 35.6964C29.0259 35.6964 28.8241 35.4944 28.8241 35.245V34.0911C28.8241 33.8417 29.0259 33.6397 29.2754 33.6397C29.5244 33.6397 29.7264 33.8417 29.7264 34.0911V35.245C29.7264 35.4944 29.5244 35.6964 29.2754 35.6964ZM7.56673 37.1641H6.41274C6.16349 37.1641 5.96143 36.9621 5.96143 36.7127C5.96143 36.4636 6.16349 36.2613 6.41274 36.2613H7.56673C7.81599 36.2613 8.01807 36.4636 8.01807 36.7127C8.01807 36.9621 7.81599 37.1641 7.56673 37.1641ZM11.0287 37.1641H9.87467C9.62539 37.1641 9.42333 36.9621 9.42333 36.7127C9.42333 36.4636 9.62539 36.2613 9.87467 36.2613H11.0287C11.2779 36.2613 11.48 36.4636 11.48 36.7127C11.48 36.9621 11.2779 37.1641 11.0287 37.1641ZM14.4905 37.1641H13.3366C13.0873 37.1641 12.8852 36.9621 12.8852 36.7127C12.8852 36.4636 13.0873 36.2613 13.3366 36.2613H14.4905C14.7398 36.2613 14.9421 36.4636 14.9421 36.7127C14.9421 36.9621 14.7398 37.1641 14.4905 37.1641ZM17.9525 37.1641H16.7987C16.5492 37.1641 16.3474 36.9621 16.3474 36.7127C16.3474 36.4636 16.5492 36.2613 16.7987 36.2613H17.9525C18.2017 36.2613 18.4038 36.4636 18.4038 36.7127C18.4038 36.9621 18.2017 37.1641 17.9525 37.1641ZM21.4142 37.1641H20.2604C20.0112 37.1641 19.8091 36.9621 19.8091 36.7127C19.8091 36.4636 20.0112 36.2613 20.2604 36.2613H21.4142C21.6637 36.2613 21.8658 36.4636 21.8658 36.7127C21.8658 36.9621 21.6637 37.1641 21.4142 37.1641ZM24.8762 37.1641H23.7223C23.4731 37.1641 23.2708 36.9621 23.2708 36.7127C23.2708 36.4636 23.4731 36.2613 23.7223 36.2613H24.8762C25.1256 36.2613 25.3275 36.4636 25.3275 36.7127C25.3275 36.9621 25.1256 37.1641 24.8762 37.1641ZM28.3381 37.1641H27.1843C26.9351 37.1641 26.7327 36.9621 26.7327 36.7127C26.7327 36.4636 26.9351 36.2613 27.1843 36.2613H28.3381C28.5876 36.2613 28.7894 36.4636 28.7894 36.7127C28.7894 36.9621 28.5876 37.1641 28.3381 37.1641Z" fill="#823A2D"/>
<path d="M4.10357 37.1641H3.08805C2.83878 37.1641 2.63672 36.9621 2.63672 36.7127C2.63672 36.4636 2.83878 36.2613 3.08805 36.2613H4.10357C4.35284 36.2613 4.5549 36.4636 4.5549 36.7127C4.5549 36.9621 4.35284 37.1641 4.10357 37.1641Z" fill="#823A2D"/>
<path d="M31.5022 29.7656H26.3718C25.2277 29.7656 24.3008 28.8383 24.3008 27.6946C24.3008 26.5509 25.2277 25.6235 26.3718 25.6235H31.5022C31.7781 25.6235 32.0012 25.8471 32.0012 26.1225V29.2667C32.0012 29.5421 31.7781 29.7656 31.5022 29.7656Z" fill="#823A2D"/>
<path d="M27.4636 27.6958C27.4636 28.2997 26.9742 28.7891 26.3706 28.7891C25.7667 28.7891 25.2773 28.2997 25.2773 27.6958C25.2773 27.0922 25.7667 26.6026 26.3706 26.6026C26.9742 26.6026 27.4636 27.0922 27.4636 27.6958Z" fill="#EBA637"/>
<path d="M1.33367 30.9844C1.13861 30.9844 0.980469 30.8261 0.980469 30.631V21.9393C0.980469 21.7442 1.13861 21.5862 1.33367 21.5862C1.52875 21.5862 1.68689 21.7442 1.68689 21.9393V30.631C1.68689 30.8261 1.52875 30.9844 1.33367 30.9844Z" fill="#B9674A"/>
<path d="M1.33367 33.9062C1.13861 33.9062 0.980469 33.748 0.980469 33.5529V32.4611C0.980469 32.266 1.13861 32.108 1.33367 32.108C1.52875 32.108 1.68689 32.266 1.68689 32.4611V33.5529C1.68689 33.748 1.52875 33.9062 1.33367 33.9062Z" fill="#B9674A"/>
</svg>
