<svg width="72" height="60" viewBox="0 0 72 60" fill="none" xmlns="http://www.w3.org/2000/svg">
<path d="M9.61719 48.3379C9.61719 48.0449 9.57161 47.7845 9.48047 47.5566C9.39583 47.3288 9.24284 47.1204 9.02148 46.9316C8.80013 46.7428 8.48763 46.5605 8.08398 46.3848C7.68685 46.2025 7.17904 46.0169 6.56055 45.8281C5.88346 45.6198 5.25846 45.3887 4.68555 45.1348C4.11914 44.8743 3.62435 44.5749 3.20117 44.2363C2.77799 43.8913 2.44922 43.4974 2.21484 43.0547C1.98047 42.6055 1.86328 42.0879 1.86328 41.502C1.86328 40.9225 1.98372 40.3952 2.22461 39.9199C2.47201 39.4447 2.82031 39.0345 3.26953 38.6895C3.72526 38.3379 4.26237 38.0677 4.88086 37.8789C5.49935 37.6836 6.18294 37.5859 6.93164 37.5859C7.98633 37.5859 8.89453 37.7812 9.65625 38.1719C10.4245 38.5625 11.0137 39.0866 11.4238 39.7441C11.8405 40.4017 12.0488 41.1276 12.0488 41.9219H9.61719C9.61719 41.4531 9.51628 41.0397 9.31445 40.6816C9.11914 40.3171 8.81966 40.0306 8.41602 39.8223C8.01888 39.6139 7.51432 39.5098 6.90234 39.5098C6.32292 39.5098 5.84115 39.5977 5.45703 39.7734C5.07292 39.9492 4.78646 40.1868 4.59766 40.4863C4.40885 40.7858 4.31445 41.1243 4.31445 41.502C4.31445 41.7689 4.3763 42.013 4.5 42.2344C4.6237 42.4492 4.8125 42.651 5.06641 42.8398C5.32031 43.0221 5.63932 43.1947 6.02344 43.3574C6.40755 43.5202 6.86003 43.6764 7.38086 43.8262C8.16862 44.0605 8.85547 44.321 9.44141 44.6074C10.0273 44.8874 10.5156 45.2064 10.9062 45.5645C11.2969 45.9225 11.5898 46.3294 11.7852 46.7852C11.9805 47.2344 12.0781 47.7454 12.0781 48.3184C12.0781 48.9173 11.9577 49.4577 11.7168 49.9395C11.4759 50.4147 11.1309 50.8216 10.6816 51.1602C10.2389 51.4922 9.70508 51.7493 9.08008 51.9316C8.46159 52.1074 7.77148 52.1953 7.00977 52.1953C6.32617 52.1953 5.65234 52.1042 4.98828 51.9219C4.33073 51.7396 3.73177 51.4629 3.19141 51.0918C2.65104 50.7142 2.22135 50.2454 1.90234 49.6855C1.58333 49.1191 1.42383 48.4583 1.42383 47.7031H3.875C3.875 48.1654 3.95312 48.5592 4.10938 48.8848C4.27214 49.2103 4.49674 49.4772 4.7832 49.6855C5.06966 49.8874 5.40169 50.0371 5.7793 50.1348C6.16341 50.2324 6.57357 50.2812 7.00977 50.2812C7.58268 50.2812 8.0612 50.1999 8.44531 50.0371C8.83594 49.8743 9.12891 49.6465 9.32422 49.3535C9.51953 49.0605 9.61719 48.722 9.61719 48.3379ZM20.3691 49.5098V41.4336H22.7324V52H20.5059L20.3691 49.5098ZM20.7012 47.3125L21.4922 47.293C21.4922 48.0026 21.4141 48.6569 21.2578 49.2559C21.1016 49.8483 20.8607 50.3659 20.5352 50.8086C20.2096 51.2448 19.793 51.5866 19.2852 51.834C18.7773 52.0749 18.1686 52.1953 17.459 52.1953C16.9447 52.1953 16.4727 52.1204 16.043 51.9707C15.6133 51.821 15.2422 51.5898 14.9297 51.2773C14.6237 50.9648 14.3861 50.5579 14.2168 50.0566C14.0475 49.5553 13.9629 48.9564 13.9629 48.2598V41.4336H16.3164V48.2793C16.3164 48.6634 16.362 48.9857 16.4531 49.2461C16.5443 49.5 16.668 49.7051 16.8242 49.8613C16.9805 50.0176 17.1628 50.1283 17.3711 50.1934C17.5794 50.2585 17.8008 50.291 18.0352 50.291C18.7057 50.291 19.2331 50.1608 19.6172 49.9004C20.0078 49.6335 20.2845 49.2754 20.4473 48.8262C20.6165 48.377 20.7012 47.8724 20.7012 47.3125ZM27.5078 43.4648V56.0625H25.1543V41.4336H27.3223L27.5078 43.4648ZM34.3926 46.6191V46.8242C34.3926 47.5924 34.3014 48.3053 34.1191 48.9629C33.9434 49.6139 33.6797 50.1836 33.3281 50.6719C32.9831 51.1536 32.5566 51.528 32.0488 51.7949C31.541 52.0618 30.9551 52.1953 30.291 52.1953C29.6335 52.1953 29.0573 52.0749 28.5625 51.834C28.0742 51.5866 27.6608 51.2383 27.3223 50.7891C26.9837 50.3398 26.7103 49.8125 26.502 49.207C26.3001 48.5951 26.1569 47.9245 26.0723 47.1953V46.4043C26.1569 45.6296 26.3001 44.9264 26.502 44.2949C26.7103 43.6634 26.9837 43.1198 27.3223 42.6641C27.6608 42.2083 28.0742 41.8568 28.5625 41.6094C29.0508 41.362 29.6204 41.2383 30.2715 41.2383C30.9355 41.2383 31.5247 41.3685 32.0391 41.6289C32.5534 41.8828 32.9863 42.2474 33.3379 42.7227C33.6895 43.1914 33.9531 43.7578 34.1289 44.4219C34.3047 45.0794 34.3926 45.8118 34.3926 46.6191ZM32.0391 46.8242V46.6191C32.0391 46.1309 31.9935 45.6784 31.9023 45.2617C31.8112 44.8385 31.668 44.4674 31.4727 44.1484C31.2773 43.8294 31.0267 43.582 30.7207 43.4062C30.4212 43.224 30.0599 43.1328 29.6367 43.1328C29.2201 43.1328 28.862 43.2044 28.5625 43.3477C28.263 43.4844 28.0124 43.6764 27.8105 43.9238C27.6087 44.1712 27.4525 44.4609 27.3418 44.793C27.2311 45.1185 27.153 45.4733 27.1074 45.8574V47.752C27.1855 48.2207 27.319 48.6504 27.5078 49.041C27.6966 49.4316 27.9635 49.7441 28.3086 49.9785C28.6602 50.2064 29.1094 50.3203 29.6562 50.3203C30.0794 50.3203 30.4408 50.2292 30.7402 50.0469C31.0397 49.8646 31.2839 49.6139 31.4727 49.2949C31.668 48.9694 31.8112 48.5951 31.9023 48.1719C31.9935 47.7487 32.0391 47.2995 32.0391 46.8242ZM38.7578 43.4648V56.0625H36.4043V41.4336H38.5723L38.7578 43.4648ZM45.6426 46.6191V46.8242C45.6426 47.5924 45.5514 48.3053 45.3691 48.9629C45.1934 49.6139 44.9297 50.1836 44.5781 50.6719C44.2331 51.1536 43.8066 51.528 43.2988 51.7949C42.791 52.0618 42.2051 52.1953 41.541 52.1953C40.8835 52.1953 40.3073 52.0749 39.8125 51.834C39.3242 51.5866 38.9108 51.2383 38.5723 50.7891C38.2337 50.3398 37.9603 49.8125 37.752 49.207C37.5501 48.5951 37.4069 47.9245 37.3223 47.1953V46.4043C37.4069 45.6296 37.5501 44.9264 37.752 44.2949C37.9603 43.6634 38.2337 43.1198 38.5723 42.6641C38.9108 42.2083 39.3242 41.8568 39.8125 41.6094C40.3008 41.362 40.8704 41.2383 41.5215 41.2383C42.1855 41.2383 42.7747 41.3685 43.2891 41.6289C43.8034 41.8828 44.2363 42.2474 44.5879 42.7227C44.9395 43.1914 45.2031 43.7578 45.3789 44.4219C45.5547 45.0794 45.6426 45.8118 45.6426 46.6191ZM43.2891 46.8242V46.6191C43.2891 46.1309 43.2435 45.6784 43.1523 45.2617C43.0612 44.8385 42.918 44.4674 42.7227 44.1484C42.5273 43.8294 42.2767 43.582 41.9707 43.4062C41.6712 43.224 41.3099 43.1328 40.8867 43.1328C40.4701 43.1328 40.112 43.2044 39.8125 43.3477C39.513 43.4844 39.2624 43.6764 39.0605 43.9238C38.8587 44.1712 38.7025 44.4609 38.5918 44.793C38.4811 45.1185 38.403 45.4733 38.3574 45.8574V47.752C38.4355 48.2207 38.569 48.6504 38.7578 49.041C38.9466 49.4316 39.2135 49.7441 39.5586 49.9785C39.9102 50.2064 40.3594 50.3203 40.9062 50.3203C41.3294 50.3203 41.6908 50.2292 41.9902 50.0469C42.2897 49.8646 42.5339 49.6139 42.7227 49.2949C42.918 48.9694 43.0612 48.5951 43.1523 48.1719C43.2435 47.7487 43.2891 47.2995 43.2891 46.8242ZM47.1953 46.834V46.6094C47.1953 45.8477 47.306 45.1413 47.5273 44.4902C47.7487 43.8327 48.0677 43.263 48.4844 42.7812C48.9076 42.293 49.4219 41.9154 50.0273 41.6484C50.6393 41.375 51.3294 41.2383 52.0977 41.2383C52.8724 41.2383 53.5625 41.375 54.168 41.6484C54.7799 41.9154 55.2975 42.293 55.7207 42.7812C56.1439 43.263 56.4661 43.8327 56.6875 44.4902C56.9089 45.1413 57.0195 45.8477 57.0195 46.6094V46.834C57.0195 47.5957 56.9089 48.3021 56.6875 48.9531C56.4661 49.6042 56.1439 50.1738 55.7207 50.6621C55.2975 51.1439 54.7832 51.5215 54.1777 51.7949C53.5723 52.0618 52.8854 52.1953 52.1172 52.1953C51.3424 52.1953 50.6491 52.0618 50.0371 51.7949C49.4316 51.5215 48.9173 51.1439 48.4941 50.6621C48.071 50.1738 47.7487 49.6042 47.5273 48.9531C47.306 48.3021 47.1953 47.5957 47.1953 46.834ZM49.5488 46.6094V46.834C49.5488 47.3092 49.5977 47.7585 49.6953 48.1816C49.793 48.6048 49.946 48.9759 50.1543 49.2949C50.3626 49.6139 50.6296 49.8646 50.9551 50.0469C51.2806 50.2292 51.668 50.3203 52.1172 50.3203C52.5534 50.3203 52.931 50.2292 53.25 50.0469C53.5755 49.8646 53.8424 49.6139 54.0508 49.2949C54.2591 48.9759 54.4121 48.6048 54.5098 48.1816C54.6139 47.7585 54.666 47.3092 54.666 46.834V46.6094C54.666 46.1406 54.6139 45.6979 54.5098 45.2812C54.4121 44.8581 54.2559 44.4837 54.041 44.1582C53.8327 43.8327 53.5658 43.5788 53.2402 43.3965C52.9212 43.2077 52.5404 43.1133 52.0977 43.1133C51.6549 43.1133 51.2708 43.2077 50.9453 43.3965C50.6263 43.5788 50.3626 43.8327 50.1543 44.1582C49.946 44.4837 49.793 44.8581 49.6953 45.2812C49.5977 45.6979 49.5488 46.1406 49.5488 46.6094ZM61.3555 43.4453V52H59.002V41.4336H61.248L61.3555 43.4453ZM64.5879 41.3652L64.5684 43.5527C64.4251 43.5267 64.2689 43.5072 64.0996 43.4941C63.9368 43.4811 63.7741 43.4746 63.6113 43.4746C63.2077 43.4746 62.8529 43.5332 62.5469 43.6504C62.2409 43.7611 61.9837 43.9238 61.7754 44.1387C61.5736 44.347 61.4173 44.6009 61.3066 44.9004C61.196 45.1999 61.1309 45.5352 61.1113 45.9062L60.5742 45.9453C60.5742 45.2812 60.6393 44.666 60.7695 44.0996C60.8997 43.5332 61.0951 43.0352 61.3555 42.6055C61.6224 42.1758 61.9544 41.8405 62.3516 41.5996C62.7552 41.3587 63.2207 41.2383 63.748 41.2383C63.8913 41.2383 64.0443 41.2513 64.207 41.2773C64.3763 41.3034 64.5033 41.3327 64.5879 41.3652ZM71.3945 41.4336V43.1523H65.4375V41.4336H71.3945ZM67.1562 38.8457H69.5098V49.0801C69.5098 49.4056 69.5553 49.6562 69.6465 49.832C69.7441 50.0013 69.8776 50.1152 70.0469 50.1738C70.2161 50.2324 70.4147 50.2617 70.6426 50.2617C70.8053 50.2617 70.9616 50.252 71.1113 50.2324C71.2611 50.2129 71.3815 50.1934 71.4727 50.1738L71.4824 51.9707C71.2871 52.0293 71.0592 52.0814 70.7988 52.127C70.5449 52.1725 70.252 52.1953 69.9199 52.1953C69.3796 52.1953 68.901 52.1009 68.4844 51.9121C68.0677 51.7168 67.7422 51.401 67.5078 50.9648C67.2734 50.5286 67.1562 49.9492 67.1562 49.2266V38.8457Z" fill="#0084BF"/>
<g clip-path="url(#clip0_34362_1034)">
<path fill-rule="evenodd" clip-rule="evenodd" d="M49.125 22.5C49.125 23.535 48.285 24.375 47.25 24.375H46.365C46.9209 22.8169 47.25 21.0759 47.25 19.2188C47.25 17.7253 47.0306 16.3106 46.6613 15H47.25C48.285 15 49.125 15.84 49.125 16.875V22.5ZM44.3184 24.375H43.5C42.465 24.375 41.625 23.535 41.625 22.5V16.875C41.625 15.84 42.465 15 43.5 15H44.6794C45.1153 16.2994 45.375 17.7159 45.375 19.2188C45.375 21.0938 44.9794 22.8403 44.3184 24.375ZM25.3397 15C24.9694 16.3106 24.75 17.7253 24.75 19.2188C24.75 21.0759 25.08 22.8169 25.635 24.375H24.75C23.715 24.375 22.875 23.535 22.875 22.5V16.875C22.875 15.84 23.715 15 24.75 15H25.3397ZM27.3206 15H28.5C29.535 15 30.375 15.84 30.375 16.875V22.5C30.375 23.535 29.535 24.375 28.5 24.375H27.6816C27.0206 22.8403 26.625 21.0938 26.625 19.2188C26.625 17.7159 26.8847 16.2994 27.3206 15ZM49.0669 13.6134C49.0931 13.2966 49.125 12.9806 49.125 12.6562C49.125 5.66625 43.2488 0 36 0C28.7513 0 22.875 5.66625 22.875 12.6562C22.875 12.9806 22.9069 13.2966 22.9341 13.6134C21.7856 14.2547 21 15.4669 21 16.875V22.5C21 24.5709 22.6791 26.25 24.75 26.25C24.75 26.25 28.5037 26.2556 28.5 26.25C30.4922 26.1609 32.25 24.5138 32.25 22.5V16.875C32.25 14.8041 30.5709 13.125 28.5 13.125H24.75C24.75 6.87844 29.7872 1.875 36 1.875C42.2137 1.875 47.25 6.43781 47.25 13.125H43.5C41.4291 13.125 39.75 14.8041 39.75 16.875V22.5C39.75 24.5138 41.5078 26.1609 43.5 26.25C43.4963 26.2556 45.375 26.25 45.375 26.25V29.0625C45.375 29.5809 45.7941 30 46.3125 30C46.8309 30 47.25 29.5809 47.25 29.0625V26.25C49.3209 26.25 51 24.5709 51 22.5V16.875C51 15.4669 50.2144 14.2547 49.0669 13.6134Z" fill="#0084BF"/>
</g>
<defs>
<clipPath id="clip0_34362_1034">
<rect width="30" height="30" fill="white" transform="translate(21)"/>
</clipPath>
</defs>
</svg>
