<svg width="208" height="208" viewBox="0 0 208 208" fill="none" xmlns="http://www.w3.org/2000/svg">
<circle cx="104" cy="104" r="104" fill="#EBF0F6"/>
<path opacity="0.12" d="M180.212 154.688C168.41 148.192 127.103 152.089 127.103 152.089C124.155 152.487 121.613 152.881 119.438 153.269C119.437 153.269 107.482 155.175 101.728 154.363C97.1241 153.713 84.4902 152.856 77.812 154.537C75.5853 154.008 72.5021 153.464 68.3906 152.909C68.3906 152.909 36.7732 149.925 27.7398 154.898C18.7062 159.87 47.3878 160.864 55.6308 161.237C59.5732 161.416 70.67 160.599 77.3467 159.181C82.5514 160.18 92.0414 160.023 97.155 159.397C105.119 158.423 109.119 159.449 118.105 160.803C126.864 162.332 139.125 163.181 143.773 162.97C154.542 162.483 192.014 161.184 180.212 154.688Z" fill="#606060"/>
<path d="M51.1875 80.9361L65.0862 79.9417L69.8019 65.2734L74.1452 66.1436L69.8019 84.6653L56.7621 87.1265L51.1875 80.9361Z" fill="#AEC4C4"/>
<path d="M70.4219 65.5436L70.7942 62.2901L73.5243 59.6797L75.2616 61.0471L74.2688 64.0304L72.8417 65.8826L70.4219 65.5436Z" fill="#EACDB0"/>
<path d="M59.121 111.946L62.8985 132.395L62.6739 154.674L59.0308 154.954L55.4158 134.021L47.7266 111.93L59.121 111.946Z" fill="#59595B"/>
<path d="M54.5971 108.164L51.0861 131.161L45.7966 155.014L42.3831 154.933L42.7704 130.89L40.793 108.816L54.5971 108.164Z" fill="#59595B"/>
<path d="M40.4939 115.319C40.6484 117.452 40.9722 120.314 41.7102 120.352C41.8484 120.359 41.9724 120.271 42.085 120.187C43.2733 119.299 44.0642 118.13 45.2369 117.269C46.466 116.367 47.9162 115.814 49.3492 115.389C51.4907 114.739 53.6961 114.255 55.9162 114.006C57.6613 113.811 59.4333 113.815 61.1893 113.817C62.6501 113.819 64.0422 114.176 65.5072 113.925C67.0087 113.667 68.4505 113.01 69.661 111.998C69.7053 111.961 69.752 111.919 69.7663 111.859C69.7819 111.793 69.7545 111.724 69.7277 111.662C69.3313 110.74 69.0226 109.82 68.3892 109.085C67.6818 108.264 67.1338 107.188 66.5889 106.23C65.4532 104.232 64.3633 102.129 63.4992 99.9691C62.2245 97.0422 60.8151 94.2067 59.5727 91.2668C58.7116 89.2291 57.9057 87.1486 56.8162 85.2418C55.9632 83.7489 54.4891 81.589 52.9028 81.0436C52.3658 80.859 51.7951 80.8906 51.2383 80.924C49.5488 81.0253 47.8594 81.1267 46.1699 81.2281C45.5541 81.265 44.914 81.3095 44.3804 81.6452C43.5807 82.1484 43.1976 83.1813 42.868 84.1423C41.3903 88.4517 40.616 93.0221 40.3759 97.6837C40.2506 100.118 40.1517 102.554 40.1246 104.993C40.0945 107.715 40.1527 110.44 40.3621 113.156C40.3853 113.458 40.4206 114.306 40.4939 115.319Z" fill="#AEC4C4"/>
<path d="M49.529 90.3451C49.6804 91.2953 49.6325 92.2648 49.5841 93.2262C49.2894 99.0816 48.2558 109.995 47.9612 115.85C52.4804 115.393 59.191 114.469 63.7102 114.011C63.3469 111.861 61.5313 105.12 61.1682 102.97C60.9354 101.591 60.7014 100.208 60.2834 98.8731C59.6092 96.7195 58.4721 94.7388 57.3434 92.7771C55.258 89.1524 53.1725 85.5277 51.087 81.9031C50.9755 81.7093 50.8584 81.5091 50.6738 81.3792C50.4528 81.2237 50.1675 81.191 49.8956 81.1692C48.5819 81.0636 47.1044 81.0083 45.8228 81.3193C45.6071 82.534 46.7942 82.2422 47.3397 83.3033C48.1336 84.8475 49.2524 88.6092 49.529 90.3451Z" fill="white"/>
<path d="M62.2276 154.664L64.727 155.675L64.6069 157.101L59.4278 157.22L59.2266 154.945L62.2276 154.664Z" fill="#3A3029"/>
<path d="M42.5667 154.516L39.9219 156.284L40.4941 157.942L45.7747 156.954L45.542 154.865L42.5667 154.516Z" fill="#3A3029"/>
<path d="M50.794 73.744C50.769 75.1863 50.4852 75.7076 49.8514 77.12C49.4506 75.9438 49.0649 74.7235 48.6641 73.5473C49.1241 73.5273 49.5841 73.5072 50.0441 73.487C50.3236 73.4748 50.6641 73.4956 50.794 73.744Z" fill="#3A3029"/>
<path d="M49.9612 77.1753C49.6705 75.9425 49.7487 73.9991 48.6195 73.2294C47.3694 72.3773 45.6524 72.6867 44.2971 73.3586C43.2177 73.8937 42.1566 74.7765 42.0319 75.9765C41.9115 77.1351 42.6923 78.1725 43.4295 79.0736C43.7754 79.4965 44.1105 80.1843 44.6085 80.4244C45.2972 80.7566 46.2458 80.519 46.2458 80.519C46.4959 80.4564 46.7431 80.6307 46.7687 80.8875L46.8387 81.5879C46.8387 81.5879 46.8289 82.1182 47.6045 82.0312C48.1482 81.8073 48.692 81.5835 49.2356 81.3596C49.2155 80.7752 48.8131 80.1588 49.1009 79.65C49.2641 79.3615 49.602 79.2213 49.818 78.9699C50.2247 78.4968 50.1047 77.783 49.9612 77.1753Z" fill="#EACDB0"/>
<path d="M51.0216 70.0618C50.7522 69.2644 50.4829 68.467 50.2135 67.6695C50.1134 67.3734 50.0075 67.0671 49.7923 66.8407C49.4344 66.464 47.6669 66.5136 47.1551 66.6011C46.6435 66.6886 46.1625 66.9059 45.6556 67.0177C45.1145 67.137 44.5358 67.1391 44.0438 67.3942C43.108 67.8792 42.7868 69.1057 41.9125 69.6945C40.7018 70.5097 39.2242 70.4663 39.1468 72.3733C39.1326 72.7237 39.243 73.0683 39.2497 73.419C39.2584 73.8718 39.0949 74.3082 39.0154 74.754C38.6662 76.715 40.0393 78.8087 41.8724 79.4837C42.7611 79.811 43.264 80.2466 44.1911 80.0538C43.4473 79.451 42.5173 76.1076 43.4054 75.2723C43.6407 75.0513 44.6329 75.0048 44.9615 74.9072C45.6896 74.6909 46.4031 74.4931 47.1675 74.4619C48.3021 74.4156 49.465 74.2164 50.5312 73.8158C50.6675 73.7646 50.7455 73.6319 50.8764 73.5679C51.6371 73.196 51.8508 73.2988 52.0304 73.0487C52.6439 72.1951 51.3579 71.0575 51.0216 70.0618Z" fill="#3A3029"/>
<g opacity="0.1">
<path d="M60.7555 80.2422L54.7852 85.5262V132.39L55.3131 133.715L57.197 144.323H60.7555V80.2422Z" fill="black"/>
</g>
<path d="M56.6406 85.6028L105.434 115.505L153.717 85.843L107.628 46.8503C106.291 45.719 104.335 45.7163 102.995 46.844L56.6406 85.6028Z" fill="#E3CA97"/>
<path d="M149.928 49.3672H60.75V119.094H149.928V49.3672Z" fill="white"/>
<path d="M56.6328 85.5781L57.055 144.335L142.439 143.719C148.897 143.672 154.092 138.03 154.043 131.115L153.71 85.8509L105.389 115.542L56.6328 85.5781Z" fill="#FCE0A7"/>
<path d="M142.905 62.3438H76.8906V63.7681H142.905V62.3438Z" fill="#C6C6C6"/>
<path d="M142.905 73.4453H67.7852V74.9228H142.905V73.4453Z" fill="#C6C6C6"/>
<path d="M142.905 84.5703H67.7852V86.0478H142.905V84.5703Z" fill="#C6C6C6"/>
<path d="M43.6183 82.4141L47.3412 83.2842L52.0569 100.19L64.4664 106.032L63.3496 109.016L47.7135 104.665L41.6328 88.5051L43.6183 82.4141Z" fill="#B7CFCF"/>
<path d="M64.3439 106.414L66.2821 106.677L68.5299 108.478L67.8843 110.136L65.8234 110.053L63.457 108.632L64.3439 106.414Z" fill="#EACDB0"/>
<path d="M151.207 112.419L151.583 129.041L154.811 154.338L158.464 154.268L159 133.726L164.51 109.945L151.207 112.419Z" fill="#605A52"/>
<path d="M157.355 109.257L162.367 131.974L169.208 155.427L172.586 154.796L170.647 131.156L171.173 109L157.355 109.257Z" fill="#605A52"/>
<path d="M155.255 154.281L152.863 155.526L153.119 156.935L158.286 156.557L158.269 154.273L155.255 154.281Z" fill="#3A3029"/>
<path d="M169.277 154.781L166.816 156.742L167.516 158.328L172.638 156.919L172.237 154.88L169.277 154.781Z" fill="#3A3029"/>
<path d="M176.128 119.023C176.262 120.503 177.384 124.454 175.619 125.314C173.481 126.355 172.048 124.589 170.506 123.458C169.302 122.575 167.847 122.119 166.422 121.676C162.511 120.463 159.463 120.308 155.478 121.071C153.69 121.413 146.989 123.007 146.696 120.054C146.471 117.781 148.164 115.001 148.775 112.859C149.528 110.219 150.218 107.458 150.674 104.671C151.394 100.874 152.264 97.1637 152.95 93.3574C153.426 90.7192 153.84 88.0393 154.564 85.5176C155.131 83.5432 156.188 80.6418 157.65 79.6816C158.145 79.3567 158.713 79.2882 159.267 79.2245C160.949 79.0314 162.631 78.8381 164.313 78.6449C164.926 78.5744 165.565 78.5087 166.151 78.8168C167.03 79.2786 167.596 80.4624 168.096 81.5689C170.338 86.5302 171.935 91.9408 173.023 97.5622C173.591 100.497 174.133 103.44 174.605 106.4C175.132 109.702 175.573 113.026 175.862 116.367C175.895 116.738 176.015 117.776 176.128 119.023Z" fill="#D1AA95"/>
<path d="M164.86 78.5859C164.86 78.5859 164.986 83.1713 162.132 84.4143C159.278 85.6574 157.274 82.9348 159.259 79.2056L164.86 78.5859Z" fill="#FFFFE3"/>
<path d="M168.41 102.56C163.94 99.9167 156.776 99.826 153.308 103.498C153.973 98.4873 148.084 92.3958 143.22 90.5809C130.383 85.7917 119.092 98.7649 119.524 111.322C119.756 118.08 121.541 124.745 123.924 131.102C125.919 136.425 131.842 148.523 131.883 148.511C131.9 148.55 145.012 145.544 150.397 143.745C156.827 141.598 163.12 138.791 168.509 134.717C178.52 127.148 180.206 109.535 168.41 102.56Z" fill="#C33258"/>
<g opacity="0.1">
<path d="M152.092 98.3364L142.525 104.932L140.292 108.662L139.051 108.289C139.051 108.289 140.912 102.446 141.16 102.073C141.409 101.7 149.599 95.6094 149.599 95.6094L151.274 97.1632L152.092 98.3364Z" fill="black"/>
</g>
<g opacity="0.1">
<path d="M167.721 102.19L168.838 102.812L170.412 103.93L154.058 113.999L152.83 113.502L150.348 114.994C150.348 114.994 164.37 101.196 165.115 101.071C165.86 100.947 167.721 102.19 167.721 102.19Z" fill="black"/>
</g>
<path d="M157.911 79.6953L154.933 80.8141L148.976 93.1205L139.793 102.568L142.151 104.308L152.418 96.1138L158.963 79.8217L157.911 79.6953Z" fill="#D1AA95"/>
<path d="M168.089 81.6875L169.908 86.0568L167.592 102.571L154.066 113.137L151.832 110.9L162.008 99.3391L163.662 83.1378L168.089 81.6875Z" fill="#D1AA95"/>
<path d="M160.266 70.1623C159.16 70.7416 158.026 72.1958 158.129 73.5229C158.178 74.162 158.543 74.651 158.569 75.3372C158.624 76.6896 160.704 78.0591 159.481 79.3928C158.852 80.0782 157.848 80.2327 156.925 80.3469C156.814 80.3607 156.696 80.3738 156.591 80.3324C156.419 80.2641 156.331 80.0631 156.331 79.8771C156.33 79.6913 156.398 79.5131 156.45 79.3348C156.996 77.4693 156.058 75.3298 155.911 73.4453C155.763 71.5644 156.29 69.497 157.803 68.2344C158.844 68.5265 159.515 68.994 160.045 69.9376L160.266 70.1623Z" fill="#5E533B"/>
<path d="M157.188 72.0764C158.19 68.166 162.86 69.7802 163.981 73.3215C164.621 75.3422 163.619 77.8357 161.977 78.8279C162.077 79.1749 162.076 79.5813 162.205 79.9349C161.656 80.1457 161.093 80.2514 160.54 80.3103C160.214 80.3451 159.938 80.0698 159.967 79.7422C159.984 79.5455 160.001 79.3539 160.007 79.2246C159.676 79.1673 159.336 79.0476 158.993 78.8558C157.923 78.2567 157.205 77.0134 156.961 75.7624C156.716 74.5115 156.886 73.2515 157.188 72.0764Z" fill="#EACDB0"/>
<path d="M162.345 78.0605C163.262 76.0017 163.32 73.385 161.704 71.6495C161.042 70.9385 160.191 70.776 159.257 70.9555C159.183 70.9697 159.109 70.9859 159.036 71.0035C158.423 71.1512 158.066 70.3181 157.964 69.8386C157.844 69.2689 158.07 68.667 158.445 68.2214C161.676 64.3781 166.921 69.1644 168.054 72.5291C168.135 72.7681 168.201 73.0111 168.267 73.2545C169.054 76.2071 169.081 79.3649 168.753 82.3846C168.547 84.2805 167.443 86.1135 167.828 87.9814C168.178 89.6793 169.647 90.8688 170.921 92.0425C172.194 93.2162 173.445 94.7861 173.145 96.4934C172.96 97.5478 172.179 98.434 171.234 98.9336C170.289 99.4332 169.195 99.5858 168.127 99.5782C167.271 99.5721 166.404 99.47 165.568 99.6488C164.731 99.8277 163.901 100.368 163.685 101.197C163.566 101.655 163.601 102.231 163.204 102.487C163.018 102.607 162.783 102.616 162.562 102.621C161.885 102.637 161.117 102.615 160.665 102.11C159.966 101.328 160.385 99.769 159.437 99.3214C159.159 99.1903 158.838 99.2085 158.535 99.1556C156.984 98.8839 156.399 96.8112 156.939 95.3292C157.478 93.8472 158.715 92.7522 159.655 91.4862C161.489 89.0147 162.738 85.7058 161.635 82.7628C161.474 82.3336 161.28 81.902 161.274 81.4436C161.263 80.5676 161.809 79.0525 162.233 78.2868C162.273 78.2149 162.31 78.1396 162.345 78.0605Z" fill="#5E533B"/>
<path d="M151.833 110.891L149.91 111.885L149.352 114.123L150.344 114.993L153.323 112.382L151.833 110.891Z" fill="#EACDB0"/>
<path d="M140.194 102.859L138.43 105.797L139.05 108.283L140.663 107.288L142.153 104.305L140.194 102.859Z" fill="#EACDB0"/>
</svg>
