<svg width="325" height="276" viewBox="0 0 325 276" fill="none" xmlns="http://www.w3.org/2000/svg">
<g clip-path="url(#clip0_34264_9544)">
<path d="M30.9887 256.887C27.4197 245.197 21.6669 220.337 29.6239 191.041C32.7494 179.501 42.8286 142.296 78.8193 124.239C83.0025 122.137 112.148 108.059 144.816 118.097C188.183 131.377 183.031 170.329 226.835 184.387C255.128 193.436 274.686 182.749 290.389 199.81C297.335 207.415 301.557 217.113 302.392 227.379C303.227 237.645 300.628 247.897 295.002 256.525L30.9887 256.887Z" fill="#EDEDED"/>
<path d="M254.133 223.345C255.166 223.801 256.153 224.354 257.081 224.996C260.773 227.541 261.25 229.964 264.676 231.547C265.735 232.038 266.867 232.356 268.027 232.489C269.957 232.698 271.91 232.419 273.704 231.677C273.704 231.677 276.7 224.341 263.113 221.031L262.636 223.263C262.274 222.669 261.906 222.075 261.544 221.475C260.585 221.235 259.591 221.17 258.609 221.284C256.943 221.502 255.382 222.22 254.133 223.345Z" fill="#00C0B5"/>
<path d="M258.543 197.961C259.349 200.558 260.83 202.894 262.835 204.731C264.93 206.594 266.357 206.682 269.482 209.426C271.147 210.886 272.26 211.875 273.099 213.52C274.104 215.626 274.422 217.994 274.007 220.29C269.877 219.839 265.961 218.22 262.719 215.622L264.084 213.022L261.6 214.496C260.001 212.089 258.906 209.383 258.38 206.541C257.855 203.699 257.91 200.781 258.543 197.961Z" fill="#00C0B5"/>
<path d="M277.485 209.358C267.283 207.133 263.489 196.576 263.489 196.576C263.789 196.01 268.266 194.665 268.266 194.665L262.322 193.839C262.322 193.839 261.21 192.202 261.824 188.612C262.438 185.023 259.988 180.055 259.988 180.055C263.345 180.811 266.566 182.074 269.542 183.801C272.695 185.644 277.472 188.428 279.423 193.839C279.74 194.725 279.968 195.639 280.106 196.569L278.059 199.422L280.283 198.35C280.371 202.206 279.404 206.012 277.485 209.358Z" fill="#00C0B5"/>
<path d="M286.52 215.018C286.52 215.018 277.758 198.681 300.394 192.594C300.394 192.594 297.889 195.385 298.305 200.824C298.722 206.263 297.084 207.157 297.084 207.157L292.86 206.597L296.34 209.77C296.34 209.77 291.788 215.769 286.52 215.018Z" fill="#00C0B5"/>
<path d="M301.016 220.448C301.016 220.448 285.764 215.302 286.365 228.698C286.365 228.698 291.203 233.052 295.735 226.453L294.513 223.921L296.622 224.351C296.622 224.351 299.488 220.864 301.016 220.448Z" fill="#00C0B5"/>
<path d="M280.782 241.928C280.745 241.924 280.709 241.913 280.676 241.894C280.644 241.875 280.616 241.85 280.593 241.82C280.571 241.79 280.555 241.756 280.546 241.719C280.538 241.683 280.537 241.645 280.544 241.608C282.816 225.987 295.557 221.749 295.686 221.708C295.758 221.686 295.835 221.693 295.902 221.727C295.969 221.762 296.019 221.821 296.041 221.893C296.064 221.964 296.057 222.042 296.023 222.108C295.988 222.175 295.928 222.225 295.857 222.248C295.734 222.289 283.321 226.431 281.096 241.69C281.085 241.762 281.045 241.827 280.987 241.872C280.929 241.916 280.855 241.936 280.782 241.928Z" fill="#0D0D0D"/>
<path d="M280.514 244.94C280.44 244.933 280.372 244.898 280.324 244.842C280.275 244.786 280.25 244.713 280.254 244.64C281.093 229.104 285.509 213.973 293.159 200.426C293.195 200.361 293.256 200.313 293.327 200.292C293.399 200.272 293.476 200.28 293.541 200.317C293.606 200.353 293.654 200.413 293.675 200.485C293.695 200.557 293.686 200.634 293.65 200.699C286.048 214.175 281.658 229.224 280.821 244.674C280.815 244.748 280.781 244.818 280.725 244.868C280.669 244.918 280.595 244.944 280.52 244.94H280.514Z" fill="#0D0D0D"/>
<path d="M279.874 251.132C279.837 251.127 279.802 251.115 279.77 251.096C279.738 251.077 279.711 251.052 279.689 251.022C279.667 250.992 279.652 250.958 279.644 250.921C279.636 250.885 279.635 250.848 279.642 250.812C282.668 231.872 279.909 212.46 271.726 195.113C271.694 195.045 271.691 194.967 271.716 194.897C271.742 194.826 271.794 194.769 271.862 194.737C271.93 194.706 272.008 194.702 272.078 194.728C272.149 194.754 272.206 194.806 272.238 194.874C280.46 212.325 283.233 231.85 280.194 250.9C280.189 250.937 280.176 250.971 280.157 251.003C280.137 251.034 280.112 251.061 280.082 251.083C280.052 251.104 280.019 251.12 279.983 251.128C279.947 251.137 279.91 251.138 279.874 251.132Z" fill="#0D0D0D"/>
<path d="M280.38 246.21C280.309 246.205 280.243 246.172 280.196 246.118C280.148 246.065 280.124 245.995 280.128 245.924C280.298 238.492 279.09 224.557 269.114 214.703C267.523 213.138 265.778 211.736 263.907 210.52C263.845 210.478 263.803 210.414 263.787 210.342C263.772 210.269 263.786 210.194 263.825 210.131C263.844 210.099 263.87 210.072 263.9 210.05C263.931 210.029 263.965 210.014 264.002 210.006C264.038 209.998 264.076 209.998 264.112 210.005C264.149 210.013 264.183 210.028 264.214 210.049C266.121 211.283 267.895 212.71 269.509 214.307C279.636 224.305 280.858 238.417 280.687 245.937C280.687 245.975 280.68 246.011 280.665 246.046C280.651 246.08 280.63 246.111 280.603 246.137C280.576 246.164 280.545 246.184 280.51 246.198C280.475 246.211 280.438 246.218 280.401 246.217L280.38 246.21Z" fill="#0D0D0D"/>
<path d="M281.791 246.344C281.73 246.337 281.674 246.312 281.629 246.272C281.583 246.231 281.552 246.178 281.538 246.119C280.618 241.574 278.517 237.353 275.447 233.878C272.376 230.404 268.445 227.8 264.048 226.329C263.977 226.304 263.918 226.252 263.885 226.184C263.852 226.117 263.846 226.039 263.87 225.967C263.895 225.898 263.946 225.841 264.013 225.809C264.079 225.777 264.155 225.773 264.225 225.797C268.718 227.302 272.735 229.965 275.871 233.517C279.008 237.07 281.153 241.385 282.091 246.03C282.105 246.103 282.09 246.179 282.049 246.242C282.009 246.304 281.945 246.348 281.872 246.365L281.791 246.344Z" fill="#0D0D0D"/>
<path d="M269.855 243.102L272.585 256.968H288.963L291.693 243.102H269.855ZM288.363 256.231H273.179L270.756 243.839H290.785L288.363 256.231Z" fill="#0D0D0D"/>
<path d="M290.787 243.836L288.364 256.229H273.18L270.758 243.836H290.787Z" fill="white"/>
<path d="M292.375 243.467H269.159L267.828 238.922H293.712L292.375 243.467Z" fill="#0D0D0D"/>
<path d="M306.994 256.966C307.009 257.148 306.987 257.331 306.93 257.505C306.872 257.678 306.781 257.839 306.661 257.976C306.54 258.113 306.394 258.225 306.229 258.305C306.065 258.385 305.887 258.431 305.704 258.44H20.2905C19.9341 258.392 19.6074 258.215 19.3708 257.944C19.1342 257.673 19.0039 257.326 19.0039 256.966C19.0039 256.606 19.1342 256.259 19.3708 255.988C19.6074 255.717 19.9341 255.541 20.2905 255.492H305.718C305.899 255.503 306.076 255.551 306.239 255.631C306.402 255.712 306.547 255.824 306.666 255.961C306.784 256.098 306.875 256.258 306.931 256.431C306.987 256.603 307.009 256.785 306.994 256.966Z" fill="#0D0D0D"/>
<path d="M83.2969 240.563L83.7336 249.83L89.6502 249.046L88.7903 238.141L83.2969 240.563Z" fill="white"/>
<path d="M83.7353 250.227C83.6403 250.227 83.5485 250.193 83.476 250.132C83.4344 250.096 83.4003 250.052 83.3757 250.003C83.3511 249.953 83.3365 249.9 83.3327 249.845L82.9028 240.578C82.899 240.497 82.9198 240.418 82.9625 240.349C83.0052 240.281 83.0677 240.227 83.1416 240.196L88.601 237.773C88.6576 237.743 88.7209 237.727 88.7852 237.727C88.8495 237.727 88.9128 237.743 88.9695 237.773C89.0248 237.806 89.0716 237.852 89.106 237.906C89.1404 237.961 89.1614 238.023 89.1674 238.087L90.0272 249.006C90.0351 249.108 90.0034 249.21 89.9387 249.29C89.874 249.37 89.7811 249.422 89.6792 249.435L83.7626 250.227H83.7353ZM83.7353 240.817L84.1311 249.367L89.2356 248.685L88.4508 238.728L83.7353 240.817Z" fill="#0D0D0D"/>
<path d="M44.8244 242.44L43.7734 248.193H48.953L50.1267 241.109L44.8244 242.44Z" fill="white"/>
<path d="M48.9523 248.599H43.7727C43.7136 248.598 43.6553 248.585 43.6022 248.559C43.549 248.533 43.5024 248.495 43.4657 248.449C43.4279 248.404 43.4004 248.351 43.3851 248.295C43.3698 248.238 43.367 248.179 43.3769 248.121L44.4279 242.369C44.4409 242.293 44.4756 242.222 44.5276 242.165C44.5796 242.108 44.6468 242.068 44.7213 242.048L50.0305 240.751C50.0951 240.738 50.162 240.739 50.2259 240.756C50.2898 240.773 50.349 240.804 50.399 240.847C50.4473 240.893 50.4838 240.949 50.5052 241.012C50.5266 241.075 50.5323 241.143 50.5218 241.208L49.3481 248.258C49.3348 248.353 49.2873 248.44 49.2145 248.503C49.1416 248.566 49.0484 248.6 48.9523 248.599ZM44.2641 247.794H48.6179L49.6347 241.652L45.1717 242.798L44.2641 247.794Z" fill="#0D0D0D"/>
<path d="M50.5611 248.211V254.401H29.9727C30.005 254.077 30.1375 253.772 30.3515 253.528C30.5656 253.283 30.8506 253.111 31.1669 253.036C35.5349 251.933 39.6512 250.003 43.2934 247.352H49.7218C49.9457 247.359 50.1582 247.452 50.3147 247.612C50.4712 247.773 50.5595 247.987 50.5611 248.211Z" fill="#0D0D0D"/>
<path d="M103.707 254.559H82.4766C82.5312 252.512 82.5721 250.41 82.6267 248.328C82.632 248.094 82.7283 247.871 82.8952 247.707C83.0621 247.543 83.2864 247.45 83.5207 247.448L90.5768 247.359C90.8104 247.357 91.0375 247.437 91.2183 247.585C94.5278 250.23 98.379 252.115 102.499 253.105C102.834 253.177 103.135 253.359 103.354 253.623C103.573 253.887 103.697 254.216 103.707 254.559Z" fill="#0D0D0D"/>
<path d="M50.5606 254.398V255.538H29.9311V254.569C29.924 254.512 29.924 254.455 29.9311 254.398H50.5606Z" fill="#0D0D0D"/>
<path d="M103.707 254.554V255.523L82.4766 255.762C82.4766 255.359 82.4766 254.95 82.4766 254.547L103.707 254.554Z" fill="#0D0D0D"/>
<path d="M43.2891 243.666L51.13 182.931L56.9715 125.703H88.813L90.3485 189.57V242.628L81.9752 243.816C80.2055 225.049 78.4358 206.283 76.666 187.516L72.6329 156.651C69.9988 167.41 67.367 178.156 64.7374 188.888L51.8397 243.816L43.2891 243.666Z" fill="#0D0D0D"/>
<path d="M78.5061 73.2484C77.9328 73.6033 76.7864 73.9854 74.4935 73.1119L75.4011 82.9728L67.8194 85.491L64.0866 82.3177C65.3219 77.1828 65.6726 71.8749 65.1239 66.6222C63.3496 65.8851 62.2304 64.5749 62.326 63.3534C62.3443 63.0691 62.4217 62.7918 62.5533 62.5391C62.6849 62.2865 62.8678 62.0641 63.0903 61.8862C63.3825 61.7031 63.7125 61.5889 64.0554 61.5522C64.3983 61.5156 64.745 61.5574 65.0693 61.6746C65.4514 60.0983 65.8268 58.5151 66.2021 56.9387L72.7806 56.4883L79.3659 55.9219C79.5365 57.5733 79.7481 59.8799 79.8709 62.6437C80.2872 71.4537 79.3386 72.7366 78.5061 73.2484Z" fill="white"/>
<path d="M67.8203 85.8875C67.7233 85.8871 67.6293 85.8533 67.5542 85.7919L63.8282 82.6187C63.7707 82.5707 63.728 82.5074 63.7051 82.4361C63.6821 82.3649 63.6799 82.2886 63.6986 82.2161C64.2858 79.779 64.6738 77.2982 64.8587 74.7982C65.043 72.154 65.0019 69.4989 64.7358 66.8617C62.9342 66.0428 61.8083 64.6234 61.9174 63.2858C61.9366 62.9446 62.0287 62.6115 62.1877 62.3089C62.3466 62.0064 62.5686 61.7414 62.8387 61.532C63.116 61.3395 63.43 61.2063 63.7611 61.1405C64.0922 61.0748 64.4333 61.0779 64.7631 61.1499L65.7936 56.8165C65.8136 56.7318 65.8602 56.6557 65.9265 56.5993C65.9927 56.5428 66.0753 56.509 66.1621 56.5026L72.7406 56.0522L79.3191 55.4858C79.4186 55.4774 79.5177 55.5062 79.5971 55.5667C79.6766 55.6273 79.7307 55.7152 79.749 55.8134C79.9878 58.0312 80.1584 60.3037 80.2608 62.5693C80.6839 71.5635 79.7217 72.9284 78.7049 73.5562C77.7768 74.1294 76.5143 74.1635 74.9379 73.6654L75.791 82.8985C75.7975 82.99 75.7735 83.081 75.7229 83.1576C75.6724 83.2341 75.5979 83.2917 75.5112 83.3216L67.9432 85.8397C67.9052 85.8625 67.8637 85.8786 67.8203 85.8875ZM64.5379 82.1615L67.9022 85.0276L74.9721 82.6869L74.0917 73.1331C74.0852 73.0654 74.0963 72.9973 74.1238 72.9351C74.1512 72.873 74.1943 72.8189 74.2487 72.7782C74.304 72.7378 74.3685 72.7117 74.4363 72.7022C74.5042 72.6927 74.5734 72.7 74.6377 72.7236C76.2482 73.3378 77.4765 73.4061 78.2954 72.8943C79.0666 72.4097 79.8582 70.8265 79.476 62.6375C79.3736 60.5221 79.2167 58.3997 79.0051 56.3252L72.8156 56.8575L66.5238 57.2942L65.466 61.7368C65.453 61.7923 65.4287 61.8446 65.3947 61.8904C65.3607 61.9362 65.3176 61.9745 65.2681 62.0029C65.2167 62.0263 65.1608 62.0384 65.1043 62.0384C65.0478 62.0384 64.992 62.0263 64.9405 62.0029C64.6761 61.9062 64.3932 61.8707 64.1131 61.8991C63.833 61.9274 63.5629 62.0189 63.3232 62.1667C63.1468 62.3076 63.0025 62.4846 62.9001 62.6859C62.7977 62.8872 62.7395 63.108 62.7295 63.3336C62.6476 64.3777 63.6713 65.531 65.2749 66.2066C65.3423 66.2329 65.401 66.2776 65.4444 66.3354C65.4877 66.3933 65.5142 66.4621 65.5206 66.5341C65.8151 69.2951 65.8607 72.0769 65.6571 74.846C65.4761 77.31 65.1019 79.756 64.5379 82.1615Z" fill="#0D0D0D"/>
<path d="M113.248 85.4029C113.33 84.6782 113.666 84.0061 114.197 83.5058C115.091 82.7414 116.169 82.9598 117.138 82.7483C118.223 82.5094 119.656 81.5882 120.994 78.3808C121.087 78.2513 121.148 78.1014 121.172 77.9435C121.196 77.7857 121.181 77.6244 121.13 77.4732C121.042 77.3387 120.923 77.2271 120.783 77.1476C120.643 77.0681 120.486 77.023 120.325 77.016C119.363 76.9 118.858 78.0464 117.595 78.8312C115.917 79.9026 113.665 80.2438 113.228 79.616C112.791 78.9882 114.272 77.6097 113.979 77.3299C113.685 77.0501 110.805 78.6947 109.945 80.6533C109.857 80.8512 109.604 81.4994 109.345 82.3047C109.147 82.9257 109.011 83.4512 108.922 83.8333L113.248 85.4029Z" fill="white"/>
<path d="M113.247 85.8402C113.202 85.8472 113.156 85.8472 113.11 85.8402L108.818 84.2706C108.726 84.2366 108.649 84.1699 108.602 84.0831C108.556 83.9963 108.543 83.8955 108.566 83.7998C108.688 83.288 108.832 82.7625 108.996 82.2439C109.248 81.4454 109.507 80.7903 109.61 80.5515C110.451 78.8896 111.889 77.6073 113.636 76.962C113.751 76.9214 113.876 76.9127 113.996 76.9367C114.116 76.9607 114.227 77.0166 114.318 77.0984C114.68 77.4465 114.38 77.9242 114.066 78.4633C113.929 78.6816 113.52 79.3436 113.615 79.4801C113.827 79.7803 115.731 79.678 117.437 78.5861C117.834 78.3179 118.202 78.0091 118.536 77.6648C119.095 77.1257 119.607 76.6139 120.399 76.7163C120.612 76.7217 120.821 76.7841 121.002 76.8969C121.184 77.0097 121.332 77.1689 121.431 77.358C121.531 77.5472 121.578 77.7595 121.568 77.973C121.558 78.1864 121.491 78.3934 121.375 78.5725C120.255 81.2475 118.87 82.783 117.28 83.1378C116.96 83.2022 116.637 83.2433 116.311 83.2607C115.666 83.2408 115.032 83.4352 114.509 83.8134C114.051 84.2498 113.763 84.8353 113.697 85.4649C113.687 85.5234 113.665 85.5791 113.632 85.6285C113.599 85.6779 113.556 85.7198 113.506 85.7515C113.432 85.8081 113.341 85.8392 113.247 85.8402ZM109.432 83.6087L112.947 84.8985C113.096 84.2577 113.439 83.6785 113.929 83.2402C114.579 82.7428 115.377 82.4805 116.195 82.4963C116.484 82.4785 116.771 82.442 117.055 82.3872C118.42 82.0937 119.607 80.7016 120.617 78.2927L120.658 78.2244C120.713 78.1425 120.849 77.8832 120.767 77.7194C120.709 77.6453 120.634 77.5857 120.549 77.5454C120.464 77.5051 120.37 77.4853 120.276 77.4874C119.894 77.4396 119.593 77.7058 119.068 78.2176C118.699 78.5997 118.289 78.9406 117.846 79.2344C116.161 80.3126 113.588 80.8585 112.933 79.9168C112.53 79.3436 112.988 78.6066 113.356 78.0129L113.438 77.8832C112.118 78.5312 111.036 79.5797 110.347 80.879C110.272 81.0565 110.019 81.6979 109.76 82.4963C109.644 82.8103 109.528 83.1924 109.432 83.5746V83.6087Z" fill="#0D0D0D"/>
<path d="M108.336 83.3559L101.805 99.4882L91.4054 82.3664C90.9114 81.5611 90.1689 80.9384 89.2899 80.5921C84.4857 78.8133 79.6792 77.0231 74.8704 75.2215C74.5339 76.3462 73.8477 77.3343 72.9114 78.0423C71.975 78.7504 70.8374 79.1416 69.6636 79.1591C68.4227 79.2103 67.2069 78.7994 66.2515 78.0058C65.4227 77.2574 64.886 76.2395 64.7366 75.1328L50.5901 82.9533C49.4874 83.5613 48.5347 84.4082 47.8014 85.4319C47.0682 86.4555 46.5731 87.6302 46.3523 88.8698C45.0147 96.5766 43.6795 104.279 42.3465 111.976C42.2222 112.76 42.3153 113.562 42.6156 114.296C42.916 115.03 43.412 115.668 44.0497 116.14C44.6875 116.611 45.4424 116.899 46.2322 116.971C47.0221 117.043 47.8166 116.897 48.5292 116.549L57.23 112.454C57.346 114.085 57.4279 115.989 57.4142 118.118C57.4142 118.657 57.4142 119.217 57.4142 119.79V119.933C57.4142 120.786 57.3528 121.619 57.2982 122.417C57.2982 122.963 57.2232 123.489 57.1822 124.007C57.073 125.324 56.9297 126.567 56.7728 127.727C67.3659 130.036 78.3435 129.924 88.8873 127.399C88.8873 126.532 88.8873 125.652 88.8463 124.772C88.8463 124.287 88.8463 123.796 88.8463 123.311C88.8463 122.347 88.8463 121.378 88.8463 120.404C88.8463 119.92 88.8463 119.435 88.8463 118.944C88.8463 118.569 88.8463 118.193 88.8463 117.811C88.9555 111.669 89.2899 105.889 89.7812 100.389L101.703 114.931C102.037 115.337 102.477 115.643 102.975 115.814C103.472 115.985 104.007 116.014 104.52 115.9C105.033 115.785 105.504 115.531 105.882 115.165C106.259 114.799 106.527 114.335 106.657 113.826C108.973 104.217 111.286 94.609 113.598 85.0005L108.336 83.3559ZM52.4531 107.418L55.1827 99.4746C55.756 101.754 56.1859 103.897 56.4998 105.869L52.4531 107.418Z" fill="#00C0B5"/>
<path d="M80.3909 58.0949C83.0046 55.9249 83.4754 54.3758 83.298 53.318C83.0251 51.6393 80.9437 49.5784 80.9642 49.6057C78.3369 47.3605 76.2418 46.9716 74.8224 47.0193C72.5568 47.0944 72.2907 48.3023 68.7762 48.9438C65.8214 49.4829 64.6339 48.8892 63.3169 50.0151C62.6345 50.6157 62.3069 51.5028 61.6381 53.2771C60.9694 55.0514 60.594 56.0545 60.7374 57.0986C61.0012 58.5634 61.7601 59.8932 62.887 60.8656C63.6514 61.3521 64.2861 62.0172 64.7363 62.8036C64.9179 63.182 65.0356 63.5878 65.0843 64.0047C65.5389 62.9009 65.822 61.7342 65.9237 60.5448C65.9502 60.0607 65.9502 59.5754 65.9237 59.0913C65.9156 58.8489 65.9999 58.6126 66.1596 58.4301C66.3192 58.2476 66.5423 58.1327 66.7836 58.1086C68.8308 57.7128 73.4098 59.2551 78.8077 58.4362C79.3419 58.3546 79.8706 58.2406 80.3909 58.0949Z" fill="#0D0D0D"/>
<path d="M70.4337 64.2347C70.5224 64.8489 70.8772 65.3129 71.2184 65.2583C71.5596 65.2037 71.7644 64.6714 71.6688 64.0573C71.5733 63.4431 71.2253 62.979 70.8841 63.0268C70.5429 63.0746 70.3381 63.6205 70.4337 64.2347Z" fill="#0D0D0D"/>
<path d="M76.3347 63.5023C76.4302 64.1233 76.7851 64.5805 77.1263 64.5327C77.4675 64.485 77.6654 63.939 77.5767 63.3249C77.4879 62.7107 77.1331 62.2466 76.7851 62.3012C76.437 62.3558 76.2118 62.8881 76.3347 63.5023Z" fill="#0D0D0D"/>
<path d="M76.1663 68.9688C74.9146 69.2699 73.6374 69.4527 72.3516 69.5147C72.5032 69.9426 72.7983 70.3048 73.1868 70.5398C73.5752 70.7748 74.033 70.868 74.4825 70.8037C74.9319 70.7394 75.3451 70.5215 75.6521 70.187C75.959 69.8525 76.1407 69.422 76.1663 68.9688Z" fill="#0D0D0D"/>
<path d="M68.829 62.7725C68.7617 62.7711 68.6959 62.7523 68.638 62.7179C68.6019 62.6938 68.571 62.6629 68.547 62.6268C68.523 62.5908 68.5064 62.5503 68.4982 62.5078C68.4899 62.4653 68.4902 62.4215 68.499 62.3791C68.5077 62.3367 68.5248 62.2964 68.5492 62.2607C68.904 61.7453 69.4021 61.3452 69.9818 61.1099C70.5616 60.8746 71.1976 60.8144 71.8112 60.9368C71.8536 60.9471 71.8934 60.9658 71.9285 60.9917C71.9635 61.0177 71.993 61.0504 72.0153 61.0879C72.0375 61.1254 72.052 61.1669 72.058 61.2101C72.064 61.2533 72.0613 61.2973 72.05 61.3394C72.0261 61.4242 71.9697 61.4962 71.893 61.5396C71.8164 61.5831 71.7256 61.5945 71.6406 61.5714C71.154 61.4796 70.6512 61.5321 70.1941 61.7225C69.737 61.9129 69.3455 62.2328 69.0679 62.6428C69.0403 62.6809 69.0046 62.7124 68.9632 62.7348C68.9219 62.7573 68.876 62.7701 68.829 62.7725Z" fill="#0D0D0D"/>
<path d="M74.9699 61.5003C74.9225 61.501 74.8755 61.4917 74.8319 61.4728C74.7884 61.454 74.7494 61.4261 74.7174 61.3911C74.6869 61.3606 74.6627 61.3245 74.6461 61.2847C74.6296 61.2449 74.6211 61.2022 74.6211 61.1591C74.6211 61.1159 74.6296 61.0733 74.6461 61.0334C74.6627 60.9936 74.6869 60.9575 74.7174 60.927C76.2529 59.5963 78.1295 60.6063 78.2387 60.6541C78.3146 60.6958 78.3708 60.766 78.3951 60.8491C78.4194 60.9322 78.4098 61.0216 78.3684 61.0976C78.324 61.1744 78.2514 61.2309 78.166 61.2552C78.0807 61.2794 77.9893 61.2694 77.9111 61.2273C77.4847 60.9975 77.0018 60.8935 76.5186 60.9274C76.0354 60.9612 75.5717 61.1314 75.1815 61.4184C75.1227 61.4695 75.0478 61.4984 74.9699 61.5003Z" fill="#0D0D0D"/>
<path d="M73.8853 67.8652C73.8151 67.8652 73.7467 67.8436 73.6893 67.8033C73.6319 67.763 73.5884 67.706 73.5645 67.64C73.5506 67.5993 73.5448 67.5561 73.5475 67.5131C73.5503 67.4701 73.5615 67.4281 73.5805 67.3894C73.5995 67.3507 73.626 67.3162 73.6584 67.2878C73.6908 67.2594 73.7284 67.2376 73.7692 67.2238L75.4685 66.6369C73.8102 63.9072 73.7829 63.8185 73.7692 63.7776C73.7432 63.6943 73.7508 63.6042 73.7903 63.5264C73.8298 63.4486 73.8982 63.3894 73.9808 63.3613C74.0599 63.3349 74.1459 63.3384 74.2226 63.3711C74.2993 63.4038 74.3613 63.4634 74.3971 63.5387C74.4858 63.7093 75.5503 65.4904 76.2532 66.6505C76.2734 66.6944 76.2839 66.7421 76.2839 66.7904C76.2839 66.8387 76.2734 66.8865 76.2532 66.9303C76.2362 66.9766 76.209 67.0184 76.1735 67.0527C76.1381 67.087 76.0953 67.1128 76.0485 67.1282L73.9671 67.8448L73.8853 67.8652Z" fill="#0D0D0D"/>
<path d="M71.6078 89.6693L68.8304 108.361C68.8185 108.439 68.8238 108.519 68.8459 108.595C68.8679 108.671 68.9063 108.741 68.9582 108.801C69.0101 108.861 69.0744 108.908 69.1466 108.941C69.2188 108.973 69.2972 108.989 69.3763 108.988H83.7071C83.8395 108.99 83.9682 108.944 84.0696 108.859C84.1711 108.774 84.2386 108.655 84.2598 108.524L87.0714 89.8399C87.0834 89.7611 87.0779 89.6806 87.0555 89.6041C87.033 89.5276 86.9941 89.4569 86.9414 89.3971C86.8887 89.3372 86.8236 89.2897 86.7505 89.2577C86.6775 89.2257 86.5983 89.2102 86.5186 89.2121H72.1879C72.0518 89.2033 71.9174 89.2452 71.8103 89.3296C71.7032 89.414 71.6311 89.535 71.6078 89.6693Z" fill="white"/>
<path d="M83.679 109.386H69.3483C69.2095 109.387 69.0722 109.358 68.946 109.3C68.8199 109.243 68.7079 109.158 68.6181 109.052C68.5277 108.951 68.4606 108.832 68.4217 108.702C68.3827 108.572 68.3729 108.435 68.3929 108.301L71.2112 89.61C71.2458 89.384 71.3608 89.1781 71.535 89.0301C71.7093 88.8822 71.9312 88.8021 72.1598 88.8047H86.4905C86.6302 88.8045 86.7682 88.8343 86.8953 88.8919C87.0225 88.9496 87.1358 89.0339 87.2276 89.1391C87.3165 89.242 87.3816 89.3632 87.4182 89.4942C87.4548 89.6251 87.4619 89.7626 87.4391 89.8966L84.6275 108.581C84.593 108.807 84.478 109.013 84.3037 109.161C84.1295 109.309 83.9076 109.389 83.679 109.386ZM72.0028 89.7328L69.1913 108.417C69.1836 108.436 69.1796 108.455 69.1796 108.475C69.1796 108.495 69.1836 108.515 69.1913 108.533C69.2076 108.549 69.2268 108.561 69.2479 108.57C69.269 108.578 69.2915 108.582 69.3141 108.581H83.6449C83.6812 108.582 83.7167 108.57 83.7453 108.548C83.774 108.525 83.7939 108.494 83.8018 108.458L86.6134 89.7738C86.617 89.7542 86.6157 89.734 86.6098 89.715C86.6039 89.696 86.5934 89.6787 86.5793 89.6646C86.5644 89.6466 86.5456 89.6323 86.5243 89.6228C86.503 89.6133 86.4797 89.6089 86.4564 89.61H72.1257C72.0897 89.6104 72.0547 89.6226 72.0264 89.6448C71.998 89.667 71.9777 89.6979 71.9687 89.7328H72.0028Z" fill="#0D0D0D"/>
<path d="M78.6907 100.585C79.5274 100.585 80.2057 99.9187 80.2057 99.097C80.2057 98.2754 79.5274 97.6094 78.6907 97.6094C77.8541 97.6094 77.1758 98.2754 77.1758 99.097C77.1758 99.9187 77.8541 100.585 78.6907 100.585Z" fill="white"/>
<path d="M78.6979 100.984C78.325 100.98 77.9615 100.865 77.6534 100.655C77.3452 100.445 77.1061 100.148 76.9662 99.8026C76.8263 99.4569 76.7917 99.0775 76.867 98.7121C76.9422 98.3468 77.1238 98.0119 77.389 97.7496C77.6542 97.4873 77.991 97.3093 78.3571 97.238C78.7232 97.1667 79.1022 97.2053 79.4465 97.3489C79.7907 97.4926 80.0847 97.7349 80.2915 98.0453C80.4983 98.3557 80.6087 98.7203 80.6087 99.0933C80.6051 99.5971 80.402 100.079 80.0438 100.433C79.6857 100.788 79.2017 100.985 78.6979 100.984ZM78.6979 98.0083C78.4846 98.0136 78.2776 98.0818 78.1027 98.2042C77.9279 98.3267 77.7931 98.498 77.7152 98.6966C77.6372 98.8953 77.6196 99.1126 77.6645 99.3212C77.7094 99.5299 77.8148 99.7207 77.9676 99.8697C78.1204 100.019 78.3137 100.119 78.5234 100.159C78.7331 100.199 78.9499 100.176 79.1465 100.093C79.3432 100.01 79.5111 99.871 79.6291 99.6932C79.7472 99.5154 79.8102 99.3067 79.8103 99.0933C79.8085 98.949 79.7783 98.8065 79.7215 98.6739C79.6646 98.5413 79.5821 98.4211 79.4789 98.3204C79.3756 98.2196 79.2534 98.1402 79.1194 98.0867C78.9855 98.0331 78.8422 98.0065 78.6979 98.0083Z" fill="#0D0D0D"/>
<path d="M66.1328 103.066C66.7197 102.942 67.2838 102.728 67.8047 102.431C68.5205 102.024 69.1361 101.462 69.6063 100.787C69.7026 100.655 69.8262 100.545 69.9687 100.465C70.1111 100.385 70.2692 100.336 70.432 100.323C72.2336 100.172 72.5407 99.7902 73.6394 99.2375C75.1475 98.4868 75.3523 97.3677 76.3691 97.4496C76.6932 97.4798 77.0003 97.6084 77.2494 97.8181C78.0614 98.5483 77.7066 100.029 77.5496 100.671C77.2204 101.933 76.5388 103.077 75.5843 103.967C74.7997 104.732 73.8721 105.334 72.8546 105.741C72.5713 105.855 72.2647 105.9 71.9606 105.871C70.4904 105.74 69.013 106.024 67.6955 106.689C67.1815 105.479 66.6605 104.271 66.1328 103.066Z" fill="white"/>
<path d="M67.7164 107.09C67.6711 107.096 67.6252 107.096 67.5799 107.09C67.5284 107.071 67.4813 107.042 67.4414 107.005C67.4015 106.967 67.3697 106.922 67.3479 106.872L65.7647 103.248C65.7396 103.194 65.7266 103.134 65.7266 103.074C65.7266 103.014 65.7396 102.955 65.7647 102.9C65.792 102.848 65.8307 102.802 65.878 102.767C65.9252 102.731 65.9798 102.707 66.0377 102.695C66.5837 102.582 67.1087 102.384 67.5936 102.108C68.2582 101.73 68.8295 101.208 69.2655 100.58C69.3937 100.399 69.5607 100.248 69.7542 100.14C69.9478 100.031 70.1632 99.967 70.3846 99.952C71.2522 99.9266 72.0984 99.6774 72.8413 99.2287C73.0256 99.1263 73.2167 99.0171 73.4487 98.9079C73.9594 98.6482 74.4212 98.3019 74.8135 97.8843C74.9586 97.6673 75.1488 97.4842 75.3711 97.3474C75.5934 97.2106 75.8426 97.1233 76.1017 97.0916C76.3608 97.0599 76.6237 97.0844 76.8725 97.1635C77.1212 97.2426 77.35 97.3744 77.5432 97.5499C78.5327 98.4302 78.1369 100.082 77.9731 100.785C77.6201 102.121 76.8989 103.332 75.8917 104.279C75.0683 105.082 74.0943 105.715 73.0256 106.142C72.6835 106.278 72.3141 106.331 71.9474 106.298C71.5613 106.268 71.1734 106.268 70.7873 106.298C69.7818 106.362 68.7998 106.629 67.9006 107.083C67.8408 107.101 67.7774 107.103 67.7164 107.09ZM66.6928 103.337L67.9211 106.148C68.8109 105.757 69.7627 105.526 70.7327 105.466C71.1596 105.432 71.5886 105.432 72.0156 105.466C72.2485 105.483 72.4822 105.446 72.698 105.357C73.6703 104.974 74.5565 104.401 75.3049 103.671C76.2054 102.833 76.8491 101.756 77.161 100.566C77.2975 99.9998 77.6114 98.6759 76.9836 98.1095C76.7999 97.9565 76.5736 97.8635 76.3353 97.8433C75.9736 97.8433 75.7621 98.0003 75.339 98.4234C74.8945 98.8967 74.373 99.2913 73.7967 99.5903L73.2167 99.8974C72.3764 100.404 71.42 100.686 70.4392 100.716C70.3356 100.721 70.2345 100.749 70.1434 100.799C70.0524 100.849 69.9738 100.918 69.9138 101.003C69.4071 101.728 68.7479 102.334 67.9825 102.777C67.5745 103.011 67.1419 103.198 66.6928 103.337Z" fill="#0D0D0D"/>
<path d="M64.4418 75.2109L63.3772 75.7023C63.2932 75.7437 63.2273 75.8145 63.1921 75.9013C63.1569 75.9881 63.1548 76.0849 63.1862 76.1731C63.7257 77.5155 64.6574 78.6641 65.8598 79.4687C67.0622 80.2733 68.4793 80.6966 69.926 80.6834C71.3727 80.6701 72.7818 80.2209 73.9692 79.3943C75.1566 78.5678 76.0672 77.4024 76.582 76.0503C76.6056 75.959 76.5933 75.8621 76.5476 75.7795C76.5019 75.697 76.4263 75.6352 76.3363 75.6067L75.3878 75.2723C75.186 75.2033 74.9658 75.211 74.7694 75.2941C74.573 75.3772 74.4141 75.5298 74.3232 75.7227C73.9212 76.5388 73.2987 77.2261 72.5262 77.7067C71.7537 78.1873 70.8621 78.442 69.9523 78.442C69.0425 78.442 68.1509 78.1873 67.3785 77.7067C66.606 77.2261 65.9835 76.5388 65.5814 75.7227C65.4959 75.5055 65.3288 75.3304 65.1159 75.2347C64.9029 75.1391 64.661 75.1305 64.4418 75.2109Z" fill="#97BCFF"/>
<path d="M65.7307 102.336L63.0625 103.36C63.9019 105.059 64.7412 106.772 65.5874 108.45L68.1056 107.29L65.7307 102.336Z" fill="#97BCFF"/>
<path d="M108.281 83.2734C107.967 84.1265 107.653 84.9795 107.332 85.8325L112.873 87.4908L113.617 85.0204L108.281 83.2734Z" fill="#97BCFF"/>
<path d="M88.7978 124.74C88.0628 124.72 87.3502 124.483 86.7506 124.057C86.3336 123.745 85.8244 123.582 85.3039 123.593C84.7827 123.577 84.2719 123.741 83.8572 124.057C83.1961 124.51 82.4134 124.753 81.612 124.753C80.8106 124.753 80.0279 124.51 79.3669 124.057C78.945 123.755 78.4391 123.592 77.9201 123.592C77.4012 123.592 76.8953 123.755 76.4734 124.057C75.8123 124.51 75.0297 124.753 74.2283 124.753C73.4269 124.753 72.6442 124.51 71.9831 124.057C71.5613 123.755 71.0554 123.592 70.5364 123.592C70.0174 123.592 69.5115 123.755 69.0897 124.057C68.4286 124.51 67.6459 124.753 66.8445 124.753C66.0431 124.753 65.2605 124.51 64.5994 124.057C64.1786 123.755 63.6738 123.593 63.1561 123.593C62.6383 123.593 62.1336 123.755 61.7128 124.057C61.0524 124.509 60.271 124.75 59.471 124.75C58.671 124.75 57.8897 124.509 57.2293 124.057L57.1133 123.989C57.1542 123.47 57.1952 122.945 57.2293 122.399C57.5101 122.516 57.7777 122.662 58.0277 122.836C58.4485 123.137 58.9533 123.3 59.471 123.3C59.9888 123.3 60.4935 123.137 60.9143 122.836C61.575 122.378 62.3594 122.133 63.1629 122.133C63.9664 122.133 64.7508 122.378 65.4115 122.836C65.8323 123.137 66.337 123.3 66.8548 123.3C67.3725 123.3 67.8773 123.137 68.2981 122.836C68.9574 122.378 69.7407 122.133 70.5432 122.133C71.3457 122.133 72.1291 122.378 72.7884 122.836C73.2102 123.138 73.7161 123.3 74.2351 123.3C74.754 123.3 75.26 123.138 75.6818 122.836C76.3411 122.378 77.1245 122.133 77.927 122.133C78.7295 122.133 79.5128 122.378 80.1721 122.836C80.594 123.138 81.0999 123.3 81.6188 123.3C82.1378 123.3 82.6437 123.138 83.0656 122.836C83.7248 122.378 84.5082 122.133 85.3107 122.133C86.1132 122.133 86.8966 122.378 87.5559 122.836C87.9067 123.1 88.3258 123.259 88.7637 123.293C88.791 123.777 88.791 124.269 88.7978 124.74Z" fill="#97BCFF"/>
<path d="M88.7983 118.926C88.7983 119.417 88.7983 119.902 88.7983 120.386C88.0782 120.354 87.3822 120.117 86.792 119.704C86.375 119.392 85.8658 119.229 85.3453 119.24C84.8241 119.224 84.3133 119.388 83.8986 119.704C83.2375 120.157 82.4548 120.399 81.6534 120.399C80.852 120.399 80.0694 120.157 79.4083 119.704C78.9864 119.401 78.4805 119.239 77.9616 119.239C77.4426 119.239 76.9367 119.401 76.5148 119.704C75.8538 120.157 75.0711 120.399 74.2697 120.399C73.4683 120.399 72.6856 120.157 72.0245 119.704C71.6027 119.401 71.0968 119.239 70.5778 119.239C70.0589 119.239 69.5529 119.401 69.1311 119.704C68.47 120.157 67.6874 120.399 66.8859 120.399C66.0845 120.399 65.3019 120.157 64.6408 119.704C64.22 119.402 63.7153 119.24 63.1975 119.24C62.6797 119.24 62.175 119.402 61.7542 119.704C61.0984 120.166 60.3112 120.405 59.509 120.386C58.7553 120.405 58.0141 120.19 57.3867 119.772C57.3867 119.199 57.3867 118.639 57.3867 118.1C57.6232 118.205 57.8513 118.328 58.0691 118.468C58.4899 118.77 58.9947 118.932 59.5124 118.932C60.0302 118.932 60.535 118.77 60.9558 118.468C61.6164 118.011 62.4008 117.766 63.2043 117.766C64.0078 117.766 64.7922 118.011 65.4529 118.468C65.8737 118.77 66.3784 118.932 66.8962 118.932C67.4139 118.932 67.9187 118.77 68.3395 118.468C68.9988 118.011 69.7821 117.766 70.5846 117.766C71.3872 117.766 72.1705 118.011 72.8298 118.468C73.2516 118.771 73.7576 118.933 74.2765 118.933C74.7955 118.933 75.3014 118.771 75.7232 118.468C76.3825 118.011 77.1659 117.766 77.9684 117.766C78.7709 117.766 79.5542 118.011 80.2135 118.468C80.6282 118.785 81.1391 118.948 81.6603 118.932C82.1808 118.943 82.69 118.78 83.107 118.468C83.7662 118.011 84.5496 117.766 85.3521 117.766C86.1546 117.766 86.938 118.011 87.5973 118.468C87.9459 118.732 88.3626 118.891 88.7983 118.926Z" fill="#97BCFF"/>
<path d="M57.4805 112.221L65.8469 108.242" stroke="#0D0D0D" stroke-width="0.682416" stroke-miterlimit="10" stroke-linecap="round"/>
<path d="M56.457 105.87L63.0628 103.352" stroke="#0D0D0D" stroke-width="0.682416" stroke-miterlimit="10" stroke-linecap="round"/>
<path d="M55.1406 99.481L56.1779 95.25" stroke="#0D0D0D" stroke-width="0.682416" stroke-miterlimit="10" stroke-linecap="round"/>
<path d="M89.746 100.373L87.4531 97.4453" stroke="#0D0D0D" stroke-width="0.682416" stroke-miterlimit="10" stroke-linecap="round"/>
<path d="M245.697 97.2031H232.922V104.546H245.697V97.2031Z" fill="#5454F1"/>
<path d="M232.924 97.2031H137.918V104.546H232.924V97.2031Z" fill="#00C0B5"/>
<path d="M245.697 139.062H232.922V148.848H245.697V139.062Z" fill="#5454F1"/>
<path d="M232.924 139.062H137.918V148.848H232.924V139.062Z" fill="#00C0B5"/>
<path d="M252.276 106.735V138.433C252.272 139.451 251.866 140.426 251.146 141.146C250.427 141.865 249.451 142.271 248.434 142.275H152.697C151.679 142.273 150.703 141.868 149.983 141.148C149.263 140.427 148.857 139.451 148.855 138.433V106.735C148.861 105.719 149.268 104.746 149.988 104.029C150.707 103.312 151.681 102.908 152.697 102.906H248.434C249.449 102.91 250.422 103.314 251.142 104.031C251.861 104.747 252.268 105.719 252.276 106.735Z" fill="#0D0D0D"/>
<path d="M232.926 106.737V138.436C232.924 139.027 232.688 139.593 232.27 140.011C231.852 140.43 231.285 140.665 230.694 140.667H134.958C134.367 140.665 133.8 140.43 133.382 140.011C132.964 139.593 132.728 139.027 132.727 138.436V106.737C132.726 106.443 132.783 106.152 132.894 105.88C133.006 105.608 133.17 105.361 133.377 105.153C133.585 104.944 133.831 104.778 134.102 104.665C134.373 104.552 134.664 104.493 134.958 104.492H230.694C230.988 104.493 231.279 104.552 231.55 104.665C231.821 104.778 232.068 104.944 232.275 105.153C232.482 105.361 232.646 105.608 232.758 105.88C232.87 106.152 232.927 106.443 232.926 106.737Z" fill="white"/>
<path d="M230.691 102.906H134.955C133.935 102.91 132.958 103.318 132.238 104.04C131.518 104.763 131.113 105.742 131.113 106.762V138.46C131.117 139.478 131.523 140.453 132.243 141.173C132.962 141.893 133.937 142.299 134.955 142.302H230.691C231.709 142.299 232.684 141.893 233.404 141.173C234.124 140.453 234.53 139.478 234.533 138.46V106.741C234.528 105.725 234.121 104.751 233.402 104.033C232.682 103.315 231.708 102.91 230.691 102.906ZM232.923 138.46C232.921 139.051 232.685 139.618 232.267 140.036C231.849 140.454 231.283 140.69 230.691 140.692H134.955C134.364 140.69 133.797 140.454 133.379 140.036C132.961 139.618 132.726 139.051 132.724 138.46V106.741C132.723 106.447 132.78 106.156 132.892 105.884C133.003 105.612 133.167 105.365 133.375 105.157C133.582 104.948 133.828 104.783 134.099 104.669C134.37 104.556 134.661 104.497 134.955 104.496H230.691C230.985 104.497 231.276 104.556 231.547 104.669C231.819 104.783 232.065 104.948 232.272 105.157C232.479 105.365 232.643 105.612 232.755 105.884C232.867 106.156 232.924 106.447 232.923 106.741V138.46Z" fill="#0D0D0D"/>
<path d="M149.24 129.63C147.845 129.631 146.481 129.219 145.321 128.445C144.16 127.671 143.256 126.57 142.722 125.281C142.187 123.993 142.047 122.575 142.319 121.207C142.59 119.839 143.262 118.582 144.248 117.596C145.235 116.61 146.491 115.938 147.859 115.666C149.227 115.395 150.645 115.535 151.934 116.069C153.222 116.604 154.323 117.508 155.097 118.668C155.871 119.829 156.284 121.193 156.282 122.587C156.28 124.455 155.538 126.245 154.218 127.565C152.897 128.886 151.107 129.628 149.24 129.63ZM149.24 117.149C148.16 117.149 147.105 117.469 146.207 118.069C145.309 118.669 144.609 119.521 144.196 120.519C143.783 121.516 143.675 122.614 143.885 123.673C144.096 124.732 144.616 125.705 145.379 126.468C146.143 127.232 147.116 127.752 148.175 127.962C149.234 128.173 150.331 128.065 151.329 127.652C152.327 127.238 153.179 126.539 153.779 125.641C154.379 124.743 154.699 123.688 154.699 122.608C154.699 121.16 154.124 119.771 153.1 118.748C152.076 117.724 150.688 117.149 149.24 117.149Z" fill="#0D0D0D"/>
<path d="M205.306 119.477H166.654C165.199 119.477 164.02 120.656 164.02 122.111V123.046C164.02 124.5 165.199 125.68 166.654 125.68H205.306C206.76 125.68 207.94 124.5 207.94 123.046V122.111C207.94 120.656 206.76 119.477 205.306 119.477Z" fill="#00C0B5"/>
<path d="M219.542 125.679C221.257 125.679 222.647 124.289 222.647 122.574C222.647 120.859 221.257 119.469 219.542 119.469C217.828 119.469 216.438 120.859 216.438 122.574C216.438 124.289 217.828 125.679 219.542 125.679Z" fill="#0D0D0D"/>
<path d="M247.13 183.43L246.127 188.718C245.99 189.371 245.631 189.955 245.11 190.371C244.59 190.787 243.94 191.009 243.274 190.998H232.922V183.43H247.13Z" fill="#5454F1"/>
<path d="M232.924 183.43V190.998H140.341C139.675 191.007 139.026 190.785 138.506 190.369C137.986 189.954 137.626 189.37 137.489 188.718L136.492 183.43H232.924Z" fill="#00C0B5"/>
<path d="M252.276 151.086V182.784C252.272 183.802 251.866 184.777 251.146 185.497C250.427 186.217 249.451 186.623 248.434 186.626H152.697C151.679 186.625 150.703 186.219 149.983 185.499C149.263 184.779 148.857 183.803 148.855 182.784V151.086C148.861 150.07 149.268 149.097 149.988 148.38C150.707 147.663 151.681 147.26 152.697 147.258H248.434C249.449 147.261 250.422 147.665 251.142 148.382C251.861 149.099 252.268 150.071 252.276 151.086Z" fill="#0D0D0D"/>
<path d="M232.926 151.097V182.795C232.924 183.386 232.688 183.953 232.27 184.371C231.852 184.789 231.285 185.025 230.694 185.026H134.958C134.367 185.025 133.8 184.789 133.382 184.371C132.964 183.953 132.728 183.386 132.727 182.795V151.097C132.726 150.803 132.783 150.512 132.894 150.24C133.006 149.968 133.17 149.72 133.377 149.512C133.585 149.303 133.831 149.138 134.102 149.025C134.373 148.911 134.664 148.852 134.958 148.852H230.694C230.988 148.852 231.279 148.911 231.55 149.025C231.821 149.138 232.068 149.303 232.275 149.512C232.482 149.72 232.646 149.968 232.758 150.24C232.87 150.512 232.927 150.803 232.926 151.097Z" fill="white"/>
<path d="M230.691 147.258H134.955C133.935 147.261 132.958 147.669 132.238 148.392C131.518 149.115 131.113 150.093 131.113 151.113V182.812C131.117 183.83 131.523 184.805 132.243 185.524C132.962 186.244 133.937 186.65 134.955 186.654H230.691C231.709 186.65 232.684 186.244 233.404 185.524C234.124 184.805 234.53 183.83 234.533 182.812V151.093C234.528 150.076 234.121 149.103 233.402 148.385C232.682 147.666 231.708 147.261 230.691 147.258ZM232.923 182.812C232.921 183.403 232.685 183.97 232.267 184.388C231.849 184.806 231.283 185.041 230.691 185.043H134.955C134.364 185.041 133.797 184.806 133.379 184.388C132.961 183.97 132.726 183.403 132.724 182.812V151.093C132.723 150.799 132.78 150.508 132.892 150.236C133.003 149.964 133.167 149.717 133.375 149.508C133.582 149.3 133.828 149.134 134.099 149.021C134.37 148.908 134.661 148.849 134.955 148.848H230.691C230.985 148.849 231.276 148.908 231.547 149.021C231.819 149.134 232.065 149.3 232.272 149.508C232.479 149.717 232.643 149.964 232.755 150.236C232.867 150.508 232.924 150.799 232.923 151.093V182.812Z" fill="#0D0D0D"/>
<path d="M149.24 173.982C147.845 173.983 146.481 173.57 145.321 172.796C144.16 172.022 143.256 170.921 142.722 169.633C142.187 168.345 142.047 166.927 142.319 165.559C142.59 164.191 143.262 162.934 144.248 161.948C145.235 160.961 146.491 160.29 147.859 160.018C149.227 159.746 150.645 159.886 151.934 160.421C153.222 160.955 154.323 161.86 155.097 163.02C155.871 164.18 156.284 165.544 156.282 166.939C156.28 168.806 155.538 170.596 154.218 171.917C152.897 173.237 151.107 173.98 149.24 173.982ZM149.24 161.5C148.16 161.5 147.105 161.82 146.207 162.42C145.309 163.02 144.609 163.873 144.196 164.87C143.783 165.868 143.675 166.966 143.885 168.025C144.096 169.084 144.616 170.056 145.379 170.82C146.143 171.583 147.116 172.103 148.175 172.314C149.234 172.525 150.331 172.416 151.329 172.003C152.327 171.59 153.179 170.89 153.779 169.993C154.379 169.095 154.699 168.039 154.699 166.959C154.699 165.512 154.124 164.123 153.1 163.099C152.076 162.075 150.688 161.5 149.24 161.5Z" fill="#0D0D0D"/>
<path d="M205.306 163.836H166.654C165.199 163.836 164.02 165.015 164.02 166.47V167.405C164.02 168.86 165.199 170.039 166.654 170.039H205.306C206.76 170.039 207.94 168.86 207.94 167.405V166.47C207.94 165.015 206.76 163.836 205.306 163.836Z" fill="#00C0B5"/>
<path d="M219.542 170.038C221.257 170.038 222.647 168.648 222.647 166.933C222.647 165.218 221.257 163.828 219.542 163.828C217.828 163.828 216.438 165.218 216.438 166.933C216.438 168.648 217.828 170.038 219.542 170.038Z" fill="#0D0D0D"/>
<path d="M252.276 62.3752V94.0734C252.272 95.0913 251.866 96.0664 251.146 96.7862C250.427 97.5059 249.451 97.9119 248.434 97.9155H152.697C151.679 97.9136 150.703 97.5083 149.983 96.7882C149.263 96.068 148.857 95.0919 148.855 94.0734V62.3752C148.861 61.3592 149.268 60.3865 149.988 59.6693C150.707 58.9521 151.681 58.5487 152.697 58.5469H248.434C249.449 58.5504 250.422 58.9545 251.142 59.6713C251.861 60.3881 252.268 61.3597 252.276 62.3752Z" fill="#0D0D0D"/>
<path d="M232.926 62.378V94.0762C232.924 94.6675 232.688 95.234 232.27 95.6521C231.852 96.0702 231.285 96.3059 230.694 96.3077H134.958C134.367 96.3059 133.8 96.0702 133.382 95.6521C132.964 95.234 132.728 94.6675 132.727 94.0762V62.378C132.726 62.084 132.783 61.7928 132.894 61.5209C133.006 61.249 133.17 61.0017 133.377 60.7932C133.585 60.5847 133.831 60.4191 134.102 60.3058C134.373 60.1925 134.664 60.1337 134.958 60.1328H230.694C230.988 60.1337 231.279 60.1925 231.55 60.3058C231.821 60.4191 232.068 60.5847 232.275 60.7932C232.482 61.0017 232.646 61.249 232.758 61.5209C232.87 61.7928 232.927 62.084 232.926 62.378Z" fill="white"/>
<path d="M230.691 58.5469H134.955C133.935 58.5505 132.958 58.9583 132.238 59.681C131.518 60.4037 131.113 61.3823 131.113 62.4025V94.1007C131.117 95.1186 131.523 96.0937 132.243 96.8135C132.962 97.5332 133.937 97.9392 134.955 97.9427H230.691C231.709 97.9392 232.684 97.5332 233.404 96.8135C234.124 96.0937 234.53 95.1186 234.533 94.1007V62.3821C234.528 61.3654 234.121 60.392 233.402 59.6737C232.682 58.9555 231.708 58.5505 230.691 58.5469ZM232.923 94.1007C232.921 94.692 232.685 95.2586 232.267 95.6767C231.849 96.0948 231.283 96.3304 230.691 96.3322H134.955C134.364 96.3304 133.797 96.0948 133.379 95.6767C132.961 95.2586 132.726 94.692 132.724 94.1007V62.3821C132.723 62.0881 132.78 61.7969 132.892 61.525C133.003 61.2531 133.167 61.0058 133.375 60.7973C133.582 60.5888 133.828 60.4232 134.099 60.3099C134.37 60.1966 134.661 60.1378 134.955 60.1369H230.691C230.985 60.1378 231.276 60.1966 231.547 60.3099C231.819 60.4232 232.065 60.5888 232.272 60.7973C232.479 61.0058 232.643 61.2531 232.755 61.525C232.867 61.7969 232.924 62.0881 232.923 62.3821V94.1007Z" fill="#0D0D0D"/>
<path d="M149.24 85.2706C147.845 85.2719 146.481 84.8595 145.321 84.0854C144.16 83.3113 143.256 82.2104 142.722 80.9221C142.187 79.6337 142.047 78.2157 142.319 76.8476C142.59 75.4796 143.262 74.2229 144.248 73.2366C145.235 72.2503 146.491 71.5788 147.859 71.307C149.227 71.0352 150.645 71.1754 151.934 71.7098C153.222 72.2442 154.323 73.1488 155.097 74.3091C155.871 75.4694 156.284 76.8332 156.282 78.2281C156.28 80.0953 155.538 81.8855 154.218 83.2059C152.897 84.5262 151.107 85.2688 149.24 85.2706ZM149.24 72.7892C148.16 72.7892 147.105 73.1094 146.207 73.7093C145.309 74.3091 144.609 75.1618 144.196 76.1593C143.783 77.1569 143.675 78.2546 143.885 79.3136C144.096 80.3726 144.616 81.3454 145.379 82.1089C146.143 82.8724 147.116 83.3923 148.175 83.603C149.234 83.8136 150.331 83.7055 151.329 83.2923C152.327 82.8791 153.179 82.1793 153.779 81.2816C154.379 80.3838 154.699 79.3283 154.699 78.2485C154.699 76.8006 154.124 75.412 153.1 74.3882C152.076 73.3644 150.688 72.7892 149.24 72.7892Z" fill="#0D0D0D"/>
<path d="M205.306 75.125H166.654C165.199 75.125 164.02 76.3043 164.02 77.7591V78.694C164.02 80.1488 165.199 81.3282 166.654 81.3282H205.306C206.76 81.3282 207.94 80.1488 207.94 78.694V77.7591C207.94 76.3043 206.76 75.125 205.306 75.125Z" fill="#00C0B5"/>
<path d="M219.542 81.3272C221.257 81.3272 222.647 79.937 222.647 78.2222C222.647 76.5073 221.257 75.1172 219.542 75.1172C217.828 75.1172 216.438 76.5073 216.438 78.2222C216.438 79.937 217.828 81.3272 219.542 81.3272Z" fill="#0D0D0D"/>
</g>
<defs>
<clipPath id="clip0_34264_9544">
<rect width="288" height="211.44" fill="white" transform="translate(19 47)"/>
</clipPath>
</defs>
</svg>
