<svg width="216" height="215" viewBox="0 0 216 215" fill="none" xmlns="http://www.w3.org/2000/svg">
<path d="M190.012 184.58C184.39 190.375 179.359 193.782 175.507 196.353C137.943 221.435 95.0032 214.206 81.7273 211.735C60.3081 207.749 42.2274 204.936 26.6929 190.901C-8.60635 159.01 -6.88943 92.4819 20.0835 51.2708C23.2816 46.3843 50.2137 6.46264 93.2466 0.837301C94.2991 0.699708 95.0844 0.621372 95.7722 0.54852C102.429 -0.156346 143.682 -3.87625 177.319 24.3052C182.134 28.3392 189.883 35.6155 197.069 46.7132C223.343 87.2912 223.426 150.138 190.012 184.58Z" fill="#F4F7FA"/>
<path d="M44.2726 94.5578C44.3329 94.6041 44.3934 94.6501 44.4541 94.6961C48.0447 97.4144 52.4489 99.7508 57.8868 101.316C58.9683 101.546 60.0498 101.776 61.1314 102.006C62.6622 99.6829 63.7024 97.1992 60.6832 95.3989C55.9945 92.6031 58.121 83.6529 60.3069 80.8482C63.0125 77.3767 69.1463 69.1642 61.9658 64.728C55.9881 61.0349 51.3758 59.8734 53.0303 51.3949C54.6847 42.9164 51.4354 36.547 43.7248 35.1315C35.6106 33.6419 31.7447 21.3658 24.309 23.2705C11.3525 26.5895 17.0275 47.6245 29.5387 56.459C42.05 65.2936 32.8414 68.2823 30.7414 75.0327C27.8745 84.2483 41.0107 85.4377 43.4217 89.9503C44.2384 91.4788 44.4229 93.065 44.2726 94.5578Z" fill="url(#paint0_linear_34264_8316)"/>
<mask id="mask0_34264_8316" style="mask-type:luminance" maskUnits="userSpaceOnUse" x="16" y="23" width="50" height="81">
<path d="M42.6059 99.6144L60.0329 103.864C61.6497 101.645 64.0558 97.4099 60.6833 95.3989C55.9946 92.603 58.1211 83.6529 60.307 80.8481C63.0125 77.3767 69.1464 69.1642 61.9659 64.728C55.9881 61.0348 51.3759 59.8734 53.0303 51.3949C54.6848 42.9163 51.4355 36.5469 43.7249 35.1314C35.6107 33.6418 31.7448 21.3658 24.309 23.2705C11.3525 26.5894 17.0275 47.6244 29.5387 56.459C42.05 65.2935 32.8414 68.2823 30.7414 75.0327C27.8745 84.2484 41.0107 85.4377 43.4217 89.9502C45.312 93.4878 43.8251 97.3365 42.6059 99.6144Z" fill="white"/>
</mask>
<g mask="url(#mask0_34264_8316)">
<g opacity="0.5">
<path d="M51.4788 98.8752L51.8672 98.8927C53.1401 70.5036 40.6288 41.6357 19.2155 23.5547L18.9648 23.8517C40.2877 41.8565 52.7464 70.6039 51.4788 98.8752Z" fill="#FCFDFE"/>
<path d="M50.8477 83.338L51.2249 83.4319C53.9184 72.5935 65.2967 66.4511 65.4113 66.3903L65.2292 66.0469C65.1131 66.1082 53.5838 72.3288 50.8477 83.338Z" fill="#FCFDFE"/>
<path d="M51.5693 93.6523L51.9458 93.5557C49.1317 82.5885 29.5066 76.258 29.3087 76.1953L29.1914 76.5659C29.3871 76.6278 48.8087 82.8935 51.5693 93.6523Z" fill="#FCFDFE"/>
<path d="M43.2834 56.5347L43.6669 56.4707C42.1853 47.6117 50.4629 36.6034 50.5467 36.4933L50.2375 36.2578C50.1526 36.3693 41.7743 47.512 43.2834 56.5347Z" fill="#FCFDFE"/>
<path d="M34.4144 40.8067L34.6919 40.5345C27.5224 33.2306 13.7021 32.8466 13.5632 32.8438L13.5547 33.2324C13.6919 33.235 27.3567 33.6165 34.4144 40.8067Z" fill="#FCFDFE"/>
</g>
</g>
<mask id="mask1_34264_8316" style="mask-type:luminance" maskUnits="userSpaceOnUse" x="30" y="3" width="56" height="118">
<path d="M70.8822 120.908L51.6599 119.483C51.6599 119.483 48.7723 109.354 53.9987 102.744C64.6623 89.2582 52.1067 80.86 47.3741 76.5558C40.237 70.0646 36.7784 61.2318 48.1939 58.3442C59.6093 55.4565 49.6941 37.3618 36.6569 28.5399C23.899 19.907 31.8833 -7.75294 61.2116 8.39641C78.7265 18.0408 74.4621 37.0526 74.591 47.1653C74.72 57.2781 89.6024 59.2171 83.5781 71.1127C78.4322 81.2738 69.565 88.3038 75.3654 95.9816C81.1657 103.66 81.2219 111.79 70.8822 120.908Z" fill="white"/>
</mask>
<g mask="url(#mask1_34264_8316)">
<path d="M70.8822 120.908L51.6599 119.483C51.6599 119.483 48.7723 109.354 53.9987 102.744C64.6623 89.2582 52.1067 80.86 47.3741 76.5558C40.237 70.0646 37.4661 62.1559 46.9458 57.8615C57.6715 53.0025 49.6941 37.3618 36.6569 28.5399C23.899 19.907 31.8833 -7.75294 61.2116 8.39641C78.7265 18.0408 74.4621 37.0526 74.591 47.1653C74.72 57.2781 89.6024 59.2171 83.5781 71.1127C78.4322 81.2738 69.565 88.3038 75.3654 95.9816C81.1657 103.66 81.2219 111.79 70.8822 120.908Z" fill="url(#paint1_linear_34264_8316)"/>
</g>
<mask id="mask2_34264_8316" style="mask-type:luminance" maskUnits="userSpaceOnUse" x="30" y="3" width="56" height="118">
<path d="M70.8822 120.908L51.6599 119.483C51.6599 119.483 48.7723 109.354 53.9987 102.744C64.6623 89.2582 52.1067 80.86 47.3741 76.5558C40.237 70.0646 36.7784 61.2318 48.1939 58.3442C59.6093 55.4565 49.6941 37.3618 36.6569 28.5399C23.899 19.907 31.8833 -7.75294 61.2116 8.39641C78.7265 18.0408 74.4621 37.0526 74.591 47.1653C74.72 57.2781 89.6024 59.2171 83.5781 71.1127C78.4322 81.2738 69.565 88.3038 75.3654 95.9816C81.1657 103.66 81.2219 111.79 70.8822 120.908Z" fill="white"/>
</mask>
<g mask="url(#mask2_34264_8316)">
<g opacity="0.5">
<path d="M62.4336 122.065L62.0398 121.962C62.1035 121.718 68.3871 97.28 67.3113 71.1751C66.3205 47.1256 58.6984 16.6992 28.0156 8.32226L28.1227 7.92969C41.7814 11.6586 52.0842 19.9908 58.7453 32.6948C64.0664 42.843 67.0853 55.7868 67.7183 71.1666C68.7949 97.331 62.4972 121.82 62.4336 122.065Z" fill="#BEB8F2"/>
<path d="M61.3016 38.1266L60.9025 38.0465C63.5646 24.7673 59.8696 5.35015 59.832 5.15555L60.2315 5.07812C60.2692 5.27362 63.9791 24.7695 61.3016 38.1266Z" fill="#BEB8F2"/>
<path d="M56.6297 29.7789C43.6001 20.2554 30.5344 23.3931 30.4041 23.4259L30.3047 23.0314C30.437 22.9979 43.6804 19.8101 56.8698 29.4502L56.6297 29.7789Z" fill="#BEB8F2"/>
<path d="M67.0834 88.2876C63.9643 68.8189 38.2907 62.1979 38.0352 62.1544L38.0771 61.75C38.332 61.769 64.3384 68.5817 67.4852 88.2232L67.0834 88.2876Z" fill="#BEB8F2"/>
<path d="M67.8093 80.1836L67.418 80.0714C70.8835 67.9764 84.8353 60.5115 84.9759 60.4375L85.1654 60.7975C85.0263 60.8708 71.2261 68.2573 67.8093 80.1836Z" fill="#BEB8F2"/>
<path d="M62.9441 118.098C62.9109 110.608 52.7162 103.924 52.6133 103.857L52.8343 103.516C53.2623 103.792 63.317 110.386 63.3511 118.097L62.9441 118.098Z" fill="#BEB8F2"/>
<path d="M64.5083 112.328L64.1133 112.23C65.5388 106.481 74.8196 100.648 77.8693 98.7313C78.3003 98.4604 78.6723 98.2266 78.7304 98.1719L79.0136 98.464C78.9328 98.5424 78.6859 98.6986 78.0859 99.0758C75.0705 100.971 65.8943 106.739 64.5083 112.328Z" fill="#BEB8F2"/>
</g>
</g>
<path d="M93.6661 47.3177L13.3883 44.0656C11.5278 43.9902 10.0156 45.2943 10.0156 46.9787V182.2C10.0156 183.884 11.5278 185.15 13.3883 185.028L93.6661 179.756C95.304 179.648 96.6286 178.285 96.6286 176.71V50.2889C96.6287 48.7142 95.304 47.384 93.6661 47.3177Z" fill="url(#paint2_linear_34264_8316)"/>
<path d="M92.6358 49.4893L13.3883 44.0656C11.5278 43.9902 10.0156 45.2943 10.0156 46.9787V182.2C10.0156 183.884 11.5278 185.15 13.3883 185.028L93.6661 179.756C95.304 179.648 96.6286 178.285 96.6286 176.71V50.2889C96.6286 48.7142 94.2737 49.5557 92.6358 49.4893Z" fill="url(#paint3_linear_34264_8316)"/>
<path d="M95.2989 47.3177L15.0211 44.0656C13.1606 43.9902 11.6484 45.2943 11.6484 46.9787V182.2C11.6484 183.884 13.1606 185.15 15.0211 185.028L95.2989 179.756C96.9368 179.648 98.2615 178.285 98.2615 176.71V50.2889C98.2615 48.7142 96.9368 47.384 95.2989 47.3177Z" fill="#D8DEE8"/>
<g opacity="0.3">
<path d="M62.6192 146.031C61.257 130.706 71.462 124.338 67.5745 110.474C62.7622 93.3109 44.1819 92.5457 37.8281 75.629C35.39 69.138 34.4262 59.3342 41.4023 45.1343L15.0211 44.0656C13.1606 43.9902 11.6484 45.2943 11.6484 46.9787V182.2C11.6484 183.884 13.1606 185.15 15.0211 185.028L86.7045 180.32C68.6277 167.603 63.4562 155.447 62.6192 146.031Z" fill="#D8DEE8"/>
</g>
<path d="M95.298 49.0042L15.0202 45.8606C14.2578 45.8307 13.6367 46.3676 13.6367 47.0574V182.076C13.6367 182.766 14.2577 183.287 15.0202 183.238L95.298 178.074C95.9703 178.031 96.5168 177.47 96.5168 176.823V50.2249C96.5168 49.5781 95.9703 49.0305 95.298 49.0042Z" fill="url(#paint4_linear_34264_8316)"/>
<path d="M56.4136 108.212C41.3648 108.334 28.8594 96.8981 28.8594 82.718C28.8594 68.5378 41.3648 57.39 56.4136 57.858C71.1183 58.3151 82.8357 69.7418 82.8357 83.3395C82.8357 96.9371 71.1184 108.094 56.4136 108.212Z" fill="#D8DEE8"/>
<path d="M81.0478 83.3226C81.0478 96.0207 70.1361 106.388 56.413 106.48C42.3906 106.574 30.7969 95.948 30.7969 82.7441C30.7969 69.5401 42.3906 59.181 56.413 59.5981C70.1361 60.0061 81.0478 70.6244 81.0478 83.3226Z" fill="white"/>
<path opacity="0.74" d="M86.3967 117.149L24.9674 118.093C23.2397 118.119 21.8359 119.418 21.8359 120.994C21.8359 122.569 23.2397 123.819 24.9674 123.785L86.3967 122.576C87.963 122.545 89.2298 121.308 89.2298 119.813C89.2298 118.317 87.963 117.125 86.3967 117.149Z" fill="url(#paint5_linear_34264_8316)"/>
<path d="M86.3923 127.837L36.1255 129.037C34.427 129.077 33.0469 130.377 33.0469 131.939C33.0469 133.501 34.427 134.729 36.1255 134.681L86.3923 133.264C87.9586 133.22 89.2254 131.972 89.2254 130.477C89.2255 128.981 87.9586 127.799 86.3923 127.837Z" fill="#D8DEE8"/>
<path d="M24.996 134.998L24.9388 134.999C23.2269 135.048 21.8359 133.866 21.8359 132.359V132.109C21.8359 130.602 23.2269 129.348 24.9388 129.307L24.996 129.306C26.7032 129.265 28.084 130.447 28.084 131.947V132.196C28.084 133.695 26.7033 134.95 24.996 134.998Z" fill="#00C0B5"/>
<path d="M24.9664 135.526C22.9176 135.585 21.2461 134.112 21.2461 132.243C21.2461 130.375 22.9176 128.815 24.9664 128.767C27.0088 128.719 28.6658 130.192 28.6658 132.05C28.6658 133.909 27.0088 135.468 24.9664 135.526ZM24.9664 129.834C23.5652 129.868 22.4232 130.935 22.4232 132.213C22.4232 133.49 23.5653 134.498 24.9664 134.459C26.3645 134.42 27.4998 133.353 27.4998 132.081C27.4998 130.808 26.3645 129.8 24.9664 129.834Z" fill="#D8DEE8"/>
<path d="M86.3923 137.502L36.1255 139.088C34.427 139.142 33.0469 140.452 33.0469 142.014C33.0469 143.576 34.427 144.793 36.1255 144.732L86.3923 142.928C87.9586 142.872 89.2254 141.614 89.2254 140.119C89.2255 138.624 87.9586 137.452 86.3923 137.502Z" fill="#D8DEE8"/>
<path d="M24.996 145.131L24.9388 145.134C23.2269 145.195 21.8359 144.024 21.8359 142.517V142.267C21.8359 140.76 23.2269 139.495 24.9388 139.441L24.996 139.439C26.7033 139.385 28.084 140.557 28.084 142.057V142.306C28.084 143.805 26.7032 145.07 24.996 145.131Z" fill="#00C0B5"/>
<path d="M24.9664 145.66C22.9176 145.734 21.2461 144.275 21.2461 142.406C21.2461 140.537 22.9176 138.964 24.9664 138.9C27.0088 138.837 28.6658 140.297 28.6658 142.155C28.6658 144.014 27.0088 145.586 24.9664 145.66ZM24.9664 139.968C23.5652 140.013 22.4232 141.088 22.4232 142.366C22.4232 143.644 23.5653 144.642 24.9664 144.593C26.3645 144.543 27.4998 143.467 27.4998 142.195C27.4998 140.922 26.3645 139.923 24.9664 139.968Z" fill="#D8DEE8"/>
<path d="M86.3923 147.166L36.1255 149.14C34.427 149.207 33.0469 150.527 33.0469 152.09C33.0469 153.652 34.427 154.858 36.1255 154.784L86.3923 152.593C87.9586 152.525 89.2254 151.258 89.2254 149.762C89.2255 148.267 87.9586 147.105 86.3923 147.166Z" fill="#D8DEE8"/>
<path d="M24.9664 155.802C22.9176 155.892 21.2461 154.445 21.2461 152.576C21.2461 150.707 22.9176 149.122 24.9664 149.042C27.0088 148.963 28.6658 150.41 28.6658 152.269C28.6658 154.127 27.0088 155.712 24.9664 155.802ZM24.9664 150.109C23.5652 150.165 22.4232 151.25 22.4232 152.527C22.4232 153.805 23.5653 154.795 24.9664 154.734C26.3645 154.674 27.4998 153.59 27.4998 152.317C27.4998 151.044 26.3645 150.054 24.9664 150.109Z" fill="#D8DEE8"/>
<path d="M86.3923 156.831L36.1255 159.192C34.427 159.272 33.0469 160.603 33.0469 162.165C33.0469 163.727 34.427 164.923 36.1255 164.836L86.3923 162.258C87.9586 162.178 89.2254 160.901 89.2254 159.406C89.2255 157.911 87.9586 156.758 86.3923 156.831Z" fill="#D8DEE8"/>
<path d="M24.996 165.415L24.9388 165.418C23.2269 165.506 21.8359 164.356 21.8359 162.849V162.599C21.8359 161.092 23.2269 159.806 24.9388 159.725L24.996 159.723C26.7033 159.643 28.084 160.793 28.084 162.293V162.542C28.084 164.041 26.7033 165.327 24.996 165.415Z" fill="#00C0B5"/>
<path d="M24.9664 165.944C22.9176 166.05 21.2461 164.615 21.2461 162.747C21.2461 160.878 22.9176 159.28 24.9664 159.184C27.0088 159.089 28.6658 160.524 28.6658 162.382C28.6658 164.241 27.0088 165.838 24.9664 165.944ZM24.9664 160.251C23.5652 160.318 22.4232 161.411 22.4232 162.689C22.4232 163.966 23.5653 164.948 24.9664 164.876C26.3645 164.805 27.4998 163.712 27.4998 162.439C27.4998 161.167 26.3645 160.185 24.9664 160.251Z" fill="#D8DEE8"/>
<mask id="mask3_34264_8316" style="mask-type:luminance" maskUnits="userSpaceOnUse" x="32" y="61" width="48" height="44">
<path d="M79.2526 83.2903C79.2526 95.0646 69.1268 104.664 56.4102 104.732C43.4371 104.801 32.7266 94.9625 32.7266 82.7547C32.7266 70.5469 43.4371 60.9544 56.4102 61.3228C69.1268 61.6837 79.2526 71.5161 79.2526 83.2903Z" fill="white"/>
</mask>
<g mask="url(#mask3_34264_8316)">
<path d="M53.3846 66.7395C48.9335 66.6114 44.708 68.9072 42.8315 72.0999C40.5699 75.9476 43.5895 77.8693 42.1151 84.1212C40.7569 89.8799 37.5843 90.8641 38.1087 94.6447C38.6831 98.7855 43.0167 101.412 44.7287 102.449C52.4257 107.114 64.4407 106.919 70.5367 100.898C71.0457 100.395 75.2507 96.2419 74.1156 92.4212C73.0999 89.0022 68.7444 88.9782 67.8421 85.425C67.0648 82.3638 70.0412 81.3751 69.7581 76.9384C69.7026 76.0704 69.4404 71.9613 66.1275 70.0621C63.9207 68.797 61.4954 69.1594 60.6065 69.3362C59.5391 68.5436 56.9394 66.8417 53.3846 66.7395Z" fill="#00C0B5"/>
<path d="M30.7891 98.8643C30.7891 98.8643 53.2986 86.6628 81.04 98.8248C81.04 98.8248 77.5117 109.246 56.4052 109.957C34.5824 110.692 30.7891 98.8643 30.7891 98.8643Z" fill="url(#paint6_linear_34264_8316)"/>
<path d="M52.4208 82.9844L51.5783 88.8096C51.2908 90.7975 49.8166 92.4593 47.7653 93.1028L40.9062 95.2549C40.9062 95.2549 54.029 101.126 70.5733 95.2577L63.0351 92.8119C60.894 92.0617 59.4345 90.1759 59.3413 88.0333L59.1249 83.0615L52.4208 82.9844Z" fill="url(#paint7_linear_34264_8316)"/>
<path d="M62.6349 77.9613C62.6349 82.876 59.4512 88.1322 55.502 88.1023C51.5284 88.0722 48.2891 82.7083 48.2891 77.7385C48.2891 72.7686 51.5284 70.1199 55.502 70.2051C59.4512 70.2899 62.6349 73.0465 62.6349 77.9613Z" fill="url(#paint8_linear_34264_8316)"/>
<path d="M58.6624 73.4539C56.5179 73.5168 53.2682 73.9375 51.0161 76.0985C47.2337 79.728 49.0302 85.5861 47.3474 85.9163C45.8481 86.2105 43.5254 82.028 43.5629 77.4637C43.5943 73.6411 45.0025 69.1628 48.6668 68.111C50.8181 67.4934 51.4515 68.5885 58.3843 69.3745C62.4211 69.8321 60.8378 71.4837 61.7456 72.1292C65.7751 74.994 65.2652 84.1538 63.0964 84.2476C62.0678 84.2922 60.6462 81.8802 58.6624 73.4539Z" fill="#00C0B5"/>
</g>
<path opacity="0.35" d="M62.6183 146.034C61.2561 130.709 71.4611 124.341 67.5736 110.476C62.7613 93.3135 44.181 92.5484 37.8272 75.6317C35.4898 69.4086 34.5073 60.1396 40.5829 46.8616L15.0202 45.8606C14.2578 45.8307 13.6367 46.3676 13.6367 47.0574V182.076C13.6367 182.766 14.2577 183.287 15.0202 183.238L84.551 178.766C68.2079 166.607 63.4207 155.06 62.6183 146.034Z" fill="white"/>
<path d="M202.378 50.6404L132.632 47.815C131.023 47.7498 129.715 48.9666 129.715 50.5329V176.283C129.715 177.85 131.023 179.033 132.632 178.928L202.378 174.347C203.807 174.254 204.963 172.985 204.963 171.514V53.4088C204.963 51.9377 203.807 50.6983 202.378 50.6404Z" fill="url(#paint9_linear_34264_8316)"/>
<path d="M201.633 54.998L132.632 47.815C131.023 47.7498 129.715 48.9666 129.715 50.5329V176.283C129.715 177.85 131.023 179.033 132.632 178.928L202.378 174.347C203.807 174.254 204.963 172.985 204.963 171.514V53.4088C204.963 51.9377 203.062 55.0559 201.633 54.998Z" fill="url(#paint10_linear_34264_8316)"/>
<path d="M204.011 50.6326L134.265 47.8072C132.656 47.742 131.348 48.9588 131.348 50.5251V176.276C131.348 177.842 132.656 179.026 134.265 178.92L204.011 174.34C205.44 174.246 206.596 172.977 206.596 171.506V53.401C206.596 51.9299 205.44 50.6905 204.011 50.6326Z" fill="#D8DEE8"/>
<g opacity="0.3">
<path d="M175.547 142.761C174.363 128.468 183.24 122.545 179.857 109.608C175.672 93.6009 159.532 92.8923 154.02 77.1404C151.906 71.099 151.07 61.9723 157.12 48.733L134.265 47.8072C132.656 47.742 131.348 48.9588 131.348 50.5251V176.276C131.348 177.842 132.656 179.026 134.265 178.92L196.516 174.832C180.773 162.896 176.275 151.543 175.547 142.761Z" fill="#D8DEE8"/>
</g>
<path d="M204.013 52.2087L134.267 49.4775C133.607 49.4517 133.07 49.9526 133.07 50.5941V176.17C133.07 176.811 133.607 177.299 134.267 177.256L204.013 172.77C204.6 172.732 205.077 172.21 205.077 171.606V53.3461C205.077 52.7419 204.6 52.2317 204.013 52.2087Z" fill="url(#paint11_linear_34264_8316)"/>
<path opacity="0.35" d="M175.549 142.764C174.365 128.472 183.242 122.548 179.859 109.611C175.674 93.6042 159.534 92.8956 154.022 77.1437C151.995 71.3517 151.143 62.7228 156.412 50.3447L134.267 49.4775C133.607 49.4517 133.07 49.9526 133.07 50.5941V176.17C133.07 176.811 133.607 177.299 134.267 177.256L194.642 173.373C180.411 161.967 176.247 151.183 175.549 142.764Z" fill="white"/>
<path d="M170.154 107.497C157.088 107.602 146.246 96.9513 146.246 83.7523C146.246 70.5533 157.088 60.1521 170.154 60.5584C182.941 60.9559 193.145 71.5995 193.145 84.2923C193.145 96.985 182.941 107.394 170.154 107.497Z" fill="#D8DEE8"/>
<path d="M191.588 84.2714C191.588 96.1234 182.087 105.795 170.154 105.875C157.979 105.957 147.926 96.0603 147.926 83.7687C147.926 71.4772 157.979 61.8119 170.154 62.1739C182.087 62.5289 191.588 72.4194 191.588 84.2714Z" fill="white"/>
<path opacity="0.74" d="M196.249 115.852L142.876 116.672C141.379 116.695 140.164 117.902 140.164 119.368C140.164 120.834 141.379 121.999 142.876 121.969L196.249 120.919C197.614 120.892 198.719 119.738 198.719 118.342C198.719 116.946 197.614 115.831 196.249 115.852Z" fill="url(#paint12_linear_34264_8316)"/>
<path d="M196.248 125.829L152.548 126.872C151.075 126.907 149.879 128.115 149.879 129.569C149.879 131.024 151.075 132.169 152.548 132.128L196.248 130.896C197.614 130.857 198.718 129.694 198.718 128.298C198.718 126.902 197.614 125.796 196.248 125.829Z" fill="#D8DEE8"/>
<path d="M142.896 132.392L142.847 132.393C141.364 132.435 140.16 131.333 140.16 129.931V129.698C140.16 128.296 141.365 127.131 142.847 127.096L142.896 127.095C144.375 127.059 145.571 128.162 145.571 129.558V129.789C145.571 131.185 144.375 132.35 142.896 132.392Z" fill="#00C0B5"/>
<path d="M142.874 132.893C141.099 132.944 139.652 131.57 139.652 129.832C139.652 128.093 141.1 126.644 142.874 126.602C144.643 126.561 146.078 127.935 146.078 129.664C146.078 131.394 144.643 132.842 142.874 132.893ZM142.874 127.596C141.66 127.625 140.671 128.616 140.671 129.805C140.671 130.994 141.66 131.933 142.874 131.9C144.085 131.866 145.068 130.875 145.068 129.691C145.068 128.506 144.085 127.566 142.874 127.596Z" fill="#D8DEE8"/>
<path d="M196.248 134.853L152.548 136.232C151.075 136.279 149.879 137.496 149.879 138.95C149.879 140.404 151.075 141.541 152.548 141.488L196.248 139.919C197.614 139.871 198.718 138.699 198.718 137.303C198.718 135.907 197.614 134.81 196.248 134.853Z" fill="#D8DEE8"/>
<path d="M142.896 141.822L142.847 141.824C141.364 141.877 140.16 140.784 140.16 139.382V139.149C140.16 137.748 141.365 136.573 142.847 136.526L142.896 136.525C144.375 136.478 145.571 137.572 145.571 138.967V139.199C145.571 140.595 144.375 141.769 142.896 141.822Z" fill="#00C0B5"/>
<path d="M142.874 142.323C141.099 142.388 139.652 141.026 139.652 139.287C139.652 137.548 141.1 136.088 142.874 136.033C144.643 135.978 146.078 137.34 146.078 139.07C146.078 140.8 144.643 142.259 142.874 142.323ZM142.874 137.026C141.66 137.065 140.671 138.064 140.671 139.252C140.671 140.441 141.66 141.373 142.874 141.33C144.085 141.287 145.068 140.288 145.068 139.104C145.068 137.919 144.085 136.987 142.874 137.026Z" fill="#D8DEE8"/>
<path d="M196.248 143.877L152.548 145.593C151.075 145.651 149.879 146.877 149.879 148.331C149.879 149.785 151.075 150.912 152.548 150.848L196.248 148.944C197.614 148.884 198.718 147.704 198.718 146.308C198.718 144.912 197.614 143.823 196.248 143.877Z" fill="#D8DEE8"/>
<path d="M142.896 151.268L142.847 151.27C141.364 151.335 140.16 150.251 140.16 148.849V148.617C140.16 147.215 141.365 146.031 142.847 145.973L142.896 145.971C144.375 145.913 145.571 146.997 145.571 148.393V148.625C145.571 150.02 144.375 151.204 142.896 151.268Z" fill="#00C0B5"/>
<path d="M142.874 151.77C141.099 151.848 139.652 150.497 139.652 148.758C139.652 147.019 141.1 145.548 142.874 145.479C144.643 145.41 146.078 146.762 146.078 148.492C146.078 150.221 144.643 151.692 142.874 151.77ZM142.874 146.472C141.66 146.52 140.671 147.527 140.671 148.716C140.671 149.904 141.66 150.829 142.874 150.776C144.085 150.724 145.068 149.718 145.068 148.533C145.068 147.349 144.085 146.424 142.874 146.472Z" fill="#D8DEE8"/>
<path d="M196.248 152.909L152.548 154.961C151.075 155.03 149.879 156.265 149.879 157.72C149.879 159.174 151.075 160.292 152.548 160.217L196.248 157.976C197.614 157.906 198.718 156.717 198.718 155.321C198.718 153.925 197.614 152.845 196.248 152.909Z" fill="#D8DEE8"/>
<path d="M142.896 160.699L142.847 160.701C141.364 160.777 140.16 159.703 140.16 158.301V158.068C140.16 156.666 141.365 155.474 142.847 155.404L142.896 155.402C144.375 155.332 145.571 156.407 145.571 157.803V158.035C145.571 159.43 144.375 160.623 142.896 160.699Z" fill="#00C0B5"/>
<path d="M142.874 161.2C141.099 161.292 139.652 159.952 139.652 158.213C139.652 156.474 141.1 154.992 142.874 154.91C144.643 154.827 146.078 156.168 146.078 157.898C146.078 159.627 144.643 161.109 142.874 161.2ZM142.874 155.903C141.66 155.96 140.671 156.974 140.671 158.163C140.671 159.352 141.66 160.269 142.874 160.207C144.085 160.145 145.068 159.132 145.068 157.947C145.068 156.763 144.085 155.846 142.874 155.903Z" fill="#D8DEE8"/>
<mask id="mask4_34264_8316" style="mask-type:luminance" maskUnits="userSpaceOnUse" x="149" y="63" width="42" height="42">
<path d="M190.023 84.2426C190.023 95.2313 181.208 104.187 170.151 104.246C158.886 104.306 149.598 95.1426 149.598 83.7772C149.598 72.4118 158.886 63.4619 170.151 63.7817C181.208 64.0956 190.023 73.2539 190.023 84.2426Z" fill="white"/>
</mask>
<g mask="url(#mask4_34264_8316)">
<path d="M147.926 98.8305C147.926 98.8305 167.455 87.4588 191.588 98.7942C191.588 98.7942 188.514 108.519 170.154 109.171C151.214 109.844 147.926 98.8305 147.926 98.8305Z" fill="url(#paint13_linear_34264_8316)"/>
<path d="M166.694 83.9688L165.962 89.3981C165.75 92.8555 162.32 94.1447 162.32 94.1447C166.347 98.9199 174.041 98.7439 176.731 94.2308C174.872 93.5341 172.788 90.6684 172.707 88.6709L172.519 84.0358L166.694 83.9688Z" fill="url(#paint14_linear_34264_8316)"/>
<path d="M175.57 79.2789C175.57 83.8617 172.802 88.7644 169.37 88.7385C165.918 88.7123 163.105 83.7161 163.105 79.0854C163.105 74.4547 165.918 71.9822 169.37 72.0563C172.802 72.13 175.57 74.696 175.57 79.2789Z" fill="url(#paint15_linear_34264_8316)"/>
<path d="M162.921 80.2509C163.266 80.2017 163.611 80.1525 163.956 80.1033C163.798 79.7219 163.144 78.0333 163.956 76.5783C164.736 75.1822 166.571 74.5295 167.972 74.6492C169.563 74.7851 170.517 75.5345 171.316 74.9832C171.764 74.6734 171.909 74.098 171.961 73.6487C171.996 73.9374 172.076 74.3651 172.283 74.84C172.876 76.204 173.88 76.5039 174.427 77.4079C174.795 78.0165 175.034 79.0287 174.427 80.7948C174.73 80.7812 175.033 80.7676 175.336 80.7541C175.655 79.7621 176.039 78.3545 176.277 76.6285C176.631 74.0658 176.874 72.3018 175.87 71.4187C175.669 71.2428 174.783 70.5429 172.663 71.1358C172.166 70.6089 171.119 69.641 169.507 69.1274C168.95 68.9498 166.183 68.0684 163.73 69.7763C162.061 70.9381 160.753 73.1476 161.173 75.0073C161.396 75.9906 162.004 76.4421 162.539 78.345C162.765 79.1484 162.869 79.823 162.921 80.2509Z" fill="url(#paint16_linear_34264_8316)"/>
<path d="M174.707 80.9567C174.707 80.9567 175.105 78.9549 176.313 79.1728C177.519 79.3903 175.791 82.654 174.707 83.036V80.9567Z" fill="url(#paint17_linear_34264_8316)"/>
<path d="M163.882 80.8078C163.882 80.8078 163.477 78.7751 162.242 78.9568C161.005 79.1389 162.776 82.4925 163.882 82.9059V80.8078Z" fill="url(#paint18_linear_34264_8316)"/>
</g>
<path opacity="0.5" d="M173.727 49.6634L134.265 47.8072C132.656 47.742 131.348 48.9588 131.348 50.5251V176.276C131.348 177.842 132.656 179.026 134.265 178.92L173.69 176.152L173.727 49.6634Z" fill="#D8DEE8"/>
<path d="M166.288 159.456C167.752 162.618 166.357 165.78 165.018 167.908C164.699 167.91 164.514 167.998 164.191 168.077C161.279 168.785 159.914 168.425 156.954 168.639C156.317 168.685 154.424 168.21 153.664 167.962L152.254 167.476C152.254 167.476 149.751 159.787 153.683 157.663C157.615 155.539 156.11 147.887 155.78 143.713C154.886 132.39 167.123 133.419 167.136 118.776C167.14 114.881 165.845 107.453 169.128 104.351C172.869 100.817 175.6 104.284 178.005 101.328C181.765 96.7091 187.866 95.0521 191.502 99.8058C195.091 104.497 190.73 113.837 179.889 121.343C172.721 127.609 172.609 129.485 173.173 134.053C173.568 137.253 176.621 145.589 172.278 148.917C167.934 152.246 164.615 155.843 166.288 159.456Z" fill="url(#paint19_linear_34264_8316)"/>
<mask id="mask5_34264_8316" style="mask-type:luminance" maskUnits="userSpaceOnUse" x="151" y="96" width="42" height="75">
<path d="M163.129 170.495L152.491 167.756C152.491 167.756 149.751 159.787 153.684 157.663C157.616 155.539 156.11 147.887 155.78 143.713C154.886 132.39 167.123 133.419 167.137 118.776C167.14 114.881 165.845 107.453 169.128 104.351C172.869 100.817 175.6 104.284 178.006 101.328C181.765 96.7091 187.866 95.0521 191.502 99.8058C195.091 104.497 190.73 113.837 179.889 121.343C172.721 127.609 172.61 129.485 173.174 134.053C173.569 137.253 176.621 145.589 172.278 148.917C167.934 152.246 164.615 155.842 166.288 159.456C168.835 164.955 163.129 170.495 163.129 170.495Z" fill="white"/>
</mask>
<g mask="url(#mask5_34264_8316)">
<g opacity="0.5">
<path d="M158.497 168.754L158.281 168.727C158.442 167.44 158.62 166.143 158.81 164.874C160.218 155.474 162.452 146.546 165.451 138.338C167.993 131.383 171.117 124.846 174.738 118.908C177.65 114.134 180.897 109.719 184.389 105.787C186.845 103.023 189.395 100.524 191.969 98.3599C192.417 97.9827 192.897 97.6221 193.361 97.2733C193.98 96.8086 194.619 96.3281 195.189 95.8047L195.336 95.9652C194.758 96.4958 194.115 96.9796 193.492 97.4475C193.03 97.7945 192.553 98.1534 192.109 98.5267C189.543 100.684 187.001 103.175 184.552 105.932C181.069 109.854 177.829 114.258 174.924 119.022C171.311 124.947 168.192 131.471 165.656 138.413C162.662 146.607 160.431 155.521 159.025 164.906C158.835 166.174 158.658 167.468 158.497 168.754Z" fill="#FCFDFE"/>
<path d="M170.818 126.424L170.621 126.332C174.591 117.87 171.105 102.237 171.069 102.08L171.282 102.031C171.318 102.189 174.82 117.895 170.818 126.424Z" fill="#FCFDFE"/>
<path d="M161.785 151.076L161.578 151.007C163.603 144.94 174.96 140.258 175.075 140.211L175.157 140.413C175.043 140.459 163.778 145.104 161.785 151.076Z" fill="#FCFDFE"/>
<path d="M160.937 154.611L160.721 154.58C161.322 150.449 159.934 144.493 156.813 137.812C156.656 137.475 156.656 137.475 156.662 137.434L156.878 137.463L156.77 137.449L156.875 137.422C156.883 137.445 156.942 137.572 157.011 137.719C160.149 144.439 161.544 150.438 160.937 154.611Z" fill="#FCFDFE"/>
<path d="M158.822 166.409L158.625 166.317C160.561 162.147 167.18 160.501 167.247 160.484L167.298 160.696C167.232 160.712 160.715 162.334 158.822 166.409Z" fill="#FCFDFE"/>
<path d="M158.167 168.775C157.347 165.159 155.461 161.66 152.402 158.079L152.568 157.938C155.65 161.546 157.551 165.075 158.38 168.727L158.167 168.775Z" fill="#FCFDFE"/>
<path d="M182.531 108.282L182.34 108.179C184.809 103.597 186.342 98.2113 186.846 96.4414C186.967 96.013 187.011 95.8624 187.035 95.8125L187.231 95.9077C187.213 95.946 187.143 96.191 187.055 96.5011C186.55 98.2766 185.012 103.68 182.531 108.282Z" fill="#FCFDFE"/>
<path d="M177.414 115.137L177.262 114.982C180.74 111.558 190.501 111.667 190.915 111.674L190.911 111.891C190.811 111.89 180.828 111.777 177.414 115.137Z" fill="#FCFDFE"/>
</g>
</g>
<mask id="mask6_34264_8316" style="mask-type:luminance" maskUnits="userSpaceOnUse" x="146" y="116" width="56" height="75">
<path d="M149.01 186.844L161.7 190.821C161.7 190.821 166.129 185.06 164.459 179.491C161.052 168.129 171.242 165.938 175.372 164.382C181.601 162.035 186.067 157.25 179.481 152.493C172.894 147.737 183.858 138.655 194.464 136.315C204.842 134.025 206.761 114.254 183.842 117.148C170.155 118.876 168.052 132.154 165.396 138.607C162.74 145.06 152.702 142.516 153.538 151.678C154.253 159.504 158.151 166.269 152.477 169.717C146.804 173.165 144.698 178.365 149.01 186.844Z" fill="white"/>
</mask>
<g mask="url(#mask6_34264_8316)">
<path d="M149.01 186.844L161.7 190.821C161.7 190.821 166.129 185.06 164.459 179.491C161.052 168.129 171.242 165.938 175.372 164.382C181.601 162.035 185.391 157.668 180.404 152.502C174.762 146.656 183.858 138.655 194.464 136.315C204.842 134.025 206.761 114.254 183.842 117.148C170.155 118.876 168.052 132.154 165.396 138.607C162.74 145.06 152.702 142.516 153.538 151.678C154.253 159.504 158.151 166.269 152.477 169.717C146.804 173.165 144.698 178.365 149.01 186.844Z" fill="url(#paint20_linear_34264_8316)"/>
</g>
<mask id="mask7_34264_8316" style="mask-type:luminance" maskUnits="userSpaceOnUse" x="146" y="116" width="56" height="75">
<path d="M149.01 186.844L161.7 190.821C161.7 190.821 166.129 185.06 164.459 179.491C161.052 168.129 171.242 165.938 175.372 164.382C181.601 162.035 186.067 157.25 179.481 152.493C172.894 147.737 183.858 138.655 194.464 136.315C204.842 134.025 206.761 114.254 183.842 117.148C170.155 118.876 168.052 132.154 165.396 138.607C162.74 145.06 152.702 142.516 153.538 151.678C154.253 159.504 158.151 166.269 152.477 169.717C146.804 173.165 144.698 178.365 149.01 186.844Z" fill="white"/>
</mask>
<g mask="url(#mask7_34264_8316)">
<g opacity="0.5">
<path d="M154.141 189.738L154.419 189.772C154.44 189.6 156.629 172.328 163.962 155.86C170.717 140.688 183.348 123.115 205.158 125.55L205.189 125.271C195.48 124.187 186.752 126.909 179.248 133.361C173.253 138.515 168.023 146.048 163.703 155.751C156.355 172.257 154.162 189.565 154.141 189.738Z" fill="#BEB8F2"/>
<path d="M176.227 136.196L176.503 136.246C178.175 127.052 185.485 115.54 185.559 115.425L185.323 115.273C185.249 115.389 177.908 126.948 176.227 136.196Z" fill="#BEB8F2"/>
<path d="M181.348 132.034C192.127 129.241 199.708 134.579 199.784 134.633L199.948 134.405C199.871 134.35 192.189 128.935 181.277 131.762L181.348 132.034Z" fill="#BEB8F2"/>
<path d="M159.753 166.889C166.707 155.197 184.858 157.484 185.032 157.521L185.108 157.251C184.94 157.198 166.528 154.95 159.512 166.746L159.753 166.889Z" fill="#BEB8F2"/>
<path d="M161.346 161.516L161.626 161.544C162.481 152.905 155.433 144.568 155.362 144.484L155.148 144.667C155.219 144.749 162.19 152.998 161.346 161.516Z" fill="#BEB8F2"/>
<path d="M154.823 187.069C156.75 182.274 164.989 180.581 165.072 180.564L165.018 180.289C164.673 180.358 156.547 182.027 154.562 186.964L154.823 187.069Z" fill="#BEB8F2"/>
<path d="M155.287 182.971L155.565 183.009C156.113 178.959 151.646 172.857 150.178 170.851C149.97 170.568 149.791 170.323 149.768 170.273L149.512 170.389C149.544 170.46 149.662 170.623 149.951 171.017C151.402 173 155.82 179.034 155.287 182.971Z" fill="#BEB8F2"/>
</g>
</g>
<path d="M161.033 190.061C160.985 190.084 160.937 190.106 160.89 190.128C158.067 191.427 154.753 192.349 150.857 192.597C150.094 192.592 149.331 192.587 148.568 192.582C147.881 190.789 147.548 188.961 149.849 188.196C153.423 187.007 153.317 180.66 152.26 178.446C150.951 175.706 148.035 169.263 153.531 167.338C158.107 165.735 161.387 165.636 161.529 159.678C161.67 153.719 164.804 149.909 170.21 150.097C175.898 150.296 180.323 142.597 185.051 144.982C193.29 149.139 186.348 162.473 176.608 166.572C166.868 170.671 172.63 174.05 173.045 178.91C173.611 185.545 164.582 184.399 162.289 187.083C161.512 187.992 161.153 189.033 161.033 190.061Z" fill="url(#paint21_linear_34264_8316)"/>
<mask id="mask8_34264_8316" style="mask-type:luminance" maskUnits="userSpaceOnUse" x="148" y="144" width="41" height="50">
<path d="M161.407 193.708L149.033 193.989C148.273 192.254 147.279 189.043 149.85 188.188C153.424 186.999 153.317 180.653 152.26 178.439C150.951 175.698 148.035 169.255 153.531 167.33C158.107 165.727 161.387 165.628 161.529 159.67C161.671 153.711 164.804 149.901 170.21 150.09C175.898 150.288 180.323 142.589 185.051 144.975C193.29 149.132 186.348 162.465 176.608 166.564C166.868 170.663 172.63 174.042 173.045 178.902C173.611 185.537 164.583 184.391 162.289 187.075C160.491 189.178 160.923 191.992 161.407 193.708Z" fill="white"/>
</mask>
<g mask="url(#mask8_34264_8316)">
<g opacity="0.5">
<path d="M155.534 191.903L155.27 191.858C158.619 172.539 171.329 154.94 188.438 145.93L188.563 146.167C171.526 155.139 158.87 172.665 155.534 191.903Z" fill="#FCFDFE"/>
<path d="M158.263 181.525L157.995 181.533C157.786 173.83 151.029 168.005 150.961 167.947L151.135 167.742C151.204 167.801 158.051 173.701 158.263 181.525Z" fill="#FCFDFE"/>
<path d="M156.251 188.37L156.012 188.25C159.533 181.276 173.696 179.919 173.839 179.906L173.863 180.173C173.722 180.186 159.706 181.53 156.251 188.37Z" fill="#FCFDFE"/>
<path d="M167.334 164.585L167.085 164.485C169.397 158.735 165.45 150.09 165.41 150.003L165.653 149.891C165.694 149.978 169.688 158.729 167.334 164.585Z" fill="#FCFDFE"/>
<path d="M175.639 155.308L175.492 155.083C181.406 151.224 190.776 153.013 190.87 153.032L190.818 153.295C190.725 153.277 181.46 151.508 175.639 155.308Z" fill="#FCFDFE"/>
</g>
</g>
<path d="M154.587 34.1369L68.9377 26.7998C66.9484 26.7192 65.332 28.3327 65.332 30.4039V196.684C65.332 198.755 66.9484 200.328 68.9377 200.197L155.472 194.514C157.252 194.397 158.692 192.719 158.692 190.766V33.9719C158.692 32.0189 156.367 34.209 154.587 34.1369Z" fill="url(#paint22_linear_34264_8316)"/>
<path d="M134.871 29.9475C134.871 28.792 135.764 27.8612 136.852 27.8825L137.594 27.8438L141.153 29.2633V30.5608L134.871 29.9475Z" fill="url(#paint23_linear_34264_8316)"/>
<path d="M157.781 30.3052L71.2463 26.7998C69.257 26.7192 67.6406 28.3327 67.6406 30.4039V196.684C67.6406 198.755 69.257 200.328 71.2463 200.197L157.781 194.514C159.561 194.397 161.001 192.719 161.001 190.766V33.9719C161.001 32.0189 159.561 30.3773 157.781 30.3052Z" fill="#D8DEE8"/>
<g opacity="0.3">
<path d="M122.388 152.506C120.918 133.561 131.943 125.725 127.74 108.569C122.543 87.3499 102.521 86.4163 95.6914 65.5645C93.073 57.5704 92.0383 45.4911 99.5324 27.9456L71.2463 26.7998C69.257 26.7192 67.6406 28.3327 67.6406 30.4039V196.684C67.6406 198.755 69.257 200.328 71.2463 200.197L148.451 195.127C128.878 179.218 123.292 164.149 122.388 152.506Z" fill="#D8DEE8"/>
</g>
<path d="M157.783 32.3976L71.2489 29.0089C70.4335 28.977 69.7695 29.6412 69.7695 30.4896V196.553C69.7695 197.402 70.4335 198.049 71.2489 197.997L157.783 192.431C158.514 192.384 159.108 191.693 159.108 190.891V33.9039C159.108 33.1019 158.514 32.4262 157.783 32.3976Z" fill="url(#paint24_linear_34264_8316)"/>
<path d="M115.691 105.762C99.4891 105.893 86.0625 91.791 86.0625 74.3241C86.0625 56.8573 99.4891 43.0643 115.691 43.5681C131.568 44.0617 144.253 58.1554 144.253 74.9941C144.253 91.8329 131.568 105.634 115.691 105.762Z" fill="#D8DEE8"/>
<path d="M142.316 74.9658C142.316 90.6879 130.506 103.512 115.69 103.612C100.592 103.713 88.1406 90.6095 88.1406 74.3421C88.1406 58.0748 100.592 45.2577 115.69 45.7068C130.506 46.1473 142.316 59.2438 142.316 74.9658Z" fill="white"/>
<path opacity="0.74" d="M148.113 116.868L81.8895 117.885C80.0386 117.914 78.5352 119.509 78.5352 121.448C78.5352 123.388 80.0386 124.93 81.8895 124.894L148.113 123.59C149.812 123.557 151.187 122.028 151.187 120.175C151.187 118.322 149.812 116.841 148.113 116.868Z" fill="url(#paint25_linear_34264_8316)"/>
<path d="M148.113 130.102L93.8636 131.397C92.04 131.441 90.5586 133.037 90.5586 134.962C90.5586 136.887 92.04 138.406 93.8636 138.355L148.113 136.825C149.812 136.777 151.187 135.237 151.187 133.384C151.187 131.531 149.812 130.062 148.113 130.102Z" fill="#D8DEE8"/>
<path d="M81.9202 138.689L81.8589 138.691C80.025 138.743 78.5352 137.282 78.5352 135.427V135.119C78.5352 133.265 80.025 131.726 81.8589 131.682L81.9202 131.681C83.7499 131.637 85.2301 133.099 85.2301 134.945V135.252C85.2301 137.099 83.7499 138.638 81.9202 138.689Z" fill="#00C0B5"/>
<path d="M81.8911 139.347C79.6962 139.41 77.9062 137.59 77.9062 135.29C77.9062 132.989 79.6963 131.076 81.8911 131.024C84.08 130.973 85.8565 132.794 85.8565 135.083C85.8565 137.372 84.08 139.285 81.8911 139.347ZM81.8911 132.339C80.39 132.375 79.1667 133.684 79.1667 135.257C79.1667 136.829 80.39 138.075 81.8911 138.033C83.3895 137.992 84.6064 136.683 84.6064 135.115C84.6064 133.548 83.3895 132.302 81.8911 132.339Z" fill="#D8DEE8"/>
<path d="M148.113 142.08L93.8636 143.792C92.04 143.85 90.5586 145.457 90.5586 147.382C90.5586 149.307 92.04 150.815 93.8636 150.749L148.113 148.802C149.812 148.741 151.187 147.19 151.187 145.337C151.187 143.484 149.812 142.026 148.113 142.08Z" fill="#D8DEE8"/>
<path d="M81.9202 151.175L81.8589 151.177C80.025 151.242 78.5352 149.793 78.5352 147.938V147.63C78.5352 145.776 80.025 144.226 81.8589 144.168L81.9202 144.166C83.7499 144.108 85.2301 145.558 85.2301 147.405V147.712C85.2301 149.559 83.7499 151.109 81.9202 151.175Z" fill="#00C0B5"/>
<path d="M81.8911 151.833C79.6962 151.912 77.9062 150.106 77.9062 147.806C77.9062 145.505 79.6963 143.578 81.8911 143.51C84.08 143.441 85.8565 145.248 85.8565 147.537C85.8565 149.826 84.08 151.753 81.8911 151.833ZM81.8911 144.824C80.39 144.872 79.1667 146.19 79.1667 147.763C79.1667 149.336 80.39 150.572 81.8911 150.519C83.3895 150.465 84.6064 149.147 84.6064 147.58C84.6064 146.012 83.3895 144.776 81.8911 144.824Z" fill="#D8DEE8"/>
<path d="M148.113 154.049L93.8636 156.179C92.04 156.251 90.5586 157.869 90.5586 159.794C90.5586 161.72 92.04 163.216 93.8636 163.136L148.113 160.772C149.812 160.698 151.187 159.136 151.187 157.283C151.187 155.43 149.812 153.982 148.113 154.049Z" fill="#D8DEE8"/>
<path d="M81.8911 164.318C79.6962 164.415 77.9062 162.622 77.9062 160.322C77.9062 158.021 79.6963 156.08 81.8911 155.995C84.08 155.91 85.8565 157.703 85.8565 159.992C85.8566 162.281 84.08 164.222 81.8911 164.318ZM81.8911 157.309C80.39 157.369 79.1667 158.697 79.1667 160.269C79.1667 161.842 80.39 163.069 81.8911 163.004C83.3895 162.939 84.6064 161.612 84.6064 160.044C84.6064 158.477 83.3895 157.25 81.8911 157.309Z" fill="#D8DEE8"/>
<path d="M148.113 166.027L93.8636 168.574C92.04 168.66 90.5586 170.29 90.5586 172.215C90.5586 174.14 92.04 175.625 93.8636 175.531L148.113 172.749C149.812 172.662 151.187 171.09 151.187 169.237C151.187 167.384 149.812 165.947 148.113 166.027Z" fill="#D8DEE8"/>
<path d="M81.9202 176.153L81.8589 176.156C80.025 176.25 78.5352 174.823 78.5352 172.969V172.661C78.5352 170.807 80.025 169.233 81.8589 169.147L81.9202 169.144C83.7499 169.058 85.2301 170.486 85.2301 172.333V172.639C85.2301 174.486 83.7499 176.059 81.9202 176.153Z" fill="#00C0B5"/>
<path d="M81.8911 176.812C79.6962 176.925 77.9062 175.146 77.9062 172.846C77.9062 170.546 79.6963 168.591 81.8911 168.489C84.08 168.387 85.8565 170.166 85.8565 172.455C85.8566 174.744 84.08 176.698 81.8911 176.812ZM81.8911 169.803C80.39 169.874 79.1667 171.211 79.1667 172.784C79.1667 174.356 80.39 175.574 81.8911 175.497C83.3895 175.421 84.6064 174.084 84.6064 172.517C84.6064 170.949 83.3895 169.732 81.8911 169.803Z" fill="#D8DEE8"/>
<mask id="mask9_34264_8316" style="mask-type:luminance" maskUnits="userSpaceOnUse" x="90" y="47" width="51" height="55">
<path d="M140.383 74.9534C140.383 89.5289 129.427 101.403 115.698 101.477C101.729 101.552 90.2227 89.4189 90.2227 74.3758C90.2227 59.3328 101.729 47.4646 115.698 47.8612C129.427 48.2509 140.383 60.3778 140.383 74.9534Z" fill="white"/>
</mask>
<g mask="url(#mask9_34264_8316)">
<path d="M120.501 53.7079C125.73 56.907 127.195 62.4866 127.529 63.8407C129.837 73.2073 122.725 77.9626 125.755 84.584C128.238 90.0109 135.262 91.7241 134.973 92.3189C134.715 92.8504 129.701 90.2564 124.86 89.081C109.075 85.248 95.3558 96.5547 93.4117 93.7275C92.0349 91.7254 100.077 87.7459 101.736 78.4429C103.307 69.6356 97.5708 64.9539 101.054 58.382C103.376 54.0006 107.862 52.4277 108.628 52.1727C114.569 50.1935 119.697 53.2162 120.501 53.7079Z" fill="url(#paint26_linear_34264_8316)"/>
<path d="M88.1484 94.2308C88.1484 94.2308 112.349 79.1677 142.324 94.1882C142.324 94.1882 138.502 107.086 115.698 107.935C92.2193 108.809 88.1484 94.2308 88.1484 94.2308Z" fill="url(#paint27_linear_34264_8316)"/>
<path d="M111.407 74.6172L110.499 81.8103C110.189 84.2646 108.602 86.3171 106.393 87.1127L99.0156 89.7706C99.0156 89.7706 113.14 97.0159 130.998 89.7648L122.854 86.7442C120.543 85.8186 118.968 83.4896 118.867 80.8426L118.634 74.7005L111.407 74.6172Z" fill="url(#paint28_linear_34264_8316)"/>
<path d="M112.361 79.4863C108.65 78.4263 106.661 75.1935 105.482 73.2765C103.506 70.0635 100.779 63.4134 103.346 59.634C103.49 59.4219 103.657 59.3177 103.954 58.9447C105.699 56.7535 105.497 54.9586 106.175 53.8093C107.812 51.0352 114.471 52.1996 114.875 52.274C121.99 53.5852 125.076 60.1025 125.137 60.248C125.192 60.3801 125.248 60.5162 125.248 60.5162C125.679 61.5731 128.15 67.6299 125.05 73.3042C122.564 77.8537 117.206 80.8704 112.361 79.4863Z" fill="url(#paint29_linear_34264_8316)"/>
<path d="M122.418 68.3994C122.418 74.4735 118.982 80.9732 114.723 80.941C110.441 80.9086 106.953 74.2927 106.953 68.1593C106.953 62.0258 110.441 58.7459 114.723 58.8378C118.982 58.9292 122.418 62.3253 122.418 68.3994Z" fill="url(#paint30_linear_34264_8316)"/>
<path d="M106.701 72.1095C107.439 72.0763 106.374 65.6933 109.233 63.9598C111.131 62.8088 114.426 63.9147 116.279 66.0174C119.201 69.332 117.566 74.0316 119.779 75.061C121.185 75.7146 123.06 74.3819 123.959 73.4014C126.766 70.3395 126.384 63.7871 123.065 60.0486C120.421 57.069 116.832 56.9091 115.979 56.8991C111.095 56.8416 106.612 60.6444 105.584 65.1883C104.795 68.6803 106.155 72.134 106.701 72.1095Z" fill="url(#paint31_linear_34264_8316)"/>
</g>
<path opacity="0.35" d="M122.391 152.511C120.921 133.565 131.945 125.73 127.743 108.573C122.545 87.3544 102.524 86.4208 95.6941 65.569C93.1838 57.9047 92.1289 46.4845 98.6552 30.0822L71.2489 29.0089C70.4335 28.977 69.7695 29.6412 69.7695 30.4896V196.553C69.7695 197.402 70.4335 198.049 71.2489 197.997L146.119 193.181C128.428 177.984 123.257 163.672 122.391 152.511Z" fill="white"/>
<path d="M154.017 53.5407L146.096 47.2614L138.093 53.1579V33.3432C138.093 31.7983 137.397 30.3129 136.206 29.3172L136.145 29.2656L151.248 29.8587C152.778 29.9187 154.017 31.2498 154.017 32.8317L154.017 53.5407Z" fill="#D8DEE8"/>
<path d="M155.47 53.5384L147.549 46.8918L139.546 53.1332V32.1598C139.546 30.5245 138.85 28.9523 137.659 27.8983L137.598 27.8438L152.701 28.4714C154.232 28.535 155.47 29.9439 155.47 31.6184V53.5384Z" fill="url(#paint32_linear_34264_8316)"/>
<defs>
<linearGradient id="paint0_linear_34264_8316" x1="33.6502" y1="29.469" x2="57.2621" y2="104.029" gradientUnits="userSpaceOnUse">
<stop stop-color="#FF9085"/>
<stop offset="1" stop-color="#FB6FBB"/>
</linearGradient>
<linearGradient id="paint1_linear_34264_8316" x1="45.1553" y1="6.50907" x2="75.3635" y2="118.105" gradientUnits="userSpaceOnUse">
<stop stop-color="#FFC444"/>
<stop offset="0.9964" stop-color="#F36F56"/>
</linearGradient>
<linearGradient id="paint2_linear_34264_8316" x1="10.0157" y1="114.549" x2="96.6287" y2="114.549" gradientUnits="userSpaceOnUse">
<stop stop-color="#444B8C"/>
<stop offset="0.9964" stop-color="#26264F"/>
</linearGradient>
<linearGradient id="paint3_linear_34264_8316" x1="10.0156" y1="114.549" x2="96.6286" y2="114.549" gradientUnits="userSpaceOnUse">
<stop stop-color="#444B8C"/>
<stop offset="0.9964" stop-color="#26264F"/>
</linearGradient>
<linearGradient id="paint4_linear_34264_8316" x1="92.028" y1="51.482" x2="36.2167" y2="142.81" gradientUnits="userSpaceOnUse">
<stop stop-color="white"/>
<stop offset="0.9964" stop-color="#EBEFF2"/>
</linearGradient>
<linearGradient id="paint5_linear_34264_8316" x1="21.836" y1="120.467" x2="89.2298" y2="120.467" gradientUnits="userSpaceOnUse">
<stop stop-color="#AA80F9"/>
<stop offset="0.9964" stop-color="#6165D7"/>
</linearGradient>
<linearGradient id="paint6_linear_34264_8316" x1="30.7891" y1="101.71" x2="81.0399" y2="101.71" gradientUnits="userSpaceOnUse">
<stop stop-color="#FF9085"/>
<stop offset="1" stop-color="#FB6FBB"/>
</linearGradient>
<linearGradient id="paint7_linear_34264_8316" x1="56.0992" y1="100.756" x2="54.3251" y2="73.5992" gradientUnits="userSpaceOnUse">
<stop stop-color="#893976"/>
<stop offset="1" stop-color="#311944"/>
</linearGradient>
<linearGradient id="paint8_linear_34264_8316" x1="59.2318" y1="76.1275" x2="29.891" y2="97.0072" gradientUnits="userSpaceOnUse">
<stop stop-color="#893976"/>
<stop offset="1" stop-color="#311944"/>
</linearGradient>
<linearGradient id="paint9_linear_34264_8316" x1="129.715" y1="113.373" x2="204.963" y2="113.373" gradientUnits="userSpaceOnUse">
<stop stop-color="#444B8C"/>
<stop offset="0.9964" stop-color="#26264F"/>
</linearGradient>
<linearGradient id="paint10_linear_34264_8316" x1="129.715" y1="113.373" x2="204.963" y2="113.373" gradientUnits="userSpaceOnUse">
<stop stop-color="#444B8C"/>
<stop offset="0.9964" stop-color="#26264F"/>
</linearGradient>
<linearGradient id="paint11_linear_34264_8316" x1="161.863" y1="115.455" x2="196.923" y2="94.3715" gradientUnits="userSpaceOnUse">
<stop stop-color="white"/>
<stop offset="0.9964" stop-color="#EBEFF2"/>
</linearGradient>
<linearGradient id="paint12_linear_34264_8316" x1="140.164" y1="118.911" x2="198.719" y2="118.911" gradientUnits="userSpaceOnUse">
<stop stop-color="#AA80F9"/>
<stop offset="0.9964" stop-color="#6165D7"/>
</linearGradient>
<linearGradient id="paint13_linear_34264_8316" x1="147.926" y1="101.483" x2="191.588" y2="101.483" gradientUnits="userSpaceOnUse">
<stop stop-color="#AB316D"/>
<stop offset="1" stop-color="#792D3D"/>
</linearGradient>
<linearGradient id="paint14_linear_34264_8316" x1="169.483" y1="85.7956" x2="169.564" y2="101.669" gradientUnits="userSpaceOnUse">
<stop offset="0.0036" stop-color="#F36F56"/>
<stop offset="1" stop-color="#FFC444"/>
</linearGradient>
<linearGradient id="paint15_linear_34264_8316" x1="171.804" y1="64.0061" x2="167.815" y2="88.6401" gradientUnits="userSpaceOnUse">
<stop offset="0.0036" stop-color="#F36F56"/>
<stop offset="1" stop-color="#FFC444"/>
</linearGradient>
<linearGradient id="paint16_linear_34264_8316" x1="169.699" y1="69.0625" x2="167.76" y2="81.0345" gradientUnits="userSpaceOnUse">
<stop stop-color="#444B8C"/>
<stop offset="0.9964" stop-color="#26264F"/>
</linearGradient>
<linearGradient id="paint17_linear_34264_8316" x1="178.17" y1="65.2723" x2="174.218" y2="89.6775" gradientUnits="userSpaceOnUse">
<stop offset="0.0036" stop-color="#F36F56"/>
<stop offset="1" stop-color="#FFC444"/>
</linearGradient>
<linearGradient id="paint18_linear_34264_8316" x1="165.837" y1="62.7435" x2="161.803" y2="87.6594" gradientUnits="userSpaceOnUse">
<stop offset="0.0036" stop-color="#F36F56"/>
<stop offset="1" stop-color="#FFC444"/>
</linearGradient>
<linearGradient id="paint19_linear_34264_8316" x1="185.56" y1="95.4153" x2="146.981" y2="179.758" gradientUnits="userSpaceOnUse">
<stop stop-color="#AA80F9"/>
<stop offset="0.9964" stop-color="#6165D7"/>
</linearGradient>
<linearGradient id="paint20_linear_34264_8316" x1="194.619" y1="120.023" x2="146.849" y2="183.906" gradientUnits="userSpaceOnUse">
<stop offset="0.0036" stop-color="#E38DDD"/>
<stop offset="1" stop-color="#9571F6"/>
</linearGradient>
<linearGradient id="paint21_linear_34264_8316" x1="177.837" y1="147.775" x2="150.876" y2="194.519" gradientUnits="userSpaceOnUse">
<stop stop-color="#FFC444"/>
<stop offset="0.9964" stop-color="#F36F56"/>
</linearGradient>
<linearGradient id="paint22_linear_34264_8316" x1="65.332" y1="113.501" x2="158.692" y2="113.501" gradientUnits="userSpaceOnUse">
<stop stop-color="#444B8C"/>
<stop offset="0.9964" stop-color="#26264F"/>
</linearGradient>
<linearGradient id="paint23_linear_34264_8316" x1="134.871" y1="29.2023" x2="141.153" y2="29.2023" gradientUnits="userSpaceOnUse">
<stop stop-color="#AB316D"/>
<stop offset="1" stop-color="#792D3D"/>
</linearGradient>
<linearGradient id="paint24_linear_34264_8316" x1="158.673" y1="38.3165" x2="92.1824" y2="147.119" gradientUnits="userSpaceOnUse">
<stop stop-color="white"/>
<stop offset="0.9964" stop-color="#EBEFF2"/>
</linearGradient>
<linearGradient id="paint25_linear_34264_8316" x1="78.5352" y1="120.881" x2="151.187" y2="120.881" gradientUnits="userSpaceOnUse">
<stop stop-color="#AA80F9"/>
<stop offset="0.9964" stop-color="#6165D7"/>
</linearGradient>
<linearGradient id="paint26_linear_34264_8316" x1="145.623" y1="42.102" x2="88.6379" y2="110.327" gradientUnits="userSpaceOnUse">
<stop stop-color="#AB316D"/>
<stop offset="1" stop-color="#792D3D"/>
</linearGradient>
<linearGradient id="paint27_linear_34264_8316" x1="119.192" y1="75.9656" x2="113.469" y2="102.357" gradientUnits="userSpaceOnUse">
<stop stop-color="#AA80F9"/>
<stop offset="0.9964" stop-color="#6165D7"/>
</linearGradient>
<linearGradient id="paint28_linear_34264_8316" x1="114.941" y1="77.067" x2="115.051" y2="98.3439" gradientUnits="userSpaceOnUse">
<stop offset="0.0036" stop-color="#F36F56"/>
<stop offset="1" stop-color="#FFC444"/>
</linearGradient>
<linearGradient id="paint29_linear_34264_8316" x1="136.943" y1="38.1814" x2="87.1323" y2="97.8183" gradientUnits="userSpaceOnUse">
<stop stop-color="#AB316D"/>
<stop offset="1" stop-color="#792D3D"/>
</linearGradient>
<linearGradient id="paint30_linear_34264_8316" x1="117.975" y1="46.1855" x2="113.049" y2="79.3786" gradientUnits="userSpaceOnUse">
<stop offset="0.0036" stop-color="#F36F56"/>
<stop offset="1" stop-color="#FFC444"/>
</linearGradient>
<linearGradient id="paint31_linear_34264_8316" x1="138.771" y1="39.7115" x2="88.9598" y2="99.3483" gradientUnits="userSpaceOnUse">
<stop stop-color="#AB316D"/>
<stop offset="1" stop-color="#792D3D"/>
</linearGradient>
<linearGradient id="paint32_linear_34264_8316" x1="157.309" y1="21.5934" x2="133.289" y2="64.1655" gradientUnits="userSpaceOnUse">
<stop stop-color="#FF9085"/>
<stop offset="1" stop-color="#FB6FBB"/>
</linearGradient>
</defs>
</svg>
