<svg width="257" height="192" viewBox="0 0 257 192" fill="none" xmlns="http://www.w3.org/2000/svg">
<path d="M256.365 167.891H0V168.019H256.365V167.891Z" fill="#EBEBEB"/>
<path d="M230.678 176.141H213.695V176.269H230.678V176.141Z" fill="#EBEBEB"/>
<path d="M207.238 176.141H170.934V176.269H207.238V176.141Z" fill="#EBEBEB"/>
<path d="M150.915 171.383H141.074V171.511H150.915V171.383Z" fill="#EBEBEB"/>
<path d="M44.48 172.242H26.8984V172.37H44.48V172.242Z" fill="#EBEBEB"/>
<path d="M81.0107 172.242H49.043V172.37H81.0107V172.242Z" fill="#EBEBEB"/>
<path d="M115.438 174.406H96.5625V174.534H115.438V174.406Z" fill="#EBEBEB"/>
<path d="M121.524 145.025H22.5165C20.9029 145.025 19.5898 143.712 19.5898 142.098V2.92667C19.5898 1.3131 20.9029 0 22.5165 0H121.524C123.137 0 124.45 1.3131 124.45 2.92667V142.098C124.45 143.712 123.137 145.025 121.524 145.025ZM22.5165 0.128695C20.9732 0.128695 19.718 1.38386 19.718 2.92718V142.099C19.718 143.642 20.9732 144.897 22.5165 144.897H121.524C123.067 144.897 124.322 143.642 124.322 142.099V2.92667C124.322 1.38386 123.067 0.128183 121.524 0.128183L22.5165 0.128695Z" fill="#EBEBEB"/>
<path d="M232.426 145.025H133.418C131.805 145.025 130.492 143.712 130.492 142.098V2.92667C130.492 1.3131 131.805 0 133.418 0H232.426C234.04 0 235.352 1.3131 235.352 2.92667V142.098C235.353 143.712 234.04 145.025 232.426 145.025ZM133.418 0.128695C131.876 0.128695 130.62 1.38386 130.62 2.92718V142.099C130.62 143.642 131.876 144.897 133.418 144.897H232.426C233.969 144.897 235.224 143.642 235.224 142.099V2.92667C235.224 1.38386 233.969 0.128183 232.426 0.128183L133.418 0.128695Z" fill="#EBEBEB"/>
<path d="M81.3938 17.9062H31.8164V154.65H81.3938V17.9062Z" fill="#F5F5F5"/>
<path d="M81.3965 154.648H81.8984L81.8984 17.9048H81.3965L81.3965 154.648Z" fill="#EBEBEB"/>
<path d="M76.6114 23.125H36.6016V149.436H76.6114V23.125Z" fill="white"/>
<path d="M102.644 98.8281L219.594 98.8281V11.9352L102.644 11.9352L102.644 98.8281Z" fill="#E6E6E6"/>
<path d="M100.831 98.8281L217.781 98.8281V11.9352L100.831 11.9352L100.831 98.8281Z" fill="#F5F5F5"/>
<path d="M214.531 95.1796L214.531 15.5859L104.079 15.5859L104.079 95.1796L214.531 95.1796Z" fill="white"/>
<path d="M105.449 95.1796L105.449 15.5859H104.081L104.081 95.1796H105.449Z" fill="#E6E6E6"/>
<path d="M102.175 78.1797L216.438 78.1797V73.28L102.175 73.28V78.1797Z" fill="#F5F5F5"/>
<g opacity="0.4">
<path d="M108.245 8.10938H97.2031V36.0352H108.245V8.10938Z" fill="#E6E6E6"/>
<path d="M108.245 33.7891H113.719V8.10691H108.245V33.7891Z" fill="#F5F5F5"/>
<path d="M124.76 8.10938H113.719V36.0352H124.76V8.10938Z" fill="#E6E6E6"/>
<path d="M124.761 33.7891H130.234V8.10691H124.761V33.7891Z" fill="#F5F5F5"/>
<path d="M141.276 8.10938H130.234V36.0352H141.276V8.10938Z" fill="#E6E6E6"/>
<path d="M141.273 33.7891H146.746V8.10691H141.273V33.7891Z" fill="#F5F5F5"/>
<path d="M157.792 8.10938H146.75V36.0352H157.792V8.10938Z" fill="#E6E6E6"/>
<path d="M157.788 33.7891H163.262V8.10691H157.788V33.7891Z" fill="#F5F5F5"/>
<path d="M174.303 8.10938H163.262V36.0352H174.303V8.10938Z" fill="#E6E6E6"/>
<path d="M174.304 33.7891H179.777V8.10691H174.304V33.7891Z" fill="#F5F5F5"/>
<path d="M190.819 8.10938H179.777V36.0352H190.819V8.10938Z" fill="#E6E6E6"/>
<path d="M190.82 33.7891H196.293V8.10691H190.82V33.7891Z" fill="#F5F5F5"/>
<path d="M207.335 8.10938H196.293V36.0352H207.335V8.10938Z" fill="#E6E6E6"/>
<path d="M207.335 33.7891H212.809V8.10691H207.335V33.7891Z" fill="#F5F5F5"/>
<path d="M223.85 8.10938H212.809V36.0352H223.85V8.10938Z" fill="#E6E6E6"/>
</g>
<path d="M104.453 167.883H118.137V116.918H104.453V167.883Z" fill="#E6E6E6"/>
<path d="M106.731 167.883H104.453V163.297H109.118L106.731 167.883Z" fill="#F0F0F0"/>
<path d="M202.914 167.883H216.598V116.918H202.914V167.883Z" fill="#E6E6E6"/>
<path d="M104.453 166.117H204.902V116.914L104.453 116.914V166.117Z" fill="#F0F0F0"/>
<path d="M106.22 132.594H203.137V119.1L106.22 119.1V132.594Z" fill="#E6E6E6"/>
<path d="M130.734 123.291H178.619C180.84 123.291 182.965 121.626 184.493 118.688H124.859C126.388 121.626 128.512 123.291 130.734 123.291Z" fill="#F0F0F0"/>
<path d="M202.626 167.883H204.904V163.297H200.238L202.626 167.883Z" fill="#F0F0F0"/>
<path d="M106.22 148.266H203.137V134.772H106.22V148.266Z" fill="#E6E6E6"/>
<path d="M130.734 138.963H178.619C180.84 138.963 182.965 137.298 184.493 134.359H124.859C126.388 137.298 128.512 138.963 130.734 138.963Z" fill="#F0F0F0"/>
<path d="M106.22 163.938H203.137V150.444H106.22V163.938Z" fill="#E6E6E6"/>
<path d="M130.734 154.635H178.619C180.84 154.635 182.965 152.97 184.493 150.031H124.859C126.388 152.97 128.512 154.635 130.734 154.635Z" fill="#F0F0F0"/>
<path d="M128.182 191.049C183.086 191.049 227.595 188.45 227.595 185.243C227.595 182.037 183.086 179.438 128.182 179.438C73.2781 179.438 28.7695 182.037 28.7695 185.243C28.7695 188.45 73.2781 191.049 128.182 191.049Z" fill="#F5F5F5"/>
<path d="M189.65 182.311H189.101C188.886 182.311 188.703 182.122 188.665 181.865L185.289 158.367H187.853L190.089 181.709C190.12 182.029 189.915 182.311 189.65 182.311Z" fill="#00C0B5"/>
<path opacity="0.3" d="M189.65 182.311H189.101C188.886 182.311 188.703 182.122 188.665 181.865L185.289 158.367H187.853L190.089 181.709C190.12 182.029 189.915 182.311 189.65 182.311Z" fill="black"/>
<path d="M196.686 182.311H196.136C195.922 182.311 195.738 182.122 195.701 181.865L192.324 158.367H194.888L197.124 181.709C197.155 182.029 196.95 182.311 196.686 182.311Z" fill="#00C0B5"/>
<path opacity="0.3" d="M196.686 182.311H196.136C195.922 182.311 195.738 182.122 195.701 181.865L192.324 158.367H194.888L197.124 181.709C197.155 182.029 196.95 182.311 196.686 182.311Z" fill="black"/>
<path d="M157.492 182.311H158.042C158.256 182.311 158.44 182.122 158.477 181.865L161.854 158.367H159.29L157.054 181.709C157.023 182.029 157.228 182.311 157.492 182.311Z" fill="#00C0B5"/>
<path opacity="0.3" d="M157.492 182.311H158.042C158.256 182.311 158.44 182.122 158.477 181.865L161.854 158.367H159.29L157.054 181.709C157.023 182.029 157.228 182.311 157.492 182.311Z" fill="black"/>
<path d="M150.457 182.311H151.007C151.221 182.311 151.405 182.122 151.442 181.865L154.818 158.367H152.255L150.019 181.709C149.988 182.029 150.193 182.311 150.457 182.311Z" fill="#00C0B5"/>
<path opacity="0.3" d="M150.457 182.311H151.007C151.221 182.311 151.405 182.122 151.442 181.865L154.818 158.367H152.255L150.019 181.709C149.988 182.029 150.193 182.311 150.457 182.311Z" fill="black"/>
<path d="M141.342 130.511H158.611C161.674 119.871 172.699 111.477 183.989 111.477H183.99H189.598C201.415 111.477 209.041 120.672 206.632 132.015C206.19 134.097 205.437 136.106 204.435 138L201.711 154.507C201.36 156.637 199.659 158.364 197.915 158.364H145.937C144.191 158.364 142.492 156.637 142.14 154.507L138.818 134.368C138.467 132.238 139.597 130.511 141.342 130.511Z" fill="#00C0B5"/>
<path opacity="0.5" d="M141.342 130.511H158.611C161.674 119.871 172.699 111.477 183.989 111.477H183.99H189.598C201.415 111.477 209.041 120.672 206.632 132.015C206.19 134.097 205.437 136.106 204.435 138L201.711 154.507C201.36 156.637 199.659 158.364 197.915 158.364H145.937C144.191 158.364 142.492 156.637 142.14 154.507L138.818 134.368C138.467 132.238 139.597 130.511 141.342 130.511Z" fill="white"/>
<path d="M137.02 176.237L141.298 178.2C141.453 178.271 141.521 178.433 141.461 178.59L140.115 182.069C139.975 182.43 139.493 182.611 139.137 182.44C137.66 181.731 136.989 181.318 135.108 180.454C133.951 179.923 130.782 178.148 129.355 177.121C127.959 176.116 128.984 174.712 129.681 175.02C132.805 176.398 134.794 176.521 136.256 176.171C136.521 176.107 136.793 176.133 137.02 176.237Z" fill="#263238"/>
<path d="M167.348 123.812C167.348 123.812 140.005 124.152 139.582 134.931C138.975 150.423 136.688 176.146 136.688 176.146L141.298 178.201C141.298 178.201 149.377 152.387 149.666 140.289C157.337 138.378 177.131 140.304 179.457 133.999C181.36 128.84 180.331 123.812 180.331 123.812H167.348Z" fill="#00C0B5"/>
<path opacity="0.2" d="M167.348 123.812C167.348 123.812 140.005 124.152 139.582 134.931C138.975 150.423 136.688 176.146 136.688 176.146L141.298 178.201C141.298 178.201 149.377 152.387 149.666 140.289C157.337 138.378 177.131 140.304 179.457 133.999C181.36 128.84 180.331 123.812 180.331 123.812H167.348Z" fill="black"/>
<path d="M173.168 95.4452C172.93 96.4398 172.69 97.3376 172.414 98.2683C172.145 99.1901 171.863 100.107 171.567 101.022C170.967 102.848 170.306 104.663 169.543 106.458C168.785 108.256 167.939 110.038 166.907 111.797C166.386 112.675 165.83 113.555 165.171 114.414C164.511 115.272 163.765 116.128 162.788 116.93L162.713 116.992C162.659 117.035 162.602 117.077 162.546 117.115C161.894 117.544 161.287 117.676 160.826 117.732C160.356 117.784 159.975 117.763 159.658 117.724C159.01 117.644 158.534 117.498 158.088 117.343C157.209 117.031 156.489 116.672 155.793 116.3C154.412 115.557 153.188 114.725 151.985 113.88C150.793 113.023 149.645 112.136 148.53 111.214C147.422 110.276 146.337 109.35 145.28 108.331C144.657 107.731 144.639 106.74 145.239 106.117C145.742 105.596 146.519 105.498 147.124 105.834L147.15 105.848C148.36 106.519 149.58 107.23 150.805 107.891C152.024 108.566 153.24 109.233 154.457 109.857C155.665 110.489 156.891 111.076 158.06 111.558C158.639 111.795 159.221 111.999 159.694 112.105C159.923 112.157 160.137 112.184 160.192 112.172C160.227 112.171 160.202 112.151 160.083 112.16C159.97 112.171 159.713 112.204 159.355 112.433L159.113 112.618C159.549 112.206 160.012 111.631 160.44 110.983C160.868 110.333 161.287 109.626 161.676 108.882C162.449 107.387 163.141 105.775 163.78 104.126C164.412 102.473 165.002 100.782 165.549 99.0702C166.106 97.3756 166.613 95.5969 167.075 93.9372L167.093 93.8747C167.558 92.2052 169.288 91.229 170.957 91.694C172.588 92.1473 173.555 93.8136 173.168 95.4452Z" fill="#263238"/>
<path d="M162.082 178.453H167.211C167.398 178.453 167.539 178.583 167.55 178.765L167.798 182.824C167.824 183.245 167.429 183.643 166.999 183.636C165.213 183.605 164.36 183.5 162.104 183.5C160.716 183.5 157.917 183.644 156.001 183.644C154.126 183.644 154.139 181.749 154.951 181.577C158.593 180.808 160.006 179.746 161.295 178.734C161.527 178.552 161.808 178.453 162.082 178.453Z" fill="#263238"/>
<path d="M174.714 123.805C174.714 123.805 149.913 125.899 150.523 136.669C151.191 148.462 162.08 178.456 162.08 178.456H167.096C167.096 178.456 162.803 150.989 161.294 138.98C168.284 138.98 184.497 140.297 186.823 133.991C188.726 128.833 187.697 123.805 187.697 123.805H174.714Z" fill="#00C0B5"/>
<path d="M147.503 106.36C147.503 106.36 146.79 105.203 146.108 104.648C145.094 105.6 144.523 108.373 144.523 108.373L145.926 108.5C145.926 108.5 147.535 107.977 147.503 106.36Z" fill="#00C0B5"/>
<path d="M142.357 103.864L140.762 103.171C140.334 102.985 139.834 103.144 139.593 103.544L138.837 104.796C138.619 105.156 138.671 105.618 138.963 105.923L141.152 108.207L144.804 108.059C145.223 108.043 145.601 107.801 145.793 107.427L146.215 106.603C146.479 106.088 146.334 105.441 145.851 105.122C144.667 104.338 142.357 103.864 142.357 103.864Z" fill="#FFC3BD"/>
<path d="M167.115 94.3977C166.382 98.999 165.437 108.976 167.369 124.001L187.698 123.809C187.577 113.398 189.208 103.622 190.801 94.0727C191.066 92.4858 189.978 91.0147 188.386 90.785C183.502 90.0816 175.618 90.1082 170.835 90.7707C168.932 91.0347 167.417 92.4996 167.115 94.3977Z" fill="#263238"/>
<path d="M190.987 92.7708C191.583 94.251 192.063 95.6733 192.555 97.1398C193.041 98.5969 193.469 100.076 193.873 101.57C194.261 103.069 194.633 104.581 194.916 106.135C195.201 107.689 195.453 109.267 195.54 110.941C195.567 111.357 195.575 111.787 195.58 112.217L195.572 112.874C195.559 113.338 195.492 114.042 195.062 114.795C194.859 115.159 194.54 115.533 194.209 115.79C194.036 115.933 193.869 116.039 193.701 116.131C193.522 116.233 193.365 116.3 193.21 116.357C192.583 116.587 192.098 116.617 191.705 116.619C190.932 116.605 190.403 116.471 189.909 116.338C188.947 116.059 188.176 115.718 187.425 115.359C186.682 114.993 185.984 114.606 185.302 114.209C182.59 112.601 180.15 110.81 177.782 108.826C177.12 108.272 177.033 107.285 177.588 106.623C178.056 106.064 178.83 105.915 179.459 106.215L179.495 106.232C182.146 107.495 184.841 108.789 187.468 109.878C188.123 110.148 188.777 110.401 189.414 110.612C190.041 110.829 190.673 111.016 191.166 111.091C191.398 111.129 191.611 111.124 191.588 111.102C191.567 111.096 191.458 111.076 191.18 111.171C191.114 111.196 191.043 111.228 190.943 111.278C190.857 111.326 190.77 111.383 190.665 111.462C190.482 111.606 190.286 111.832 190.169 112.032C189.924 112.457 189.913 112.78 189.905 112.872L189.876 112.408C189.847 112.092 189.82 111.775 189.774 111.446C189.423 108.817 188.681 106.017 187.86 103.264C187.036 100.514 186.093 97.7022 185.133 95.0309L185.123 95.0042C184.537 93.3732 185.384 91.5761 187.015 90.9896C188.606 90.4179 190.358 91.2167 190.987 92.7708Z" fill="#263238"/>
<path d="M182.859 80.4688L180.4 82.5084L177.051 85.2894C177.149 85.7422 177.226 86.2006 177.264 86.642C177.424 88.2587 177.07 89.7456 175.105 90.4988C174.363 90.7834 173.717 91.3258 173.483 92.0852C173.218 92.9445 173.531 93.8992 176.229 93.8987C180.19 93.8977 182.26 92.1364 183.038 91.2689C183.258 91.0243 183.261 90.6644 183.072 90.3962C181.503 88.17 182.22 83.2483 182.859 80.4688Z" fill="#FFC3BD"/>
<path d="M176.134 93.0312C176.134 93.0312 176.398 93.3163 176.477 93.7286C176.683 93.3799 177.22 93.0312 177.22 93.0312C177.22 93.0312 178.396 93.5542 178.641 94.6951C177.887 94.6474 176.508 93.9024 176.508 93.9024C176.508 93.9024 175.795 94.3146 175.082 94.3464C175.114 93.4589 176.134 93.0312 176.134 93.0312Z" fill="#00C0B5"/>
<path d="M177.219 93.0267C178.359 94.311 178.576 96.0164 178.576 96.0164C178.576 96.0164 185.14 94.3762 184.832 90.0979C184.28 89.7493 183.012 89.5391 183.012 89.5391C183.012 89.5391 181.601 92.1017 177.219 93.0267Z" fill="#00C0B5"/>
<path d="M176.131 93.023C174.991 94.3074 174.686 96.0127 174.686 96.0127C174.686 96.0127 171.32 92.9487 174.599 90.1297C175.176 89.8923 176.334 89.7656 176.334 89.7656C176.334 89.7656 174.156 91.533 176.131 93.023Z" fill="#00C0B5"/>
<path opacity="0.2" d="M177.051 85.2889C177.149 85.7416 177.225 86.2 177.264 86.6414C178.513 86.3902 180.181 85.0597 180.355 83.784C180.421 83.3041 180.432 82.8406 180.399 82.5078L177.051 85.2889Z" fill="black"/>
<path d="M173.457 71.6415C170.369 73.8308 172.097 78.9669 174.731 77.0016C177.365 75.0363 175.973 69.8572 173.457 71.6415Z" fill="#263238"/>
<path d="M183.872 76.2144C183.018 80.146 182.717 82.483 180.395 84.2771C176.902 86.9756 172.273 84.578 171.934 80.5121C171.628 76.8522 173.078 71.0379 177.214 69.9247C181.288 68.828 184.727 72.2828 183.872 76.2144Z" fill="#FFC3BD"/>
<path d="M182.053 73.2976C179.873 72.6952 174.253 74.1257 172.258 71.9979C170.119 69.7157 173.241 68.6062 174.16 69.3989C172.995 68.0678 173.43 66.6414 175.079 66.768C176.282 66.8603 176.665 68.1944 176.665 68.1944C176.665 68.1944 176.464 65.8631 178.533 66.0235C180.412 66.1692 180.417 68.702 180.417 68.702C180.417 68.702 184.901 67.4341 186.395 71.7133C189.216 71.6497 189.153 77.5877 183.479 79.7006C181.176 78.5593 181.07 74.5087 182.053 73.2976Z" fill="#263238"/>
<path d="M185.793 72.5656C185.522 72.5656 185.282 72.3718 185.232 72.0959C185.176 71.7862 185.381 71.4904 185.69 71.4335C185.741 71.4181 185.893 71.293 186.02 71.0171C186.154 70.7274 186.24 70.2947 186.082 69.9491C185.951 69.662 186.078 69.3241 186.364 69.1928C186.651 69.0605 186.989 69.1887 187.121 69.4753C187.463 70.226 187.281 71.073 186.997 71.616C186.725 72.1364 186.323 72.4794 185.895 72.5558C185.86 72.5625 185.827 72.5656 185.793 72.5656Z" fill="#263238"/>
<path d="M184.513 79.8585C183.936 80.6158 183.092 81.0654 182.354 81.1957C181.242 81.3915 180.904 80.3691 181.396 79.376C181.838 78.4823 182.949 77.3035 183.977 77.5589C184.99 77.8101 185.172 78.9925 184.513 79.8585Z" fill="#FFC3BD"/>
<path d="M177.14 76.5689C177.091 76.8914 176.879 77.1324 176.667 77.1073C176.455 77.0822 176.324 76.8002 176.374 76.4777C176.424 76.1552 176.635 75.9142 176.847 75.9393C177.059 75.9649 177.19 76.2464 177.14 76.5689Z" fill="#263238"/>
<path d="M173.48 76.1393C173.43 76.4618 173.219 76.7027 173.007 76.6776C172.795 76.6525 172.664 76.3705 172.714 76.048C172.763 75.7255 172.975 75.4845 173.187 75.5096C173.399 75.5347 173.53 75.8167 173.48 76.1393Z" fill="#263238"/>
<path d="M174.595 76.2656C174.595 76.2656 173.827 77.83 173.066 78.5647C173.518 79.0467 174.37 78.8811 174.37 78.8811L174.595 76.2656Z" fill="#ED847E"/>
<path d="M175.869 80.5362C177.154 80.5362 177.872 79.7353 177.905 79.6978C177.94 79.6584 177.936 79.5979 177.896 79.563C177.857 79.5276 177.796 79.5322 177.761 79.5717C177.753 79.5809 176.936 80.4936 175.513 80.3229C175.46 80.3162 175.413 80.3541 175.407 80.407C175.401 80.4592 175.438 80.5069 175.491 80.5131C175.621 80.529 175.748 80.5362 175.869 80.5362Z" fill="#263238"/>
<path d="M178.612 74.7112C178.643 74.7045 178.672 74.6897 178.698 74.6676C178.777 74.5974 178.784 74.4764 178.713 74.3974C178.018 73.6155 177.14 73.7575 177.104 73.7642C177.004 73.7714 176.93 73.8811 176.948 73.9857C176.966 74.0898 177.065 74.1595 177.169 74.1415C177.206 74.1359 177.881 74.038 178.427 74.6522C178.475 74.7056 178.547 74.7256 178.612 74.7112Z" fill="#263238"/>
<path d="M172.174 74.5013C172.233 74.5182 172.299 74.5064 172.349 74.4644C173.019 73.9075 173.708 74.0916 173.714 74.0937C173.816 74.1224 173.922 74.0629 173.95 73.9609C173.979 73.8593 173.92 73.7542 173.818 73.725L173.817 73.7245C173.781 73.7142 172.927 73.4856 172.104 74.1695C172.023 74.2372 172.012 74.3577 172.079 74.4392C172.105 74.4705 172.139 74.491 172.174 74.5013Z" fill="#263238"/>
<path d="M178.849 103.555L176.606 102.16C175.932 101.741 175.046 101.954 174.637 102.633L174.373 103.071C174.053 103.6 174.112 104.275 174.518 104.74L176.066 106.518C176.066 106.518 177.414 109.66 178.976 108.83L180.168 106.766L178.849 103.555Z" fill="#FFC3BD"/>
<path d="M181.161 107.575C181.161 107.575 180.597 106.187 179.989 105.484C178.862 106.45 177.949 109.528 177.949 109.528L179.327 109.825C179.327 109.825 180.991 109.408 181.161 107.575Z" fill="#00C0B5"/>
<path d="M198.344 130.516H171.724C169.979 130.516 168.85 132.243 169.201 134.373L172.523 154.511C172.875 156.642 174.574 158.369 176.319 158.369H195.048L198.344 130.516Z" fill="#00C0B5"/>
<path opacity="0.5" d="M198.344 130.516H171.724C169.979 130.516 168.85 132.243 169.201 134.373L172.523 154.511C172.875 156.642 174.574 158.369 176.319 158.369H195.048L198.344 130.516Z" fill="white"/>
<path d="M75.5185 184.058H76.2866C76.5481 184.058 76.7655 183.837 76.7844 183.552L81.015 120.031H77.8376L75.0201 183.486C75.0063 183.797 75.2334 184.058 75.5185 184.058Z" fill="#00C0B5"/>
<path opacity="0.3" d="M75.5185 184.058H76.2866C76.5481 184.058 76.7655 183.837 76.7844 183.552L81.015 120.031H77.8376L75.0201 183.486C75.0063 183.797 75.2334 184.058 75.5185 184.058Z" fill="white"/>
<path d="M66.7998 184.058H67.5678C67.8293 184.058 68.0467 183.837 68.0657 183.552L72.2962 120.031H69.1188L66.3014 183.486C66.2875 183.797 66.5147 184.058 66.7998 184.058Z" fill="#00C0B5"/>
<path opacity="0.3" d="M66.7998 184.058H67.5678C67.8293 184.058 68.0467 183.837 68.0657 183.552L72.2962 120.031H69.1188L66.3014 183.486C66.2875 183.797 66.5147 184.058 66.7998 184.058Z" fill="white"/>
<path d="M174.289 184.058H173.521C173.26 184.058 173.042 183.837 173.024 183.552L168.793 120.031H171.97L174.788 183.486C174.802 183.797 174.575 184.058 174.289 184.058Z" fill="#00C0B5"/>
<path opacity="0.3" d="M174.289 184.058H173.521C173.26 184.058 173.042 183.837 173.024 183.552L168.793 120.031H171.97L174.788 183.486C174.802 183.797 174.575 184.058 174.289 184.058Z" fill="white"/>
<path d="M183.008 184.058H182.24C181.979 184.058 181.761 183.837 181.742 183.552L177.512 120.031H180.689L183.507 183.486C183.52 183.797 183.293 184.058 183.008 184.058Z" fill="#00C0B5"/>
<path opacity="0.3" d="M183.008 184.058H182.24C181.979 184.058 181.761 183.837 181.742 183.552L177.512 120.031H180.689L183.507 183.486C183.52 183.797 183.293 184.058 183.008 184.058Z" fill="white"/>
<path d="M186.676 118.719H62.9531V120.025H186.676V118.719Z" fill="#00C0B5"/>
<path d="M60.8911 98.4937L59.7231 107.092C59.3545 109.955 58.9694 112.825 58.6936 115.644C58.6546 115.998 58.629 116.344 58.6003 116.692L58.5577 117.214C58.5613 117.176 58.5582 117.038 58.5398 116.958C58.5316 116.875 58.5054 116.785 58.4803 116.714C58.4634 116.651 58.4275 116.58 58.4034 116.534C58.3854 116.493 58.3521 116.446 58.3321 116.418C58.2413 116.302 58.2316 116.317 58.2557 116.342C58.2757 116.371 58.3485 116.427 58.43 116.488C58.6023 116.613 58.8448 116.754 59.1094 116.886C60.1974 117.418 61.5423 117.871 62.8744 118.283C65.5647 119.099 68.3873 119.805 71.1755 120.493L70.8602 122.942C67.8761 122.837 64.9468 122.559 61.9684 122.022C60.4738 121.738 58.9946 121.427 57.3989 120.815C56.9959 120.656 56.5822 120.476 56.1325 120.222C55.9053 120.09 55.6741 119.943 55.4167 119.736C55.1629 119.527 54.8876 119.287 54.5984 118.863C54.4554 118.65 54.3169 118.392 54.2108 118.079C54.1585 117.921 54.1185 117.741 54.0893 117.569C54.0657 117.399 54.0564 117.17 54.059 117.041L54.0718 116.472C54.0805 116.092 54.0867 115.711 54.1052 115.338C54.2267 112.343 54.4959 109.419 54.8153 106.496C55.1275 103.573 55.5003 100.677 55.9587 97.7656L60.8911 98.4937Z" fill="#7F3E3B"/>
<path d="M77.6313 123.078L75.7511 124.796C75.3122 125.197 74.6739 125.291 74.1381 125.033L72.06 124.033C72.06 124.033 68.9785 123.905 68.5391 122.023L69.3358 120.56L74.1094 120.029C74.6 119.975 75.0948 120.085 75.5158 120.342L77.4831 121.543C78.0318 121.878 78.1056 122.645 77.6313 123.078Z" fill="#7F3E3B"/>
<path d="M66.3721 80.8203C66.8597 83.7695 67.2734 89.1588 65.1641 91.0544C65.1641 91.0544 70.3129 93.7503 73.6892 98.4557C77.3004 95.5946 74.2763 91.3256 74.2763 91.3256C71.0302 90.4478 71.1866 88.0242 71.8239 85.763L66.3721 80.8203Z" fill="#7F3E3B"/>
<path d="M76.0106 93.1429C76.0106 93.1429 75.7389 90.6423 74.374 89.4061C73.2275 88.3673 67.2106 88.9446 65.3156 89.1559C64.9587 89.1954 64.6506 89.4169 64.4957 89.7404L63.1211 92.6117L76.0106 93.1429Z" fill="#00C0B5"/>
<path opacity="0.8" d="M76.0106 93.1429C76.0106 93.1429 75.7389 90.6423 74.374 89.4061C73.2275 88.3673 67.2106 88.9446 65.3156 89.1559C64.9587 89.1954 64.6506 89.4169 64.4957 89.7404L63.1211 92.6117L76.0106 93.1429Z" fill="white"/>
<path d="M59.3391 91.8294C55.6264 93.0374 54.8286 98.015 55.1629 101.889L62.6564 106.499C62.6564 106.499 64.4761 100.841 64.4607 97.8206C64.4443 94.6053 61.8602 91.009 59.3391 91.8294Z" fill="#00C0B5"/>
<path d="M60.7906 105.365C60.6111 105.365 60.4316 105.294 60.2983 105.165C60.2676 105.129 60.2368 105.093 60.2163 105.058C60.1907 105.022 60.165 104.981 60.1496 104.935C60.1348 104.894 60.1189 104.853 60.1086 104.806C60.0984 104.76 60.0938 104.719 60.0938 104.673C60.0938 104.489 60.1701 104.309 60.2983 104.181C60.5598 103.919 61.0264 103.919 61.2828 104.181C61.411 104.309 61.4879 104.489 61.4879 104.673C61.4879 104.719 61.4827 104.76 61.4725 104.806C61.4622 104.853 61.452 104.894 61.4315 104.935C61.4166 104.981 61.3961 105.022 61.3699 105.058C61.3443 105.093 61.314 105.129 61.2828 105.165C61.1546 105.294 60.9751 105.365 60.7906 105.365Z" fill="white"/>
<path d="M59.3519 104.898C59.3519 104.898 59.3519 104.898 59.3571 104.898C59.0904 104.796 58.9212 104.544 58.911 104.273C58.711 104.452 58.4188 104.509 58.1573 104.386C57.9009 104.268 57.7471 104.006 57.7522 103.739C57.542 103.909 57.2446 103.944 56.9934 103.806C56.7426 103.673 56.6088 103.406 56.6293 103.14C56.4089 103.293 56.1115 103.314 55.8659 103.165C55.5372 102.97 55.4347 102.54 55.63 102.212C55.83 101.883 56.2607 101.776 56.5883 101.976C56.819 102.119 56.9375 102.376 56.9216 102.627C57.1267 102.478 57.4087 102.453 57.6497 102.581C57.8855 102.709 58.024 102.955 58.0188 103.211C58.2142 103.052 58.4962 103.011 58.7418 103.124C58.9879 103.237 59.1371 103.477 59.1468 103.729C59.3365 103.565 59.6083 103.504 59.8647 103.601C60.2179 103.744 60.3979 104.149 60.2543 104.503C60.1467 104.78 59.8852 104.944 59.6083 104.944C59.5211 104.944 59.4391 104.929 59.3519 104.898Z" fill="white"/>
<path d="M55.1666 102.586C55.1204 102.586 55.0743 102.581 55.0276 102.57C54.9815 102.56 54.9405 102.55 54.8994 102.529C54.8533 102.514 54.8123 102.494 54.7769 102.468C54.741 102.442 54.7046 102.412 54.6744 102.381C54.6385 102.35 54.6128 102.314 54.5872 102.278C54.5616 102.237 54.541 102.197 54.5205 102.156C54.5052 102.115 54.4893 102.069 54.4795 102.027C54.4744 101.981 54.4688 101.935 54.4688 101.889C54.4688 101.842 54.4744 101.796 54.4795 101.755C54.4898 101.709 54.5052 101.668 54.5205 101.622C54.5354 101.581 54.5616 101.54 54.5872 101.504C54.6128 101.468 54.6385 101.432 54.6744 101.396C54.7051 101.366 54.741 101.335 54.7769 101.309C54.8123 101.289 54.8533 101.263 54.8994 101.248C54.9405 101.232 54.9815 101.217 55.0276 101.207C55.2537 101.166 55.4942 101.238 55.6537 101.396C55.6891 101.432 55.7152 101.468 55.7408 101.504C55.7665 101.54 55.787 101.581 55.8075 101.622C55.8229 101.668 55.8383 101.709 55.8434 101.755C55.8536 101.796 55.8583 101.842 55.8583 101.889C55.8583 101.935 55.8531 101.981 55.8434 102.027C55.8377 102.069 55.8229 102.115 55.8075 102.156C55.787 102.197 55.7665 102.237 55.7408 102.278C55.7152 102.314 55.6891 102.351 55.6537 102.381C55.5255 102.509 55.3455 102.586 55.1666 102.586Z" fill="white"/>
<path d="M82.9455 99.0629C82.6317 103.327 81.6826 110.509 79.3456 122.599L59.2773 122.002C59.8039 114.594 59.0092 109.07 57.1936 96.1054C56.8624 93.7392 58.5636 91.5755 60.9406 91.3304C62.2291 91.1976 63.6925 91.0879 65.1666 91.0607C68.5485 90.9981 71.3183 90.973 74.2793 91.3319C75.2571 91.4509 76.2672 91.6047 77.2316 91.7693C80.732 92.3671 83.2059 95.522 82.9455 99.0629Z" fill="#00C0B5"/>
<path d="M76.7539 75.4005C76.8011 75.7963 77.0498 76.0921 77.3082 76.0609C77.5666 76.0296 77.7383 75.684 77.6907 75.2877C77.643 74.8918 77.3948 74.596 77.1364 74.6273C76.878 74.6585 76.7067 75.0046 76.7539 75.4005Z" fill="#263238"/>
<path d="M77.0273 74.6616L77.9451 74.2734C77.9451 74.2734 77.5467 75.0748 77.0273 74.6616Z" fill="#263238"/>
<path d="M76.8945 76.0078C76.8945 76.0078 77.7708 77.6316 78.6086 78.3653C78.1446 78.916 77.2288 78.7991 77.2288 78.7991L76.8945 76.0078Z" fill="#630F0F"/>
<path d="M76.8025 71.9198C76.8471 71.8537 76.8563 71.766 76.8199 71.6886C76.7645 71.5717 76.6246 71.5219 76.5077 71.5773C75.3381 72.1326 75.1802 73.2027 75.174 73.2478C75.1566 73.376 75.2463 73.4939 75.3745 73.5113C75.5022 73.5288 75.6201 73.4396 75.6381 73.3119C75.6432 73.2765 75.7744 72.4443 76.7086 72.0008C76.7481 71.9819 76.7799 71.9531 76.8025 71.9198Z" fill="#263238"/>
<path d="M63.0992 75.3064C63.9806 80.1327 64.2503 82.1944 67.0052 84.3955C71.149 87.7067 76.8839 85.5687 77.4628 80.5762C77.9837 76.0826 76.4548 68.9449 71.4639 67.58C66.5463 66.2362 62.2178 70.48 63.0992 75.3064Z" fill="#7F3E3B"/>
<path d="M73.7301 76.6577C74.5438 79.3096 76.4824 85.7213 72.1996 87.1487C68.8494 88.2654 58.36 89.1586 57.1525 83.0125C55.9035 76.6572 61.5702 72.1344 61.5702 72.1344C61.5702 72.1344 57.0807 68.452 59.9571 64.4414C63.6647 59.271 72.5411 62.1946 75.176 65.8478C77.7371 69.3985 73.7301 76.6577 73.7301 76.6577Z" fill="#263238"/>
<path d="M65.6117 88.0324C63.8941 88.0324 61.7637 87.6817 60.0091 86.9269C57.627 85.901 56.2365 84.3156 55.9883 82.3426C55.1464 75.6407 61.3827 71.9578 61.4463 71.9219L61.6945 72.3515C61.6345 72.3864 55.6807 75.9099 56.481 82.2806C56.7651 84.5407 58.6632 85.8071 60.2055 86.4711C63.2501 87.7822 67.1833 87.775 68.138 87.0751L68.4313 87.4756C67.9344 87.8391 66.8869 88.0324 65.6117 88.0324Z" fill="#263238"/>
<path d="M59.6375 71.1765C59.5811 72.0338 58.87 73.2115 61.8423 73.654C64.8146 74.097 68.9441 74.055 69.7916 73.3397C70.6387 72.625 71.4744 70.9155 69.7019 71.0683C67.9289 71.2216 59.7334 69.7111 59.6375 71.1765Z" fill="#00C0B5"/>
<path d="M72.1081 77.4103C72.6162 78.3758 73.5228 79.0167 74.3836 79.269C75.6783 79.6479 76.3423 78.4942 75.9962 77.2637C75.6849 76.1562 74.6364 74.6242 73.3305 74.7852C72.044 74.9436 71.5272 76.3064 72.1081 77.4103Z" fill="#7F3E3B"/>
<path d="M103.386 178.757L108.144 178.666L105.84 166.789L101.082 166.879L103.386 178.757Z" fill="#7F3E3B"/>
<path d="M106.955 173.586C108.214 178.326 112.84 183.344 112.84 183.344L106.237 181.667L103.352 177.566L103.857 176.481L106.955 173.586Z" fill="#7F3E3B"/>
<path d="M102.267 175.791C102.247 176.317 102.287 176.917 102.363 177.449C102.641 179.41 103.507 184.608 103.507 184.608L103.955 184.611C103.955 184.611 103.53 181.112 103.592 179.822C103.653 178.533 104.485 180.813 105.49 182.102C106.495 183.392 108.305 184.567 111.232 184.658C114.66 184.765 116.025 184.621 114.927 183.765C113.828 182.909 111.493 182.351 111.493 182.351C111.493 182.351 108.796 181.383 106.869 178.485C105.619 176.605 103.525 175.246 102.615 174.805C102.341 174.853 102.283 175.372 102.267 175.791Z" fill="#263238"/>
<path d="M120.238 162.615L126.312 162.803L119.518 152.703L115.312 156.298L120.238 162.615Z" fill="#7F3E3B"/>
<path d="M121.684 158.328C126.096 160.384 133.164 159.979 133.164 159.979L127.419 164.589L122.492 164.224L121.972 163.129L121.684 158.328Z" fill="#7F3E3B"/>
<path d="M120.746 163.565C121.12 163.941 121.585 164.321 122.023 164.625C123.634 165.747 127.985 168.623 127.985 168.623L128.264 168.272C128.264 168.272 125.433 166.212 124.523 165.281C123.615 164.351 125.803 165.256 127.37 165.348C128.938 165.44 130.917 164.82 132.792 162.58C134.987 159.958 135.725 158.785 134.419 159.064C133.112 159.342 131.26 160.797 131.26 160.797C131.26 160.797 128.883 162.255 125.565 161.789C123.414 161.486 121.123 162.203 120.237 162.617C120.103 162.866 120.448 163.266 120.746 163.565Z" fill="#263238"/>
<path d="M72.3465 122.247C72.3465 122.247 104.836 117.441 108.199 125.769C114.051 140.258 122.316 156.861 122.316 156.861L118.325 160.162C118.325 160.162 104.16 147.049 99.1203 132.492C93.1013 134.439 73.9509 140.706 66.9367 140.706C59.4452 140.706 56.3857 134.318 59.0914 123.713C59.3324 122.767 60.1943 122.112 61.17 122.117C65.8861 122.14 72.3465 122.247 72.3465 122.247Z" fill="#263238"/>
<path d="M75.4601 126.477C75.4601 126.477 102.125 125.674 102.35 135.121C102.722 150.744 107.125 173.129 107.125 173.129L102.261 173.582C102.261 173.582 94.3091 155.776 92.2054 140.515C82.7071 141.131 73.9501 140.705 66.936 140.705C59.0753 140.705 58.4257 132.073 66.0772 122C70.7538 122 75.4601 126.477 75.4601 126.477Z" fill="#263238"/>
<path d="M59.0107 120.813L58.4441 122.594C58.3698 122.732 58.5308 122.878 58.7625 122.886L79.4168 123.5C79.5978 123.505 79.7501 123.421 79.765 123.308L79.9993 121.517C80.0157 121.393 79.8619 121.282 79.664 121.277L59.3419 120.672C59.1927 120.668 59.0589 120.724 59.0107 120.813Z" fill="white"/>
<path d="M61.6705 123.169L61.126 123.152C61.0178 123.149 60.9368 123.091 60.946 123.022L61.2706 120.696C61.2798 120.628 61.3767 120.575 61.4849 120.578L62.0294 120.594C62.1376 120.597 62.2186 120.656 62.2094 120.724L61.8848 123.05C61.8756 123.119 61.7792 123.172 61.6705 123.169Z" fill="#263238"/>
<path d="M77.8809 123.653L77.3369 123.637C77.2287 123.633 77.1477 123.575 77.157 123.507L77.4815 121.181C77.4913 121.112 77.5877 121.06 77.6959 121.063L78.2404 121.079C78.3486 121.082 78.4296 121.14 78.4203 121.208L78.0958 123.535C78.086 123.603 77.9896 123.656 77.8809 123.653Z" fill="#263238"/>
<path d="M69.7755 123.411L69.2315 123.394C69.1233 123.391 69.0423 123.333 69.0515 123.265L69.3761 120.938C69.3853 120.87 69.4822 120.817 69.5904 120.82L70.1349 120.837C70.2431 120.84 70.3241 120.898 70.3149 120.967L69.9903 123.293C69.9801 123.361 69.8837 123.414 69.7755 123.411Z" fill="#263238"/>
<path d="M94.5084 100.852H107.48C107.894 100.852 108.193 101.249 108.077 101.647L103.229 118.284C103.152 118.549 102.909 118.731 102.633 118.731H89.6611C89.2468 118.731 88.9484 118.334 89.0643 117.936L93.9116 101.299C93.989 101.034 94.2321 100.852 94.5084 100.852Z" fill="#00C0B5"/>
<path d="M94.7481 101.461L107.355 101.76L102.377 117.452L89.7695 117.153L94.7481 101.461Z" fill="#E0E0E0"/>
<path d="M94.3501 101.305L106.961 101.357L102.29 117.143L89.6797 117.091L94.3501 101.305Z" fill="white"/>
<path d="M82.9809 101.633C83.006 102.133 83.0537 102.755 83.0993 103.323C83.1501 103.904 83.2136 104.485 83.2905 105.063C83.4341 106.222 83.6264 107.368 83.8643 108.488C84.1109 109.604 84.4016 110.699 84.78 111.721C84.9687 112.234 85.1769 112.728 85.4056 113.195C85.5163 113.434 85.6419 113.655 85.766 113.876L85.9532 114.192C85.9373 114.171 85.9152 114.17 85.9326 114.188C85.968 114.268 86.33 114.5 86.7494 114.665C87.1791 114.84 87.6923 114.986 88.2266 115.107C89.3018 115.354 90.4718 115.516 91.6552 115.637C94.0235 115.868 96.4975 115.983 98.9216 116.032L99.1662 118.489C96.6349 118.977 94.1271 119.286 91.5224 119.353C90.2206 119.383 88.9039 119.359 87.5252 119.189C86.8345 119.097 86.1295 118.975 85.3784 118.755C84.6283 118.519 83.8187 118.248 82.9255 117.49C82.7071 117.304 82.4845 117.063 82.282 116.794L81.9518 116.332C81.7452 116.028 81.5406 115.72 81.3622 115.408C80.9889 114.787 80.6725 114.151 80.3946 113.511C79.8296 112.23 79.4056 110.934 79.0708 109.632C78.7313 108.332 78.4868 107.026 78.3078 105.718C78.2222 105.062 78.1525 104.407 78.0966 103.749C78.0381 103.078 78.0038 102.458 77.9961 101.714L82.9809 101.633Z" fill="#7F3E3B"/>
<path d="M81.2956 94.0655C84.5242 97.1055 83.7464 105.028 83.7464 105.028L77.5598 106.11C77.5598 106.11 73.7405 100.43 75.0828 98.0479C76.481 95.5673 79.5487 92.4207 81.2956 94.0655Z" fill="#00C0B5"/>
<path d="M83.743 105.728C83.563 105.728 83.3789 105.652 83.2507 105.523C83.2195 105.493 83.1892 105.457 83.1636 105.416C83.1431 105.38 83.1169 105.339 83.1021 105.298C83.0867 105.257 83.0708 105.211 83.061 105.164C83.0559 105.124 83.0508 105.077 83.0508 105.031C83.0508 104.847 83.1231 104.667 83.2513 104.539C83.2866 104.508 83.3179 104.477 83.3589 104.452C83.3943 104.426 83.4353 104.406 83.4769 104.39C83.523 104.37 83.564 104.359 83.6102 104.349C83.8312 104.303 84.0716 104.38 84.2362 104.539C84.3644 104.667 84.4413 104.847 84.4413 105.031C84.4413 105.077 84.4362 105.124 84.4264 105.164C84.4157 105.211 84.4059 105.257 84.3854 105.298C84.37 105.339 84.3495 105.38 84.3239 105.416C84.2983 105.457 84.2675 105.493 84.2367 105.523C84.107 105.651 83.927 105.728 83.743 105.728Z" fill="white"/>
<path d="M78.1235 106.099C78.0922 105.715 78.3742 105.376 78.7587 105.346C79.0254 105.32 79.2771 105.453 79.4099 105.674C79.4919 105.433 79.7022 105.243 79.9688 105.202C80.2359 105.166 80.4923 105.284 80.641 105.494C80.7076 105.248 80.9076 105.048 81.1686 104.997C81.4352 104.941 81.6967 105.048 81.8556 105.248C81.9074 104.997 82.0971 104.786 82.3581 104.714V104.72C82.7324 104.618 83.1118 104.843 83.2092 105.212C83.3067 105.582 83.0862 105.966 82.7114 106.063C82.4401 106.135 82.1581 106.032 81.9889 105.822C81.9325 106.083 81.7269 106.299 81.4449 106.36C81.1681 106.412 80.8912 106.294 80.7374 106.073C80.6656 106.335 80.4507 106.54 80.1682 106.581C79.8862 106.622 79.615 106.483 79.476 106.258C79.3889 106.509 79.1633 106.703 78.8762 106.73C78.8556 106.73 78.8403 106.73 78.8198 106.73C78.4619 106.73 78.1588 106.458 78.1235 106.099Z" fill="white"/>
<path d="M77.5601 106.807C77.5139 106.807 77.4678 106.801 77.4216 106.792C77.3755 106.781 77.3345 106.766 77.2935 106.751C77.2473 106.735 77.2114 106.71 77.1704 106.689C77.1345 106.663 77.0986 106.633 77.0679 106.602C77.0325 106.571 77.0063 106.535 76.9807 106.494C76.9551 106.458 76.9346 106.417 76.914 106.376C76.8987 106.33 76.8833 106.289 76.8782 106.243C76.8679 106.202 76.8633 106.156 76.8633 106.11C76.8633 106.064 76.8684 106.017 76.8782 105.971C76.8838 105.93 76.8987 105.884 76.914 105.843C76.9346 105.802 76.9551 105.761 76.9807 105.72C77.0063 105.684 77.0325 105.648 77.0679 105.618C77.0991 105.587 77.1345 105.556 77.1704 105.53C77.2114 105.505 77.2473 105.484 77.2935 105.469C77.3345 105.448 77.3755 105.438 77.4216 105.428C77.6467 105.382 77.8882 105.453 78.0472 105.618C78.0831 105.648 78.1087 105.684 78.1343 105.72C78.16 105.761 78.1805 105.802 78.201 105.843C78.2164 105.884 78.2323 105.93 78.242 105.971C78.2471 106.017 78.2528 106.064 78.2528 106.11C78.2528 106.156 78.2471 106.202 78.242 106.243C78.2318 106.289 78.2164 106.33 78.201 106.376C78.1805 106.417 78.16 106.458 78.1343 106.494C78.1087 106.53 78.0831 106.571 78.0472 106.602C77.919 106.73 77.7395 106.807 77.5601 106.807Z" fill="white"/>
<path d="M104.699 113.463L102.559 113.318C102.025 113.282 101.494 113.424 101.049 113.723L97.1157 116.365L97.0859 118.03C98.3462 119.496 101.138 118.184 101.138 118.184L103.726 118.101C104.149 118.087 104.521 117.818 104.666 117.42L105.603 114.85C105.839 114.202 105.388 113.509 104.699 113.463Z" fill="#7F3E3B"/>
<path d="M60.291 186.362H60.8719C61.0986 186.362 61.2929 186.163 61.3319 185.891L64.9005 161.055H62.1907L59.8275 185.726C59.7947 186.065 60.0116 186.362 60.291 186.362Z" fill="#00C0B5"/>
<path opacity="0.3" d="M60.291 186.362H60.8719C61.0986 186.362 61.2929 186.163 61.3319 185.891L64.9005 161.055H62.1907L59.8275 185.726C59.7947 186.065 60.0116 186.362 60.291 186.362Z" fill="black"/>
<path d="M52.8573 186.362H53.4383C53.6649 186.362 53.8587 186.163 53.8982 185.891L57.4668 161.055H54.757L52.3938 185.726C52.3615 186.065 52.5784 186.362 52.8573 186.362Z" fill="#00C0B5"/>
<path opacity="0.3" d="M52.8573 186.362H53.4383C53.6649 186.362 53.8587 186.163 53.8982 185.891L57.4668 161.055H54.757L52.3938 185.726C52.3615 186.065 52.5784 186.362 52.8573 186.362Z" fill="black"/>
<path d="M94.2852 186.362H93.7043C93.4777 186.362 93.2833 186.163 93.2444 185.891L89.6758 161.055H92.3856L94.7487 185.726C94.7815 186.065 94.5647 186.362 94.2852 186.362Z" fill="#00C0B5"/>
<path opacity="0.3" d="M94.2852 186.362H93.7043C93.4777 186.362 93.2833 186.163 93.2444 185.891L89.6758 161.055H92.3856L94.7487 185.726C94.7815 186.065 94.5647 186.362 94.2852 186.362Z" fill="black"/>
<path d="M101.719 186.362H101.138C100.911 186.362 100.717 186.163 100.678 185.891L97.1094 161.055H99.8192L102.182 185.726C102.215 186.065 101.998 186.362 101.719 186.362Z" fill="#00C0B5"/>
<path opacity="0.3" d="M101.719 186.362H101.138C100.911 186.362 100.717 186.163 100.678 185.891L97.1094 161.055H99.8192L102.182 185.726C102.215 186.065 101.998 186.362 101.719 186.362Z" fill="black"/>
<path d="M111.353 131.619H93.0994C89.861 120.373 78.2081 111.5 66.2749 111.5H66.2733H60.3462C47.855 111.5 39.7939 121.219 42.3411 133.208C42.8087 135.41 43.604 137.533 44.6638 139.535L47.5422 156.982C47.914 159.234 49.7106 161.059 51.5549 161.059H106.495C108.34 161.059 110.136 159.234 110.508 156.982L114.02 135.696C114.392 133.444 113.198 131.619 111.353 131.619Z" fill="#00C0B5"/>
<path opacity="0.5" d="M111.353 131.619H93.0994C89.861 120.373 78.2081 111.5 66.2749 111.5H66.2733H60.3462C47.855 111.5 39.7939 121.219 42.3411 133.208C42.8087 135.41 43.604 137.533 44.6638 139.535L47.5422 156.982C47.914 159.234 49.7106 161.059 51.5549 161.059H106.495C108.34 161.059 110.136 159.234 110.508 156.982L114.02 135.696C114.392 133.444 113.198 131.619 111.353 131.619Z" fill="white"/>
<path d="M108.973 49.8281H104.785V50.3409H108.973V49.8281Z" fill="#00C0B5"/>
<path d="M89.3799 55.8701H88.8672V53.3475C88.8672 51.4068 90.4464 49.8281 92.3871 49.8281H101.734V50.3409H92.3871C90.7289 50.3409 89.3799 51.6898 89.3799 53.3475V55.8701Z" fill="#00C0B5"/>
<path d="M139.137 73.4078H92.3894C91.4367 73.4078 90.6641 72.6352 90.6641 71.6825V53.3503C90.6641 52.3977 91.4367 51.625 92.3894 51.625H139.137C140.089 51.625 140.862 52.3977 140.862 53.3503V71.6825C140.862 72.6352 140.089 73.4078 139.137 73.4078Z" fill="#00C0B5"/>
<path d="M136.923 63.6779H94.5968C93.9564 63.6779 93.4375 63.1591 93.4375 62.5187C93.4375 61.8783 93.9564 61.3594 94.5968 61.3594H136.923C137.563 61.3594 138.082 61.8783 138.082 62.5187C138.082 63.1591 137.563 63.6779 136.923 63.6779Z" fill="white"/>
<path d="M127.865 68.4826H94.5968C93.9564 68.4826 93.4375 67.9637 93.4375 67.3233C93.4375 66.6829 93.9564 66.1641 94.5968 66.1641H127.865C128.505 66.1641 129.024 66.6829 129.024 67.3233C129.024 67.9637 128.505 68.4826 127.865 68.4826Z" fill="white"/>
<path d="M108.871 58.8576H94.5968C93.9564 58.8576 93.4375 58.3387 93.4375 57.6983C93.4375 57.0579 93.9564 56.5391 94.5968 56.5391H108.871C109.511 56.5391 110.03 57.0579 110.03 57.6983C110.03 58.3387 109.511 58.8576 108.871 58.8576Z" fill="white"/>
<path d="M127.793 58.8576H113.519C112.878 58.8576 112.359 58.3387 112.359 57.6983C112.359 57.0579 112.878 56.5391 113.519 56.5391H127.793C128.433 56.5391 128.952 57.0579 128.952 57.6983C128.952 58.3387 128.433 58.8576 127.793 58.8576Z" fill="white"/>
<path d="M93.4375 72.0164V77.5703C93.4375 78.6393 94.6655 79.2418 95.511 78.5876L104.022 72L93.4375 72.0164Z" fill="#00C0B5"/>
<path d="M165.515 24.1172H118.768C117.815 24.1172 117.043 24.8899 117.043 25.8425V44.1747C117.043 45.1273 117.816 45.9 118.768 45.9H155.698L162.391 51.0801C163.236 51.7344 164.464 51.1319 164.464 50.0629V45.8995H165.516C166.469 45.8995 167.241 45.1268 167.241 44.1742V25.8425C167.241 24.8899 166.468 24.1172 165.515 24.1172Z" fill="white"/>
<path d="M163.174 51.6058C162.841 51.6058 162.509 51.4961 162.233 51.2812L155.608 46.1549H118.767C117.674 46.1549 116.785 45.2659 116.785 44.1732V25.8411C116.785 24.7484 117.674 23.8594 118.767 23.8594H165.514C166.607 23.8594 167.496 24.7484 167.496 25.8411V44.1732C167.496 45.2659 166.607 46.1549 165.514 46.1549H164.719V50.0614C164.719 50.6547 164.388 51.1848 163.856 51.4463C163.638 51.5535 163.406 51.6058 163.174 51.6058ZM118.767 24.3721C117.957 24.3721 117.298 25.031 117.298 25.8411V44.1732C117.298 44.9834 117.957 45.6422 118.767 45.6422H155.783L162.546 50.8757C162.863 51.1218 163.268 51.1643 163.63 50.9864C163.991 50.809 164.206 50.4634 164.206 50.0614V45.6422H165.514C166.324 45.6422 166.982 44.9834 166.982 44.1732V25.8411C166.982 25.031 166.324 24.3721 165.514 24.3721H118.767Z" fill="#00C0B5"/>
<path d="M141.14 36.1701H163.302C163.942 36.1701 164.461 35.6512 164.461 35.0108C164.461 34.3704 163.942 33.8516 163.302 33.8516H141.14C140.499 33.8516 139.98 34.3704 139.98 35.0108C139.98 35.6512 140.499 36.1701 141.14 36.1701Z" fill="#00C0B5"/>
<path d="M125.667 36.1701H136.64C137.28 36.1701 137.799 35.6512 137.799 35.0108C137.799 34.3704 137.28 33.8516 136.64 33.8516H125.667C125.027 33.8516 124.508 34.3704 124.508 35.0108C124.508 35.6512 125.027 36.1701 125.667 36.1701Z" fill="#00C0B5"/>
<path d="M130.034 40.9826H163.302C163.943 40.9826 164.462 40.4637 164.462 39.8233C164.462 39.1829 163.943 38.6641 163.302 38.6641H130.034C129.394 38.6641 128.875 39.1829 128.875 39.8233C128.875 40.4632 129.394 40.9826 130.034 40.9826Z" fill="#00C0B5"/>
<path d="M120.976 31.3576H163.302C163.942 31.3576 164.461 30.8387 164.461 30.1983C164.461 29.5579 163.942 29.0391 163.302 29.0391H120.976C120.335 29.0391 119.816 29.5579 119.816 30.1983C119.816 30.8387 120.336 31.3576 120.976 31.3576Z" fill="#00C0B5"/>
</svg>
