<svg width="257" height="192" viewBox="0 0 257 192" fill="none" xmlns="http://www.w3.org/2000/svg">
<path d="M256.365 168.844H0V168.972H256.365V168.844Z" fill="#EBEBEB"/>
<path d="M230.678 177.094H213.695V177.222H230.678V177.094Z" fill="#EBEBEB"/>
<path d="M154.559 177.156H150.102V177.284H154.559V177.156Z" fill="#EBEBEB"/>
<path d="M213.18 172.336H181.676V172.464H213.18V172.336Z" fill="#EBEBEB"/>
<path d="M115.438 175.359H108.93V175.488H115.438V175.359Z" fill="#EBEBEB"/>
<path d="M104.366 175.359H85.4805V175.488H104.366V175.359Z" fill="#EBEBEB"/>
<path d="M39.9372 173.195H26.8984V173.323H39.9372V173.195Z" fill="#EBEBEB"/>
<path d="M81.4096 173.195H43.0117V173.323H81.4096V173.195Z" fill="#EBEBEB"/>
<path d="M121.524 145.978H22.5165C20.9029 145.978 19.5898 144.665 19.5898 143.051V3.87979C19.5898 2.26623 20.9029 0.953125 22.5165 0.953125H121.524C123.137 0.953125 124.45 2.26623 124.45 3.87979V143.051C124.45 144.665 123.137 145.978 121.524 145.978ZM22.5165 1.08182C20.9732 1.08182 19.718 2.33698 19.718 3.8803V143.052C19.718 144.595 20.9732 145.85 22.5165 145.85H121.524C123.067 145.85 124.322 144.595 124.322 143.052V3.87979C124.322 2.33698 123.067 1.08131 121.524 1.08131L22.5165 1.08182Z" fill="#EBEBEB"/>
<path d="M232.426 145.978H133.418C131.805 145.978 130.492 144.665 130.492 143.051V3.87979C130.492 2.26623 131.805 0.953125 133.418 0.953125H232.426C234.04 0.953125 235.352 2.26623 235.352 3.87979V143.051C235.353 144.665 234.04 145.978 232.426 145.978ZM133.418 1.08182C131.876 1.08182 130.62 2.33698 130.62 3.8803V143.052C130.62 144.595 131.876 145.85 133.418 145.85H232.426C233.969 145.85 235.224 144.595 235.224 143.052V3.87979C235.224 2.33698 233.969 1.08131 232.426 1.08131L133.418 1.08182Z" fill="#EBEBEB"/>
<path d="M97.8118 100.711L222.426 100.711V9.68439L97.8118 9.68439L97.8118 100.711Z" fill="#E6E6E6"/>
<path d="M92.3034 100.711L221.148 100.711V9.68439L92.3034 9.68439V100.711Z" fill="#F0F0F0"/>
<path d="M213.438 93.0073V17.4062L100.018 17.4062L100.018 93.0073L213.438 93.0073Z" fill="#FAFAFA"/>
<path d="M185.868 93.0073L160.048 17.4062H135.391L161.211 93.0073H185.868Z" fill="white"/>
<path d="M155.913 93.0073L130.093 17.4062H120.48L146.301 93.0073H155.913Z" fill="white"/>
<path d="M100.996 93.0073L100.996 17.4062H100.017L100.017 93.0073H100.996Z" fill="#E6E6E6"/>
<path d="M33.1113 75.9531H77.1133L77.1133 13.5687L33.1113 13.5687L33.1113 75.9531Z" fill="#E0E0E0"/>
<path d="M29.9905 75.9531H75.3477L75.3477 13.5687L29.9905 13.5687L29.9905 75.9531Z" fill="#F5F5F5"/>
<path d="M70.8711 71.0362L70.8711 18.4844L34.4683 18.4844L34.4683 71.0362H70.8711Z" fill="white"/>
<path d="M50.2085 119.627C53.4751 111.568 61.2435 108.567 63.9271 103.479C67.4434 96.8121 67.4234 86.8113 64.4296 83.2022C61.8285 80.0663 53.2141 101.272 52.2441 103.641C48.9067 111.79 47.9366 117.837 47.3111 123.696C47.3823 118.716 47.4505 114.143 47.5064 110.615C47.689 99.1081 47.9171 95.4067 48.0212 94.2679C48.3806 93.7116 48.8057 93.0635 49.0523 92.7159C51.1371 89.7769 55.7624 86.278 58.0738 82.0055C61.4491 75.7671 60.9036 68.3007 58.5363 65.5207C56.0608 62.614 51.6852 69.4841 49.3615 76.2916C47.0383 83.0991 48.031 89.6149 47.3793 95.2683C47.2429 96.3773 47.1029 100.589 46.9716 106.431C46.2666 100.145 44.8628 95.9338 42.2612 92.0093C39.0612 87.1825 36.2987 81.3051 33.6617 82.0649C31.0252 82.8248 32.4445 90.6014 34.5302 96.0615C36.3879 100.924 45.5524 105.773 46.9024 109.683C46.7435 117.601 46.6015 127.634 46.5005 136.974C45.778 132.149 46.2748 131.744 43.3143 124.358C41.5541 119.966 34.3385 114.551 33.4781 117.568C32.6337 120.529 33.9257 126.288 36.6499 130.282C38.8474 133.504 43.723 133.501 44.851 135.5C45.114 135.966 45.9846 137.754 46.4815 138.782C46.3636 150.186 46.3113 160.252 46.3692 163.684L46.8419 163.718C46.8194 162.832 46.8763 157.031 46.9691 149.355C48.153 145.27 56.1234 142.886 58.5855 138.638C61.1625 134.192 63.014 129.004 61.909 125.531C60.9876 122.635 53.7243 126.573 50.7766 131.372C48.8134 134.569 47.6141 137.98 47.0542 142.564C47.1214 137.334 47.1978 131.716 47.2721 126.413C47.8689 125.091 49.2297 122.043 50.2085 119.627Z" fill="#E6E6E6"/>
<path d="M54.8874 168.843H38.134C37.2187 168.843 36.4296 168.198 36.2481 167.301L35.0586 161.438H57.9633L56.7737 167.301C56.5917 168.198 55.8032 168.843 54.8874 168.843Z" fill="#F0F0F0"/>
<path d="M58.4432 163.714H34.5803C34.0086 163.714 33.5276 163.285 33.464 162.716L32.9759 158.382C32.9011 157.716 33.422 157.133 34.0921 157.133H58.9308C59.601 157.133 60.1224 157.716 60.0471 158.382L59.5589 162.716C59.4954 163.285 59.0149 163.714 58.4432 163.714Z" fill="#F0F0F0"/>
<path d="M207.98 165.117H213.102V110.003H207.98V165.117Z" fill="#F0F0F0"/>
<path d="M103.602 168.789H211.137V165.116H103.602V168.789Z" fill="#F0F0F0"/>
<path d="M207.979 110.008H101.633V165.122H207.979V110.008Z" fill="#F5F5F5"/>
<path d="M209.184 110.008H214.477V106.534H209.184V110.008Z" fill="#E0E0E0"/>
<path d="M209.185 106.531H100.258V110.005H209.185V106.531Z" fill="#EBEBEB"/>
<path d="M200.347 133.812H109.266C106.995 133.812 105.148 131.965 105.148 129.694V117.891C105.148 115.62 106.996 113.773 109.266 113.773H200.347C202.618 113.773 204.465 115.62 204.465 117.891V129.694C204.465 131.965 202.618 133.812 200.347 133.812ZM109.266 114.799C107.561 114.799 106.174 116.186 106.174 117.891V129.694C106.174 131.399 107.561 132.786 109.266 132.786H200.347C202.052 132.786 203.439 131.399 203.439 129.694V117.891C203.439 116.186 202.052 114.799 200.347 114.799H109.266Z" fill="white"/>
<path d="M200.347 158.499H109.266C106.995 158.499 105.148 156.652 105.148 154.382V142.579C105.148 140.308 106.996 138.461 109.266 138.461H200.347C202.618 138.461 204.465 140.308 204.465 142.579V154.382C204.465 156.653 202.618 158.499 200.347 158.499ZM109.266 139.486C107.561 139.486 106.174 140.874 106.174 142.579V154.382C106.174 156.087 107.561 157.474 109.266 157.474H200.347C202.052 157.474 203.439 156.087 203.439 154.382V142.579C203.439 140.874 202.052 139.486 200.347 139.486H109.266Z" fill="white"/>
<path d="M179.648 125.61H129.964C129.23 125.61 128.633 125.012 128.633 124.278V123.308C128.633 122.574 129.23 121.977 129.964 121.977H179.648C180.382 121.977 180.98 122.574 180.98 123.308V124.278C180.98 125.012 180.382 125.61 179.648 125.61ZM129.964 123.003C129.799 123.003 129.658 123.143 129.658 123.309V124.279C129.658 124.444 129.798 124.585 129.964 124.585H179.648C179.814 124.585 179.954 124.445 179.954 124.279V123.309C179.954 123.143 179.814 123.003 179.648 123.003H129.964Z" fill="white"/>
<path d="M179.648 150.297H129.964C129.23 150.297 128.633 149.7 128.633 148.966V147.996C128.633 147.261 129.23 146.664 129.964 146.664H179.648C180.382 146.664 180.98 147.261 180.98 147.996V148.966C180.98 149.7 180.382 150.297 179.648 150.297ZM129.964 147.69C129.799 147.69 129.658 147.83 129.658 147.996V148.966C129.658 149.132 129.798 149.272 129.964 149.272H179.648C179.814 149.272 179.954 149.132 179.954 148.966V147.996C179.954 147.831 179.814 147.69 179.648 147.69H129.964Z" fill="white"/>
<path d="M125.616 192.002C180.52 192.002 225.029 189.403 225.029 186.196C225.029 182.99 180.52 180.391 125.616 180.391C70.7117 180.391 26.2031 182.99 26.2031 186.196C26.2031 189.403 70.7117 192.002 125.616 192.002Z" fill="#F5F5F5"/>
<path d="M192.156 58.7849L191.961 61.8047L192.473 61.8378L192.668 58.818L192.156 58.7849Z" fill="#00C0B5"/>
<path d="M192.949 46.5384L192.309 56.4609L192.82 56.494L193.461 46.5715L192.949 46.5384Z" fill="#00C0B5"/>
<path d="M186.858 32.1172H126.584C123.427 32.1172 120.677 34.7003 120.472 37.8577L112.688 158.092C112.483 161.25 114.899 163.833 118.057 163.833H178.33C181.488 163.833 184.238 161.25 184.442 158.092L192.227 37.8577C192.431 34.7003 190.015 32.1172 186.858 32.1172Z" fill="#00C0B5"/>
<path opacity="0.7" d="M184.944 32.1172H126.584C123.427 32.1172 120.677 34.7003 120.472 37.8577L112.688 158.092C112.483 161.25 114.899 163.833 118.057 163.833H176.417C179.575 163.833 182.325 161.25 182.529 158.092L190.314 37.8577C190.518 34.7003 188.102 32.1172 184.944 32.1172Z" fill="white"/>
<path d="M180.022 154.948H115.826C114.811 154.948 114.008 154.091 114.074 153.08L121.118 44.2824C121.178 43.359 121.944 42.6406 122.869 42.6406H187.066C188.081 42.6406 188.883 43.4974 188.818 44.509L181.774 153.306C181.714 154.23 180.948 154.948 180.022 154.948Z" fill="white"/>
<path d="M165.76 39.0789H142.427C141.913 39.0789 141.523 38.6626 141.557 38.1488C141.59 37.6351 142.034 37.2188 142.547 37.2188H165.881C166.394 37.2188 166.784 37.6351 166.751 38.1488C166.717 38.6626 166.274 39.0789 165.76 39.0789Z" fill="white"/>
<path d="M147.547 159.52C147.482 160.782 146.405 161.805 145.143 161.805C143.881 161.805 142.911 160.782 142.976 159.52C143.041 158.258 144.117 157.234 145.379 157.234C146.642 157.234 147.612 158.258 147.547 159.52Z" fill="white"/>
<path opacity="0.2" d="M173.032 72.7734H118.213L114.73 126.562H173.032C176.189 126.562 178.772 123.979 178.772 120.822V78.5135C178.772 75.3566 176.189 72.7734 173.032 72.7734Z" fill="#00C0B5"/>
<path d="M167.924 121.782H100.741C97.5831 121.782 95 119.199 95 116.041V73.7327C95 70.5753 97.5831 67.9922 100.741 67.9922H167.924C171.081 67.9922 173.665 70.5753 173.665 73.7327V116.041C173.664 119.199 171.081 121.782 167.924 121.782Z" fill="#00C0B5"/>
<path d="M93.1666 67.3824C93.0353 67.3824 92.904 67.3322 92.8041 67.2322L91.8847 66.3129C91.6843 66.1124 91.6843 65.7883 91.8847 65.5879C92.0852 65.3874 92.4093 65.3874 92.6097 65.5879L93.5291 66.5072C93.7295 66.7077 93.7295 67.0317 93.5291 67.2322C93.4291 67.3327 93.2978 67.3824 93.1666 67.3824Z" fill="#00C0B5"/>
<path d="M91.7813 70.5958H90.4815C90.1979 70.5958 89.9688 70.3661 89.9688 70.083C89.9688 69.8 90.1979 69.5703 90.4815 69.5703H91.7813C92.0648 69.5703 92.294 69.8 92.294 70.083C92.294 70.3661 92.0648 70.5958 91.7813 70.5958Z" fill="#00C0B5"/>
<path d="M96.4291 65.9944C96.1625 65.9944 95.9374 65.7883 95.9184 65.5181L95.8256 64.2214C95.8051 63.9389 96.0179 63.6938 96.3004 63.6733C96.5885 63.6523 96.828 63.8661 96.848 64.1481L96.9408 65.4448C96.9613 65.7273 96.7485 65.9724 96.466 65.9929C96.4537 65.9939 96.4414 65.9944 96.4291 65.9944Z" fill="#00C0B5"/>
<path d="M140.074 116.258L160.697 136.88V116.258H140.074Z" fill="#00C0B5"/>
<path d="M145.726 107.225L144.727 102.871C144.465 101.728 144.462 100.542 144.718 99.3985L146.108 93.1955C147.346 87.6651 144.54 82.14 139.676 79.7086C139.718 79.5932 139.765 79.4809 139.793 79.3584C140.147 77.7766 139.152 76.2072 137.571 75.8529C135.989 75.4986 134.419 76.4933 134.065 78.075C134.037 78.1976 134.033 78.3196 134.021 78.4416C128.585 78.5657 123.689 82.3651 122.45 87.8954L121.061 94.0984C120.804 95.2418 120.295 96.3139 119.571 97.2353L116.81 100.747C115.632 102.245 116.42 104.459 118.28 104.875L142.635 110.332C144.494 110.748 146.152 109.082 145.726 107.225Z" fill="white"/>
<path d="M127.334 108.568C126.533 108.388 125.813 109.083 125.951 109.893C126.229 111.528 127.464 112.912 129.182 113.297C130.901 113.682 132.608 112.957 133.558 111.597C134.028 110.924 133.673 109.988 132.872 109.808L127.334 108.568Z" fill="white"/>
<path d="M108.629 99.924C108.381 99.924 108.137 99.804 107.989 99.582C105.549 95.9278 104.678 91.5429 105.537 87.2344C106.396 82.9259 108.881 79.2097 112.535 76.7701C112.888 76.5342 113.365 76.6296 113.601 76.9829C113.837 77.3362 113.742 77.814 113.389 78.0499C110.077 80.2613 107.824 83.6299 107.046 87.5354C106.267 91.4409 107.056 95.4161 109.268 98.7283C109.504 99.0816 109.408 99.5589 109.056 99.7948C108.924 99.8819 108.776 99.924 108.629 99.924Z" fill="white"/>
<path d="M111.89 97.7457C111.641 97.7457 111.398 97.6257 111.25 97.4037C109.391 94.6206 108.728 91.2807 109.382 87.9987C110.036 84.7172 111.929 81.8864 114.712 80.0283C115.065 79.7919 115.543 79.8873 115.779 80.2411C116.014 80.5943 115.919 81.0722 115.566 81.3081C113.125 82.938 111.464 85.4212 110.89 88.2996C110.316 91.1786 110.898 94.1084 112.528 96.55C112.764 96.9033 112.668 97.3806 112.316 97.6165C112.185 97.7036 112.036 97.7457 111.89 97.7457Z" fill="white"/>
<path d="M115.147 95.5753C114.899 95.5753 114.655 95.4554 114.507 95.2333C113.23 93.3214 112.774 91.0259 113.223 88.7709C113.673 86.5159 114.973 84.5711 116.886 83.2939C117.239 83.0575 117.716 83.1529 117.952 83.5067C118.188 83.86 118.093 84.3378 117.74 84.5737C116.169 85.6222 115.102 87.2199 114.732 89.0719C114.363 90.9238 114.738 92.8092 115.786 94.3796C116.022 94.7329 115.927 95.2103 115.574 95.4461C115.442 95.5333 115.294 95.5753 115.147 95.5753Z" fill="white"/>
<path d="M152.969 110.748C152.691 110.748 152.422 110.596 152.285 110.332C152.09 109.955 152.238 109.49 152.616 109.295C156.155 107.469 158.77 104.373 159.981 100.579C161.191 96.7847 160.851 92.7465 159.024 89.2076C158.829 88.8303 158.977 88.3662 159.355 88.1714C159.732 87.9776 160.196 88.1242 160.391 88.5021C162.406 92.4055 162.781 96.8606 161.446 101.046C160.111 105.232 157.225 108.647 153.322 110.662C153.208 110.72 153.087 110.748 152.969 110.748Z" fill="white"/>
<path d="M151.168 107.264C150.89 107.264 150.621 107.112 150.484 106.848C150.289 106.471 150.438 106.006 150.815 105.812C153.424 104.465 155.352 102.183 156.244 99.3866C157.135 96.5897 156.885 93.6128 155.538 91.0045C155.343 90.6271 155.492 90.1631 155.869 89.9683C156.246 89.7745 156.71 89.9211 156.905 90.299C158.44 93.2723 158.726 96.6656 157.709 99.8537C156.692 103.042 154.494 105.643 151.521 107.179C151.408 107.237 151.287 107.264 151.168 107.264Z" fill="white"/>
<path d="M149.371 103.779C149.093 103.779 148.824 103.628 148.687 103.364C148.493 102.986 148.641 102.522 149.018 102.327C150.696 101.461 151.937 99.9929 152.51 98.1938C153.084 96.3941 152.924 94.4795 152.057 92.8014C151.862 92.424 152.01 91.9595 152.387 91.7651C152.765 91.5713 153.229 91.718 153.423 92.0959C155.601 96.3136 153.941 101.516 149.724 103.694C149.611 103.752 149.49 103.779 149.371 103.779Z" fill="white"/>
<path d="M104.266 37.2891H100.349C100.144 37.2891 99.9583 37.4567 99.9367 37.6623L99.1153 45.4763C99.0938 45.6814 99.244 45.8496 99.4491 45.8496H103.366C103.571 45.8496 103.757 45.6819 103.779 45.4763L104.6 37.6623C104.622 37.4572 104.471 37.2891 104.266 37.2891Z" fill="#00C0B5"/>
<path opacity="0.4" d="M103.914 37.2891H100.349C100.144 37.2891 99.9583 37.4567 99.9367 37.6623L99.1153 45.4763C99.0938 45.6814 99.244 45.8496 99.4491 45.8496H103.014C103.219 45.8496 103.405 45.6819 103.426 45.4763L104.248 37.6623C104.269 37.4572 104.119 37.2891 103.914 37.2891Z" fill="white"/>
<path d="M84.6352 181.782C85.1679 181.782 85.6796 181.708 85.8417 181.469C85.8986 181.385 85.9396 181.242 85.8145 181.039C85.7448 180.925 85.6361 180.847 85.493 180.809C84.7936 180.621 83.379 181.448 83.319 181.483C83.2847 181.504 83.2672 181.544 83.2754 181.584C83.2836 181.625 83.3165 181.657 83.357 181.665C83.6236 181.718 84.1384 181.782 84.6352 181.782ZM85.2582 180.977C85.3274 180.977 85.392 180.984 85.4494 180.999C85.5412 181.024 85.6063 181.069 85.6478 181.137C85.7227 181.259 85.7001 181.319 85.6766 181.354C85.4951 181.622 84.446 181.628 83.6692 181.52C84.0456 181.322 84.7731 180.977 85.2582 180.977Z" fill="#00C0B5"/>
<path d="M83.3761 181.669C83.39 181.669 83.4033 181.666 83.4161 181.66C83.9073 181.435 84.861 180.537 84.7646 180.068C84.7421 179.958 84.658 179.82 84.3862 179.793C84.1837 179.773 84.0037 179.83 83.8484 179.962C83.3392 180.396 83.2762 181.514 83.2736 181.562C83.2715 181.596 83.289 181.63 83.3182 181.651C83.3356 181.662 83.3556 181.669 83.3761 181.669ZM84.3155 179.985C84.335 179.985 84.3544 179.986 84.3744 179.988C84.5524 180.006 84.5667 180.076 84.5708 180.099C84.6287 180.381 83.9853 181.087 83.4874 181.394C83.5264 181.067 83.6448 180.398 83.9796 180.114C84.0801 180.027 84.1909 179.985 84.3155 179.985Z" fill="#00C0B5"/>
<path d="M82.9529 171.953H78.8008V181.568H82.9529V171.953Z" fill="#FF8B7B"/>
<path d="M48.6797 176.989L52.8267 177.438L55.5323 168.105L51.3854 167.656L48.6797 176.989Z" fill="#FF8B7B"/>
<path d="M54.7571 178.387C55.2791 178.519 55.7985 178.575 56.0164 178.385C56.0928 178.319 56.1682 178.193 56.0959 177.967C56.0559 177.84 55.9682 177.739 55.8374 177.667C55.1986 177.314 53.6081 177.758 53.5404 177.777C53.5014 177.788 53.4743 177.822 53.4727 177.863C53.4712 177.904 53.4948 177.942 53.5327 177.96C53.7814 178.077 54.2705 178.265 54.7571 178.387ZM55.5667 177.77C55.6344 177.787 55.6959 177.81 55.7482 177.838C55.8323 177.884 55.8846 177.944 55.9087 178.019C55.9518 178.155 55.9149 178.208 55.8831 178.235C55.639 178.447 54.6095 178.194 53.8752 177.898C54.2931 177.801 55.0914 177.65 55.5667 177.77Z" fill="#00C0B5"/>
<path d="M53.5508 177.961C53.5642 177.965 53.578 177.966 53.5918 177.963C54.1287 177.869 55.2849 177.243 55.3064 176.77C55.3115 176.659 55.2628 176.506 55.0039 176.413C54.8106 176.343 54.6199 176.353 54.4353 176.442C53.8292 176.732 53.4908 177.788 53.477 177.833C53.4667 177.866 53.4749 177.902 53.4985 177.929C53.5129 177.946 53.5313 177.956 53.5508 177.961ZM54.8875 176.58C54.9065 176.585 54.926 176.591 54.9449 176.598C55.1147 176.659 55.1116 176.729 55.11 176.752C55.0972 177.036 54.2922 177.554 53.7282 177.725C53.8472 177.421 54.1287 176.81 54.5271 176.62C54.6465 176.563 54.7655 176.549 54.8875 176.58Z" fill="#00C0B5"/>
<path d="M53.049 177.051L48.5129 175.749C48.3478 175.702 48.177 175.773 48.1017 175.923L46.4291 179.237C46.2558 179.581 46.4625 180.013 46.8455 180.116C48.436 180.544 49.2276 180.673 51.2227 181.246C52.4501 181.598 54.9471 182.45 56.6417 182.936C58.2994 183.411 58.9664 181.831 58.3096 181.482C55.3645 179.917 54.4216 178.654 53.6438 177.484C53.5038 177.273 53.2905 177.12 53.049 177.051Z" fill="#263238"/>
<path d="M82.9067 181.086H78.3727C78.2029 181.086 78.0609 181.204 78.0317 181.369L77.3728 185.06C77.3046 185.443 77.6107 185.805 78.0025 185.798C79.6371 185.771 81.9961 185.675 84.0517 185.675C86.4553 185.675 87.77 185.806 90.589 185.806C92.2933 185.806 92.6912 184.083 91.9708 183.927C88.6919 183.216 86.8035 183.14 83.9209 181.409C83.6081 181.221 83.2651 181.086 82.9067 181.086Z" fill="#263238"/>
<path opacity="0.2" d="M82.9505 171.961H78.7969V176.917H82.9505V171.961Z" fill="black"/>
<path opacity="0.2" d="M51.385 167.656L55.5335 168.105L54.0306 173.282L49.9883 172.467L51.385 167.656Z" fill="black"/>
<path d="M76.1202 76.3594C76.1202 76.3594 73.8319 107.692 71.7651 119.579C69.5019 132.597 56.3478 172.455 56.3478 172.455L48.8086 171.079C48.8086 171.079 58.3085 133.648 59.3611 120.759C60.5035 106.771 61.8781 77.9376 61.8781 77.9376L76.1202 76.3594Z" fill="#00C0B5"/>
<path opacity="0.3" d="M72.2588 89.3673C72.6736 87.641 73.616 89.8103 74.7117 93.5697C73.8826 102.871 72.7982 113.644 71.7645 119.578C71.5317 120.907 71.1851 122.52 70.7539 124.343C71.1344 111.072 71.1461 94.0239 72.2588 89.3673Z" fill="black"/>
<path d="M83.9501 75.4922C83.9501 75.4922 86.9635 107.006 87.0655 119.667C87.1716 132.836 84.4577 175.958 84.4577 175.958H77.4241C77.4241 175.958 75.3137 133.606 74.4354 120.672C73.4776 106.572 69.4414 77.0996 69.4414 77.0996L83.9501 75.4922Z" fill="#00C0B5"/>
<path d="M57.9403 169.915C57.9726 169.92 56.7594 172.644 56.7594 172.644L48.2773 171.097L48.7921 168.562L57.9403 169.915Z" fill="#263238"/>
<path d="M85.6897 173.156C85.722 173.156 85.4205 176.076 85.4205 176.076H76.8646L76.5195 173.47L85.6897 173.156Z" fill="#263238"/>
<path d="M62.0979 47.4015C61.535 48.4962 60.9156 49.6426 60.348 50.7768L58.6257 54.1895C58.0679 55.3309 57.5218 56.4722 56.9932 57.6135C56.483 58.759 55.9821 59.8988 55.5386 61.0365L55.5001 59.2394C55.818 60.1392 56.1328 61.0581 56.5779 61.9389C56.7784 62.3881 57.0306 62.8177 57.2532 63.2648C57.507 63.6961 57.7505 64.136 58.0289 64.5595C58.5642 65.4193 59.1549 66.2607 59.7907 67.0755C60.1101 67.4815 60.4285 67.8928 60.7669 68.286C61.0976 68.6695 61.4729 69.0787 61.7724 69.4115L61.8754 69.5258C62.421 70.1334 62.3712 71.0681 61.7636 71.6136C61.2822 72.0459 60.5931 72.1028 60.0573 71.8059C59.4707 71.4798 59.0011 71.1773 58.5052 70.8297C58.0197 70.4877 57.5403 70.1365 57.0799 69.7606C56.158 69.0105 55.2976 68.1819 54.4865 67.2923C53.6805 66.4007 52.9206 65.447 52.2566 64.4139C51.5695 63.3966 50.9968 62.2866 50.481 61.1442C50.2513 60.6356 50.2267 60.0864 50.3713 59.5901L50.4426 59.3471C50.8338 58.0094 51.2696 56.7101 51.7516 55.439C52.2315 54.1705 52.7452 52.9241 53.2887 51.6966C53.8286 50.4686 54.4039 49.2612 55.0012 48.066C55.616 46.8713 56.2062 45.7023 56.9019 44.5081C57.729 43.0889 59.5497 42.6095 60.9684 43.436C62.34 44.2354 62.8342 45.9628 62.119 47.3584L62.0979 47.4015Z" fill="#FF8B7B"/>
<path d="M65.0438 45.5914C65.2478 49.5015 60.8071 56.6869 60.8071 56.6869L51.6641 52.1185C51.6641 52.1185 53.2238 47.163 56.7283 43.2857C61.5685 37.9323 64.8546 41.97 65.0438 45.5914Z" fill="#263238"/>
<path d="M58.8477 71.079L60.6884 74.1564L64.5185 71.7056C64.5185 71.7056 63.5007 69.7485 61.541 69.0255C60.9586 68.8107 60.2982 69.0876 59.9834 69.6757L58.8477 71.079Z" fill="#FF8B7B"/>
<path d="M62.2236 75.4635L64.0033 75.1302C64.6335 75.0123 65.0467 74.4032 64.9237 73.774L64.5176 71.7031L60.6875 74.154L60.9469 74.7739C61.1567 75.2763 61.6889 75.5635 62.2236 75.4635Z" fill="#FF8B7B"/>
<path d="M73.0223 25.9209C73.0623 26.2567 73.2705 26.5146 73.4869 26.4977C73.7032 26.4803 73.8463 26.1947 73.8058 25.8589C73.7658 25.523 73.5576 25.2651 73.3412 25.282C73.1254 25.299 72.9823 25.5851 73.0223 25.9209Z" fill="#263238"/>
<path d="M73.2383 26.5156C73.2383 26.5156 74.2222 28.3922 75.1626 29.2608C74.6432 29.8612 73.6172 29.6869 73.6172 29.6869L73.2383 26.5156Z" fill="#FF5652"/>
<path d="M71.5864 24.1556C71.6392 24.1623 71.6931 24.1474 71.7346 24.1105C72.3699 23.5465 73.0575 23.7362 73.0862 23.7439C73.1918 23.7736 73.2969 23.7141 73.3231 23.6101C73.3492 23.5055 73.2861 23.3962 73.1815 23.365C73.1457 23.3537 72.2653 23.1025 71.4695 23.809C71.3895 23.8792 71.3849 24.0043 71.4583 24.0874C71.4931 24.1264 71.5393 24.15 71.5864 24.1556Z" fill="#263238"/>
<path d="M62.6875 29.6328C63.6678 32.5984 64.9697 38.0739 63.1105 40.2643C63.1105 40.2643 64.3308 43.2535 69.9549 42.7797C76.139 42.2588 72.5176 39.4721 72.5176 39.4721C69.0392 38.9532 68.8059 36.4511 69.093 34.0587L62.6875 29.6328Z" fill="#FF8B7B"/>
<path d="M61.7855 41.3505C61.2025 40.4225 60.557 39.3596 61.6547 38.9643C62.8627 38.5295 69.6272 37.8214 72.0365 38.4141C74.4458 39.0068 73.9577 40.9685 73.9577 40.9685L61.7855 41.3505Z" fill="#00C0B5"/>
<path d="M81.6058 42.6035C82.4882 43.4147 83.4419 44.3089 84.3894 45.1318C85.3369 45.9721 86.2988 46.793 87.2617 47.6037C88.2328 48.401 89.2111 49.1777 90.1986 49.9207C91.1944 50.6426 92.1916 51.3389 93.2002 51.949L91.1431 51.7573C91.9035 51.5655 92.7238 51.1989 93.5252 50.6529C94.3241 50.1078 95.1234 49.4346 95.8684 48.6635C96.6262 47.9036 97.3394 47.052 98.028 46.1654C98.37 45.7204 98.7146 45.2692 99.0376 44.8031C99.355 44.3453 99.6857 43.8448 99.9687 43.4162L100.025 43.3316C100.475 42.6486 101.394 42.4605 102.077 42.9106C102.632 43.2767 102.859 43.954 102.683 44.5606C102.489 45.2266 102.286 45.7958 102.047 46.3946C101.812 46.9848 101.568 47.5729 101.289 48.1477C100.731 49.2977 100.089 50.4211 99.3268 51.5035C98.5582 52.5777 97.684 53.6282 96.6078 54.565C95.5387 55.5002 94.2595 56.3478 92.7402 56.883C92.0968 57.1097 91.422 57.0517 90.8534 56.7749L90.6832 56.6913C89.3824 56.0519 88.1559 55.35 86.9828 54.5958C85.8143 53.842 84.6909 53.0458 83.6013 52.2182C82.5128 51.3917 81.4617 50.5278 80.4363 49.6382C79.4128 48.7286 78.4264 47.8544 77.4276 46.8356C76.2785 45.6625 76.2975 43.7797 77.4706 42.6307C78.6043 41.5201 80.4009 41.5006 81.5576 42.5599L81.6058 42.6035Z" fill="#FF8B7B"/>
<path d="M78.4689 39.9452C78.4689 39.9452 83.6347 44.9612 84.2325 75.9788C75.9719 77.98 68.0164 78.7189 61.8749 77.9385C61.5801 74.0474 61.1473 60.5441 57.1978 46.3035C56.4938 43.765 58.0915 41.1691 60.6782 40.6697C61.4637 40.5179 62.2887 40.3779 63.1085 40.2687C65.9188 39.8949 70.0006 39.4601 72.5151 39.477C75.8299 39.4986 78.4689 39.9452 78.4689 39.9452Z" fill="#263238"/>
<path d="M74.4584 45.341C74.9542 49.225 81.6125 56.6821 81.6125 56.6821L89.5255 48.481C89.5255 48.481 86.1035 44.7996 81.9232 41.6627C76.1504 37.3322 73.999 41.7437 74.4584 45.341Z" fill="#263238"/>
<path d="M102.196 45.9149L104.84 43.4928L101.669 40.2344C101.669 40.2344 99.956 41.6254 99.6422 43.6902C99.5489 44.3039 99.9535 44.8951 100.593 45.0853L102.196 45.9149Z" fill="#FF8B7B"/>
<path d="M105.817 41.7224L105.132 40.0463C104.89 39.4525 104.21 39.1705 103.619 39.4177L101.672 40.2319L104.844 43.4903L105.399 43.1119C105.848 42.8053 106.022 42.2259 105.817 41.7224Z" fill="#FF8B7B"/>
<path d="M61.8982 26.0864C62.6406 30.1887 62.8703 32.6191 65.1761 34.572C68.6447 37.51 73.4367 35.2242 73.9146 31.0327C74.3447 27.26 73.0583 21.1847 68.8831 19.8598C64.77 18.5543 61.1558 21.984 61.8982 26.0864Z" fill="#FF8B7B"/>
<path d="M69.9866 27.5708C71.4279 27.9026 72.5641 26.2367 72.6994 25.7619C71.9985 25.8296 70.7552 25.4681 70.5065 25.1513C71.2751 25.2189 72.0211 24.2694 72.1118 23.9079C71.2751 23.7951 70.3486 23.0711 70.0999 22.5963C71.3433 22.5738 72.8435 20.3808 71.4714 18.4135C70.0999 16.4466 64.3799 18.0971 63.5657 16.6953C62.3674 17.3962 63.4298 18.3232 63.4298 18.3232C63.4298 18.3232 55.3358 19.8378 59.0664 22.9809C56.331 23.2295 55.9465 26.4664 58.2297 28.1148C60.5134 29.7633 60.6262 30.8487 59.7217 30.7128C60.0832 31.4137 61.7085 31.504 61.8003 30.8262C62.1859 32.2505 63.2939 34.1722 65.8488 33.8559C68.4038 33.5395 70.9131 29.9673 69.9866 27.5708Z" fill="#263238"/>
<path d="M59.7853 22.5068C57.859 22.7718 56.9792 21.6838 57.4637 20.7266C55.0754 21.9458 57.6831 24.6448 59.7853 22.5068Z" fill="#263238"/>
<path d="M67.9862 26.9481C68.3159 27.8424 68.9947 28.6058 69.6685 29.0565C70.6816 29.7343 71.624 29.0637 71.4471 28.0141C71.2877 27.0697 70.5688 25.5786 69.5013 25.3125C68.4497 25.0505 67.6093 25.9258 67.9862 26.9481Z" fill="#FF8B7B"/>
<path d="M198.322 171.482C194.528 162.529 192.995 152.011 197.338 152.434C201.794 152.868 201.269 168.741 201.994 170.484C200.601 171.679 198.322 171.482 198.322 171.482Z" fill="#00C0B5"/>
<path d="M199.55 154.5C198.614 157.912 197.629 163.19 196.871 167.661C197.302 168.942 197.788 170.23 198.318 171.486C198.318 171.486 200.597 171.683 201.995 170.488C201.423 169.115 201.626 158.94 199.55 154.5Z" fill="#263238"/>
<path d="M199.568 169.837C198.382 150.814 201.634 133.183 210.152 133.979C217.475 134.664 206.799 166.69 207.005 170.385C203.651 171.685 199.568 169.837 199.568 169.837Z" fill="#00C0B5"/>
<path d="M205.105 169.717C206.448 156.045 213.658 140.09 216.757 145.42C220.691 152.186 210.613 168.308 210.334 170.961C207.799 171.501 205.105 169.717 205.105 169.717Z" fill="#00C0B5"/>
<path d="M203.744 139.056C202.881 138.914 202.399 138.374 202.453 137.611C202.515 136.751 203.222 135.896 203.881 135.883C204.194 135.885 204.729 136.045 204.862 137.235L204.352 137.292C204.289 136.729 204.119 136.396 203.895 136.396C203.894 136.396 203.892 136.396 203.891 136.396C203.54 136.402 203.009 137.034 202.965 137.647C202.929 138.147 203.219 138.45 203.827 138.55L203.744 139.056Z" fill="#00C0B5"/>
<path d="M212.959 142.507C212.7 142.507 212.359 142.407 211.911 142.113L212.191 141.684C212.668 141.995 213.036 142.077 213.176 141.899C213.394 141.625 213.246 140.813 212.801 140.389C212.439 140.043 212.02 140.073 211.555 140.478L211.219 140.092C211.877 139.518 212.602 139.49 213.155 140.018C213.778 140.612 213.987 141.702 213.577 142.218C213.472 142.353 213.279 142.507 212.959 142.507Z" fill="#00C0B5"/>
<path d="M200.386 150.239C199.693 150.239 199.202 149.877 199.045 149.232C198.841 148.395 199.252 147.365 199.875 147.151C200.167 147.052 200.731 147.045 201.222 148.138L200.754 148.348C200.522 147.829 200.257 147.563 200.041 147.636C199.709 147.749 199.397 148.514 199.543 149.111C199.661 149.597 200.031 149.796 200.64 149.706L200.715 150.213C200.601 150.23 200.491 150.239 200.386 150.239Z" fill="#00C0B5"/>
<path d="M194.931 160.859C194.405 160.859 193.986 160.593 193.755 160.092C193.397 159.309 193.605 158.218 194.176 157.89C194.445 157.736 194.998 157.624 195.686 158.604L195.266 158.899C194.939 158.433 194.627 158.223 194.431 158.335C194.128 158.509 193.966 159.319 194.222 159.878C194.431 160.333 194.831 160.459 195.412 160.254L195.582 160.738C195.352 160.819 195.133 160.859 194.931 160.859Z" fill="#00C0B5"/>
<path d="M204.013 145.381C203.961 145.381 203.909 145.365 203.863 145.333C203.159 144.829 202.906 144.133 203.187 143.471C203.483 142.773 204.287 142.308 204.979 142.435C205.295 142.493 206.036 142.775 206.088 144.14C206.093 144.281 205.983 144.401 205.842 144.406C205.704 144.41 205.581 144.301 205.575 144.16C205.549 143.45 205.304 143.016 204.886 142.939C204.433 142.857 203.859 143.198 203.658 143.672C203.473 144.11 203.651 144.551 204.161 144.916C204.277 144.999 204.303 145.159 204.221 145.274C204.171 145.344 204.092 145.381 204.013 145.381Z" fill="white"/>
<path d="M210.09 159.221C209.972 159.221 209.865 159.137 209.84 159.016C209.811 158.878 209.9 158.742 210.039 158.713C210.735 158.569 211.121 158.255 211.127 157.83C211.134 157.37 210.701 156.861 210.2 156.742C209.74 156.632 209.332 156.881 209.057 157.445C208.995 157.574 208.841 157.625 208.714 157.563C208.587 157.501 208.534 157.348 208.597 157.221C208.976 156.442 209.617 156.075 210.319 156.243C211.058 156.419 211.65 157.134 211.64 157.837C211.635 158.159 211.48 158.937 210.143 159.214C210.125 159.219 210.108 159.221 210.09 159.221Z" fill="white"/>
<path d="M217.299 154.898C217.004 154.898 216.609 154.722 216.164 154.059L216.59 153.773C216.907 154.246 217.213 154.459 217.413 154.355C217.72 154.186 217.899 153.38 217.655 152.816C217.456 152.357 217.058 152.223 216.473 152.414L216.313 151.928C217.142 151.654 217.821 151.91 218.125 152.612C218.468 153.403 218.237 154.488 217.659 154.804C217.568 154.854 217.446 154.898 217.299 154.898Z" fill="#00C0B5"/>
<path d="M215.768 174.737C215.768 171.887 214.725 169.284 213.003 167.282C213.36 167.222 213.638 166.924 213.638 166.552C213.638 166.136 213.299 165.797 212.883 165.797H195.717C195.301 165.797 194.962 166.137 194.962 166.552C194.962 166.925 195.242 167.224 195.6 167.283C193.875 169.284 192.832 171.888 192.832 174.737C192.832 179.135 195.312 182.954 198.947 184.878C198.682 185.018 198.497 185.293 198.497 185.613C198.497 186.072 198.873 186.448 199.331 186.448H209.27C209.729 186.448 210.104 186.072 210.104 185.613C210.104 185.294 209.92 185.018 209.655 184.878C213.29 182.955 215.768 179.135 215.768 174.737Z" fill="#263238"/>
</svg>
