<svg width="30" height="30" viewBox="0 0 30 30" fill="none" xmlns="http://www.w3.org/2000/svg">
<g clip-path="url(#clip0_34433_4178)">
<path d="M16.9566 29.9995H13.0428C11.4241 29.9995 10.1074 28.6828 10.1074 27.0641V22.498C10.1074 21.9575 10.5457 21.5195 11.0859 21.5195H18.9135C19.4537 21.5195 19.892 21.9575 19.892 22.498V27.0641C19.8921 28.6827 18.5753 29.9995 16.9566 29.9995Z" fill="#DBE1E5"/>
<path d="M18.9138 21.5195H15V29.9995H16.9569C18.5756 29.9995 19.8923 28.6828 19.8923 27.0641V22.498C19.8923 21.9575 19.454 21.5195 18.9138 21.5195Z" fill="#C9D3D9"/>
<path d="M21.7894 2.40741C19.8586 0.835335 17.4712 0.00687809 14.999 0.000374188C14.2359 -0.00612972 13.4596 0.0721515 12.6898 0.235218C8.46937 1.11582 5.13609 4.57309 4.39898 8.85219C3.68144 13.04 5.37093 17.143 8.81507 19.5697C9.63697 20.1437 10.1067 20.9787 10.1067 21.8592V23.477H19.8913V21.9832C19.8913 21.0308 20.3805 20.1371 21.2416 19.524C24.0725 17.5019 25.7621 14.2272 25.7621 10.757C25.762 7.50196 24.3139 4.45561 21.7894 2.40741Z" fill="#FFE14D"/>
<path d="M25.7631 10.7566C25.7631 14.2269 24.0735 17.5014 21.2426 19.5236C20.3815 20.1368 19.8923 21.0305 19.8923 21.9828V23.4766H15V0C17.4722 0.00644531 19.8597 0.834961 21.7904 2.40703C24.3149 4.45523 25.7631 7.50158 25.7631 10.7566Z" fill="#FFCC33"/>
<path d="M15.9784 14.6699V23.476H14.0215V14.6699C14.0215 14.1285 14.4585 13.6914 14.9999 13.6914C15.5415 13.6914 15.9784 14.1285 15.9784 14.6699Z" fill="#FFC033"/>
<path d="M14.9998 15.6481C13.3812 15.6481 12.0645 14.3314 12.0645 12.7127C12.0645 11.0941 13.3812 9.77734 14.9998 9.77734C16.6184 9.77734 17.9352 11.0941 17.9352 12.7127C17.9352 14.3314 16.6185 15.6481 14.9998 15.6481ZM14.9998 11.7343C14.4603 11.7343 14.0214 12.1732 14.0214 12.7127C14.0214 13.2522 14.4603 13.6912 14.9998 13.6912C15.5394 13.6912 15.9783 13.2522 15.9783 12.7127C15.9783 12.1732 15.5394 11.7343 14.9998 11.7343Z" fill="#FFC033"/>
<path d="M9.12885 11.7339C9.66902 11.7339 10.1073 11.2959 10.1073 10.7554C10.1073 8.05768 12.3019 5.86316 14.9996 5.86316C15.5398 5.86316 15.978 5.42523 15.978 4.88471C15.978 4.34418 15.5398 3.90625 14.9996 3.90625C11.2228 3.90625 8.15039 6.97891 8.15039 10.7554C8.15039 11.2959 8.58861 11.7339 9.12885 11.7339Z" fill="white"/>
<path d="M15.9785 4.88471C15.9785 4.34418 15.5402 3.90625 15 3.90625V5.86316C15.5402 5.86316 15.9785 5.42523 15.9785 4.88471Z" fill="#DBE1E5"/>
<path d="M15.9785 23.476V14.6699C15.9785 14.1285 15.5415 13.6914 15 13.6914V23.476H15.9785Z" fill="#F9A926"/>
<path d="M15.9785 12.7127C15.9785 13.2522 15.5395 13.6912 15 13.6912V15.6481C16.6187 15.6481 17.9354 14.3314 17.9354 12.7127C17.9354 11.0941 16.6187 9.77734 15 9.77734V11.7343C15.5395 11.7343 15.9785 12.1731 15.9785 12.7127Z" fill="#F9A926"/>
</g>
<defs>
<clipPath id="clip0_34433_4178">
<rect width="30" height="30" fill="white"/>
</clipPath>
</defs>
</svg>
