<svg width="26" height="26" viewBox="0 0 26 26" fill="none" xmlns="http://www.w3.org/2000/svg">
<path d="M1 13.8571V20C1 21.1046 1.89543 22 3 22H23C24.1046 22 25 21.1046 25 20V13.8571M1 13.8571L5.55414 2.26849C5.85487 1.50323 6.59333 1 7.41556 1H19.3399C20.2047 1 20.9715 1.55576 21.2406 2.37756L25 13.8571M1 13.8571H6.65789C7.48632 13.8571 8.15789 14.5287 8.15789 15.3571V15.3571C8.15789 16.1856 8.82947 16.8571 9.6579 16.8571H16.3421C17.1705 16.8571 17.8421 16.1856 17.8421 15.3571V15.3571C17.8421 14.5287 18.5137 13.8571 19.3421 13.8571H21M25 13.8571H21M21 13.8571V9C21 7.89543 20.1046 7 19 7H7C5.89543 7 5 7.89543 5 9V13.8571" stroke="white" stroke-width="1.4"/>
</svg>
