<svg width="16" height="19" viewBox="0 0 16 19" fill="none" xmlns="http://www.w3.org/2000/svg">
<path d="M13.0013 7.33073C13.0013 4.5693 10.7627 2.33073 8.0013 2.33073C5.23988 2.33073 3.0013 4.5693 3.0013 7.33073V13.9974H13.0013V7.33073ZM14.668 14.553L15.0013 14.9974C15.1394 15.1815 15.1021 15.4426 14.918 15.5807C14.8459 15.6348 14.7581 15.6641 14.668 15.6641H1.33464C1.10452 15.6641 0.917969 15.4775 0.917969 15.2474C0.917969 15.1572 0.94721 15.0695 1.0013 14.9974L1.33464 14.553V7.33073C1.33464 3.64883 4.3194 0.664062 8.0013 0.664062C11.6832 0.664062 14.668 3.64883 14.668 7.33073V14.553ZM5.91797 16.4974H10.0846C10.0846 17.648 9.15189 18.5807 8.0013 18.5807C6.85072 18.5807 5.91797 17.648 5.91797 16.4974Z" fill="#0D0D0D"/>
</svg>
