<svg width="38" height="38" viewBox="0 0 38 38" fill="none" xmlns="http://www.w3.org/2000/svg">
<path d="M29.6637 19.1719H8.33625C6.03844 19.1719 4.15625 21.2322 4.15625 23.7497C4.15625 26.2672 6.03844 28.3275 8.33625 28.3275H29.6637C31.9645 28.3275 33.8438 26.2672 33.8438 23.7497C33.8438 21.2322 31.9616 19.1719 29.6637 19.1719Z" fill="#EDC391"/>
<path d="M34.7767 14.9253C34.6223 12.3841 33.5031 10.8878 31.9385 10.0625C30.6976 9.40641 29.1776 9.17188 27.6338 9.17188H10.3676C8.82384 9.17188 7.2979 9.40641 6.05696 10.0625C4.4954 10.8908 3.37915 12.387 3.22477 14.9283C3.01696 18.3364 4.32321 21.3586 6.36868 22.7955C7.15243 23.3506 8.04899 23.6683 9.0079 23.6831C9.03462 23.6861 9.05837 23.6861 9.08509 23.6861C9.12071 23.6861 9.15931 23.6861 9.19493 23.6831H28.9163C29.902 23.6831 30.8223 23.3625 31.6268 22.7955C33.6752 21.3616 34.9845 18.3364 34.7767 14.9253Z" fill="url(#paint0_linear_34264_5276)"/>
<path d="M18.9983 3.625C8.70562 3.625 5.91797 10.8688 5.91797 21.295C5.91797 31.6648 10.9827 36.7919 18.9983 36.7919C27.0139 36.7919 32.0786 31.6648 32.0786 21.295C32.0786 10.8688 29.2909 3.625 18.9983 3.625Z" fill="#F9DDBD"/>
<path d="M12.0632 31.2596C11.9504 31.2596 11.8346 31.2151 11.7486 31.129C11.5734 30.9539 11.5734 30.6718 11.7486 30.4996L14.5778 27.6704C14.7529 27.4953 15.032 27.4953 15.2071 27.6704C15.3823 27.8456 15.3823 28.1276 15.2071 28.2998L12.3779 31.129C12.2918 31.2151 12.1761 31.2596 12.0632 31.2596Z" fill="#EDBD82"/>
<path d="M25.9393 31.2585C25.8265 31.2585 25.7107 31.214 25.6246 31.1279L22.7954 28.2987C22.6203 28.1235 22.6203 27.8415 22.7954 27.6693C22.9706 27.4971 23.2526 27.4942 23.4248 27.6693L26.254 30.4985C26.4292 30.6737 26.4292 30.9557 26.254 31.1279C26.1679 31.214 26.0521 31.2585 25.9393 31.2585Z" fill="#EDBD82"/>
<path d="M12.7406 26.8605C11.9598 26.8605 11.1761 26.6081 10.5794 26.1064C10.3923 25.9491 10.3686 25.667 10.5259 25.48C10.6833 25.293 10.9653 25.2692 11.1523 25.4266C12.0281 26.1658 13.4501 26.1658 14.3259 25.4266C14.5129 25.2662 14.795 25.29 14.9523 25.48C15.1097 25.667 15.0889 25.9491 14.8989 26.1064C14.3051 26.6081 13.5244 26.8605 12.7406 26.8605Z" fill="#EDBD82"/>
<path d="M25.264 26.8605C24.4803 26.8605 23.6995 26.6081 23.1028 26.1064C22.9158 25.9491 22.892 25.667 23.0494 25.48C23.2067 25.293 23.4887 25.2692 23.6758 25.4266C24.5515 26.1658 25.9736 26.1658 26.8494 25.4266C27.0364 25.2662 27.3184 25.29 27.4758 25.48C27.6361 25.667 27.6123 25.9491 27.4223 26.1064C26.8286 26.6081 26.0478 26.8605 25.264 26.8605Z" fill="#EDBD82"/>
<path d="M12.7602 16.1384C12.5821 16.1384 12.4159 16.0316 12.3446 15.8564C12.2526 15.6278 12.3654 15.3695 12.594 15.2775C12.7038 15.233 15.2955 14.2266 18.8996 14.2266C22.5007 14.2266 25.2794 15.233 25.3952 15.2745C25.6268 15.3606 25.7455 15.6159 25.6594 15.8445C25.5734 16.0761 25.318 16.1948 25.0865 16.1088C25.0598 16.0998 22.3315 15.1142 18.8996 15.1142C15.4618 15.1142 12.9473 16.0939 12.9205 16.1028C12.8701 16.1295 12.8137 16.1384 12.7602 16.1384Z" fill="#EDBD82"/>
<path d="M23.4471 13.6405C23.4025 13.6405 23.358 13.6345 23.3135 13.6197C23.2927 13.6137 21.2769 12.9844 19.0028 12.9844C16.7288 12.9844 14.713 13.6137 14.6922 13.6197C14.4577 13.6939 14.2083 13.5633 14.1341 13.3287C14.0599 13.0942 14.1905 12.8448 14.425 12.7706C14.5111 12.7439 16.5863 12.0938 19.0028 12.0938C21.4194 12.0938 23.4946 12.7439 23.5807 12.7706C23.8152 12.8448 23.9458 13.0942 23.8716 13.3287C23.8122 13.5187 23.6371 13.6405 23.4471 13.6405Z" fill="#EDBD82"/>
<path d="M12.5995 24.9528C13.662 24.9528 14.5233 24.0609 14.5233 22.9608C14.5233 21.8606 13.662 20.9688 12.5995 20.9688C11.5371 20.9688 10.6758 21.8606 10.6758 22.9608C10.6758 24.0609 11.5371 24.9528 12.5995 24.9528Z" fill="#312D2D"/>
<path d="M25.4394 24.9528C26.5018 24.9528 27.3631 24.0609 27.3631 22.9608C27.3631 21.8606 26.5018 20.9688 25.4394 20.9688C24.3769 20.9688 23.5156 21.8606 23.5156 22.9608C23.5156 24.0609 24.3769 24.9528 25.4394 24.9528Z" fill="#312D2D"/>
<path d="M20.507 26.5873C20.4655 26.5695 20.4239 26.5606 20.3823 26.5547H17.6214C17.5798 26.5606 17.5383 26.5695 17.4967 26.5873C17.2473 26.6883 17.1078 26.9495 17.2266 27.2227C17.3453 27.4988 17.8945 28.2736 19.0019 28.2736C20.1092 28.2736 20.6584 27.4988 20.7772 27.2227C20.8959 26.9466 20.7594 26.6883 20.507 26.5873Z" fill="#DBA689"/>
<path d="M22.267 29.675C21.0231 30.4143 16.9499 30.4143 15.706 29.675C14.9935 29.2505 14.2632 29.9007 14.5601 30.5479C14.851 31.1861 17.0746 32.6646 18.9984 32.6646C20.9192 32.6646 23.116 31.1861 23.407 30.5479C23.7009 29.8977 22.9824 29.2505 22.267 29.675Z" fill="#444444"/>
<path d="M15.5956 19.2673C15.2185 18.7003 14.3398 17.875 12.6417 17.875C10.9435 17.875 10.0648 18.7003 9.68478 19.2673C9.51853 19.5197 9.5601 19.8077 9.67588 19.9828C9.78275 20.1461 10.1004 20.2975 10.4537 20.1609C10.807 20.0244 11.4928 19.6236 12.6417 19.6147C13.7906 19.6236 14.4793 20.0244 14.8296 20.1609C15.1799 20.2975 15.4976 20.1461 15.6074 19.9828C15.7232 19.8077 15.7648 19.5167 15.5956 19.2673Z" fill="#9E9E9E"/>
<path d="M28.3407 19.2673C27.9637 18.7003 27.0849 17.875 25.3838 17.875C23.6828 17.875 22.807 18.7003 22.427 19.2673C22.2607 19.5197 22.3023 19.8077 22.4181 19.9828C22.5249 20.1461 22.8426 20.2975 23.1959 20.1609C23.5492 20.0244 24.2349 19.6236 25.3838 19.6147C26.5328 19.6236 27.2185 20.0244 27.5718 20.1609C27.9221 20.2975 28.2398 20.1461 28.3496 19.9828C28.4654 19.8077 28.507 19.5167 28.3407 19.2673Z" fill="#9E9E9E"/>
<defs>
<linearGradient id="paint0_linear_34264_5276" x1="19.0007" y1="9.0892" x2="19.0007" y2="27.7357" gradientUnits="userSpaceOnUse">
<stop stop-color="#E0E0E0"/>
<stop offset="1" stop-color="#9E9E9E"/>
</linearGradient>
</defs>
</svg>
