<svg width="325" height="276" viewBox="0 0 325 276" fill="none" xmlns="http://www.w3.org/2000/svg">
<g clip-path="url(#clip0_34264_9370)">
<path d="M25.9936 256.611C22.403 244.611 16.577 219.093 24.5957 189.027C27.7464 177.183 37.8939 138.999 74.1341 120.471C78.3492 118.342 107.699 103.858 140.59 114.127C184.267 127.758 179.079 167.738 223.182 182.165C251.688 191.482 271.386 180.533 287.197 198.018C294.195 205.891 298.436 215.831 299.276 226.332C300.116 236.832 297.51 247.32 291.852 256.206L25.9936 256.611Z" fill="#EDEDED"/>
<path d="M27.2188 217.123C28.4026 217.645 29.5336 218.279 30.5965 219.017C34.8542 221.934 35.3723 224.694 39.3035 226.525C40.5179 227.086 41.8138 227.45 43.1426 227.604C45.3552 227.842 47.5924 227.523 49.6498 226.674C49.6498 226.674 53.0914 218.265 37.5082 214.469L36.9618 217.03L35.7129 214.98C34.6147 214.7 33.4745 214.626 32.3493 214.76C30.4399 215.012 28.6513 215.835 27.2188 217.123Z" fill="#00C0B5"/>
<path d="M32.2367 188.023C33.16 191.001 34.857 193.68 37.1543 195.787C39.5528 197.916 41.1921 198.029 44.7685 201.166C46.6845 202.84 47.9547 204.004 48.9198 205.885C50.0705 208.297 50.4353 211.01 49.9629 213.641C45.2283 213.126 40.7385 211.272 37.0195 208.297L38.5736 205.345L35.7351 207.034C33.8945 204.268 32.6353 201.156 32.0339 197.888C31.4325 194.62 31.5015 191.264 32.2367 188.023Z" fill="#00C0B5"/>
<path d="M53.9679 201.093C42.2734 198.539 37.9234 186.433 37.9234 186.433C38.264 185.794 43.43 184.254 43.43 184.254L36.6177 183.296C36.6177 183.296 35.3475 181.423 36.0429 177.307C36.7383 173.191 33.9141 167.5 33.9141 167.5C37.7676 168.366 41.4669 169.814 44.8848 171.793C48.5038 173.922 53.982 177.094 56.2386 183.303C56.6034 184.311 56.8672 185.352 57.0263 186.411L54.6846 189.676L57.2321 188.448C57.317 192.882 56.1883 197.255 53.9679 201.093Z" fill="#00C0B5"/>
<path d="M64.2983 207.577C64.2983 207.577 54.2572 188.858 80.2009 181.875C80.2009 181.875 77.3624 185.075 77.8024 191.313C78.2423 197.55 76.3831 198.572 76.3831 198.572L71.5364 197.927L75.5245 201.567C75.5245 201.567 70.3585 208.436 64.2983 207.577Z" fill="#00C0B5"/>
<path d="M80.931 213.8C80.931 213.8 63.4531 207.903 64.1202 223.259C64.1202 223.259 69.6623 228.227 74.8638 220.684L73.4446 217.788L75.8573 218.278C75.8573 218.278 79.157 214.276 80.931 213.8Z" fill="#00C0B5"/>
<path d="M57.7331 238.418C57.6475 238.406 57.5703 238.36 57.5184 238.291C57.4665 238.222 57.4442 238.135 57.4564 238.049C60.0607 220.146 74.6717 215.285 74.8136 215.242C74.8945 215.216 74.9826 215.223 75.0585 215.261C75.1343 215.3 75.1917 215.367 75.2181 215.448C75.2444 215.529 75.2376 215.617 75.199 215.693C75.1604 215.769 75.0932 215.826 75.0123 215.853C74.8704 215.902 60.6426 220.65 58.095 238.142C58.0898 238.184 58.0762 238.224 58.0551 238.261C58.034 238.298 58.0058 238.33 57.9721 238.356C57.9384 238.382 57.8999 238.401 57.8589 238.411C57.8179 238.422 57.7751 238.424 57.7331 238.418Z" fill="#0D0D0D"/>
<path d="M57.4363 241.876C57.3528 241.869 57.2755 241.829 57.2211 241.765C57.1666 241.701 57.1394 241.619 57.1453 241.535C58.1059 223.729 63.1643 206.385 71.9267 190.854C71.9466 190.817 71.974 190.783 72.0074 190.756C72.0407 190.73 72.0792 190.71 72.1205 190.699C72.1617 190.687 72.2049 190.685 72.2472 190.691C72.2895 190.697 72.3302 190.711 72.3666 190.734C72.4402 190.777 72.494 190.847 72.5166 190.929C72.5391 191.011 72.5286 191.099 72.4873 191.174C63.7693 206.611 58.7373 223.854 57.784 241.557C57.7822 241.599 57.7719 241.641 57.7537 241.68C57.7355 241.718 57.7098 241.753 57.678 241.781C57.6463 241.809 57.6092 241.831 57.5689 241.845C57.5286 241.859 57.4859 241.865 57.4434 241.862L57.4363 241.876Z" fill="#0D0D0D"/>
<path d="M56.7039 248.969C56.6617 248.963 56.6212 248.949 56.5847 248.927C56.5482 248.905 56.5164 248.876 56.4913 248.842C56.4662 248.807 56.4482 248.768 56.4384 248.727C56.4286 248.685 56.4272 248.642 56.4342 248.6C58.5303 235.386 58.1961 221.899 55.4479 208.805C53.6841 200.506 50.9622 192.441 47.3369 184.77C47.3024 184.692 47.2993 184.603 47.3284 184.523C47.3574 184.442 47.4164 184.376 47.493 184.337C47.531 184.318 47.5725 184.307 47.6149 184.305C47.6573 184.303 47.6997 184.309 47.7395 184.324C47.7794 184.338 47.8158 184.361 47.8466 184.39C47.8775 184.419 47.902 184.454 47.9188 184.493C51.5596 192.215 54.291 200.333 56.0581 208.684C58.8116 221.853 59.1387 235.414 57.0232 248.7C57.0127 248.776 56.9743 248.846 56.9153 248.896C56.8563 248.946 56.781 248.972 56.7039 248.969Z" fill="#0D0D0D"/>
<path d="M57.2872 243.334C57.2057 243.327 57.1297 243.289 57.0745 243.229C57.0193 243.168 56.9889 243.089 56.9892 243.007C57.1879 234.492 55.8041 218.511 44.3651 207.221C42.5452 205.425 40.5481 203.818 38.4043 202.424C38.3338 202.376 38.2842 202.304 38.2658 202.22C38.2473 202.137 38.2613 202.05 38.3049 201.977C38.3515 201.905 38.4245 201.854 38.5081 201.836C38.5918 201.817 38.6794 201.832 38.752 201.878C40.9326 203.301 42.9652 204.939 44.8192 206.767C56.4286 218.227 57.8336 234.407 57.6349 243.028C57.635 243.071 57.6264 243.113 57.6099 243.151C57.5933 243.19 57.569 243.225 57.5385 243.254C57.508 243.284 57.4719 243.306 57.4324 243.321C57.3928 243.336 57.3507 243.343 57.3085 243.341L57.2872 243.334Z" fill="#0D0D0D"/>
<path d="M58.8973 243.473C58.8284 243.468 58.7632 243.44 58.7118 243.394C58.6604 243.348 58.6258 243.286 58.6135 243.218C57.5587 238.006 55.1509 233.164 51.632 229.178C48.1131 225.192 43.6071 222.203 38.5668 220.51C38.5267 220.496 38.4897 220.475 38.4578 220.447C38.426 220.42 38.3999 220.386 38.3812 220.348C38.3432 220.271 38.3372 220.183 38.3645 220.102C38.3918 220.021 38.4501 219.954 38.5267 219.916C38.6032 219.878 38.6916 219.872 38.7726 219.9C43.9237 221.624 48.5288 224.677 52.1233 228.75C55.7177 232.823 58.1742 237.772 59.245 243.097C59.2601 243.181 59.2429 243.267 59.1967 243.338C59.1506 243.409 59.079 243.46 58.9967 243.48L58.8973 243.473Z" fill="#0D0D0D"/>
<path d="M45.2227 239.766L48.3308 255.661H67.1285L70.2367 239.766H45.2227ZM66.4331 254.817H49.0333L46.2516 240.624H69.2148L66.4331 254.817Z" fill="#0D0D0D"/>
<path d="M69.2171 240.617L66.4354 254.817H49.0356L46.2539 240.617H69.2171Z" fill="white"/>
<path d="M71.038 240.2H44.4273L42.8945 234.984H72.5636L71.038 240.2Z" fill="#0D0D0D"/>
<path d="M303.97 256.698C303.998 257.118 303.858 257.531 303.581 257.847C303.304 258.164 302.914 258.358 302.494 258.387H14.4464C14.0463 258.323 13.682 258.119 13.4191 257.811C13.1562 257.502 13.0117 257.11 13.0117 256.705C13.0117 256.3 13.1562 255.908 13.4191 255.6C13.682 255.292 14.0463 255.087 14.4464 255.023H302.551C302.958 255.067 303.332 255.265 303.596 255.576C303.861 255.888 303.995 256.29 303.97 256.698Z" fill="#0D0D0D"/>
<path d="M198.672 81.3407L199.261 81.0781H198.672V81.3407Z" fill="#FF94AF"/>
<path d="M179.669 69.6775V143.769C179.673 145.988 178.796 148.118 177.232 149.691C175.667 151.265 173.543 152.154 171.324 152.163H73.588C71.3697 152.154 69.2458 151.265 67.6825 149.691C66.1192 148.117 65.2444 145.987 65.25 143.769V69.6775C65.2481 67.4616 66.1246 65.3353 67.6875 63.7644C69.2504 62.1936 71.3722 61.3063 73.588 61.2969H171.324C173.541 61.3044 175.664 62.1909 177.229 63.7619C178.793 65.333 179.671 67.4604 179.669 69.6775Z" fill="#00C0B5"/>
<path d="M170.13 61.2891H70.9605C67.4528 61.2891 64.6094 64.1325 64.6094 67.6401V143.016C64.6094 146.523 67.4528 149.367 70.9605 149.367H170.13C173.637 149.367 176.481 146.523 176.481 143.016V67.6401C176.481 64.1325 173.637 61.2891 170.13 61.2891Z" fill="white"/>
<path d="M168.868 60.6484H72.2184C70.0321 60.6503 67.9358 61.5197 66.3899 63.0656C64.8439 64.6116 63.9745 66.7079 63.9727 68.8942V141.751C63.9745 143.937 64.8439 146.033 66.3899 147.579C67.9358 149.125 70.0321 149.995 72.2184 149.996H168.868C171.056 149.993 173.153 149.122 174.7 147.575C176.247 146.028 177.117 143.931 177.121 141.744V68.8942C177.117 66.7072 176.247 64.611 174.699 63.0652C173.152 61.5194 171.055 60.6503 168.868 60.6484ZM175.844 141.751C175.842 143.6 175.106 145.373 173.799 146.681C172.491 147.989 170.718 148.724 168.868 148.726H72.2184C70.3696 148.724 68.5972 147.989 67.2905 146.681C65.9839 145.373 65.25 143.599 65.25 141.751V68.8942C65.2537 67.0472 65.9891 65.2769 67.2951 63.9709C68.6011 62.6649 70.3714 61.9295 72.2184 61.9258H168.868C170.716 61.9295 172.487 62.6646 173.794 63.9705C175.101 65.2763 175.838 67.0466 175.844 68.8942V141.751Z" fill="#0D0D0D"/>
<path d="M177.121 81.6035V72.9248H154.101C153.655 72.9286 153.213 72.844 152.8 72.6759C152.387 72.5078 152.011 72.2596 151.694 71.9456C151.378 71.6316 151.126 71.2579 150.955 70.8463C150.783 70.4346 150.695 69.993 150.695 69.547V60.6484H142.038V92.5812C142.038 93.4771 141.682 94.3362 141.048 94.9697C140.415 95.6031 139.556 95.959 138.66 95.959H118.762C117.866 95.959 117.007 95.6031 116.374 94.9697C115.74 94.3362 115.384 93.4771 115.384 92.5812V61.9258H106.699V92.5529C106.699 93.4487 106.343 94.3078 105.709 94.9413C105.076 95.5748 104.217 95.9306 103.321 95.9306H63.9727V104.616H76.3342C77.2288 104.618 78.0861 104.975 78.7181 105.608C79.35 106.241 79.7049 107.1 79.7049 107.994V121.81C79.7049 122.705 79.35 123.563 78.7181 124.196C78.0861 124.83 77.2288 125.186 76.3342 125.188H64.6042V133.874H112.149C112.472 133.874 112.787 133.97 113.055 134.15C113.324 134.33 113.533 134.585 113.656 134.884C113.779 135.183 113.81 135.511 113.747 135.828C113.683 136.144 113.527 136.435 113.298 136.663L99.9432 149.996H112.234L113.511 148.719L125.638 136.585C127.381 134.847 129.742 133.872 132.202 133.874H176.688V125.16H154.101C153.205 125.16 152.346 124.804 151.713 124.17C151.079 123.537 150.723 122.678 150.723 121.782V84.9528C150.723 84.057 151.079 83.1979 151.713 82.5644C152.346 81.9309 153.205 81.5751 154.101 81.5751L177.121 81.6035ZM88.419 121.81V107.994C88.419 107.098 88.7749 106.239 89.4083 105.606C90.0418 104.972 90.9009 104.616 91.7968 104.616H138.632C139.527 104.616 140.387 104.972 141.02 105.606C141.653 106.239 142.009 107.098 142.009 107.994V121.81C142.002 122.701 141.643 123.553 141.01 124.181C140.377 124.808 139.522 125.16 138.632 125.16H91.7968C90.9021 125.165 90.0418 124.816 89.4046 124.188C88.7673 123.56 88.4052 122.705 88.3977 121.81H88.419Z" fill="#0D0D0D"/>
<path d="M106.938 33.4005C104.557 31.0216 101.725 29.1418 98.6076 27.8713C95.4906 26.6008 92.1514 25.9651 88.7856 26.0015C85.4198 26.0378 82.0951 26.7455 79.0063 28.083C75.9174 29.4205 73.1266 31.361 70.7972 33.7908C61.2244 43.7822 61.7567 59.7344 71.5068 69.5201L88.119 86.1322C88.3689 86.3805 88.7069 86.5199 89.0592 86.5199C89.4115 86.5199 89.7495 86.3805 89.9994 86.1322L106.938 69.1936C111.676 64.4501 114.338 58.0196 114.338 51.3148C114.338 44.6101 111.676 38.1795 106.938 33.436V33.4005ZM90.6168 60.366C88.6858 60.7051 86.6969 60.4201 84.9388 59.5525C83.1806 58.6848 81.7447 57.2795 80.8392 55.5406C79.9337 53.8016 79.6057 51.8194 79.9029 49.8815C80.2002 47.9436 81.1071 46.1507 82.4921 44.7631C83.8771 43.3754 85.6683 42.4651 87.6056 42.1642C89.543 41.8634 91.5258 42.1875 93.2665 43.0897C95.0071 43.9919 96.4151 45.4253 97.2861 47.1818C98.1571 48.9383 98.4458 50.9266 98.1104 52.8582C97.7821 54.7238 96.8874 56.443 95.5481 57.7824C94.2087 59.1218 92.4894 60.0164 90.6239 60.3447L90.6168 60.366Z" fill="#00C0B5"/>
</g>
<path d="M212.171 53.0328L209.039 64.4449C190.409 59.1646 183.827 44.9926 183.827 44.9926C183.827 44.9926 196.67 36.3331 215.301 41.6178L212.171 53.0328Z" fill="#C9C3C3"/>
<g clip-path="url(#clip1_34264_9370)">
<path d="M242.891 236.75H242.617L242.642 237.023L243.142 242.523L243.162 242.75H243.391H248.891H249.099L249.137 242.545L250.137 237.045L250.19 236.75H249.891H242.891Z" fill="white" stroke="black" stroke-width="0.5"/>
<path d="M203.408 236.251L203.115 236.23L203.142 236.523L203.642 242.023L203.661 242.23L203.868 242.249L209.368 242.749L209.596 242.77L209.637 242.545L210.637 237.045L210.686 236.77L210.408 236.751L203.408 236.251Z" fill="white" stroke="black" stroke-width="0.5"/>
<path d="M202.694 243.719C202.694 243.719 201.457 246.759 200.414 247.964C199.372 249.169 195.377 251.321 195.356 254.899C195.332 258.779 202.087 257.703 204.729 257.56C207.372 257.418 207.571 255.346 208.683 253.149C209.795 250.952 210.916 251.324 211.124 249.553C211.332 247.781 210.273 243.815 210.273 243.815L202.694 243.719Z" fill="#0D0D0D"/>
<path d="M286.508 84.7793C286.508 84.7793 273.173 105.756 268.687 104.671C266.613 104.169 260.438 99.4443 257.82 96.0394C254.97 92.3398 251.643 87.1243 249.561 83.4595C249.561 83.4595 240.777 70.3917 248.275 65.3359C248.275 65.3359 252.79 66.4815 255.324 69.2054C257.858 71.9293 259.136 76.0776 259.806 77.5383C260.477 78.999 268.216 91.9739 268.697 92.2744C269.177 92.575 272.723 89.5157 274.868 87.0371C278.026 83.3825 280.933 79.1965 280.933 79.1965L286.508 84.7793Z" fill="#0D0D0D"/>
<path d="M206.917 123.487C206.917 123.487 187.469 102.823 187.011 98.1489C186.799 95.9869 189.574 89.2019 191.871 85.5676C192.628 84.3697 193.441 83.1689 194.257 82.0117C197.521 77.3857 200.827 73.4944 200.827 73.4944C200.827 73.4944 209.163 61.2688 216.309 66.8357C216.309 66.8357 216.492 71.0101 214.795 74.3424C213.448 76.9457 211.72 79.3334 209.668 81.4265C208.537 82.5489 198.633 95.3176 198.511 95.8795C198.389 96.4414 201.53 102.791 203.404 105.489C206.079 109.339 211.486 118.556 211.486 118.556L206.917 123.487Z" fill="#0D0D0D"/>
<path d="M249.689 243.922C249.689 243.922 250.948 246.919 251.993 248.101C253.038 249.283 257.018 251.373 257.075 254.925C257.139 258.768 250.435 257.775 247.816 257.665C245.196 257.554 244.977 255.501 243.852 253.338C242.727 251.174 241.62 251.555 241.395 249.801C241.17 248.047 242.214 244.103 242.214 244.103L249.689 243.922Z" fill="#0D0D0D"/>
<path d="M250.164 242.555L249.974 244.623C249.974 244.623 246.3 246.075 242.219 244.71V242.109L250.164 242.555Z" fill="#0D0D0D"/>
<path d="M210.385 242.554L210.195 244.622C210.195 244.622 206.773 245.6 202.691 244.234V241.07L210.385 242.554Z" fill="#0D0D0D"/>
<path d="M206 68.7487L211.967 90.4281C212.172 91.1294 212.416 91.9955 212.676 93.0016L212.685 93.0396L212.693 93.0658C213.688 96.9298 214.921 102.822 215.287 109.368C215.536 113.829 215.31 128.032 215.31 128.032C215.31 128.032 223.593 131.11 237.094 130.235C237.094 130.235 251.788 133.968 250.603 124.945C247.467 101.058 250.534 91.2096 250.945 88.8125C250.945 88.8125 252.588 77.3021 254 67.5822C249.91 66.0395 232.769 60 232.769 60L223.295 60.105C223.295 60.105 209.973 64.1206 206 68.7487Z" fill="#0D0D0D"/>
<path d="M213.285 95.2398C213.285 95.2398 218.858 92.5856 220.785 83.624L240.446 83.4062C240.446 83.4062 246.329 95.3255 249.505 95.9615C249.505 95.9615 248.885 109.048 249.281 114.104C249.677 119.16 250.868 128.719 250.868 128.719C250.868 128.719 249.746 137.447 215.084 131.509C215.084 131.509 215.459 110.504 215.404 109.607C215.348 108.71 213.43 95.7698 213.285 95.2398Z" fill="#0D0D0D"/>
<path d="M220.821 83.6248C220.821 83.6248 218.511 71.4485 213.457 64.3585C213.457 64.3585 213.943 63.7676 215.252 63.5469C215.252 63.5469 220.739 71.524 222.928 83.5972C225.118 95.6704 220.821 83.6248 220.821 83.6248Z" fill="#0D0D0D"/>
<path d="M240.248 83.4063C240.248 83.4063 241.584 72.4149 246.492 65.2131C245.835 64.8196 245.105 64.5637 244.347 64.4609C244.347 64.4609 240.075 71.3114 238.141 83.4295C236.207 95.5477 240.248 83.4063 240.248 83.4063Z" fill="#0D0D0D"/>
<path d="M206.142 195.932C206.091 191.194 212.85 150.165 212.966 148.583C213.063 147.187 214.399 138.274 215.089 131.505C215.379 128.617 215.747 125.18 215.747 125.18C215.747 125.18 224.251 123.372 233.416 122.992C238.643 122.775 245.612 122.954 250.356 125.119C250.539 126.322 251.256 131.42 251.342 132.017C253.084 144.466 252.358 160.881 252.682 171.474C253.048 183.543 252.672 194.8 252.599 198.215C252.569 199.566 251.184 238.438 251.184 238.438C251.184 238.438 251.182 238.406 240.494 238.438L240.684 241.691L239.349 218.844L239.279 217.631C238.698 207.411 238.151 197.53 238.133 195.795C238.066 189.597 233.891 153.881 232.529 153.737C231.167 153.593 223.194 189.165 221.632 198.558C221.632 198.558 216.513 228.363 213.025 238.827C199.892 237.647 201.392 237.647 201.392 237.647C201.392 237.647 206.199 200.671 206.142 195.932Z" fill="#0D0D0D"/>
<path d="M250.961 124.451C250.961 124.451 230.992 128.622 214.371 124.858L214.309 122.413C214.309 122.413 230.426 125.989 250.695 122.008L250.961 124.451Z" fill="#97BCFF"/>
<path d="M214.184 117.626L214.208 118.54L214.229 119.266L214.252 120.071C229.409 123.503 247.416 120.335 250.463 119.751C250.376 118.929 250.291 118.109 250.209 117.305C230.147 121.15 214.184 117.626 214.184 117.626Z" fill="#97BCFF"/>
<path d="M211.488 118.549C211.488 118.549 210.806 121.337 206.915 123.486C206.915 123.486 196.234 111.664 195.016 110.187L204.369 106.922C204.369 106.922 209.31 114.619 211.488 118.549Z" fill="#0D0D0D"/>
<path d="M282.76 81.2666L285.223 83.544L287.677 81.5493L289.31 78.7955L290.499 74.9961L288.924 73.4076L287.521 73.9371L286.7 73.178L287.421 70.9576L286.999 70.4961L284.999 70.9961L284.729 70.9045L282.92 73.1905L282.981 74.7704L283.043 76.3503L283.281 78.3981L281.763 80.0397L282.76 81.2666Z" fill="white"/>
<path d="M281.251 79.8619C281.262 79.7976 281.286 79.7365 281.323 79.6829C281.36 79.6293 281.409 79.5847 281.465 79.5523C282.082 79.2419 282.568 78.7218 282.836 78.0852C283.022 77.402 282.978 76.6768 282.711 76.0213C282.603 75.6829 282.521 75.337 282.464 74.9864C282.196 73.1967 282.192 72.6763 284.499 70.4998C284.637 70.2963 284.781 72.6122 284.999 72.5001C285.218 72.388 285.254 72.4927 285.499 72.4997C285.746 72.5399 286.303 70.8454 286.499 70.9998C286.696 71.1541 286.134 71.5598 286.232 71.7897C286.641 72.5596 287.998 70.7531 287.662 71.5244C287.442 71.999 287.268 72.4935 287.142 73.001C286.682 75.1757 286.939 73.1046 287.33 73.1948C287.507 73.2381 288.354 73.3858 288.524 73.1607C288.923 72.6455 289.503 74.7632 289.999 74.9999C290.113 75.0595 290.43 74.3921 290.499 74.4999C290.568 74.6077 291.493 74.3718 291.499 74.4996C291.508 76.5469 289.464 80.276 288.07 81.7749C287.594 82.2256 287.095 82.6515 286.576 83.051C286.164 83.3674 286.022 83.6929 285.542 84.0179C285.453 84.0776 284.957 84.1803 284.85 84.166C284.743 84.1517 284.645 84.0991 284.575 84.0179L281.959 82.0594C281.934 82.0153 281.266 80.1472 281.255 80.0978C281.232 80.0211 281.231 79.9394 281.251 79.8619ZM286.074 82.35C286.792 81.7821 287.362 81.2702 287.495 81.127C288.563 79.9236 290.027 76.6712 290.175 75.0689L290.999 74.4996C290.534 75.1078 287.85 74.2365 287.107 74.0421C285.887 73.7307 285.83 74.9629 286.286 72.8235C286.414 72.2556 286.604 71.7034 286.852 71.177C287.175 70.4362 287.057 71.1211 286.852 70.7575C286.009 72.896 286.574 70.5718 286.499 70.4998C286.425 70.4277 286.33 70.6218 286.231 70.5905C285.529 71.8408 284.936 72.0001 285.504 70.7575C285.422 70.8103 284.851 71.3979 285.499 70.5C283.767 72.946 285.025 70.9811 284.999 70.9999C282.897 72.9801 283.109 73.3694 283.326 74.8649C283.377 75.1756 283.45 75.4823 283.545 75.7828C283.879 76.6088 283.925 77.5232 283.676 78.3788C283.42 79.0506 282.962 79.6264 282.365 80.0268L285.034 83.1237C285.38 82.8859 285.726 82.628 286.074 82.35Z" fill="#0D0D0D"/>
</g>
<path d="M235.476 60.0871L236.737 60.7015C236.841 60.7501 236.923 60.839 236.966 60.95C237.01 61.061 237.011 61.1855 236.971 61.2976C236.329 62.9946 235.22 64.4467 233.789 65.464C232.358 66.4813 230.671 67.0165 228.949 66.9996C227.227 66.9828 225.549 66.4147 224.136 65.3696C222.723 64.3245 221.64 62.851 221.028 61.1417C221.007 61.084 220.998 61.0225 221 60.9609C221.003 60.8993 221.017 60.8389 221.042 60.7833C221.067 60.7276 221.102 60.6779 221.146 60.6371C221.189 60.5962 221.24 60.5651 221.295 60.5457L222.427 60.1238C222.666 60.0374 222.927 60.0476 223.159 60.1525C223.392 60.2574 223.58 60.4496 223.688 60.6924C224.167 61.723 224.908 62.5906 225.828 63.1973C226.747 63.804 227.808 64.1255 228.891 64.1255C229.974 64.1255 231.035 63.804 231.954 63.1973C232.874 62.5906 233.615 61.723 234.095 60.6924C234.148 60.556 234.225 60.4321 234.324 60.3278C234.422 60.2235 234.538 60.1408 234.667 60.0845C234.795 60.0283 234.933 59.9996 235.072 60C235.211 60.0005 235.348 60.0301 235.476 60.0871Z" fill="#0D0D0D"/>
<g clip-path="url(#clip2_34264_9370)">
<path d="M251.002 126.31C251.002 126.31 230.913 130.505 214.192 126.719L214.129 124.259C214.129 124.259 230.343 127.857 250.735 123.852L251.002 126.31Z" fill="#97BCFF"/>
<path d="M214 119.44L214.025 120.36L214.045 121.091L214.069 121.9C229.317 125.353 247.433 122.166 250.498 121.579C250.41 120.752 250.325 119.926 250.242 119.117C230.059 122.985 214 119.44 214 119.44Z" fill="#97BCFF"/>
</g>
<path d="M301.192 74.041L300.394 77.5693L211.5 54.5L212.5 51L301.192 74.041Z" fill="#8A664D"/>
<mask id="mask0_34264_9370" style="mask-type:alpha" maskUnits="userSpaceOnUse" x="280" y="68" width="14" height="10">
<rect x="281.449" y="68.9375" width="12" height="6" transform="rotate(13.5557 281.449 68.9375)" fill="#D9D9D9"/>
</mask>
<g mask="url(#mask0_34264_9370)">
<path d="M288.956 72.4577C288.274 73.2209 287.984 73.5329 287.575 73.6123C287 73.7123 286.26 73.4004 285.115 72.5677C284.645 72.2764 284.301 71.9193 284.103 71.5203C284.053 71.3865 283.674 70.2153 284.723 69.5342C284.896 69.4019 285.134 69.3043 285.394 69.259C285.448 69.2534 285.502 69.255 285.552 69.2636C285.892 69.3107 285.736 69.0555 285.973 69.1991C286.2 69.3025 288.696 69.9523 289.011 70.0684C289.587 70.2829 289.205 70.283 289.886 70.3756C290.233 70.4519 289.438 70.3983 289.577 70.4411C289.614 70.4676 289.864 70.3429 289.886 70.3756C290.05 70.5737 289.894 71.4069 288.956 72.4577Z" fill="#EBEBEB"/>
<path d="M290.613 71.3044C290.45 71.7715 290.166 72.2303 289.77 72.6633C289.019 73.5161 288.596 73.9869 287.732 74.1291C287.533 74.1628 287.33 74.1775 287.132 74.1724C286.221 74.1454 285.373 73.6726 284.371 72.9409C283.821 72.6029 283.423 72.1844 283.206 71.7159C283.097 71.4481 282.645 70.0814 284.075 69.1979C284.397 68.9679 284.827 68.8009 285.294 68.7252C285.629 68.6987 285.959 68.7165 286.261 68.7774C286.564 68.8382 290.074 69.8863 290.285 70.0229C290.519 70.1363 287.522 69.2947 287.78 69.389C286.261 68.7774 286.261 68.7774 289.444 69.7945C289.763 69.8227 290.053 69.9014 290.285 70.0229C290.374 70.0823 290.449 70.1495 290.507 70.2228C290.717 70.5555 290.754 70.9308 290.613 71.3044ZM289.655 70.5129C289.633 70.4803 289.603 70.4503 289.566 70.4238C289.427 70.3811 289.276 70.3509 289.117 70.3342C287.282 69.8524 288.128 70.1643 287.313 69.864C286.998 69.7478 286.648 69.6404 286.421 69.537C286.184 69.3934 285.881 69.2934 285.541 69.2464C285.491 69.2377 285.438 69.2361 285.383 69.2417C285.123 69.2871 284.885 69.3846 284.712 69.5169C283.663 70.1981 284.058 71.3697 284.092 71.503C284.29 71.9021 284.635 72.2592 285.104 72.5505C286.249 73.3832 286.989 73.6951 287.564 73.5951C287.973 73.5156 288.263 73.2037 288.945 72.4404C289.895 71.4053 289.831 70.7267 289.68 70.5137L289.655 70.5129Z" fill="#0D0D0D"/>
</g>
<path d="M299.646 75.3343C300.909 72.5842 304.989 67.784 311.38 69.2839L312.424 69.5293L308.536 86.7047L307.492 86.4593C301.103 84.9565 299.497 78.8161 299.544 75.78V75.5463L299.646 75.3343ZM309.841 71.2266C304.835 70.6749 302.239 75.0018 301.691 76.0472C301.753 77.247 302.01 78.4288 302.451 79.5464C303.335 81.7549 304.844 83.2577 306.945 84.0258L309.841 71.2266Z" fill="#4A3F3F"/>
<path d="M302.086 74.246L301.298 77.7888L294 76.0595L294.796 72.5312L302.086 74.246Z" fill="#4A3F3F"/>
<path d="M230.816 69.5006L222.526 66.7477C222.432 66.7175 222.351 66.6564 222.296 66.5743C222.241 66.4921 222.216 66.3939 222.224 66.2955L223.153 56.2199C221.431 56.7673 220.051 56.7276 219.035 56.1088C217.924 55.4186 216.869 53.9271 217.329 44.0894C217.448 41.6062 217.639 39.123 217.893 36.7033C217.905 36.5888 217.961 36.4837 218.051 36.4109C218.14 36.3381 218.254 36.3034 218.369 36.3145L225.556 36.9334L232.752 37.4252C232.847 37.4303 232.937 37.4665 233.009 37.5282C233.08 37.5899 233.13 37.6737 233.149 37.7664L234.283 42.5265C234.644 42.4501 235.016 42.448 235.378 42.5203C235.739 42.5926 236.082 42.7378 236.386 42.947C236.683 43.1747 236.927 43.4643 237.101 43.7959C237.275 44.1275 237.375 44.4929 237.393 44.8669C237.512 46.3346 236.283 47.8817 234.315 48.7782C234.022 51.6622 233.982 54.5665 234.196 57.4575C234.397 60.1929 234.822 62.9073 235.465 65.5735C235.485 65.6524 235.481 65.7349 235.456 65.812C235.431 65.8891 235.385 65.9576 235.323 66.0099L231.245 69.4768C231.165 69.5443 231.064 69.5809 230.959 69.58C230.907 69.5624 230.859 69.5355 230.816 69.5006ZM233.347 57.4654C233.132 54.4389 233.182 51.3992 233.498 48.3815C233.505 48.3018 233.534 48.2256 233.582 48.1612C233.629 48.0968 233.694 48.0468 233.768 48.0165C235.521 47.2867 236.64 46.0252 236.552 44.8431C236.542 44.5949 236.478 44.3519 236.366 44.1303C236.254 43.9086 236.095 43.7135 235.902 43.5579C235.64 43.3999 235.345 43.3023 235.041 43.2721C234.736 43.2419 234.429 43.2799 234.141 43.3833C234.085 43.409 234.024 43.4223 233.962 43.4223C233.9 43.4223 233.84 43.409 233.784 43.3833C233.729 43.3529 233.682 43.3119 233.644 43.2629C233.606 43.2138 233.578 43.1577 233.561 43.0977L232.403 38.2345L225.525 37.7584L218.718 37.1793C218.488 39.4483 218.321 41.7649 218.21 44.0815C217.789 53.0147 218.63 54.7759 219.495 55.3075C220.392 55.8628 221.732 55.7994 223.462 55.125C223.531 55.0985 223.606 55.0897 223.679 55.0994C223.753 55.1091 223.823 55.137 223.882 55.1806C223.941 55.2281 223.987 55.2889 224.017 55.3579C224.048 55.4268 224.061 55.502 224.057 55.5772L223.097 66.0099L230.824 68.5724L234.505 65.399C233.913 62.7887 233.526 60.1361 233.347 57.4654Z" fill="#0D0D0D"/>
<path d="M219.266 55.7035C219.893 56.0843 221.155 56.4969 223.654 55.5528L223 63.4966C223 63.4966 226 66.4966 229 66.4966C232 66.4966 234.5 63.4966 234.5 63.4966C233.5 57.9966 233.307 54.1766 233.912 48.4205C235.848 47.6272 237.085 46.1833 236.966 44.8504C236.951 44.5454 236.873 44.2469 236.736 43.9738C236.6 43.7006 236.408 43.4588 236.173 43.2637C235.853 43.0596 235.491 42.932 235.114 42.8907C234.737 42.8494 234.355 42.8956 233.999 43.0257C233.587 41.3041 233.206 39.5746 232.769 37.853L225.566 37.3532L218.37 36.7344C218.18 38.5432 217.957 41.0661 217.815 44.0888C217.323 53.736 218.354 55.1403 219.266 55.7035Z" fill="white"/>
<path d="M217.211 39.1418C214.347 36.7617 213.84 35.0718 214.038 33.8897C214.332 32.0571 216.616 29.8039 216.593 29.8436C219.465 27.3842 221.749 26.9558 223.297 27.0034C225.78 27.0907 226.065 28.4076 229.913 29.1137C233.142 29.7087 234.435 29.0503 235.847 30.2879C236.585 30.9384 236.95 31.8746 237.68 33.8501C238.41 35.8255 238.823 36.8886 238.664 38.0311C238.364 39.6352 237.524 41.0884 236.284 42.1486C235.457 42.7024 234.776 43.4483 234.3 44.3224C234.109 44.7395 233.983 45.1837 233.928 45.6394C233.43 44.432 233.12 43.1559 233.007 41.855C232.973 41.3267 232.973 40.7967 233.007 40.2683C233.017 40.0187 232.937 39.7738 232.781 39.5786C232.625 39.3833 232.404 39.2508 232.158 39.2052C229.881 38.7689 224.907 40.4508 219.012 39.5622C218.405 39.4537 217.804 39.3133 217.211 39.1418Z" fill="#0D0D0D"/>
<path d="M228.097 45.8446C228.001 46.519 227.613 47.0188 227.24 46.9633C226.867 46.9077 226.645 46.3206 226.748 45.6463C226.851 44.9719 227.232 44.4721 227.605 44.5277C227.978 44.5832 228.2 45.1703 228.097 45.8446Z" fill="#0D0D0D"/>
<path d="M221.679 45.0546C221.576 45.721 221.187 46.2288 220.814 46.1732C220.441 46.1177 220.219 45.5306 220.322 44.8563C220.425 44.1819 220.814 43.6821 221.187 43.7297C221.56 43.7773 221.782 44.3802 221.679 45.0546Z" fill="#0D0D0D"/>
<path d="M221.82 51.0234C223.192 51.3532 224.592 51.5524 226.001 51.6185C225.926 51.8803 225.799 52.1242 225.628 52.3355C225.456 52.5468 225.243 52.7212 225.002 52.8479C224.761 52.9747 224.497 53.0514 224.226 53.0732C223.954 53.0951 223.681 53.0617 223.423 52.9751C222.976 52.8759 222.575 52.6297 222.285 52.2759C221.994 51.9221 221.831 51.4811 221.82 51.0234Z" fill="#0D0D0D"/>
<path d="M229.89 44.2525C229.963 44.2508 230.034 44.2288 230.096 44.189C230.136 44.1634 230.171 44.1299 230.197 44.0905C230.224 44.051 230.243 44.0065 230.252 43.9597C230.261 43.9129 230.26 43.8647 230.249 43.8182C230.239 43.7717 230.219 43.7277 230.191 43.6892C229.803 43.1264 229.26 42.6892 228.627 42.4312C227.994 42.1733 227.3 42.1059 226.629 42.2373C226.583 42.2493 226.54 42.2702 226.502 42.2988C226.465 42.3274 226.433 42.3632 226.409 42.4041C226.385 42.445 226.369 42.4902 226.363 42.5371C226.356 42.5841 226.359 42.6318 226.371 42.6777C226.383 42.7235 226.404 42.7665 226.433 42.8043C226.461 42.8421 226.497 42.8738 226.538 42.8978C226.579 42.9217 226.624 42.9374 226.671 42.9438C226.718 42.9503 226.766 42.9475 226.811 42.9355C227.337 42.8414 227.878 42.9006 228.37 43.106C228.863 43.3114 229.286 43.6543 229.588 44.0938C229.622 44.1428 229.667 44.1828 229.719 44.2105C229.772 44.2381 229.83 44.2525 229.89 44.2525Z" fill="#0D0D0D"/>
<path d="M223.13 42.8617C223.18 42.8623 223.231 42.8519 223.277 42.8314C223.324 42.8109 223.365 42.7806 223.399 42.7427C223.434 42.7101 223.461 42.6707 223.48 42.6271C223.499 42.5834 223.509 42.5364 223.509 42.4889C223.509 42.4413 223.499 42.3943 223.48 42.3506C223.461 42.307 223.434 42.2676 223.399 42.235C221.725 40.7752 219.647 41.8859 219.559 41.9335C219.517 41.9542 219.479 41.9837 219.448 42.0199C219.417 42.0561 219.395 42.0984 219.381 42.1439C219.368 42.1895 219.364 42.2373 219.37 42.2844C219.376 42.3315 219.392 42.3768 219.417 42.4175C219.465 42.5016 219.544 42.5636 219.638 42.5903C219.731 42.617 219.831 42.6062 219.917 42.5603C220.384 42.3033 220.916 42.1869 221.448 42.2249C221.98 42.2629 222.489 42.4537 222.915 42.7745C222.977 42.8238 223.051 42.8541 223.13 42.8617Z" fill="#0D0D0D"/>
<path d="M224.33 49.8145C224.404 49.8143 224.476 49.7914 224.537 49.7489C224.598 49.7064 224.645 49.6462 224.671 49.5765C224.687 49.5318 224.694 49.4842 224.692 49.4367C224.689 49.3891 224.677 49.3425 224.657 49.2997C224.636 49.2568 224.607 49.2185 224.571 49.187C224.535 49.1555 224.494 49.1315 224.449 49.1164L222.592 48.4738C224.409 45.467 224.433 45.3956 224.449 45.3479C224.463 45.3032 224.469 45.2559 224.466 45.2088C224.462 45.1618 224.449 45.1159 224.428 45.0739C224.407 45.0318 224.377 44.9944 224.341 44.9638C224.305 44.9333 224.264 44.9101 224.219 44.8957C224.133 44.8656 224.039 44.8684 223.956 44.9036C223.872 44.9388 223.805 45.0039 223.766 45.0861C223.663 45.2765 222.497 47.2203 221.735 48.4896C221.712 48.5377 221.699 48.5907 221.699 48.6443C221.699 48.698 221.712 48.7509 221.735 48.7991C221.756 48.8478 221.787 48.8918 221.825 48.9286C221.863 48.9654 221.908 48.9942 221.958 49.0133L224.234 49.8066C224.266 49.8139 224.298 49.8166 224.33 49.8145Z" fill="#0D0D0D"/>
<path d="M206.199 67.8297C211.136 69.2817 211.349 88.3171 211.349 88.3171C211.349 88.3171 212.733 93.0375 213.314 97.2758C213.626 99.5438 213.954 109.167 214.185 117.619L214.21 118.534L214.23 119.26C214.41 125.893 214.529 131.413 214.529 131.413C214.529 131.413 219.299 134.538 232.317 134.298C232.317 134.298 245.912 133.341 251.691 131.05C251.691 131.05 251.054 125.387 250.464 119.745C250.377 118.923 250.293 118.103 250.21 117.299C249.902 114.261 249.629 111.475 249.53 109.877C249.201 104.954 250.692 89.1346 250.692 89.1346C248.639 71.4539 252.662 67.156 252.662 67.156C248.674 64.7661 236.001 60.5 236.001 60.5C233.132 73.2077 229.334 76.7696 229.334 76.7696C224.016 71.3827 221.501 60.5 221.501 60.5C212.509 62.299 206.199 67.8297 206.199 67.8297Z" fill="#00C0B5"/>
<g clip-path="url(#clip3_34264_9370)">
<path d="M251.002 126.568C251.002 126.568 230.913 130.763 214.192 126.977L214.129 124.517C214.129 124.517 230.343 128.115 250.735 124.109L251.002 126.568Z" fill="#97BCFF"/>
<path d="M214 119.698L214.025 120.618L214.045 121.348L214.069 122.158C229.317 125.611 247.433 122.424 250.498 121.836C250.41 121.01 250.325 120.184 250.242 119.375C230.059 123.243 214 119.698 214 119.698Z" fill="#97BCFF"/>
</g>
<path d="M208.56 121.642L210.738 119.091L213.409 120.784L215.354 123.327L215.843 125.509L214.993 124.783L213.537 124.422L212.811 125.272L213.059 128.424L214.399 131.332L214.643 132.423L213.917 133.273L211.731 131.701L209.666 129.643L209.542 128.067L209.418 126.491L209.414 124.429L207.713 122.977L208.56 121.642Z" fill="white"/>
<path d="M207.229 123.214C207.247 123.277 207.278 123.335 207.321 123.383C207.364 123.432 207.418 123.471 207.478 123.496C208.127 123.732 208.671 124.192 209.012 124.792C209.276 125.449 209.317 126.174 209.129 126.857C209.062 127.205 209.021 127.559 209.006 127.913C208.95 129.722 210.217 131.598 212.765 133.489C212.925 133.674 213.13 133.817 213.36 133.903C213.59 133.988 213.839 134.014 214.082 133.979C214.322 133.91 214.54 133.781 214.717 133.605C214.893 133.429 215.022 133.21 215.092 132.971C215.408 132.158 214.999 131.468 214.574 130.741C214.3 130.296 214.069 129.825 213.885 129.336C213.173 127.23 213.569 125.171 213.946 125.035C214.117 124.972 214.709 125.584 214.904 125.788C215.36 126.253 215.783 126.693 216.248 126.399C216.353 126.327 216.438 126.228 216.494 126.113C216.55 125.998 216.574 125.87 216.566 125.743C216.334 123.708 215.337 121.839 213.776 120.514C213.25 120.122 212.705 119.758 212.142 119.422C211.639 119.109 211.123 118.818 210.609 118.551C210.513 118.503 210.402 118.49 210.298 118.517C210.194 118.544 210.102 118.608 210.042 118.697L207.242 122.833C207.222 122.88 207.21 122.929 207.206 122.979C207.191 123.058 207.199 123.14 207.229 123.214ZM211.726 120.177C212.506 120.657 213.132 121.098 213.281 121.225C214.483 122.294 215.312 123.72 215.647 125.294L215.537 125.177C215.003 124.627 214.34 123.94 213.625 124.22C212.45 124.673 212.351 127.542 213.056 129.613C213.249 130.162 213.502 130.688 213.811 131.181C214.218 131.879 214.425 132.266 214.264 132.651C214.241 132.752 214.196 132.846 214.13 132.926C214.065 133.007 213.982 133.071 213.888 133.113C213.791 133.113 213.695 133.09 213.608 133.047C213.521 133.004 213.445 132.942 213.385 132.866C213.363 132.842 213.338 132.822 213.31 132.806C210.99 131.087 209.836 129.444 209.876 127.933C209.89 127.618 209.927 127.305 209.986 126.996C210.221 126.136 210.159 125.223 209.812 124.402C209.478 123.765 208.956 123.247 208.316 122.92L210.603 119.531C210.974 119.726 211.349 119.942 211.726 120.177Z" fill="#0D0D0D"/>
<defs>
<clipPath id="clip0_34264_9370">
<rect width="291" height="232.393" fill="white" transform="translate(13 26)"/>
</clipPath>
<clipPath id="clip1_34264_9370">
<rect width="124.939" height="231.86" fill="white" transform="translate(187 26)"/>
</clipPath>
<clipPath id="clip2_34264_9370">
<rect width="37" height="9.18208" fill="white" transform="translate(214 119.117)"/>
</clipPath>
<clipPath id="clip3_34264_9370">
<rect width="37" height="9.18208" fill="white" transform="translate(214 119.375)"/>
</clipPath>
</defs>
</svg>
