<svg width="325" height="276" viewBox="0 0 325 276" fill="none" xmlns="http://www.w3.org/2000/svg">
<g clip-path="url(#clip0_34264_9459)">
<path d="M24.7496 256.469C21.0287 243.965 15.023 217.372 23.3057 186.05C26.5664 173.706 37.0863 133.911 74.6359 114.648C79.0073 112.403 109.417 97.345 143.507 108.039C188.768 122.241 183.357 163.9 229.095 178.934C258.639 188.645 279.076 177.236 295.435 195.452C302.685 203.676 307.073 214.03 307.941 224.96C308.81 235.889 306.111 246.806 300.251 256.072L24.7496 256.469Z" fill="#EDEDED"/>
<path d="M86.5039 13.5244V153.6C86.5029 153.875 86.556 154.147 86.6603 154.402C86.7646 154.656 86.918 154.888 87.1118 155.083C87.3055 155.278 87.5358 155.433 87.7895 155.539C88.0432 155.646 88.3154 155.701 88.5905 155.702H178.867C179.142 155.701 179.414 155.646 179.667 155.539C179.921 155.433 180.151 155.278 180.345 155.083C180.539 154.888 180.692 154.656 180.797 154.402C180.901 154.147 180.954 153.875 180.953 153.6V13.5244C180.955 13.2487 180.903 12.9753 180.799 12.7198C180.695 12.4644 180.542 12.232 180.348 12.0359C180.154 11.8399 179.924 11.684 179.669 11.5773C179.415 11.4706 179.142 11.4151 178.867 11.4141H88.5905C88.0342 11.4183 87.5024 11.6427 87.1113 12.0382C86.7202 12.4338 86.5018 12.9682 86.5039 13.5244Z" fill="#0D0D0D"/>
<path d="M89.3516 12.1035V151.734C89.3537 152.037 89.4747 152.326 89.6885 152.54C89.9023 152.754 90.1917 152.875 90.494 152.877H180.754C181.057 152.875 181.346 152.754 181.56 152.54C181.774 152.326 181.895 152.037 181.897 151.734V12.1035C181.898 11.9528 181.869 11.8034 181.812 11.6639C181.755 11.5243 181.671 11.3975 181.565 11.2905C181.459 11.1836 181.332 11.0987 181.193 11.0408C181.054 10.9829 180.905 10.9531 180.754 10.9531H90.494C90.3433 10.9531 90.1941 10.9829 90.055 11.0408C89.9159 11.0987 89.7896 11.1836 89.6834 11.2905C89.5772 11.3975 89.4932 11.5243 89.4363 11.6639C89.3793 11.8034 89.3505 11.9528 89.3516 12.1035Z" fill="white"/>
<path d="M88.4258 12.1024V151.733C88.4279 152.288 88.6492 152.82 89.0415 153.212C89.4339 153.604 89.9654 153.826 90.5202 153.828H180.757C181.312 153.828 181.845 153.607 182.238 153.214C182.63 152.821 182.851 152.289 182.851 151.733V12.1024C182.852 11.8267 182.799 11.5535 182.694 11.2984C182.589 11.0434 182.435 10.8116 182.24 10.6163C182.046 10.4209 181.815 10.2659 181.56 10.1602C181.305 10.0544 181.032 10 180.757 10H90.4964C89.9444 10.0083 89.4177 10.2335 89.0303 10.6269C88.6429 11.0203 88.4257 11.5503 88.4258 12.1024ZM89.3778 12.1024C89.3768 11.9517 89.4055 11.8023 89.4625 11.6628C89.5194 11.5232 89.6034 11.3964 89.7096 11.2894C89.8158 11.1825 89.9421 11.0977 90.0812 11.0397C90.2203 10.9818 90.3695 10.952 90.5202 10.952H180.757C180.907 10.952 181.057 10.9818 181.196 11.0397C181.335 11.0977 181.461 11.1825 181.567 11.2894C181.674 11.3964 181.757 11.5232 181.814 11.6628C181.871 11.8023 181.9 11.9517 181.899 12.1024V151.733C181.897 152.036 181.776 152.325 181.562 152.539C181.348 152.753 181.059 152.874 180.757 152.876H90.4964C90.1941 152.874 89.9047 152.753 89.6909 152.539C89.4771 152.325 89.3561 152.036 89.354 151.733L89.3778 12.1024Z" fill="#0D0D0D"/>
<path d="M63.5859 33.5042V77.0516C63.5861 77.2997 63.6573 77.5425 63.791 77.7515C63.9246 77.9605 64.1153 78.1269 64.3404 78.2312C64.5656 78.3354 64.8158 78.3731 65.0616 78.3398C65.3075 78.3065 65.5387 78.2036 65.728 78.0433L75.0658 70.1097C75.6925 69.5914 76.4819 69.3105 77.2951 69.3164H158.051C158.665 69.3164 159.255 69.0723 159.689 68.6378C160.123 68.2034 160.368 67.6142 160.368 66.9998V33.5042C160.368 32.8891 160.124 32.299 159.69 31.8633C159.255 31.4276 158.666 31.1818 158.051 31.1797H65.9025C65.2874 31.1818 64.6982 31.4276 64.264 31.8633C63.8297 32.299 63.5859 32.8891 63.5859 33.5042Z" fill="white"/>
<path d="M64.1407 78.6536C63.8351 78.5155 63.5754 78.2926 63.3926 78.0114C63.2098 77.7301 63.1115 77.4023 63.1094 77.0669V33.5037C63.1094 32.7623 63.4033 32.0512 63.9268 31.5262C64.4503 31.0012 65.1606 30.7052 65.902 30.7031H158.05C158.792 30.7052 159.502 31.0012 160.026 31.5262C160.549 32.0512 160.843 32.7623 160.843 33.5037V66.9992C160.841 67.7392 160.546 68.4483 160.023 68.9716C159.5 69.4948 158.79 69.7897 158.05 69.7918H77.3184C76.6128 69.7937 75.9304 70.0436 75.3905 70.4979L66.0527 78.4315C65.7351 78.7058 65.33 78.8578 64.9103 78.8599C64.6408 78.8547 64.3767 78.7839 64.1407 78.6536ZM65.902 31.6869C65.6596 31.6869 65.4196 31.7348 65.1958 31.8277C64.972 31.9207 64.7687 32.057 64.5977 32.2288C64.4267 32.4005 64.2913 32.6044 64.1992 32.8286C64.1072 33.0528 64.0604 33.293 64.0614 33.5354V77.0828C64.0485 77.2451 64.086 77.4074 64.1685 77.5478C64.2511 77.6881 64.3749 77.7997 64.523 77.8672C64.6712 77.9348 64.8365 77.9551 64.9967 77.9255C65.1568 77.8959 65.3039 77.8177 65.418 77.7016L74.7559 69.768C75.4673 69.1709 76.3658 68.8424 77.2946 68.8398H158.05C158.539 68.8398 159.007 68.6459 159.352 68.3007C159.697 67.9555 159.891 67.4874 159.891 66.9992V33.5037C159.885 33.0197 159.688 32.5576 159.344 32.2175C158.999 31.8775 158.534 31.6868 158.05 31.6869H65.902Z" fill="#0D0D0D"/>
<path d="M141.018 60.6688C146.758 60.6688 151.411 56.0157 151.411 50.2758C151.411 44.5359 146.758 39.8828 141.018 39.8828C135.278 39.8828 130.625 44.5359 130.625 50.2758C130.625 56.0157 135.278 60.6688 141.018 60.6688Z" fill="#00C0B5"/>
<path d="M141.016 57.6681C141.956 57.6693 142.887 57.485 143.756 57.1256C144.625 56.7661 145.414 56.2387 146.078 55.5736C146.242 55.392 146.329 55.1545 146.322 54.9102C146.316 54.6659 146.215 54.4335 146.042 54.2612C145.868 54.0889 145.636 53.9899 145.391 53.9846C145.147 53.9793 144.91 54.0682 144.729 54.2329C143.742 55.2158 142.406 55.7677 141.012 55.7677C139.619 55.7677 138.283 55.2158 137.295 54.2329C137.113 54.0809 136.88 54.0027 136.643 54.0135C136.406 54.0244 136.181 54.1235 136.013 54.2914C135.845 54.4593 135.746 54.6839 135.735 54.9212C135.725 55.1584 135.803 55.3911 135.955 55.5736C136.619 56.2387 137.408 56.7661 138.277 57.1256C139.145 57.485 140.076 57.6693 141.016 57.6681Z" fill="#0D0D0D"/>
<path d="M99.2294 60.6719H120.364C121.03 60.6719 121.57 60.132 121.57 59.466V58.99C121.57 58.324 121.03 57.7841 120.364 57.7841H99.2294C98.5634 57.7841 98.0235 58.324 98.0235 58.99V59.466C98.0235 60.132 98.5634 60.6719 99.2294 60.6719Z" fill="#0D0D0D"/>
<path d="M75.6826 51.7266L120.364 51.7266C121.03 51.7266 121.57 51.1867 121.57 50.5207V50.0446C121.57 49.3786 121.03 48.8387 120.364 48.8387L75.6826 48.8387C75.0166 48.8387 74.4766 49.3786 74.4766 50.0446V50.5207C74.4766 51.1867 75.0166 51.7266 75.6826 51.7266Z" fill="#0D0D0D"/>
<path d="M75.6826 42.7656L120.364 42.7656C121.03 42.7656 121.57 42.2257 121.57 41.5597V41.0837C121.57 40.4177 121.03 39.8778 120.364 39.8778L75.6826 39.8778C75.0166 39.8778 74.4766 40.4177 74.4766 41.0837V41.5597C74.4766 42.2257 75.0166 42.7656 75.6826 42.7656Z" fill="#0D0D0D"/>
<path d="M207.895 93.3869V136.934C207.895 137.182 207.824 137.425 207.69 137.634C207.556 137.843 207.366 138.01 207.14 138.114C206.915 138.218 206.665 138.256 206.419 138.223C206.173 138.189 205.942 138.086 205.753 137.926L196.415 129.992C195.788 129.474 194.999 129.193 194.186 129.199H113.43C113.126 129.2 112.825 129.141 112.544 129.026C112.263 128.91 112.008 128.74 111.792 128.526C111.577 128.311 111.406 128.056 111.29 127.776C111.173 127.495 111.113 127.194 111.113 126.89V93.3869C111.112 93.0824 111.171 92.7807 111.287 92.4992C111.404 92.2176 111.574 91.9618 111.789 91.7465C112.005 91.5312 112.261 91.3606 112.542 91.2445C112.824 91.1285 113.125 91.0693 113.43 91.0703H205.578C206.193 91.0703 206.782 91.3144 207.216 91.7488C207.651 92.1833 207.895 92.7725 207.895 93.3869Z" fill="white"/>
<path d="M206.585 138.711C206.168 138.711 205.764 138.559 205.451 138.282L196.105 130.349C195.569 129.893 194.889 129.643 194.185 129.643H113.429C112.696 129.641 111.993 129.351 111.471 128.837C110.949 128.322 110.649 127.623 110.637 126.89V93.3864C110.639 92.6464 110.934 91.9373 111.457 91.414C111.98 90.8907 112.689 90.5958 113.429 90.5938H205.578C206.318 90.5958 207.027 90.8907 207.55 91.414C208.073 91.9373 208.368 92.6464 208.37 93.3864V136.934C208.367 137.269 208.269 137.596 208.086 137.877C207.903 138.158 207.644 138.382 207.339 138.52C207.105 138.638 206.847 138.703 206.585 138.711ZM113.429 91.5378C112.94 91.5399 112.471 91.7354 112.125 92.0816C111.778 92.4278 111.583 92.8968 111.581 93.3864V126.89C111.583 127.379 111.778 127.848 112.125 128.195C112.471 128.541 112.94 128.736 113.429 128.738H194.185C195.115 128.736 196.015 129.065 196.724 129.667L206.062 137.6C206.176 137.717 206.324 137.796 206.485 137.825C206.646 137.855 206.812 137.834 206.961 137.765C207.11 137.696 207.233 137.583 207.315 137.442C207.397 137.3 207.433 137.136 207.418 136.973V93.3864C207.418 92.8975 207.225 92.4285 206.88 92.0821C206.535 91.7356 206.067 91.5399 205.578 91.5378H113.429Z" fill="#0D0D0D"/>
<path d="M130.463 120.552C136.203 120.552 140.856 115.898 140.856 110.159C140.856 104.419 136.203 99.7656 130.463 99.7656C124.723 99.7656 120.07 104.419 120.07 110.159C120.07 115.898 124.723 120.552 130.463 120.552Z" fill="#00C0B5"/>
<path d="M130.472 117.551C129.532 117.553 128.602 117.37 127.733 117.012C126.865 116.654 126.075 116.128 125.41 115.465C125.235 115.284 125.137 115.042 125.137 114.79C125.137 114.538 125.235 114.297 125.41 114.116C125.499 114.027 125.604 113.957 125.72 113.909C125.835 113.861 125.959 113.836 126.085 113.836C126.21 113.836 126.334 113.861 126.45 113.909C126.565 113.957 126.671 114.027 126.759 114.116C127.745 115.098 129.08 115.65 130.472 115.65C131.864 115.65 133.199 115.098 134.185 114.116C134.364 113.937 134.606 113.837 134.859 113.837C135.112 113.837 135.355 113.937 135.534 114.116C135.712 114.295 135.813 114.537 135.813 114.79C135.813 115.043 135.712 115.286 135.534 115.465C134.869 116.128 134.079 116.654 133.211 117.012C132.342 117.37 131.411 117.553 130.472 117.551Z" fill="#0D0D0D"/>
<path d="M172.251 117.664H151.116C150.45 117.664 149.91 118.204 149.91 118.87V119.346C149.91 120.012 150.45 120.552 151.116 120.552H172.251C172.917 120.552 173.457 120.012 173.457 119.346V118.87C173.457 118.204 172.917 117.664 172.251 117.664Z" fill="#0D0D0D"/>
<path d="M195.798 108.719H151.116C150.45 108.719 149.91 109.259 149.91 109.925V110.401C149.91 111.067 150.45 111.607 151.116 111.607H195.798C196.464 111.607 197.004 111.067 197.004 110.401V109.925C197.004 109.259 196.464 108.719 195.798 108.719Z" fill="#0D0D0D"/>
<path d="M195.798 99.7578H151.116C150.45 99.7578 149.91 100.298 149.91 100.964V101.44C149.91 102.106 150.45 102.646 151.116 102.646H195.798C196.464 102.646 197.004 102.106 197.004 101.44V100.964C197.004 100.298 196.464 99.7578 195.798 99.7578Z" fill="#0D0D0D"/>
<path d="M238.876 238.744L238.407 248.875L231.926 248.01L232.87 236.094L238.876 238.744Z" fill="white"/>
<path d="M238.367 249.297L231.893 248.44C231.783 248.424 231.682 248.367 231.611 248.281C231.541 248.194 231.506 248.084 231.513 247.972L232.457 236.072C232.464 236.002 232.487 235.935 232.524 235.876C232.561 235.817 232.611 235.767 232.671 235.73C232.733 235.697 232.803 235.68 232.873 235.68C232.944 235.68 233.013 235.697 233.076 235.73L239.081 238.38C239.162 238.416 239.229 238.475 239.274 238.551C239.32 238.626 239.341 238.713 239.335 238.801L238.867 248.932C238.861 249.044 238.813 249.15 238.732 249.228C238.651 249.306 238.543 249.351 238.431 249.352L238.367 249.297ZM233.29 236.738L232.425 247.623L237.978 248.369L238.415 239.015L233.29 236.738Z" fill="#0D0D0D"/>
<path d="M280.956 240.788L282.106 247.079H276.441L275.156 239.336L280.956 240.788Z" fill="white"/>
<path d="M276.006 247.147L274.728 239.396C274.717 239.325 274.723 239.251 274.747 239.183C274.771 239.115 274.812 239.053 274.865 239.005C274.919 238.956 274.983 238.921 275.054 238.904C275.124 238.886 275.198 238.886 275.268 238.904L281.067 240.356C281.148 240.378 281.222 240.423 281.28 240.484C281.337 240.546 281.376 240.623 281.392 240.705L282.535 246.997C282.548 247.06 282.547 247.125 282.531 247.187C282.516 247.25 282.486 247.308 282.445 247.358C282.404 247.407 282.352 247.447 282.293 247.474C282.235 247.5 282.171 247.514 282.106 247.512H276.45C276.344 247.514 276.242 247.478 276.161 247.411C276.079 247.345 276.024 247.251 276.006 247.147ZM280.575 241.134L275.704 239.912L276.815 246.632H281.575L280.575 241.134Z" fill="#0D0D0D"/>
<path d="M274.68 247.101V253.829H297.195C297.155 253.48 297.009 253.151 296.776 252.887C296.544 252.623 296.236 252.437 295.894 252.353C291.112 251.158 286.607 249.046 282.629 246.133H275.656C275.527 246.129 275.399 246.151 275.279 246.198C275.159 246.245 275.05 246.316 274.959 246.407C274.868 246.497 274.796 246.606 274.748 246.725C274.7 246.845 274.677 246.973 274.68 247.101Z" fill="#0D0D0D"/>
<path d="M216.559 254.034H239.756C239.701 251.765 239.653 249.496 239.598 247.219C239.589 246.963 239.482 246.72 239.299 246.541C239.116 246.362 238.87 246.261 238.614 246.259C236.043 246.259 233.465 246.196 230.902 246.156C230.646 246.155 230.397 246.242 230.196 246.402C228.53 247.735 226.733 248.897 224.833 249.869C222.619 250.999 220.278 251.862 217.86 252.44C217.498 252.526 217.175 252.729 216.94 253.017C216.705 253.305 216.571 253.663 216.559 254.034Z" fill="#0D0D0D"/>
<path d="M274.68 253.828V255.074H297.211V254.011C297.219 253.95 297.219 253.889 297.211 253.828H274.68Z" fill="#0D0D0D"/>
<path d="M216.559 254.039V255.102L239.788 255.364C239.788 254.928 239.788 254.483 239.788 254.039H216.559Z" fill="#0D0D0D"/>
<path d="M282.637 242.125L274.069 175.689L267.682 113.109H232.854L231.18 182.988V241.006L240.327 242.308L246.134 180.735C247.6 169.485 249.07 158.236 250.546 146.986C253.423 158.733 256.305 170.482 259.193 182.235C263.895 202.259 268.597 222.283 273.299 242.308L282.637 242.125Z" fill="#0D0D0D"/>
<path d="M244.122 55.766C244.749 56.1468 246.01 56.5594 248.509 55.6153L247.518 66.397L255.824 69.15L259.902 65.683C258.546 60.0562 258.162 54.2391 258.767 48.483C260.703 47.6897 261.941 46.2458 261.822 44.9129C261.807 44.6079 261.728 44.3094 261.592 44.0363C261.455 43.7631 261.263 43.5213 261.028 43.3262C260.709 43.1221 260.346 42.9945 259.969 42.9532C259.592 42.9119 259.211 42.9581 258.855 43.0882C258.442 41.3666 258.061 39.6371 257.625 37.9155L250.421 37.4157L243.225 36.7969C243.035 38.6057 242.813 41.1286 242.67 44.1513C242.178 53.7985 243.21 55.2028 244.122 55.766Z" fill="white"/>
<path d="M255.672 69.5631L247.381 66.8102C247.287 66.78 247.206 66.7189 247.152 66.6368C247.097 66.5546 247.071 66.4564 247.08 66.358L248.008 56.2824C246.286 56.8298 244.906 56.7901 243.89 56.1713C242.78 55.4811 241.725 53.9896 242.185 44.1519C242.304 41.6687 242.494 39.1855 242.748 36.7658C242.76 36.6513 242.817 36.5462 242.906 36.4734C242.995 36.4006 243.11 36.3659 243.224 36.377L250.412 36.9959L257.608 37.4877C257.702 37.4928 257.792 37.529 257.864 37.5907C257.936 37.6524 257.985 37.7362 258.004 37.8289L259.139 42.589C259.499 42.5126 259.872 42.5105 260.233 42.5828C260.595 42.6551 260.938 42.8003 261.241 43.0095C261.538 43.2372 261.783 43.5268 261.957 43.8584C262.131 44.19 262.23 44.5554 262.249 44.9294C262.368 46.3971 261.138 47.9442 259.171 48.8407C258.877 51.7247 258.837 54.629 259.052 57.52C259.253 60.2554 259.677 62.9698 260.321 65.636C260.34 65.7149 260.337 65.7974 260.312 65.8745C260.286 65.9516 260.24 66.0201 260.178 66.0724L256.1 69.5393C256.02 69.6068 255.919 69.6434 255.815 69.6425C255.763 69.6249 255.714 69.598 255.672 69.5631ZM258.203 57.5279C257.987 54.5014 258.037 51.4617 258.353 48.444C258.361 48.3643 258.39 48.2881 258.437 48.2237C258.485 48.1593 258.549 48.1093 258.623 48.079C260.376 47.3492 261.495 46.0877 261.408 44.9056C261.397 44.6574 261.334 44.4144 261.221 44.1928C261.109 43.9711 260.951 43.776 260.757 43.6204C260.495 43.4624 260.201 43.3648 259.896 43.3346C259.592 43.3044 259.284 43.3424 258.996 43.4458C258.94 43.4715 258.879 43.4848 258.818 43.4848C258.756 43.4848 258.695 43.4715 258.639 43.4458C258.585 43.4154 258.537 43.3744 258.499 43.3254C258.461 43.2763 258.433 43.2202 258.417 43.1602L257.259 38.297L250.38 37.8209L243.573 37.2418C243.343 39.5108 243.176 41.8274 243.065 44.144C242.645 53.0772 243.486 54.8384 244.351 55.37C245.247 55.9253 246.588 55.8619 248.317 55.1875C248.387 55.161 248.461 55.1522 248.535 55.1619C248.608 55.1716 248.678 55.1995 248.738 55.2431C248.796 55.2906 248.843 55.3514 248.873 55.4204C248.903 55.4893 248.917 55.5645 248.912 55.6397L247.952 66.0724L255.68 68.6349L259.361 65.4615C258.768 62.8512 258.381 60.1986 258.203 57.5279Z" fill="#0D0D0D"/>
<path d="M206.133 69.056C206.04 68.2677 205.672 67.5375 205.094 66.9933C204.118 66.1444 202.936 66.3903 201.873 66.1523C200.691 65.8984 199.12 64.8909 197.66 61.3922C197.559 61.2506 197.492 61.0868 197.466 60.9145C197.439 60.7421 197.454 60.5659 197.51 60.4005C197.606 60.2533 197.736 60.1313 197.89 60.0444C198.043 59.9575 198.214 59.9082 198.39 59.9007C199.437 59.7658 199.977 61.0193 201.341 61.8841C203.174 63.0582 205.634 63.4708 206.102 62.7409C206.57 62.011 204.959 60.5512 205.308 60.2418C205.657 59.9324 208.775 61.7016 209.719 63.8754C209.815 64.0975 210.1 64.7957 210.378 65.6763C210.592 66.3586 210.743 66.9377 210.838 67.3503L206.133 69.056Z" fill="white"/>
<path d="M205.911 69.4399C205.855 69.4075 205.806 69.363 205.769 69.3094C205.732 69.2559 205.707 69.1947 205.697 69.1304C205.625 68.4436 205.31 67.805 204.809 67.3295C204.235 66.9149 203.541 66.7002 202.833 66.7186C202.479 66.7 202.126 66.6549 201.778 66.5838C200.009 66.203 198.493 64.521 197.272 61.5936C197.13 61.393 197.041 61.1598 197.013 60.9157C196.986 60.6717 197.02 60.4245 197.113 60.1972C197.238 59.981 197.415 59.7998 197.629 59.6708C197.842 59.5418 198.085 59.469 198.335 59.4594C199.2 59.3483 199.771 59.9116 200.374 60.4987C200.74 60.8717 201.141 61.2091 201.572 61.5063C203.444 62.7043 205.538 62.8153 205.761 62.4821C205.864 62.3314 205.411 61.6094 205.261 61.3714C204.92 60.8161 204.594 60.3004 204.991 59.9196C205.087 59.8347 205.203 59.7762 205.328 59.7497C205.453 59.7233 205.583 59.7299 205.705 59.7688C207.624 60.4833 209.198 61.9017 210.108 63.7356C210.362 64.34 210.584 64.9569 210.775 65.5841C210.957 66.1474 211.116 66.7186 211.251 67.2819C211.275 67.3869 211.26 67.4971 211.209 67.592C211.158 67.6869 211.074 67.7599 210.973 67.7976L206.284 69.5192C206.234 69.5268 206.183 69.5268 206.133 69.5192C206.053 69.514 205.976 69.4866 205.911 69.4399ZM209.942 65.8063C209.664 64.9336 209.386 64.2196 209.299 64.045C208.55 62.6207 207.366 61.4727 205.919 60.7685L206.007 60.9033C206.411 61.5539 206.919 62.3631 206.475 62.9899C205.753 64.0212 202.944 63.4262 201.104 62.2441C200.617 61.9242 200.168 61.5517 199.763 61.1334C199.184 60.5701 198.858 60.2766 198.446 60.34C198.342 60.3376 198.24 60.3592 198.146 60.4033C198.052 60.4474 197.97 60.5126 197.906 60.5939C197.884 60.6882 197.882 60.7865 197.903 60.8813C197.924 60.9761 197.965 61.065 198.025 61.1413C198.043 61.1681 198.057 61.1975 198.065 61.2286C199.176 63.8943 200.493 65.4096 201.968 65.7349C202.277 65.7965 202.59 65.8363 202.904 65.8539C203.795 65.8328 204.667 66.1123 205.38 66.6472C205.918 67.124 206.295 67.756 206.459 68.4561L210.299 67.0518C210.198 66.6446 210.079 66.2294 209.942 65.8063Z" fill="#0D0D0D"/>
<path d="M205.785 68.6012L213.378 100.129C213.519 100.686 213.812 101.193 214.225 101.593C214.637 101.993 215.153 102.271 215.714 102.395C216.275 102.519 216.86 102.485 217.402 102.297C217.945 102.108 218.425 101.773 218.788 101.327L231.831 85.46C232.371 91.4657 232.735 97.8205 232.854 104.501C232.854 104.913 232.854 105.294 232.854 105.738C232.854 106.183 232.854 106.801 232.854 107.325V110.498C232.854 111.03 232.854 111.561 232.854 112.085C232.854 113.053 232.854 114.013 232.807 114.965C244.338 117.731 256.345 117.85 267.929 115.314C267.754 114.053 267.604 112.696 267.477 111.252C267.429 110.689 267.389 110.11 267.35 109.515C267.294 108.634 267.254 107.73 267.223 106.793V106.635C267.223 106.016 267.223 105.405 267.223 104.81C267.223 102.485 267.294 100.399 267.421 98.6139L276.941 103.112C277.721 103.487 278.588 103.641 279.45 103.56C280.311 103.478 281.133 103.164 281.829 102.65C282.525 102.136 283.068 101.442 283.399 100.643C283.73 99.8438 283.837 98.9695 283.709 98.1141C282.249 89.6992 280.786 81.279 279.321 72.8536C279.084 71.4961 278.544 70.2094 277.742 69.0888C276.94 67.9681 275.897 67.0423 274.688 66.3798L259.218 57.875C259.051 59.0989 258.455 60.2237 257.536 61.0484C256.49 61.9232 255.153 62.3734 253.791 62.3099C252.509 62.2912 251.266 61.8642 250.243 61.0909C249.22 60.3176 248.471 59.2383 248.103 58.0099L232.331 63.8807C231.369 64.2544 230.558 64.9348 230.022 65.8165L218.645 84.5318C216.265 78.6504 213.885 72.7716 211.505 66.8955L205.785 68.6012ZM268.23 91.4499C268.579 89.2919 269.024 86.9436 269.674 84.4525C270.658 87.3509 271.644 90.2466 272.633 93.1397L268.23 91.4499Z" fill="#00C0B5"/>
<path d="M242.067 39.2043C239.203 36.8242 238.695 35.1343 238.894 33.9522C239.187 32.1196 241.472 29.8664 241.448 29.9061C244.32 27.4467 246.605 27.0183 248.152 27.0659C250.635 27.1532 250.921 28.4701 254.769 29.1762C257.998 29.7712 259.291 29.1128 260.703 30.3504C261.441 31.0009 261.806 31.9371 262.536 33.9126C263.265 35.888 263.678 36.9511 263.519 38.0936C263.22 39.6977 262.38 41.1509 261.139 42.2111C260.312 42.7649 259.632 43.5108 259.156 44.3849C258.964 44.802 258.839 45.2462 258.783 45.7019C258.286 44.4945 257.976 43.2184 257.863 41.9175C257.828 41.3892 257.828 40.8592 257.863 40.3308C257.873 40.0812 257.792 39.8363 257.636 39.6411C257.48 39.4458 257.259 39.3133 257.014 39.2677C254.737 38.8314 249.763 40.5133 243.868 39.6247C243.261 39.5162 242.66 39.3758 242.067 39.2043Z" fill="#0D0D0D"/>
<path d="M252.952 45.9071C252.857 46.5815 252.468 47.0813 252.095 47.0258C251.722 46.9702 251.5 46.3831 251.603 45.7088C251.707 45.0344 252.087 44.5346 252.46 44.5902C252.833 44.6457 253.055 45.2328 252.952 45.9071Z" fill="#0D0D0D"/>
<path d="M246.534 45.1171C246.431 45.7835 246.042 46.2913 245.67 46.2357C245.297 46.1802 245.074 45.5931 245.178 44.9188C245.281 44.2444 245.67 43.7446 246.042 43.7922C246.415 43.8398 246.637 44.4427 246.534 45.1171Z" fill="#0D0D0D"/>
<path d="M246.676 51.0859C248.048 51.4157 249.447 51.6149 250.857 51.681C250.782 51.9428 250.655 52.1867 250.483 52.398C250.311 52.6093 250.099 52.7837 249.858 52.9104C249.617 53.0372 249.352 53.1139 249.081 53.1357C248.81 53.1576 248.537 53.1242 248.278 53.0376C247.831 52.9384 247.431 52.6922 247.14 52.3384C246.85 51.9846 246.686 51.5436 246.676 51.0859Z" fill="#0D0D0D"/>
<path d="M254.745 44.315C254.818 44.3133 254.89 44.2913 254.951 44.2515C254.992 44.2259 255.026 44.1924 255.053 44.153C255.08 44.1135 255.098 44.069 255.107 44.0222C255.116 43.9754 255.115 43.9272 255.105 43.8807C255.094 43.8342 255.075 43.7902 255.047 43.7517C254.659 43.1889 254.115 42.7517 253.482 42.4937C252.849 42.2358 252.155 42.1684 251.484 42.2998C251.439 42.3118 251.396 42.3327 251.358 42.3613C251.32 42.3899 251.288 42.4257 251.264 42.4666C251.24 42.5075 251.225 42.5527 251.218 42.5996C251.212 42.6466 251.215 42.6943 251.227 42.7402C251.239 42.786 251.259 42.829 251.288 42.8668C251.317 42.9046 251.352 42.9363 251.393 42.9603C251.434 42.9842 251.479 42.9999 251.526 43.0063C251.573 43.0128 251.621 43.01 251.667 42.998C252.192 42.9039 252.733 42.9631 253.226 43.1685C253.718 43.3739 254.141 43.7168 254.444 44.1563C254.477 44.2053 254.522 44.2453 254.575 44.273C254.627 44.3006 254.686 44.315 254.745 44.315Z" fill="#0D0D0D"/>
<path d="M247.985 42.9242C248.036 42.9248 248.086 42.9144 248.133 42.8939C248.179 42.8734 248.221 42.8431 248.255 42.8052C248.289 42.7726 248.317 42.7332 248.336 42.6896C248.355 42.6459 248.364 42.5989 248.364 42.5514C248.364 42.5038 248.355 42.4568 248.336 42.4131C248.317 42.3695 248.289 42.3301 248.255 42.2975C246.581 40.8377 244.502 41.9484 244.415 41.996C244.372 42.0167 244.334 42.0462 244.304 42.0824C244.273 42.1186 244.25 42.1609 244.237 42.2064C244.223 42.252 244.219 42.2998 244.226 42.3469C244.232 42.394 244.248 42.4393 244.272 42.48C244.32 42.5641 244.4 42.6261 244.493 42.6528C244.586 42.6795 244.686 42.6687 244.772 42.6228C245.239 42.3658 245.771 42.2494 246.303 42.2874C246.835 42.3254 247.345 42.5162 247.771 42.837C247.832 42.8863 247.907 42.9166 247.985 42.9242Z" fill="#0D0D0D"/>
<path d="M249.181 49.877C249.256 49.8768 249.328 49.8539 249.389 49.8114C249.45 49.7689 249.497 49.7087 249.522 49.639C249.539 49.5943 249.546 49.5467 249.543 49.4992C249.541 49.4516 249.529 49.405 249.508 49.3622C249.488 49.3193 249.458 49.281 249.423 49.2495C249.387 49.218 249.345 49.194 249.3 49.1789L247.444 48.5363C249.261 45.5295 249.284 45.4581 249.3 45.4104C249.315 45.3657 249.321 45.3184 249.317 45.2713C249.314 45.2243 249.301 45.1784 249.279 45.1364C249.258 45.0943 249.229 45.0569 249.193 45.0263C249.157 44.9958 249.115 44.9726 249.07 44.9582C248.985 44.9281 248.891 44.9309 248.807 44.9661C248.724 45.0013 248.656 45.0664 248.618 45.1486C248.515 45.339 247.349 47.2828 246.587 48.5521C246.563 48.6002 246.551 48.6532 246.551 48.7068C246.551 48.7605 246.563 48.8134 246.587 48.8616C246.608 48.9103 246.638 48.9543 246.676 48.9911C246.714 49.0279 246.76 49.0567 246.809 49.0758L249.086 49.8691C249.117 49.8764 249.149 49.8791 249.181 49.877Z" fill="#0D0D0D"/>
<path d="M251.666 73.7423L254.745 94.1712C254.757 94.2574 254.751 94.3453 254.726 94.4288C254.702 94.5124 254.659 94.5896 254.602 94.6552C254.545 94.7208 254.474 94.7732 254.394 94.8088C254.315 94.8444 254.229 94.8624 254.142 94.8614H238.465C238.319 94.8613 238.179 94.8093 238.068 94.7148C237.958 94.6203 237.885 94.4894 237.862 94.3458L234.784 73.9168C234.771 73.8306 234.777 73.7428 234.802 73.6592C234.826 73.5757 234.869 73.4984 234.926 73.4328C234.984 73.3672 235.054 73.3148 235.134 73.2792C235.213 73.2436 235.3 73.2257 235.387 73.2266H251.063C251.209 73.2267 251.349 73.2787 251.46 73.3732C251.57 73.4678 251.644 73.5986 251.666 73.7423Z" fill="white"/>
<path d="M237.426 94.4077L234.356 73.9708C234.338 73.8293 234.349 73.6855 234.39 73.5488C234.431 73.4121 234.501 73.2855 234.594 73.1775C234.692 73.0627 234.814 72.9706 234.951 72.9076C235.088 72.8446 235.237 72.8121 235.387 72.8125H251.064C251.314 72.8112 251.556 72.8993 251.747 73.0608C251.937 73.2222 252.064 73.4465 252.103 73.6931L255.182 94.1221C255.203 94.2706 255.193 94.4222 255.15 94.5662C255.108 94.7103 255.035 94.8434 254.936 94.9565C254.837 95.0696 254.715 95.16 254.578 95.2213C254.441 95.2827 254.293 95.3137 254.142 95.3121H238.466C238.212 95.3126 237.967 95.2212 237.776 95.0549C237.585 94.8886 237.461 94.6586 237.426 94.4077ZM251.239 73.7804C251.23 73.7413 251.207 73.7065 251.175 73.6819C251.144 73.6573 251.104 73.6445 251.064 73.6455H235.387C235.363 73.644 235.339 73.6482 235.317 73.6579C235.295 73.6675 235.276 73.6823 235.26 73.7011C235.244 73.7174 235.232 73.7375 235.225 73.7596C235.218 73.7818 235.217 73.8052 235.221 73.828L238.299 94.257C238.306 94.2954 238.327 94.3301 238.358 94.3547C238.388 94.3794 238.426 94.3925 238.466 94.3918H254.142C254.167 94.3923 254.192 94.3877 254.216 94.3781C254.239 94.3686 254.26 94.3543 254.277 94.3363C254.292 94.298 254.292 94.2556 254.277 94.2173L251.207 73.7804H251.239Z" fill="#0D0D0D"/>
<path d="M243.916 85.659C244.832 85.659 245.574 84.9309 245.574 84.0326C245.574 83.1344 244.832 82.4062 243.916 82.4062C243 82.4062 242.258 83.1344 242.258 84.0326C242.258 84.9309 243 85.659 243.916 85.659Z" fill="white"/>
<path d="M241.821 84.0559C241.814 83.6403 241.932 83.2323 242.158 82.8837C242.384 82.5352 242.709 82.2618 243.091 82.0984C243.473 81.935 243.895 81.8889 244.304 81.9661C244.712 82.0433 245.088 82.2403 245.384 82.5319C245.681 82.8235 245.883 83.1966 245.967 83.6037C246.05 84.0109 246.01 84.4336 245.853 84.8182C245.695 85.2027 245.427 85.5317 245.082 85.7633C244.737 85.9949 244.331 86.1186 243.915 86.1186C243.364 86.1207 242.835 85.9051 242.443 85.5187C242.051 85.1323 241.827 84.6065 241.821 84.0559ZM242.701 84.0559C242.696 84.2969 242.764 84.5339 242.894 84.7366C243.025 84.9393 243.212 85.0986 243.434 85.1941C243.655 85.2897 243.9 85.3171 244.137 85.273C244.374 85.2289 244.592 85.1152 244.765 84.9464C244.937 84.7777 245.055 84.5615 245.103 84.3254C245.152 84.0893 245.13 83.844 245.039 83.6208C244.947 83.3976 244.792 83.2066 244.592 83.0722C244.392 82.9377 244.156 82.8659 243.915 82.8658C243.597 82.8637 243.29 82.9877 243.063 83.2106C242.835 83.4336 242.705 83.7374 242.701 84.0559Z" fill="#0D0D0D"/>
<path d="M257.655 88.3793C256.111 88.0668 254.748 87.1718 253.847 85.8802C253.742 85.7372 253.608 85.6186 253.453 85.5323C253.298 85.446 253.127 85.3942 252.95 85.3804C251.696 85.3089 250.485 84.9006 249.444 84.1983C247.793 83.4049 247.571 82.1514 246.429 82.2387C246.075 82.2707 245.739 82.4121 245.469 82.6433C244.58 83.4367 244.969 85.0234 245.136 85.7612C245.494 87.1423 246.24 88.392 247.286 89.363C248.147 90.1985 249.163 90.8587 250.277 91.3068C250.589 91.4286 250.926 91.4775 251.26 91.4496C251.704 91.4132 252.15 91.4132 252.593 91.4496C253.75 91.5297 254.879 91.837 255.917 92.354L257.655 88.3793Z" fill="white"/>
<path d="M255.719 92.7298C254.731 92.2311 253.651 91.9369 252.546 91.865C252.126 91.8293 251.704 91.8293 251.285 91.865C250.882 91.9027 250.477 91.8428 250.102 91.6905C248.918 91.2316 247.839 90.5381 246.929 89.6516C245.827 88.62 245.04 87.2967 244.66 85.8355C244.478 85.0422 244.041 83.265 245.128 82.2971C245.469 81.9984 245.898 81.8176 246.35 81.7815C246.695 81.7767 247.036 81.8542 247.345 82.0073C247.654 82.1604 247.922 82.3848 248.127 82.6621C248.548 83.117 249.045 83.4954 249.595 83.7807L250.253 84.1298C251.065 84.6253 251.992 84.8989 252.943 84.9232C253.199 84.9329 253.45 85.0026 253.674 85.1266C253.899 85.2505 254.091 85.4254 254.236 85.6372C254.713 86.3231 255.336 86.8948 256.061 87.3112C256.59 87.6151 257.167 87.8295 257.766 87.9458C257.83 87.961 257.889 87.9893 257.941 88.029C257.993 88.0686 258.036 88.1186 258.068 88.1759C258.095 88.2356 258.11 88.3005 258.11 88.3663C258.11 88.4321 258.095 88.4971 258.068 88.5567L256.338 92.5235C256.314 92.5782 256.279 92.6275 256.236 92.6684C256.192 92.7093 256.141 92.741 256.084 92.7615C256.035 92.7727 255.983 92.7727 255.934 92.7615C255.861 92.7684 255.787 92.7576 255.719 92.7298ZM255.6 88.0648C254.761 87.5854 254.04 86.9239 253.49 86.129C253.423 86.0386 253.337 85.9635 253.239 85.9088C253.14 85.8541 253.031 85.821 252.919 85.8117C251.845 85.7849 250.797 85.4757 249.88 84.9152L249.246 84.582C248.614 84.2548 248.043 83.8229 247.556 83.3047C247.096 82.8445 246.866 82.6383 246.461 82.67C246.205 82.6987 245.962 82.8007 245.763 82.9636C245.073 83.5824 245.414 85.0342 245.564 85.653C245.905 86.9525 246.61 88.1277 247.595 89.0407C248.411 89.8415 249.38 90.4701 250.444 90.8892C250.694 90.9942 250.967 91.0351 251.237 91.0082C252.767 90.8604 254.31 91.1147 255.711 91.746L257.052 88.6757C256.546 88.5295 256.059 88.3245 255.6 88.0648Z" fill="#0D0D0D"/>
<path d="M259.505 57.9191L260.663 58.4507C260.759 58.4927 260.834 58.5697 260.874 58.6657C260.914 58.7617 260.915 58.8694 260.878 58.9664C260.288 60.4346 259.27 61.6908 257.955 62.571C256.641 63.4511 255.091 63.9141 253.509 63.8995C251.927 63.885 250.386 63.3935 249.088 62.4893C247.79 61.5851 246.794 60.3103 246.232 58.8315C246.214 58.7816 246.205 58.7284 246.207 58.6751C246.21 58.6218 246.223 58.5695 246.246 58.5214C246.269 58.4732 246.301 58.4302 246.341 58.3949C246.381 58.3596 246.428 58.3327 246.478 58.3158L247.518 57.9509C247.737 57.8761 247.977 57.885 248.191 57.9757C248.404 58.0664 248.577 58.2327 248.676 58.4428C249.116 59.3344 249.797 60.085 250.642 60.6099C251.487 61.1348 252.461 61.4129 253.456 61.4129C254.45 61.4129 255.425 61.1348 256.27 60.6099C257.114 60.085 257.795 59.3344 258.236 58.4428C258.284 58.3248 258.356 58.2176 258.446 58.1273C258.536 58.0371 258.644 57.9656 258.762 57.9169C258.88 57.8682 259.006 57.8434 259.134 57.8438C259.261 57.8441 259.388 57.8698 259.505 57.9191Z" fill="#97BCFF"/>
<path d="M258.09 87.5859L261.01 88.6966L258.249 94.2501L255.496 92.9808L258.09 87.5859Z" fill="#97BCFF"/>
<path d="M211.569 66.7266C211.91 67.6627 212.252 68.591 212.601 69.5271L206.539 71.3598L205.746 68.6544L211.569 66.7266Z" fill="#97BCFF"/>
<path d="M232.871 112.092C233.67 112.046 234.438 111.77 235.085 111.298C235.544 110.959 236.1 110.777 236.671 110.777C237.242 110.777 237.798 110.959 238.258 111.298C238.981 111.794 239.837 112.06 240.713 112.06C241.59 112.06 242.446 111.794 243.169 111.298C243.629 110.962 244.185 110.78 244.756 110.78C245.326 110.78 245.882 110.962 246.342 111.298C247.065 111.794 247.921 112.06 248.798 112.06C249.674 112.06 250.53 111.794 251.253 111.298C251.713 110.959 252.269 110.777 252.84 110.777C253.411 110.777 253.967 110.959 254.427 111.298C255.149 111.794 256.005 112.06 256.882 112.06C257.759 112.06 258.615 111.794 259.337 111.298C259.798 110.962 260.354 110.78 260.924 110.78C261.495 110.78 262.05 110.962 262.511 111.298C263.222 111.818 264.081 112.096 264.962 112.092C265.845 112.094 266.706 111.816 267.422 111.298L267.541 111.219C267.493 110.656 267.454 110.077 267.414 109.482C267.109 109.614 266.817 109.773 266.541 109.958C266.08 110.292 265.524 110.472 264.954 110.472C264.385 110.472 263.829 110.292 263.368 109.958C262.645 109.462 261.789 109.196 260.912 109.196C260.036 109.196 259.18 109.462 258.457 109.958C257.995 110.292 257.44 110.472 256.87 110.472C256.3 110.472 255.745 110.292 255.283 109.958C254.559 109.462 253.702 109.197 252.824 109.197C251.946 109.197 251.089 109.462 250.365 109.958C249.903 110.292 249.348 110.472 248.778 110.472C248.208 110.472 247.653 110.292 247.191 109.958C246.468 109.462 245.612 109.196 244.736 109.196C243.859 109.196 243.003 109.462 242.28 109.958C241.818 110.29 241.263 110.468 240.694 110.468C240.124 110.468 239.569 110.29 239.107 109.958C238.397 109.435 237.537 109.157 236.655 109.164C235.772 109.158 234.91 109.437 234.196 109.958C233.813 110.245 233.356 110.418 232.879 110.457C232.879 111.029 232.879 111.56 232.871 112.092Z" fill="#97BCFF"/>
<path d="M232.871 105.715C232.871 106.246 232.871 106.778 232.871 107.302C233.66 107.263 234.422 107.001 235.069 106.548C235.528 106.209 236.084 106.026 236.655 106.026C237.226 106.026 237.782 106.209 238.242 106.548C238.965 107.044 239.821 107.309 240.698 107.309C241.574 107.309 242.43 107.044 243.153 106.548C243.614 106.211 244.169 106.03 244.74 106.03C245.31 106.03 245.866 106.211 246.326 106.548C247.049 107.044 247.905 107.309 248.782 107.309C249.658 107.309 250.515 107.044 251.237 106.548C251.697 106.209 252.253 106.026 252.824 106.026C253.395 106.026 253.951 106.209 254.411 106.548C255.134 107.044 255.99 107.309 256.866 107.309C257.743 107.309 258.599 107.044 259.322 106.548C259.782 106.211 260.338 106.03 260.908 106.03C261.479 106.03 262.034 106.211 262.495 106.548C263.207 107.067 264.066 107.345 264.947 107.341C265.771 107.36 266.581 107.122 267.263 106.659C267.263 106.04 267.263 105.429 267.263 104.834C267.015 104.95 266.776 105.086 266.549 105.239C266.088 105.573 265.532 105.753 264.962 105.753C264.393 105.753 263.837 105.573 263.376 105.239C262.653 104.743 261.797 104.477 260.92 104.477C260.044 104.477 259.188 104.743 258.465 105.239C258.003 105.573 257.448 105.753 256.878 105.753C256.308 105.753 255.753 105.573 255.291 105.239C254.567 104.743 253.71 104.478 252.832 104.478C251.954 104.478 251.097 104.743 250.373 105.239C249.911 105.573 249.356 105.753 248.786 105.753C248.216 105.753 247.661 105.573 247.199 105.239C246.476 104.743 245.62 104.477 244.744 104.477C243.867 104.477 243.011 104.743 242.288 105.239C241.826 105.571 241.271 105.749 240.702 105.749C240.132 105.749 239.577 105.571 239.115 105.239C238.405 104.716 237.545 104.438 236.663 104.445C235.78 104.44 234.918 104.718 234.204 105.239C233.815 105.523 233.352 105.688 232.871 105.715Z" fill="#97BCFF"/>
<path d="M267.112 98.3868L257.957 94.0312" stroke="#0D0D0D" stroke-width="0.793357" stroke-miterlimit="10" stroke-linecap="round"/>
<path d="M268.231 91.4483L261.012 88.6953" stroke="#0D0D0D" stroke-width="0.793357" stroke-miterlimit="10" stroke-linecap="round"/>
<path d="M269.674 84.4455L268.539 79.8281" stroke="#0D0D0D" stroke-width="0.793357" stroke-miterlimit="10" stroke-linecap="round"/>
<path d="M231.832 85.4316L234.339 82.2344" stroke="#0D0D0D" stroke-width="0.793357" stroke-miterlimit="10" stroke-linecap="round"/>
<path d="M24.1641 216.292C25.4008 216.842 26.5851 217.504 27.7024 218.268C32.1135 221.322 32.6926 224.226 36.7943 226.122C38.0714 226.702 39.4311 227.08 40.8246 227.241C43.1362 227.489 45.4732 227.156 47.6236 226.273C47.6236 226.273 51.2096 217.482 34.9299 213.523L34.3587 216.197L33.0497 214.055C31.9019 213.765 30.7108 213.687 29.5351 213.825C27.5375 214.089 25.6659 214.949 24.1641 216.292Z" fill="#00C0B5"/>
<path d="M29.4286 185.898C30.3983 189.007 32.1717 191.804 34.5696 194.007C37.0766 196.244 38.7902 196.387 42.5031 199.624C44.5024 201.377 45.8273 202.567 46.8349 204.558C48.0525 207.073 48.4467 209.907 47.9614 212.658C43.0293 212.126 38.351 210.2 34.4744 207.105L36.0611 203.963L33.086 205.732C31.1677 202.845 29.8547 199.599 29.226 196.19C28.5974 192.781 28.6663 189.28 29.4286 185.898Z" fill="#00C0B5"/>
<path d="M52.1282 199.543C39.9185 196.878 35.3646 184.232 35.3646 184.232C35.7295 183.557 41.1244 181.947 41.1244 181.947L33.9841 180.955C33.9841 180.955 32.6513 178.995 33.3812 174.695C34.1111 170.395 31.1836 164.445 31.1836 164.445C35.2212 165.346 39.0959 166.863 42.6714 168.944C46.4557 171.149 52.1917 174.497 54.5083 180.963C54.8799 182.016 55.1456 183.103 55.3016 184.208L52.8581 187.627L55.5238 186.342C55.6165 190.97 54.4424 195.535 52.1282 199.543Z" fill="#00C0B5"/>
<path d="M62.9262 206.316C62.9262 206.316 52.438 186.76 79.5391 179.469C79.5391 179.469 76.5402 182.809 77.04 189.322C77.5399 195.836 75.5803 196.907 75.5803 196.907L70.5187 196.232L74.6838 200.041C74.6838 200.041 69.2651 207.212 62.9262 206.316Z" fill="#00C0B5"/>
<path d="M80.3072 212.82C80.3072 212.82 62.06 206.655 62.7661 222.705C62.7661 222.705 68.5496 227.917 73.9841 220.008L72.5561 216.985L75.071 217.501C75.071 217.501 78.4507 213.32 80.3072 212.82Z" fill="#00C0B5"/>
<path d="M56.0775 238.539C55.9882 238.527 55.9072 238.48 55.8522 238.409C55.7972 238.338 55.7727 238.248 55.7839 238.158C58.5131 219.451 73.7693 214.358 73.928 214.358C74.0132 214.333 74.1048 214.342 74.1833 214.383C74.2618 214.425 74.3211 214.495 74.3485 214.58C74.3619 214.622 74.3668 214.666 74.3629 214.71C74.359 214.754 74.3463 214.797 74.3256 214.837C74.3049 214.876 74.2767 214.91 74.2425 214.938C74.2082 214.966 74.1688 214.987 74.1263 215C73.9835 215.048 59.116 220.006 56.4583 238.285C56.436 238.366 56.3852 238.437 56.3153 238.483C56.2453 238.53 56.1609 238.55 56.0775 238.539Z" fill="#0D0D0D"/>
<path d="M55.763 242.156C55.6753 242.148 55.5941 242.106 55.5365 242.04C55.4788 241.973 55.4491 241.887 55.4536 241.799C56.4624 223.196 61.7483 205.077 70.9002 188.85C70.9506 188.786 71.0225 188.741 71.1028 188.725C71.1831 188.709 71.2665 188.723 71.3377 188.763C71.4089 188.804 71.4632 188.868 71.4907 188.945C71.5182 189.023 71.517 189.107 71.4873 189.183C62.3797 205.318 57.1232 223.338 56.1279 241.839C56.1259 241.883 56.115 241.927 56.0959 241.967C56.0767 242.007 56.0497 242.043 56.0164 242.073C55.9831 242.102 55.9443 242.125 55.9021 242.139C55.8599 242.153 55.8153 242.159 55.7709 242.156H55.763Z" fill="#0D0D0D"/>
<path d="M54.9907 249.563C54.9467 249.556 54.9044 249.541 54.8665 249.517C54.8285 249.494 54.7956 249.463 54.7698 249.427C54.7439 249.391 54.7255 249.35 54.7158 249.306C54.706 249.263 54.7051 249.218 54.713 249.174C56.9012 235.369 56.5517 221.281 53.6816 207.602C51.8461 198.928 49.0107 190.497 45.2324 182.476C45.2067 182.436 45.1899 182.39 45.1831 182.342C45.1763 182.295 45.1797 182.246 45.193 182.2C45.2062 182.154 45.2292 182.111 45.2602 182.074C45.2912 182.037 45.3297 182.008 45.3731 181.987C45.4164 181.966 45.4637 181.955 45.5118 181.953C45.5599 181.952 45.6077 181.961 45.6522 181.979C45.6966 181.998 45.7365 182.026 45.7695 182.061C45.8024 182.096 45.8276 182.137 45.8433 182.183C49.6325 190.253 52.4731 198.735 54.3084 207.459C57.197 221.222 57.5492 235.396 55.3477 249.285C55.3324 249.367 55.2876 249.44 55.2218 249.492C55.156 249.543 55.0738 249.568 54.9907 249.563Z" fill="#0D0D0D"/>
<path d="M55.6046 243.682C55.5176 243.676 55.4364 243.636 55.3786 243.571C55.3207 243.506 55.2908 243.42 55.2952 243.333C55.4935 234.432 54.0575 217.74 42.1016 205.942C40.1992 204.066 38.1127 202.386 35.8738 200.928C35.8368 200.905 35.8047 200.874 35.7795 200.839C35.7543 200.803 35.7364 200.762 35.7268 200.72C35.7172 200.677 35.7162 200.633 35.7237 200.589C35.7312 200.546 35.7472 200.505 35.7706 200.468C35.8194 200.393 35.8959 200.34 35.9835 200.32C36.0711 200.301 36.1628 200.317 36.2387 200.365C38.5208 201.847 40.6472 203.556 42.5856 205.466C54.716 217.438 56.1837 234.344 55.9774 243.349C55.9764 243.394 55.9666 243.438 55.9485 243.479C55.9304 243.52 55.9044 243.557 55.8719 243.588C55.8395 243.619 55.8013 243.643 55.7595 243.659C55.7177 243.676 55.6732 243.683 55.6284 243.682H55.6046Z" fill="#0D0D0D"/>
<path d="M57.2834 243.827C57.2111 243.823 57.1423 243.795 57.0877 243.747C57.0331 243.7 56.9959 243.636 56.9819 243.565C55.8888 238.118 53.3794 233.056 49.7065 228.889C46.0335 224.722 41.3269 221.596 36.0611 219.828C35.9774 219.797 35.9087 219.736 35.8689 219.656C35.8291 219.576 35.8212 219.484 35.8469 219.399C35.879 219.317 35.9406 219.249 36.0198 219.21C36.099 219.17 36.19 219.161 36.2753 219.185C41.6601 220.987 46.4752 224.176 50.2356 228.431C53.9961 232.686 56.5692 237.856 57.6959 243.422C57.7147 243.51 57.6977 243.603 57.6487 243.678C57.5996 243.754 57.5224 243.808 57.4341 243.827H57.2834Z" fill="#0D0D0D"/>
<path d="M42.9961 239.953L46.2409 256.55H65.8844L69.1293 239.953H42.9961ZM65.1625 255.67H46.9787L44.0751 240.834H68.0582L65.1625 255.67Z" fill="#0D0D0D"/>
<path d="M68.0574 240.836L65.1616 255.672H46.9779L44.0742 240.836H68.0574Z" fill="white"/>
<path d="M69.9721 240.396H42.165L40.5703 234.945H71.5668L69.9721 240.396Z" fill="#0D0D0D"/>
<path d="M312.999 256.548C313.019 256.944 312.883 257.331 312.621 257.628C312.358 257.925 311.99 258.107 311.595 258.135H14.4035C13.9764 258.135 13.5667 257.965 13.2647 257.663C12.9626 257.361 12.793 256.952 12.793 256.525C12.793 256.097 12.9626 255.688 13.2647 255.386C13.5667 255.084 13.9764 254.914 14.4035 254.914H311.595C311.795 254.928 311.99 254.982 312.169 255.072C312.348 255.162 312.508 255.286 312.638 255.438C312.769 255.59 312.868 255.767 312.93 255.957C312.992 256.148 313.015 256.349 312.999 256.548Z" fill="#0D0D0D"/>
</g>
<defs>
<clipPath id="clip0_34264_9459">
<rect width="300" height="248.17" fill="white" transform="translate(13 10)"/>
</clipPath>
</defs>
</svg>
