<svg width="38" height="42" viewBox="0 0 38 42" fill="none" xmlns="http://www.w3.org/2000/svg">
<path d="M16.332 30.4141V37.1722C16.332 37.1722 16.332 40.5513 19.4275 40.5513C22.523 40.5513 22.523 37.1722 22.523 37.1722V30.4141H16.332Z" fill="#DD2E44"/>
<path d="M16.332 37.1722L16.3331 37.2139C17.4072 37.1745 18.4132 36.9053 19.0488 35.7654C19.0876 35.6932 19.143 35.6334 19.2095 35.5918C19.276 35.5502 19.3514 35.5283 19.428 35.5283C19.5047 35.5283 19.58 35.5502 19.6465 35.5918C19.713 35.6334 19.7684 35.6932 19.8072 35.7654C20.4428 36.9042 21.4488 37.1745 22.523 37.2139V30.4141H16.332V37.1722Z" fill="#BE1931"/>
<path d="M33.8286 24.3468C33.8286 31.4158 28.6694 31.4158 28.6694 31.4158H10.0966C10.0966 31.4158 4.9375 31.4158 4.9375 24.3468C4.9375 16.7731 10.0966 3.375 19.383 3.375C28.6694 3.375 33.8286 17.8995 33.8286 24.3468Z" fill="#D99E82"/>
<path d="M19.4276 22.5312C12.2048 22.5312 9.10938 26.5039 9.10938 29.7343C9.10938 31.3774 9.70728 32.9531 10.7716 34.1149C11.8358 35.2767 13.2793 35.9293 14.7844 35.9293C16.4405 35.9293 17.9232 35.1814 18.9623 32.8127C19.0029 32.7153 19.0683 32.6328 19.1507 32.5749C19.2331 32.517 19.3291 32.4862 19.4271 32.4862C19.5251 32.4862 19.621 32.517 19.7035 32.5749C19.7859 32.6328 19.8513 32.7153 19.8919 32.8127C20.931 35.1814 22.4147 35.9293 24.0698 35.9293C25.5749 35.9293 27.0184 35.2767 28.0826 34.1149C29.1469 32.9531 29.7448 31.3774 29.7448 29.7343C29.7458 26.5039 26.6504 22.5312 19.4276 22.5312Z" fill="#F4C7B5"/>
<path d="M16.3304 25.786C15.2986 26.9124 18.3941 30.2915 19.4259 30.2915C20.4577 30.2915 23.5532 26.9124 22.5214 25.786C21.4895 24.6596 17.3622 24.6596 16.3304 25.786ZM14.2668 21.3988C13.1318 21.3988 12.2031 20.3851 12.2031 19.1461V16.8934C12.2031 15.6544 13.1318 14.6406 14.2668 14.6406C15.4018 14.6406 16.3304 15.6544 16.3304 16.8934V19.1461C16.3304 20.3851 15.4018 21.3988 14.2668 21.3988ZM24.585 21.3988C23.45 21.3988 22.5214 20.3851 22.5214 19.1461V16.8934C22.5214 15.6544 23.45 14.6406 24.585 14.6406C25.72 14.6406 26.6487 15.6544 26.6487 16.8934V19.1461C26.6487 20.3851 25.72 21.3988 24.585 21.3988Z" fill="#292F33"/>
<path d="M16.3306 4.06576C15.2379 2.47871 12.906 0.994167 3.77126 4.73257C-0.50462 6.48294 1.58379 20.0556 4.91349 20.9353C6.05468 20.9353 9.48034 20.9353 9.48034 10.9647C9.48034 10.7169 9.47827 10.4883 9.47518 10.2608C11.5326 7.09568 13.7511 5.47259 16.3306 4.06576ZM35.0809 4.73257C25.9462 0.994167 23.6143 2.47871 22.5216 4.06576C25.1011 5.47372 27.3195 7.09681 29.377 10.2619C29.3739 10.4883 29.3718 10.7169 29.3718 10.9659C29.3718 20.9364 32.7965 20.9364 33.9387 20.9364C37.2684 20.0556 39.3568 6.48294 35.0809 4.73257Z" fill="#662113"/>
<path d="M25.1018 29.2904C25.3868 29.2904 25.6178 29.0383 25.6178 28.7272C25.6178 28.4162 25.3868 28.1641 25.1018 28.1641C24.8169 28.1641 24.5859 28.4162 24.5859 28.7272C24.5859 29.0383 24.8169 29.2904 25.1018 29.2904Z" fill="#D99E82"/>
<path d="M12.719 29.2904C13.004 29.2904 13.2349 29.0383 13.2349 28.7272C13.2349 28.4162 13.004 28.1641 12.719 28.1641C12.4341 28.1641 12.2031 28.4162 12.2031 28.7272C12.2031 29.0383 12.4341 29.2904 12.719 29.2904Z" fill="#D99E82"/>
<path d="M27.1643 31.5404C27.4493 31.5404 27.6803 31.2883 27.6803 30.9772C27.6803 30.6662 27.4493 30.4141 27.1643 30.4141C26.8794 30.4141 26.6484 30.6662 26.6484 30.9772C26.6484 31.2883 26.8794 31.5404 27.1643 31.5404Z" fill="#D99E82"/>
<path d="M11.6878 31.5404C11.9727 31.5404 12.2037 31.2883 12.2037 30.9772C12.2037 30.6662 11.9727 30.4141 11.6878 30.4141C11.4029 30.4141 11.1719 30.6662 11.1719 30.9772C11.1719 31.2883 11.4029 31.5404 11.6878 31.5404Z" fill="#D99E82"/>
<path d="M24.5865 32.6668C25.1564 32.6668 25.6183 32.1625 25.6183 31.5404C25.6183 30.9184 25.1564 30.4141 24.5865 30.4141C24.0167 30.4141 23.5547 30.9184 23.5547 31.5404C23.5547 32.1625 24.0167 32.6668 24.5865 32.6668Z" fill="#D99E82"/>
<path d="M14.2701 32.6668C14.84 32.6668 15.3019 32.1625 15.3019 31.5404C15.3019 30.9184 14.84 30.4141 14.2701 30.4141C13.7002 30.4141 13.2383 30.9184 13.2383 31.5404C13.2383 32.1625 13.7002 32.6668 14.2701 32.6668Z" fill="#D99E82"/>
<path d="M11.0566 8.14669C10.7894 7.38864 10.4024 6.57316 9.8432 5.96267C9.7474 5.85809 9.63367 5.77514 9.5085 5.71854C9.38333 5.66194 9.24918 5.63281 9.1137 5.63281C8.97822 5.63281 8.84406 5.66194 8.7189 5.71854C8.59373 5.77514 8.48 5.85809 8.3842 5.96267C8.2884 6.06724 8.21241 6.19139 8.16056 6.32803C8.10872 6.46467 8.08203 6.61111 8.08203 6.75901C8.08203 6.9069 8.10872 7.05335 8.16056 7.18998C8.21241 7.32662 8.2884 7.45077 8.3842 7.55535C8.97234 8.19737 9.48412 9.73373 9.48619 10.1978C9.6358 9.74274 10.3519 8.90248 11.0566 8.14669ZM27.7897 8.14669C28.057 7.38977 28.4439 6.57316 29.0031 5.96267C29.0989 5.85809 29.2127 5.77514 29.3378 5.71854C29.463 5.66194 29.5972 5.63281 29.7326 5.63281C29.8681 5.63281 30.0023 5.66194 30.1274 5.71854C30.2526 5.77514 30.3663 5.85809 30.4621 5.96267C30.5579 6.06724 30.6339 6.19139 30.6858 6.32803C30.7376 6.46467 30.7643 6.61111 30.7643 6.75901C30.7643 6.9069 30.7376 7.05335 30.6858 7.18998C30.6339 7.32662 30.5579 7.45077 30.4621 7.55535C29.874 8.19737 29.3622 9.73373 29.3601 10.1978C29.2105 9.74274 28.4944 8.90248 27.7897 8.14669Z" fill="#380F09"/>
</svg>
