<svg width="30" height="30" viewBox="0 0 30 30" fill="none" xmlns="http://www.w3.org/2000/svg">
<rect width="30" height="30" rx="4" fill="#E6FAF9"/>
<path d="M9 9C7.89543 9 7 9.89543 7 11V12H23V11C23 9.89543 22.1046 9 21 9H9Z" fill="#00C0B5"/>
<path fill-rule="evenodd" clip-rule="evenodd" d="M23 14H7V19C7 20.1046 7.89543 21 9 21H21C22.1046 21 23 20.1046 23 19V14ZM9 18C9 17.4477 9.44772 17 10 17H11C11.5523 17 12 17.4477 12 18C12 18.5523 11.5523 19 11 19H10C9.44772 19 9 18.5523 9 18ZM14 17C13.4477 17 13 17.4477 13 18C13 18.5523 13.4477 19 14 19H15C15.5523 19 16 18.5523 16 18C16 17.4477 15.5523 17 15 17H14Z" fill="#00C0B5"/>
</svg>
