<svg width="30" height="30" viewBox="0 0 30 30" fill="none" xmlns="http://www.w3.org/2000/svg">
<rect width="30" height="30" rx="4" fill="#E6FAF9"/>
<path fill-rule="evenodd" clip-rule="evenodd" d="M8 10C8 9.44772 8.44772 9 9 9H21C21.5523 9 22 9.44772 22 10C22 10.5523 21.5523 11 21 11H9C8.44772 11 8 10.5523 8 10Z" fill="#00C0B5"/>
<path fill-rule="evenodd" clip-rule="evenodd" d="M8 15C8 14.4477 8.44772 14 9 14H21C21.5523 14 22 14.4477 22 15C22 15.5523 21.5523 16 21 16H9C8.44772 16 8 15.5523 8 15Z" fill="#00C0B5"/>
<path fill-rule="evenodd" clip-rule="evenodd" d="M8 20C8 19.4477 8.44772 19 9 19H21C21.5523 19 22 19.4477 22 20C22 20.5523 21.5523 21 21 21H9C8.44772 21 8 20.5523 8 20Z" fill="#00C0B5"/>
</svg>
