<svg width="18" height="24" viewBox="0 0 18 24" fill="none" xmlns="http://www.w3.org/2000/svg">
<path fill-rule="evenodd" clip-rule="evenodd" d="M17.423 20.0488C15.1583 22.2809 12.1002 23.5228 8.92051 23.5017C5.74079 23.4805 2.69952 22.1979 0.464844 19.9358C0.750634 19.1454 1.30571 18.481 2.03262 18.0592C2.52253 17.697 3.05377 17.3943 3.61514 17.1575C2.76155 14.2243 5.08195 12.7823 5.96972 12.3672C5.96972 13.7214 7.23768 12.8227 8.81128 12.8398C10.1068 12.8542 12.6688 14.1583 12.6688 12.4379C14.094 12.8596 15.6474 15.5757 14.5783 17.2445C15.0166 17.4588 15.4308 17.7195 15.8136 18.022C16.5621 18.4982 17.1289 19.2118 17.423 20.0488Z" fill="#00C0B5"/>
<path fill-rule="evenodd" clip-rule="evenodd" d="M6.33358 14.5234L12.1278 14.5584V15.8932L12.1251 15.9137C12.121 15.9742 12.1119 16.0342 12.0979 16.0932L12.0785 16.2256L12.0668 16.2532C11.6917 18.2236 10.0501 18.9852 9.03651 19.5157C7.96854 18.9339 6.45863 17.8858 6.33863 16.0314L6.33358 16.0085V15.9308C6.33275 15.904 6.33224 15.8772 6.33203 15.8504C6.33203 15.8644 6.3332 15.8776 6.33358 15.8916V14.5234Z" fill="#F9DCA4"/>
<path opacity="0.11" fill-rule="evenodd" clip-rule="evenodd" d="M12.1286 14.4922V16.0475C12.1275 16.1917 12.1152 16.3356 12.0917 16.4778C12.0623 16.6539 12.0128 16.826 11.9442 16.9908C9.93095 18.5112 6.72317 17.2642 6.21094 14.6673L12.1286 14.4922Z" fill="black"/>
<path fill-rule="evenodd" clip-rule="evenodd" d="M4.03091 9.29688C2.11246 9.79008 3.74353 12.128 4.95014 12.1179C4.46355 11.2461 4.15133 10.2879 4.03091 9.29688Z" fill="#F9DCA4"/>
<path fill-rule="evenodd" clip-rule="evenodd" d="M14.0251 9.29688C15.9435 9.79008 14.3125 12.128 13.1055 12.1175C13.5922 11.2459 13.9045 10.2879 14.0251 9.29688Z" fill="#F9DCA4"/>
<path fill-rule="evenodd" clip-rule="evenodd" d="M8.93444 3.91406C16.9046 3.91406 13.7985 16.5145 8.93444 16.5145C4.34025 16.5145 0.964314 3.91406 8.93444 3.91406Z" fill="#FFE8BE"/>
<path fill-rule="evenodd" clip-rule="evenodd" d="M5.17287 8.08334C5.24086 8.15787 5.29128 8.24669 5.32043 8.34328C5.34957 8.43986 5.35669 8.54175 5.34127 8.64145C5.32584 8.74115 5.28826 8.83612 5.2313 8.91938C5.17433 9.00264 5.09943 9.07207 5.01209 9.12257C4.44898 9.58587 4.4284 11.2014 4.4284 11.2014C4.21092 10.9855 4.21597 9.82898 3.74451 9.16063C3.27305 8.49228 2.95538 3.81576 5.5919 2.11517C5.42988 2.30573 5.31312 2.53051 5.25037 2.77264C5.18761 3.01477 5.1805 3.26796 5.22957 3.51323C5.22957 3.51323 7.06103 0.886816 10.0995 0.962544C9.8586 1.09389 9.64809 1.27452 9.48168 1.49265C9.31527 1.71079 9.19668 1.96154 9.13366 2.22857C9.13366 2.22857 11.79 1.13264 14.0036 2.43634C13.4281 2.5954 12.8837 2.85108 12.3939 3.19245C13.4688 3.22197 14.5077 3.42158 15.291 4.11828C15.1224 4.1724 14.9664 4.25976 14.8321 4.3752C14.6979 4.49063 14.5881 4.6318 14.5093 4.79036C14.4305 4.94893 14.3844 5.12167 14.3735 5.29839C14.3626 5.47511 14.3872 5.65222 14.4459 5.81926C14.7783 7.17965 14.8094 8.44529 14.4875 9.12568C14.1655 9.80607 14.0137 9.36684 13.8121 10.7936C13.8022 10.89 13.7701 10.9828 13.7182 11.0646C13.6663 11.1464 13.5961 11.2151 13.5131 11.2651C13.5053 11.3684 13.6614 9.80646 13.2587 9.39053C12.8564 8.975 13.1092 8.46432 13.27 8.16218C14.3923 6.0546 11.0311 5.09964 9.19385 5.10197C7.60045 5.10392 3.75694 5.82819 5.17287 8.08334Z" fill="#8A5C42"/>
<path fill-rule="evenodd" clip-rule="evenodd" d="M4.6875 18.5933C4.69915 18.6081 8.73334 23.8294 13.4759 18.5156C12.9031 20.0892 10.4324 21.3389 9.01916 21.3351C6.32013 21.3273 4.82653 19.1603 4.6875 18.5933Z" fill="#434955"/>
<path fill-rule="evenodd" clip-rule="evenodd" d="M11.1104 23.316C10.9512 23.344 10.7912 23.3684 10.63 23.3906V19.9199C10.6359 19.8618 10.6643 19.8082 10.7092 19.7708C10.754 19.7333 10.8118 19.7149 10.87 19.7195C10.9283 19.7148 10.9861 19.7332 11.0311 19.7707C11.076 19.8081 11.1045 19.8617 11.1104 19.9199V23.316ZM7.2968 23.3805C7.13576 23.3574 6.97563 23.3315 6.81641 23.3028V19.9199C6.82231 19.8618 6.85073 19.8082 6.89558 19.7708C6.94043 19.7333 6.99816 19.7149 7.05641 19.7195C7.11479 19.7147 7.17271 19.733 7.21773 19.7705C7.26275 19.808 7.29128 19.8616 7.29718 19.9199L7.2968 23.3805Z" fill="#E6E6E6"/>
</svg>
