<svg width="24" height="25" viewBox="0 0 24 25" fill="none" xmlns="http://www.w3.org/2000/svg">
<path d="M20.9765 18.3348C20.9767 18.4139 20.9606 18.4922 20.929 18.5648C20.745 20.0534 18.7029 21.2431 15.3822 21.7751C14.283 21.9529 13.0948 22.0327 11.9418 22.0327C10.8028 22.0327 9.6606 21.9591 8.57359 21.7858C5.04594 21.2354 2.93945 19.9492 2.93945 18.3456C2.93945 18.3348 2.9425 18.3241 2.94408 18.3118C2.95169 15.8573 4.15676 13.9884 5.83091 12.857C6.0992 10.197 7.26439 2.95312 11.9557 2.95312C11.9572 2.95312 11.9587 2.95468 11.9587 2.95468C11.9603 2.95468 11.9618 2.95312 11.9634 2.95312C16.647 2.95312 17.8152 10.171 18.0866 12.8432C19.9248 14.082 20.9765 16.0827 20.9765 18.3348Z" fill="#27323A"/>
<path d="M4.52344 16.1926C6.25434 15.1839 9.15041 14.6534 11.9406 14.6534C14.7616 14.6534 17.6898 15.1962 19.4145 16.2264C19.0236 15.256 18.3567 14.425 17.4353 13.8056C17.4108 13.7872 17.3955 13.7627 17.3739 13.7412C17.1502 13.6768 16.9784 13.4836 16.957 13.2383C16.5645 8.8276 15.0467 4.11484 11.9621 4.11484C11.9605 4.11484 11.959 4.11328 11.9575 4.11328C11.9575 4.11328 11.956 4.11484 11.9544 4.11484C9.11506 4.11484 7.60498 8.11008 7.07757 12.1866C7.94838 11.8249 8.88358 11.6286 9.81266 11.6286C10.1331 11.6286 10.3922 11.8876 10.3922 12.2081C10.3922 12.5285 10.1331 12.7892 9.81266 12.7892C7.64489 12.7892 5.42497 14.0295 4.52344 16.1926Z" fill="#79CCBF"/>
<path d="M13.4074 19.3719C13.4074 18.564 12.7497 17.9062 11.9403 17.9062C11.1323 17.9062 10.4746 18.564 10.4746 19.3719C10.4746 20.1814 11.1323 20.8391 11.9403 20.8391C12.7497 20.8391 13.4074 20.1813 13.4074 19.3719Z" fill="white"/>
<path d="M19.7849 18.3437C19.7849 17.2874 16.8014 15.8125 11.9415 15.8125C7.10914 15.8125 4.13486 17.2705 4.10268 18.3253V18.3329C4.10268 18.3375 4.09961 18.3406 4.09961 18.3452C4.10117 19.124 5.69865 20.1604 8.75257 20.6372C9.05313 20.6847 9.37196 20.7215 9.69703 20.7553C9.4471 20.352 9.29685 19.8798 9.29685 19.3708C9.29685 17.9129 10.482 16.7278 11.9399 16.7278C13.3979 16.7278 14.5845 17.9129 14.5845 19.3708C14.5845 19.8798 14.4328 20.352 14.1828 20.7553C14.5201 20.72 14.8497 20.6817 15.1595 20.6326C18.1705 20.1512 19.7849 19.1133 19.7849 18.3437Z" fill="#F4CE73"/>
<path d="M11.7443 6.14493C10.8398 6.14493 9.8065 7.94483 9.7605 9.21268C9.74975 9.53309 9.47997 9.78302 9.15954 9.77227C8.83912 9.76003 8.58919 9.49172 8.59994 9.17131C8.66126 7.48485 10.0074 4.98438 11.7443 4.98438C12.0647 4.98438 12.3254 5.2435 12.3254 5.56391C12.3254 5.88432 12.0647 6.14493 11.7443 6.14493Z" fill="#27323A"/>
</svg>
