<svg width="30" height="30" viewBox="0 0 30 30" fill="none" xmlns="http://www.w3.org/2000/svg">
<rect width="30" height="30" rx="4" fill="#DCF4FF"/>
<path fill-rule="evenodd" clip-rule="evenodd" d="M23 15C23 19.4183 19.4183 23 15 23C10.5817 23 7 19.4183 7 15C7 10.5817 10.5817 7 15 7C19.4183 7 23 10.5817 23 15ZM16 19C16 19.5523 15.5523 20 15 20C14.4477 20 14 19.5523 14 19C14 18.4477 14.4477 18 15 18C15.5523 18 16 18.4477 16 19ZM15 10C14.4477 10 14 10.4477 14 11V15C14 15.5523 14.4477 16 15 16C15.5523 16 16 15.5523 16 15V11C16 10.4477 15.5523 10 15 10Z" fill="#0084BF"/>
</svg>
