<svg width="30" height="30" viewBox="0 0 30 30" fill="none" xmlns="http://www.w3.org/2000/svg">
<rect width="30" height="30" rx="4" fill="#DCF4FF"/>
<path d="M12 9.33333L10 8L8 9.33333V19.3333C8 20.4379 8.89543 21.3333 10 21.3333H19.3333C20.4379 21.3333 21.3333 20.4379 21.3333 19.3333V17.3333H20V9.33333L18 8L16 9.33333L14 8L12 9.33333ZM18.6667 17.3333H10.6667V19.3333C10.6667 19.7015 10.3682 20 10 20C9.63181 20 9.33333 19.7015 9.33333 19.3333V10.0469L10 9.60247L12 10.9358L14 9.60247L16 10.9358L18 9.60247L18.6667 10.0469V17.3333ZM19.3333 20H11.8862C11.9599 19.7915 12 19.5671 12 19.3333V18.6667H20V19.3333C20 19.7015 19.7015 20 19.3333 20Z" fill="#0084BF"/>
</svg>
