<svg width="30" height="30" viewBox="0 0 30 30" fill="none" xmlns="http://www.w3.org/2000/svg">
<rect width="30" height="30" rx="4" fill="#DCF4FF"/>
<path d="M18.3341 16.2422C18.3122 16.1359 18.3497 16.0266 18.4279 15.9547L20.3591 14.1516C20.6279 13.9016 20.7247 13.5266 20.6122 13.1766C20.4997 12.8266 20.1997 12.5797 19.8341 12.5359L17.2122 12.2141C17.106 12.2016 17.0122 12.1328 16.9654 12.0359L15.8497 9.64219C15.6935 9.30781 15.3685 9.10156 14.9997 9.10156C14.631 9.10156 14.306 9.30781 14.1497 9.64219L13.0341 12.0359C12.9872 12.1328 12.8966 12.2016 12.7904 12.2141L10.1685 12.5359C9.80286 12.5797 9.50598 12.8266 9.39036 13.1766C9.27786 13.5266 9.37161 13.9016 9.64348 14.1516L11.5779 15.9547C11.656 16.0297 11.6935 16.1359 11.6716 16.2422L11.1685 18.8359C11.0966 19.1984 11.2404 19.5578 11.5372 19.7734C11.7029 19.8922 11.8935 19.9547 12.0872 19.9547C12.2435 19.9547 12.3997 19.9141 12.5435 19.8359L14.856 18.5547C14.9497 18.5016 15.0654 18.5016 15.1591 18.5547L17.4716 19.8359C17.7935 20.0141 18.1779 19.9922 18.4779 19.7734C18.7747 19.5578 18.9185 19.1984 18.8466 18.8359L18.3435 16.2422H18.3341ZM18.1029 19.2672C18.0654 19.2953 17.931 19.3766 17.7685 19.2859L15.456 18.0047C15.1716 17.8484 14.831 17.8484 14.5466 18.0047L12.2341 19.2859C12.0716 19.3766 11.9372 19.2922 11.8997 19.2641C11.8622 19.2359 11.7404 19.1328 11.7779 18.9516L12.281 16.3578C12.3435 16.0391 12.2372 15.7141 11.9997 15.4922L10.0654 13.6891C9.93098 13.5641 9.96536 13.4078 9.98098 13.3641C9.99661 13.3203 10.056 13.1734 10.2404 13.1516L12.8622 12.8297C13.1841 12.7891 13.4591 12.5891 13.5966 12.2953L14.7122 9.90156C14.7904 9.73281 14.9497 9.72031 14.9966 9.72031C15.0435 9.72031 15.2029 9.73281 15.281 9.90156L16.3966 12.2984C16.5341 12.5922 16.8091 12.7922 17.131 12.8328L19.7529 13.1547C19.9372 13.1766 19.9966 13.3234 20.0122 13.3672C20.0279 13.4109 20.0622 13.5672 19.9279 13.6922L17.9966 15.4953C17.7591 15.7172 17.6529 16.0391 17.7154 16.3609L18.2185 18.9547C18.2529 19.1359 18.1341 19.2391 18.0966 19.2672H18.1029Z" fill="#0084BF"/>
<path d="M24.1508 13.9565L22.2352 13.3128C22.182 13.294 22.1414 13.2503 22.1258 13.194L21.657 11.2284C21.5852 10.9253 21.3508 10.7003 21.0477 10.6378C20.7445 10.5753 20.4383 10.6909 20.2539 10.9409L19.7477 11.6222C19.6445 11.7597 19.6727 11.9565 19.8133 12.0597C19.9508 12.1628 20.1477 12.1347 20.2508 11.994L20.757 11.3128C20.8133 11.2378 20.8914 11.244 20.9227 11.2503C20.9539 11.2565 21.0289 11.2815 21.0508 11.3753L21.5195 13.3409C21.582 13.6065 21.7758 13.819 22.0352 13.9065L23.9508 14.5503C24.0414 14.5815 24.0602 14.6565 24.0633 14.6878C24.0664 14.719 24.0633 14.7972 23.9852 14.8472L22.2602 15.9003C22.0258 16.044 21.8852 16.2909 21.882 16.5659L21.8602 18.5847C21.8602 18.6784 21.7914 18.7222 21.7633 18.7347C21.7352 18.7472 21.6602 18.7722 21.5883 18.7097L20.0539 17.394C19.8445 17.2159 19.5633 17.1565 19.2852 17.2472L19.3758 17.5472L19.4914 17.8378C19.5445 17.8222 19.6039 17.8315 19.6477 17.869L21.182 19.1847C21.3289 19.3097 21.5102 19.3753 21.6945 19.3753C21.8039 19.3753 21.9164 19.3503 22.0227 19.3034C22.3039 19.1753 22.482 18.9034 22.4852 18.5909L22.507 16.5722C22.507 16.5159 22.5383 16.4628 22.5852 16.4315L24.3102 15.3784C24.5758 15.2159 24.7195 14.9253 24.6852 14.6159C24.6508 14.3065 24.4445 14.0534 24.1508 13.9565Z" fill="#0084BF"/>
<path d="M10.6968 17.2409C10.4374 17.1597 10.1531 17.2159 9.94682 17.394L8.41245 18.7097C8.34057 18.7722 8.26557 18.7472 8.23745 18.7347C8.20932 18.7222 8.14057 18.6815 8.14057 18.5847L8.1187 16.5659C8.1187 16.2909 7.97495 16.044 7.74057 15.9003L6.01557 14.8472C5.93432 14.7972 5.93432 14.719 5.93745 14.6878C5.94057 14.6565 5.95932 14.5784 6.04995 14.5503L7.96557 13.9065C8.22495 13.819 8.4187 13.6065 8.4812 13.3409L8.94995 11.3753C8.97182 11.2815 9.04682 11.2565 9.07807 11.2503C9.10932 11.244 9.18745 11.2378 9.2437 11.3128L9.74995 11.994C9.85307 12.1315 10.0468 12.1628 10.1874 12.0597C10.3249 11.9565 10.3562 11.7597 10.2531 11.6222L9.74682 10.9409C9.56245 10.6909 9.25932 10.5753 8.95307 10.6378C8.64995 10.7003 8.41557 10.9253 8.3437 11.2284L7.87495 13.194C7.86245 13.2503 7.82182 13.294 7.76557 13.3128L5.84995 13.9565C5.5562 14.0565 5.34995 14.3097 5.31557 14.6159C5.2812 14.9253 5.42495 15.2159 5.69057 15.3784L7.41557 16.4315C7.46557 16.4628 7.4937 16.5128 7.4937 16.5722L7.51557 18.5909C7.5187 18.9003 7.69682 19.1753 7.97807 19.3034C8.08432 19.3503 8.19682 19.3753 8.3062 19.3753C8.49057 19.3753 8.67182 19.3097 8.8187 19.1847L10.3531 17.869C10.3968 17.8315 10.4562 17.819 10.5312 17.844C10.6968 17.894 10.8593 17.8003 10.9124 17.6347C10.9624 17.469 10.8624 17.2909 10.6968 17.2409Z" fill="#0084BF"/>
</svg>
