<svg width="258" height="227" viewBox="0 0 258 227" fill="none" xmlns="http://www.w3.org/2000/svg">
<g opacity="0.3">
<path d="M223.282 87.7323H205.272C204.837 87.7323 204.484 87.3795 204.484 86.9449V80.6937C204.484 80.2586 204.837 79.9062 205.272 79.9062H223.282C223.717 79.9062 224.069 80.2591 224.069 80.6937V86.9449C224.07 87.38 223.717 87.7323 223.282 87.7323Z" fill="url(#paint0_linear_34264_6547)"/>
<path d="M234.216 96.5839H216.206C215.771 96.5839 215.418 96.231 215.418 95.7965V89.5452C215.418 89.1101 215.771 88.7578 216.206 88.7578H234.216C234.651 88.7578 235.003 89.1107 235.003 89.5452V95.7965C235.004 96.2316 234.651 96.5839 234.216 96.5839Z" fill="url(#paint1_linear_34264_6547)"/>
<path d="M62.915 134.334H44.9052C44.4701 134.334 44.1172 133.981 44.1172 133.546V127.295C44.1172 126.86 44.4701 126.508 44.9052 126.508H62.915C63.3501 126.508 63.703 126.861 63.703 127.295V133.546C63.7024 133.981 63.3495 134.334 62.915 134.334Z" fill="url(#paint2_linear_34264_6547)"/>
<path d="M29.3759 107.584H11.3655C10.9304 107.584 10.5781 107.231 10.5781 106.796V100.545C10.5781 100.11 10.931 99.7578 11.3655 99.7578H29.3754C29.8105 99.7578 30.1628 100.111 30.1628 100.545V106.796C30.1633 107.232 29.8105 107.584 29.3759 107.584Z" fill="url(#paint3_linear_34264_6547)"/>
<path d="M227.099 190.225H209.089C208.654 190.225 208.301 189.872 208.301 189.437V183.186C208.301 182.751 208.654 182.398 209.089 182.398H227.099C227.534 182.398 227.886 182.751 227.886 183.186V189.437C227.886 189.872 227.533 190.225 227.099 190.225Z" fill="url(#paint4_linear_34264_6547)"/>
<path d="M246.684 20.2407H228.674C228.239 20.2407 227.887 19.8878 227.887 19.4533V13.202C227.887 12.7669 228.24 12.4141 228.674 12.4141H246.684C247.119 12.4141 247.472 12.7669 247.472 13.202V19.4533C247.471 19.8884 247.119 20.2407 246.684 20.2407Z" fill="url(#paint5_linear_34264_6547)"/>
<path d="M18.7972 98.9126H0.787404C0.352304 98.9126 0 98.5597 0 98.1252V91.8739C0 91.4388 0.352875 91.0859 0.787404 91.0859H18.7972C19.2323 91.0859 19.5846 91.4388 19.5846 91.8739V98.1252C19.5852 98.5603 19.2323 98.9126 18.7972 98.9126Z" fill="url(#paint6_linear_34264_6547)"/>
</g>
<path d="M167.02 6.88281H32.918V120.722H167.02V6.88281Z" fill="url(#paint7_linear_34264_6547)"/>
<path d="M167.02 120.719H32.918V122.639H167.02V120.719Z" fill="url(#paint8_linear_34264_6547)"/>
<path d="M162.399 10.625H37.5312V116.978H162.399V10.625Z" fill="url(#paint9_linear_34264_6547)"/>
<path opacity="0.2" d="M162.4 40.6258V58.7104L86.332 10.625H114.931L162.4 40.6258Z" fill="#FFFCFB"/>
<path opacity="0.2" d="M162.4 65.4847V75.3099L60.082 10.625H75.6149L162.4 65.4847Z" fill="#FFFCFB"/>
<path d="M162.399 84.9306V116.979H137.343L37.5312 53.8843V10.625H44.852L162.399 84.9306Z" fill="#FFFCFB"/>
<path d="M95.4961 119.752V7.85156H104.44V119.752H95.4961Z" fill="url(#paint10_linear_34264_6547)"/>
<path d="M169.411 62.5286H30.5299C30.0731 62.5286 29.7031 62.1586 29.7031 61.7018C29.7031 61.245 30.0731 60.875 30.5299 60.875H169.411C169.868 60.875 170.238 61.245 170.238 61.7018C170.238 62.1586 169.867 62.5286 169.411 62.5286Z" fill="url(#paint11_linear_34264_6547)"/>
<path d="M169.411 7.71611H30.5299C30.0731 7.71611 29.7031 7.3461 29.7031 6.8893C29.7031 6.43251 30.0731 6.0625 30.5299 6.0625H169.411C169.868 6.0625 170.238 6.43251 170.238 6.8893C170.238 7.3461 169.867 7.71611 169.411 7.71611Z" fill="url(#paint12_linear_34264_6547)"/>
<path d="M169.411 11.1458H30.5299C30.0731 11.1458 29.7031 10.7758 29.7031 10.319C29.7031 9.86219 30.0731 9.49219 30.5299 9.49219H169.411C169.868 9.49219 170.238 9.86219 170.238 10.319C170.238 10.7758 169.867 11.1458 169.411 11.1458Z" fill="url(#paint13_linear_34264_6547)"/>
<path d="M169.411 14.5677H30.5299C30.0731 14.5677 29.7031 14.1977 29.7031 13.7409C29.7031 13.2841 30.0731 12.9141 30.5299 12.9141H169.411C169.868 12.9141 170.238 13.2841 170.238 13.7409C170.238 14.1977 169.867 14.5677 169.411 14.5677Z" fill="url(#paint14_linear_34264_6547)"/>
<path d="M169.411 17.9974H30.5299C30.0731 17.9974 29.7031 17.6274 29.7031 17.1706C29.7031 16.7138 30.0731 16.3438 30.5299 16.3438H169.411C169.868 16.3438 170.238 16.7138 170.238 17.1706C170.238 17.6274 169.867 17.9974 169.411 17.9974Z" fill="url(#paint15_linear_34264_6547)"/>
<path d="M169.411 21.4192H30.5299C30.0731 21.4192 29.7031 21.0492 29.7031 20.5924C29.7031 20.1356 30.0731 19.7656 30.5299 19.7656H169.411C169.868 19.7656 170.238 20.1356 170.238 20.5924C170.238 21.0492 169.867 21.4192 169.411 21.4192Z" fill="url(#paint16_linear_34264_6547)"/>
<path d="M169.411 24.8489H30.5299C30.0731 24.8489 29.7031 24.4789 29.7031 24.0221C29.7031 23.5653 30.0731 23.1953 30.5299 23.1953H169.411C169.868 23.1953 170.238 23.5653 170.238 24.0221C170.238 24.4789 169.867 24.8489 169.411 24.8489Z" fill="url(#paint17_linear_34264_6547)"/>
<path d="M169.411 28.2708H30.5299C30.0731 28.2708 29.7031 27.9008 29.7031 27.444C29.7031 26.9872 30.0731 26.6172 30.5299 26.6172H169.411C169.868 26.6172 170.238 26.9872 170.238 27.444C170.238 27.9008 169.867 28.2708 169.411 28.2708Z" fill="url(#paint18_linear_34264_6547)"/>
<path d="M169.411 31.7005H30.5299C30.0731 31.7005 29.7031 31.3305 29.7031 30.8737C29.7031 30.4169 30.0731 30.0469 30.5299 30.0469H169.411C169.868 30.0469 170.238 30.4169 170.238 30.8737C170.238 31.3305 169.867 31.7005 169.411 31.7005Z" fill="url(#paint19_linear_34264_6547)"/>
<path d="M169.411 35.1224H30.5299C30.0731 35.1224 29.7031 34.7524 29.7031 34.2956C29.7031 33.8388 30.0731 33.4688 30.5299 33.4688H169.411C169.868 33.4688 170.238 33.8388 170.238 34.2956C170.238 34.7524 169.867 35.1224 169.411 35.1224Z" fill="url(#paint20_linear_34264_6547)"/>
<path d="M169.411 38.552H30.5299C30.0731 38.552 29.7031 38.182 29.7031 37.7252C29.7031 37.2684 30.0731 36.8984 30.5299 36.8984H169.411C169.868 36.8984 170.238 37.2684 170.238 37.7252C170.238 38.182 169.867 38.552 169.411 38.552Z" fill="url(#paint21_linear_34264_6547)"/>
<path d="M169.411 41.9739H30.5299C30.0731 41.9739 29.7031 41.6039 29.7031 41.1471C29.7031 40.6903 30.0731 40.3203 30.5299 40.3203H169.411C169.868 40.3203 170.238 40.6903 170.238 41.1471C170.238 41.6039 169.867 41.9739 169.411 41.9739Z" fill="url(#paint22_linear_34264_6547)"/>
<path d="M169.411 45.4036H30.5299C30.0731 45.4036 29.7031 45.0336 29.7031 44.5768C29.7031 44.12 30.0731 43.75 30.5299 43.75H169.411C169.868 43.75 170.238 44.12 170.238 44.5768C170.238 45.0336 169.867 45.4036 169.411 45.4036Z" fill="url(#paint23_linear_34264_6547)"/>
<path d="M169.411 48.8255H30.5299C30.0731 48.8255 29.7031 48.4555 29.7031 47.9987C29.7031 47.5419 30.0731 47.1719 30.5299 47.1719H169.411C169.868 47.1719 170.238 47.5419 170.238 47.9987C170.238 48.4555 169.867 48.8255 169.411 48.8255Z" fill="url(#paint24_linear_34264_6547)"/>
<path d="M169.411 52.2552H30.5299C30.0731 52.2552 29.7031 51.8852 29.7031 51.4284C29.7031 50.9716 30.0731 50.6016 30.5299 50.6016H169.411C169.868 50.6016 170.238 50.9716 170.238 51.4284C170.238 51.8852 169.867 52.2552 169.411 52.2552Z" fill="url(#paint25_linear_34264_6547)"/>
<path d="M169.411 55.677H30.5299C30.0731 55.677 29.7031 55.307 29.7031 54.8502C29.7031 54.3934 30.0731 54.0234 30.5299 54.0234H169.411C169.868 54.0234 170.238 54.3934 170.238 54.8502C170.238 55.307 169.867 55.677 169.411 55.677Z" fill="url(#paint26_linear_34264_6547)"/>
<path d="M169.411 59.1067H30.5299C30.0731 59.1067 29.7031 58.7367 29.7031 58.2799C29.7031 57.8231 30.0731 57.4531 30.5299 57.4531H169.411C169.868 57.4531 170.238 57.8231 170.238 58.2799C170.238 58.7367 169.867 59.1067 169.411 59.1067Z" fill="url(#paint27_linear_34264_6547)"/>
<path d="M169.265 3.30779H30.6682C30.1332 3.30779 29.6992 2.87383 29.6992 2.33881V0.968984C29.6992 0.433959 30.1326 0 30.6682 0H169.265C169.8 0 170.234 0.433959 170.234 0.968984V2.33881C170.234 2.8744 169.8 3.30779 169.265 3.30779Z" fill="url(#paint28_linear_34264_6547)"/>
<path d="M160.397 3.3125H159.445V65.4793H160.397V3.3125Z" fill="url(#paint29_linear_34264_6547)"/>
<path d="M160.339 69.1132H159.499C159.133 69.1132 158.836 68.8163 158.836 68.4497V65.2807C158.836 64.9141 159.133 64.6172 159.499 64.6172H160.339C160.706 64.6172 161.003 64.9141 161.003 65.2807V68.4497C161.003 68.8163 160.706 69.1132 160.339 69.1132Z" fill="url(#paint30_linear_34264_6547)"/>
<path d="M43.1671 172.384C42.9421 171.14 42.9724 169.868 43.2859 168.642C44.3354 164.541 45.5367 156.826 42.8673 148.491C38.4147 134.588 20.3672 122.273 20.3672 122.273C20.3672 122.273 25.2658 142.792 29.293 151.528C32.2416 157.924 37.4 165.203 40.2624 169.036C41.0567 170.099 41.6009 171.325 41.8373 172.631C44.755 188.776 44.3325 201.275 44.3251 201.469L45.6795 201.522C45.6869 201.327 46.1163 188.7 43.1671 172.384Z" fill="url(#paint31_linear_34264_6547)"/>
<path d="M57.5578 159.311C61.1425 147.977 62.8099 134.625 62.8099 134.625C62.8099 134.625 46.6284 147.977 45.3019 158.308C44.4894 164.636 45.4995 169.712 46.4051 172.699C46.7894 173.967 46.9293 175.293 46.7871 176.61C45.1489 191.814 46.4319 203.466 46.4525 203.644L47.6704 203.504C47.6504 203.333 46.4599 192.491 47.8623 178.125C48.0547 176.158 48.8473 174.298 50.092 172.762C52.4074 169.905 55.7186 165.125 57.5578 159.311Z" fill="url(#paint32_linear_34264_6547)"/>
<path d="M74.0079 134.102C74.0079 134.102 56.5702 140.573 52.0113 154.81C49.2363 163.475 50.5473 171.485 51.6316 175.634C51.936 176.798 51.9194 178.013 51.6282 179.181C47.5433 195.564 47.4805 212.525 47.4805 212.75H48.8691C48.8691 212.529 48.9325 195.973 52.877 179.905C53.2687 178.309 53.9647 176.809 54.9445 175.489C57.9183 171.484 62.9796 164.277 65.91 157.919C70.0343 148.973 74.0079 134.102 74.0079 134.102Z" fill="url(#paint33_linear_34264_6547)"/>
<path d="M43.2409 194.169C42.807 188.209 41.1825 182.844 39.2142 178.342C38.8202 177.441 38.6809 176.455 38.8071 175.479C39.0509 173.599 39.1514 170.679 38.4 166.969C36.9851 159.983 27.7138 144.892 14.2891 144.008C14.2891 144.008 18.921 151.454 21.3043 157.684C24.3198 165.567 28.6239 173.812 35.762 176.977C37.017 177.533 38.0003 178.575 38.5239 179.844C40.2443 184.015 41.6261 188.887 42.0173 194.257L43.2409 194.169Z" fill="url(#paint34_linear_34264_6547)"/>
<path d="M37.2554 224.738H54.1569L58.7352 184.841C58.8294 184.019 58.1859 183.297 57.3579 183.297H34.0544C33.2259 183.297 32.5829 184.019 32.6771 184.841L37.2554 224.738Z" fill="url(#paint35_linear_34264_6547)"/>
<path d="M127.97 216.131L123.689 219.061L119.746 217.223C119.006 208.488 115.256 196.957 115.831 182.04C116.069 175.865 117.748 171.93 118.654 169.654C118.033 166.999 113.115 157.637 111.372 154.306C110.724 153.074 110.067 151.778 109.41 150.428C107.785 147.079 106.134 143.42 104.546 139.651C100.987 131.302 97.6386 122.424 95.0742 115.133H120.496C120.496 115.133 131.811 150.939 133.663 162.911C133.663 162.911 127.459 214.634 127.97 216.131Z" fill="url(#paint36_linear_34264_6547)"/>
<path opacity="0.5" d="M109.411 150.431C107.786 147.082 106.135 143.423 104.547 139.655L108.246 129.562L109.411 150.431Z" fill="url(#paint37_linear_34264_6547)"/>
<path d="M82.6045 115.141C77.7379 126.302 87.1713 160.287 86.8516 163.683C85.0992 165.781 82.2568 168.522 74.0995 180.06C65.9576 191.608 64.8168 199.084 61.4051 204.962C60.8689 205.966 60.5417 206.62 59.7852 207.523L61.8293 212.451L65.0223 212.139C68.7041 209.353 82.1557 195.192 92.489 183.18C99.2788 175.287 104.722 168.322 105.163 166.12C108.799 147.995 108.155 115.141 108.155 115.141H82.6045V115.141Z" fill="url(#paint38_linear_34264_6547)"/>
<path d="M142.095 224.742H118.943C117.141 221.966 118.996 219.207 119.748 217.221C119.748 217.221 124.057 218.548 127.966 216.125C129.729 217.129 132.696 218.394 134.183 219.291C135.938 220.349 140.155 221.714 141.512 222.112C142.516 222.412 143.03 223.937 142.095 224.742Z" fill="url(#paint39_linear_34264_6547)"/>
<path d="M62.9466 225.11C61.076 223.15 54.4376 214.043 53.3516 212.444C53.4081 210.884 54.9858 209.286 57.4479 208.234C58.2153 207.906 59.0079 207.691 59.7833 207.516C61.1976 210.054 65.0205 212.132 65.0205 212.132C65.4938 214.046 65.9518 217.874 66.3303 219.882C68.6115 221.004 73.453 222.553 71.2729 225.072C69.6004 225.225 65.3037 225.262 62.9466 225.11Z" fill="url(#paint40_linear_34264_6547)"/>
<path d="M137.074 74.2656L124.145 76.6866C124.145 76.6866 133.994 87.4385 139.876 91.9694L145.607 85.7541C141.787 80.208 137.074 74.2656 137.074 74.2656Z" fill="url(#paint41_linear_34264_6547)"/>
<path d="M168.269 93.7911C168.826 94.245 168.91 94.6681 169.797 95.4247C170.149 95.7256 171.415 96.8077 172.307 95.5475C172.783 95.5498 173.795 95.6023 174.207 94.5814C174.608 94.5517 175.666 94.6048 176.035 93.7231C176.85 93.4256 177.386 92.3065 178.024 91.9645C179.47 91.0703 180.249 90.0328 179.666 89.3133C179.083 88.5939 174.987 88.8565 174 88.5151C173.012 88.173 169.163 88.3346 168.058 88.6253C166.952 88.9159 148.769 83.2825 144.094 83.5988L139.211 91.3215C139.518 91.7304 139.74 91.892 140.054 92.0867C148 95.0713 167.269 94.45 168.269 93.7911Z" fill="url(#paint42_linear_34264_6547)"/>
<path d="M139.621 76.9137C139.621 76.9137 135.319 82.6277 130.094 84.7997C129.629 84.999 129.153 85.168 128.67 85.3005L122.171 79.357L121.32 78.5787L125.152 60.5078C125.152 60.5078 130.009 62.8615 139.621 76.9137Z" fill="url(#paint43_linear_34264_6547)"/>
<path opacity="0.4" d="M130.094 84.799C129.63 84.9983 129.153 85.1673 128.67 85.2998L122.172 79.3563L122.262 79.0245L123.016 77.3047L125.076 77.3053C125.076 77.3053 126.585 80.2733 130.094 84.799Z" fill="url(#paint44_linear_34264_6547)"/>
<path d="M107.656 55.0896C107.656 55.0896 96.0683 56.4566 92.7753 60.5215C85.7995 69.131 87.1807 87.4931 84.8511 97.5838C82.5214 107.674 80.1746 114.026 82.6053 115.135C92.9301 119.848 119.729 119.357 121.007 115.132C121.465 110.257 120.989 104.903 124.145 85.3028C125.488 76.9668 130.158 64.6881 126.123 61.2547C125.19 60.4598 122.033 58.2227 118.568 56.7718C115.006 55.2809 111.102 54.5928 107.656 55.0896Z" fill="url(#paint45_linear_34264_6547)"/>
<path d="M118.571 56.7624C114.68 58.8528 106.913 56.2833 107.66 55.0802C107.995 54.5343 108.742 52.3531 109.056 51.3567C109.794 48.9882 109.876 46.8607 110.323 44.1719L118.768 46.5569C118.511 48.5948 118.324 50.0891 118.26 51.4492C118.174 52.8345 118.213 54.0752 118.405 55.6244C118.434 55.8927 118.525 56.474 118.571 56.7624Z" fill="url(#paint46_linear_34264_6547)"/>
<path d="M118.403 55.6238C114.592 54.447 112.656 50.3957 112.656 50.3957L116.057 50.1953L118.257 51.4487C118.173 52.8339 118.211 54.0752 118.403 55.6238Z" fill="#EF8F73"/>
<path d="M126.785 34.4844C127.441 35.0731 128.171 36.0032 127.789 38.8337C127.486 41.0748 126.745 43.1732 123.686 44.6607C122.941 45.0227 122.121 39.3384 121.973 38.5242" fill="url(#paint47_linear_34264_6547)"/>
<path d="M126.882 37.6015C127.156 34.674 125.427 34.2531 122.747 32.877C119.879 31.4044 116.211 31.3959 113.291 32.7286C108.571 34.8841 107.452 41.0297 109.365 45.8535C111.278 50.6773 113.22 51.8005 114.532 52.5867C116.878 53.9925 121.564 54.9312 122.845 53.7179C125.143 51.5407 126.554 41.088 126.882 37.6015Z" fill="url(#paint48_linear_34264_6547)"/>
<path d="M114.088 29.0619C113.302 29.5644 112.503 30.2582 112.03 31.061C110.504 30.5477 108.205 31.8895 107.454 33.313C104.097 39.6756 108.029 46.8091 109.776 48.0213C109.841 47.5645 109.911 47.2762 109.948 47.1397C110.188 46.2735 110.584 43.5636 110.824 43.1707C111.064 42.7779 114.221 37.1792 114.221 37.1792C115.485 37.6697 120.857 38.4851 122.223 38.5268C123.905 38.5782 125.703 38.8066 127.313 38.1374C129.791 37.1067 131.793 32.2053 127.569 32.0534C128.285 30.5071 127.308 28.6383 125.633 28.8352C124.351 28.986 122.597 29.8402 120.618 29.6649C121.409 26.6483 115.119 28.4013 114.088 29.0619Z" fill="url(#paint49_linear_34264_6547)"/>
<path d="M112.775 46.7329C112.364 47.5289 111.151 47.6174 110.325 47.2725C109.498 46.9276 108.917 46.1071 108.762 45.2249C108.606 44.3433 108.67 43.2972 109.193 42.5703C109.804 41.7207 110.696 42.0016 111.003 42.2055C111.311 42.4099 111.542 42.7068 111.769 42.9986C111.769 42.9986 113.653 45.0302 112.775 46.7329Z" fill="url(#paint50_linear_34264_6547)"/>
<path d="M117.37 37.3556C117.37 37.3556 116.993 40.2974 115.494 41.2658C114.684 41.7894 113.877 41.714 113.751 42.132C113.625 42.5494 113.245 44.4474 113.245 44.4474L111.968 44.3264C111.968 44.3264 111.959 43.1261 111.258 42.4061C110.556 41.6861 110.864 37.5332 110.864 37.5332C110.864 37.5332 112.02 36.2108 112.303 35.951C112.586 35.6912 113.572 35.1259 114.031 35.0265C114.491 34.9266 115.537 34.7679 115.704 34.8124C115.872 34.8569 117.37 37.3556 117.37 37.3556Z" fill="url(#paint51_linear_34264_6547)"/>
<path d="M132.023 217.586C132.023 217.586 130.882 218.743 130.426 220.173C129.723 222.377 130.234 224.741 130.234 224.741H148.984C148.984 224.741 150.421 223.061 148.84 222.041C147.185 220.975 139.753 219.374 139.753 219.374C139.753 219.374 134.994 220.317 132.023 217.586Z" fill="url(#paint52_linear_34264_6547)"/>
<path d="M174.211 217.586C174.211 217.586 173.069 218.743 172.613 220.173C171.911 222.377 172.422 224.741 172.422 224.741H191.171C191.171 224.741 192.609 223.061 191.028 222.041C189.372 220.975 181.182 218.288 181.182 218.288C181.182 218.288 177.181 220.317 174.211 217.586Z" fill="url(#paint53_linear_34264_6547)"/>
<path d="M195.398 131.63C195.398 131.63 196.58 132.62 196.867 133.547C197.155 134.473 197.769 136.055 197.769 136.055L203.032 131.631L196.867 129.867L195.749 129.555L195.398 131.63Z" fill="url(#paint54_linear_34264_6547)"/>
<path d="M181.726 101.664L185.398 110.672C185.398 110.672 196.706 126.661 198.335 128.098L195.398 131.625C195.398 131.625 180.062 121.5 176.239 115.91C173.652 112.128 172.672 108.595 172.672 108.595" fill="url(#paint55_linear_34264_6547)"/>
<path d="M180.063 166.106L164.294 172.247C163.742 171.526 162.492 169.824 160.791 167.256H160.783C158.936 164.466 156.552 160.655 153.968 155.987C151.791 152.062 149.476 147.531 147.207 142.495C144.501 136.484 141.541 126.71 142.991 120.969C144.394 115.488 152.98 114.797 155.9 114.813C157.234 114.835 178.783 156.155 180.063 166.106Z" fill="url(#paint56_linear_34264_6547)"/>
<path opacity="0.5" d="M160.788 167.257H160.781C158.933 164.466 156.549 160.656 153.965 155.987L153.383 143.758C153.383 143.758 159.876 164.964 160.788 167.257Z" fill="url(#paint57_linear_34264_6547)"/>
<path d="M173.004 219.246C175.191 219.764 179.326 219.303 181.182 218.288C181.218 201.131 180.134 166.941 180.061 166.109L164.594 171.397C159.865 182.949 171.821 216.234 173.004 219.246Z" fill="url(#paint58_linear_34264_6547)"/>
<path d="M141.396 176.107C132.134 192.817 132.485 211.859 132.023 217.583C134.173 219.854 138.316 219.723 139.754 219.372C140.204 219.262 158.615 181.983 157.9 171.922L143.765 172.242L141.396 176.107Z" fill="url(#paint59_linear_34264_6547)"/>
<path d="M147.596 119.352L132.949 121.87C127.277 131.156 125.495 141.755 128.877 149.443C129.768 151.469 137.295 167.468 142.199 174.774L157.921 173.026C159.218 164.838 147.596 119.352 147.596 119.352Z" fill="url(#paint60_linear_34264_6547)"/>
<path d="M184.113 107.146C182.112 109.247 177.151 111.217 173.51 112.374C173.112 112.504 172.729 112.62 172.368 112.727C171.854 112.045 170.199 109.461 169.056 107.652C168.466 106.717 168.014 105.996 167.922 105.842L178.624 93.0938C178.624 93.0938 181.828 100.254 184.113 107.146Z" fill="url(#paint61_linear_34264_6547)"/>
<path opacity="0.5" d="M173.508 112.377C173.11 112.507 172.727 112.622 172.366 112.73C171.853 112.047 170.197 109.464 169.055 107.655L171.469 107.156C171.469 107.156 172.22 109.747 173.508 112.377Z" fill="url(#paint62_linear_34264_6547)"/>
<path d="M168.431 115.622C165.71 127.444 164.522 128.225 163.931 129.23C163.188 130.487 156.58 130.955 148.024 130.732C142.942 130.602 132.194 127.398 131.174 125.266C130.76 124.4 131.481 115.63 135.222 103.663C135.59 102.475 135.989 101.256 136.426 100.006C136.587 99.5385 136.771 99.0401 136.978 98.5267C139.301 92.6392 144.069 84.3289 147.932 81.6994C149.58 80.5723 153.59 80.2046 158.55 80.2737C162.828 80.3348 167.366 81.6075 169.497 82.5891C174.327 85.0729 176.833 88.9443 178.804 93.5745C179.332 94.6788 170.93 104.791 168.431 115.622Z" fill="url(#paint63_linear_34264_6547)"/>
<path d="M159.875 80.3288C159.875 80.3288 165.706 85.7733 169.497 82.5888L172.598 75.0248L164.776 69.9572L164.074 69.0156C164.074 69.0156 163.922 70.5853 163.676 72.8773C163.531 74.1763 163.437 75.7111 163.175 77.3059C162.856 79.2576 159.875 80.3288 159.875 80.3288Z" fill="url(#paint64_linear_34264_6547)"/>
<path d="M181.331 68.7049C181.331 68.7049 181.52 72.1377 178.5 73.5932L179.047 68.2578L181.331 68.7049Z" fill="url(#paint65_linear_34264_6547)"/>
<path d="M164.595 76.1869C164.837 76.8481 165.123 77.4967 165.441 78.1237C165.441 78.1237 165.441 78.1237 165.444 78.1351C165.976 79.1635 166.628 80.1439 167.388 81.0323C168.368 82.1738 169.328 82.9549 170.238 83.4825C170.716 83.7823 171.168 83.9918 171.606 84.1568C173.643 84.9043 175.08 84.4361 175.08 84.4361C177.83 82.0716 179.05 77.3471 179.582 73.6539C179.805 72.1613 179.907 70.8383 179.965 69.9065C180.011 69.0631 180.008 68.5515 180.008 68.5515C180.01 68.5144 180.014 68.4887 180.015 68.4516C180.432 63.6084 174.316 61.7578 169.366 63.191C169.073 63.2766 168.795 63.3697 168.513 63.4885C167.104 64.0098 165.831 64.8326 164.899 65.9466C163.308 67.8509 163.238 70.4946 163.678 72.8796C163.703 73.0064 163.728 73.1337 163.753 73.2605C163.968 74.3323 164.286 75.3378 164.595 76.1869Z" fill="url(#paint66_linear_34264_6547)"/>
<path d="M170.628 58.0364C175.401 56.6563 180.578 59.9767 183.535 62.163C185.813 63.8469 184.14 69.0635 180.521 69.8212C176.659 70.6292 173.859 69.4524 171.925 67.9135C171.765 68.7101 171.469 69.5683 170.917 70.0833C170.443 70.5258 169.316 70.8776 168.691 71.0477C168.563 71.8711 168.426 72.6203 168.281 73.181L167.32 73.4065C167.232 73.0731 167.151 72.6414 167.066 72.079C167.066 72.079 166.821 69.916 165.352 69.7025C164.894 69.6362 164.066 69.8515 163.797 70.6423C163.527 71.4343 163.814 72.8024 163.656 73.8907C163.468 75.1715 163.331 76.4614 163.178 77.3002C163.178 77.3002 160.573 74.1003 161.277 66.8777C161.741 62.0557 163.8 59.8094 166.478 59.8705C168.92 59.9253 168.639 58.6114 170.628 58.0364Z" fill="url(#paint67_linear_34264_6547)"/>
<path d="M132.312 85.2969L137.918 95.6942L129.967 98.6605L130.849 118.774C130.849 118.774 131.428 119.768 132.31 120.636C132.808 121.125 133.776 121.73 134.396 122.517C134.724 122.933 135.814 125.031 135.779 125.285C135.743 125.539 135.47 126.012 134.634 125.507C133.798 125.002 132.301 123.433 132.301 123.433C132.301 123.433 132.254 124.872 132.229 125.865C132.227 125.978 133.088 127.687 133.11 128.77C133.132 129.762 132.724 129.717 132.724 129.717C132.724 129.717 132.992 130.242 132.826 130.527C132.691 130.761 132.084 130.959 131.554 130.212C131.554 130.212 131.291 130.236 131.054 130.18C130.701 130.097 130.438 129.755 130.438 129.755C130.438 129.755 130.157 129.949 129.742 129.679C128.62 128.947 127.937 127.747 127.937 127.747C127.46 127.084 126.643 125.564 126.357 124.685C125.978 123.521 126.322 121.145 126.254 120.159C124.603 115.169 118.479 103.137 120.578 95.9911C122.349 89.9534 132.312 85.2969 132.312 85.2969Z" fill="url(#paint68_linear_34264_6547)"/>
<path opacity="0.5" d="M147.04 96.1413C147.04 96.1413 140.179 101.684 135.227 103.669C135.595 102.481 135.993 101.262 136.43 100.013C136.591 99.545 136.775 99.0465 136.982 98.5332L141.957 95.375L147.04 96.1413Z" fill="url(#paint69_linear_34264_6547)"/>
<path d="M129.454 86.2892C129.454 86.2892 128.861 88.9472 131.1 94.4247C131.981 96.578 135.233 100.68 135.233 100.68C137.129 100.306 142.947 98.6678 149.537 94.7388C154.91 91.5349 154.952 86.3514 154.952 86.3514C154.952 86.3514 154.59 80.6763 151.681 80.5872C145.551 80.4005 135.408 83.123 129.454 86.2892Z" fill="url(#paint70_linear_34264_6547)"/>
<path d="M167.32 73.405C167.32 73.405 166.525 78.5828 166.902 80.4306C167.279 82.2783 170.14 84.0553 172.248 84.5772C174.357 85.0996 176.09 84.7878 177.112 82.5524C178.134 80.3164 178.397 78.8655 178.397 78.8655C178.397 78.8655 176.566 78.0124 174.021 77.6652C171.739 77.3535 169.908 75.9163 169.493 75.5331C169.078 75.15 168.982 71.8491 168.894 70.9286C168.806 70.0082 167.47 72.7621 167.32 73.405Z" fill="url(#paint71_linear_34264_6547)"/>
<path d="M214.652 225.203L207.887 138.88C207.675 136.199 205.318 134.199 202.646 134.401C201.245 134.512 199.98 135.203 199.126 136.338C198.382 137.325 198.084 138.578 198.181 139.81L198.268 140.927C198.324 141.638 197.793 142.258 197.083 142.314C196.373 142.37 195.751 141.839 195.695 141.129L195.612 140.067C195.458 138.099 195.987 136.106 197.23 134.572C198.531 132.966 200.391 131.989 202.443 131.828C206.548 131.502 210.136 134.579 210.458 138.677L217.224 225L214.652 225.203Z" fill="url(#paint72_linear_34264_6547)"/>
<path d="M198.337 128.102C198.337 128.102 198.881 128.626 199.775 128.914C200.669 129.201 201.231 129.562 202.477 129.817C203.216 129.969 203.086 129.768 204.01 130.948C204.645 131.759 205.205 131.95 205.16 132.202C205.073 132.692 204.473 132.942 203.355 132.495C202.237 132.048 202.426 131.917 202.011 131.853C202.011 131.853 199.295 132.268 198.337 132.332C197.379 132.396 195.367 130.791 195.367 130.791L198.337 128.102Z" fill="url(#paint73_linear_34264_6547)"/>
<path d="M200.103 136.216C200.103 136.216 199.873 136.199 199.672 136.169C199.533 135.981 199.405 135.815 199.238 135.605C199.238 135.605 198.681 135.038 198.306 135.251C198.081 135.378 198.278 135.916 198.657 136.496C199.005 137.028 199.606 136.918 199.73 136.865C200.103 136.705 200.103 136.216 200.103 136.216Z" fill="url(#paint74_linear_34264_6547)"/>
<path d="M201.235 135.523C201.235 135.523 200.937 135.502 200.676 135.463C200.496 135.22 200.33 135.004 200.113 134.733C200.113 134.733 199.392 133.998 198.905 134.272C198.613 134.437 198.869 135.135 199.36 135.887C199.811 136.576 200.59 136.434 200.751 136.365C201.235 136.157 201.235 135.523 201.235 135.523Z" fill="url(#paint75_linear_34264_6547)"/>
<path d="M202.36 134.867C202.36 134.867 202.063 134.846 201.802 134.807C201.621 134.563 201.455 134.348 201.238 134.076C201.238 134.076 200.516 133.341 200.029 133.616C199.738 133.781 199.993 134.478 200.485 135.23C200.936 135.92 201.715 135.777 201.876 135.708C202.36 135.501 202.36 134.867 202.36 134.867Z" fill="url(#paint76_linear_34264_6547)"/>
<path d="M203.516 134.414C203.516 134.414 203.218 134.393 202.957 134.354C202.777 134.11 202.611 133.895 202.394 133.623C202.394 133.623 201.673 132.888 201.186 133.163C200.894 133.327 201.15 134.025 201.641 134.777C202.092 135.467 202.871 135.324 203.032 135.255C203.516 135.048 203.516 134.414 203.516 134.414Z" fill="url(#paint77_linear_34264_6547)"/>
<path d="M180.266 160.211C181.449 161 182.48 161.919 182.516 162.368C182.604 163.461 181.379 164.031 181.376 164.602C181.371 165.57 182.936 165.772 183.239 166.691C183.583 167.731 182.068 168.642 182.266 169.719C182.431 170.613 183.686 171.015 183.781 171.919C183.883 172.88 182.622 174.176 182.028 175.006" stroke="#BFBFBF" stroke-width="1.0567" stroke-miterlimit="10" stroke-linecap="round"/>
<path d="M201.281 126.759C201.652 126.676 202.03 126.628 202.41 126.618C202.792 126.609 203.207 126.65 203.489 126.908C203.841 127.231 203.87 127.784 204.168 128.158C204.474 128.541 204.998 128.662 205.484 128.721C205.971 128.78 206.486 128.81 206.894 129.081C207.258 129.323 207.492 129.75 207.499 130.188C207.505 130.565 207.356 130.959 207.497 131.309C207.593 131.549 207.809 131.717 208.029 131.855C208.316 132.035 208.624 132.182 208.945 132.291C209.363 132.433 209.822 132.524 210.143 132.826C210.417 133.083 210.549 133.462 210.579 133.836C210.609 134.21 210.547 134.584 210.486 134.954" stroke="#BFBFBF" stroke-width="1.0567" stroke-miterlimit="10" stroke-linecap="round"/>
<path d="M147.027 79.1717C147.223 78.9359 147.421 78.6977 147.669 78.5173C147.916 78.3369 148.222 78.2175 148.526 78.2524C148.865 78.2912 149.15 78.5093 149.442 78.6852C149.734 78.8611 150.092 79.0032 150.408 78.877C150.887 78.6863 151.008 77.9949 151.487 77.8041C151.877 77.6483 152.302 77.8995 152.645 78.1433C152.988 78.3871 153.404 78.6469 153.801 78.5082C154.325 78.3249 154.495 77.5426 155.043 77.453C155.343 77.4044 155.627 77.5946 155.857 77.7944C156.13 78.0325 156.38 78.2975 156.602 78.5847" stroke="#BFBFBF" stroke-width="1.0567" stroke-miterlimit="10" stroke-linecap="round"/>
<path d="M135.409 182.398C135.046 182.639 134.676 182.887 134.41 183.232C134.143 183.576 133.992 184.041 134.128 184.455C134.345 185.115 135.199 185.464 135.274 186.154C135.346 186.817 134.66 187.29 134.049 187.557C133.438 187.824 132.717 188.151 132.598 188.807C132.46 189.563 133.206 190.143 133.732 190.704C133.901 190.885 134.062 191.103 134.055 191.35C134.051 191.486 133.994 191.617 133.919 191.73C133.411 192.498 132.122 192.565 131.818 193.434C131.672 193.85 131.826 194.325 132.102 194.67C132.378 195.015 132.76 195.256 133.135 195.49" stroke="#BFBFBF" stroke-width="1.0567" stroke-miterlimit="10" stroke-linecap="round"/>
<path d="M173.321 113.828C172.976 114.49 172.645 115.349 173.118 115.926C173.657 116.584 174.892 116.378 175.301 117.123C175.694 117.838 174.947 118.771 175.28 119.515C175.558 120.134 176.382 120.231 177.06 120.222C177.739 120.212 178.554 120.26 178.889 120.85C179.188 121.376 178.929 122.078 179.197 122.621C179.402 123.037 179.881 123.26 180.344 123.288C180.807 123.316 181.262 123.183 181.707 123.05" stroke="#BFBFBF" stroke-width="1.0567" stroke-miterlimit="10" stroke-linecap="round"/>
<path d="M183.801 164.914C184.469 165.565 185.196 166.398 184.985 167.307C184.807 168.072 183.986 168.655 184.07 169.436C184.183 170.492 185.834 170.859 185.913 171.917C185.931 172.164 185.854 172.407 185.759 172.636C185.537 173.168 185.21 173.657 184.802 174.065" stroke="#BFBFBF" stroke-width="1.0567" stroke-miterlimit="10" stroke-linecap="round"/>
<path d="M166.984 206.867C166.22 207.551 166.044 208.638 166.254 208.961C166.448 209.26 166.795 209.328 167.104 209.406C167.413 209.483 167.762 209.643 167.859 210.002C167.966 210.395 167.711 210.775 167.483 211.077C167.256 211.379 167.024 211.794 167.174 212.167C167.414 212.764 168.287 212.49 168.612 213.028C168.861 213.439 168.611 213.992 168.369 214.395C168.126 214.799 167.792 215.354 168.147 215.762C168.337 215.98 168.95 216.266 169.928 216.418" stroke="#BFBFBF" stroke-width="1.0567" stroke-miterlimit="10" stroke-linecap="round"/>
<path d="M177.735 90.3959C177.112 91.0783 176.033 91.9919 175.578 92.7764C175.153 93.5067 175.43 94.112 175.783 94.1685C174.827 95.2917 175.272 96.3086 175.711 96.3566C175.98 96.3206 176.358 95.954 176.515 95.7827C175.853 96.7671 176.597 97.7527 177.045 97.5734C177.255 97.4894 178.06 96.8927 178.265 96.6923C178.248 96.7232 177.793 97.3158 177.747 97.707C177.652 98.5326 178.168 98.5463 178.724 98.2329C179.793 97.6305 180.456 96.3697 180.456 96.3697C181.065 94.8828 179.954 92.3562 179.708 91.9005C178.935 90.3782 178.027 90.0762 177.735 90.3959Z" fill="url(#paint78_linear_34264_6547)"/>
<path opacity="0.4" d="M104.653 91.2953L98.7053 83.5983L96.628 83.6731C94.6849 76.4585 92.2227 68.0289 90.9403 66.4609C90.9403 66.4609 89.6367 74.3727 92.615 83.6594L93.3025 83.6799C93.3025 83.6799 96.1409 92.6948 98.1023 96.1437C100.063 99.5925 112.654 101.378 112.654 101.378L104.653 91.2953Z" fill="url(#paint79_linear_34264_6547)"/>
<path d="M108.495 90.2031L99.9688 95.7355C102.739 98.9868 116.848 102.589 124.407 104.809L127.729 100.688C122.049 97.6192 111.7 91.5067 108.495 90.2031Z" fill="url(#paint80_linear_34264_6547)"/>
<path d="M130.655 106.305C131.219 106.161 131.748 105.536 131.615 104.884C132.022 104.771 132.859 104.174 132.399 103.324C133.028 102.561 132.827 102.024 132.344 101.588C132.214 101.471 131.995 101.303 131.735 101.118C132.022 100.926 132.285 100.728 132.42 100.571C132.812 100.113 132.937 99.0551 132.554 98.8365C132.172 98.6172 131.179 99.3778 130.597 99.4366C130.015 99.4954 128.799 99.9739 128.799 99.9739L128.8 99.9744C127.835 100.21 126.272 100.876 125.447 101.237L124.406 104.799C125.412 105.531 127.616 106.692 129.031 106.923C129.896 107.064 130.333 106.868 130.655 106.305Z" fill="url(#paint81_linear_34264_6547)"/>
<path d="M105.532 74.0625L93.9453 77.9196C93.9453 77.9196 96.2242 87.6505 99.967 95.7341L109.733 93.2668C107.786 86.4686 105.532 74.0625 105.532 74.0625Z" fill="url(#paint82_linear_34264_6547)"/>
<path d="M107.603 78.2594C103.821 80.275 99.2175 81.2617 93.3762 81.3811C88.0956 66.0635 92.1291 59.9287 95.6259 58.8158C97.0837 58.3522 99.0199 58.5612 100.108 59.1493C101.774 60.056 102.964 61.431 103.675 63.1959C106.073 69.1571 107.402 77.4577 107.603 78.2594Z" fill="url(#paint83_linear_34264_6547)"/>
<path opacity="0.39" d="M209.044 18.3516C196.046 18.3516 185.508 28.8893 185.508 41.8881C185.508 48.281 188.06 54.0749 192.197 58.3162L189.415 64.5041L194.921 60.7161C198.855 63.6722 203.744 65.4246 209.044 65.4246C222.043 65.4246 232.581 54.8868 232.581 41.8881C232.581 28.8887 222.043 18.3516 209.044 18.3516Z" fill="url(#paint84_linear_34264_6547)"/>
<path d="M224.07 41.676C224.07 40.0624 223.252 38.6377 222.011 37.7966C222.291 37.4763 222.469 37.0583 222.469 36.601C222.469 35.6857 221.788 34.936 220.906 34.8155C220.958 34.6436 220.998 34.4666 220.998 34.2776C220.998 33.2761 220.185 32.4698 219.184 32.4698C219.161 32.4698 219.139 32.4755 219.116 32.4755C218.641 31.4397 217.6 30.7191 216.381 30.7191C215.974 30.7191 215.58 30.7991 215.225 30.9538C215.064 30.0728 214.298 29.4093 213.377 29.4093C212.816 29.4093 212.318 29.6554 211.975 30.0442C211.597 29.2602 210.808 28.7109 209.875 28.7109C209.023 28.7109 208.284 29.1746 207.878 29.8552C207.49 29.4315 206.94 29.1626 206.316 29.1626C205.252 29.1626 204.382 29.9466 204.222 30.9647C203.805 30.8099 203.353 30.7186 202.878 30.7186C201.327 30.7186 199.994 31.6396 199.387 32.9672C199.073 32.8358 198.707 32.801 198.323 32.9158C197.848 33.0591 197.459 33.4365 197.31 33.9116C197.219 34.1919 197.213 34.4666 197.264 34.7184C195.897 35.3077 194.941 36.6638 194.941 38.2489C194.941 40.3661 196.652 42.0826 198.769 42.094C198.678 42.283 198.632 42.4828 198.632 42.6775C198.632 43.2611 199.027 43.8161 199.64 43.9823C200.297 44.1655 200.939 44.2569 201.499 44.2969C202.312 44.354 202.918 45.0009 203.038 45.8072C203.078 46.0875 203.193 46.385 203.41 46.6768C204.302 47.8439 207.095 47.4145 208.325 48.6393C209.549 49.8692 209.715 50.3272 209.876 51.4657C209.996 52.284 209.298 53.8919 208.903 54.9962C208.732 55.4713 209.092 55.9692 209.595 55.9692C209.944 55.9692 210.242 55.7231 210.311 55.3799C210.442 54.7393 210.757 53.6978 211.484 52.891C211.718 52.6277 212.113 52.6848 212.794 52.4159C213.349 52.1983 213.956 52.2098 214.539 52.3188C214.923 52.3931 215.329 52.3873 215.746 52.3017C216.713 52.0956 217.48 51.4263 217.864 50.5168C218.121 49.9046 218.15 49.3211 218.047 48.7832C218.436 48.9437 218.871 49.0293 219.323 49.0065C220.215 48.9665 221.028 48.4629 221.566 47.7474C222.195 46.9063 222.27 46.1452 222.144 45.4589C223.309 44.6058 224.07 43.232 224.07 41.676ZM203.02 37.156C202.906 37.1274 202.791 37.076 202.66 37.0532C202.535 37.0361 202.403 37.0132 202.266 36.9904C202.128 36.9904 201.985 36.9733 201.848 36.9847C201.705 37.0018 201.562 37.0075 201.43 37.0532C201.287 37.0703 201.156 37.1274 201.019 37.1794C200.893 37.2365 200.761 37.2936 200.641 37.3684C200.395 37.5054 200.177 37.6716 199.989 37.8149C199.617 38.1124 199.371 38.3528 199.371 38.3528C199.371 38.3528 199.434 38.0096 199.72 37.5745C199.869 37.3627 200.063 37.1223 200.326 36.911C200.464 36.814 200.607 36.7106 200.767 36.6307C200.905 36.5736 201.048 36.5108 201.196 36.4702C201.173 36.3789 201.156 36.2698 201.099 36.1442C201.048 35.9723 200.956 35.7839 200.842 35.5892C200.716 35.4059 200.567 35.2175 200.366 35.0741C199.983 34.7709 199.474 34.6333 199.09 34.6048C198.707 34.5705 198.444 34.6162 198.444 34.6162C198.444 34.6162 198.696 34.5305 199.096 34.5077C199.485 34.4792 200.046 34.5305 200.538 34.8109C200.79 34.9422 201.001 35.1369 201.184 35.3317C201.35 35.5378 201.493 35.7439 201.585 35.9323C201.693 36.1099 201.739 36.2698 201.785 36.3846H201.837C202.014 36.3674 202.191 36.4302 202.358 36.4474C202.524 36.4873 202.672 36.5616 202.815 36.613C202.958 36.6701 203.073 36.762 203.181 36.8305C203.405 36.9618 203.542 37.1394 203.651 37.2422C203.748 37.3507 203.806 37.4198 203.806 37.4198C203.806 37.4198 203.72 37.3912 203.577 37.3456C203.438 37.3044 203.255 37.2074 203.02 37.156ZM207.494 39.3069C207.488 39.404 207.488 39.5074 207.466 39.6158C207.449 39.7243 207.443 39.8448 207.403 39.959C207.369 40.0732 207.351 40.2051 207.3 40.3193C207.254 40.4392 207.209 40.5654 207.145 40.6796C206.916 41.1547 206.567 41.5721 206.264 41.841C206.201 41.8981 206.138 41.9495 206.081 41.9958C206.172 42.1214 206.264 42.2533 206.333 42.3846C206.418 42.5559 206.482 42.7335 206.533 42.9111C206.625 43.26 206.636 43.6094 206.59 43.8898C206.545 44.1701 206.448 44.3877 206.378 44.5304C206.299 44.6737 206.247 44.748 206.247 44.748C206.247 44.748 206.253 44.656 206.264 44.5019C206.27 44.3414 206.276 44.1302 206.247 43.8783C206.213 43.6322 206.144 43.3576 206.024 43.0829C205.967 42.9453 205.898 42.8083 205.812 42.6764C205.726 42.5331 205.652 42.4303 205.537 42.299C205.429 42.1962 205.32 42.07 205.2 41.9729C205.08 41.8701 204.96 41.7782 204.834 41.6926C204.582 41.5321 204.33 41.4065 204.09 41.3208C203.621 41.1553 203.249 41.1204 203.249 41.1204C203.249 41.1204 203.586 40.9257 204.158 40.9543C204.445 40.9657 204.782 41.0399 205.108 41.2004C205.308 41.2974 205.497 41.4293 205.674 41.5835C205.749 41.5435 205.835 41.4921 205.938 41.4231C206.235 41.2341 206.601 40.9194 206.876 40.5192C206.95 40.4278 207.007 40.3187 207.065 40.216C207.128 40.1132 207.168 40.0041 207.22 39.9013C207.265 39.7929 207.288 39.6838 207.328 39.5867C207.362 39.4839 207.379 39.3863 207.397 39.2949C207.442 39.1117 207.448 38.9575 207.459 38.8484C207.471 38.7399 207.477 38.6766 207.477 38.6766C207.477 38.6766 207.482 38.7394 207.488 38.8484C207.494 38.9581 207.512 39.1185 207.494 39.3069ZM207.403 34.1748C207.363 34.1805 207.334 34.1748 207.294 34.1748C207.311 34.2605 207.323 34.3467 207.34 34.4266C207.357 34.627 207.34 34.8269 207.34 35.0159C207.311 35.2049 207.272 35.3876 207.237 35.5538C207.197 35.7194 207.129 35.8684 207.077 36.0054C206.985 36.2858 206.825 36.4862 206.739 36.629C206.642 36.7723 206.585 36.8465 206.585 36.8465C206.585 36.8465 206.596 36.7489 206.625 36.5833C206.642 36.4114 206.716 36.1887 206.727 35.9135C206.739 35.7765 206.767 35.6274 206.779 35.479C206.779 35.3242 206.779 35.1644 206.79 34.9982C206.773 34.8377 206.756 34.6721 206.739 34.5003C206.693 34.3398 206.682 34.1628 206.618 34.0081C206.567 33.8425 206.516 33.682 206.429 33.533C206.366 33.3783 206.275 33.2412 206.195 33.0985C206.092 32.9666 206.011 32.8238 205.909 32.7096C205.817 32.5954 205.72 32.4807 205.622 32.3836C205.251 31.9833 204.941 31.7372 204.941 31.7372C204.941 31.7372 205.342 31.7886 205.851 32.1032C206.108 32.2523 206.377 32.4807 206.629 32.7673C206.743 32.9215 206.881 33.0705 206.967 33.2538C207.029 33.3623 207.075 33.4713 207.121 33.5855C207.201 33.6084 207.299 33.6312 207.425 33.6484C207.716 33.6997 208.117 33.6997 208.5 33.5798C208.861 33.4713 209.187 33.2652 209.404 33.042C209.324 32.9791 209.249 32.9215 209.181 32.8644C209.038 32.7445 208.923 32.6069 208.821 32.4698C208.615 32.1895 208.489 31.8805 208.443 31.6059C208.392 31.337 208.415 31.108 208.443 30.9595C208.477 30.8105 208.512 30.7306 208.512 30.7306C208.512 30.7306 208.529 30.8105 208.569 30.9538C208.609 31.0971 208.677 31.2913 208.781 31.4974C208.889 31.7035 209.05 31.9154 209.244 32.1152C209.341 32.218 209.456 32.3042 209.565 32.4013C209.622 32.447 209.685 32.4869 209.737 32.5218C209.816 32.5732 209.874 32.6074 209.943 32.636C210.068 32.7216 210.206 32.785 210.343 32.8421C210.48 32.8992 210.618 32.9563 210.755 32.9968C210.892 33.0311 211.024 33.0654 211.155 33.0882C211.287 33.1053 211.412 33.1282 211.532 33.1396C212.007 33.1739 212.356 33.1168 212.356 33.1168C212.356 33.1168 212.093 33.3686 211.561 33.4942C211.303 33.557 210.977 33.5798 210.64 33.5342C210.474 33.4999 210.297 33.4713 210.125 33.4085C209.959 33.3457 209.787 33.2709 209.633 33.1853C209.587 33.1624 209.541 33.1339 209.501 33.1053C209.318 33.3629 209.015 33.6718 208.62 33.8665C208.215 34.0835 207.752 34.1691 207.403 34.1748ZM216.929 46.1503C216.78 46.1675 216.569 46.156 216.317 46.2017C216.197 46.2189 216.065 46.2303 215.928 46.2531C215.791 46.2874 215.654 46.3159 215.505 46.3445C215.368 46.3902 215.23 46.4415 215.082 46.4929C214.95 46.5615 214.801 46.6077 214.681 46.6991C214.412 46.8418 214.189 47.0537 213.972 47.2541C213.88 47.3683 213.771 47.4659 213.691 47.5801C213.606 47.6886 213.525 47.792 213.457 47.8947C213.176 48.3007 213.016 48.6216 213.016 48.6216C213.016 48.6216 212.97 48.2613 213.136 47.7406C213.205 47.4773 213.354 47.1913 213.548 46.9052C213.662 46.7739 213.76 46.6191 213.908 46.4992C213.971 46.4421 214.045 46.4021 214.114 46.3502C214.074 46.3045 214.04 46.2531 214 46.196C213.811 45.9157 213.588 45.504 213.525 45.0575C213.485 44.8342 213.491 44.6109 213.519 44.4054C213.525 44.3026 213.559 44.2107 213.582 44.1193C213.605 44.0279 213.639 43.9474 213.674 43.8732C213.776 43.6328 213.891 43.4843 213.925 43.4324C213.908 43.4838 213.823 43.6556 213.765 43.9075C213.748 43.9817 213.725 44.0622 213.725 44.1479C213.719 44.2335 213.702 44.3254 213.719 44.4168C213.725 44.6058 213.759 44.7999 213.828 44.9832C213.953 45.3492 214.205 45.6581 214.406 45.8586C214.485 45.9385 214.549 45.9899 214.606 46.0361C214.697 46.0019 214.789 45.9676 214.875 45.9276C215.047 45.8648 215.23 45.842 215.401 45.8015C215.573 45.79 215.739 45.79 215.899 45.7843C216.053 45.79 216.202 45.8243 216.334 45.8414C216.603 45.87 216.809 45.9785 216.952 46.0247C217.096 46.0818 217.175 46.1218 217.175 46.1218C217.175 46.1218 217.084 46.1332 216.929 46.1503ZM217.342 40.0281C217.227 40.0281 217.067 40.0452 216.872 40.011C216.489 39.9767 215.963 39.8048 215.556 39.4274C215.144 39.0557 214.904 38.5407 214.784 38.1455C214.738 38.0085 214.715 37.888 214.692 37.7852C214.515 37.8195 214.338 37.848 214.154 37.8537C213.954 37.8595 213.76 37.848 213.548 37.8138C213.514 37.8937 213.474 37.9914 213.427 38.0998C213.387 38.214 213.302 38.3345 213.227 38.4659C213.141 38.592 213.072 38.7462 212.947 38.8724C212.826 39.0043 212.729 39.1642 212.569 39.2784C212.472 39.3583 212.369 39.4388 212.266 39.5188C212.329 39.5816 212.397 39.6558 212.472 39.7535C212.695 40.0338 212.919 40.4746 212.976 40.9377C213.004 41.1724 212.993 41.4014 212.959 41.6126C212.913 41.8188 212.861 42.0072 212.792 42.1619C212.741 42.3167 212.661 42.4309 212.621 42.5165C212.586 42.5793 212.564 42.6193 212.552 42.637C212.558 42.6199 212.575 42.5742 212.598 42.5051C212.621 42.4137 212.678 42.2875 212.701 42.1334C212.741 41.9729 212.758 41.7902 212.763 41.5955C212.752 41.4008 212.735 41.1952 212.666 41.0062C212.552 40.6174 212.3 40.3028 212.082 40.108C211.974 40.011 211.87 39.9419 211.802 39.8962C211.733 39.8505 211.705 39.8448 211.699 39.8391L211.71 39.822C211.659 39.8448 211.608 39.8677 211.556 39.8848C211.373 39.9704 211.173 39.9933 210.984 40.0452C210.789 40.0681 210.607 40.108 210.418 40.1023C210.052 40.1252 209.714 40.0795 209.428 40.0395C208.93 39.9539 208.592 39.8277 208.518 39.7991C208.598 39.822 208.942 39.9082 209.439 39.9425C209.725 39.9539 210.057 39.9653 210.4 39.9082C210.578 39.8911 210.749 39.834 210.926 39.7991C211.093 39.7306 211.275 39.6964 211.436 39.5987C211.596 39.5188 211.75 39.4326 211.888 39.3184C212.043 39.2213 212.151 39.0894 212.271 38.9695C212.397 38.8667 212.466 38.712 212.557 38.592C212.654 38.4721 212.701 38.3345 212.763 38.2146C212.815 38.0947 212.878 37.9914 212.907 37.8772C212.93 37.7858 212.958 37.7053 212.975 37.6368C212.924 37.6139 212.867 37.5968 212.815 37.5625C212.609 37.4598 212.42 37.3164 212.272 37.1566C211.963 36.8419 211.785 36.4639 211.705 36.1436C211.614 35.8176 211.614 35.5429 211.62 35.3539C211.631 35.1649 211.66 35.0621 211.66 35.0621C211.66 35.0621 211.762 35.4852 212.043 36.006C212.191 36.2635 212.392 36.5325 212.655 36.7443C212.781 36.8585 212.935 36.9447 213.09 37.0247C213.17 37.0703 213.256 37.0932 213.342 37.1217C213.382 37.1389 213.433 37.1617 213.462 37.1617C213.513 37.1731 213.564 37.196 213.604 37.196C213.765 37.2302 213.965 37.2531 214.148 37.2531C214.337 37.2588 214.525 37.2588 214.703 37.2302C215.063 37.196 215.389 37.1103 215.658 36.9955C215.927 36.8756 216.128 36.7323 216.27 36.6181C216.407 36.4982 216.482 36.4234 216.482 36.4234C216.482 36.4234 216.448 36.5262 216.362 36.698C216.311 36.7723 216.26 36.8813 216.168 36.9784C216.082 37.0869 215.973 37.1902 215.836 37.293C215.705 37.3958 215.55 37.4992 215.372 37.5734C215.338 37.5905 215.298 37.6019 215.264 37.6191C215.264 37.7161 215.269 37.8538 215.298 38.0308C215.349 38.3739 215.481 38.8433 215.785 39.2093C216.076 39.5867 216.529 39.8214 216.895 39.9128C217.072 39.9756 217.232 39.9813 217.341 39.9984C217.45 40.0155 217.513 40.027 217.513 40.027C217.513 40.027 217.45 40.0281 217.342 40.0281ZM217.965 34.0892C217.937 34.0321 217.908 33.9864 217.88 33.9344C217.84 33.8716 217.805 33.8259 217.771 33.774C217.702 33.6712 217.622 33.5736 217.536 33.4765C217.451 33.3908 217.37 33.2989 217.285 33.219C217.193 33.1447 217.101 33.0699 217.016 33.0071C216.924 32.9443 216.832 32.8866 216.747 32.8353C216.403 32.6405 216.123 32.5549 216.123 32.5549C216.123 32.5549 216.409 32.4578 216.85 32.5549C217.073 32.6006 217.319 32.6982 217.56 32.8581C217.674 32.938 217.794 33.0243 217.903 33.1327C218.006 33.2412 218.109 33.356 218.195 33.4759C218.24 33.5387 218.286 33.6135 218.315 33.6649C218.355 33.7391 218.389 33.8077 218.417 33.8767C218.48 34.0144 218.52 34.1628 218.549 34.3004C218.606 34.5865 218.589 34.8669 218.526 35.0844C218.469 35.3077 218.371 35.4675 218.291 35.5709C218.217 35.6737 218.16 35.7194 218.16 35.7194C218.16 35.7194 218.177 35.6508 218.2 35.5304C218.223 35.4104 218.234 35.2386 218.228 35.0496C218.223 34.8549 218.183 34.6373 218.108 34.4203C218.068 34.3061 218.017 34.1976 217.965 34.0892ZM220.162 38.2375C220.031 38.3231 219.853 38.4436 219.664 38.6092C219.481 38.781 219.298 38.9929 219.138 39.2498C219.064 39.376 218.989 39.5131 218.932 39.6564C218.863 39.8111 218.823 39.931 218.783 40.0972C218.761 40.2462 218.715 40.4118 218.709 40.5666C218.692 40.7213 218.686 40.8755 218.692 41.0245C218.698 41.322 218.749 41.6023 218.812 41.8427C218.944 42.3235 219.132 42.6495 219.132 42.6495C219.132 42.6495 218.783 42.484 218.474 41.9975C218.32 41.7571 218.183 41.4425 218.131 41.0822C218.063 40.7162 218.091 40.3324 218.183 39.9493C218.228 39.7717 218.308 39.5605 218.395 39.4C218.486 39.2281 218.595 39.074 218.709 38.9364C218.944 38.656 219.218 38.4499 219.476 38.3242C219.734 38.1986 219.963 38.1524 220.122 38.1301C220.283 38.113 220.374 38.113 220.374 38.113C220.374 38.113 220.299 38.1569 220.162 38.2375Z" fill="#FDFEFF"/>
<path d="M191.086 32.4694C193.973 32.4694 196.313 30.1293 196.313 27.2425C196.313 24.3558 193.973 22.0156 191.086 22.0156C188.2 22.0156 185.859 24.3558 185.859 27.2425C185.859 30.1293 188.2 32.4694 191.086 32.4694Z" fill="url(#paint85_linear_34264_6547)"/>
<path d="M191.754 28.0231H190.423L190.094 23.9062H192.082L191.754 28.0231Z" fill="#FDFEFF"/>
<path d="M192.032 29.4768C192.032 29.9987 191.609 30.4224 191.086 30.4224C190.564 30.4224 190.141 29.9993 190.141 29.4768C190.141 28.9544 190.564 28.5312 191.086 28.5312C191.609 28.5313 192.032 28.9544 192.032 29.4768Z" fill="#FDFEFF"/>
<path d="M257.231 226.285H7.82611C7.40014 226.285 7.05469 225.94 7.05469 225.514C7.05469 225.088 7.40014 224.742 7.82611 224.742H257.231C257.657 224.742 258.002 225.088 258.002 225.514C258.002 225.94 257.657 226.285 257.231 226.285Z" fill="url(#paint86_linear_34264_6547)"/>
<defs>
<linearGradient id="paint0_linear_34264_6547" x1="55.0358" y1="215.944" x2="283.054" y2="26.7535" gradientUnits="userSpaceOnUse">
<stop stop-color="#ECECEC"/>
<stop offset="0.9901" stop-color="#DCDCDC"/>
</linearGradient>
<linearGradient id="paint1_linear_34264_6547" x1="55.1454" y1="233.777" x2="283.164" y2="44.5866" gradientUnits="userSpaceOnUse">
<stop stop-color="#ECECEC"/>
<stop offset="0.9901" stop-color="#DCDCDC"/>
</linearGradient>
<linearGradient id="paint2_linear_34264_6547" x1="-33.2498" y1="202.738" x2="194.769" y2="13.5472" gradientUnits="userSpaceOnUse">
<stop stop-color="#ECECEC"/>
<stop offset="0.9901" stop-color="#DCDCDC"/>
</linearGradient>
<linearGradient id="paint3_linear_34264_6547" x1="-33.7805" y1="148.601" x2="194.238" y2="-40.5893" gradientUnits="userSpaceOnUse">
<stop stop-color="#ECECEC"/>
<stop offset="0.9901" stop-color="#DCDCDC"/>
</linearGradient>
<linearGradient id="paint4_linear_34264_6547" x1="6.22633" y1="362.101" x2="234.245" y2="172.91" gradientUnits="userSpaceOnUse">
<stop stop-color="#ECECEC"/>
<stop offset="0.9901" stop-color="#DCDCDC"/>
</linearGradient>
<linearGradient id="paint5_linear_34264_6547" x1="97.7448" y1="132.433" x2="325.764" y2="-56.7578" gradientUnits="userSpaceOnUse">
<stop stop-color="#ECECEC"/>
<stop offset="0.9901" stop-color="#DCDCDC"/>
</linearGradient>
<linearGradient id="paint6_linear_34264_6547" x1="-33.8328" y1="131.196" x2="194.186" y2="-57.9943" gradientUnits="userSpaceOnUse">
<stop stop-color="#ECECEC"/>
<stop offset="0.9901" stop-color="#DCDCDC"/>
</linearGradient>
<linearGradient id="paint7_linear_34264_6547" x1="32.9179" y1="63.8024" x2="167.02" y2="63.8024" gradientUnits="userSpaceOnUse">
<stop stop-color="#ECECEC"/>
<stop offset="0.9901" stop-color="#DCDCDC"/>
</linearGradient>
<linearGradient id="paint8_linear_34264_6547" x1="32.9179" y1="121.678" x2="167.02" y2="121.678" gradientUnits="userSpaceOnUse">
<stop stop-color="#D6D7D7"/>
<stop offset="0.9901" stop-color="#DCDCDC"/>
</linearGradient>
<linearGradient id="paint9_linear_34264_6547" x1="99.9648" y1="131.9" x2="99.9648" y2="0.24707" gradientUnits="userSpaceOnUse">
<stop stop-color="#ECECEC"/>
<stop offset="0.9901" stop-color="white"/>
</linearGradient>
<linearGradient id="paint10_linear_34264_6547" x1="99.9679" y1="-0.0976342" x2="99.9679" y2="140.393" gradientUnits="userSpaceOnUse">
<stop stop-color="#BDC2C2"/>
<stop offset="0.9901" stop-color="#DCDCDC"/>
</linearGradient>
<linearGradient id="paint11_linear_34264_6547" x1="29.703" y1="61.7018" x2="170.237" y2="61.7018" gradientUnits="userSpaceOnUse">
<stop stop-color="#ECECEC"/>
<stop offset="0.9901" stop-color="#DCDCDC"/>
</linearGradient>
<linearGradient id="paint12_linear_34264_6547" x1="29.703" y1="6.8893" x2="170.237" y2="6.8893" gradientUnits="userSpaceOnUse">
<stop stop-color="#ECECEC"/>
<stop offset="0.9901" stop-color="#DCDCDC"/>
</linearGradient>
<linearGradient id="paint13_linear_34264_6547" x1="29.703" y1="10.319" x2="170.237" y2="10.319" gradientUnits="userSpaceOnUse">
<stop stop-color="#ECECEC"/>
<stop offset="0.9901" stop-color="#DCDCDC"/>
</linearGradient>
<linearGradient id="paint14_linear_34264_6547" x1="29.703" y1="13.7409" x2="170.237" y2="13.7409" gradientUnits="userSpaceOnUse">
<stop stop-color="#ECECEC"/>
<stop offset="0.9901" stop-color="#DCDCDC"/>
</linearGradient>
<linearGradient id="paint15_linear_34264_6547" x1="29.703" y1="17.1706" x2="170.237" y2="17.1706" gradientUnits="userSpaceOnUse">
<stop stop-color="#ECECEC"/>
<stop offset="0.9901" stop-color="#DCDCDC"/>
</linearGradient>
<linearGradient id="paint16_linear_34264_6547" x1="29.703" y1="20.5924" x2="170.237" y2="20.5924" gradientUnits="userSpaceOnUse">
<stop stop-color="#ECECEC"/>
<stop offset="0.9901" stop-color="#DCDCDC"/>
</linearGradient>
<linearGradient id="paint17_linear_34264_6547" x1="29.703" y1="24.0221" x2="170.237" y2="24.0221" gradientUnits="userSpaceOnUse">
<stop stop-color="#ECECEC"/>
<stop offset="0.9901" stop-color="#DCDCDC"/>
</linearGradient>
<linearGradient id="paint18_linear_34264_6547" x1="29.703" y1="27.444" x2="170.237" y2="27.444" gradientUnits="userSpaceOnUse">
<stop stop-color="#ECECEC"/>
<stop offset="0.9901" stop-color="#DCDCDC"/>
</linearGradient>
<linearGradient id="paint19_linear_34264_6547" x1="29.703" y1="30.8737" x2="170.237" y2="30.8737" gradientUnits="userSpaceOnUse">
<stop stop-color="#ECECEC"/>
<stop offset="0.9901" stop-color="#DCDCDC"/>
</linearGradient>
<linearGradient id="paint20_linear_34264_6547" x1="29.703" y1="34.2956" x2="170.237" y2="34.2956" gradientUnits="userSpaceOnUse">
<stop stop-color="#ECECEC"/>
<stop offset="0.9901" stop-color="#DCDCDC"/>
</linearGradient>
<linearGradient id="paint21_linear_34264_6547" x1="29.703" y1="37.7252" x2="170.237" y2="37.7252" gradientUnits="userSpaceOnUse">
<stop stop-color="#ECECEC"/>
<stop offset="0.9901" stop-color="#DCDCDC"/>
</linearGradient>
<linearGradient id="paint22_linear_34264_6547" x1="29.703" y1="41.1471" x2="170.237" y2="41.1471" gradientUnits="userSpaceOnUse">
<stop stop-color="#ECECEC"/>
<stop offset="0.9901" stop-color="#DCDCDC"/>
</linearGradient>
<linearGradient id="paint23_linear_34264_6547" x1="29.703" y1="44.5768" x2="170.237" y2="44.5768" gradientUnits="userSpaceOnUse">
<stop stop-color="#ECECEC"/>
<stop offset="0.9901" stop-color="#DCDCDC"/>
</linearGradient>
<linearGradient id="paint24_linear_34264_6547" x1="29.703" y1="47.9987" x2="170.237" y2="47.9987" gradientUnits="userSpaceOnUse">
<stop stop-color="#ECECEC"/>
<stop offset="0.9901" stop-color="#DCDCDC"/>
</linearGradient>
<linearGradient id="paint25_linear_34264_6547" x1="29.703" y1="51.4284" x2="170.237" y2="51.4284" gradientUnits="userSpaceOnUse">
<stop stop-color="#ECECEC"/>
<stop offset="0.9901" stop-color="#DCDCDC"/>
</linearGradient>
<linearGradient id="paint26_linear_34264_6547" x1="29.703" y1="54.8502" x2="170.237" y2="54.8502" gradientUnits="userSpaceOnUse">
<stop stop-color="#ECECEC"/>
<stop offset="0.9901" stop-color="#DCDCDC"/>
</linearGradient>
<linearGradient id="paint27_linear_34264_6547" x1="29.703" y1="58.2799" x2="170.237" y2="58.2799" gradientUnits="userSpaceOnUse">
<stop stop-color="#ECECEC"/>
<stop offset="0.9901" stop-color="#DCDCDC"/>
</linearGradient>
<linearGradient id="paint28_linear_34264_6547" x1="29.6997" y1="1.65407" x2="170.234" y2="1.65407" gradientUnits="userSpaceOnUse">
<stop stop-color="#D6D7D7"/>
<stop offset="0.9901" stop-color="#DCDCDC"/>
</linearGradient>
<linearGradient id="paint29_linear_34264_6547" x1="159.921" y1="3.9913" x2="159.921" y2="64.8694" gradientUnits="userSpaceOnUse">
<stop stop-color="#BDC2C2"/>
<stop offset="0.9901" stop-color="#DCDCDC"/>
</linearGradient>
<linearGradient id="paint30_linear_34264_6547" x1="158.836" y1="66.8651" x2="161.003" y2="66.8651" gradientUnits="userSpaceOnUse">
<stop stop-color="#ECECEC"/>
<stop offset="0.9901" stop-color="#DCDCDC"/>
</linearGradient>
<linearGradient id="paint31_linear_34264_6547" x1="33.0361" y1="185.318" x2="33.0361" y2="140.209" gradientUnits="userSpaceOnUse">
<stop stop-color="#ECECEC"/>
<stop offset="0.9901" stop-color="#E6E6E6"/>
</linearGradient>
<linearGradient id="paint32_linear_34264_6547" x1="68.6754" y1="211.554" x2="56.6723" y2="175.299" gradientUnits="userSpaceOnUse">
<stop stop-color="#ECECEC"/>
<stop offset="0.9901" stop-color="#DCDCDC"/>
</linearGradient>
<linearGradient id="paint33_linear_34264_6547" x1="60.744" y1="208.37" x2="60.744" y2="163.261" gradientUnits="userSpaceOnUse">
<stop stop-color="#ECECEC"/>
<stop offset="0.9901" stop-color="#E6E6E6"/>
</linearGradient>
<linearGradient id="paint34_linear_34264_6547" x1="25.0669" y1="191.387" x2="30.4528" y2="158.914" gradientUnits="userSpaceOnUse">
<stop stop-color="#ECECEC"/>
<stop offset="0.9901" stop-color="#DCDCDC"/>
</linearGradient>
<linearGradient id="paint35_linear_34264_6547" x1="32.668" y1="204.018" x2="58.7443" y2="204.018" gradientUnits="userSpaceOnUse">
<stop stop-color="#ECECEC"/>
<stop offset="0.9901" stop-color="#DCDCDC"/>
</linearGradient>
<linearGradient id="paint36_linear_34264_6547" x1="114.369" y1="276.887" x2="114.369" y2="111.555" gradientUnits="userSpaceOnUse">
<stop stop-color="#000A6A"/>
<stop offset="1" stop-color="#4295F6"/>
</linearGradient>
<linearGradient id="paint37_linear_34264_6547" x1="113.008" y1="139.997" x2="101.552" y2="139.997" gradientUnits="userSpaceOnUse">
<stop stop-color="#251458"/>
<stop offset="1" stop-color="#391A7D"/>
</linearGradient>
<linearGradient id="paint38_linear_34264_6547" x1="83.9916" y1="270.281" x2="83.9916" y2="104.948" gradientUnits="userSpaceOnUse">
<stop stop-color="#000A6A"/>
<stop offset="1" stop-color="#4295F6"/>
</linearGradient>
<linearGradient id="paint39_linear_34264_6547" x1="115.976" y1="220.434" x2="144.496" y2="220.434" gradientUnits="userSpaceOnUse">
<stop stop-color="#000A6A"/>
<stop offset="1" stop-color="#4295F6"/>
</linearGradient>
<linearGradient id="paint40_linear_34264_6547" x1="59.4225" y1="221.954" x2="65.329" y2="214.51" gradientUnits="userSpaceOnUse">
<stop stop-color="#000A6A"/>
<stop offset="1" stop-color="#4295F6"/>
</linearGradient>
<linearGradient id="paint41_linear_34264_6547" x1="126.379" y1="73.3492" x2="145.52" y2="88.8169" gradientUnits="userSpaceOnUse">
<stop stop-color="#F5C49F"/>
<stop offset="1" stop-color="#EAC8B0"/>
</linearGradient>
<linearGradient id="paint42_linear_34264_6547" x1="173.004" y1="92.6442" x2="114.2" y2="83.7815" gradientUnits="userSpaceOnUse">
<stop stop-color="#F5C49F"/>
<stop offset="1" stop-color="#DDA48F"/>
</linearGradient>
<linearGradient id="paint43_linear_34264_6547" x1="126.314" y1="72.9046" x2="55.9504" y2="72.9046" gradientUnits="userSpaceOnUse">
<stop stop-color="#3EC1FF"/>
<stop offset="1" stop-color="#28BAFF"/>
</linearGradient>
<linearGradient id="paint44_linear_34264_6547" x1="115.912" y1="81.3026" x2="133.747" y2="81.3026" gradientUnits="userSpaceOnUse">
<stop stop-color="#3949B2"/>
<stop offset="1" stop-color="#0B1B6A"/>
</linearGradient>
<linearGradient id="paint45_linear_34264_6547" x1="122.986" y1="88.3639" x2="86.7914" y2="84.9353" gradientUnits="userSpaceOnUse">
<stop stop-color="#3EC1FF"/>
<stop offset="1" stop-color="#28BAFF"/>
</linearGradient>
<linearGradient id="paint46_linear_34264_6547" x1="110.592" y1="50.532" x2="130.013" y2="49.3853" gradientUnits="userSpaceOnUse">
<stop stop-color="#F5C49F"/>
<stop offset="1" stop-color="#EAC8B0"/>
</linearGradient>
<linearGradient id="paint47_linear_34264_6547" x1="130.372" y1="40.4474" x2="102.797" y2="37.9036" gradientUnits="userSpaceOnUse">
<stop stop-color="#3949B2"/>
<stop offset="1" stop-color="#0B1B6A"/>
</linearGradient>
<linearGradient id="paint48_linear_34264_6547" x1="114.674" y1="42.8266" x2="133.597" y2="41.7088" gradientUnits="userSpaceOnUse">
<stop stop-color="#F5C49F"/>
<stop offset="1" stop-color="#EAC8B0"/>
</linearGradient>
<linearGradient id="paint49_linear_34264_6547" x1="130.485" y1="39.8644" x2="105.957" y2="37.6017" gradientUnits="userSpaceOnUse">
<stop stop-color="#3949B2"/>
<stop offset="1" stop-color="#0B1B6A"/>
</linearGradient>
<linearGradient id="paint50_linear_34264_6547" x1="112.892" y1="44.1465" x2="129.525" y2="43.1641" gradientUnits="userSpaceOnUse">
<stop stop-color="#F5C49F"/>
<stop offset="1" stop-color="#EAC8B0"/>
</linearGradient>
<linearGradient id="paint51_linear_34264_6547" x1="131.694" y1="40.8585" x2="105.189" y2="38.9656" gradientUnits="userSpaceOnUse">
<stop stop-color="#3949B2"/>
<stop offset="1" stop-color="#0B1B6A"/>
</linearGradient>
<linearGradient id="paint52_linear_34264_6547" x1="143.422" y1="203.382" x2="139.421" y2="224.765" gradientUnits="userSpaceOnUse">
<stop stop-color="#3C698A"/>
<stop offset="0.1239" stop-color="#345E80"/>
<stop offset="1" stop-color="#01103F"/>
</linearGradient>
<linearGradient id="paint53_linear_34264_6547" x1="185.956" y1="201.532" x2="181.633" y2="224.634" gradientUnits="userSpaceOnUse">
<stop stop-color="#3C698A"/>
<stop offset="0.1239" stop-color="#345E80"/>
<stop offset="1" stop-color="#01103F"/>
</linearGradient>
<linearGradient id="paint54_linear_34264_6547" x1="202.099" y1="135.853" x2="195.64" y2="128.209" gradientUnits="userSpaceOnUse">
<stop stop-color="#F5C49F"/>
<stop offset="1" stop-color="#CA9A8F"/>
</linearGradient>
<linearGradient id="paint55_linear_34264_6547" x1="188.383" y1="119.96" x2="173.546" y2="102.402" gradientUnits="userSpaceOnUse">
<stop stop-color="#F5C49F"/>
<stop offset="1" stop-color="#CA9A8F"/>
</linearGradient>
<linearGradient id="paint56_linear_34264_6547" x1="174.477" y1="74.2697" x2="152.864" y2="189.775" gradientUnits="userSpaceOnUse">
<stop stop-color="#3C5F9A"/>
<stop offset="0.1427" stop-color="#33538D"/>
<stop offset="1" stop-color="#01103F"/>
</linearGradient>
<linearGradient id="paint57_linear_34264_6547" x1="146.904" y1="153.905" x2="169.958" y2="157.534" gradientUnits="userSpaceOnUse">
<stop stop-color="#3C698A"/>
<stop offset="0.1239" stop-color="#345E80"/>
<stop offset="1" stop-color="#01103F"/>
</linearGradient>
<linearGradient id="paint58_linear_34264_6547" x1="177.698" y1="168.473" x2="153.95" y2="295.39" gradientUnits="userSpaceOnUse">
<stop stop-color="#3C5F9A"/>
<stop offset="0.1427" stop-color="#33538D"/>
<stop offset="1" stop-color="#01103F"/>
</linearGradient>
<linearGradient id="paint59_linear_34264_6547" x1="149.712" y1="165.606" x2="124.119" y2="302.384" gradientUnits="userSpaceOnUse">
<stop stop-color="#3C5F9A"/>
<stop offset="0.1427" stop-color="#33538D"/>
<stop offset="1" stop-color="#01103F"/>
</linearGradient>
<linearGradient id="paint60_linear_34264_6547" x1="157.89" y1="73.5125" x2="134.644" y2="197.753" gradientUnits="userSpaceOnUse">
<stop stop-color="#3C5F9A"/>
<stop offset="0.1427" stop-color="#33538D"/>
<stop offset="1" stop-color="#01103F"/>
</linearGradient>
<linearGradient id="paint61_linear_34264_6547" x1="176.875" y1="104.322" x2="133.668" y2="144.66" gradientUnits="userSpaceOnUse">
<stop stop-color="#4663C5"/>
<stop offset="1" stop-color="#398EF6"/>
</linearGradient>
<linearGradient id="paint62_linear_34264_6547" x1="175.656" y1="105.931" x2="170.842" y2="110.425" gradientUnits="userSpaceOnUse">
<stop stop-color="#4663E1"/>
<stop offset="1" stop-color="#398EF6"/>
</linearGradient>
<linearGradient id="paint63_linear_34264_6547" x1="168.511" y1="93.6629" x2="125.614" y2="133.711" gradientUnits="userSpaceOnUse">
<stop stop-color="#4663C5"/>
<stop offset="1" stop-color="#398EF6"/>
</linearGradient>
<linearGradient id="paint64_linear_34264_6547" x1="181.456" y1="77.9127" x2="159.472" y2="75.7268" gradientUnits="userSpaceOnUse">
<stop stop-color="#F5C49F"/>
<stop offset="1" stop-color="#CA9A8F"/>
</linearGradient>
<linearGradient id="paint65_linear_34264_6547" x1="180.834" y1="71.401" x2="178.371" y2="70.725" gradientUnits="userSpaceOnUse">
<stop stop-color="#F3F3F3"/>
<stop offset="0.2778" stop-color="#E8E8E8"/>
<stop offset="0.7704" stop-color="#C9C9CC"/>
<stop offset="1" stop-color="#B9B9BD"/>
</linearGradient>
<linearGradient id="paint66_linear_34264_6547" x1="179.035" y1="75.3101" x2="162.599" y2="70.209" gradientUnits="userSpaceOnUse">
<stop stop-color="#F5C49F"/>
<stop offset="1" stop-color="#CA9A8F"/>
</linearGradient>
<linearGradient id="paint67_linear_34264_6547" x1="173.589" y1="73.0203" x2="171.103" y2="53.9203" gradientUnits="userSpaceOnUse">
<stop stop-color="#F3F3F3"/>
<stop offset="0.2778" stop-color="#E8E8E8"/>
<stop offset="0.7704" stop-color="#C9C9CC"/>
<stop offset="1" stop-color="#B9B9BD"/>
</linearGradient>
<linearGradient id="paint68_linear_34264_6547" x1="111.434" y1="108.162" x2="142.381" y2="107.908" gradientUnits="userSpaceOnUse">
<stop stop-color="#F5C49F"/>
<stop offset="1" stop-color="#CA9A8F"/>
</linearGradient>
<linearGradient id="paint69_linear_34264_6547" x1="135.226" y1="99.5221" x2="147.04" y2="99.5221" gradientUnits="userSpaceOnUse">
<stop stop-color="#4663E1"/>
<stop offset="1" stop-color="#398EF6"/>
</linearGradient>
<linearGradient id="paint70_linear_34264_6547" x1="175.385" y1="57.2013" x2="135.051" y2="94.8564" gradientUnits="userSpaceOnUse">
<stop stop-color="#4663C5"/>
<stop offset="1" stop-color="#398EF6"/>
</linearGradient>
<linearGradient id="paint71_linear_34264_6547" x1="174.761" y1="95.9028" x2="171.676" y2="72.2058" gradientUnits="userSpaceOnUse">
<stop stop-color="#F3F3F3"/>
<stop offset="0.2778" stop-color="#E8E8E8"/>
<stop offset="0.7704" stop-color="#C9C9CC"/>
<stop offset="1" stop-color="#B9B9BD"/>
</linearGradient>
<linearGradient id="paint72_linear_34264_6547" x1="196.3" y1="184.239" x2="225.49" y2="171.161" gradientUnits="userSpaceOnUse">
<stop stop-color="#3C698A"/>
<stop offset="0.1239" stop-color="#345E80"/>
<stop offset="1" stop-color="#01103F"/>
</linearGradient>
<linearGradient id="paint73_linear_34264_6547" x1="203.047" y1="134.738" x2="195.133" y2="125.372" gradientUnits="userSpaceOnUse">
<stop stop-color="#F5C49F"/>
<stop offset="1" stop-color="#CA9A8F"/>
</linearGradient>
<linearGradient id="paint74_linear_34264_6547" x1="198.077" y1="135.68" x2="200.028" y2="136.555" gradientUnits="userSpaceOnUse">
<stop stop-color="#F5C49F"/>
<stop offset="1" stop-color="#CA9A8F"/>
</linearGradient>
<linearGradient id="paint75_linear_34264_6547" x1="198.608" y1="134.829" x2="201.138" y2="135.963" gradientUnits="userSpaceOnUse">
<stop stop-color="#F5C49F"/>
<stop offset="1" stop-color="#CA9A8F"/>
</linearGradient>
<linearGradient id="paint76_linear_34264_6547" x1="199.733" y1="134.173" x2="202.263" y2="135.306" gradientUnits="userSpaceOnUse">
<stop stop-color="#F5C49F"/>
<stop offset="1" stop-color="#CA9A8F"/>
</linearGradient>
<linearGradient id="paint77_linear_34264_6547" x1="200.889" y1="133.719" x2="203.419" y2="134.853" gradientUnits="userSpaceOnUse">
<stop stop-color="#F5C49F"/>
<stop offset="1" stop-color="#CA9A8F"/>
</linearGradient>
<linearGradient id="paint78_linear_34264_6547" x1="180.44" y1="91.5356" x2="149.178" y2="131.118" gradientUnits="userSpaceOnUse">
<stop stop-color="#F5C49F"/>
<stop offset="1" stop-color="#DDA48F"/>
</linearGradient>
<linearGradient id="paint79_linear_34264_6547" x1="73.276" y1="83.9191" x2="122.795" y2="83.9191" gradientUnits="userSpaceOnUse">
<stop stop-color="#3949B2"/>
<stop offset="1" stop-color="#0B1B6A"/>
</linearGradient>
<linearGradient id="paint80_linear_34264_6547" x1="111.043" y1="101.72" x2="117.804" y2="93.2683" gradientUnits="userSpaceOnUse">
<stop stop-color="#F5C49F"/>
<stop offset="1" stop-color="#EAC8B0"/>
</linearGradient>
<linearGradient id="paint81_linear_34264_6547" x1="128.803" y1="117.812" x2="128.66" y2="106.991" gradientUnits="userSpaceOnUse">
<stop stop-color="#F5C49F"/>
<stop offset="1" stop-color="#EAC8B0"/>
</linearGradient>
<linearGradient id="paint82_linear_34264_6547" x1="97.5641" y1="90.9377" x2="104.324" y2="82.4872" gradientUnits="userSpaceOnUse">
<stop stop-color="#F5C49F"/>
<stop offset="1" stop-color="#EAC8B0"/>
</linearGradient>
<linearGradient id="paint83_linear_34264_6547" x1="126.583" y1="72.9112" x2="92.6013" y2="69.6922" gradientUnits="userSpaceOnUse">
<stop stop-color="#3EC1FF"/>
<stop offset="1" stop-color="#28BAFF"/>
</linearGradient>
<linearGradient id="paint84_linear_34264_6547" x1="185.508" y1="41.8877" x2="232.581" y2="41.8877" gradientUnits="userSpaceOnUse">
<stop stop-color="#3EC1FF"/>
<stop offset="1" stop-color="#28BAFF"/>
</linearGradient>
<linearGradient id="paint85_linear_34264_6547" x1="187.736" y1="30.5931" x2="194.948" y2="23.3804" gradientUnits="userSpaceOnUse">
<stop stop-color="#FF8681"/>
<stop offset="1" stop-color="#DB5A5C"/>
</linearGradient>
<linearGradient id="paint86_linear_34264_6547" x1="7.05446" y1="225.513" x2="258.002" y2="225.513" gradientUnits="userSpaceOnUse">
<stop stop-color="#3C698A"/>
<stop offset="0.1239" stop-color="#345E80"/>
<stop offset="1" stop-color="#01103F"/>
</linearGradient>
</defs>
</svg>
