<svg width="30" height="30" viewBox="0 0 30 30" fill="none" xmlns="http://www.w3.org/2000/svg">
<rect width="30" height="30" rx="4" fill="#DCF4FF"/>
<path d="M10 9C10 8.44772 9.55228 8 9 8C8.44772 8 8 8.44772 8 9V16.2676C7.4022 16.6134 7 17.2597 7 18C7 18.7403 7.4022 19.3866 8 19.7324V21C8 21.5523 8.44772 22 9 22C9.55228 22 10 21.5523 10 21V19.7324C10.5978 19.3866 11 18.7403 11 18C11 17.2597 10.5978 16.6134 10 16.2676V9Z" fill="#0084BF"/>
<path d="M16 9C16 8.44772 15.5523 8 15 8C14.4477 8 14 8.44772 14 9V10.2676C13.4022 10.6134 13 11.2597 13 12C13 12.7403 13.4022 13.3866 14 13.7324V21C14 21.5523 14.4477 22 15 22C15.5523 22 16 21.5523 16 21V13.7324C16.5978 13.3866 17 12.7403 17 12C17 11.2597 16.5978 10.6134 16 10.2676V9Z" fill="#0084BF"/>
<path d="M21 8C21.5523 8 22 8.44772 22 9V16.2676C22.5978 16.6134 23 17.2597 23 18C23 18.7403 22.5978 19.3866 22 19.7324V21C22 21.5523 21.5523 22 21 22C20.4477 22 20 21.5523 20 21V19.7324C19.4022 19.3866 19 18.7403 19 18C19 17.2597 19.4022 16.6134 20 16.2676V9C20 8.44772 20.4477 8 21 8Z" fill="#0084BF"/>
</svg>
