<svg width="30" height="30" viewBox="0 0 30 30" fill="none" xmlns="http://www.w3.org/2000/svg">
<rect width="30" height="30" rx="4" fill="#DCF4FF"/>
<g clip-path="url(#clip0_34469_4461)">
<path fill-rule="evenodd" clip-rule="evenodd" d="M16.6667 10.8333H22.5C23.8807 10.8333 25 11.9526 25 13.3333V22.5C25 23.8807 23.8807 25 22.5 25H15.8333C14.4526 25 13.3333 23.8807 13.3333 22.5V19.1667H7.5C6.11929 19.1667 5 18.0474 5 16.6667V7.5C5 6.11929 6.11929 5 7.5 5H14.1667C15.5474 5 16.6667 6.11929 16.6667 7.5V10.8333ZM16.6667 12.5V14.1667H18.3333C18.3333 13.7064 18.7064 13.3333 19.1667 13.3333C19.6269 13.3333 20 13.7064 20 14.1667H20.8162C20.827 14.1664 20.8378 14.1664 20.8487 14.1667H21.6667C22.1269 14.1667 22.5 14.5398 22.5 15C22.5 15.4602 22.1269 15.8333 21.6667 15.8333H21.4987C21.1868 17.0631 20.7109 18.1881 20.073 19.2055C20.6568 19.8594 21.3416 20.4483 22.129 20.9732C22.5119 21.2286 22.6154 21.746 22.3602 22.1289C22.1048 22.5118 21.5874 22.6153 21.2045 22.3601C20.4027 21.8255 19.689 21.2288 19.0644 20.5705C18.5109 21.2118 17.8782 21.7997 17.1667 22.3333C16.7985 22.6095 16.2762 22.5348 16 22.1667C15.7238 21.7985 15.7985 21.2762 16.1667 21C16.8647 20.4764 17.4729 19.8954 17.992 19.2554C17.6863 18.8162 17.4127 18.3552 17.1714 17.8727C16.9656 17.461 17.1324 16.9605 17.5441 16.7547C17.9557 16.5488 18.4563 16.7157 18.6621 17.1273C18.7666 17.3363 18.8782 17.5404 18.9968 17.7398C19.314 17.1447 19.5719 16.5094 19.7711 15.8333H16.6667V16.6667C16.6667 17.7552 15.971 18.6812 15 19.0244V22.5C15 22.9602 15.3731 23.3333 15.8333 23.3333H22.5C22.9602 23.3333 23.3333 22.9602 23.3333 22.5V13.3333C23.3333 12.8731 22.9602 12.5 22.5 12.5H16.6667ZM10.184 12.9167L10.8333 10.9686L11.4827 12.9167H10.184ZM9.62841 14.5833H12.0383L12.5428 16.0968C12.6883 16.5335 13.1602 16.7694 13.5968 16.6239C14.0335 16.4783 14.2694 16.0064 14.1239 15.5698L11.6239 8.06981C11.3706 7.31007 10.296 7.31007 10.0428 8.06981L7.54277 15.5698C7.39722 16.0064 7.63319 16.4783 8.06981 16.6239C8.50643 16.7694 8.97837 16.5335 9.1239 16.0968L9.62841 14.5833Z" fill="#0084BF"/>
</g>
<defs>
<clipPath id="clip0_34469_4461">
<rect width="20" height="20" fill="white" transform="translate(5 5)"/>
</clipPath>
</defs>
</svg>
