<svg width="30" height="30" viewBox="0 0 30 30" fill="none" xmlns="http://www.w3.org/2000/svg">
<rect width="30" height="30" rx="4" fill="#DCF4FF"/>
<path fill-rule="evenodd" clip-rule="evenodd" d="M15 23C19.4183 23 23 19.4183 23 15C23 10.5817 19.4183 7 15 7C10.5817 7 7 10.5817 7 15C7 19.4183 10.5817 23 15 23ZM16 11C16 10.4477 15.5523 10 15 10C14.4477 10 14 10.4477 14 11V15C14 15.2652 14.1054 15.5196 14.2929 15.7071L17.1213 18.5355C17.5118 18.9261 18.145 18.9261 18.5355 18.5355C18.9261 18.145 18.9261 17.5118 18.5355 17.1213L16 14.5858V11Z" fill="#0084BF"/>
</svg>
