<svg width="30" height="30" viewBox="0 0 30 30" fill="none" xmlns="http://www.w3.org/2000/svg">
<rect width="30" height="30" rx="4" fill="#DCF4FF"/>
<path d="M20 10.75C20 12.2687 17.5373 13.5 14.5 13.5C11.4627 13.5 9 12.2687 9 10.75M20 10.75C20 9.23133 17.5373 8 14.5 8C11.4627 8 9 9.23133 9 10.75M20 10.75V18.25C20 19.7687 17.5373 21 14.5 21C11.4627 21 9 19.7687 9 18.25V10.75M20 10.75V13.25M9 10.75V13.25M20 13.25V15.75C20 17.2687 17.5373 18.5 14.5 18.5C11.4627 18.5 9 17.2687 9 15.75V13.25M20 13.25C20 14.7687 17.5373 16 14.5 16C11.4627 16 9 14.7687 9 13.25" stroke="#0084BF" stroke-width="1.5" stroke-linecap="round" stroke-linejoin="round"/>
</svg>
