<svg width="208" height="208" viewBox="0 0 208 208" fill="none" xmlns="http://www.w3.org/2000/svg">
<circle cx="104" cy="104" r="104" fill="#EBF0F6"/>
<path d="M11.6901 105.695C11.398 80.3812 21.3758 55.0386 41.3664 36.5205C61.3577 18.0024 87.3882 9.98869 112.606 12.2133L113.28 11.5886C111.525 11.4233 109.759 11.3008 107.983 11.233C83.0491 10.2799 59.2358 19.0933 40.9312 36.0495C22.6256 53.0069 12.0192 76.0776 11.0659 101.012C10.9976 102.787 10.9852 104.557 11.0157 106.32L11.6901 105.695Z" fill="white"/>
<path d="M184.497 57.7344L184.996 57.2716C181.609 51.5277 177.584 46.1038 172.943 41.0951C166.343 33.9697 158.813 28.0171 150.611 23.3401L150.09 23.8233C158.223 28.417 165.793 34.3203 172.472 41.5308C177.153 46.582 181.154 52.0218 184.497 57.7344Z" fill="white"/>
<path d="M196.431 93.0243C199.99 121.669 190.208 151.572 167.463 172.643C129.934 207.408 71.1195 205.158 36.3554 167.629C29.6754 160.419 24.3676 152.419 20.4091 143.959L19.8867 144.443C23.9243 152.978 29.2842 160.94 35.8844 168.065C52.8415 186.372 75.9118 196.978 100.846 197.93C125.78 198.884 149.593 190.071 167.898 173.113C186.204 156.157 196.81 133.087 197.764 108.152C197.968 102.851 197.725 97.6011 197.06 92.4426L196.431 93.0243Z" fill="white"/>
<path d="M36.9825 67.6172C39.8177 62.4461 43.2908 57.5215 47.4192 52.9629C75.2985 22.1783 122.617 19.238 154.079 45.8804L154.492 45.4245C139.434 32.6572 120.395 26.1847 100.582 27.166C79.9037 28.1899 60.8616 37.205 46.964 52.551C42.7585 57.1947 39.1812 62.2521 36.2578 67.6172H36.9825Z" fill="white"/>
<path d="M27.6802 100.149H27.025C26.8737 102.884 26.8599 105.642 26.9975 108.415C27.979 128.227 36.2998 146.535 50.4925 160.258L50.9053 159.801C34.2969 143.723 26.4542 121.765 27.6802 100.149Z" fill="white"/>
<path d="M172.585 67.6172C171.806 66.1823 170.979 64.7709 170.107 63.3856L169.656 63.883C170.422 65.1105 171.146 66.3566 171.836 67.6172H172.585Z" fill="white"/>
<path d="M181.795 100.149H181.139C182.289 120.018 175.795 140.317 161.411 156.2C137.844 182.223 100.389 188.342 70.361 173.523L69.9102 174.021C81.6593 179.882 94.7742 182.664 108.248 181.997C128.926 180.973 147.967 171.957 161.867 156.612C175.763 141.268 182.854 121.427 181.83 100.749C181.82 100.549 181.807 100.349 181.795 100.149Z" fill="white"/>
<path d="M135.795 181.617C136.925 181.145 138.06 180.641 139.167 180.119L138.906 179.564C137.807 180.082 136.68 180.583 135.559 181.051L135.795 181.617Z" fill="white"/>
<path d="M37.1247 154.072L36.6328 154.438C37.3643 155.42 38.128 156.399 38.9001 157.344L39.3757 156.955C38.6088 156.017 37.8519 155.046 37.1247 154.072Z" fill="white"/>
<path d="M33.0231 148.016L32.5 148.338C33.1407 149.378 33.8133 150.419 34.5006 151.43L35.0083 151.085C34.3267 150.081 33.6587 149.048 33.0231 148.016Z" fill="white"/>
<path d="M24.1243 128.005L23.5352 128.177C23.8798 129.355 24.2554 130.538 24.651 131.695L25.2312 131.497C24.8386 130.348 24.4664 129.173 24.1243 128.005Z" fill="white"/>
<path d="M46.8654 164.978L46.4453 165.426C47.3367 166.262 48.2606 167.091 49.1902 167.891L49.59 167.426C48.6669 166.632 47.7501 165.808 46.8654 164.978Z" fill="white"/>
<path d="M29.4679 141.625L28.918 141.899C29.4651 142.994 30.0448 144.093 30.6399 145.164L31.1763 144.865C30.5853 143.803 30.0104 142.712 29.4679 141.625Z" fill="white"/>
<path d="M26.489 134.934L25.918 135.159C26.3654 136.3 26.844 137.445 27.3416 138.562L27.9018 138.314C27.4092 137.204 26.9334 136.067 26.489 134.934Z" fill="white"/>
<path d="M128.865 184.156C130.033 183.786 131.208 183.386 132.358 182.965L132.147 182.389C131.006 182.806 129.839 183.205 128.68 183.571L128.865 184.156Z" fill="white"/>
<path d="M114.387 186.734L114.466 187.344C115.681 187.184 116.909 186.995 118.114 186.783L118.008 186.178C116.81 186.389 115.592 186.577 114.387 186.734Z" fill="white"/>
<path d="M121.605 185.463L121.737 186.062C122.933 185.796 124.14 185.502 125.322 185.184L125.163 184.592C123.99 184.906 122.793 185.2 121.605 185.463Z" fill="white"/>
<path d="M52.4179 169.747L52.0391 170.231C53.0024 170.987 53.9958 171.733 54.9904 172.445L55.3479 171.946C54.3604 171.239 53.3751 170.498 52.4179 169.747Z" fill="white"/>
<path d="M58.3743 174.014L58.0391 174.528C59.0653 175.197 60.1206 175.852 61.1757 176.477L61.4873 175.948C60.4407 175.329 59.3936 174.679 58.3743 174.014Z" fill="white"/>
<path d="M73.5971 181.838C72.8271 181.538 72.0584 181.23 71.3017 180.909L71.0625 181.474C71.9266 181.842 72.8078 182.192 73.6873 182.531L73.5971 181.838Z" fill="white"/>
<path d="M64.6871 177.747L64.3984 178.288C65.4808 178.865 66.5896 179.425 67.696 179.953L67.9602 179.399C66.8627 178.875 65.7613 178.318 64.6871 177.747Z" fill="white"/>
<path d="M41.7544 159.739L41.2969 160.148C42.1119 161.06 42.9587 161.968 43.8132 162.844L44.2523 162.415C43.4041 161.546 42.5636 160.645 41.7544 159.739Z" fill="white"/>
<path d="M39.5806 52.0637L39.1064 51.6741C38.3276 52.6225 37.561 53.5994 36.8281 54.5773L37.32 54.9453C38.0467 53.9748 38.8078 53.0053 39.5806 52.0637Z" fill="white"/>
<path d="M49.4209 41.1485C48.492 41.9427 47.5676 42.7691 46.6719 43.6061L47.0913 44.0547C47.9801 43.2239 48.8979 42.4031 49.8193 41.6152L49.4209 41.1485Z" fill="white"/>
<path d="M44.0349 46.188C43.1793 47.0615 42.3302 47.9659 41.5117 48.8788L41.9683 49.2891C42.781 48.383 43.6235 47.4841 44.4724 46.618L44.0349 46.188Z" fill="white"/>
<path d="M54.7024 37C53.8833 37.5931 53.0676 38.201 52.2734 38.8211L52.6516 39.3047C53.3524 38.7571 54.0708 38.2203 54.793 37.6933L54.7024 37Z" fill="white"/>
<path d="M89.0778 23.079L88.9704 22.4745C87.883 22.6673 86.7871 22.8873 85.7031 23.1237L85.7829 23.7344C86.8749 23.495 87.9807 23.2732 89.0778 23.079Z" fill="white"/>
<path d="M107.125 187.374L107.204 187.984C108.399 187.93 109.61 187.852 110.801 187.748L110.747 187.136C109.548 187.241 108.328 187.321 107.125 187.374Z" fill="white"/>
<path d="M34.6798 57.5829C33.9886 58.5942 33.3101 59.6351 32.6641 60.6762L33.1855 61C33.8272 59.9667 34.5 58.9332 35.1863 57.9288L34.6798 57.5829Z" fill="white"/>
<path d="M30.7867 63.8539C30.1877 64.9213 29.6037 66.0177 29.0508 67.1143L29.5986 67.3906C30.1476 66.3025 30.7271 65.2142 31.3215 64.1545L30.7867 63.8539Z" fill="white"/>
<path d="M22.6181 84.4023C22.3202 85.5927 22.0455 86.8071 21.8008 88.0108L22.4025 88.1328C22.6454 86.9378 22.918 85.733 23.2136 84.5516L22.6181 84.4023Z" fill="white"/>
<path d="M27.4606 70.4409C26.9572 71.5593 26.4724 72.7043 26.0195 73.8437L26.5889 74.0703C27.0395 72.9393 27.5206 71.803 28.0203 70.6931L27.4606 70.4409Z" fill="white"/>
<path d="M24.7284 77.3137C24.3262 78.4727 23.9437 79.6567 23.5938 80.8326L24.1822 81.0078C24.5298 79.8408 24.9089 78.6651 25.3084 77.5146L24.7284 77.3137Z" fill="white"/>
<path d="M183.553 128.5C183.906 127.322 184.235 126.123 184.535 124.934L183.939 124.785C183.643 125.964 183.314 127.155 182.965 128.325L183.553 128.5Z" fill="white"/>
<path d="M179.309 71.0234L179.87 70.7755C179.374 69.6569 178.846 68.5333 178.299 67.4353L177.75 67.7089C178.293 68.7986 178.817 69.9142 179.309 71.0234Z" fill="white"/>
<path d="M167.854 52.3672L168.33 51.9794C167.556 51.0303 166.751 50.0862 165.938 49.1733L165.48 49.5817C166.287 50.4877 167.085 51.4249 167.854 52.3672Z" fill="white"/>
<path d="M142.47 178.469C143.549 177.901 144.632 177.298 145.686 176.682L145.377 176.151C144.33 176.765 143.256 177.361 142.184 177.926L142.47 178.469Z" fill="white"/>
<path d="M172.218 58.2344L172.726 57.8904C172.041 56.878 171.324 55.8678 170.595 54.8861L170.102 55.2526C170.825 56.2269 171.538 57.2297 172.218 58.2344Z" fill="white"/>
<path d="M103.834 21.7927L103.835 21.1792C102.611 21.1765 101.37 21.2022 100.145 21.2542L100.171 21.8672C101.387 21.8156 102.619 21.7906 103.834 21.7927Z" fill="white"/>
<path d="M92.6968 22.5234L92.8747 22.4998C94.0844 22.3418 95.3101 22.2093 96.5177 22.1052L96.4645 21.4933C95.2479 21.5986 94.0142 21.7325 92.7944 21.8914L92.6172 21.9146L92.6968 22.5234Z" fill="white"/>
<path d="M111.15 22.1328L111.206 21.5214C109.986 21.4109 108.747 21.3268 107.525 21.2704L107.496 21.8831C108.711 21.939 109.94 22.023 111.15 22.1328Z" fill="white"/>
<path d="M132.551 27.0156L132.767 26.4407C131.614 26.0099 130.44 25.5996 129.276 25.2224L129.086 25.8062C130.242 26.1804 131.407 26.5875 132.551 27.0156Z" fill="white"/>
<path d="M125.572 24.75L125.735 24.1579C124.555 23.8323 123.348 23.5287 122.147 23.2544L122.012 23.8532C123.202 24.1247 124.4 24.4267 125.572 24.75Z" fill="white"/>
<path d="M118.41 23.1172L118.521 22.5139C117.314 22.2944 116.087 22.0997 114.876 21.9353L114.793 22.5432C115.996 22.7069 117.213 22.9003 118.41 23.1172Z" fill="white"/>
<path d="M176.043 64.4609L176.579 64.163C175.985 63.0928 175.361 62.0233 174.723 60.9836L174.199 61.3051C174.832 62.3368 175.453 63.399 176.043 64.4609Z" fill="white"/>
<path d="M165.606 160.438C166.425 159.526 167.234 158.586 168.012 157.64L167.538 157.25C166.766 158.189 165.962 159.123 165.148 160.027L165.606 160.438Z" fill="white"/>
<path d="M170.292 154.75C171.026 153.772 171.751 152.763 172.443 151.751L171.937 151.404C171.249 152.409 170.53 153.411 169.801 154.381L170.292 154.75Z" fill="white"/>
<path d="M174.461 148.656C175.11 147.616 175.742 146.546 176.344 145.478L175.808 145.177C175.212 146.237 174.583 147.299 173.941 148.331L174.461 148.656Z" fill="white"/>
<path d="M148.826 174.758C149.851 174.095 150.877 173.4 151.875 172.691L151.52 172.189C150.528 172.894 149.51 173.585 148.492 174.241L148.826 174.758Z" fill="white"/>
<path d="M178.082 142.219C178.636 141.124 179.172 140.003 179.678 138.886L179.117 138.633C178.617 139.742 178.084 140.855 177.535 141.942L178.082 142.219Z" fill="white"/>
<path d="M154.83 170.492C155.793 169.741 156.754 168.958 157.687 168.161L157.289 167.694C156.363 168.485 155.409 169.262 154.453 170.008L154.83 170.492Z" fill="white"/>
<path d="M160.439 165.703C161.334 164.867 162.223 164.001 163.08 163.129L162.642 162.699C161.791 163.565 160.909 164.424 160.02 165.253L160.439 165.703Z" fill="white"/>
<path d="M185.449 92.0547L186.056 91.9616C185.87 90.7451 185.655 89.5223 185.419 88.3269L184.816 88.4459C185.051 89.6326 185.264 90.8466 185.449 92.0547Z" fill="white"/>
<path d="M181.121 135.484C181.576 134.346 182.011 133.181 182.415 132.021L181.835 131.819C181.435 132.97 181.003 134.127 180.551 135.256L181.121 135.484Z" fill="white"/>
<path d="M181.976 77.8359L182.558 77.6383C182.163 76.4788 181.736 75.3121 181.29 74.1723L180.719 74.3955C181.162 75.5276 181.585 76.6843 181.976 77.8359Z" fill="white"/>
<path d="M184.026 84.8672L184.622 84.7218C184.333 83.5335 184.011 82.3339 183.668 81.1571L183.078 81.3288C183.42 82.4974 183.739 83.6873 184.026 84.8672Z" fill="white"/>
<path d="M186.855 99.3038C186.777 98.0875 186.669 96.8508 186.536 95.6276L185.926 95.6939C186.058 96.9082 186.164 98.1364 186.243 99.3438L186.855 99.3038Z" fill="white"/>
<path d="M185.358 121.328C185.604 120.128 185.825 118.906 186.016 117.696L185.41 117.6C185.221 118.801 185.001 120.014 184.758 121.205L185.358 121.328Z" fill="white"/>
<path d="M186.508 114.039C186.646 112.822 186.758 111.586 186.841 110.363L186.227 110.322C186.145 111.535 186.036 112.762 185.898 113.97L186.508 114.039Z" fill="white"/>
<path d="M187.008 106.68C187.037 105.455 187.038 104.213 187.013 102.99L186.4 103.003C186.424 104.217 186.423 105.449 186.395 106.666L187.008 106.68Z" fill="white"/>
<path d="M175.931 104.579C175.931 144.076 143.913 176.094 104.417 176.094C64.9206 176.094 32.9023 144.076 32.9023 104.579C32.9023 65.083 64.9206 33.0647 104.417 33.0647C143.913 33.0647 175.931 65.083 175.931 104.579Z" fill="white"/>
<path d="M150.106 155.655C150.106 156.597 149.336 157.367 148.394 157.367H60.6186C59.6772 157.367 58.9062 156.597 58.9062 155.655V43.7574C58.9062 42.8153 59.6772 42.0451 60.6186 42.0451H148.394C149.336 42.0451 150.106 42.8153 150.106 43.7574V155.655Z" fill="#191C1D"/>
<path d="M146.165 152.102H62.9609V46.7256H146.165V152.102Z" fill="white"/>
<path d="M129.333 46.7241H62.6172V140.258H146.397V63.7897L129.333 46.7241Z" fill="#E9EAE9"/>
<path d="M129.333 46.7241H62.6172V152.695H146.397V63.7897H129.333V46.7241Z" fill="white"/>
<path d="M115.619 124.425H96.8477V126.766H115.619V124.425Z" fill="#E9EAE9"/>
<path d="M137.301 129.749H96.8477V132.086H137.301V129.749Z" fill="#E9EAE9"/>
<path d="M137.301 135.064H96.8477V137.406H137.301V135.064Z" fill="#E9EAE9"/>
<path d="M115.619 100.495H96.8477V102.836H115.619V100.495Z" fill="#E9EAE9"/>
<path d="M137.301 105.811H96.8477V108.148H137.301V105.811Z" fill="#E9EAE9"/>
<path d="M137.301 111.126H96.8477V113.469H137.301V111.126Z" fill="#E9EAE9"/>
<path d="M115.619 76.5578H96.8477V78.8984H115.619V76.5578Z" fill="#E9EAE9"/>
<path d="M137.301 81.8733H96.8477V84.2109H137.301V81.8733Z" fill="#E9EAE9"/>
<path d="M137.301 87.1892H96.8477V89.5312H137.301V87.1892Z" fill="#E9EAE9"/>
<path d="M129.333 46.7284H62.6172V51.6406H129.333V46.7284Z" fill="#FACF11"/>
<path d="M96.6185 54.2344H94.5312V53.7166H96.729L96.6185 54.2344Z" fill="#EEE5F1"/>
<path d="M112.153 54.2344H114.153V53.7166H112.043L112.153 54.2344Z" fill="#EEE5F1"/>
<path d="M87.1523 39.4341V54.7656H94.5339C94.5339 54.7656 94.5318 53.3966 94.5339 53.3909C94.5339 53.3909 114.143 53.3904 114.143 53.3998V54.7656H121.657V39.4341H87.1523Z" fill="#F14A2D"/>
<path d="M100.621 30.4669L95.6397 53.8516H96.6987L101.812 29.8447L101.41 29.6812C98.386 28.4532 96.4301 25.5526 96.4301 22.2931C96.4301 17.8959 100.008 14.3183 104.406 14.3183C108.805 14.3183 112.382 17.8959 112.382 22.2931C112.382 25.5785 110.405 28.4858 107.347 29.7009L106.941 29.8631L112.074 53.8516H113.132L108.134 30.4916C111.358 29.0293 113.417 25.8576 113.417 22.2931C113.417 17.3247 109.377 13.2832 104.406 13.2832C99.4376 13.2832 95.3945 17.3247 95.3945 22.2931C95.3945 25.8307 97.4318 28.9935 100.621 30.4669Z" fill="#EEE5F1"/>
<path d="M87.5281 120.449V121.578H86.3984V120.449H87.5281Z" fill="#E9EAE9"/>
<path d="M87.5281 137.124V138.32H86.3984V137.124H87.5281ZM87.5281 134.733V135.929H86.3984V134.733H87.5281ZM87.5281 132.341V133.536H86.3984V132.341H87.5281ZM87.5281 129.949V131.144H86.3984V129.949H87.5281ZM87.5281 127.557V128.753H86.3984V127.557H87.5281ZM87.5281 125.165V126.361H86.3984V125.165H87.5281ZM87.5281 122.773V123.969H86.3984V122.773H87.5281Z" fill="#E9EAE9"/>
<path d="M87.5281 139.518V140.648H86.3984V139.518H87.5281Z" fill="#E9EAE9"/>
<path d="M70.8526 139.518V140.648H69.6562V139.518H70.8526ZM73.2444 139.518V140.648H72.048V139.518H73.2444ZM75.6371 139.518V140.648H74.44V139.518H75.6371ZM78.0289 139.518V140.648H76.8325V139.518H78.0289ZM80.42 139.518V140.648H79.2236V139.518H80.42ZM82.812 139.518V140.648H81.6156V139.518H82.812ZM85.2038 139.518V140.648H84.0074V139.518H85.2038Z" fill="#E9EAE9"/>
<path d="M68.458 139.518V140.648H67.3281V139.518H68.458Z" fill="#E9EAE9"/>
<path d="M68.458 137.124V138.32H67.3281V137.124H68.458ZM68.458 134.733V135.929H67.3281V134.733H68.458ZM68.458 132.341V133.536H67.3281V132.341H68.458ZM68.458 129.949V131.145H67.3281V129.949H68.458ZM68.458 127.557V128.753H67.3281V127.557H68.458ZM68.458 125.165V126.361H67.3281V125.165H68.458ZM68.458 122.773V123.969H67.3281V122.773H68.458Z" fill="#E9EAE9"/>
<path d="M68.458 120.449V121.578H67.3281V120.449H68.458Z" fill="#E9EAE9"/>
<path d="M70.8526 120.449V121.578H69.6562V120.449H70.8526ZM73.2444 120.449V121.578H72.048V120.449H73.2444ZM75.6371 120.449V121.578H74.44V120.449H75.6371ZM78.0275 120.449V121.578H76.8318V120.449H78.0275ZM80.42 120.449V121.578H79.2236V120.449H80.42ZM82.812 120.449V121.578H81.6156V120.449H82.812ZM85.2038 120.449V121.578H84.0074V120.449H85.2038Z" fill="#E9EAE9"/>
<path d="M87.5281 96.5262V97.6562H86.3984V96.5262H87.5281Z" fill="#E9EAE9"/>
<path d="M87.5281 113.202V114.398H86.3984V113.202H87.5281ZM87.5281 110.81V112.006H86.3984V110.81H87.5281ZM87.5281 108.418V109.615H86.3984V108.418H87.5281ZM87.5281 106.026V107.222H86.3984V106.026H87.5281ZM87.5281 103.634V104.83H86.3984V103.634H87.5281ZM87.5281 101.242V102.438H86.3984V101.242H87.5281ZM87.5281 98.8498V100.046H86.3984V98.8498H87.5281Z" fill="#E9EAE9"/>
<path d="M87.5281 115.597V116.727H86.3984V115.597H87.5281Z" fill="#E9EAE9"/>
<path d="M70.8526 115.597V116.727H69.6562V115.597H70.8526ZM73.2444 115.597V116.727H72.048V115.597H73.2444ZM75.6371 115.597V116.727H74.44V115.597H75.6371ZM78.0289 115.597V116.727H76.8325V115.597H78.0289ZM80.42 115.597V116.727H79.2236V115.597H80.42ZM82.812 115.597V116.727H81.6156V115.597H82.812ZM85.2038 115.597V116.727H84.0074V115.597H85.2038Z" fill="#E9EAE9"/>
<path d="M68.458 115.597V116.727H67.3281V115.597H68.458Z" fill="#E9EAE9"/>
<path d="M68.458 113.202V114.398H67.3281V113.202H68.458ZM68.458 110.81V112.006H67.3281V110.81H68.458ZM68.458 108.418V109.615H67.3281V108.418H68.458ZM68.458 106.026V107.222H67.3281V106.026H68.458ZM68.458 103.634V104.83H67.3281V103.634H68.458ZM68.458 101.242V102.438H67.3281V101.242H68.458ZM68.458 98.8498V100.046H67.3281V98.8498H68.458Z" fill="#E9EAE9"/>
<path d="M68.458 96.5262V97.6562H67.3281V96.5262H68.458Z" fill="#E9EAE9"/>
<path d="M70.8526 96.5262V97.6562H69.6562V96.5262H70.8526ZM73.2444 96.5262V97.6562H72.048V96.5262H73.2444ZM75.6371 96.5262V97.6562H74.44V96.5262H75.6371ZM78.0275 96.5262V97.6562H76.8318V96.5262H78.0275ZM80.42 96.5262V97.6562H79.2236V96.5262H80.42ZM82.812 96.5262V97.6562H81.6156V96.5262H82.812ZM85.2038 96.5262V97.6562H84.0074V96.5262H85.2038Z" fill="#E9EAE9"/>
<path d="M87.5281 72.596V73.7266H86.3984V72.596H87.5281Z" fill="#E9EAE9"/>
<path d="M87.5281 89.2807V90.4766H86.3984V89.2807H87.5281ZM87.5281 86.8889V88.085H86.3984V86.8889H87.5281ZM87.5281 84.4964V85.6923H86.3984V84.4964H87.5281ZM87.5281 82.1042V83.3003H86.3984V82.1042H87.5281ZM87.5281 79.7126V80.9083H86.3984V79.7126H87.5281ZM87.5281 77.3206V78.517H86.3984V77.3206H87.5281ZM87.5281 74.9297V76.1261H86.3984V74.9297H87.5281Z" fill="#E9EAE9"/>
<path d="M87.5281 91.6668V92.7969H86.3984V91.6668H87.5281Z" fill="#E9EAE9"/>
<path d="M70.8526 91.6668V92.7969H69.6562V91.6668H70.8526ZM73.2444 91.6668V92.7969H72.048V91.6668H73.2444ZM75.6371 91.6668V92.7969H74.44V91.6668H75.6371ZM78.0289 91.6668V92.7969H76.8325V91.6668H78.0289ZM80.42 91.6668V92.7969H79.2236V91.6668H80.42ZM82.812 91.6668V92.7969H81.6156V91.6668H82.812ZM85.2038 91.6668V92.7969H84.0074V91.6668H85.2038Z" fill="#E9EAE9"/>
<path d="M68.458 91.6668V92.7969H67.3281V91.6668H68.458Z" fill="#E9EAE9"/>
<path d="M68.458 89.2818V90.4766H67.3281V89.2818H68.458ZM68.458 86.8905V88.0866H67.3281V86.8905H68.458ZM68.458 84.498V85.6939H67.3281V84.498H68.458ZM68.458 82.1058V83.3019H67.3281V82.1058H68.458ZM68.458 79.7142V80.9097H67.3281V79.7142H68.458ZM68.458 77.3222V78.5186H67.3281V77.3222H68.458ZM68.458 74.9313V76.1261H67.3281V74.9313H68.458Z" fill="#E9EAE9"/>
<path d="M68.458 72.596V73.7266H67.3281V72.596H68.458Z" fill="#E9EAE9"/>
<path d="M70.8526 72.596V73.7266H69.6562V72.596H70.8526ZM73.2444 72.596V73.7266H72.048V72.596H73.2444ZM75.6371 72.596V73.7266H74.44V72.596H75.6371ZM78.0275 72.596V73.7266H76.8318V72.596H78.0275ZM80.42 72.596V73.7266H79.2236V72.596H80.42ZM82.812 72.596V73.7266H81.6156V72.596H82.812ZM85.2038 72.596V73.7266H84.0074V72.596H85.2038Z" fill="#E9EAE9"/>
<path d="M82.1648 126.156V135.469H72.8516V126.156H82.1648Z" fill="#E9EAE9"/>
<path d="M82.1648 101.913V111.227H72.8516V101.913H82.1648Z" fill="#E9EAE9"/>
<path d="M82.1648 78.0456V87.3594H72.8516V78.0456H82.1648Z" fill="#E9EAE9"/>
<path d="M75.4417 80.1196L74.2305 81.3306L79.1344 86.2344L90.637 74.732L89.4258 73.5212L79.1344 83.8125L75.4417 80.1196Z" fill="#F14A2D"/>
<path d="M75.4417 104.252L74.2305 105.463L79.1344 110.367L90.637 98.8646L89.4258 97.6543L79.1344 107.945L75.4417 104.252Z" fill="#F14A2D"/>
<path d="M75.4417 128.136L74.2305 129.346L79.1344 134.25L90.637 122.748L89.4258 121.537L79.1344 131.828L75.4417 128.136Z" fill="#F14A2D"/>
<path d="M167.841 142.101H160.523L164.181 148L165.919 145.2L167.841 142.101Z" fill="#191C1D"/>
<path d="M160.532 142.109H167.843V127.555L167.842 82.0788V63.124H160.531V82.0788L160.532 127.555V142.109Z" fill="#FACF11"/>
<path d="M160.532 129.125H167.843V126.15L167.842 111.927V105.999H160.531V111.927L160.532 126.15V129.125Z" fill="#F14A2D"/>
<path d="M160.54 129.125H164.23V105.999H160.539V111.927L160.54 126.15V129.125Z" fill="#EB4228"/>
<path d="M158.748 89.5036V70.2292H167.844V67.7468H156.266V95.6172H158.748V93.6068C159.58 93.2958 160.174 92.4962 160.174 91.5553C160.174 90.6146 159.58 89.8148 158.748 89.5036Z" fill="#191C1D"/>
</svg>
