<svg width="30" height="30" viewBox="0 0 30 30" fill="none" xmlns="http://www.w3.org/2000/svg">
<rect width="30" height="30" rx="4" fill="#DCF4FF"/>
<path d="M23 8C23 7.65342 22.8205 7.33156 22.5257 7.14935C22.2309 6.96714 21.8628 6.95058 21.5528 7.10557L13.7639 11H10C8.34315 11 7 12.3431 7 14C7 15.6569 8.34315 17 10 17H10.2792L12.0513 22.3162C12.1874 22.7246 12.5696 23 13 23H14C14.5523 23 15 22.5523 15 22V17.618L21.5528 20.8944C21.8628 21.0494 22.2309 21.0329 22.5257 20.8507C22.8205 20.6684 23 20.3466 23 20V8Z" fill="#0084BF"/>
</svg>
