<svg width="30" height="30" viewBox="0 0 30 30" fill="none" xmlns="http://www.w3.org/2000/svg">
<rect width="30" height="30" rx="4" fill="#DCF4FF"/>
<path fill-rule="evenodd" clip-rule="evenodd" d="M8 10C8 8.89543 8.89543 8 10 8H11C11.5523 8 12 8.44772 12 9C12 9.55228 11.5523 10 11 10L10 10V20H20V10H19C18.4477 10 18 9.55228 18 9C18 8.44772 18.4477 8 19 8H20C21.1046 8 22 8.89543 22 10V20C22 21.1046 21.1046 22 20 22H10C8.89543 22 8 21.1046 8 20V10Z" fill="#0084BF"/>
<path d="M9 17H12L13 19H17L18 17H21V21H9V17Z" fill="#0084BF"/>
<path d="M12.2929 12.2929C12.6834 11.9024 13.3166 11.9024 13.7071 12.2929L14 12.5858V8C14 7.44772 14.4477 7 15 7C15.5523 7 16 7.44771 16 8L16 12.5858L16.2929 12.2929C16.6834 11.9024 17.3166 11.9024 17.7071 12.2929C18.0976 12.6834 18.0976 13.3166 17.7071 13.7071L15.7071 15.7071C15.5196 15.8946 15.2652 16 15 16C14.7348 16 14.4804 15.8946 14.2929 15.7071L12.2929 13.7071C11.9024 13.3166 11.9024 12.6834 12.2929 12.2929Z" fill="#0084BF"/>
</svg>
