<svg width="169" height="25" viewBox="0 0 169 25" fill="none" xmlns="http://www.w3.org/2000/svg">
<path d="M19.7544 24.6304C19.4854 24.6304 19.2253 24.5654 18.9813 24.4374L13.4723 21.5414C13.3903 21.4984 13.2983 21.4754 13.2053 21.4754C13.1123 21.4754 13.0203 21.4984 12.9383 21.5414L7.42835 24.4384C7.18435 24.5664 6.92435 24.6314 6.65535 24.6314C6.16535 24.6314 5.70135 24.4134 5.38135 24.0344C5.06735 23.6624 4.93535 23.1704 5.01835 22.6864L6.07035 16.5514C6.10235 16.3654 6.04035 16.1754 5.90535 16.0434L1.44835 11.6994C0.992353 11.2544 0.831348 10.6024 1.02735 9.99644C1.22435 9.39044 1.73835 8.95745 2.36835 8.86545L8.52834 7.97044C8.71534 7.94344 8.87635 7.82545 8.96035 7.65645L11.7143 2.07544C11.9963 1.50344 12.5674 1.14844 13.2044 1.14844C13.8414 1.14844 14.4123 1.50344 14.6943 2.07544L17.4493 7.65645C17.5323 7.82545 17.6944 7.94344 17.8814 7.97044L24.0413 8.86545C24.6723 8.95745 25.1863 9.39044 25.3823 9.99644C25.5793 10.6024 25.4183 11.2554 24.9623 11.6994L20.5053 16.0434C20.3703 16.1754 20.3084 16.3644 20.3404 16.5514L21.3924 22.6864C21.4754 23.1704 21.3433 23.6624 21.0293 24.0344C20.7093 24.4124 20.2454 24.6304 19.7544 24.6304Z" fill="#92D9DC"/>
<path d="M19.7544 23.5435C19.4854 23.5435 19.2253 23.4785 18.9813 23.3505L13.4723 20.4545C13.3903 20.4115 13.2983 20.3885 13.2053 20.3885C13.1123 20.3885 13.0203 20.4115 12.9383 20.4545L7.42835 23.3515C7.18435 23.4795 6.92435 23.5445 6.65535 23.5445C6.16535 23.5445 5.70135 23.3265 5.38135 22.9475C5.06735 22.5755 4.93535 22.0835 5.01835 21.5995L6.07035 15.4655C6.10235 15.2795 6.04035 15.0895 5.90535 14.9575L1.44835 10.6125C0.992353 10.1675 0.831348 9.5155 1.02735 8.9095C1.22435 8.3035 1.73835 7.87049 2.36835 7.77849L8.52834 6.8835C8.71534 6.8565 8.87635 6.73849 8.96035 6.56949L11.7143 0.988495C11.9963 0.416495 12.5674 0.0625 13.2044 0.0625C13.8414 0.0625 14.4123 0.417495 14.6943 0.988495L17.4493 6.56949C17.5323 6.73849 17.6944 6.8565 17.8814 6.8835L24.0413 7.77849C24.6723 7.87049 25.1863 8.3035 25.3823 8.9095C25.5793 9.5155 25.4183 10.1685 24.9623 10.6125L20.5053 14.9575C20.3703 15.0895 20.3084 15.2785 20.3404 15.4655L21.3924 21.5995C21.4754 22.0835 21.3433 22.5755 21.0293 22.9475C20.7093 23.3255 20.2454 23.5435 19.7544 23.5435Z" fill="white"/>
<path d="M14.2068 1.22481L16.9618 6.80582C17.1248 7.13582 17.4398 7.36481 17.8038 7.41681L23.9628 8.31182C24.8798 8.44482 25.2458 9.57181 24.5818 10.2178L20.1248 14.5618C19.8618 14.8188 19.7408 15.1888 19.8038 15.5508L20.8558 21.6858C21.0128 22.5988 20.0538 23.2948 19.2338 22.8638L13.7248 19.9678C13.3988 19.7968 13.0098 19.7968 12.6848 19.9678L7.17582 22.8638C6.35581 23.2948 5.39781 22.5988 5.55381 21.6858L6.60581 15.5508C6.66781 15.1878 6.54782 14.8188 6.28382 14.5618L1.82682 10.2178C1.16382 9.57081 1.5298 8.44482 2.4458 8.31182L8.60482 7.41681C8.96882 7.36381 9.28381 7.13582 9.44681 6.80582L12.2018 1.22481C12.6128 0.393813 13.7968 0.393813 14.2068 1.22481Z" fill="#FFE544"/>
<path d="M19.8059 15.5521C19.7439 15.1891 19.8639 14.8201 20.1269 14.5631L23.7029 11.0781C20.9859 12.3101 17.2869 13.0701 13.2069 13.0701C9.12694 13.0701 5.42794 12.3101 2.71094 11.0781L6.28694 14.5631C6.54994 14.8201 6.67094 15.1901 6.60794 15.5521L5.55594 21.6871C5.39894 22.6001 6.35795 23.2961 7.17795 22.8651L12.687 19.9691C13.013 19.7981 13.4019 19.7981 13.7269 19.9691L19.2359 22.8651C20.0559 23.2961 21.0139 22.6001 20.8579 21.6871L19.8059 15.5521Z" fill="#FFCC44"/>
<path d="M55.5044 24.6304C55.2354 24.6304 54.9753 24.5654 54.7313 24.4374L49.2223 21.5414C49.1403 21.4984 49.0483 21.4754 48.9553 21.4754C48.8623 21.4754 48.7703 21.4984 48.6883 21.5414L43.1783 24.4384C42.9343 24.5664 42.6744 24.6314 42.4054 24.6314C41.9154 24.6314 41.4514 24.4134 41.1314 24.0344C40.8174 23.6624 40.6853 23.1704 40.7683 22.6864L41.8203 16.5514C41.8523 16.3654 41.7904 16.1754 41.6554 16.0434L37.1984 11.6994C36.7424 11.2544 36.5813 10.6024 36.7773 9.99644C36.9743 9.39044 37.4884 8.95745 38.1184 8.86545L44.2783 7.97044C44.4653 7.94344 44.6263 7.82545 44.7103 7.65645L47.4643 2.07544C47.7463 1.50344 48.3174 1.14844 48.9544 1.14844C49.5914 1.14844 50.1623 1.50344 50.4443 2.07544L53.1993 7.65645C53.2823 7.82545 53.4444 7.94344 53.6314 7.97044L59.7913 8.86545C60.4223 8.95745 60.9364 9.39044 61.1324 9.99644C61.3294 10.6024 61.1683 11.2554 60.7123 11.6994L56.2553 16.0434C56.1203 16.1754 56.0584 16.3644 56.0904 16.5514L57.1424 22.6864C57.2254 23.1704 57.0933 23.6624 56.7793 24.0344C56.4593 24.4124 55.9954 24.6304 55.5044 24.6304Z" fill="#92D9DC"/>
<path d="M55.5044 23.5435C55.2354 23.5435 54.9753 23.4785 54.7313 23.3505L49.2223 20.4545C49.1403 20.4115 49.0483 20.3885 48.9553 20.3885C48.8623 20.3885 48.7703 20.4115 48.6883 20.4545L43.1783 23.3515C42.9343 23.4795 42.6744 23.5445 42.4054 23.5445C41.9154 23.5445 41.4514 23.3265 41.1314 22.9475C40.8174 22.5755 40.6853 22.0835 40.7683 21.5995L41.8203 15.4655C41.8523 15.2795 41.7904 15.0895 41.6554 14.9575L37.1984 10.6125C36.7424 10.1675 36.5813 9.5155 36.7773 8.9095C36.9743 8.3035 37.4884 7.87049 38.1184 7.77849L44.2783 6.8835C44.4653 6.8565 44.6263 6.73849 44.7103 6.56949L47.4643 0.988495C47.7463 0.416495 48.3174 0.0625 48.9544 0.0625C49.5914 0.0625 50.1623 0.417495 50.4443 0.988495L53.1993 6.56949C53.2823 6.73849 53.4444 6.8565 53.6314 6.8835L59.7913 7.77849C60.4223 7.87049 60.9364 8.3035 61.1324 8.9095C61.3294 9.5155 61.1683 10.1685 60.7123 10.6125L56.2553 14.9575C56.1203 15.0895 56.0584 15.2785 56.0904 15.4655L57.1424 21.5995C57.2254 22.0835 57.0933 22.5755 56.7793 22.9475C56.4593 23.3255 55.9954 23.5435 55.5044 23.5435Z" fill="white"/>
<path d="M49.9568 1.22481L52.7118 6.80582C52.8748 7.13582 53.1898 7.36481 53.5538 7.41681L59.7128 8.31182C60.6298 8.44482 60.9958 9.57181 60.3318 10.2178L55.8748 14.5618C55.6118 14.8188 55.4908 15.1888 55.5538 15.5508L56.6058 21.6858C56.7628 22.5988 55.8038 23.2948 54.9838 22.8638L49.4748 19.9678C49.1488 19.7968 48.7598 19.7968 48.4348 19.9678L42.9258 22.8638C42.1058 23.2948 41.1478 22.5988 41.3038 21.6858L42.3558 15.5508C42.4178 15.1878 42.2978 14.8188 42.0338 14.5618L37.5768 10.2178C36.9138 9.57081 37.2798 8.44482 38.1958 8.31182L44.3548 7.41681C44.7188 7.36381 45.0338 7.13582 45.1968 6.80582L47.9508 1.22481C48.3628 0.393813 49.5468 0.393813 49.9568 1.22481Z" fill="#FFE544"/>
<path d="M55.5559 15.5521C55.4939 15.1891 55.6139 14.8201 55.8769 14.5631L59.4529 11.0781C56.7359 12.3101 53.0369 13.0701 48.9569 13.0701C44.8769 13.0701 41.1779 12.3101 38.4609 11.0781L42.0369 14.5631C42.2999 14.8201 42.4209 15.1901 42.3579 15.5521L41.3059 21.6871C41.1489 22.6001 42.1079 23.2961 42.9279 22.8651L48.437 19.9691C48.763 19.7981 49.1519 19.7981 49.4769 19.9691L54.9859 22.8651C55.8059 23.2961 56.7639 22.6001 56.6079 21.6871L55.5559 15.5521Z" fill="#FFCC44"/>
<path d="M91.253 24.6304C90.984 24.6304 90.724 24.5654 90.48 24.4374L84.971 21.5414C84.889 21.4984 84.797 21.4754 84.704 21.4754C84.611 21.4754 84.519 21.4984 84.437 21.5414L78.928 24.4384C78.684 24.5664 78.424 24.6314 78.155 24.6314C77.665 24.6314 77.201 24.4134 76.881 24.0344C76.567 23.6624 76.435 23.1704 76.518 22.6864L77.57 16.5514C77.602 16.3654 77.54 16.1754 77.405 16.0434L72.948 11.6994C72.492 11.2544 72.331 10.6024 72.528 9.99644C72.725 9.39044 73.239 8.95745 73.869 8.86545L80.028 7.97044C80.215 7.94344 80.376 7.82545 80.46 7.65645L83.214 2.07544C83.496 1.50344 84.067 1.14844 84.704 1.14844C85.341 1.14844 85.912 1.50344 86.194 2.07544L88.949 7.65645C89.032 7.82545 89.194 7.94344 89.381 7.97044L95.54 8.86545C96.171 8.95745 96.685 9.39044 96.881 9.99644C97.078 10.6024 96.917 11.2554 96.461 11.6994L92.004 16.0434C91.869 16.1754 91.807 16.3644 91.839 16.5514L92.891 22.6864C92.974 23.1704 92.842 23.6624 92.528 24.0344C92.208 24.4124 91.744 24.6304 91.253 24.6304Z" fill="#92D9DC"/>
<path d="M91.253 23.5435C90.984 23.5435 90.724 23.4785 90.48 23.3505L84.971 20.4545C84.889 20.4115 84.797 20.3885 84.704 20.3885C84.611 20.3885 84.519 20.4115 84.437 20.4545L78.928 23.3515C78.684 23.4795 78.424 23.5445 78.155 23.5445C77.665 23.5445 77.201 23.3265 76.881 22.9475C76.567 22.5755 76.435 22.0835 76.518 21.5995L77.57 15.4655C77.602 15.2795 77.54 15.0895 77.405 14.9575L72.948 10.6125C72.492 10.1675 72.331 9.5155 72.528 8.9095C72.725 8.3035 73.239 7.87049 73.869 7.77849L80.028 6.8835C80.215 6.8565 80.376 6.73849 80.46 6.56949L83.214 0.988495C83.496 0.416495 84.067 0.0625 84.704 0.0625C85.341 0.0625 85.912 0.417495 86.194 0.988495L88.949 6.56949C89.032 6.73849 89.194 6.8565 89.381 6.8835L95.54 7.77849C96.171 7.87049 96.685 8.3035 96.881 8.9095C97.078 9.5155 96.917 10.1685 96.461 10.6125L92.004 14.9575C91.869 15.0895 91.807 15.2785 91.839 15.4655L92.891 21.5995C92.974 22.0835 92.842 22.5755 92.528 22.9475C92.208 23.3255 91.744 23.5435 91.253 23.5435Z" fill="white"/>
<path d="M85.7039 1.22481L88.4589 6.80582C88.6219 7.13582 88.9369 7.36481 89.2999 7.41681L95.4589 8.31182C96.3759 8.44482 96.7419 9.57181 96.0779 10.2178L91.6209 14.5618C91.3579 14.8188 91.2369 15.1888 91.2999 15.5508L92.3519 21.6858C92.5089 22.5988 91.5499 23.2948 90.7299 22.8638L85.2209 19.9678C84.8949 19.7968 84.5059 19.7968 84.1809 19.9678L78.6719 22.8638C77.8519 23.2948 76.8939 22.5988 77.0499 21.6858L78.1019 15.5508C78.1639 15.1878 78.0439 14.8188 77.7799 14.5618L73.3229 10.2178C72.6599 9.57081 73.0259 8.44482 73.9419 8.31182L80.1009 7.41681C80.4649 7.36381 80.7799 7.13582 80.9429 6.80582L83.6969 1.22481C84.1099 0.393813 85.2939 0.393813 85.7039 1.22481Z" fill="#FFE544"/>
<path d="M91.302 15.5521C91.24 15.1891 91.36 14.8201 91.623 14.5631L95.199 11.0781C92.482 12.3101 88.783 13.0701 84.703 13.0701C80.623 13.0701 76.924 12.3101 74.207 11.0781L77.783 14.5631C78.046 14.8201 78.167 15.1901 78.104 15.5521L77.052 21.6871C76.895 22.6001 77.854 23.2961 78.674 22.8651L84.183 19.9691C84.509 19.7981 84.898 19.7981 85.223 19.9691L90.732 22.8651C91.552 23.2961 92.51 22.6001 92.354 21.6871L91.302 15.5521Z" fill="#FFCC44"/>
<path d="M127.003 24.6304C126.734 24.6304 126.474 24.5654 126.23 24.4374L120.721 21.5414C120.639 21.4984 120.547 21.4754 120.454 21.4754C120.361 21.4754 120.269 21.4984 120.187 21.5414L114.678 24.4384C114.434 24.5664 114.174 24.6314 113.905 24.6314C113.415 24.6314 112.951 24.4134 112.631 24.0344C112.317 23.6624 112.185 23.1704 112.268 22.6864L113.32 16.5514C113.352 16.3654 113.29 16.1754 113.155 16.0434L108.698 11.6994C108.242 11.2544 108.081 10.6024 108.278 9.99644C108.475 9.39044 108.989 8.95745 109.619 8.86545L115.778 7.97044C115.965 7.94344 116.126 7.82545 116.21 7.65645L118.964 2.07544C119.246 1.50344 119.817 1.14844 120.454 1.14844C121.091 1.14844 121.662 1.50344 121.944 2.07544L124.699 7.65645C124.782 7.82545 124.944 7.94344 125.131 7.97044L131.29 8.86545C131.921 8.95745 132.435 9.39044 132.631 9.99644C132.828 10.6024 132.667 11.2554 132.211 11.6994L127.754 16.0434C127.619 16.1754 127.557 16.3644 127.589 16.5514L128.641 22.6864C128.724 23.1704 128.592 23.6624 128.278 24.0344C127.958 24.4124 127.494 24.6304 127.003 24.6304Z" fill="#92D9DC"/>
<path d="M127.003 23.5435C126.734 23.5435 126.474 23.4785 126.23 23.3505L120.721 20.4545C120.639 20.4115 120.547 20.3885 120.454 20.3885C120.361 20.3885 120.269 20.4115 120.187 20.4545L114.678 23.3515C114.434 23.4795 114.174 23.5445 113.905 23.5445C113.415 23.5445 112.951 23.3265 112.631 22.9475C112.317 22.5755 112.185 22.0835 112.268 21.5995L113.32 15.4655C113.352 15.2795 113.29 15.0895 113.155 14.9575L108.698 10.6125C108.242 10.1675 108.081 9.5155 108.278 8.9095C108.475 8.3035 108.989 7.87049 109.619 7.77849L115.778 6.8835C115.965 6.8565 116.126 6.73849 116.21 6.56949L118.964 0.988495C119.246 0.416495 119.817 0.0625 120.454 0.0625C121.091 0.0625 121.662 0.417495 121.944 0.988495L124.699 6.56949C124.782 6.73849 124.944 6.8565 125.131 6.8835L131.29 7.77849C131.921 7.87049 132.435 8.3035 132.631 8.9095C132.828 9.5155 132.667 10.1685 132.211 10.6125L127.754 14.9575C127.619 15.0895 127.557 15.2785 127.589 15.4655L128.641 21.5995C128.724 22.0835 128.592 22.5755 128.278 22.9475C127.958 23.3255 127.494 23.5435 127.003 23.5435Z" fill="white"/>
<path d="M121.454 1.22481L124.209 6.80582C124.372 7.13582 124.687 7.36481 125.05 7.41681L131.209 8.31182C132.126 8.44482 132.492 9.57181 131.828 10.2178L127.371 14.5618C127.108 14.8188 126.987 15.1888 127.05 15.5508L128.102 21.6858C128.259 22.5988 127.3 23.2948 126.48 22.8638L120.971 19.9678C120.645 19.7968 120.256 19.7968 119.931 19.9678L114.422 22.8638C113.602 23.2948 112.644 22.5988 112.8 21.6858L113.852 15.5508C113.914 15.1878 113.794 14.8188 113.53 14.5618L109.073 10.2178C108.41 9.57081 108.776 8.44482 109.692 8.31182L115.851 7.41681C116.215 7.36381 116.53 7.13582 116.693 6.80582L119.447 1.22481C119.86 0.393813 121.044 0.393813 121.454 1.22481Z" fill="#FFE544"/>
<path d="M127.052 15.5521C126.99 15.1891 127.11 14.8201 127.373 14.5631L130.949 11.0781C128.232 12.3101 124.533 13.0701 120.453 13.0701C116.373 13.0701 112.674 12.3101 109.957 11.0781L113.533 14.5631C113.796 14.8201 113.917 15.1901 113.854 15.5521L112.802 21.6871C112.645 22.6001 113.604 23.2961 114.424 22.8651L119.933 19.9691C120.259 19.7981 120.648 19.7981 120.973 19.9691L126.482 22.8651C127.302 23.2961 128.26 22.6001 128.104 21.6871L127.052 15.5521Z" fill="#FFCC44"/>
<path d="M162.753 24.6304C162.484 24.6304 162.224 24.5654 161.98 24.4374L156.471 21.5414C156.389 21.4984 156.297 21.4754 156.204 21.4754C156.111 21.4754 156.019 21.4984 155.937 21.5414L150.428 24.4384C150.184 24.5664 149.924 24.6314 149.655 24.6314C149.165 24.6314 148.701 24.4134 148.381 24.0344C148.067 23.6624 147.935 23.1704 148.018 22.6864L149.07 16.5514C149.102 16.3654 149.04 16.1754 148.905 16.0434L144.448 11.6994C143.992 11.2544 143.831 10.6024 144.027 9.99644C144.224 9.39044 144.738 8.95745 145.368 8.86545L151.528 7.97044C151.715 7.94344 151.876 7.82545 151.96 7.65645L154.714 2.07544C154.996 1.50344 155.567 1.14844 156.204 1.14844C156.841 1.14844 157.412 1.50344 157.694 2.07544L160.449 7.65645C160.532 7.82545 160.694 7.94344 160.881 7.97044L167.04 8.86545C167.671 8.95745 168.185 9.39044 168.381 9.99644C168.578 10.6024 168.417 11.2554 167.961 11.6994L163.504 16.0434C163.369 16.1754 163.307 16.3644 163.339 16.5514L164.391 22.6864C164.474 23.1704 164.342 23.6624 164.028 24.0344C163.708 24.4124 163.244 24.6304 162.753 24.6304Z" fill="#92D9DC"/>
<path d="M162.753 23.5435C162.484 23.5435 162.224 23.4785 161.98 23.3505L156.471 20.4545C156.389 20.4115 156.297 20.3885 156.204 20.3885C156.111 20.3885 156.019 20.4115 155.937 20.4545L150.428 23.3515C150.184 23.4795 149.924 23.5445 149.655 23.5445C149.165 23.5445 148.701 23.3265 148.381 22.9475C148.067 22.5755 147.935 22.0835 148.018 21.5995L149.07 15.4655C149.102 15.2795 149.04 15.0895 148.905 14.9575L144.448 10.6125C143.992 10.1675 143.831 9.5155 144.027 8.9095C144.224 8.3035 144.738 7.87049 145.368 7.77849L151.528 6.8835C151.715 6.8565 151.876 6.73849 151.96 6.56949L154.714 0.988495C154.996 0.416495 155.567 0.0625 156.204 0.0625C156.841 0.0625 157.412 0.417495 157.694 0.988495L160.449 6.56949C160.532 6.73849 160.694 6.8565 160.881 6.8835L167.04 7.77849C167.671 7.87049 168.185 8.3035 168.381 8.9095C168.578 9.5155 168.417 10.1685 167.961 10.6125L163.504 14.9575C163.369 15.0895 163.307 15.2785 163.339 15.4655L164.391 21.5995C164.474 22.0835 164.342 22.5755 164.028 22.9475C163.708 23.3255 163.244 23.5435 162.753 23.5435Z" fill="white"/>
<path d="M157.204 1.22481L159.959 6.80582C160.122 7.13582 160.437 7.36481 160.8 7.41681L166.959 8.31182C167.876 8.44482 168.242 9.57181 167.578 10.2178L163.121 14.5618C162.858 14.8188 162.737 15.1888 162.8 15.5508L163.852 21.6858C164.009 22.5988 163.05 23.2948 162.23 22.8638L156.721 19.9678C156.395 19.7968 156.006 19.7968 155.681 19.9678L150.172 22.8638C149.352 23.2948 148.394 22.5988 148.55 21.6858L149.602 15.5508C149.664 15.1878 149.544 14.8188 149.28 14.5618L144.823 10.2178C144.16 9.57081 144.526 8.44482 145.442 8.31182L151.601 7.41681C151.965 7.36381 152.28 7.13582 152.443 6.80582L155.197 1.22481C155.61 0.393813 156.794 0.393813 157.204 1.22481Z" fill="#00C0B5"/>
<path opacity="0.4" d="M162.806 15.5521C162.744 15.1891 162.864 14.8201 163.127 14.5631L166.703 11.0781C163.986 12.3101 160.287 13.0701 156.207 13.0701C152.127 13.0701 148.428 12.3101 145.711 11.0781L149.287 14.5631C149.55 14.8201 149.671 15.1901 149.608 15.5521L148.556 21.6871C148.399 22.6001 149.358 23.2961 150.178 22.8651L155.687 19.9691C156.013 19.7981 156.402 19.7981 156.727 19.9691L162.236 22.8651C163.056 23.2961 164.014 22.6001 163.858 21.6871L162.806 15.5521Z" fill="#00C0B5"/>
</svg>
