<svg width="24" height="25" viewBox="0 0 24 25" fill="none" xmlns="http://www.w3.org/2000/svg">
<path d="M12.0009 5.5C13.4331 5.5 14.8066 6.00571 15.8193 6.90589C16.832 7.80606 17.4009 9.02696 17.4009 10.3C17.4009 12.2691 17.846 13.7436 18.4232 14.8279C19.1606 16.2133 19.5293 16.906 19.5088 17.0642C19.4849 17.2489 19.4544 17.2997 19.3026 17.4075C19.1725 17.5 18.5254 17.5 17.2311 17.5H6.77066C5.47638 17.5 4.82925 17.5 4.69916 17.4075C4.54741 17.2997 4.51692 17.2489 4.493 17.0642C4.47249 16.906 4.8412 16.2133 5.57863 14.8279C6.1558 13.7436 6.60089 12.2691 6.60089 10.3C6.60089 9.02696 7.16982 7.80606 8.18251 6.90589C9.19521 6.00571 10.5687 5.5 12.0009 5.5ZM12.0009 5.5V3.5M9.35489 20.5C10.0611 21.1233 10.9888 21.5016 12.0049 21.5016C13.0209 21.5016 13.9486 21.1233 14.6549 20.5" stroke="#6A6D76" stroke-width="2" stroke-linecap="round" stroke-linejoin="round"/>
</svg>
