<svg width="24" height="25" viewBox="0 0 24 25" fill="none" xmlns="http://www.w3.org/2000/svg">
<g clip-path="url(#clip0_35799_1309)">
<path fill-rule="evenodd" clip-rule="evenodd" d="M20.423 21.0488C18.1583 23.2809 15.1002 24.5228 11.9205 24.5017C8.74079 24.4805 5.69952 23.1979 3.46484 20.9358C3.75063 20.1454 4.30571 19.481 5.03262 19.0592C5.52253 18.697 6.05377 18.3943 6.61514 18.1575C5.76155 15.2243 8.08195 13.7823 8.96972 13.3672C8.96972 14.7214 10.2377 13.8227 11.8113 13.8398C13.1068 13.8542 15.6688 15.1583 15.6688 13.4379C17.094 13.8596 18.6474 16.5757 17.5783 18.2445C18.0166 18.4588 18.4308 18.7195 18.8136 19.022C19.5621 19.4982 20.1289 20.2118 20.423 21.0488Z" fill="#00C0B5"/>
<path fill-rule="evenodd" clip-rule="evenodd" d="M9.33358 15.5234L15.1278 15.5584V16.8932L15.1251 16.9137C15.121 16.9742 15.1119 17.0342 15.0979 17.0932L15.0785 17.2256L15.0668 17.2532C14.6917 19.2236 13.0501 19.9852 12.0365 20.5157C10.9685 19.9339 9.45863 18.8858 9.33863 17.0314L9.33358 17.0085V16.9308C9.33275 16.904 9.33224 16.8772 9.33203 16.8504C9.33203 16.8644 9.3332 16.8776 9.33358 16.8916V15.5234Z" fill="#F9DCA4"/>
<path opacity="0.11" fill-rule="evenodd" clip-rule="evenodd" d="M15.1286 15.4922V17.0475C15.1275 17.1917 15.1152 17.3356 15.0917 17.4778C15.0623 17.6539 15.0128 17.826 14.9442 17.9908C12.9309 19.5112 9.72317 18.2642 9.21094 15.6673L15.1286 15.4922Z" fill="black"/>
<path fill-rule="evenodd" clip-rule="evenodd" d="M7.03091 10.2969C5.11246 10.7901 6.74353 13.128 7.95014 13.1179C7.46355 12.2461 7.15133 11.2879 7.03091 10.2969Z" fill="#F9DCA4"/>
<path fill-rule="evenodd" clip-rule="evenodd" d="M17.0251 10.2969C18.9435 10.7901 17.3125 13.128 16.1055 13.1175C16.5922 12.2459 16.9045 11.2879 17.0251 10.2969Z" fill="#F9DCA4"/>
<path fill-rule="evenodd" clip-rule="evenodd" d="M11.9344 4.91406C19.9046 4.91406 16.7985 17.5145 11.9344 17.5145C7.34025 17.5145 3.96431 4.91406 11.9344 4.91406Z" fill="#FFE8BE"/>
<path fill-rule="evenodd" clip-rule="evenodd" d="M8.17287 9.08334C8.24086 9.15787 8.29128 9.24669 8.32043 9.34328C8.34957 9.43986 8.35669 9.54175 8.34127 9.64145C8.32584 9.74115 8.28826 9.83612 8.2313 9.91938C8.17433 10.0026 8.09943 10.0721 8.01209 10.1226C7.44898 10.5859 7.4284 12.2014 7.4284 12.2014C7.21092 11.9855 7.21597 10.829 6.74451 10.1606C6.27305 9.49228 5.95538 4.81576 8.5919 3.11517C8.42988 3.30573 8.31312 3.53051 8.25037 3.77264C8.18761 4.01477 8.1805 4.26796 8.22957 4.51323C8.22957 4.51323 10.061 1.88682 13.0995 1.96254C12.8586 2.09389 12.6481 2.27452 12.4817 2.49265C12.3153 2.71079 12.1967 2.96154 12.1337 3.22857C12.1337 3.22857 14.79 2.13264 17.0036 3.43634C16.4281 3.5954 15.8837 3.85108 15.3939 4.19245C16.4688 4.22197 17.5077 4.42158 18.291 5.11828C18.1224 5.1724 17.9664 5.25976 17.8321 5.3752C17.6979 5.49063 17.5881 5.6318 17.5093 5.79036C17.4305 5.94893 17.3844 6.12167 17.3735 6.29839C17.3626 6.47511 17.3872 6.65222 17.4459 6.81926C17.7783 8.17965 17.8094 9.44529 17.4875 10.1257C17.1655 10.8061 17.0137 10.3668 16.8121 11.7936C16.8022 11.89 16.7701 11.9828 16.7182 12.0646C16.6663 12.1464 16.5961 12.2151 16.5131 12.2651C16.5053 12.3684 16.6614 10.8065 16.2587 10.3905C15.8564 9.975 16.1092 9.46432 16.27 9.16218C17.3923 7.0546 14.0311 6.09964 12.1938 6.10197C10.6004 6.10392 6.75694 6.82819 8.17287 9.08334Z" fill="#8A5C42"/>
<path fill-rule="evenodd" clip-rule="evenodd" d="M7.6875 19.5933C7.69915 19.6081 11.7333 24.8294 16.4759 19.5156C15.9031 21.0892 13.4324 22.3389 12.0192 22.3351C9.32013 22.3273 7.82653 20.1603 7.6875 19.5933Z" fill="#434955"/>
<path fill-rule="evenodd" clip-rule="evenodd" d="M14.1104 24.316C13.9512 24.344 13.7912 24.3684 13.63 24.3906V20.9199C13.6359 20.8618 13.6643 20.8082 13.7092 20.7708C13.754 20.7333 13.8118 20.7149 13.87 20.7195C13.9283 20.7148 13.9861 20.7332 14.0311 20.7707C14.076 20.8081 14.1045 20.8617 14.1104 20.9199V24.316ZM10.2968 24.3805C10.1358 24.3574 9.97563 24.3315 9.81641 24.3028V20.9199C9.82231 20.8618 9.85073 20.8082 9.89558 20.7708C9.94043 20.7333 9.99816 20.7149 10.0564 20.7195C10.1148 20.7147 10.1727 20.733 10.2177 20.7705C10.2627 20.808 10.2913 20.8616 10.2972 20.9199L10.2968 24.3805Z" fill="#E6E6E6"/>
</g>
<defs>
<clipPath id="clip0_35799_1309">
<rect width="24" height="24" fill="white" transform="translate(0 0.5)"/>
</clipPath>
</defs>
</svg>
