<svg width="24" height="26" viewBox="0 0 24 26" fill="none" xmlns="http://www.w3.org/2000/svg">
<mask id="path-1-inside-1_35799_1594" fill="white">
<path d="M0 6.12031C0 4.57392 1.2536 3.32031 2.8 3.32031H21.2C22.7464 3.32031 24 4.57392 24 6.12031V22.6985C24 24.2449 22.7464 25.4985 21.2 25.4985H2.8C1.2536 25.4985 0 24.2449 0 22.6985V6.12031Z"/>
</mask>
<path d="M0 6.12031C0 4.57392 1.2536 3.32031 2.8 3.32031H21.2C22.7464 3.32031 24 4.57392 24 6.12031V22.6985C24 24.2449 22.7464 25.4985 21.2 25.4985H2.8C1.2536 25.4985 0 24.2449 0 22.6985V6.12031Z" fill="#E7EEF4"/>
<path d="M0 6.12031C0 0.155637 4.83532 -4.67969 10.8 -4.67969H13.2C19.1647 -4.67969 24 0.155637 24 6.12031V11.3203C24 11.3203 22.7464 11.3203 21.2 11.3203H2.8C1.2536 11.3203 0 11.3203 0 11.3203V6.12031ZM24 25.4985H0H24ZM0 25.4985V3.32031V25.4985ZM24 3.32031V25.4985V3.32031Z" fill="#ED4952" mask="url(#path-1-inside-1_35799_1594)"/>
<path d="M8 5.5V1.5" stroke="#636C75" stroke-width="1.8" stroke-linecap="round"/>
<path d="M16 5.5V1.5" stroke="#636C75" stroke-width="1.8" stroke-linecap="round"/>
</svg>
