<svg width="25" height="25" viewBox="0 0 25 25" fill="none" xmlns="http://www.w3.org/2000/svg">
<path d="M21.5 23.4661C21.5 23.8801 21.164 24.2161 20.75 24.2161H14.75V18.5911C14.75 18.3837 14.5824 18.2161 14.375 18.2161H10.625C10.4176 18.2161 10.25 18.3837 10.25 18.5911V24.2161H4.25C3.836 24.2161 3.5 23.8801 3.5 23.4661V12.7452L12.5034 3.74219L21.5 12.7388V23.4661Z" fill="#F9EBB2"/>
<path d="M5.75 3.21875H7.25V5.69413L5.75 7.19113V3.21875Z" fill="#F76D57"/>
<path d="M14 18.9688H11V24.2188H14V18.9688Z" fill="#F9EBB2"/>
<path d="M23.375 13.3438C23.2715 13.3438 23.1493 13.3303 23.0817 13.2624L12.7685 2.94913C12.6954 2.876 12.5994 2.83925 12.5034 2.83925C12.4074 2.83925 12.3114 2.876 12.2382 2.94913L1.92162 13.2661C1.85375 13.334 1.7285 13.3438 1.625 13.3438C1.41763 13.3438 1.25 13.1761 1.25 12.9688C1.25 12.8652 1.256 12.7355 1.32388 12.6676L12.1381 1.8725C12.1381 1.8725 12.278 1.71875 12.5034 1.71875C12.7287 1.71875 12.8716 1.868 12.8716 1.868L23.6739 12.6699C23.7418 12.7378 23.75 12.8652 23.75 12.9688C23.75 13.1757 23.5824 13.3438 23.375 13.3438Z" fill="#F76D57"/>
<path d="M24.2041 12.1396L13.4142 1.34938C13.4142 1.34938 13.0629 0.96875 12.503 0.96875C11.9431 0.96875 11.612 1.34038 11.612 1.34038L8 4.94525V2.84375C8 2.63637 7.83238 2.46875 7.625 2.46875H5.375C5.16762 2.46875 5 2.63637 5 2.84375V7.93963L0.793625 12.1374C0.59 12.341 0.5 12.6582 0.5 12.9688C0.5 13.5898 1.00363 14.0938 1.625 14.0938C1.9355 14.0938 2.24825 13.9996 2.45187 13.796L2.75 13.4979V23.4688C2.75 24.2979 3.42088 24.9688 4.25 24.9688H20.75C21.5791 24.9688 22.25 24.2979 22.25 23.4688V13.4915L22.5515 13.793C22.7551 13.9959 23.0645 14.0938 23.375 14.0938C23.9964 14.0938 24.5 13.5901 24.5 12.9688C24.5 12.6579 24.4077 12.3433 24.2041 12.1396ZM5.75 3.21875H7.25V5.69413L5.75 7.19112V3.21875ZM14 24.2188H11V18.9688H14V24.2188ZM21.5 23.4688C21.5 23.8827 21.164 24.2188 20.75 24.2188H14.75V18.5938C14.75 18.3864 14.5824 18.2188 14.375 18.2188H10.625C10.4176 18.2188 10.25 18.3864 10.25 18.5938V24.2188H4.25C3.836 24.2188 3.5 23.8827 3.5 23.4688V12.7479L12.5034 3.74487L21.5 12.7415V23.4688ZM23.375 13.3438C23.2715 13.3438 23.1493 13.3303 23.0817 13.2624L12.7685 2.94913C12.6954 2.876 12.5994 2.83925 12.5034 2.83925C12.4074 2.83925 12.3114 2.876 12.2382 2.94913L1.92162 13.2661C1.85375 13.334 1.7285 13.3438 1.625 13.3438C1.41763 13.3438 1.25 13.1761 1.25 12.9688C1.25 12.8652 1.256 12.7355 1.32388 12.6676L12.1381 1.8725C12.1381 1.8725 12.278 1.71875 12.5034 1.71875C12.7287 1.71875 12.8716 1.868 12.8716 1.868L23.6739 12.6699C23.7418 12.7378 23.75 12.8652 23.75 12.9688C23.75 13.1757 23.5824 13.3438 23.375 13.3438Z" fill="#394240"/>
<path d="M9.125 12.9688H6.125C5.91763 12.9688 5.75 13.1364 5.75 13.3438V16.3438C5.75 16.5511 5.91763 16.7188 6.125 16.7188H9.125C9.33238 16.7188 9.5 16.5511 9.5 16.3438V13.3438C9.5 13.1364 9.33238 12.9688 9.125 12.9688ZM8.75 15.9688H6.5V13.7188H8.75V15.9688Z" fill="#394240"/>
<path d="M15.875 16.7188H18.875C19.0824 16.7188 19.25 16.5511 19.25 16.3438V13.3438C19.25 13.1364 19.0824 12.9688 18.875 12.9688H15.875C15.6676 12.9688 15.5 13.1364 15.5 13.3438V16.3438C15.5 16.5511 15.6676 16.7188 15.875 16.7188ZM16.25 13.7188H18.5V15.9688H16.25V13.7188Z" fill="#394240"/>
<path d="M14 18.9688H11V24.2188H14V18.9688Z" fill="#506C7F"/>
<path d="M8.75 13.7188H6.5V15.9688H8.75V13.7188Z" fill="#45AAB8"/>
<path d="M18.5 13.7188H16.25V15.9688H18.5V13.7188Z" fill="#45AAB8"/>
</svg>
