<svg width="38" height="39" viewBox="0 0 38 39" fill="none" xmlns="http://www.w3.org/2000/svg">
<path d="M36.2928 17.0829C35.166 18.4941 35.166 20.5067 36.2928 21.9178C38.0219 24.0837 36.9773 27.3282 34.3166 28.0549C32.5828 28.5285 31.4105 30.1566 31.4998 31.9665C31.637 34.7443 28.9015 36.7495 26.3255 35.7595C24.6471 35.1144 22.7501 35.7363 21.7681 37.2535V37.2536C20.2608 39.5821 16.8796 39.5821 15.3723 37.2536V37.2535C14.3903 35.7364 12.4932 35.1144 10.8149 35.7595H10.8147C8.23877 36.7495 5.50337 34.7443 5.64053 31.9665C5.72988 30.1567 4.55746 28.5285 2.82389 28.0551H2.82387C0.163093 27.3283 -0.881779 24.0837 0.847464 21.9178H0.847493C1.97415 20.5067 1.97412 18.4941 0.847493 17.0829H0.847464C-0.881779 14.917 0.163064 11.6727 2.82387 10.9458C4.55746 10.4724 5.72988 8.84422 5.64053 7.03436C5.50337 4.25652 8.23877 2.25119 10.8147 3.24142C12.4931 3.88636 14.3901 3.26454 15.3723 1.7473C16.8795 -0.581371 20.2608 -0.581371 21.7681 1.7473C22.7501 3.26454 24.6471 3.88636 26.3255 3.24142C28.9015 2.25119 31.637 4.25652 31.4998 7.03436C31.4105 8.84393 32.5828 10.4724 34.3166 10.9458C36.9773 11.6727 38.0219 14.917 36.2928 17.0829Z" fill="#0097FF"/>
<path d="M10.8555 19.9959L15.6756 24.8594L26.2833 14.1567" stroke="white" stroke-width="4" stroke-miterlimit="10"/>
</svg>
