<svg width="24" height="24" viewBox="0 0 24 24" fill="none" xmlns="http://www.w3.org/2000/svg">
<rect x="1.5" y="1.5" width="21" height="21" fill="#1271CD"/>
<path d="M6.39453 12.4216L9.75347 4.91406H12.9537L14.091 7.46031V4.91406H18.0847L18.7459 6.88281L19.4336 4.91406H22.5016V5.80661H20.0684L18.7724 9.37661L17.4236 5.80661H14.9374V11.5554L12.3984 5.80661H10.309L7.74347 11.5554H9.51551L9.96513 10.4266H12.6629L13.1389 11.5554H14.9374H16.5243V7.56536L18.0054 11.5554H19.4336L20.9676 7.56536V11.5554H22.5016V12.4216H20.4387L18.7195 14.2591L17.0268 12.4216H14.9639H9.99158V18.1966H14.9639H17.0268L18.7195 16.3591L20.4387 18.1966H22.5016V19.0628H20.0154L18.7459 17.6453L17.397 19.0628H9.06582V12.4216H6.39453Z" fill="white"/>
<path d="M22.5016 18.1966V17.0141L20.9411 15.3353L22.5016 13.7005V12.4216L19.751 15.3354L22.5016 18.1966Z" fill="white"/>
<path d="M14.9639 18.1966V16.9104H11.552V15.9916H14.8581V14.7054H11.552V13.7866H14.9639V12.4216L17.7145 15.3354L14.9639 18.1966Z" fill="white"/>
<path d="M11.3404 7.22411L10.5205 9.14036H12.1339L11.3404 7.22411Z" fill="white"/>
</svg>
