<svg width="69" height="69" viewBox="0 0 69 69" fill="none" xmlns="http://www.w3.org/2000/svg">
<path d="M26.9357 39.1893C26.3499 38.6036 25.4001 38.6036 24.8143 39.1893C24.2286 39.7751 24.2286 40.7249 24.8143 41.3107L26.9357 39.1893ZM31.625 46L30.5643 47.0607C31.1501 47.6464 32.0999 47.6464 32.6857 47.0607L31.625 46ZM44.1857 35.5607C44.7714 34.9749 44.7714 34.0251 44.1857 33.4393C43.5999 32.8536 42.6501 32.8536 42.0643 33.4393L44.1857 35.5607ZM53.125 20.125V54.625H56.125V20.125H53.125ZM48.875 58.875H20.125V61.875H48.875V58.875ZM15.875 54.625V20.125H12.875V54.625H15.875ZM20.125 15.875H25.875V12.875H20.125V15.875ZM43.125 15.875H48.875V12.875H43.125V15.875ZM20.125 58.875C17.7778 58.875 15.875 56.9722 15.875 54.625H12.875C12.875 58.6291 16.1209 61.875 20.125 61.875V58.875ZM53.125 54.625C53.125 56.9722 51.2222 58.875 48.875 58.875V61.875C52.8791 61.875 56.125 58.6291 56.125 54.625H53.125ZM56.125 20.125C56.125 16.1209 52.8791 12.875 48.875 12.875V15.875C51.2222 15.875 53.125 17.7778 53.125 20.125H56.125ZM15.875 20.125C15.875 17.7778 17.7778 15.875 20.125 15.875V12.875C16.1209 12.875 12.875 16.1209 12.875 20.125H15.875ZM24.8143 41.3107L30.5643 47.0607L32.6857 44.9393L26.9357 39.1893L24.8143 41.3107ZM32.6857 47.0607L44.1857 35.5607L42.0643 33.4393L30.5643 44.9393L32.6857 47.0607ZM31.625 10.125H37.375V7.125H31.625V10.125ZM37.375 18.625H31.625V21.625H37.375V18.625ZM31.625 18.625C29.2778 18.625 27.375 16.7222 27.375 14.375H24.375C24.375 18.3791 27.6209 21.625 31.625 21.625V18.625ZM41.625 14.375C41.625 16.7222 39.7222 18.625 37.375 18.625V21.625C41.3791 21.625 44.625 18.3791 44.625 14.375H41.625ZM37.375 10.125C39.7222 10.125 41.625 12.0278 41.625 14.375H44.625C44.625 10.3709 41.3791 7.125 37.375 7.125V10.125ZM31.625 7.125C27.6209 7.125 24.375 10.3709 24.375 14.375H27.375C27.375 12.0278 29.2778 10.125 31.625 10.125V7.125Z" fill="#00C0B5"/>
</svg>
