<svg width="51" height="51" viewBox="0 0 51 51" fill="none" xmlns="http://www.w3.org/2000/svg">
<mask id="mask0_34264_6075" style="mask-type:luminance" maskUnits="userSpaceOnUse" x="0" y="0" width="51" height="51">
<path d="M25.3119 50.4832C39.0368 50.4832 50.1629 39.3571 50.1629 25.6322C50.1629 11.9074 39.0368 0.78125 25.3119 0.78125C11.5871 0.78125 0.460938 11.9074 0.460938 25.6322C0.460938 39.3571 11.5871 50.4832 25.3119 50.4832Z" fill="white"/>
</mask>
<g mask="url(#mask0_34264_6075)">
<path d="M25.3151 40.4134C32.0734 40.4134 37.5521 37.8637 37.5521 34.7184C37.5521 31.5732 32.0734 29.0234 25.3151 29.0234C18.5568 29.0234 13.0781 31.5732 13.0781 34.7184C13.0781 37.8637 18.5568 40.4134 25.3151 40.4134Z" fill="#AA313D"/>
<path opacity="0.2" d="M35.4662 35.4026C35.4662 38.1706 30.9202 40.4146 25.3132 40.4146C19.7062 40.4146 15.1602 38.1706 15.1602 35.4026C15.1602 32.6346 19.7062 30.3906 25.3132 30.3906C30.9212 30.3906 35.4662 32.6346 35.4662 35.4026Z" fill="#AA313D"/>
<path d="M29.3047 33.1796V29.7266H21.3257V33.1796C21.3257 34.5976 20.0037 35.7466 18.3727 35.7466L15.2617 45.7116H35.3697L32.2587 35.7466C30.6267 35.7476 29.3047 34.5976 29.3047 33.1796Z" fill="#FFECC2"/>
<path d="M25.3124 34.8176C26.9594 34.8176 28.4204 34.3496 29.3494 33.6276C29.3204 33.4816 29.3014 33.3326 29.3014 33.1796V29.9156C29.2144 29.8496 29.1214 29.7876 29.0254 29.7266H21.5974C21.5014 29.7876 21.4094 29.8506 21.3214 29.9156V33.1796C21.3214 33.3326 21.3034 33.4816 21.2734 33.6276C22.2054 34.3496 23.6654 34.8176 25.3124 34.8176Z" fill="#FFEDD2"/>
<path d="M15.1134 22.0566C15.4634 23.3446 14.9714 24.5986 14.0154 24.8576C13.0594 25.1166 12.0014 24.2836 11.6514 22.9966C11.3024 21.7086 11.7934 20.4546 12.7494 20.1956C13.7054 19.9366 14.7644 20.7696 15.1134 22.0566Z" fill="#FFECC2"/>
<path d="M35.519 22.0566C35.169 23.3446 35.661 24.5986 36.617 24.8576C37.573 25.1166 38.631 24.2836 38.981 22.9966C39.331 21.7086 38.839 20.4546 37.883 20.1956C36.927 19.9366 35.868 20.7696 35.519 22.0566Z" fill="#FFECC2"/>
<path d="M15.5498 22.2004C15.8848 23.1004 15.4138 23.9764 14.4988 24.1574C13.5838 24.3384 12.5708 23.7565 12.2368 22.8575C11.9018 21.9575 12.3728 21.0815 13.2878 20.9005C14.2018 20.7185 15.2148 21.3014 15.5498 22.2004Z" fill="#FFEDD2"/>
<path d="M35.0763 22.2002C34.7423 23.1002 35.2123 23.9762 36.1273 24.1572C37.0423 24.3382 38.0553 23.7562 38.3893 22.8572C38.7243 21.9572 38.2533 21.0812 37.3383 20.9002C36.4233 20.7192 35.4113 21.3012 35.0763 22.2002Z" fill="#FFEDD2"/>
<path d="M25.3151 32.8187C32.0734 32.8187 37.5521 26.3796 37.5521 18.4367C37.5521 10.4937 32.0734 4.05469 25.3151 4.05469C18.5568 4.05469 13.0781 10.4937 13.0781 18.4367C13.0781 26.3796 18.5568 32.8187 25.3151 32.8187Z" fill="#FFECC2"/>
<path d="M18.2645 11.5318C23.9155 14.4988 35.8065 10.9687 37.5645 20.1537C41.4305 13.3207 40.0995 7.27075 33.1845 3.11175C22.6215 -3.24125 18.3235 1.39774 15.9735 5.46774C9.91847 4.78474 9.70246 15.8507 13.1315 20.1537C14.8615 20.1527 14.6005 15.3708 18.2645 11.5318Z" fill="#F5C871"/>
<path d="M28.1042 26.8669C28.1042 27.2809 26.8842 28.3268 25.3802 28.3268C23.8752 28.3268 22.6562 27.2809 22.6562 26.8669C22.6562 26.4529 23.8762 26.8268 25.3802 26.8268C26.8852 26.8268 28.1042 26.4529 28.1042 26.8669Z" fill="#0D0D0D"/>
<path d="M17.0704 21.1208C16.9374 21.1208 16.8034 21.0698 16.7014 20.9688C16.4964 20.7648 16.4954 20.4338 16.6984 20.2278C16.7594 20.1658 18.2414 18.7138 21.5604 19.0398C21.8484 19.0678 22.0584 19.3238 22.0304 19.6118C22.0024 19.8998 21.7504 20.1118 21.4584 20.0818C18.6724 19.8058 17.4524 20.9538 17.4414 20.9658C17.3394 21.0688 17.2044 21.1208 17.0704 21.1208Z" fill="#B5663A"/>
<path d="M20.9846 22.3204C20.9846 22.8984 20.5156 23.3674 19.9376 23.3674C19.3596 23.3674 18.8906 22.8984 18.8906 22.3204C18.8906 21.7424 19.3596 21.2734 19.9376 21.2734C20.5156 21.2734 20.9846 21.7414 20.9846 22.3204Z" fill="#B5663A"/>
<path d="M33.5494 21.1208C33.6824 21.1208 33.8164 21.0698 33.9184 20.9688C34.1244 20.7648 34.1254 20.4338 33.9214 20.2278C33.8604 20.1658 32.3774 18.7138 29.0584 19.0398C28.7704 19.0678 28.5604 19.3238 28.5884 19.6118C28.6164 19.8998 28.8684 20.1118 29.1604 20.0818C31.9464 19.8058 33.1664 20.9538 33.1774 20.9658C33.2794 21.0688 33.4144 21.1208 33.5494 21.1208Z" fill="#B5663A"/>
<path d="M29.6328 22.3204C29.6328 22.8984 30.1018 23.3674 30.6798 23.3674C31.2578 23.3674 31.7268 22.8984 31.7268 22.3204C31.7268 21.7424 31.2578 21.2734 30.6798 21.2734C30.1008 21.2724 29.6328 21.7414 29.6328 22.3204Z" fill="#B5663A"/>
<path d="M39.0599 35.5703H31.5109C31.7159 37.1853 29.5249 39.7153 25.3139 39.7153C21.1029 39.7153 18.9119 37.1853 19.1169 35.5703H11.5679C10.4599 35.5703 9.50891 36.3603 9.30591 37.4493L6.87891 50.4833H43.7499L41.3229 37.4493C41.1189 36.3603 40.1679 35.5703 39.0599 35.5703Z" fill="#AA313D"/>
<path opacity="0.2" d="M25.6085 40.4141H25.0195V50.4801H25.6085V40.4141Z" fill="#AA313D"/>
<path opacity="0.2" d="M15.1797 35.5703C15.3587 38.2613 19.8217 40.4163 25.3157 40.4163C30.8097 40.4163 35.2727 38.2603 35.4517 35.5703H31.5127C31.7177 37.1843 29.5267 39.7153 25.3157 39.7153C21.1047 39.7153 18.9137 37.1853 19.1187 35.5703H15.1797Z" fill="#AA313D"/>
<path opacity="0.2" d="M13.7812 36.7188C13.7812 36.7188 15.8752 41.6917 25.0173 41.5617C25.0173 41.5617 15.6463 44.4408 13.7812 36.7188Z" fill="#AA313D"/>
<path opacity="0.2" d="M36.8454 36.7188C36.8454 36.7188 34.7514 41.6917 25.6094 41.5617C25.6094 41.5617 34.9804 44.4408 36.8454 36.7188Z" fill="#AA313D"/>
</g>
</svg>
