<svg width="36" height="37" viewBox="0 0 36 37" fill="none" xmlns="http://www.w3.org/2000/svg">
<rect y="0.5" width="36" height="36" rx="4.90909" fill="#EA6A6A"/>
<path d="M14.5 17.5C15.3284 17.5 16 16.8284 16 16C16 15.1716 15.3284 14.5 14.5 14.5C13.6716 14.5 13 15.1716 13 16C13 16.8284 13.6716 17.5 14.5 17.5Z" fill="white"/>
<path d="M23 16C23 16.8284 22.3284 17.5 21.5 17.5C20.6716 17.5 20 16.8284 20 16C20 15.1716 20.6716 14.5 21.5 14.5C22.3284 14.5 23 15.1716 23 16Z" fill="white"/>
<path d="M21.1091 22.9588C21.3597 23.4443 21.9548 23.6395 22.4449 23.3944C22.9388 23.1474 23.1391 22.5468 22.8921 22.0528C22.8096 21.8884 22.7046 21.7343 22.5945 21.5875C22.4117 21.3438 22.1358 21.0299 21.7473 20.7191C20.9578 20.0875 19.7406 19.5 17.9977 19.5C16.2547 19.5 15.0375 20.0875 14.248 20.7191C13.8595 21.0299 13.5836 21.3438 13.4008 21.5875C13.2903 21.7348 13.1898 21.8889 13.1038 22.0517C12.8591 22.5392 13.0626 23.1505 13.5504 23.3944C14.0405 23.6395 14.6357 23.4443 14.8862 22.9588C14.9 22.9339 15.0882 22.6082 15.4973 22.2809C15.9578 21.9125 16.7406 21.5 17.9977 21.5C19.2547 21.5 20.0375 21.9125 20.498 22.2809C20.9072 22.6082 21.0953 22.9339 21.1091 22.9588Z" fill="white"/>
<path fill-rule="evenodd" clip-rule="evenodd" d="M18 29.5C24.0751 29.5 29 24.5751 29 18.5C29 12.4249 24.0751 7.5 18 7.5C11.9249 7.5 7 12.4249 7 18.5C7 24.5751 11.9249 29.5 18 29.5ZM18 27.4932C13.0332 27.4932 9.00683 23.4668 9.00683 18.5C9.00683 13.5332 13.0332 9.50683 18 9.50683C22.9668 9.50683 26.9932 13.5332 26.9932 18.5C26.9932 23.4668 22.9668 27.4932 18 27.4932Z" fill="white"/>
</svg>
