<svg width="39" height="39" viewBox="0 0 39 39" fill="none" xmlns="http://www.w3.org/2000/svg">
<path d="M3.98368 6.00788C4.15075 6.00657 4.31782 6.02438 4.48761 6.05898C5.73078 6.31165 6.58797 7.49125 6.4389 8.75111L5.79434 14.1236L5.97304 14.0786C7.27171 13.73 8.62589 14.5055 8.97324 15.8039L10.0368 19.779L12.826 22.5913C13.8027 23.5786 14.4321 24.86 14.6221 26.2356L15.0703 29.5135L15.6943 29.3463C15.7915 29.3188 15.8931 29.3112 15.9932 29.3238C16.293 29.3661 16.5381 29.5845 16.6143 29.8775L17.9768 34.9481C18.0848 35.348 17.848 35.7596 17.4481 35.8677C17.4475 35.8677 17.4471 35.8679 17.4465 35.8681L5.86184 38.979C5.46189 39.0868 5.05013 38.8503 4.94222 38.4504C4.94212 38.4498 4.94203 38.4494 4.94184 38.449L3.59113 33.3785C3.48369 32.9783 3.72089 32.5671 4.12103 32.4596C4.12215 32.4592 4.12328 32.459 4.1244 32.4587L5.38717 32.1184L1.4318 24.763C0.184224 22.4355 -0.262511 19.7679 0.148504 17.1584L1.57534 8.0773C1.76425 6.87866 2.81448 6.02091 3.98368 6.01219V6.00788Z" fill="#484666"/>
<path d="M4.17428 7.51823H4.16256C3.62723 7.41472 3.14083 7.76199 3.05505 8.30614L1.62531 17.3841C1.26511 19.671 1.663 22.009 2.75626 24.0485L6.86688 31.7147L13.6056 29.9013L13.1309 26.4303C12.9853 25.3756 12.4968 24.3956 11.7481 23.6386L8.69217 20.5394L7.52897 16.1892C7.39115 15.6739 6.88104 15.3861 6.36577 15.5243L6.023 15.6127C5.5067 15.7522 5.21982 16.2594 5.35792 16.7756L7.05139 23.109L5.60111 23.4957L3.90764 17.1624C3.73242 16.5072 3.84305 15.8403 4.16256 15.2935C4.1529 15.2115 4.15684 15.1283 4.17428 15.0476L4.93603 8.57071C4.99518 8.07082 4.67305 7.63046 4.18309 7.53061C4.18009 7.52564 4.17718 7.52076 4.17428 7.51561V7.51823Z" fill="#FFD3B3"/>
<path d="M15.3659 31L5.23438 33.7129L6.19826 37.3336L16.3297 34.621L15.3659 31Z" fill="#36D7B7"/>
<path d="M15.3666 31L14.8539 31.1381L15.7826 34.6214L6.16406 37.1965L6.19922 37.3346L16.3305 34.622L15.3666 31Z" fill="#37B89E"/>
<path d="M4.1699 7.51444C3.98586 7.47834 3.81532 7.51444 3.65716 7.57285C4.07839 7.71536 4.3529 8.10828 4.29881 8.56607L3.53706 15.0433C3.51962 15.124 3.51568 15.2074 3.52534 15.2894C3.20583 15.8364 3.0952 16.5031 3.27042 17.1585L4.96389 23.4894L5.56448 23.3282L3.91498 17.1584C3.73975 16.5031 3.85038 15.8363 4.1699 15.2893C4.16024 15.2073 4.16418 15.1239 4.18161 15.0432L4.94336 8.56598C5.00252 8.06609 4.68038 7.62554 4.19043 7.52588C4.18743 7.52091 4.18452 7.51603 4.18161 7.51088L4.1699 7.51444ZM6.75112 15.4916C6.62867 15.4766 6.50201 15.4916 6.3732 15.5216L6.27363 15.547C6.56361 15.6416 6.80512 15.8616 6.89184 16.1858L8.05495 20.5362L11.1107 23.6327C11.8596 24.3897 12.348 25.3699 12.4936 26.4246L12.9683 29.8962L6.79227 31.5572L6.87431 31.7096L13.6128 29.8962L13.1382 26.4246C12.9926 25.3699 12.5041 24.3897 11.7553 23.6327L8.6995 20.5362L7.5364 16.1858C7.43308 15.7994 7.11854 15.5383 6.75121 15.4915L6.75112 15.4916Z" fill="#D8B59B"/>
<path d="M35.0231 6.00788C34.8561 6.00657 34.689 6.02438 34.5192 6.05898C33.276 6.31165 32.4188 7.49125 32.5679 8.75111L33.2125 14.1236L33.0338 14.0786C31.7351 13.73 30.3809 14.5055 30.0336 15.8039L28.97 19.779L26.1808 22.5913C25.2041 23.5786 24.5747 24.86 24.3847 26.2356L23.9365 29.5135L23.3125 29.3463C23.2153 29.3188 23.1137 29.3112 23.0136 29.3238C22.7137 29.3661 22.4687 29.5845 22.3925 29.8775L21.03 34.9481C20.922 35.348 21.1588 35.7596 21.5587 35.8677C21.5593 35.8677 21.5597 35.8679 21.5603 35.8681L33.145 38.979C33.5449 39.0868 33.9567 38.8503 34.0646 38.4504C34.0647 38.4498 34.0648 38.4494 34.065 38.449L35.4157 33.3785C35.5231 32.9783 35.2859 32.5671 34.8858 32.4596C34.8846 32.4592 34.8835 32.459 34.8824 32.4587L33.6196 32.1184L37.575 24.763C38.8226 22.4355 39.2693 19.7679 38.8583 17.1584L37.4315 8.0773C37.2425 6.87866 36.1923 6.02091 35.0231 6.01219V6.00788Z" fill="#484666"/>
<path d="M34.8219 7.51823H34.8337C35.369 7.41472 35.8554 7.76199 35.9412 8.30614L37.3709 17.3841C37.7311 19.671 37.3332 22.009 36.24 24.0485L32.1293 31.7147L25.3906 29.9013L25.8653 26.4303C26.0109 25.3756 26.4994 24.3956 27.2482 23.6386L30.3041 20.5394L31.4673 16.1892C31.6051 15.6739 32.1152 15.3861 32.6305 15.5243L32.9732 15.6127C33.4895 15.7522 33.7764 16.2594 33.6383 16.7756L31.9448 23.109L33.3951 23.4957L35.0886 17.1624C35.2638 16.5072 35.1532 15.8403 34.8337 15.2935C34.8433 15.2115 34.8394 15.1283 34.8219 15.0476L34.0602 8.57071C34.001 8.07082 34.3232 7.63046 34.8131 7.53061C34.8161 7.52564 34.8191 7.52076 34.8219 7.51561V7.51823Z" fill="#FFD3B3"/>
<path d="M23.6436 31L33.775 33.713L32.8112 37.3337L22.6797 34.621L23.6436 31Z" fill="#36D7B7"/>
<path d="M23.6387 31L23.5859 31.1963L32.9847 33.7129L32.0735 37.1376L32.806 37.3339L33.7699 33.7129L23.6387 31Z" fill="#37B89E"/>
<path d="M34.8224 7.51481C34.8195 7.51997 34.8166 7.52484 34.8136 7.52981C34.7659 7.54481 34.7291 7.56732 34.6847 7.58241C34.9782 7.70232 35.2067 7.95555 35.2619 8.3061L36.6916 17.3848C37.0518 19.6717 36.6539 22.0073 35.5607 24.0467L31.5351 31.5523L32.1298 31.7136L36.2404 24.0469C37.3336 22.0074 37.7314 19.6718 37.3713 17.3851L35.9417 8.30637C35.8559 7.76213 35.3696 7.41459 34.8342 7.51828L34.8224 7.51481ZM32.253 15.492C32.1885 15.507 32.1317 15.5325 32.0713 15.5535L32.294 15.609C32.8103 15.7485 33.0972 16.2557 32.9591 16.7721L31.2656 23.103L32.7159 23.4898L32.7599 23.3198L31.9453 23.1029L33.6388 16.772C33.7769 16.2556 33.49 15.7479 32.9737 15.6089L32.631 15.5205C32.5021 15.4861 32.3755 15.4755 32.253 15.4905V15.492Z" fill="#D8B59B"/>
<path d="M15.3802 0.000371947C12.6996 0.000371947 10.5078 2.17058 10.5078 4.83853C10.5078 4.83853 10.5078 4.83853 10.5078 4.85353C10.5093 6.27755 11.2196 7.47403 12.0913 8.41832C14.3819 10.9003 18.9348 16.246 18.9348 16.246C19.2305 16.5901 19.7616 16.5952 20.0643 16.261C20.0643 16.261 24.9289 10.77 27.2732 8.05681C28.0387 7.17112 28.5005 6.05451 28.5024 4.85709C28.5024 4.85709 28.5024 4.85709 28.5024 4.84209C28.5024 2.17414 26.3106 0.00402847 23.63 0.00402847C21.197 0.00402847 19.9242 1.51993 19.5231 1.99564C18.9686 1.48403 17.1421 0.0439704 15.3803 0L15.3802 0.000371947Z" fill="#484666"/>
<path d="M15.3775 1.51572C17.1609 1.51572 18.921 3.48651 18.921 3.48651C19.2216 3.85384 19.7831 3.85384 20.0837 3.48651C20.0837 3.48651 21.8437 1.51572 23.6272 1.51572C25.5026 1.51572 27.0046 2.99871 27.0046 4.84819C27.0034 5.65813 26.6815 6.44622 26.1298 7.08459C23.9857 9.56596 20.17 13.8775 19.5078 14.6242C18.8631 13.8678 15.3489 9.73846 13.1959 7.40559C12.4739 6.62331 12.0009 5.76473 12 4.8481C12 2.99862 13.502 1.51562 15.3774 1.51562L15.3775 1.51572Z" fill="#D87070"/>
<path d="M15.3818 1.51619C15.2366 1.51619 15.0973 1.54019 14.957 1.55669C16.6222 1.76979 18.174 3.48745 18.174 3.48745C18.4162 3.78333 18.8211 3.82656 19.1292 3.64552C19.0557 3.60192 18.982 3.55851 18.924 3.48745C18.924 3.48745 17.1654 1.51572 15.3819 1.51572L15.3818 1.51619ZM23.6292 1.51619C23.5197 1.51619 23.4129 1.54309 23.304 1.55669C24.9745 1.76248 26.2572 3.14338 26.2572 4.8496C26.256 5.65953 25.9359 6.44631 25.3841 7.08486C23.3629 9.42411 20.0906 13.1226 19.1407 14.1949C19.2143 14.2819 19.4639 14.5718 19.5099 14.6256C20.1721 13.8787 23.9901 9.56624 26.1341 7.08486C26.6858 6.44631 27.006 5.65953 27.0073 4.8496C27.0073 3.00012 25.5046 1.51562 23.6292 1.51562V1.51619Z" fill="#BD5858"/>
</svg>
