<svg width="40" height="40" viewBox="0 0 40 40" fill="none" xmlns="http://www.w3.org/2000/svg">
<g clip-path="url(#clip0_34264_6775)">
<path d="M21.7539 25.3438V30.9756C21.7539 30.9756 21.7539 33.7915 24.3606 33.7915C26.9673 33.7915 26.9673 30.9756 26.9673 30.9756V25.3438H21.7539Z" fill="#DD2E44"/>
<path d="M21.7539 30.9756L21.7548 31.0103C22.6593 30.9774 23.5065 30.7531 24.0417 29.8032C24.0744 29.7431 24.121 29.6932 24.177 29.6585C24.2331 29.6238 24.2965 29.6056 24.3611 29.6056C24.4256 29.6056 24.489 29.6238 24.5451 29.6585C24.6011 29.6932 24.6477 29.7431 24.6804 29.8032C25.2156 30.7522 26.0628 30.9774 26.9673 31.0103V25.3438H21.7539V30.9756Z" fill="#BE1931"/>
<path d="M36.4856 20.289C36.4856 26.1799 32.141 26.1799 32.141 26.1799H16.5008C16.5008 26.1799 12.1562 26.1799 12.1562 20.289C12.1562 13.9776 16.5008 2.8125 24.3209 2.8125C32.141 2.8125 36.4856 14.9162 36.4856 20.289Z" fill="#D99E82"/>
<path d="M24.3609 18.7734C18.2786 18.7734 15.6719 22.084 15.6719 24.776C15.6719 26.1452 16.1754 27.4583 17.0716 28.4265C17.9678 29.3946 19.1834 29.9385 20.4508 29.9385C21.8454 29.9385 23.0941 29.3153 23.969 27.3413C24.0032 27.2602 24.0583 27.1914 24.1277 27.1431C24.1972 27.0949 24.2779 27.0692 24.3605 27.0692C24.443 27.0692 24.5238 27.0949 24.5932 27.1431C24.6626 27.1914 24.7177 27.2602 24.7519 27.3413C25.6269 29.3153 26.8764 29.9385 28.2701 29.9385C29.5376 29.9385 30.7531 29.3946 31.6494 28.4265C32.5456 27.4583 33.0491 26.1452 33.0491 24.776C33.05 22.084 30.4432 18.7734 24.3609 18.7734Z" fill="#F4C7B5"/>
<path d="M21.753 21.4909C20.8841 22.4296 23.4908 25.2455 24.3597 25.2455C25.2286 25.2455 27.8353 22.4296 26.9664 21.4909C26.0975 20.5523 22.6219 20.5523 21.753 21.4909ZM20.0152 17.8349C19.0594 17.8349 18.2773 16.9902 18.2773 15.9577V14.0804C18.2773 13.0479 19.0594 12.2031 20.0152 12.2031C20.9709 12.2031 21.753 13.0479 21.753 14.0804V15.9577C21.753 16.9902 20.9709 17.8349 20.0152 17.8349ZM28.7042 17.8349C27.7484 17.8349 26.9664 16.9902 26.9664 15.9577V14.0804C26.9664 13.0479 27.7484 12.2031 28.7042 12.2031C29.66 12.2031 30.442 13.0479 30.442 14.0804V15.9577C30.442 16.9902 29.66 17.8349 28.7042 17.8349Z" fill="#292F33"/>
<path d="M21.7531 3.38813C20.833 2.0656 18.8692 0.828473 11.1768 3.94381C7.57608 5.40245 9.33475 16.713 12.1387 17.4461C13.0997 17.4461 15.9845 17.4461 15.9845 9.13728C15.9845 8.93078 15.9827 8.74024 15.9801 8.55064C17.7127 5.91307 19.5809 4.56049 21.7531 3.38813ZM37.5428 3.94381C29.8504 0.828473 27.8867 2.0656 26.9665 3.38813C29.1388 4.56143 31.007 5.91401 32.7395 8.55157C32.7369 8.74024 32.7352 8.93078 32.7352 9.13822C32.7352 17.447 35.6191 17.447 36.581 17.447C39.3849 16.713 41.1436 5.40245 37.5428 3.94381Z" fill="#662113"/>
<path d="M29.1376 24.4074C29.3775 24.4074 29.572 24.1973 29.572 23.9381C29.572 23.6789 29.3775 23.4688 29.1376 23.4688C28.8976 23.4688 28.7031 23.6789 28.7031 23.9381C28.7031 24.1973 28.8976 24.4074 29.1376 24.4074Z" fill="#D99E82"/>
<path d="M18.7118 24.4074C18.9517 24.4074 19.1462 24.1973 19.1462 23.9381C19.1462 23.6789 18.9517 23.4688 18.7118 23.4688C18.4719 23.4688 18.2773 23.6789 18.2773 23.9381C18.2773 24.1973 18.4719 24.4074 18.7118 24.4074Z" fill="#D99E82"/>
<path d="M30.8759 26.2824C31.1158 26.2824 31.3103 26.0723 31.3103 25.8131C31.3103 25.5539 31.1158 25.3438 30.8759 25.3438C30.6359 25.3438 30.4414 25.5539 30.4414 25.8131C30.4414 26.0723 30.6359 26.2824 30.8759 26.2824Z" fill="#D99E82"/>
<path d="M17.8407 26.2824C18.0806 26.2824 18.2752 26.0723 18.2752 25.8131C18.2752 25.5539 18.0806 25.3438 17.8407 25.3438C17.6008 25.3438 17.4062 25.5539 17.4062 25.8131C17.4062 26.0723 17.6008 26.2824 17.8407 26.2824Z" fill="#D99E82"/>
<path d="M28.7048 27.221C29.1847 27.221 29.5737 26.8008 29.5737 26.2824C29.5737 25.764 29.1847 25.3438 28.7048 25.3438C28.225 25.3438 27.8359 25.764 27.8359 26.2824C27.8359 26.8008 28.225 27.221 28.7048 27.221Z" fill="#D99E82"/>
<path d="M20.0173 27.221C20.4972 27.221 20.8862 26.8008 20.8862 26.2824C20.8862 25.764 20.4972 25.3438 20.0173 25.3438C19.5375 25.3438 19.1484 25.764 19.1484 26.2824C19.1484 26.8008 19.5375 27.221 20.0173 27.221Z" fill="#D99E82"/>
<path d="M17.3096 6.79021C17.0846 6.1585 16.7587 5.47893 16.2878 4.97019C16.2071 4.88304 16.1113 4.81391 16.0059 4.76675C15.9005 4.71959 15.7875 4.69531 15.6735 4.69531C15.5594 4.69531 15.4464 4.71959 15.341 4.76675C15.2356 4.81391 15.1398 4.88304 15.0591 4.97019C14.9785 5.05734 14.9145 5.1608 14.8708 5.27466C14.8272 5.38852 14.8047 5.51056 14.8047 5.63381C14.8047 5.75705 14.8272 5.87909 14.8708 5.99295C14.9145 6.10682 14.9785 6.21028 15.0591 6.29742C15.5544 6.83245 15.9854 8.11275 15.9871 8.49947C16.1131 8.12026 16.7161 7.42003 17.3096 6.79021ZM31.4006 6.79021C31.6257 6.15944 31.9515 5.47893 32.4225 4.97019C32.5031 4.88304 32.5989 4.81391 32.7043 4.76675C32.8097 4.71959 32.9227 4.69531 33.0368 4.69531C33.1509 4.69531 33.2638 4.71959 33.3692 4.76675C33.4746 4.81391 33.5704 4.88304 33.6511 4.97019C33.7318 5.05734 33.7958 5.1608 33.8394 5.27466C33.8831 5.38852 33.9055 5.51056 33.9055 5.63381C33.9055 5.75705 33.8831 5.87909 33.8394 5.99295C33.7958 6.10682 33.7318 6.21028 33.6511 6.29742C33.1558 6.83245 32.7248 8.11275 32.7231 8.49947C32.5971 8.12026 31.9941 7.42003 31.4006 6.79021Z" fill="#380F09"/>
<g clip-path="url(#clip1_34264_6775)">
<path d="M14.3581 26.3368C13.5333 25.8724 12.4992 26.1529 11.9732 26.9839C11.844 27.1875 11.7508 27.4152 11.6984 27.6555L4.37608 23.1551L4.37622 23.1554C4.48864 23.738 4.71461 24.2881 5.0391 24.769C5.36358 25.2499 5.77915 25.6507 6.25816 25.9447L12.5494 29.8113C13.4396 30.3585 14.5907 30.041 15.1009 29.0788C15.6177 28.1043 15.2875 26.8601 14.3581 26.3368ZM14.4207 28.6677C14.1271 29.2179 13.4756 29.4098 12.9656 29.0964C12.4556 28.783 12.2804 28.0827 12.574 27.5327C12.8676 26.9827 13.519 26.7904 14.0289 27.1039C14.1501 27.1783 14.2564 27.278 14.3418 27.397C14.4271 27.5161 14.4899 27.6522 14.5263 27.7976C14.5627 27.943 14.5721 28.0947 14.554 28.2441C14.5359 28.3934 14.4906 28.5374 14.4207 28.6677Z" fill="#E6E6E6"/>
<path d="M14.3589 26.3383C13.5345 25.8735 12.5002 26.1538 11.9745 26.9851C11.8451 27.1887 11.7518 27.4164 11.6995 27.6568L10.7551 27.0762L10.5006 28.5525L12.5506 29.8124C13.4408 30.3597 14.5918 30.0423 15.1018 29.0801C15.6186 28.1053 15.2884 26.8613 14.3589 26.3383ZM14.4216 28.6689C14.128 29.2193 13.4764 29.4113 12.9664 29.0979C12.8452 29.0234 12.7389 28.9238 12.6535 28.8047C12.5682 28.6857 12.5055 28.5495 12.4691 28.4042C12.4326 28.2588 12.4232 28.1071 12.4413 27.9578C12.4595 27.8085 12.5048 27.6645 12.5746 27.5342C12.8682 26.9838 13.5198 26.7918 14.0298 27.1052C14.1511 27.1796 14.2574 27.2792 14.3428 27.3983C14.4282 27.5173 14.491 27.6535 14.5274 27.7988C14.5638 27.9442 14.5732 28.096 14.5551 28.2453C14.5369 28.3946 14.4916 28.5386 14.4216 28.6689ZM9.23977 27.7792L9.59961 29.2153C9.41931 29.2105 9.23933 29.2342 9.06532 29.2854C8.08028 29.5757 7.49665 30.6697 7.76169 31.7284C8.02688 32.7874 9.04073 33.4103 10.0257 33.1198C11.0113 32.8295 11.5946 31.736 11.3293 30.6768L10.8516 28.7699L9.23977 27.7792ZM9.82247 32.3085C9.25415 32.4759 8.66969 32.1166 8.51663 31.5059C8.36364 30.8953 8.70029 30.2643 9.26861 30.0969C9.83677 29.9295 10.4214 30.2888 10.5743 30.8996C10.7273 31.5102 10.3906 32.1411 9.82247 32.3085Z" fill="#FC583D"/>
<path d="M8.75566 25.8502L7.40243 20.4479C7.89671 20.711 8.33349 21.0847 8.68371 21.5442C9.03393 22.0038 9.28956 22.5386 9.43361 23.1132L10.3675 26.8409" fill="#CCCCCC"/>
<path d="M6.52676 29.4758C6.47216 29.3931 6.39243 29.3338 6.30147 29.3081C6.21051 29.2825 6.1141 29.2922 6.02906 29.3354L5.01632 29.8483C4.64909 30.0343 4.23505 29.9659 4.03131 29.6854C2.81186 28.0111 1.96392 26.0572 1.55264 23.9736C1.48346 23.6252 1.6998 23.2376 2.06688 23.0517L3.07962 22.5388C3.16484 22.496 3.23341 22.4221 3.27335 22.3301C3.31329 22.2382 3.32206 22.134 3.29812 22.0358L3.296 22.0269C3.23214 21.7669 2.96496 21.6337 2.73835 21.7485L0.840437 22.7096C0.660166 22.8008 0.512658 22.9535 0.420622 23.1442C0.328586 23.3349 0.297126 23.553 0.331083 23.7649C0.774454 26.5253 4.30287 33.1445 5.36715 35.0963C5.45008 35.2474 5.58219 35.3597 5.73766 35.4112C5.89314 35.4626 6.06079 35.4496 6.20785 35.3746C6.35739 35.2994 6.47503 35.1659 6.53716 35.0008C6.59929 34.8358 6.6013 34.6514 6.54278 34.4848L5.40349 31.2672C5.35055 31.1164 5.35239 30.9495 5.40866 30.8001C5.46492 30.6506 5.57143 30.5297 5.7068 30.4616L6.37324 30.1242C6.5997 30.0095 6.67566 29.7025 6.53156 29.4833L6.52676 29.4758Z" fill="#49DB95"/>
<path d="M14.103 27.1238C14.0824 27.1455 14.066 27.1715 14.0548 27.2001C14.0435 27.2287 14.0376 27.2594 14.0374 27.2905C14.0371 27.3216 14.0426 27.3524 14.0534 27.3812C14.0642 27.41 14.0802 27.4362 14.1005 27.4583C14.2295 27.5999 14.3121 27.7834 14.3354 27.9805C14.3588 28.1776 14.3216 28.3776 14.2297 28.5497C13.997 28.9856 13.479 29.1384 13.0748 28.8901C12.879 28.7695 12.739 28.5742 12.6801 28.3399C12.6212 28.1055 12.6511 27.8601 12.7637 27.6487C12.8469 27.4926 12.9708 27.3663 13.1199 27.2857C13.269 27.2051 13.4368 27.1737 13.6024 27.1954C13.6602 27.2029 13.7184 27.1854 13.7644 27.1467C13.8104 27.108 13.8403 27.0513 13.8478 26.9889C13.8513 26.9581 13.8492 26.9268 13.8415 26.8969C13.8339 26.867 13.8208 26.839 13.8031 26.8145C13.7853 26.7901 13.7633 26.7697 13.7382 26.7544C13.7131 26.7392 13.6855 26.7295 13.657 26.7259C13.4055 26.693 13.1506 26.7407 12.9241 26.8632C12.6976 26.9857 12.5094 27.1774 12.3831 27.4146C12.0293 28.0774 12.2414 28.9237 12.8554 29.3011C13.035 29.4111 13.2364 29.473 13.4428 29.4813C13.6491 29.4896 13.8543 29.4442 14.0409 29.3489C14.28 29.2282 14.4789 29.0309 14.6106 28.7839C14.8975 28.246 14.8165 27.564 14.4137 27.125C14.3726 27.0805 14.3168 27.0554 14.2586 27.0552C14.2004 27.0549 14.1444 27.0796 14.103 27.1238Z" fill="black"/>
<path d="M14.4632 26.125C14.0137 25.8731 13.4943 25.8084 13.0035 25.9431C12.6819 26.0294 12.3841 26.1979 12.1351 26.4342C11.8862 26.6706 11.6934 26.9681 11.5729 27.3017L8.94651 25.6877L7.75716 20.9392C8.47587 21.471 8.99584 22.2618 9.22392 23.1701L9.9001 25.8698C9.90852 25.9032 9.92362 25.9342 9.94435 25.9606C9.96507 25.987 9.99091 26.0082 10.02 26.0226C10.0492 26.037 10.0809 26.0443 10.1129 26.0441C10.1449 26.0438 10.1765 26.0359 10.2054 26.021C10.3006 25.9729 10.3528 25.8572 10.3245 25.7447L9.64832 23.045C9.49594 22.4384 9.22586 21.8737 8.85602 21.3884C8.48617 20.9031 8.02501 20.5084 7.50314 20.2304C7.46517 20.2103 7.42267 20.2025 7.38069 20.2077C7.33871 20.213 7.29901 20.2311 7.26629 20.26C7.23358 20.289 7.20923 20.3274 7.19614 20.3708C7.18304 20.4142 7.18175 20.4608 7.19242 20.5049L8.40783 25.3569L6.55587 24.2187C6.50516 24.1877 6.44518 24.1796 6.38898 24.1962C6.33278 24.2127 6.28491 24.2526 6.2558 24.3071C6.24137 24.334 6.232 24.3637 6.22825 24.3945C6.22449 24.4253 6.22643 24.4566 6.23394 24.4865C6.24145 24.5165 6.25438 24.5446 6.272 24.5692C6.28961 24.5937 6.31156 24.6142 6.33657 24.6296L10.512 27.1959L10.3424 28.179L6.37024 25.7372C5.61296 25.2718 5.03377 24.5305 4.73642 23.6458L5.68936 24.2315C5.74007 24.2625 5.80005 24.2705 5.85625 24.254C5.91245 24.2374 5.96032 24.1975 5.98943 24.143C6.00382 24.1161 6.01315 24.0865 6.01688 24.0557C6.02061 24.0249 6.01866 23.9936 6.01116 23.9637C6.00365 23.9337 5.99073 23.9056 5.97314 23.8811C5.95555 23.8565 5.93364 23.836 5.90867 23.8206L4.48815 22.9476C4.4513 22.9252 4.40928 22.9147 4.36708 22.9174C4.32487 22.92 4.28426 22.9357 4.25006 22.9625C4.21586 22.9894 4.18951 23.0263 4.17414 23.0688C4.15877 23.1114 4.15502 23.1578 4.16334 23.2025C4.28226 23.8177 4.52095 24.3985 4.86358 24.9064C5.20621 25.4142 5.64493 25.8376 6.15062 26.1482L9.0527 27.9318L9.31732 28.9886C9.21335 29.0016 9.11045 29.0232 9.00949 29.053C8.74716 29.1294 8.50136 29.261 8.28618 29.4402C8.071 29.6195 7.89066 29.8428 7.75549 30.0974C7.6194 30.3503 7.53122 30.6298 7.49609 30.9199C7.46095 31.2099 7.47956 31.5046 7.55084 31.7867C7.62081 32.0689 7.74216 32.3331 7.90778 32.564C8.0734 32.7948 8.27998 32.9877 8.51542 33.1313C8.75101 33.2768 9.01091 33.3705 9.28016 33.4069C9.5494 33.4434 9.82267 33.422 10.0842 33.3439C10.2022 33.309 10.3158 33.264 10.4243 33.209C10.8061 33.0156 11.1239 32.7018 11.3385 32.2997C11.4746 32.0468 11.5627 31.7673 11.5978 31.4773C11.6329 31.1873 11.6143 30.8926 11.543 30.6104L11.2032 29.2541L12.4421 30.0153C12.6831 30.1642 12.9491 30.26 13.2247 30.2972C13.5003 30.3343 13.7799 30.3121 14.0475 30.2317C14.1651 30.1969 14.2783 30.152 14.3862 30.0973C14.7679 29.9047 15.0849 29.5891 15.2938 29.1939C15.4324 28.9352 15.5207 28.6487 15.5535 28.352C15.5863 28.0552 15.5627 27.7543 15.4843 27.4677C15.3272 26.8837 14.9642 26.4071 14.4632 26.125ZM11.1189 30.7349C11.1749 30.9571 11.1895 31.1891 11.1619 31.4175C11.1342 31.6458 11.0648 31.8659 10.9578 32.0651C10.8513 32.2656 10.7093 32.4414 10.5399 32.5825C10.3704 32.7236 10.1768 32.8272 9.97025 32.8874C9.5504 33.011 9.11188 32.9517 8.73504 32.7203C8.3582 32.4888 8.08854 32.1127 7.97548 31.6613C7.91943 31.4392 7.90482 31.2072 7.9325 30.9789C7.96017 30.7506 8.02959 30.5305 8.1367 30.3314C8.24314 30.1309 8.38514 29.9551 8.55457 29.814C8.724 29.6729 8.91753 29.5693 9.12408 29.5091C9.27732 29.4638 9.43587 29.443 9.59469 29.4472C9.62891 29.4481 9.66287 29.4405 9.69387 29.4248C9.72487 29.4091 9.75207 29.3859 9.77331 29.3569C9.79455 29.3279 9.80926 29.2939 9.81625 29.2577C9.82325 29.2215 9.82235 29.1841 9.81363 29.1483L9.59184 28.2628L10.665 28.9224L11.1189 30.7349ZM15.0626 27.6011C15.1243 27.8268 15.1428 28.0637 15.117 28.2974C15.0912 28.5311 15.0216 28.7566 14.9126 28.9603C14.6997 29.3617 14.3518 29.6512 13.933 29.7753C13.7211 29.8389 13.4996 29.8564 13.2814 29.827C13.0632 29.7975 12.8525 29.7216 12.6616 29.6037L10.9637 28.5599L10.9624 28.5593L10.7467 28.4266L10.9163 27.4435L11.5914 27.8586C11.6212 27.8768 11.6545 27.8873 11.6888 27.8892C11.723 27.8911 11.7571 27.8844 11.7885 27.8696C11.8199 27.8548 11.8477 27.8324 11.8697 27.804C11.8917 27.7756 11.9072 27.742 11.9151 27.706C11.984 27.3911 12.1319 27.1027 12.3425 26.8726C12.5531 26.6425 12.8184 26.4795 13.1091 26.4015C13.4953 26.2952 13.9043 26.3459 14.2581 26.544C14.4517 26.6519 14.6229 26.8012 14.7612 26.983C14.8996 27.1648 15.0021 27.3751 15.0626 27.6011Z" fill="black"/>
<path d="M9.21171 29.8662C9.04862 29.9137 8.8958 29.9954 8.76203 30.1068C8.62825 30.2182 8.51615 30.3571 8.43216 30.5154C8.34756 30.6726 8.29274 30.8464 8.27088 31.0267C8.24901 31.207 8.26054 31.3903 8.30479 31.5657C8.48893 32.3012 9.19582 32.7355 9.87993 32.5339C10.0431 32.4865 10.196 32.4048 10.3298 32.2934C10.4636 32.182 10.5757 32.0431 10.6597 31.8848C10.7443 31.7276 10.7991 31.5537 10.8209 31.3734C10.8428 31.193 10.8312 31.0098 10.7869 30.8344C10.6027 30.0989 9.89598 29.6645 9.21171 29.8662ZM10.3624 30.9593C10.4837 31.4434 10.2163 31.9452 9.76558 32.0778C9.31532 32.2106 8.85028 31.9246 8.72903 31.4407C8.60771 30.9566 8.87543 30.455 9.32584 30.3222C9.7764 30.1897 10.2413 30.4753 10.3624 30.9593ZM9.63791 27.4476C9.80348 27.5569 10.0138 27.3825 9.96366 27.1824C9.9514 27.1346 9.92552 27.0921 9.8897 27.061C9.85387 27.0299 9.80991 27.0118 9.76402 27.0092C9.71792 27.0069 9.6723 27.0202 9.63349 27.0472C9.59468 27.0742 9.56459 27.1135 9.54739 27.1598C9.52884 27.2116 9.52774 27.2688 9.54428 27.3214C9.56083 27.374 9.59397 27.4187 9.63791 27.4476ZM6.80202 29.899C6.82552 29.8046 6.82942 29.7058 6.81345 29.6096C6.79747 29.5134 6.76202 29.4222 6.70962 29.3426L6.70451 29.3348C6.62006 29.2068 6.49667 29.1149 6.3559 29.0753C6.21513 29.0356 6.06592 29.0506 5.93435 29.1177L4.92161 29.6305C4.73768 29.7237 4.5363 29.7345 4.38238 29.672L5.68377 29.013C5.79369 28.9573 5.84142 28.8163 5.79019 28.6983C5.73888 28.58 5.60819 28.5294 5.49811 28.5851L4.04901 29.319C3.97235 29.2091 3.89713 29.098 3.82339 28.9859L5.22604 28.2756C5.33596 28.2199 5.38368 28.0789 5.33245 27.9608C5.28122 27.8428 5.15052 27.7921 5.04045 27.8479L3.57323 28.5909C3.50396 28.4773 3.43619 28.3626 3.36997 28.2469L4.83639 27.5043C4.94631 27.4486 4.99404 27.3076 4.94281 27.1895C4.89157 27.0715 4.76088 27.0208 4.6508 27.0766L3.14611 27.8386C3.08412 27.721 3.02371 27.6025 2.9649 27.483L4.49148 26.7099C4.6014 26.6542 4.64913 26.5132 4.5979 26.3952C4.54666 26.2771 4.41597 26.2265 4.30589 26.2822L2.76624 27.0619C2.71146 26.9406 2.6584 26.8183 2.60708 26.6952L4.16169 25.9079C4.27177 25.8521 4.31934 25.7112 4.26803 25.593C4.25574 25.5649 4.23844 25.5396 4.2171 25.5187C4.19577 25.4978 4.17083 25.4816 4.14371 25.4711C4.11659 25.4606 4.08782 25.456 4.05905 25.4576C4.03027 25.4591 4.00206 25.4667 3.97603 25.4801L2.43449 26.2607C2.38715 26.1357 2.34147 26.0096 2.29752 25.8831L3.84725 25.0983C3.87338 25.0852 3.89687 25.0667 3.91636 25.0438C3.93586 25.0209 3.95098 24.994 3.96086 24.9648C3.97074 24.9356 3.9752 24.9045 3.97396 24.8734C3.97273 24.8423 3.96583 24.8118 3.95366 24.7836C3.94137 24.7555 3.92407 24.7302 3.90273 24.7093C3.8814 24.6884 3.85646 24.6722 3.82934 24.6617C3.80222 24.6512 3.77345 24.6466 3.74468 24.6481C3.7159 24.6497 3.68769 24.6573 3.66166 24.6706L2.15019 25.4361C2.11007 25.307 2.07177 25.1772 2.03528 25.0469L3.54958 24.28C3.57571 24.2669 3.5992 24.2484 3.61869 24.2255C3.63819 24.2026 3.65331 24.1757 3.66319 24.1465C3.67308 24.1173 3.67753 24.0862 3.67629 24.0551C3.67506 24.024 3.66816 23.9935 3.656 23.9653C3.60469 23.8471 3.47399 23.7964 3.36392 23.8522L1.91434 24.5863C1.88174 24.4536 1.85086 24.32 1.82164 24.1858L3.27074 23.452C3.38082 23.3963 3.42839 23.2554 3.37715 23.1373C3.32592 23.0192 3.19523 22.9686 3.08515 23.0243L1.78376 23.6834C1.83772 23.5156 1.97421 23.3552 2.15814 23.262L3.17087 22.7492C3.30283 22.6828 3.409 22.5685 3.47081 22.4262C3.53261 22.2839 3.54612 22.1226 3.50896 21.9706L3.50682 21.9621C3.48371 21.8676 3.44153 21.7797 3.3833 21.7049C3.32508 21.63 3.25225 21.57 3.17003 21.5291C3.08751 21.4878 2.99762 21.4665 2.90669 21.4668C2.81575 21.4671 2.72599 21.489 2.64371 21.5308L0.745797 22.4919C0.522123 22.6056 0.339106 22.7953 0.224793 23.032C0.110479 23.2688 0.0711751 23.5395 0.112903 23.8026C0.275128 24.813 0.966317 27.0046 3.33763 31.709C3.36563 31.7641 3.41271 31.8049 3.46854 31.8225C3.52437 31.8401 3.58439 31.8331 3.63544 31.803C3.6608 31.7882 3.68321 31.7682 3.70139 31.7441C3.71957 31.7199 3.73317 31.6922 3.74141 31.6623C3.74964 31.6325 3.75235 31.6012 3.74939 31.5703C3.74642 31.5393 3.73783 31.5093 3.72411 31.4819C1.86978 27.8029 0.770743 25.1189 0.546112 23.72C0.520446 23.5594 0.544241 23.3942 0.613847 23.2497C0.683453 23.1051 0.795028 22.9892 0.931462 22.9198L2.82937 21.9587C2.8963 21.9248 2.9546 21.9436 2.98336 21.9581C3.01205 21.9724 3.06296 22.0078 3.08257 22.0875L3.08406 22.0936C3.09487 22.1381 3.09087 22.1852 3.07277 22.2267C3.05468 22.2683 3.02363 22.3016 2.98506 22.321L1.97233 22.8338C1.51328 23.0663 1.24555 23.5652 1.33604 24.0203C1.7598 26.156 2.60773 28.11 3.85635 29.828C4.12228 30.1938 4.64846 30.2909 5.10751 30.0584L6.12024 29.5456C6.19992 29.5052 6.29462 29.5318 6.34533 29.6088L6.35044 29.6166C6.39296 29.6814 6.38576 29.7462 6.37744 29.7793C6.37076 29.8071 6.35844 29.8329 6.34139 29.8549C6.32434 29.877 6.30297 29.8946 6.27884 29.9066L5.61239 30.2441C5.22862 30.4385 5.04594 30.9236 5.19642 31.3487L6.33572 34.5663C6.37413 34.6769 6.37257 34.7992 6.33134 34.9086C6.29011 35.0181 6.21223 35.1068 6.11321 35.157C6.01568 35.2073 5.90424 35.2162 5.80092 35.182C5.69759 35.1478 5.6099 35.073 5.55516 34.9723C5.06174 34.0665 4.57901 33.1539 4.1071 32.2348C4.07872 32.1799 4.03135 32.1395 3.97539 32.1223C3.91943 32.1051 3.85945 32.1126 3.80861 32.1432C3.78335 32.1582 3.76108 32.1784 3.74307 32.2027C3.72505 32.227 3.71165 32.2548 3.70362 32.2847C3.69559 32.3146 3.6931 32.3459 3.69628 32.3769C3.69947 32.4078 3.70827 32.4377 3.72218 32.465C4.19585 33.3877 4.68041 34.3037 5.17575 35.213C5.40478 35.6332 5.8877 35.7931 6.29888 35.5849C6.71194 35.3757 6.90833 34.8536 6.74647 34.396L5.60717 31.1784C5.57425 31.0836 5.57559 30.9788 5.61091 30.8849C5.64624 30.7911 5.71296 30.715 5.79783 30.6719L6.46427 30.3344C6.54662 30.2929 6.61954 30.2324 6.67789 30.1572C6.73625 30.082 6.77862 29.9938 6.80202 29.899Z" fill="black"/>
</g>
</g>
<defs>
<clipPath id="clip0_34264_6775">
<rect width="40" height="40" fill="white"/>
</clipPath>
<clipPath id="clip1_34264_6775">
<rect width="15.8866" height="16.6898" fill="white" transform="matrix(0.892129 -0.45178 0.39809 0.917346 -2.5 23.1406)"/>
</clipPath>
</defs>
</svg>
