<svg width="40" height="40" viewBox="0 0 40 40" fill="none" xmlns="http://www.w3.org/2000/svg">
<path d="M35.7944 25.1344C34.3522 23.2451 31.678 22.7242 29.6264 23.9335C29.123 24.2295 28.6787 24.6162 28.3162 25.074L15.8926 7.49219V7.49308C15.5678 8.86287 15.5383 10.2861 15.8062 11.6682C16.0741 13.0503 16.6332 14.3594 17.4464 15.5086L28.1206 30.6144C29.6308 32.7522 32.6131 33.3206 34.7597 31.8131C36.934 30.2864 37.4193 27.2633 35.7944 25.1344ZM33.5989 30.1949C32.3668 31.0549 30.6669 30.7593 29.8015 29.5349C28.9362 28.3104 29.234 26.6202 30.4655 25.7606C31.6971 24.9011 33.3975 25.1957 34.2624 26.4202C34.468 26.7111 34.614 27.0399 34.692 27.3875C34.77 27.7352 34.7784 28.0948 34.7167 28.4457C34.655 28.7966 34.5245 29.1318 34.3326 29.432C34.1408 29.7322 33.8914 29.9915 33.5989 30.1949Z" fill="#E6E6E6"/>
<path d="M35.7952 25.1303C34.3543 23.2405 31.6797 22.7192 29.6286 23.9294C29.1248 24.2251 28.6804 24.6118 28.3179 25.0698L26.7157 22.8018L24.6446 25.6881L28.1228 30.6103C29.633 32.7481 32.6148 33.3165 34.761 31.809C36.9357 30.2814 37.4206 27.2587 35.7952 25.1303ZM33.6001 30.1903C32.3681 31.0507 30.6677 30.7552 29.8023 29.5307C29.5967 29.2398 29.4507 28.9111 29.3727 28.5635C29.2948 28.2159 29.2864 27.8563 29.3481 27.5054C29.4098 27.1546 29.5403 26.8194 29.7322 26.5192C29.924 26.2191 30.1734 25.9598 30.4659 25.7565C31.6979 24.8961 33.3983 25.1916 34.2637 26.4161C34.4695 26.7069 34.6156 27.0356 34.6937 27.3833C34.7717 27.7309 34.7802 28.0906 34.7185 28.4415C34.6568 28.7924 34.5262 29.1276 34.3342 29.4277C34.1423 29.7279 33.8928 29.9871 33.6001 30.1903ZM22.5037 22.6641L21.8943 26.1303C21.4819 25.9246 21.0417 25.78 20.5877 25.701C18.017 25.2543 15.5681 26.9645 15.1183 29.5196C14.6686 32.0756 16.389 34.5094 18.9597 34.9556C21.5317 35.4027 23.9792 33.6934 24.429 31.137L25.2383 26.5343L22.5037 22.6641ZM19.3041 32.9974C17.821 32.7396 16.8294 31.3361 17.0886 29.8618C17.3477 28.3881 18.7601 27.4018 20.2432 27.6596C21.7259 27.9174 22.7179 29.321 22.4583 30.7952C22.1992 32.269 20.7868 33.2552 19.3041 32.9974Z" fill="#FC583D"/>
<path d="M23.3281 18.0079L25.6215 4.96875C26.501 6.06837 27.1363 7.34265 27.4852 8.70684C27.8341 10.071 27.8886 11.4939 27.645 12.8808L26.0628 21.8781" fill="#CCCCCC"/>
<path d="M14.5201 23.3558C14.4768 23.1195 14.3519 22.9059 14.1672 22.7523C13.9825 22.5987 13.7497 22.5148 13.5095 22.5153H10.6513C9.61481 22.5153 8.72548 21.9198 8.5357 21.098C7.39526 16.1891 7.39526 11.0842 8.5357 6.17531C8.72548 5.35398 9.61525 4.75842 10.6513 4.75842H13.5095C13.7497 4.75901 13.9826 4.67518 14.1673 4.52156C14.352 4.36794 14.4769 4.15431 14.5201 3.91798L14.5241 3.89665C14.6375 3.27042 14.153 2.69531 13.5135 2.69531H8.15703C7.6483 2.69523 7.15364 2.86236 6.74921 3.17098C6.34479 3.4796 6.05301 3.9126 5.91881 4.40331C4.17303 10.7966 5.69081 28.8015 6.19348 34.1366C6.23364 34.5502 6.42661 34.934 6.73466 35.2129C7.04272 35.4917 7.44372 35.6457 7.85925 35.6446C8.28077 35.6457 8.68709 35.4873 8.99658 35.2011C9.30607 34.915 9.49582 34.5223 9.5277 34.102L10.1224 25.9744C10.1513 25.5939 10.3232 25.2385 10.6034 24.9794C10.8836 24.7204 11.2514 24.577 11.633 24.578H13.5139C14.153 24.578 14.637 24.0029 14.5237 23.3771L14.5201 23.3558Z" fill="#49DB95"/>
<path d="M34.419 26.5489C34.3495 26.5732 34.2856 26.6109 34.2308 26.66C34.176 26.709 34.1315 26.7684 34.0997 26.8347C34.068 26.9011 34.0496 26.973 34.0458 27.0465C34.0419 27.1199 34.0526 27.1934 34.0772 27.2627C34.2337 27.706 34.2405 28.1884 34.0965 28.6359C33.9526 29.0835 33.6659 29.4715 33.2803 29.7404C32.3043 30.4218 30.9523 30.1871 30.2665 29.2169C29.9345 28.7462 29.8065 28.176 29.9056 27.6102C30.0047 27.0444 30.3203 26.5511 30.7932 26.2204C31.1424 25.9763 31.5558 25.8403 31.9817 25.8294C32.4077 25.8185 32.8275 25.9332 33.1887 26.1591C33.315 26.2379 33.4674 26.2636 33.6125 26.2307C33.7577 26.1977 33.884 26.1087 33.9639 25.9831C34.003 25.921 34.0296 25.8517 34.0419 25.7793C34.0541 25.7068 34.052 25.6327 34.0355 25.5611C34.019 25.4895 33.9885 25.4219 33.9458 25.3621C33.9031 25.3023 33.8489 25.2516 33.7865 25.2129C33.2377 24.8696 32.6 24.6954 31.9529 24.712C31.3058 24.7286 30.6779 24.9353 30.1474 25.3062C28.6634 26.3422 28.3043 28.3849 29.3461 29.8591C29.6511 30.2897 30.0551 30.6406 30.5242 30.8822C30.9932 31.1239 31.5135 31.2492 32.0412 31.2476C32.7156 31.2484 33.3738 31.0415 33.9265 30.6551C35.1305 29.8142 35.6279 28.2658 35.1367 26.8884C35.0862 26.7485 34.9824 26.6342 34.8479 26.5706C34.7134 26.507 34.5592 26.4992 34.419 26.5489Z" fill="black"/>
<path d="M36.2439 24.7997C35.4568 23.7727 34.3199 23.0706 33.0492 22.8268C32.2183 22.6628 31.3601 22.7006 30.5468 22.9369C29.7334 23.1732 28.9887 23.6012 28.375 24.185L23.9185 17.8792L25.9345 6.41833C27.0635 8.33697 27.4725 10.5949 27.0883 12.7877L25.9421 19.3037C25.928 19.3843 25.9319 19.4671 25.9533 19.5461C25.9747 19.6251 26.0133 19.6985 26.0662 19.761C26.1191 19.8234 26.1851 19.8735 26.2595 19.9077C26.3339 19.9419 26.4149 19.9593 26.4968 19.9588C26.7652 19.9588 27.0021 19.7677 27.0496 19.4961L28.1959 12.9801C28.4524 11.5154 28.3945 10.013 28.026 8.57241C27.6575 7.13184 26.9869 5.78612 26.0585 4.62455C25.9908 4.54042 25.9004 4.47749 25.7979 4.44322C25.6955 4.40896 25.5854 4.4048 25.4807 4.43123C25.376 4.45767 25.281 4.51359 25.2072 4.59237C25.1333 4.67115 25.0835 4.76947 25.0639 4.87566L23.0043 16.5863L19.8621 12.1397C19.7759 12.0183 19.6452 11.9359 19.4985 11.9104C19.3519 11.885 19.2011 11.9185 19.079 12.0037C19.0186 12.0455 18.9671 12.099 18.9275 12.1608C18.8879 12.2227 18.861 12.2919 18.8482 12.3642C18.8355 12.4366 18.8372 12.5108 18.8534 12.5824C18.8695 12.6541 18.8996 12.7219 18.9421 12.7819L26.0265 22.8077L24.647 24.7294L17.9079 15.1908C16.6229 13.3727 16.0272 11.1565 16.2274 8.93921L17.8443 11.2272C17.9305 11.3486 18.0612 11.431 18.2079 11.4564C18.3545 11.4819 18.5053 11.4484 18.6274 11.3632C18.6877 11.3213 18.7391 11.2678 18.7786 11.2059C18.8182 11.144 18.8451 11.0749 18.8578 11.0026C18.8705 10.9303 18.8688 10.8561 18.8528 10.7845C18.8367 10.7128 18.8067 10.645 18.7643 10.585L16.3541 7.17433C16.2913 7.08641 16.2046 7.01837 16.1043 6.97827C16.004 6.93817 15.8943 6.9277 15.7882 6.9481C15.6821 6.96851 15.5841 7.01893 15.5058 7.09337C15.4275 7.16782 15.3722 7.26317 15.3465 7.3681C15.004 8.8147 14.9731 10.3176 15.256 11.7771C15.5388 13.2365 16.1289 14.6191 16.987 15.833L21.911 22.801L21.4621 25.3517C21.2084 25.2668 20.9487 25.2013 20.6852 25.1557C20.0014 25.0349 19.3006 25.0501 18.6227 25.2006C17.9449 25.3511 17.3034 25.6338 16.735 26.0325C16.1662 26.4266 15.6814 26.9297 15.3089 27.5128C14.9364 28.0959 14.6836 28.7473 14.5652 29.429C14.4438 30.1092 14.4593 30.8068 14.6107 31.4809C14.7621 32.1551 15.0464 32.7922 15.447 33.3552C15.846 33.9223 16.3533 34.4048 16.9397 34.775C17.526 35.1452 18.1798 35.3957 18.8634 35.5121C19.1714 35.5654 19.4794 35.5921 19.7856 35.5921C20.8634 35.5921 21.9136 35.2645 22.8141 34.6361C23.3828 34.2421 23.8675 33.7389 24.2399 33.1558C24.6123 32.5727 24.8651 31.9213 24.9834 31.2397L25.559 27.9659L27.6612 30.9401C28.0695 31.5206 28.5888 32.0143 29.1891 32.3928C29.7894 32.7712 30.4588 33.0269 31.1585 33.145C31.4656 33.1979 31.7728 33.2245 32.0772 33.2245C33.1537 33.226 34.2043 32.8939 35.0843 32.2739C35.6647 31.8701 36.1568 31.3524 36.5306 30.7523C36.9044 30.1521 37.1521 29.4822 37.2585 28.7832C37.4812 27.3619 37.1199 25.9472 36.2439 24.7997ZM23.8772 31.0463C23.7837 31.583 23.5845 32.0958 23.2912 32.5548C22.998 33.0139 22.6164 33.4101 22.1688 33.7205C21.7211 34.0345 21.216 34.2571 20.6822 34.3755C20.1484 34.494 19.5965 34.5059 19.0581 34.4108C17.9625 34.2201 17.0074 33.6174 16.3679 32.713C15.7283 31.8085 15.4821 30.7103 15.6736 29.621C15.767 29.0843 15.9662 28.5716 16.2595 28.1126C16.5527 27.6536 16.9344 27.2574 17.3821 26.9472C17.8297 26.6333 18.3348 26.4108 18.8685 26.2923C19.4022 26.1739 19.954 26.1619 20.4923 26.257C20.8924 26.3262 21.2801 26.4535 21.6434 26.6348C21.7216 26.6739 21.8079 26.6943 21.8954 26.6944C21.9829 26.6944 22.0691 26.6741 22.1474 26.6351C22.2257 26.596 22.2938 26.5392 22.3463 26.4693C22.3988 26.3994 22.4344 26.3182 22.4501 26.2321L22.8261 24.0948L24.647 26.6717L23.8772 31.0463ZM36.1488 28.6117C36.0648 29.162 35.8697 29.6894 35.5754 30.1619C35.2811 30.6345 34.8937 31.0421 34.4368 31.3601C33.5412 31.989 32.4456 32.2317 31.3519 32.0432C30.7977 31.9495 30.2677 31.7469 29.7924 31.4471C29.317 31.1473 28.9058 30.7562 28.5825 30.2965L25.7021 26.2192L25.6994 26.2165L25.3336 25.6983L26.7132 23.7765L27.8585 25.3979C27.9092 25.4693 27.9758 25.5279 28.053 25.5691C28.1303 25.6104 28.216 25.6331 28.3035 25.6354C28.3911 25.6378 28.4779 25.6198 28.5573 25.5828C28.6366 25.5458 28.7063 25.4909 28.7608 25.4223C29.2363 24.8225 29.868 24.3652 30.5864 24.1007C31.3048 23.8363 32.0822 23.7749 32.8332 23.9232C33.8336 24.1144 34.7289 24.6666 35.3488 25.4748C35.6884 25.9158 35.9345 26.4214 36.072 26.9608C36.2096 27.5001 36.2357 28.0619 36.1488 28.6117Z" fill="black"/>
<path d="M20.3422 27.1106C19.9172 27.0353 19.4815 27.0447 19.0601 27.1382C18.6387 27.2317 18.2399 27.4075 17.8866 27.6555C17.533 27.9005 17.2316 28.2133 17 28.5758C16.7684 28.9383 16.6111 29.3432 16.5373 29.767C16.2248 31.5422 17.4244 33.239 19.2097 33.5493C19.6348 33.6248 20.0706 33.6155 20.4921 33.5221C20.9135 33.4287 21.3124 33.2529 21.6657 33.0048C22.0194 32.7598 22.3207 32.4469 22.5523 32.0843C22.7839 31.7217 22.941 31.3167 23.0146 30.8928C23.3271 29.1177 22.128 27.4208 20.3422 27.1106ZM21.9071 30.6999C21.7017 31.8684 20.5791 32.6533 19.4031 32.4484C18.228 32.2444 17.4391 31.1275 17.6444 29.9595C17.8497 28.791 18.9728 28.007 20.1484 28.211C21.324 28.4159 22.1128 29.5319 21.9071 30.6999ZM23.7568 22.3924C24.0302 22.8061 24.692 22.6608 24.7768 22.1777C24.7965 22.0619 24.7793 21.9429 24.7276 21.8375C24.6759 21.732 24.5924 21.6455 24.4888 21.5901C24.3844 21.5353 24.2656 21.5143 24.1487 21.53C24.0318 21.5457 23.9227 21.5973 23.8364 21.6777C23.7414 21.7686 23.6814 21.89 23.6669 22.0206C23.6524 22.1512 23.6842 22.2828 23.7568 22.3924ZM14.7337 24.567C14.8829 24.3904 14.9911 24.183 15.0507 23.9596C15.1103 23.7363 15.1199 23.5025 15.0786 23.275L15.0746 23.2528C15.0077 22.8871 14.8145 22.5565 14.5286 22.3188C14.2427 22.0811 13.8824 21.9514 13.5106 21.9524H10.6524C10.1333 21.9524 9.6564 21.7573 9.36307 21.4564H13.036C13.3462 21.4564 13.5982 21.2062 13.5982 20.8977C13.5982 20.5888 13.3466 20.3386 13.036 20.3386H8.94618C8.87913 20.0201 8.8166 19.7007 8.75862 19.3804H12.7173C13.0275 19.3804 13.2795 19.1301 13.2795 18.8217C13.2795 18.5133 13.028 18.263 12.7173 18.263H8.5764C8.53019 17.9445 8.48855 17.6254 8.45151 17.3057H12.5902C12.9004 17.3057 13.1524 17.0555 13.1524 16.747C13.1524 16.4386 12.9008 16.1884 12.5902 16.1884H8.34351C8.31814 15.8693 8.2974 15.5498 8.28129 15.2301H12.5897C12.9 15.2301 13.152 14.9799 13.152 14.6715C13.152 14.363 12.9004 14.1128 12.5897 14.1128H8.2444C8.23951 13.7934 8.23951 13.474 8.2444 13.1546H12.632C12.9426 13.1546 13.1942 12.9044 13.1942 12.5955C13.194 12.5219 13.1793 12.449 13.151 12.3811C13.1226 12.3131 13.0811 12.2515 13.0289 12.1996C12.9767 12.1477 12.9147 12.1066 12.8466 12.0787C12.7785 12.0507 12.7056 12.0365 12.632 12.0368H8.28129C8.29729 11.7177 8.31818 11.3981 8.34351 11.0795H12.7173C12.7909 11.0798 12.8639 11.0655 12.932 11.0376C13.0001 11.0097 13.062 10.9686 13.1142 10.9167C13.1665 10.8648 13.2079 10.8032 13.2363 10.7352C13.2647 10.6673 13.2793 10.5944 13.2795 10.5208C13.2793 10.4472 13.2647 10.3743 13.2363 10.3064C13.2079 10.2385 13.1665 10.1768 13.1142 10.1249C13.062 10.073 13.0001 10.0319 12.932 10.004C12.8639 9.97608 12.7909 9.96186 12.7173 9.96215H8.45151C8.4883 9.64213 8.52994 9.32269 8.5764 9.00393H12.8502C12.9238 9.00422 12.9967 8.98999 13.0649 8.96207C13.133 8.93414 13.1949 8.89305 13.2471 8.84116C13.2993 8.78928 13.3408 8.7276 13.3692 8.65967C13.3975 8.59173 13.4122 8.51888 13.4124 8.44526C13.4124 8.13637 13.1608 7.88615 12.8502 7.88615H8.75907C8.81685 7.56659 8.87951 7.24704 8.94662 6.92793H13.0364C13.3471 6.92793 13.5986 6.6777 13.5986 6.36926C13.5986 6.06082 13.3471 5.81059 13.0364 5.81059H9.36351C9.65685 5.5097 10.1337 5.31415 10.6528 5.31415H13.5111C13.883 5.31527 14.2434 5.18557 14.5293 4.94775C14.8152 4.70993 15.0084 4.37914 15.0751 4.01326L15.0786 3.99281C15.1201 3.76525 15.1107 3.53133 15.0511 3.30781C14.9916 3.08429 14.8834 2.87671 14.7342 2.69993C14.5847 2.52199 14.3981 2.37899 14.1873 2.28101C13.9766 2.18302 13.747 2.13244 13.5146 2.13281H8.15818C7.52655 2.13357 6.91259 2.34142 6.41039 2.72449C5.90818 3.10757 5.54544 3.64474 5.37773 4.2537C4.73862 6.5937 4.13729 12.0377 4.9004 24.6861C4.90989 24.8345 4.97782 24.973 5.0893 25.0713C5.20078 25.1696 5.34671 25.2197 5.49507 25.2106C5.56857 25.2065 5.64054 25.1879 5.70685 25.1559C5.77315 25.1239 5.83251 25.0792 5.88151 25.0242C5.93051 24.9693 5.96819 24.9052 5.99241 24.8357C6.01662 24.7661 6.02689 24.6925 6.02262 24.619C5.42618 14.7275 5.57818 7.78659 6.46307 4.54659C6.5649 4.17486 6.78585 3.84679 7.09204 3.61269C7.39823 3.37859 7.77275 3.25139 8.15818 3.25059H13.5146C13.7035 3.25059 13.8195 3.35415 13.8715 3.41637C13.9235 3.47815 14.0057 3.60926 13.9711 3.80126L13.9684 3.81593C13.9488 3.92279 13.8923 4.01936 13.8087 4.08874C13.725 4.15813 13.6197 4.19591 13.5111 4.19548H10.6528C9.35729 4.19548 8.23685 4.9737 7.98929 6.04659C6.82529 11.0808 6.82529 16.1857 7.98929 21.2199C8.23729 22.2919 9.35729 23.0706 10.6528 23.0706H13.5111C13.736 23.0706 13.9284 23.2302 13.9684 23.4502L13.9724 23.4724C14.0057 23.6573 13.924 23.7884 13.8715 23.8502C13.8281 23.9024 13.7737 23.9444 13.7122 23.9731C13.6506 24.0017 13.5834 24.0164 13.5155 24.0159H11.6346C10.5515 24.0159 9.64174 24.8568 9.56307 25.9306L8.9684 34.0582C8.94618 34.3368 8.81983 34.5969 8.61452 34.7867C8.4092 34.9764 8.13997 35.0819 7.8604 35.0821C7.58426 35.084 7.31746 34.9822 7.11273 34.7969C6.90799 34.6116 6.78021 34.3562 6.75462 34.0813C6.52248 31.6058 6.32187 29.1276 6.15285 26.647C6.14225 26.4988 6.07327 26.3607 5.96104 26.2632C5.84881 26.1658 5.70249 26.1168 5.55418 26.127C5.4807 26.1317 5.40887 26.1509 5.3428 26.1833C5.27673 26.2158 5.21771 26.261 5.16912 26.3163C5.12054 26.3717 5.08333 26.436 5.05964 26.5057C5.03595 26.5754 5.02624 26.6491 5.03107 26.7226C5.20061 29.2126 5.40196 31.7004 5.63507 34.1853C5.74307 35.3337 6.69996 36.1999 7.8604 36.1999C9.02618 36.1999 10.0048 35.2946 10.0897 34.139L10.6844 26.0115C10.7035 25.7726 10.8118 25.5496 10.9878 25.3869C11.1637 25.2242 11.3945 25.1336 11.6342 25.1333H13.5151C13.7472 25.1337 13.9767 25.0833 14.1873 24.9855C14.3978 24.8876 14.5844 24.7448 14.7337 24.567Z" fill="black"/>
</svg>
