<svg width="40" height="40" viewBox="0 0 40 40" fill="none" xmlns="http://www.w3.org/2000/svg">
<path d="M24.6523 1.10938C30.4606 1.10938 36.269 4.10109 36.269 11.413C36.269 11.413 34.5559 8.94984 31.2463 7.42516C29.4911 6.61633 27.2839 6.26172 24.6523 6.26172V1.10938Z" fill="#9197A8"/>
<path d="M24.6552 6.26172V9.08719C24.6552 10.3714 23.6136 11.413 22.3294 11.413H21.8862H17.1205H16.6784C15.3931 11.413 14.3516 10.3714 14.3516 9.08719V8.78359V3.73875V3.43625C14.3516 2.15094 15.3931 1.10938 16.6784 1.10938H24.6552V6.26172Z" fill="#C0BFD4"/>
<path d="M21.8828 19.1719V36.5126C21.8828 37.8278 20.8158 38.8948 19.5005 38.8948C18.1842 38.8948 17.1172 37.8278 17.1172 36.5126V19.1719H21.8828Z" fill="#DBB67E"/>
<path d="M21.8828 11.4141H17.1172V19.1714H21.8828V11.4141Z" fill="#6E5B3F"/>
<path d="M14.348 3.73438H10.0078V8.77922H14.348V3.73438Z" fill="#9197A8"/>
<path d="M10.0085 3.73516V8.78V9.24984C10.0085 9.95344 9.43898 10.523 8.73539 10.523H5.00359C4.3 10.523 3.73047 9.95344 3.73047 9.24984V3.26641C3.73047 2.56281 4.3 1.99219 5.00359 1.99219H8.73547C9.43906 1.99219 10.0086 2.56281 10.0086 3.26641L10.0085 3.73516Z" fill="#C0BFD4"/>
<path d="M33.3135 2.63703C31.0848 0.936484 28.0098 0 24.6549 0H16.6782C15.0617 0 13.7033 1.12289 13.3396 2.62937H11.0296C10.7494 1.6257 9.82937 0.886406 8.73805 0.886406H5.00617C3.69313 0.886406 2.625 1.95508 2.625 3.26867V9.25203C2.625 10.5651 3.69328 11.6332 5.00617 11.6332H8.73805C9.82969 11.6332 10.7499 10.8938 11.0298 9.89023H13.3394C13.6514 11.1845 14.6981 12.1952 16.0123 12.4543V18.0609H15.1546C14.5427 18.0609 14.0466 18.557 14.0466 19.1689C14.0466 19.7809 14.5427 20.277 15.1546 20.277H16.0123V36.5096C16.0123 38.4341 17.5784 39.9999 19.5037 39.9999C21.4282 39.9999 22.994 38.4341 22.994 36.5096V29.5567C22.994 28.9448 22.4979 28.4487 21.8859 28.4487C21.274 28.4487 20.7779 28.9448 20.7779 29.5567V36.5096C20.7779 37.2122 20.2062 37.7838 19.5037 37.7838C18.8004 37.7838 18.2284 37.2122 18.2284 36.5096V20.277H20.778V22.8809C20.778 23.4929 21.2741 23.989 21.886 23.989C22.498 23.989 22.9941 23.4929 22.9941 22.8809V20.277H23.8528C24.4648 20.277 24.9609 19.7809 24.9609 19.169C24.9609 18.557 24.4648 18.0609 23.8528 18.0609H22.9941V12.4545C24.5703 12.144 25.763 10.7518 25.763 9.08586V7.3925C27.8136 7.4807 29.4651 7.82187 30.7853 8.43031C33.7572 9.7993 35.3482 12.0248 35.3619 12.0444C35.573 12.3479 35.9159 12.5198 36.2718 12.5198C36.3822 12.5198 36.4938 12.5034 36.6032 12.4691C37.0652 12.3241 37.3797 11.896 37.3797 11.4118C37.3795 7.70086 35.9736 4.66656 33.3135 2.63703ZM13.2433 7.67422H11.1192V4.84539H13.2433V7.67422ZM8.90312 9.25211C8.90312 9.3432 8.82914 9.41719 8.73805 9.41719H5.00617C4.91508 9.41719 4.84109 9.3432 4.84109 9.25211V3.26867C4.84109 3.17703 4.91508 3.1025 5.00617 3.1025H8.73805C8.82914 3.1025 8.90312 3.17711 8.90312 3.26867V9.25211ZM18.2283 18.0609V12.5197H20.7779V18.0609H18.2283ZM23.5469 9.08586C23.5469 9.75734 23.0006 10.3036 22.3291 10.3036H16.6782C16.0062 10.3036 15.4594 9.75734 15.4594 9.08586V8.78227V3.73742V3.43492C15.4594 2.76289 16.0062 2.21609 16.6782 2.21609H23.5469V6.26039V9.08586ZM31.7127 6.4175C30.1069 5.67742 28.1526 5.26805 25.763 5.17359V2.25492C29.6064 2.52664 33.4099 4.25039 34.7012 8.25961C33.8972 7.62234 32.9001 6.96453 31.7127 6.4175Z" fill="black"/>
<path d="M21.8815 24.6562C21.2695 24.6562 20.7734 25.1523 20.7734 25.7643V26.1244C20.7734 26.7363 21.2695 27.2324 21.8815 27.2324C22.4934 27.2324 22.9895 26.7363 22.9895 26.1244V25.7643C22.9895 25.1523 22.4934 24.6562 21.8815 24.6562Z" fill="black"/>
</svg>
