<svg width="30" height="30" viewBox="0 0 30 30" fill="none" xmlns="http://www.w3.org/2000/svg">
<g clip-path="url(#clip0_34433_3633)">
<path fill-rule="evenodd" clip-rule="evenodd" d="M28.125 22.5C28.125 23.535 27.285 24.375 26.25 24.375H25.365C25.9209 22.8169 26.25 21.0759 26.25 19.2188C26.25 17.7253 26.0306 16.3106 25.6613 15H26.25C27.285 15 28.125 15.84 28.125 16.875V22.5ZM23.3184 24.375H22.5C21.465 24.375 20.625 23.535 20.625 22.5V16.875C20.625 15.84 21.465 15 22.5 15H23.6794C24.1153 16.2994 24.375 17.7159 24.375 19.2188C24.375 21.0938 23.9794 22.8403 23.3184 24.375ZM4.33969 15C3.96937 16.3106 3.75 17.7253 3.75 19.2188C3.75 21.0759 4.08 22.8169 4.635 24.375H3.75C2.715 24.375 1.875 23.535 1.875 22.5V16.875C1.875 15.84 2.715 15 3.75 15H4.33969ZM6.32063 15H7.5C8.535 15 9.375 15.84 9.375 16.875V22.5C9.375 23.535 8.535 24.375 7.5 24.375H6.68158C6.02064 22.8403 5.625 21.0938 5.625 19.2188C5.625 17.7159 5.88469 16.2994 6.32063 15ZM28.0669 13.6134C28.0931 13.2966 28.125 12.9806 28.125 12.6562C28.125 5.66625 22.2488 0 15 0C7.75125 0 1.875 5.66625 1.875 12.6562C1.875 12.9806 1.90686 13.2966 1.93405 13.6134C0.785614 14.2547 0 15.4669 0 16.875V22.5C0 24.5709 1.67906 26.25 3.75 26.25C3.75 26.25 7.50375 26.2556 7.5 26.25C9.49219 26.1609 11.25 24.5138 11.25 22.5V16.875C11.25 14.8041 9.57094 13.125 7.5 13.125H3.75C3.75 6.87844 8.78719 1.875 15 1.875C21.2137 1.875 26.25 6.43781 26.25 13.125H22.5C20.4291 13.125 18.75 14.8041 18.75 16.875V22.5C18.75 24.5138 20.5078 26.1609 22.5 26.25C22.4963 26.2556 24.375 26.25 24.375 26.25V29.0625C24.375 29.5809 24.7941 30 25.3125 30C25.8309 30 26.25 29.5809 26.25 29.0625V26.25C28.3209 26.25 30 24.5709 30 22.5V16.875C30 15.4669 29.2144 14.2547 28.0669 13.6134Z" fill="#0084BF"/>
</g>
<defs>
<clipPath id="clip0_34433_3633">
<rect width="30" height="30" fill="white"/>
</clipPath>
</defs>
</svg>
