<svg width="35" height="35" viewBox="0 0 35 35" fill="none" xmlns="http://www.w3.org/2000/svg">
<g clip-path="url(#clip0_34433_3641)">
<path d="M30.625 32.8109C30.625 33.4146 30.135 33.9046 29.5312 33.9046H20.7812V25.7015C20.7812 25.3991 20.5368 25.1546 20.2344 25.1546H14.7656C14.4632 25.1546 14.2188 25.3991 14.2188 25.7015V33.9046H5.46875C4.865 33.9046 4.375 33.4146 4.375 32.8109V17.1763L17.5049 4.04688L30.625 17.167V32.8109Z" fill="#F9EBB2"/>
<path d="M7.65625 3.28125H9.84375V6.89117L7.65625 9.0743V3.28125Z" fill="#F76D57"/>
<path d="M19.6875 26.25H15.3125V33.9062H19.6875V26.25Z" fill="#F9EBB2"/>
<path d="M33.3594 18.0469C33.2084 18.0469 33.0302 18.0272 32.9317 17.9282L17.8916 2.88805C17.7849 2.78141 17.6449 2.72781 17.5049 2.72781C17.3649 2.72781 17.2249 2.78141 17.1183 2.88805L2.0732 17.9337C1.97422 18.0327 1.79156 18.0469 1.64062 18.0469C1.3382 18.0469 1.09375 17.8024 1.09375 17.5C1.09375 17.3491 1.1025 17.1598 1.20148 17.0609L16.9723 1.31797C16.9723 1.31797 17.1762 1.09375 17.5049 1.09375C17.8336 1.09375 18.042 1.31141 18.042 1.31141L33.7952 17.0641C33.8942 17.1631 33.9062 17.3491 33.9062 17.5C33.9062 17.8019 33.6618 18.0469 33.3594 18.0469Z" fill="#F76D57"/>
<path d="M34.5685 16.2909L18.8333 0.555078C18.8333 0.555078 18.3209 0 17.5044 0C16.6879 0 16.205 0.541953 16.205 0.541953L10.9375 5.79906V2.73438C10.9375 2.43195 10.693 2.1875 10.3906 2.1875H7.10938C6.80695 2.1875 6.5625 2.43195 6.5625 2.73438V10.1659L0.428203 16.2876C0.13125 16.5845 0 17.0472 0 17.5C0 18.4056 0.734453 19.1406 1.64062 19.1406C2.09344 19.1406 2.54953 19.0034 2.84648 18.7064L3.28125 18.2716V32.8125C3.28125 34.0216 4.25961 35 5.46875 35H29.5312C30.7404 35 31.7188 34.0216 31.7188 32.8125V18.2623L32.1584 18.702C32.4554 18.9979 32.9066 19.1406 33.3594 19.1406C34.2655 19.1406 35 18.4062 35 17.5C35 17.0466 34.8655 16.5878 34.5685 16.2909ZM7.65625 3.28125H9.84375V6.89117L7.65625 9.0743V3.28125ZM19.6875 33.9062H15.3125V26.25H19.6875V33.9062ZM30.625 32.8125C30.625 33.4162 30.135 33.9062 29.5312 33.9062H20.7812V25.7031C20.7812 25.4007 20.5368 25.1562 20.2344 25.1562H14.7656C14.4632 25.1562 14.2188 25.4007 14.2188 25.7031V33.9062H5.46875C4.865 33.9062 4.375 33.4162 4.375 32.8125V17.1779L17.5049 4.04852L30.625 17.1686V32.8125ZM33.3594 18.0469C33.2084 18.0469 33.0302 18.0272 32.9317 17.9282L17.8916 2.88805C17.7849 2.78141 17.6449 2.72781 17.5049 2.72781C17.3649 2.72781 17.2249 2.78141 17.1183 2.88805L2.0732 17.9337C1.97422 18.0327 1.79156 18.0469 1.64062 18.0469C1.3382 18.0469 1.09375 17.8024 1.09375 17.5C1.09375 17.3491 1.1025 17.1598 1.20148 17.0609L16.9723 1.31797C16.9723 1.31797 17.1762 1.09375 17.5049 1.09375C17.8336 1.09375 18.042 1.31141 18.042 1.31141L33.7952 17.0641C33.8942 17.1631 33.9062 17.3491 33.9062 17.5C33.9062 17.8019 33.6618 18.0469 33.3594 18.0469Z" fill="#394240"/>
<path d="M12.5781 17.5H8.20312C7.9007 17.5 7.65625 17.7445 7.65625 18.0469V22.4219C7.65625 22.7243 7.9007 22.9688 8.20312 22.9688H12.5781C12.8805 22.9688 13.125 22.7243 13.125 22.4219V18.0469C13.125 17.7445 12.8805 17.5 12.5781 17.5ZM12.0312 21.875H8.75V18.5938H12.0312V21.875Z" fill="#394240"/>
<path d="M22.4219 22.9688H26.7969C27.0993 22.9688 27.3438 22.7243 27.3438 22.4219V18.0469C27.3438 17.7445 27.0993 17.5 26.7969 17.5H22.4219C22.1195 17.5 21.875 17.7445 21.875 18.0469V22.4219C21.875 22.7243 22.1195 22.9688 22.4219 22.9688ZM22.9688 18.5938H26.25V21.875H22.9688V18.5938Z" fill="#394240"/>
<path d="M19.6875 26.25H15.3125V33.9062H19.6875V26.25Z" fill="#506C7F"/>
<path d="M12.0312 18.5938H8.75V21.875H12.0312V18.5938Z" fill="#45AAB8"/>
<path d="M26.25 18.5938H22.9688V21.875H26.25V18.5938Z" fill="#45AAB8"/>
</g>
<defs>
<clipPath id="clip0_34433_3641">
<rect width="35" height="35" fill="white"/>
</clipPath>
</defs>
</svg>
