<svg width="41" height="36" viewBox="0 0 41 36" fill="none" xmlns="http://www.w3.org/2000/svg">
<path d="M17.7235 34.7927C27.5033 34.7927 35.4314 27.0041 35.4314 17.3963C35.4314 7.78861 27.5033 0 17.7235 0C7.94371 0 0.015625 7.78861 0.015625 17.3963C0.015625 27.0041 7.94371 34.7927 17.7235 34.7927Z" fill="#CBE9FF"/>
<path d="M11.2051 35.8979L9.68913 35.6518C9.37645 35.601 9.19215 35.411 9.27953 35.2294L15.564 22.1724C15.6514 21.9908 15.9788 21.8837 16.2914 21.9345L17.8074 22.1806C18.1201 22.2314 18.3044 22.4214 18.217 22.603L11.9325 35.66C11.8451 35.8416 11.5178 35.9487 11.2051 35.8979Z" fill="#1C3E64"/>
<path d="M24.9555 35.8979L26.4715 35.6518C26.7842 35.601 26.9685 35.411 26.8811 35.2294L20.5966 22.1724C20.5092 21.9908 20.1818 21.8837 19.8692 21.9345L18.3532 22.1806C18.0405 22.2314 17.8562 22.4214 17.9436 22.603L24.2281 35.66C24.3155 35.8416 24.6428 35.9487 24.9555 35.8979Z" fill="#1C3E64"/>
<path d="M17.847 29.4164C25.0242 29.4164 30.8425 23.7005 30.8425 16.6496C30.8425 9.59871 25.0242 3.88281 17.847 3.88281C10.6698 3.88281 4.85156 9.59871 4.85156 16.6496C4.85156 23.7005 10.6698 29.4164 17.847 29.4164Z" fill="#CB5840"/>
<path d="M17.8463 25.0783C22.5831 25.0783 26.423 21.3059 26.423 16.6524C26.423 11.999 22.5831 8.22656 17.8463 8.22656C13.1095 8.22656 9.26953 11.999 9.26953 16.6524C9.26953 21.3059 13.1095 25.0783 17.8463 25.0783Z" fill="#FFAA22"/>
<path d="M17.848 21.3408C20.4824 21.3408 22.618 19.2428 22.618 16.6548C22.618 14.0667 20.4824 11.9688 17.848 11.9688C15.2137 11.9688 13.0781 14.0667 13.0781 16.6548C13.0781 19.2428 15.2137 21.3408 17.848 21.3408Z" fill="white"/>
<path d="M17.8474 19.2121C19.2905 19.2121 20.4603 18.0628 20.4603 16.6451C20.4603 15.2274 19.2905 14.0781 17.8474 14.0781C16.4042 14.0781 15.2344 15.2274 15.2344 16.6451C15.2344 18.0628 16.4042 19.2121 17.8474 19.2121Z" fill="#CB5840"/>
<path d="M32.89 9.74671L33.2225 10.4033L40.5665 6.81084L38.1836 6.69081L39.5229 4.75L32.179 8.34244L32.5128 9.00182L20.6624 14.8042L20.328 14.1451L17.7227 16.7084L21.3745 16.2079L21.0401 15.5488L32.89 9.74671Z" fill="#103947"/>
</svg>
