<svg width="51" height="51" viewBox="0 0 51 51" fill="none" xmlns="http://www.w3.org/2000/svg">
<mask id="mask0_34264_6007" style="mask-type:luminance" maskUnits="userSpaceOnUse" x="0" y="0" width="51" height="51">
<path d="M25.3119 50.4129C39.0368 50.4129 50.1629 39.2868 50.1629 25.5619C50.1629 11.8371 39.0368 0.710938 25.3119 0.710938C11.5871 0.710938 0.460938 11.8371 0.460938 25.5619C0.460938 39.2868 11.5871 50.4129 25.3119 50.4129Z" fill="white"/>
</mask>
<g mask="url(#mask0_34264_6007)">
<path d="M29.3008 32.9452V29.4922H21.3218V32.9452C21.3218 34.3632 19.9998 35.5122 18.3688 35.5122L15.2578 45.4772H35.3658L32.2548 35.5122C30.6228 35.5132 29.3008 34.3632 29.3008 32.9452Z" fill="#FFE7BC"/>
<path d="M25.3104 33.8312C26.8674 33.8312 28.2774 33.5272 29.3054 33.0352C29.3044 33.0052 29.3004 32.9752 29.3004 32.9452V29.4922H21.3214V32.9452C21.3214 32.9752 21.3174 33.0052 21.3164 33.0352C22.3434 33.5272 23.7534 33.8312 25.3104 33.8312Z" fill="#FFEDD2"/>
<path d="M15.1095 21.9866C15.4595 23.2746 14.9675 24.5286 14.0115 24.7876C13.0555 25.0476 11.9975 24.2136 11.6475 22.9266C11.2985 21.6386 11.7895 20.3846 12.7455 20.1256C13.7015 19.8656 14.7605 20.6996 15.1095 21.9866Z" fill="#FFE7BC"/>
<path d="M35.5112 21.9866C35.1612 23.2746 35.6532 24.5286 36.6092 24.7876C37.5652 25.0476 38.6232 24.2136 38.9732 22.9266C39.3232 21.6386 38.8312 20.3846 37.8752 20.1256C36.9182 19.8656 35.8602 20.6996 35.5112 21.9866Z" fill="#FFE7BC"/>
<path d="M15.5498 22.1301C15.8848 23.0301 15.4138 23.9061 14.4988 24.0871C13.5838 24.2681 12.5708 23.6861 12.2368 22.7871C11.9018 21.8871 12.3728 21.0111 13.2878 20.8301C14.2018 20.6481 15.2148 21.2311 15.5498 22.1301Z" fill="#FFEDD2"/>
<path d="M35.0763 22.1301C34.7423 23.0301 35.2123 23.9061 36.1273 24.0871C37.0423 24.2681 38.0553 23.6861 38.3893 22.7871C38.7243 21.8871 38.2533 21.0111 37.3383 20.8301C36.4243 20.6481 35.4113 21.2311 35.0763 22.1301Z" fill="#FFEDD2"/>
<path d="M25.3112 32.4564C32.0695 32.4564 37.5482 26.0827 37.5482 18.2204C37.5482 10.3581 32.0695 3.98438 25.3112 3.98438C18.5529 3.98438 13.0742 10.3581 13.0742 18.2204C13.0742 26.0827 18.5529 32.4564 25.3112 32.4564Z" fill="#FFE7BC"/>
<path d="M20.4523 13.7939C22.7593 13.7939 30.2613 14.0329 32.8133 11.6119C34.5143 15.9969 35.1723 18.0439 37.5643 20.0809C42.8693 13.0299 39.4233 5.98394 34.0793 4.99594C32.7483 1.71094 28.7653 1.71094 25.3123 1.71094C21.5443 1.71094 17.3043 4.28193 13.0753 3.98593C10.0863 7.12193 8.92826 16.1929 13.1313 20.0809C15.2533 16.3889 14.1943 13.7939 20.4523 13.7939Z" fill="#B28056"/>
<path d="M28.1003 26.867C28.1003 27.431 26.8803 28.857 25.3763 28.857C23.8713 28.857 22.6523 27.432 22.6523 26.867C22.6523 26.303 23.8723 26.813 25.3763 26.813C26.8813 26.814 28.1003 26.303 28.1003 26.867Z" fill="white"/>
<path d="M17.0704 21.0495C16.9374 21.0495 16.8034 20.9985 16.7014 20.8975C16.4964 20.6935 16.4954 20.3625 16.6984 20.1575C16.7594 20.0955 18.2414 18.6435 21.5604 18.9695C21.8484 18.9975 22.0584 19.2535 22.0304 19.5415C22.0024 19.8295 21.7504 20.0425 21.4584 20.0115C18.6724 19.7365 17.4524 20.8835 17.4414 20.8955C17.3394 20.9985 17.2044 21.0495 17.0704 21.0495Z" fill="#B57852"/>
<path d="M20.9846 22.2501C20.9846 22.8281 20.5156 23.2971 19.9376 23.2971C19.3596 23.2971 18.8906 22.8281 18.8906 22.2501C18.8906 21.6721 19.3596 21.2031 19.9376 21.2031C20.5156 21.2031 20.9846 21.6721 20.9846 22.2501Z" fill="#B57852"/>
<path d="M33.5494 21.0495C33.6824 21.0495 33.8164 20.9985 33.9184 20.8975C34.1244 20.6935 34.1254 20.3625 33.9214 20.1575C33.8604 20.0955 32.3774 18.6435 29.0584 18.9695C28.7704 18.9975 28.5604 19.2535 28.5884 19.5415C28.6164 19.8295 28.8684 20.0425 29.1604 20.0115C31.9464 19.7365 33.1664 20.8835 33.1774 20.8955C33.2794 20.9985 33.4144 21.0495 33.5494 21.0495Z" fill="#B57852"/>
<path d="M29.6328 22.2501C29.6328 22.8281 30.1018 23.2971 30.6798 23.2971C31.2578 23.2971 31.7268 22.8281 31.7268 22.2501C31.7268 21.6721 31.2578 21.2031 30.6798 21.2031C30.1008 21.2031 29.6328 21.6721 29.6328 22.2501Z" fill="#B57852"/>
<path d="M39.058 35.5H32.032C32.237 37.114 29.522 39.645 25.311 39.645C21.1 39.645 18.385 37.115 18.59 35.5H11.564C10.456 35.5 9.505 36.29 9.302 37.379L6.875 50.413H43.746L41.319 37.379C41.117 36.29 40.166 35.5 39.058 35.5Z" fill="#60A2BF"/>
<path d="M33.1819 45.4609H26.0859V50.4089H33.1819V45.4609Z" fill="#60A2BF"/>
</g>
</svg>
