<svg width="40" height="40" viewBox="0 0 40 40" fill="none" xmlns="http://www.w3.org/2000/svg">
<path d="M28.4449 5.90625H11.5569C9.02484 8.20367 7.43359 11.5191 7.43359 15.2054V39.9968H32.568V15.2055C32.568 11.5192 30.977 8.20367 28.4449 5.90625Z" fill="#FCB5B5"/>
<path d="M19.9987 0C15.3384 0 11.5547 2.05742 11.5547 6.71578V18.3368C11.5547 20.3636 12.2705 22.2248 13.4638 23.6813L26.5355 23.6834C27.7279 22.2269 28.4427 20.3647 28.4427 18.337V6.71578C28.4427 2.05742 24.6695 0 19.9987 0Z" fill="#F9545B"/>
<path d="M26.5366 23.6816C24.9893 25.5715 22.638 26.7791 19.9998 26.7791C17.3673 26.7791 15.0141 25.5715 13.4648 23.6796C15.0074 21.7638 17.3491 20.5312 19.9998 20.5312C22.6515 20.5313 24.9941 21.7648 26.5366 23.6816Z" fill="#FC7576"/>
</svg>
