<svg width="54" height="40" viewBox="0 0 54 40" fill="none" xmlns="http://www.w3.org/2000/svg">
<path d="M41.252 19.0332C41.1031 20.2161 41.152 21.5148 41.1964 22.7072C41.259 24.4042 41.4253 26.427 41.5107 27.8276C41.5465 28.4265 41.568 28.9117 41.5603 29.2091C41.5603 29.2091 35.4041 29.773 33.5002 28.8662L33.5079 27.2799L34.1701 20.1313L34.2533 19.2383C34.2533 18.9591 34.2236 18.6681 34.1769 18.373C34.0648 17.6624 33.8527 16.9299 33.7137 16.2927C33.5994 15.7661 33.4763 15.2436 33.3673 14.7137C33.2764 14.274 33.1429 13.7666 33.2246 13.3047C33.2285 13.2814 33.2331 13.2602 33.2391 13.2388C33.2948 13.0402 33.4292 12.9171 33.5665 12.8077C33.5725 12.8024 33.5764 12.8003 33.5764 12.8003C33.632 12.7569 33.6878 12.7142 33.7389 12.6708C33.9884 12.4562 34.2471 12.264 34.5065 12.0763C34.5874 12.0177 34.6682 11.9595 34.7499 11.902C35.2025 11.5844 35.6609 11.2873 35.9875 11.078C36.0455 11.0407 36.0997 11.0067 36.1485 10.9761C36.3354 10.8583 36.4981 10.7891 36.4981 10.7891H38.321C38.321 10.7891 38.8359 11.0811 39.4701 11.4751C39.4846 11.4845 39.4983 11.4932 39.5121 11.5016C39.6671 11.5972 39.8281 11.7002 39.9891 11.8041C40.324 12.0218 40.6621 12.2513 40.9551 12.47C41.0115 12.5124 41.0666 12.5538 41.1193 12.5952C41.2856 12.7268 41.6969 12.9679 41.7464 13.2566C41.7563 13.3162 41.7517 13.3778 41.7479 13.4393C41.6488 14.8504 41.5465 16.2904 41.4053 17.6793C41.3702 18.0275 41.3328 18.3696 41.2946 18.6923C41.29 18.7317 41.2847 18.771 41.2801 18.8091C41.2711 18.8855 41.2619 18.9598 41.252 19.0332Z" fill="#2E5E7C"/>
<path d="M36.4336 11.8031C36.7552 12.1353 37.1369 12.3016 37.5188 12.3016C37.8843 12.3016 38.251 12.1483 38.5655 11.8415L38.6047 11.8029L38.5697 11.2185L38.551 10.8994L38.4272 8.82812H36.6286L36.5017 10.7686L36.4861 11.0078L36.4336 11.8031Z" fill="#CC7256"/>
<path d="M36.6305 8.82812L36.5391 10.2274C37.1238 10.6593 37.8938 10.6412 38.513 10.2333L38.4291 8.82812H36.6305Z" fill="#A04F39"/>
<path d="M34.7539 11.8869C34.8261 12.0126 34.9028 12.134 34.9821 12.251C35.0087 12.2903 35.0359 12.3286 35.0636 12.3672C35.295 12.6899 35.5514 12.974 35.8068 13.2581C36.3635 13.8759 36.9144 14.3432 37.4712 14.9618C38.405 14.2663 39.2229 13.2712 39.8464 12.08C39.8965 11.9842 39.9455 11.8874 39.9931 11.7893C39.8317 11.6845 39.6709 11.5821 39.5163 11.4863C39.5021 11.4776 39.488 11.4689 39.4741 11.4602C39.0964 11.2254 38.7606 11.0271 38.5513 10.9043C38.4089 10.8215 38.3246 10.7734 38.3246 10.7734C38.3246 10.7734 36.3396 10.8432 36.1527 10.961C36.1037 10.9916 36.0497 11.0256 35.9913 11.0627C35.6649 11.2714 35.2063 11.5693 34.7539 11.8869Z" fill="#CC7256"/>
<path d="M38.2266 10.9806C38.3398 11.0606 38.4537 11.1398 38.5675 11.219C38.9899 11.5119 39.4157 11.7976 39.8438 12.0762C39.8939 11.9804 39.943 11.8835 39.9905 11.7854C39.8291 11.6806 39.6683 11.5781 39.5137 11.4823C39.4996 11.4736 39.4855 11.4649 39.4715 11.4562C39.0939 11.2213 38.7581 11.023 38.5488 10.9001L38.425 8.82812H38.3477C38.3279 9.43435 38.2945 10.2537 38.2484 10.7692C38.2418 10.8474 38.2345 10.918 38.2266 10.9806Z" fill="#E1836C"/>
<path d="M34.7539 11.8821C34.8261 12.0078 34.9028 12.1291 34.9821 12.2462C35.4637 11.7934 35.966 11.3616 36.4863 11.0078C36.5494 10.9641 36.6131 10.9227 36.6768 10.8821C36.6774 10.8465 36.6785 10.8087 36.6789 10.7686C36.6888 10.2707 36.704 9.44157 36.7238 8.82812H36.6287L36.5019 10.7686C36.5019 10.7686 36.3394 10.8384 36.1525 10.9562C36.1035 10.9868 36.0495 11.0208 35.9911 11.0578C35.6649 11.2666 35.2063 11.5645 34.7539 11.8821Z" fill="#E1836C"/>
<path d="M39.3359 8.23301C39.6835 8.24068 39.9633 7.9207 40.1223 7.64084C40.1581 7.57772 40.1876 7.51664 40.2106 7.46169C40.3347 7.16318 40.4536 6.07749 40.2221 5.78333C40.0598 5.57759 39.9097 5.814 39.8344 5.9745V5.97501C39.8023 6.04325 39.7837 6.09743 39.7837 6.09743L39.3359 8.23301Z" fill="#E1836C"/>
<path d="M39.3359 8.23058C39.6835 8.23825 39.9633 7.91826 40.1223 7.63841C40.1364 7.60953 40.1489 7.58193 40.1599 7.55535C40.284 7.25684 40.4028 6.17116 40.1713 5.87725C40.04 5.71036 39.9165 5.8338 39.8342 5.97207V5.97258C39.8021 6.04081 39.7835 6.095 39.7835 6.095L39.3359 8.23058Z" fill="#CC7256"/>
<path d="M40.231 6.66798C40.2363 6.75717 40.2209 6.84662 40.1974 6.9302C40.0981 7.28493 39.868 7.53079 39.6484 7.75825C39.7228 7.59034 39.7615 7.39355 39.7654 7.1965C39.7669 7.12801 39.7641 7.059 39.7694 6.99102C39.7909 6.71627 40.199 6.14047 40.231 6.66798Z" fill="#E1836C"/>
<path d="M39.5391 7.84068C39.5391 7.84068 39.5433 7.83736 39.5512 7.83123C39.5591 7.82458 39.5714 7.8164 39.5859 7.8026C39.6149 7.77551 39.6558 7.73129 39.6964 7.66255C39.737 7.59405 39.7763 7.5 39.8009 7.38499C39.824 7.27024 39.8324 7.1335 39.8078 6.99651C39.8055 6.97913 39.8014 6.96253 39.7974 6.94617L39.7944 6.9339C39.7937 6.93083 39.7943 6.93288 39.7941 6.93237H39.7939C39.7939 6.93237 39.7937 6.93288 39.7946 6.93058L39.7987 6.92061L39.8071 6.90093C39.8128 6.8879 39.8185 6.87486 39.8244 6.86234C39.8475 6.81174 39.8719 6.76471 39.8965 6.72126C39.9211 6.67781 39.9463 6.6382 39.9709 6.60242C39.9957 6.5669 40.0192 6.53341 40.0421 6.50965C40.0649 6.48562 40.0889 6.47131 40.1104 6.47003C40.1319 6.46926 40.1512 6.48077 40.1636 6.49483C40.1763 6.50914 40.1826 6.52575 40.1848 6.53751C40.1871 6.54952 40.1864 6.55642 40.1868 6.55642C40.1868 6.55642 40.1884 6.55003 40.1879 6.53674C40.1875 6.52371 40.1837 6.50377 40.1715 6.48358C40.1594 6.46416 40.1398 6.44448 40.1119 6.4386C40.084 6.43374 40.0526 6.44524 40.0234 6.46773C39.994 6.49048 39.9668 6.52013 39.9382 6.55284C39.9096 6.58606 39.8804 6.62389 39.8517 6.66683C39.8231 6.70977 39.7948 6.7573 39.7686 6.80969C39.7619 6.82273 39.7555 6.83628 39.7491 6.84982L39.7397 6.87052L39.7271 6.89991L39.7183 6.92061C39.7195 6.92802 39.7216 6.93569 39.7232 6.94336L39.7307 6.97607C39.734 6.99038 39.7375 7.00469 39.7395 7.01977C39.761 7.13861 39.7579 7.25874 39.7432 7.3648C39.7272 7.47061 39.6988 7.56236 39.6678 7.63392C39.6365 7.70548 39.6035 7.75711 39.5791 7.79059C39.567 7.80746 39.5563 7.81896 39.5495 7.82765C39.5426 7.83633 39.5391 7.84068 39.5391 7.84068Z" fill="#A04F39"/>
<path d="M36.0612 7.70108C35.7217 7.59808 35.5016 7.19759 35.3927 6.87455C35.3683 6.80171 35.3494 6.73271 35.3362 6.67214C35.2642 6.34193 35.3266 5.24731 35.6002 5.03442C35.7918 4.88567 35.8993 5.16374 35.9464 5.34366V5.34418C35.9664 5.42085 35.9758 5.47963 35.9758 5.47963L36.0612 7.70108Z" fill="#E1836C"/>
<path d="M36.0627 7.7005C35.7233 7.59751 35.5031 7.19702 35.3943 6.87397C35.3853 6.84126 35.3776 6.81034 35.3713 6.78121C35.2994 6.45101 35.3618 5.35638 35.6353 5.144C35.7907 5.02311 35.8907 5.18284 35.948 5.34334V5.34385C35.968 5.42052 35.9774 5.47931 35.9774 5.47931L36.0627 7.7005Z" fill="#CC7256"/>
<path d="M35.446 5.8821C35.4262 5.96721 35.4266 6.05947 35.4357 6.1479C35.4743 6.52488 35.6579 6.83744 35.8343 7.12854C35.7893 6.94146 35.784 6.73777 35.8125 6.54455C35.8224 6.47734 35.8363 6.41115 35.8422 6.34316C35.8666 6.06893 35.5637 5.37862 35.446 5.8821Z" fill="#E1836C"/>
<path d="M35.9273 7.25032C35.9273 7.25032 35.9238 7.24571 35.917 7.23728C35.9104 7.22833 35.8998 7.21633 35.888 7.19844C35.8642 7.16291 35.8317 7.10694 35.8034 7.02669C35.7751 6.94695 35.7522 6.84293 35.7472 6.72332C35.7435 6.60422 35.7577 6.46851 35.8041 6.34303C35.8093 6.32692 35.8159 6.31211 35.8225 6.29728L35.8274 6.28629C35.8287 6.28348 35.828 6.28527 35.8282 6.28501C35.8282 6.28501 35.8284 6.28553 35.8278 6.28297L35.8254 6.27198L35.8205 6.25C35.817 6.23543 35.8137 6.22112 35.81 6.20707C35.7957 6.15058 35.7797 6.09691 35.7628 6.04682C35.7459 5.99672 35.7279 5.95021 35.7099 5.90753C35.6918 5.86485 35.6741 5.82498 35.656 5.79456C35.6378 5.7639 35.6167 5.74243 35.5961 5.73425C35.5754 5.72658 35.5546 5.73195 35.5403 5.7414C35.5256 5.75137 35.5168 5.76543 35.5128 5.77642C35.5085 5.78741 35.508 5.79431 35.5078 5.79431C35.5082 5.79431 35.5073 5.78741 35.51 5.77489C35.5124 5.76236 35.5196 5.74396 35.5346 5.72837C35.5495 5.71329 35.5719 5.70052 35.6 5.70358C35.6279 5.70767 35.6567 5.72914 35.6813 5.76006C35.7063 5.7915 35.7278 5.82906 35.7503 5.87021C35.7727 5.91162 35.7949 5.95788 35.8159 6.00874C35.8368 6.0596 35.8564 6.1148 35.8735 6.17435C35.8779 6.18917 35.8818 6.20425 35.8858 6.21958L35.8917 6.24258L35.8992 6.27505L35.9044 6.29805C35.902 6.30495 35.8987 6.31185 35.8957 6.31875L35.8831 6.34814C35.8774 6.36092 35.8717 6.37396 35.8673 6.38776C35.8269 6.49663 35.8102 6.61471 35.8071 6.72256C35.8054 6.83067 35.8179 6.92906 35.8364 7.00854C35.855 7.08803 35.8788 7.14885 35.8972 7.18923C35.9062 7.20968 35.9148 7.22399 35.9198 7.23447C35.9246 7.24469 35.9273 7.25032 35.9273 7.25032Z" fill="#A04F39"/>
<path d="M35.8896 5.99548C35.8896 5.99548 36.0269 8.40917 36.3541 9.05302C36.6803 9.69661 37.5445 9.94751 37.5445 9.94751C37.5445 9.94751 38.4261 9.97766 38.8493 9.45466C39.2734 8.93191 39.7516 6.61047 39.7516 6.61047C39.8152 6.42447 39.8642 6.18558 39.9014 5.93723L39.9018 5.93289C39.9993 5.28086 40.0182 4.56113 40.0182 4.56113C40.0182 4.56113 40.1128 3.18681 39.6839 2.52686C39.5001 2.24403 39.1983 2.15921 38.9126 2.15486C38.4334 2.14694 37.9583 2.07029 37.4905 1.92593C37.2116 1.83932 36.9039 1.82603 36.6787 2.04295C36.4141 2.29742 36.2487 2.77086 36.1503 3.17736C36.0523 3.57925 36.0194 3.91727 36.0194 3.91727C36.0194 3.91727 35.776 5.26757 35.8896 5.99548Z" fill="#CC7256"/>
<path d="M36.4 8.81884C36.7819 10.0169 38.1864 9.98467 38.7849 9.32447C39.777 7.67396 39.94 5.20637 39.8413 2.85938C40.0867 3.56276 40.0181 4.56124 40.0181 4.56124C40.0181 4.56124 39.9819 5.93786 39.7513 6.61084C39.7513 6.61084 39.2731 8.93228 38.8493 9.45477C38.4258 9.97751 37.544 9.94788 37.544 9.94788C37.544 9.94788 36.6806 9.69621 36.3539 9.05287C36.0273 8.40953 35.8898 5.99611 35.8898 5.99611C35.8114 5.49559 35.9018 4.70151 35.9658 4.25362C35.9398 5.74215 35.8825 7.19541 36.4 8.81884Z" fill="#E1836C"/>
<path d="M38.0357 6.83686C38.0234 6.82919 38.0102 6.83456 37.9878 6.83609C37.9331 6.83967 37.8723 6.84171 37.8179 6.83021C37.7392 6.81309 37.6703 6.77348 37.5986 6.72798C37.5068 6.66971 37.5363 6.77195 37.5549 6.86702C37.5758 6.9741 37.6061 7.07761 37.645 7.17422C37.7965 7.18802 37.9501 7.14866 38.0882 7.06074C38.0908 7.02905 38.0638 6.87468 38.0487 6.85143C38.0445 6.84402 38.0403 6.83941 38.0357 6.83686Z" fill="#E1836C"/>
<path d="M38.0555 5.07031C38.0555 5.07031 38.0146 5.2004 37.9742 5.42351C37.9349 5.64612 37.8995 5.96533 37.9169 6.31802C37.9254 6.49411 37.9452 6.66049 37.9709 6.80872C37.9779 6.84552 37.9845 6.88157 37.9911 6.91658C37.9947 6.93396 37.9984 6.95082 38.0021 6.96769L38.0076 6.98354C38.0111 6.99018 38.0091 6.99376 38.0056 6.99683C38.0025 7.00041 38.0001 7.00373 37.9951 7.00833C37.9768 7.02341 37.9584 7.03619 37.9408 7.04871C37.8701 7.09702 37.8079 7.12487 37.7642 7.14199C37.7205 7.15835 37.6953 7.16525 37.6953 7.16525C37.6953 7.16525 37.7206 7.16985 37.7669 7.16985C37.8132 7.16934 37.8811 7.16295 37.9632 7.13279C37.9835 7.12487 38.005 7.11618 38.0267 7.10519C38.0417 7.09701 38.0596 7.08602 38.0768 7.07528L38.1036 7.05817C38.1108 7.05689 38.1055 7.04743 38.106 7.04181L38.1036 7.02213C38.1001 6.99504 38.0966 6.96718 38.0932 6.93932C38.0913 6.92246 38.0895 6.90559 38.0875 6.88821C38.0842 6.85345 38.0809 6.81792 38.0774 6.78138C38.0641 6.63519 38.0529 6.47495 38.0451 6.30627C38.0283 5.96917 38.0307 5.66145 38.0377 5.43629C38.046 5.21164 38.0555 5.07031 38.0555 5.07031Z" fill="#A04F39"/>
<path d="M38.5391 5.65923C38.5391 5.65923 38.5512 5.64338 38.5732 5.61476C38.5952 5.58664 38.6272 5.54703 38.6679 5.50282C38.6718 5.49847 38.676 5.49438 38.6801 5.49004C38.7607 5.40519 38.8745 5.30679 39.0067 5.26641C39.0502 5.25235 39.0933 5.2475 39.1346 5.24877C39.2242 5.25158 39.3059 5.28609 39.366 5.33056C39.4102 5.36276 39.4444 5.39752 39.4671 5.4241C39.4787 5.43688 39.4868 5.44838 39.4926 5.45579C39.4989 5.4632 39.5018 5.46703 39.5018 5.46703C39.5018 5.46703 39.5002 5.46192 39.497 5.4517C39.4937 5.44148 39.4899 5.42564 39.4825 5.40698C39.4686 5.36915 39.4442 5.31548 39.4038 5.25976C39.3836 5.23165 39.359 5.2043 39.3302 5.17823C39.3012 5.15344 39.2683 5.13019 39.2314 5.11281C39.1945 5.09569 39.1541 5.08367 39.1113 5.07933C39.1064 5.07882 39.1014 5.07856 39.0963 5.07856C39.0581 5.07652 39.0181 5.08163 38.9791 5.09338C38.8905 5.11996 38.8148 5.179 38.7559 5.24315C38.7416 5.25874 38.7282 5.27484 38.7159 5.29095C38.6762 5.34155 38.6455 5.39445 38.6213 5.44199C38.5897 5.50512 38.5695 5.56007 38.5567 5.59866C38.5446 5.63725 38.5391 5.65923 38.5391 5.65923Z" fill="#161818"/>
<path d="M38.6713 5.58333C38.6388 5.97538 38.7183 6.31043 38.8489 6.33164C38.9794 6.3526 39.112 6.05179 39.1444 5.65949C39.1569 5.50947 39.1529 5.36762 39.1358 5.24903C39.1268 5.18488 39.114 5.12712 39.0976 5.07856C39.0594 5.07652 39.0194 5.08163 38.9805 5.09339C38.8918 5.11997 38.8162 5.17901 38.7573 5.24316C38.7429 5.25875 38.7295 5.27484 38.7172 5.29095C38.7024 5.35228 38.6901 5.41899 38.6811 5.49004C38.6772 5.52045 38.6739 5.55163 38.6713 5.58333Z" fill="#161818"/>
<path d="M39.4224 5.3125L39.4494 5.72756L38.9688 5.57293L39.4224 5.3125Z" fill="white"/>
<path d="M38.6562 5.17624C38.6562 5.17624 38.6586 5.17317 38.6629 5.16755C38.6673 5.16192 38.6731 5.15298 38.6818 5.14301C38.6983 5.12205 38.7236 5.09394 38.7567 5.0648C38.8222 5.00628 38.9241 4.94852 39.0396 4.94546C39.1551 4.94264 39.2584 4.99478 39.3256 5.04998C39.3594 5.07733 39.3855 5.10417 39.4026 5.1241C39.4114 5.13382 39.4176 5.14224 39.4222 5.14761C39.4268 5.15323 39.429 5.15605 39.429 5.15605C39.429 5.15605 39.4273 5.15247 39.424 5.14557C39.4205 5.13892 39.4161 5.12819 39.409 5.11566C39.3954 5.09011 39.3735 5.05509 39.3418 5.01778C39.3102 4.98047 39.2682 4.94239 39.2164 4.91351C39.165 4.88437 39.1035 4.86597 39.0385 4.86725C38.9735 4.86955 38.9127 4.89127 38.8621 4.92296C38.8112 4.95465 38.7701 4.99503 38.7396 5.03388C38.7089 5.07273 38.688 5.10877 38.6752 5.13509C38.6684 5.14787 38.6641 5.15886 38.6608 5.16576C38.6579 5.17266 38.6562 5.17624 38.6562 5.17624Z" fill="#A04F39"/>
<path d="M37.2652 5.44261C37.2652 5.44261 37.2559 5.42319 37.2393 5.38843C37.2224 5.35393 37.1978 5.30538 37.1655 5.2494C37.1624 5.24404 37.1591 5.23866 37.1558 5.23304C37.0914 5.12468 36.9966 4.9928 36.8745 4.91153C36.8345 4.88418 36.7934 4.86553 36.7528 4.85377C36.6651 4.82822 36.5801 4.83563 36.5141 4.85991C36.4657 4.87728 36.4268 4.90029 36.4003 4.91869C36.3869 4.92764 36.3772 4.93607 36.3702 4.94143C36.363 4.94654 36.3594 4.94936 36.3594 4.94936C36.3594 4.94936 36.3618 4.94476 36.3665 4.93581C36.3715 4.92686 36.3779 4.91281 36.388 4.89697C36.4078 4.86451 36.4403 4.82004 36.4888 4.77863C36.513 4.75768 36.5415 4.73902 36.5738 4.72266C36.6061 4.70759 36.6419 4.69557 36.6807 4.69046C36.7194 4.68535 36.7607 4.68663 36.8029 4.69608C36.8079 4.69711 36.8127 4.69838 36.8176 4.69991C36.8551 4.71014 36.8931 4.72777 36.9292 4.7518C37.0113 4.80572 37.0752 4.88725 37.122 4.96878C37.1334 4.98846 37.1437 5.00839 37.1532 5.02807C37.1835 5.08992 37.2046 5.15126 37.2204 5.20519C37.2408 5.27675 37.2514 5.33656 37.2575 5.37821C37.2634 5.41962 37.2652 5.44261 37.2652 5.44261Z" fill="#161818"/>
<path d="M37.1523 5.33005C37.1196 5.7221 36.9873 6.02317 36.8567 6.00221C36.7262 5.98125 36.6465 5.64619 36.6792 5.25389C36.6917 5.10387 36.7189 4.96714 36.7548 4.85699C36.7741 4.79718 36.7962 4.74529 36.8198 4.70312C36.8573 4.71335 36.8953 4.73098 36.9315 4.75501C37.0135 4.80893 37.0774 4.89046 37.1242 4.97199C37.1356 4.99167 37.1459 5.0116 37.1554 5.03128C37.1598 5.09569 37.1609 5.1647 37.1578 5.23677C37.1567 5.26693 37.1549 5.29836 37.1523 5.33005Z" fill="#161818"/>
<path d="M36.4617 4.82031L36.3672 5.21569L36.8605 5.21799L36.4617 4.82031Z" fill="white"/>
<path d="M37.2373 4.93388C37.2373 4.93388 37.2357 4.9303 37.2324 4.9234C37.2289 4.9165 37.2247 4.90602 37.2179 4.8935C37.2052 4.86794 37.1852 4.83241 37.1578 4.79357C37.1037 4.71562 37.0139 4.62719 36.9019 4.58732C36.7899 4.5477 36.6807 4.56585 36.6063 4.59806C36.5689 4.6139 36.5391 4.63179 36.5193 4.64584C36.509 4.65223 36.5017 4.65888 36.4964 4.66246C36.491 4.66629 36.4883 4.66834 36.4883 4.66834C36.4883 4.66834 36.4905 4.66527 36.4949 4.65965C36.4993 4.65428 36.5055 4.64508 36.5145 4.63537C36.532 4.61492 36.559 4.58758 36.5959 4.56151C36.6328 4.53518 36.68 4.51141 36.735 4.49966C36.7899 4.48765 36.8527 4.48918 36.9159 4.51116C36.9788 4.53391 37.0345 4.57454 37.0785 4.62156C37.1228 4.66859 37.1562 4.72073 37.1795 4.76852C37.203 4.81606 37.2173 4.85797 37.2256 4.88762C37.2302 4.90219 37.2324 4.9142 37.2344 4.92187C37.2362 4.92979 37.2373 4.93388 37.2373 4.93388Z" fill="#A04F39"/>
<path d="M38.8767 7.01916C38.8997 7.14771 39.1437 7.17404 39.4218 7.07794C39.7 6.98185 39.9071 6.79988 39.8841 6.67132C39.8612 6.54277 39.6172 6.51645 39.339 6.61255C39.0607 6.70864 38.8538 6.89061 38.8767 7.01916Z" fill="#E1836C"/>
<path d="M35.6953 5.97153C35.6489 6.08705 35.8141 6.33853 36.0642 6.53328C36.3144 6.72803 36.5547 6.79217 36.6012 6.6764C36.6476 6.56088 36.4824 6.30939 36.2323 6.11465C35.9821 5.92016 35.7418 5.85601 35.6953 5.97153Z" fill="#E1836C"/>
<path d="M38.5469 4.8764C38.5469 4.8764 38.5632 4.86566 38.5924 4.8465C38.6214 4.82835 38.6618 4.80279 38.7106 4.77826C38.8081 4.72663 38.9346 4.6814 39.0681 4.64613C39.2014 4.61009 39.3282 4.58735 39.4274 4.59552C39.4768 4.5991 39.5194 4.60958 39.5493 4.62031C39.5792 4.6313 39.597 4.63999 39.597 4.63999C39.597 4.63999 39.5919 4.61546 39.575 4.57457C39.5583 4.53393 39.5278 4.4777 39.4786 4.42377C39.3822 4.31438 39.2052 4.22979 39.0176 4.28091C38.9247 4.30595 38.8417 4.35988 38.7758 4.4248C38.7095 4.48972 38.6603 4.56537 38.6262 4.63412C38.5915 4.70235 38.5724 4.76471 38.561 4.80765C38.5509 4.85186 38.5469 4.8764 38.5469 4.8764Z" fill="#FF8035"/>
<path d="M36.5781 3.71644C36.5781 3.71644 36.5952 3.72155 36.6259 3.73075C36.6558 3.7397 36.6978 3.75401 36.7459 3.77318C36.8432 3.81126 36.9596 3.87541 37.0718 3.95362C37.1834 4.03131 37.2872 4.12153 37.3621 4.21123C37.3993 4.25519 37.43 4.29711 37.4504 4.32829C37.4713 4.36023 37.4831 4.37838 37.4831 4.37838C37.4831 4.37838 37.4873 4.35436 37.4898 4.30963C37.4924 4.26491 37.4913 4.19897 37.4777 4.11872C37.4643 4.03872 37.4366 3.94544 37.3894 3.85547C37.3426 3.76551 37.2752 3.68041 37.1911 3.62137C37.1072 3.56361 37.0189 3.53933 36.9404 3.53907C36.8616 3.53856 36.7926 3.55977 36.7382 3.58763C36.6837 3.61549 36.6435 3.6482 36.6172 3.67376C36.5912 3.69957 36.5781 3.71644 36.5781 3.71644Z" fill="#FF8035"/>
<path d="M38.6882 7.88903C38.6882 7.88903 37.9927 7.53991 36.8047 7.68278C36.8047 7.68278 37.0316 8.62712 37.7173 8.65472C38.4032 8.68207 38.6882 7.88903 38.6882 7.88903Z" fill="white"/>
<path d="M40.486 5.18911C40.4361 5.36285 40.336 5.49085 40.229 5.58436C40.1774 5.62882 40.1225 5.68017 40.0676 5.73153C40.0096 5.78569 39.9505 5.83858 39.8941 5.88099L39.9145 4.57617C39.7608 4.50514 39.6415 4.31071 39.5705 4.08945C39.4987 3.86819 39.4759 3.61499 39.4513 3.36895C39.3569 3.45275 39.2523 3.5156 39.1442 3.53145C39.036 3.54626 38.9238 3.50998 38.8376 3.4111C38.7693 3.33113 38.7246 3.21642 38.7199 3.08893C38.403 3.44458 37.9034 3.29843 37.7099 2.78641C37.4981 3.09659 37.1854 3.21821 36.9032 3.13747C36.7296 3.08791 36.5684 2.96629 36.431 2.79689C36.2886 3.07411 36.1718 3.36946 36.1206 3.65792C36.0247 4.19318 35.9561 4.81046 35.8837 5.35365C35.8542 5.28441 35.5538 4.6615 35.5292 4.34137C35.529 4.336 35.5287 4.33166 35.5283 4.32629C35.5182 4.18909 35.52 4.0409 35.5707 3.9244C35.623 3.8038 35.7438 3.74581 35.8116 3.84059C35.6913 3.66635 35.6642 3.38555 35.6688 3.12801C35.6757 2.72688 35.7517 2.30557 35.9405 2.02299C35.966 1.98416 36.0007 1.95095 36.0405 1.92182C36.0012 1.72611 35.9851 1.52017 36.0022 1.31424C36.0271 1.00637 36.0934 0.759816 36.1905 0.567938C36.7844 -0.613224 38.5275 0.239622 38.9114 1.38246C39.0026 1.21971 39.18 1.0493 39.3006 0.942755C39.4205 0.836213 39.5758 0.797631 39.6944 0.899574C39.8181 1.00663 39.8756 1.24296 39.871 1.46371C39.8666 1.68472 39.8121 1.89728 39.7581 2.10373C39.9397 1.99948 40.1512 2.00894 40.3241 2.13362C40.3895 2.18165 40.4515 2.24553 40.4954 2.33546C40.5435 2.43255 40.5655 2.55212 40.5685 2.67527V2.67629C40.5707 2.80047 40.553 2.9277 40.5215 3.04191C40.4572 3.27135 40.3443 3.46092 40.234 3.64437C40.3347 3.59276 40.4524 3.60528 40.5328 3.70646C40.614 3.80764 40.6424 4.00794 40.58 4.14106C40.5606 4.18424 40.5327 4.21745 40.5051 4.24837C40.4438 4.31812 40.3788 4.38072 40.3118 4.43565C40.4774 4.568 40.5626 4.92058 40.486 5.18911Z" fill="#FF8035"/>
<path d="M40.0706 5.73016C40.0125 5.78432 39.9534 5.83721 39.8971 5.87962L39.9174 4.5748C39.7638 4.50377 39.6444 4.30934 39.5734 4.08808C39.5016 3.86682 39.4788 3.61362 39.4542 3.36758C39.3599 3.45138 39.2552 3.51424 39.1471 3.53008C39.039 3.54489 38.9268 3.50861 38.8405 3.40973C38.7722 3.32976 38.7276 3.21505 38.7228 3.08756C38.4059 3.44321 37.9064 3.29706 37.7129 2.78504C37.501 3.09522 37.1883 3.21684 36.9062 3.1361C36.7325 3.08654 36.5713 2.96492 36.434 2.79552C36.2915 3.07274 36.1747 3.36809 36.1235 3.65655C36.0277 4.19181 35.959 4.80909 35.8867 5.35228C35.8571 5.28304 35.5568 4.66013 35.5322 4.34C35.532 4.33463 35.5316 4.33029 35.5312 4.32492C35.5922 4.41971 35.6511 4.52805 35.7514 4.4841C35.8538 4.43811 35.8997 4.25313 35.9161 4.09012C35.9436 3.817 35.9322 3.53672 35.8826 3.27356C35.9023 3.32082 35.9511 3.31802 35.9805 3.28276C36.0099 3.24673 36.0236 3.18975 36.0352 3.13457C36.1006 2.81698 36.1149 2.47718 36.0765 2.1527C36.1753 2.38469 36.4233 2.34942 36.5513 2.1463C36.6787 1.9419 36.7114 1.63965 36.7139 1.35938C36.8294 1.73955 36.977 2.11922 37.2133 2.32515C37.4496 2.53006 37.7957 2.49429 37.9565 2.14477C38.027 2.41534 38.1979 2.61386 38.387 2.64324C38.5761 2.67365 38.7751 2.53364 38.8877 2.29143C38.8757 2.55306 38.9819 2.81213 39.1386 2.90513C39.2947 2.99813 39.4902 2.91867 39.6007 2.71606C39.6162 3.0155 39.6397 3.31623 39.7089 3.59395C39.7774 3.8727 39.8963 4.1287 40.0656 4.27102C40.0889 4.29094 40.1157 4.31139 40.1266 4.34869C40.139 4.39161 40.128 4.44041 40.1179 4.48512C40.0281 4.88549 40.0135 5.32085 40.0706 5.73016Z" fill="#FF642C"/>
<path d="M40.5695 2.67609C40.499 2.57233 40.4212 2.48108 40.3356 2.40825C40.0984 2.2043 39.8012 2.14884 39.5454 2.3101C39.62 2.09721 39.6727 1.86566 39.7006 1.62925C39.7083 1.56281 39.714 1.49252 39.6998 1.42889C39.6769 1.32078 39.5981 1.25765 39.5241 1.26276C39.4496 1.26685 39.3793 1.32768 39.3222 1.40358C39.21 1.55003 39.1362 1.75346 39.034 1.9155C38.9203 2.09619 38.7617 2.22679 38.6027 2.20123C38.443 2.1767 38.2967 1.95818 38.3115 1.71104C38.3415 1.81813 38.4112 1.89812 38.4876 1.89863C38.563 1.89991 38.6398 1.81224 38.6543 1.69621C38.6653 1.60548 38.6402 1.51527 38.6099 1.43732C38.516 1.19733 38.369 1.01869 38.2181 0.864326C37.8731 0.513933 37.476 0.263719 37.0591 0.234328C36.8824 0.221038 36.7029 0.251197 36.5309 0.325824C36.4207 0.372594 36.3034 0.499103 36.1914 0.568108C36.7853 -0.613412 38.5283 0.2397 38.9122 1.38288C39.0035 1.22008 39.1808 1.04961 39.3015 0.943038C39.4213 0.836464 39.5767 0.797871 39.6953 0.899845C39.819 1.00693 39.8765 1.24334 39.8719 1.46415C39.8675 1.68523 39.8129 1.89787 39.759 2.10437C39.9405 2.0001 40.152 2.00955 40.325 2.13427C40.3903 2.18232 40.4524 2.24621 40.4963 2.33617C40.5446 2.43303 40.5666 2.5529 40.5695 2.67609Z" fill="#FFA049"/>
<path d="M36.0391 20.4545C36.0391 20.4545 36.0835 20.4548 36.1624 20.4512C36.2408 20.4481 36.3543 20.4435 36.4944 20.4379C36.7687 20.4277 37.1474 20.4139 37.5656 20.3985C37.7736 20.3891 37.9717 20.3801 38.152 20.372C38.2425 20.3679 38.3285 20.364 38.409 20.3604C38.4887 20.3574 38.5618 20.3579 38.6284 20.3622C38.7614 20.3709 38.8686 20.4003 38.9415 20.4351C38.9598 20.443 38.976 20.4514 38.9899 20.4594C39.0041 20.4668 39.0158 20.4737 39.0252 20.4798C39.0443 20.4918 39.0544 20.4982 39.0544 20.4982C39.0544 20.4982 39.0472 20.4864 39.0336 20.464C39.0268 20.4525 39.018 20.4392 39.0068 20.4241C38.996 20.4085 38.9828 20.3911 38.9672 20.373C38.9059 20.2976 38.8019 20.2068 38.662 20.1378C38.5925 20.1031 38.5144 20.0729 38.4311 20.0484C38.3475 20.0236 38.2602 20.0034 38.1667 19.9853C37.9802 19.95 37.7731 19.9306 37.5559 19.9398C37.1208 19.9569 36.7341 20.0865 36.4652 20.2122C36.3304 20.2756 36.2238 20.3367 36.1511 20.3817C36.0785 20.4269 36.0391 20.4545 36.0391 20.4545Z" fill="#1A5069"/>
<path d="M38.6866 27.2113C38.8608 27.2208 40.2539 26.58 40.2539 26.58L40.871 25.6921C42.5154 24.3288 46.1081 20.0891 46.2495 19.3456C46.3675 18.7265 44.5889 16.0121 44.0126 15.1953L43.954 15.2944L43.6419 15.7965L42.956 16.901L42.7284 17.2676L43.8217 19.0285C43.3285 19.3967 41.1076 23.1336 40.5032 24.1594L39.2801 23.8973C39.2801 23.8973 38.6532 24.2476 38.3723 24.6091C38.0914 24.9706 39.2201 24.5227 39.2201 24.5227L39.6259 24.6788C39.6259 24.6788 38.2954 25.405 37.9454 25.2435C37.9454 25.2435 37.9069 25.5738 37.9509 25.7471C37.9579 25.7734 37.9664 25.7956 37.977 25.8132L37.9774 25.8138C37.9774 25.8138 37.7881 25.9563 38.0108 26.3286C38.0152 26.3355 38.0194 26.3421 38.0235 26.3495C38.0426 26.3787 38.0587 26.4068 38.0739 26.4308C38.0952 26.4645 38.114 26.4944 38.1301 26.5212C38.2658 26.7371 38.2658 26.7371 38.2658 26.7371C38.2658 26.7371 38.2698 26.7445 38.2777 26.7593C38.2888 26.7795 38.308 26.812 38.3317 26.8501C38.416 26.9888 38.5678 27.2057 38.6866 27.2113Z" fill="#CC7256"/>
<path d="M38.6896 27.2113C38.8639 27.2208 40.257 26.58 40.257 26.58L40.874 25.6921C42.5185 24.3288 46.1112 20.0891 46.2525 19.3456C46.3706 18.7265 44.5919 16.0121 44.0156 15.1953L43.9571 15.2944L43.645 15.7965C44.2433 16.5137 45.2808 18.1343 45.7555 19.0122C45.3706 20.4279 44.453 21.5324 43.58 22.4353C43.244 22.7831 42.9075 23.1303 42.5715 23.478C41.8195 24.256 41.062 25.0383 40.2252 25.6257C39.5709 26.0861 38.8591 26.4247 38.1328 26.5207C38.2685 26.7366 38.2685 26.7366 38.2685 26.7366C38.2685 26.7366 38.2725 26.744 38.2804 26.7588C38.2914 26.779 38.3107 26.8115 38.3344 26.8495C38.419 26.9888 38.5709 27.2057 38.6896 27.2113Z" fill="#E1836C"/>
<path d="M37.9788 25.8256C37.9875 25.8285 37.9959 25.831 38.0053 25.8341C38.1575 25.8806 38.3761 25.9153 38.6159 25.8837C38.8557 25.852 39.0651 25.7602 39.2087 25.6736C39.2807 25.6304 39.3374 25.5915 39.3754 25.5616C39.4129 25.5322 39.434 25.5156 39.434 25.5156C39.434 25.5156 39.4105 25.5246 39.3692 25.5412C39.3279 25.5596 39.2671 25.5818 39.1927 25.6071C39.0438 25.659 38.8368 25.7132 38.6065 25.7449C38.3761 25.7748 38.1652 25.7755 38.0119 25.7648C37.9909 25.7633 37.9713 25.7617 37.9531 25.76C37.9599 25.786 37.9684 25.8085 37.9788 25.8256Z" fill="#A04F39"/>
<path d="M38.0078 26.3352C38.012 26.3423 38.0163 26.3493 38.0205 26.3564C38.0392 26.3861 38.0557 26.4134 38.0712 26.4382C38.1183 26.4558 38.1707 26.4714 38.227 26.4837C38.3205 26.5018 38.4242 26.5108 38.5329 26.4998C38.6416 26.487 38.744 26.4576 38.8338 26.42C38.9236 26.3807 39.0016 26.3344 39.0638 26.2874C39.1266 26.2419 39.1745 26.1995 39.2061 26.1673C39.2377 26.1348 39.2555 26.1172 39.2555 26.1172C39.2555 26.1172 39.2349 26.1284 39.1988 26.1476C39.1633 26.1688 39.1101 26.1946 39.0446 26.2235C38.9794 26.2531 38.9003 26.2802 38.8129 26.3055C38.7247 26.3285 38.628 26.349 38.5254 26.3597C38.4227 26.3705 38.3247 26.371 38.2353 26.3659C38.1505 26.36 38.0728 26.3503 38.0078 26.3352Z" fill="#A04F39"/>
<path d="M38.2812 26.7711C38.2928 26.7913 38.3114 26.8238 38.3349 26.8619C38.4322 26.8882 38.553 26.9056 38.6839 26.8943C38.8506 26.8795 38.9973 26.8218 39.0982 26.7671C39.1487 26.7397 39.1886 26.7142 39.215 26.6942C39.2418 26.6751 39.257 26.6641 39.257 26.6641C39.257 26.6641 39.1902 26.6779 39.085 26.6991C38.9804 26.72 38.8364 26.7407 38.6776 26.7551C38.5256 26.7678 38.3859 26.7719 38.2812 26.7711Z" fill="#A04F39"/>
<path d="M44.1602 19.2651C44.1602 19.2651 44.166 19.2773 44.1783 19.2978C44.1904 19.3185 44.2095 19.3456 44.2362 19.3739C44.2885 19.4309 44.3759 19.4892 44.4781 19.4897C44.5802 19.4897 44.6678 19.4319 44.7203 19.3752C44.7469 19.3468 44.7662 19.3198 44.7783 19.2993C44.7906 19.2791 44.7965 19.2669 44.7965 19.2669C44.7965 19.2669 44.753 19.2607 44.6931 19.2533C44.6327 19.2464 44.5578 19.2344 44.4783 19.2344C44.399 19.2339 44.3241 19.2456 44.2635 19.2523C44.2037 19.2589 44.1602 19.2651 44.1602 19.2651Z" fill="#A04F39"/>
<path d="M41.5536 12.9375C41.5536 12.9375 43.2449 13.4812 45.0903 16.3573L42.968 19.1402L40.5703 17.1805L41.5536 12.9375Z" fill="#2E5E7C"/>
<path d="M53.7728 26.7188H51.1696C51.0437 26.7188 50.9414 26.8608 50.9414 27.0363C50.9414 27.2116 51.0435 27.3539 51.1696 27.3539H51.1944C51.185 27.3869 51.1793 27.4229 51.1793 27.4607V31.0939C51.1793 31.2538 51.2724 31.3834 51.3874 31.3834H53.555C53.6699 31.3834 53.763 31.2538 53.763 31.0939V27.4607C53.763 27.4229 53.7575 27.3871 53.748 27.3539H53.7728C53.8987 27.3539 54.001 27.2119 54.001 27.0363C54.0008 26.8608 53.8987 26.7188 53.7728 26.7188Z" fill="#E5E5E5"/>
<path d="M51.3984 29.2462V30.9379C51.3984 31.0092 51.4375 31.067 51.486 31.067H53.4559C53.5042 31.067 53.5435 31.0092 53.5435 30.9379V29.2462C53.5435 29.1749 53.5044 29.1172 53.4559 29.1172H51.486C51.4377 29.1172 51.3984 29.1749 51.3984 29.2462Z" fill="#3DB3C5"/>
<path opacity="0.3" d="M52.8553 31.0593H52.0938V27.7744L52.1754 27.3516H52.7736L52.8553 27.7744V31.0593Z" fill="#FAFAFA"/>
<path d="M53.2598 27.216H51.6868C51.6361 27.216 51.5891 27.1785 51.5638 27.1174L51.3201 26.5313C51.2652 26.3995 51.3337 26.2344 51.4431 26.2344H53.5034C53.6128 26.2344 53.6813 26.3995 53.6264 26.5313L53.3828 27.1174C53.3573 27.1785 53.3104 27.216 53.2598 27.216Z" fill="#FFB044"/>
<path opacity="0.3" d="M53.5437 26.7266L53.3805 27.1189C53.3552 27.1797 53.3083 27.2178 53.2573 27.2178H51.6848C51.6338 27.2178 51.587 27.1797 51.5616 27.1189L51.3984 26.7266H53.5437Z" fill="#FFB044"/>
<path d="M50.9629 27.654V31.0414C50.9629 31.2256 50.8555 31.375 50.7232 31.375H48.9976C48.8652 31.375 48.7578 31.2256 48.7578 31.0414V27.654C48.7578 27.4698 48.8652 27.3203 48.9976 27.3203H50.7232C50.8555 27.3203 50.9629 27.4698 50.9629 27.654Z" fill="#9BCE3F"/>
<path d="M50.9628 28.3828H48.7578V30.3878H50.9628V28.3828Z" fill="#FAFAFA"/>
<path opacity="0.5" d="M50.3901 27.3206V31.3751H48.9976C48.8652 31.3751 48.7578 31.2256 48.7578 31.0414V27.654C48.7578 27.4698 48.8652 27.3203 48.9976 27.3203H50.3901V27.3206Z" fill="#9BCE3F"/>
<path opacity="0.5" d="M49.4595 27.3206V31.3751H48.9976C48.8652 31.3751 48.7578 31.2256 48.7578 31.0414V27.654C48.7578 27.4698 48.8652 27.3203 48.9976 27.3203H49.4595V27.3206Z" fill="#9BCE3F"/>
<path d="M49.972 26.2656H49.75V26.9007H49.972V26.2656Z" fill="#E5E5E5"/>
<path d="M50.4013 27.3289H49.3203C49.3203 27.048 49.4839 26.8203 49.6857 26.8203H50.036C50.2375 26.8203 50.4013 27.048 50.4013 27.3289Z" fill="#1E0C29"/>
<path d="M50.6365 25.9873C50.6064 25.9454 50.5656 25.9219 50.523 25.9219H49.4652C49.3767 25.9219 49.3047 26.0218 49.3047 26.1452C49.3047 26.2684 49.3765 26.3684 49.4652 26.3684H50.4567L50.6352 26.6168L50.8676 26.3088L50.6365 25.9873Z" fill="#1E0C29"/>
<path d="M52.4677 33.5625H1.51562V40.0026H52.4677V33.5625Z" fill="#985933"/>
<path opacity="0.5" d="M52.4677 35.7422H1.51562V37.1049H52.4677V35.7422Z" fill="#985933"/>
<path d="M53.9878 31.375H0V35.7399H53.9878V31.375Z" fill="#B46E46"/>
<path d="M41.5601 29.2035C41.5601 29.2035 35.4038 29.7673 33.5 28.8606L33.5077 27.2742L34.1699 20.1257L34.7499 16.1562L34.8118 16.7168L35.0772 19.1305C35.0772 19.1305 34.2127 24.372 34.9506 25.8692C35.6572 27.3018 39.6006 29.7313 41.5103 27.822C41.5463 28.4209 41.5678 28.9061 41.5601 29.2035Z" fill="#1A5069"/>
<path d="M45.306 18.2903L43.6245 21.2507L41.6398 23.4807L36.6432 30.1727L35.406 31.1798L33.5781 30.9828C33.5781 30.9828 33.6071 30.6798 33.694 30.2414C33.7878 29.7674 33.949 29.1356 34.2141 28.5582C34.7239 27.4465 40.2465 22.6889 40.2465 22.6889C40.2465 22.6889 40.8906 21.6171 41.2056 21.0892C41.5207 20.5614 42.819 20.3746 42.819 20.3746C42.819 20.3746 44.0232 18.9479 44.2683 18.5751C44.3665 18.4254 44.5534 18.3503 44.742 18.314C45.022 18.2586 45.306 18.2903 45.306 18.2903Z" fill="#FF7D6F"/>
<path d="M44.7431 18.3125L43.3484 20.9732C43.3484 20.9732 42.2878 21.8435 41.8525 21.8435C41.4172 21.8435 40.5471 24.0387 40.5471 24.0387C39.7586 24.5683 35.1556 30.097 35.1556 30.097L33.6953 30.2401C33.7891 29.7662 33.9503 29.1343 34.2154 28.5569C34.7253 27.4452 40.2479 22.6876 40.2479 22.6876C40.2479 22.6876 40.8919 21.6158 41.207 21.088C41.522 20.5601 42.8204 20.3733 42.8204 20.3733C42.8204 20.3733 44.0246 18.9466 44.2697 18.5739C44.3679 18.4239 44.5546 18.349 44.7431 18.3125Z" fill="#FFA07F"/>
<path d="M40.475 26.1691C40.3228 26.2876 38.8724 26.5968 38.8724 26.5968L38.033 26.1956C36.1229 26.0201 31.5388 24.5124 31.1704 23.9393C30.8632 23.4626 31.5623 19.9201 31.8093 18.8281L31.8937 18.8795L32.3356 19.1296L33.3072 19.6805L33.6296 19.8631L33.2299 22.1228C33.7893 22.1394 36.9873 24.0656 37.8605 24.5975L38.8647 23.5911C38.8647 23.5911 39.5376 23.507 39.9059 23.6516C40.2741 23.7963 39.1223 24.1103 39.1223 24.1103L38.8116 24.5058C38.8116 24.5058 40.2339 24.3121 40.493 23.947C40.493 23.947 40.6351 24.2168 40.6523 24.399C40.6547 24.4268 40.6544 24.4519 40.6507 24.4743L40.6505 24.4751C40.6505 24.4751 40.8657 24.4825 40.7886 24.9549C40.7869 24.9639 40.7853 24.9726 40.7842 24.9818C40.7768 25.0198 40.7715 25.0551 40.7656 25.086C40.7577 25.1294 40.7507 25.1678 40.745 25.2023C40.6946 25.4805 40.6946 25.4805 40.6946 25.4805C40.6946 25.4805 40.6935 25.4897 40.6911 25.5078C40.6878 25.5329 40.6812 25.574 40.6727 25.6228C40.6435 25.7999 40.5789 26.0888 40.475 26.1691Z" fill="#CC7256"/>
<path d="M40.475 26.1691C40.3228 26.2876 38.8724 26.5968 38.8724 26.5968L38.033 26.1956C36.1229 26.0201 31.5388 24.5124 31.1704 23.9393C30.8632 23.4626 31.5623 19.9201 31.8093 18.8281L31.8937 18.8795L32.3356 19.1296C32.0366 20.1467 31.6407 22.2462 31.5043 23.3284C32.3092 24.3466 33.4871 24.7511 34.5595 25.004C34.9724 25.1016 35.3853 25.1982 35.7982 25.2958C36.722 25.5137 37.6521 25.7322 38.5893 25.7271C39.3226 25.7237 40.067 25.5758 40.7456 25.2025C40.6951 25.4808 40.6951 25.4807 40.6951 25.4807C40.6951 25.4807 40.694 25.4899 40.6916 25.5081C40.6883 25.5331 40.6817 25.5743 40.6733 25.6231C40.6435 25.7999 40.5789 26.0888 40.475 26.1691Z" fill="#E1836C"/>
<path d="M40.6516 24.4733C40.6448 24.4812 40.6382 24.4889 40.6308 24.4976C40.5104 24.6351 40.3268 24.8043 40.1028 24.9277C39.8789 25.0509 39.6624 25.1015 39.5062 25.1153C39.428 25.1222 39.3648 25.1235 39.3211 25.1209C39.2781 25.1184 39.2539 25.1169 39.2539 25.1169C39.2539 25.1169 39.2778 25.11 39.32 25.0985C39.3628 25.0887 39.4243 25.0701 39.4988 25.0456C39.6484 24.9978 39.8506 24.915 40.0661 24.7979C40.2811 24.6791 40.4695 24.5462 40.6026 24.4398C40.6207 24.4253 40.6376 24.4115 40.6534 24.3984C40.6553 24.4258 40.6551 24.4513 40.6516 24.4733Z" fill="#A04F39"/>
<path d="M40.7924 24.9531C40.791 24.9621 40.7895 24.971 40.788 24.98C40.7809 25.0183 40.7752 25.0533 40.7695 25.085C40.7333 25.1305 40.6917 25.1775 40.6454 25.224C40.5681 25.2992 40.4785 25.3728 40.3781 25.4318C40.2771 25.4891 40.1761 25.5277 40.084 25.5509C39.9912 25.5726 39.9064 25.5808 39.8357 25.5783C39.7649 25.5775 39.7085 25.5698 39.6698 25.5611C39.631 25.5522 39.6094 25.5476 39.6094 25.5476C39.6094 25.5476 39.6312 25.5448 39.67 25.5389C39.7085 25.5353 39.7643 25.5248 39.8321 25.509C39.8998 25.4942 39.9791 25.4684 40.0652 25.4356C40.1513 25.4004 40.2442 25.3574 40.3392 25.3022C40.4341 25.247 40.5216 25.1857 40.5997 25.1244C40.6733 25.0653 40.7394 25.0076 40.7924 24.9531Z" fill="#A04F39"/>
<path d="M40.6934 25.5078C40.6898 25.5331 40.6837 25.5737 40.6753 25.6226C40.5971 25.7074 40.4952 25.7994 40.3747 25.872C40.2212 25.964 40.0718 26.0054 39.964 26.0205C39.9101 26.0282 39.8664 26.0305 39.8362 26.0294C39.8061 26.0292 39.7891 26.0292 39.7891 26.0292C39.7891 26.0292 39.8531 25.9993 39.9537 25.9517C40.0538 25.9042 40.1889 25.8316 40.3351 25.744C40.4746 25.6594 40.6005 25.5748 40.6934 25.5078Z" fill="#A04F39"/>
<path d="M33.0039 22.5469C33.0039 22.5469 33.0026 22.5614 32.9984 22.5873C32.9943 22.6133 32.9861 22.6496 32.9718 22.6918C32.9437 22.7759 32.8847 22.883 32.7939 22.9479C32.7028 23.0125 32.606 23.0164 32.5407 22.9987C32.5076 22.9903 32.4817 22.9783 32.4643 22.9675C32.4469 22.9573 32.4375 22.9502 32.4375 22.9502C32.4375 22.9502 32.4742 22.9172 32.5251 22.8727C32.5767 22.8283 32.6394 22.7702 32.7103 22.7201C32.7808 22.6695 32.8515 22.6327 32.9075 22.6003C32.9633 22.5691 33.0039 22.5469 33.0039 22.5469Z" fill="#A04F39"/>
<path d="M34.8397 16.5075C34.8397 16.5128 34.8305 16.5902 34.8153 16.7198C34.7198 17.5077 34.1736 20.1284 34.1736 20.1284L33.7653 19.9541L31.5503 19.0101L31.1016 18.8189C31.1016 18.8189 32.0546 14.2624 32.0546 14.103C32.0546 14.0669 32.1346 13.9778 32.2584 13.8641C32.263 13.8587 32.2676 13.8546 32.2721 13.8513C32.6667 13.4883 33.4708 12.8786 33.57 12.8043C33.576 12.7989 33.5799 12.7969 33.5799 12.7969L33.9392 13.1875L34.0003 13.2535C34.0003 13.2535 34.5399 15.3166 34.7534 16.1577V16.1587C34.8068 16.3674 34.8397 16.499 34.8397 16.5075Z" fill="#2E5E7C"/>
<path d="M35.0633 12.3873L33.9393 13.1955L32.4438 14.2701L31.5503 19.0177L31.1016 18.8266C31.1016 18.8266 32.0546 14.2701 32.0546 14.1107C32.0928 14.0481 32.1636 13.9663 32.2584 13.8718C32.263 13.8664 32.2676 13.8623 32.2721 13.859C32.9459 13.1901 34.7536 11.9062 34.7536 11.9062L35.0633 12.3873Z" fill="#50809A"/>
<path d="M39.9904 11.8047C39.9904 11.8047 43.8411 13.6683 45.086 16.3538L44.8296 16.69L39.8438 12.0952L39.9904 11.8047Z" fill="#50809A"/>
<path d="M2.14539 29.8558C2.14539 29.8558 1.20375 33.2968 1.65245 33.9213C2.10114 34.5457 8.01684 35.1116 9.15824 33.9213L8.4951 27.75L2.14539 29.8558Z" fill="#FAFAFA"/>
<path d="M1.88672 33.4171C1.88672 33.4171 5.88462 32.357 8.82576 33.6821C8.82576 33.6821 4.54366 34.8555 1.88672 33.4171Z" fill="#E5E5E5"/>
<path d="M49.3276 31.3804L46.3248 31.8661L43.4831 31.5337L35.7295 31.4701L33.8996 31.371L32.8047 29.0715C32.8047 29.0715 33.1952 28.6875 33.7722 28.3484C34.0371 28.1936 34.3417 28.0475 34.6659 27.9532C35.6957 27.6527 42.7985 29.6129 42.7985 29.6129C42.7985 29.6129 43.9146 29.4716 44.4622 29.3996C45.0099 29.3275 46.1619 30.4558 46.1619 30.4558C46.1619 30.4558 47.927 30.6047 48.332 30.5756C48.7313 30.5473 49.3098 31.3557 49.3274 31.3799L49.3276 31.3804Z" fill="#FFA07F"/>
<path d="M49.3284 31.3799L48.512 30.7943L46.1775 30.6679C46.1775 30.6679 44.6981 29.7639 44.4761 29.7036C44.2541 29.6433 42.8047 29.8597 42.8047 29.8597C40.2926 29.2016 36.1599 28.6402 33.7734 28.3484C34.0384 28.1936 34.3429 28.0475 34.6672 27.9532C35.6969 27.6527 42.7997 29.6129 42.7997 29.6129C42.7997 29.6129 43.9158 29.4716 44.4634 29.3996C45.0111 29.3275 46.1631 30.4558 46.1631 30.4558C46.1631 30.4558 47.9282 30.6047 48.3332 30.5756C48.7323 30.5473 49.3108 31.3557 49.3284 31.3799Z" fill="#FFD39C"/>
<path d="M23.4597 24.7574C24.6677 25.0341 28.4113 26.9289 28.4113 26.9289C28.4113 26.9289 34.5031 26.8594 35.1523 27.1333C35.1523 27.1333 35.1319 28.0117 35.0765 29.0585C35.0208 30.1075 34.9298 31.3265 34.789 32.001L27.8628 32.0146L19.1172 31.1523L19.2163 27.5784L20.1943 26.0405C20.1943 26.0405 22.9298 24.6361 23.4597 24.7574Z" fill="#FAFAFA"/>
<path d="M26.113 28.5801C27.1106 29.1317 28.108 29.6836 29.1061 30.2357C29.2994 29.9626 29.4929 29.6903 29.6866 29.4179C29.6794 29.6772 29.7125 29.9386 29.7826 30.1788C29.9135 29.932 30.0438 29.6852 30.1747 29.4381C30.2473 29.6829 30.3198 29.9271 30.3923 30.1714C31.1895 29.5623 32.1524 29.6606 33.061 29.6568C33.7519 29.654 34.5007 29.5421 35.0765 29.061C35.0208 30.11 34.9298 31.329 34.789 32.0035L27.8628 32.0171L19.1172 31.1548L19.1506 29.9544C19.7005 29.5428 20.7881 29.4534 21.286 29.285C22.1398 28.995 22.9932 28.7053 23.8471 28.4158C24.2875 28.2664 24.7402 28.1159 25.1902 28.1925C25.5099 28.247 25.8135 28.4146 26.113 28.5801Z" fill="#E5E5E5"/>
<path d="M6.64301 24.9039C6.8121 24.5467 6.94319 24.1369 7.18773 23.8788C7.5887 23.456 8.19437 23.5947 8.57679 24.05C8.95921 24.505 9.15272 25.2007 9.2491 25.8896C9.38331 26.8477 9.33631 27.9251 8.89183 28.6783C8.28818 27.931 7.56244 27.3773 6.78603 27.0715C6.51836 26.9662 6.21084 26.8538 6.08673 26.5061C5.97492 26.1933 5.94849 25.7309 6.08324 25.5505C6.26408 25.3086 6.48494 25.2375 6.64301 24.9039Z" fill="#3F0727"/>
<path d="M7.10938 27.9375L7.35612 27.9661L8.68716 28.1225L9.50819 28.2186L9.72464 28.2439L9.98773 28.2746L9.78908 29.6153L9.68756 30.3003L9.68021 30.301L9.24638 30.3315L8.62823 30.3749L8.42004 30.0401L7.10938 27.9375Z" fill="#FFA07F"/>
<path d="M7.10938 27.9375L8.68716 28.1225C9.0773 28.7328 9.20544 29.7968 9.24638 30.3317L8.62841 30.3749L7.10938 27.9375Z" fill="#FF7D6F"/>
<path d="M20.1971 26.0469L20.0537 31.2089L9.84342 30.656C9.80083 30.5669 9.74447 30.4445 9.6837 30.3042C9.58089 30.0651 9.46541 29.773 9.38536 29.4966C9.3044 29.2212 9.25832 28.9608 9.29283 28.7843C9.30899 28.7017 9.34185 28.5983 9.39124 28.48C9.42428 28.4 9.46449 28.3136 9.51186 28.2224C9.88051 27.5101 10.6674 26.5119 11.6955 26.1687C13.0499 25.7165 18.1438 26.7766 18.1438 26.7766L19.9687 26.1284L20.1971 26.0469Z" fill="#FFA07F"/>
<path d="M20.0963 29.7335C21.5319 29.9231 26.9453 31.6786 27.0505 31.653C27.1668 31.6252 28.2237 30.9325 28.3827 31.0094C28.542 31.0863 28.923 31.4818 28.9915 31.5197C29.0596 31.5575 30.0877 31.0677 30.301 30.8487C30.4187 30.7279 30.6265 30.8822 30.7896 31.0457C30.9225 31.1786 31.026 31.3176 31.026 31.3176C31.026 31.3176 29.4694 32.5682 28.7666 32.9098C28.0638 33.2512 19.513 32.4085 19.513 32.4085C17.0099 32.7144 14.5213 32.9857 12.0065 33.0406C11.327 33.0555 10.7501 32.7708 10.264 32.093C9.94216 31.6438 9.78243 31.1454 9.85202 30.663C9.89406 30.3676 10.022 30.0779 10.251 29.8091C10.327 29.7194 10.4204 29.6535 10.5409 29.6175C10.5684 29.6093 10.597 29.6024 10.626 29.5983C10.9418 29.5444 11.3288 29.6801 11.6275 29.7434C12.2051 29.8661 12.7796 30.0347 13.348 30.2245C13.348 30.2245 19.1908 29.899 19.7948 29.7271C19.8497 29.711 19.9532 29.7143 20.0963 29.7335Z" fill="#FFA07F"/>
<path d="M20.0977 29.7195C20.0977 29.7195 19.3288 29.7119 19.161 29.7699C18.9932 29.8279 13.7832 30.1924 13.6811 30.1982C13.5789 30.2041 12.8594 29.7405 12.8594 29.7405L13.7463 30.0142C13.7463 30.0142 19.2495 29.5169 19.3095 29.5483C19.3695 29.58 20.1621 29.5938 20.1621 29.5938L20.0977 29.7195Z" fill="#FC5B68"/>
<path d="M11.6926 32.5295L19.2492 31.7947C19.2492 31.7947 19.1486 31.4904 19.1148 31.1551C19.0858 30.8654 19.1075 30.5524 19.2881 30.393C19.677 30.0494 20.0763 30.3146 20.0763 30.3146C20.0763 30.3146 19.7117 30.7221 19.5956 31.181C19.5422 31.3933 19.5417 31.6171 19.6553 31.8164L26.6577 32.4722C26.6577 32.4722 27.18 32.2124 27.2881 32.2298C27.3959 32.2469 27.959 32.4671 27.959 32.4671L29.7947 31.7696C29.7947 31.7696 30.362 31.3595 30.7861 31.0358C30.919 31.1687 31.0226 31.3077 31.0226 31.3077C31.0226 31.3077 29.4659 32.5583 28.7631 32.8999C28.0603 33.2413 19.5095 32.3986 19.5095 32.3986C17.0064 32.7045 14.5179 32.9758 12.003 33.0307C11.3235 33.0456 10.7467 32.7609 10.2605 32.0831C9.93871 31.6339 9.77899 31.1355 9.84857 30.6531L9.84159 30.6528C9.799 30.5637 9.74263 30.4413 9.68186 30.301L9.24804 30.3314L8.63007 30.3746L8.42188 30.0402L8.54929 29.2443L9.38371 29.4934L9.79092 29.6155L9.86638 29.6377C9.86638 29.6377 10.6859 28.7834 11.1245 28.6094C11.1245 28.6094 10.8501 29.0524 10.6228 29.5884C10.4706 29.9454 10.3391 30.3439 10.3246 30.6789C10.3182 30.824 10.3336 30.9577 10.3784 31.0703C10.6819 31.8345 11.6926 32.5295 11.6926 32.5295Z" fill="#FF7D6F"/>
<path d="M18.0611 27.0109C18.0611 27.0109 13.2619 26.0706 11.7882 26.4307C10.6864 26.7001 10.0025 27.74 9.72789 28.2469C9.63481 28.4181 9.58873 28.5285 9.58873 28.5285L9.39082 28.4792L7.35938 27.969L8.69042 28.1252L9.51162 28.2213C9.88028 27.5088 10.6672 26.5102 11.6953 26.167C13.0496 25.7146 18.1436 26.775 18.1436 26.775L19.9685 26.1266L18.0611 27.0109Z" fill="#FFD39C"/>
<path d="M7.09428 26.0847C8.14938 27.4616 6.96044 31.1798 6.46382 32.0848C6.41535 32.1742 6.37258 32.236 6.3399 32.2654C6.32962 32.2754 6.3175 32.2848 6.30373 32.2935C6.02632 32.4905 5.15573 32.6903 4.28147 32.5383C3.73712 32.4437 3.19185 32.2128 2.78831 31.7577C2.16337 31.0528 1.92506 30.1479 1.83584 29.5091C1.76864 29.0403 1.78241 28.7143 1.78241 28.7143C1.78241 28.7143 2.29812 24.5951 3.00055 23.959C3.70297 23.3228 5.93434 24.5706 7.09428 26.0847Z" fill="#3F0727"/>
<path d="M2.48939 29.793C2.39374 29.5863 2.3528 29.4537 2.3528 29.4537C2.3528 29.4537 2.19491 26.2071 3.19824 25.2262C4.05616 24.389 6.55301 25.8834 7.80548 27.295C8.01789 27.5341 8.19469 27.7713 8.32137 27.9935C8.36158 28.0641 8.39885 28.1351 8.43483 28.2084C8.77099 28.888 8.92575 29.6757 8.73904 30.3589C8.50937 31.2028 7.75756 31.8855 6.18326 31.9974C3.8566 32.1622 2.82885 30.5222 2.48939 29.793Z" fill="#FFA07F"/>
<path d="M7.80828 27.3047C8.02069 27.5438 8.19749 27.7812 8.32417 28.0032C9.1999 29.5387 9.16814 31.795 6.18624 32.0071C3.85921 32.1716 2.83165 30.5316 2.49219 29.8027C3.12246 30.7692 3.96753 31.4603 4.88017 31.7501C5.8499 32.0577 6.88977 31.9123 7.79561 31.3397C8.19217 31.0891 8.55494 30.6721 8.62856 30.072C8.7031 29.4721 8.57348 28.8512 8.35685 28.3236C8.20483 27.9542 8.0117 27.6223 7.80828 27.3047Z" fill="#FFD39C"/>
<path d="M5.69148 24.5425C5.70452 24.5507 5.71737 24.5591 5.7293 24.567C5.99643 24.7321 6.20334 24.8358 6.59182 25.2379C6.63955 25.2883 6.99517 25.785 7.01426 25.7566C6.92485 25.8912 6.83453 26.0256 6.7442 26.16L6.51618 26.4947C6.17415 26.9906 5.82073 27.4694 5.4328 27.8928C4.96079 28.4074 4.22972 29.2142 3.59468 29.2165C4.22477 29.2153 4.85375 29.0443 5.43849 28.716C4.7067 29.4414 3.8003 29.7986 2.90603 29.7587C2.67599 29.7472 2.23022 29.737 1.90949 29.6064C1.7863 29.5553 1.61574 29.3954 1.61574 29.3954C1.61574 29.3954 1.52872 28.7947 1.46758 28.2441C1.43178 27.935 1.40553 27.6424 1.40627 27.4786C1.40737 27.2617 1.41434 27.044 1.43087 26.832C1.46703 26.3212 1.54543 25.8322 1.67174 25.427C1.88287 24.7497 2.23041 24.1076 2.72556 23.8473C2.93687 23.7366 3.15369 23.7024 3.37106 23.7257C4.17116 23.7997 4.9775 24.0948 5.69148 24.5425Z" fill="#3F0727"/>
<path d="M6.52041 30.4489C6.52041 30.4489 6.5048 30.4356 6.47745 30.4124C6.45083 30.3878 6.41044 30.3567 6.36105 30.3219C6.2621 30.2511 6.12275 30.1783 5.96449 30.13C5.80587 30.0829 5.65661 30.0691 5.54443 30.0763C5.48862 30.0796 5.44199 30.0845 5.41005 30.0914C5.37773 30.0967 5.35938 30.0998 5.35938 30.0998C5.35938 30.0998 5.37553 30.0855 5.40399 30.0602C5.43299 30.0344 5.47706 30.0029 5.53415 29.9728C5.64725 29.9115 5.81909 29.8693 5.99956 29.9232C6.17985 29.9779 6.32121 30.1144 6.40364 30.2345C6.44532 30.2946 6.47506 30.348 6.49287 30.3878C6.51031 30.4264 6.52041 30.4489 6.52041 30.4489Z" fill="#FC5B68"/>
<path d="M6.52344 30.4506L6.53629 29.7969C6.53629 29.7969 6.74962 29.9106 6.71566 30.1485C6.68151 30.3867 6.52344 30.4506 6.52344 30.4506Z" fill="#FF7D6F"/>
<path d="M6.47809 32.0628C6.39346 32.4293 6.14928 32.6409 5.95779 32.736C5.91465 32.7572 5.87407 32.7726 5.83864 32.7825C5.64587 32.8362 5.0301 32.6823 4.9306 32.3639C4.86101 32.1408 5.02698 32.0439 5.13273 32.0061H5.1331C5.17808 31.99 5.21204 31.9844 5.21204 31.9844L6.47809 32.0628Z" fill="#FFBF90"/>
<path d="M6.47952 32.0628C6.39489 32.4293 6.15071 32.6409 5.95922 32.736C5.94013 32.7434 5.92195 32.7496 5.90488 32.7542C5.71211 32.8078 5.09616 32.654 4.99702 32.3355C4.94065 32.1548 5.03869 32.057 5.13434 32.0061H5.13471C5.17969 31.99 5.21366 31.9844 5.21366 31.9844L6.47952 32.0628Z" fill="#FFA07F"/>
<path d="M5.40126 32.6019C5.44808 32.6305 5.50022 32.6371 5.55126 32.6341C5.76808 32.6208 5.95938 32.4427 6.13802 32.2707C6.02841 32.3057 5.91257 32.2957 5.80516 32.2494C5.7679 32.2333 5.73136 32.2129 5.69317 32.2009C5.53987 32.1523 5.12496 32.4329 5.40126 32.6019Z" fill="#FF7D6F"/>
<path d="M6.21638 32.1736C6.21638 32.1736 6.21363 32.1771 6.20812 32.1838C6.20261 32.1904 6.1949 32.2012 6.18388 32.2129C6.16185 32.2364 6.12752 32.2679 6.07997 32.2929C6.0326 32.318 5.97184 32.3351 5.90354 32.3313C5.83579 32.3261 5.75979 32.3001 5.69222 32.239C5.6836 32.2321 5.67552 32.2237 5.66781 32.2152L5.66193 32.2088C5.66046 32.2073 5.6612 32.2081 5.6612 32.2081H5.66138V32.2078C5.66138 32.2078 5.66175 32.2076 5.66028 32.2081L5.65385 32.2099L5.641 32.2137C5.63256 32.2162 5.62411 32.2188 5.61585 32.2219C5.58262 32.2331 5.55104 32.2467 5.5213 32.2615C5.49156 32.2763 5.46384 32.2924 5.43813 32.309C5.41261 32.3259 5.38856 32.342 5.36984 32.3599C5.35111 32.3775 5.33734 32.3992 5.33092 32.4212C5.32504 32.4434 5.32632 32.4667 5.33073 32.4833C5.33514 32.5002 5.34248 32.5109 5.34836 32.5163C5.35423 32.5219 5.35809 32.5232 5.35809 32.5232C5.35809 32.5227 5.35423 32.5232 5.34726 32.5191C5.34028 32.5155 5.33055 32.5061 5.32284 32.4884C5.31549 32.4708 5.3098 32.445 5.31384 32.4143C5.31825 32.3836 5.33257 32.3537 5.35221 32.3289C5.37186 32.3039 5.39499 32.2832 5.41996 32.2615C5.44511 32.24 5.47302 32.2191 5.50349 32.1999C5.53397 32.1807 5.56683 32.1633 5.60171 32.1493C5.61052 32.1457 5.61934 32.1424 5.62833 32.1391L5.64192 32.1345L5.66101 32.1288L5.67442 32.125C5.67809 32.1281 5.68176 32.1324 5.68543 32.136L5.70104 32.1523C5.70783 32.1595 5.71481 32.1669 5.72233 32.1728C5.7809 32.2257 5.84663 32.2536 5.90739 32.2653C5.96853 32.2755 6.02526 32.2697 6.07171 32.2553C6.11816 32.241 6.15451 32.2196 6.17893 32.2024C6.19123 32.194 6.20004 32.1858 6.20646 32.181C6.21307 32.1761 6.21638 32.1736 6.21638 32.1736Z" fill="#CF4A57"/>
<path d="M6.37855 26.5833C6.33945 26.493 6.27336 26.3972 6.20102 26.4276C6.14025 26.4532 6.11547 26.5534 6.10372 26.6405C6.04901 27.0448 6.0826 27.4719 6.19882 27.8499C6.22397 27.9317 6.2561 28.0163 6.31209 28.059C6.52451 28.221 6.54103 27.6166 6.54342 27.4561C6.54783 27.1517 6.49146 26.8442 6.37855 26.5833Z" fill="#FF7D6F"/>
<path d="M7.12898 32.0134C7.12898 32.0134 6.61254 32.181 5.97492 32.1833C5.33749 32.1856 4.82031 32.0215 4.82031 32.0215C4.82031 32.0215 5.33676 31.8539 5.97437 31.8516C6.6118 31.8493 7.12898 32.0134 7.12898 32.0134Z" fill="#3F0727"/>
<path d="M6.28702 31.2701C6.30482 31.1676 6.30611 31.0345 6.23965 30.9849C6.18365 30.9432 6.11572 30.9897 6.0634 31.0398C5.82069 31.2727 5.62902 31.6085 5.52052 31.9911C5.49702 32.0739 5.47719 32.1654 5.49537 32.2507C5.56422 32.5748 5.88091 32.1628 5.96353 32.0514C6.12013 31.8398 6.23543 31.5666 6.28702 31.2701Z" fill="#FF7D6F"/>
<path d="M2.40397 30.7798C2.35183 30.6014 2.33678 30.4016 2.35917 30.2117C2.77905 31.0576 3.40161 31.7034 4.10238 32.0201C3.92209 32.0423 3.74107 32.063 3.56097 32.084C3.79541 32.2504 4.03629 32.4014 4.28156 32.5379C3.73721 32.4433 3.19195 32.2123 2.78841 31.7571C2.16347 31.052 1.92516 30.1467 1.83594 29.5078C1.98244 29.9653 2.17485 30.3936 2.40397 30.7798Z" fill="#55062C"/>
<path d="M4.60976 24.0103C4.98465 24.148 5.34853 24.3273 5.6913 24.5425C5.70434 24.5507 5.71719 24.5591 5.72912 24.567C5.32099 26.2346 4.32611 27.611 3.11899 28.1337C3.37217 27.8994 3.57412 27.555 3.68703 27.1613C3.03913 27.8021 2.25997 28.18 1.46758 28.2441C1.43178 27.935 1.40553 27.6424 1.40627 27.4786C1.40737 27.2617 1.41434 27.044 1.43087 26.832C1.44684 26.6066 1.47089 26.3838 1.5043 26.1733C1.54543 25.9055 1.60124 25.6531 1.67174 25.427C1.88287 24.7497 2.23041 24.1076 2.72556 23.8473C2.93687 23.7366 3.15369 23.7024 3.37106 23.7257C3.78653 23.7642 4.20421 23.8626 4.60976 24.0103Z" fill="#55062C"/>
<path d="M4.63661 30.0938C4.63661 30.0938 4.62101 30.1093 4.59365 30.1364C4.56593 30.1615 4.52848 30.2042 4.48644 30.2581C4.40125 30.3659 4.3056 30.5338 4.22922 30.7398C4.15377 30.9466 4.11191 31.1531 4.09869 31.3126C4.0919 31.3918 4.08878 31.459 4.09043 31.5053C4.09061 31.5521 4.09061 31.5789 4.09061 31.5789C4.09061 31.5789 4.08198 31.5549 4.06674 31.5127C4.05077 31.4698 4.03407 31.4033 4.0214 31.3174C4.00781 31.2313 4.00377 31.1253 4.01222 31.0074C4.02268 30.8906 4.04747 30.7634 4.09153 30.6409C4.13706 30.5195 4.19691 30.4173 4.2586 30.3373C4.32212 30.2594 4.38638 30.2021 4.44421 30.1674C4.50167 30.1318 4.54996 30.1121 4.58429 30.1052C4.61752 30.0981 4.63661 30.0938 4.63661 30.0938Z" fill="#6F0A32"/>
<path d="M4.64784 26.5547C4.64784 26.5547 4.63792 26.5777 4.62067 26.6178C4.60249 26.6564 4.58046 26.7165 4.55733 26.7896C4.51033 26.936 4.47104 27.1435 4.46021 27.3751C4.45066 27.6069 4.47159 27.8193 4.50537 27.9729C4.52189 28.049 4.53842 28.1127 4.5531 28.1541C4.56669 28.197 4.57459 28.2213 4.57459 28.2213C4.57459 28.2213 4.55971 28.2042 4.53364 28.174C4.50666 28.1436 4.47232 28.092 4.43597 28.0207C4.39889 27.9494 4.36456 27.8545 4.33849 27.7421C4.31462 27.6294 4.30048 27.4988 4.30581 27.3618C4.3126 27.2251 4.33794 27.098 4.37153 26.9899C4.40715 26.8828 4.44956 26.7944 4.4927 26.73C4.53511 26.6653 4.57385 26.6201 4.60323 26.5943C4.6315 26.5693 4.64784 26.5547 4.64784 26.5547Z" fill="#6F0A32"/>
<path d="M4.609 24.0106C4.20932 25.0038 3.56711 25.8042 2.81237 26.2354C3.03929 25.9471 3.20599 25.5683 3.28971 25.1556C2.76775 25.6951 2.14666 26.0463 1.50391 26.1741C1.54503 25.9062 1.60084 25.6537 1.67134 25.4275C1.88247 24.75 2.23001 24.1077 2.72516 23.8473C2.93647 23.7366 3.1533 23.7024 3.37067 23.7257C3.78577 23.7645 4.20344 23.8629 4.609 24.0106Z" fill="#6F0A32"/>
<path d="M7.40277 26.831C7.43857 26.3922 7.25552 26.0096 7.08754 25.7837C7.04972 25.7328 7.01245 25.6899 6.97885 25.6562C6.79581 25.4724 6.10055 25.2255 5.88868 25.4921C5.74052 25.6789 5.88097 25.89 5.97846 25.9997H5.97883C6.02032 26.0464 6.05392 26.0748 6.05392 26.0748L7.40277 26.831Z" fill="#FFBF90"/>
<path d="M7.40334 26.8288C7.43914 26.39 7.25609 26.0073 7.08811 25.7814C7.07048 25.761 7.05359 25.7426 7.03744 25.7265C6.85439 25.5427 6.15913 25.2958 5.94745 25.5624C5.8272 25.7137 5.8966 25.8808 5.97903 25.9974H5.9794C6.02089 26.0442 6.05449 26.0725 6.05449 26.0725L7.40334 26.8288Z" fill="#FFA07F"/>
<path d="M6.46205 25.5626C6.52061 25.5636 6.57734 25.5914 6.62949 25.6282C6.85126 25.7857 6.99079 26.0985 7.11894 26.3962C7.0165 26.2871 6.89202 26.2209 6.76424 26.1982C6.71981 26.1902 6.67483 26.1874 6.63096 26.1747C6.45452 26.1235 6.11635 25.5559 6.46205 25.5626Z" fill="#FF7D6F"/>
<path d="M7.16348 26.5386C7.16348 26.5386 7.16183 26.533 7.15853 26.5223C7.15504 26.5118 7.15063 26.4954 7.1431 26.4757C7.12805 26.4364 7.1029 26.3809 7.06177 26.3234C7.02083 26.2662 6.96318 26.2079 6.89067 26.1665C6.81815 26.1271 6.73002 26.1041 6.63878 26.123C6.62739 26.1246 6.61619 26.1282 6.60518 26.1317L6.59692 26.1343C6.5949 26.1351 6.59618 26.1345 6.596 26.1345C6.596 26.1345 6.59637 26.1351 6.5949 26.1338L6.58884 26.1276L6.57672 26.1154C6.56883 26.1069 6.56093 26.0988 6.55322 26.0901C6.52238 26.0563 6.49392 26.0213 6.46785 25.9863C6.44178 25.9513 6.41828 25.916 6.39717 25.8818C6.37624 25.8473 6.3566 25.8143 6.34319 25.7834C6.32961 25.7525 6.32245 25.7208 6.32336 25.6934C6.32465 25.6661 6.33401 25.6428 6.34411 25.6283C6.35439 25.6134 6.36578 25.607 6.37385 25.6055C6.38193 25.6035 6.38634 25.6052 6.38634 25.6047C6.38634 25.6052 6.3823 25.6022 6.37367 25.6017C6.36522 25.6009 6.35182 25.604 6.33769 25.6175C6.32392 25.6311 6.30941 25.6543 6.30317 25.6891C6.29748 25.7238 6.30225 25.7647 6.31437 25.8036C6.32649 25.8427 6.34338 25.8797 6.36229 25.9188C6.38138 25.9579 6.40341 25.9983 6.42875 26.0385C6.45408 26.0786 6.48254 26.1184 6.5143 26.1563C6.5222 26.166 6.53028 26.1752 6.53854 26.1844L6.5512 26.1982L6.5692 26.2168L6.58186 26.2299C6.58682 26.2291 6.59196 26.2271 6.5971 26.2255L6.61895 26.2189C6.62849 26.2158 6.63823 26.2128 6.64814 26.2115C6.72727 26.1949 6.80511 26.2094 6.87267 26.2375C6.94005 26.2674 6.99733 26.3112 7.04084 26.3569C7.08454 26.4026 7.1152 26.4492 7.13484 26.4831C7.14476 26.5 7.15118 26.5146 7.15632 26.5238C7.16091 26.5338 7.16348 26.5386 7.16348 26.5386Z" fill="#CF4A57"/>
<path d="M8.30509 27.1202C8.30509 27.1202 8.16831 27.1598 7.94543 27.1675C7.7231 27.1757 7.41265 27.1432 7.08769 27.0034C6.7631 26.8629 6.49359 26.6449 6.31312 26.4632C6.13209 26.2812 6.03516 26.1406 6.03516 26.1406C6.03516 26.1406 6.17138 26.1848 6.38104 26.263C6.59107 26.342 6.87454 26.4478 7.18114 26.5805C7.48792 26.7123 7.76459 26.8483 7.97003 26.9487C8.17474 27.0494 8.30509 27.1202 8.30509 27.1202Z" fill="#3F0727"/>
<path d="M5.07031 31.5741C5.07031 31.5741 5.45806 31.4451 5.43823 30.8373C5.42923 30.558 5.19846 30.4297 5.19846 30.4297C5.19846 30.4297 5.65285 30.4995 5.6187 30.9444C5.58455 31.3894 5.19405 31.6685 5.19405 31.6685L5.21443 31.9493L5.07031 31.5741Z" fill="#1E0C29"/>
<path d="M5.57481 27.6024C5.57481 27.6024 5.93299 27.9216 5.76336 28.5329C5.68551 28.8138 5.42188 28.8338 5.42188 28.8338C5.42188 28.8338 5.81862 28.9125 5.91757 28.4767C6.0224 28.0154 5.72242 27.5661 5.72242 27.5661L5.81219 27.2891L5.57481 27.6024Z" fill="#1E0C29"/>
<path d="M4.69353 30.9449C4.71592 30.7967 4.7844 30.6666 4.87198 30.5771C4.95955 30.4879 5.06511 30.4373 5.17215 30.4141C4.99058 30.4601 4.83361 30.6594 4.7833 30.9073C4.74456 31.0985 4.77394 31.2899 4.83911 31.4619C4.7128 31.4126 4.67039 31.0972 4.69353 30.9449Z" fill="#FC5B68"/>
<path d="M5.10402 28.3878C5.09135 28.3084 5.08346 28.2263 5.09135 28.1458C5.11155 27.9426 5.22739 27.786 5.34544 27.6641C5.18884 27.7188 5.06455 27.9122 5.0315 28.133C4.99919 28.3493 5.06326 28.7546 5.23639 28.8331C5.19361 28.7572 5.11797 28.4758 5.10402 28.3878Z" fill="#FC5B68"/>
<path d="M7.20909 29.9404C7.22231 29.3271 7.04441 28.7101 6.73047 28.2812C7.04221 28.4852 7.20707 28.9779 7.25756 29.4541C7.29373 29.7963 7.28014 30.2241 7.10793 30.4971C7.15916 30.3085 7.2045 30.1472 7.20909 29.9404Z" fill="#FC5B68"/>
<path d="M7.37891 29.1953C7.48245 29.2385 7.55313 29.3855 7.56287 29.536C7.57094 29.6602 7.54396 29.8256 7.48062 29.9145C7.47235 29.7967 7.50687 29.6676 7.49108 29.538C7.48208 29.4644 7.44023 29.2209 7.37891 29.1953Z" fill="#FC5B68"/>
<path d="M4.01745 26.6331C4.05527 26.6816 4.09639 26.7276 4.14505 26.7506C4.24639 26.7986 4.36095 26.7358 4.43806 26.6323C4.51517 26.5288 4.56235 26.3903 4.60788 26.2552C4.61981 26.4724 4.63285 26.6946 4.69839 26.8921C4.76393 27.0896 4.89428 27.2601 5.04979 27.2741C5.24072 27.2912 5.39898 27.0812 5.52804 26.8842C5.58569 26.7963 5.64426 26.7051 5.67528 26.594C5.72504 26.4159 5.69603 26.2092 5.62792 26.0434C5.55981 25.8776 5.45681 25.746 5.35161 25.6236C5.52143 25.5881 5.68612 25.5038 5.83207 25.3776C5.87044 25.3443 5.90973 25.3045 5.9246 25.245C5.93635 25.1979 5.93084 25.1466 5.92368 25.0978C5.86181 24.6729 5.68189 24.2835 5.43019 24.0301C5.37934 23.979 5.32224 23.9314 5.25945 23.9309C5.15719 23.9302 5.07659 24.0531 5.02702 24.1783C4.97745 24.3034 4.94202 24.4453 4.86491 24.5395C4.81203 24.2595 4.69968 23.9437 4.49387 23.9092C4.38078 23.8903 4.27172 23.9652 4.17038 24.0382C3.94879 24.1977 3.77951 24.3878 3.85295 24.7386C3.89206 24.9251 4.21518 25.4517 4.37252 25.4304C4.23078 25.4494 4.09015 25.4836 3.95227 25.5326C3.88526 25.5564 3.81513 25.5868 3.76923 25.6591C3.61281 25.9049 3.89004 26.469 4.01745 26.6331Z" fill="#E71B32"/>
<path d="M4.8723 25.8514C4.89249 25.8601 4.91434 25.8555 4.93453 25.8471C4.99751 25.8202 5.05112 25.7533 5.07737 25.6687C5.10546 25.5785 5.10215 25.4747 5.08508 25.3794C5.06525 25.2687 5.02706 25.1644 4.97474 25.077C4.94573 25.0287 4.91177 24.9848 4.87064 24.9584C4.76489 24.8905 4.67145 24.9988 4.62683 25.1281C4.5411 25.3766 4.68613 25.7701 4.8723 25.8514Z" fill="#AF0823"/>
<path d="M11.5453 26.1394C11.6929 26.5355 11.4392 27.1261 10.9787 27.4584C10.5183 27.7906 10.0253 27.739 9.87788 27.3429C9.73046 26.9467 9.984 26.3561 10.4445 26.0239C10.9049 25.6913 11.3978 25.743 11.5453 26.1394Z" fill="#1E0C29"/>
<path d="M13.8 25.8626C13.8 26.3088 13.3796 26.6707 12.8609 26.6707C12.3423 26.6707 11.9219 26.309 11.9219 25.8626C11.9219 25.4163 12.3423 25.0547 12.8609 25.0547C13.3796 25.0544 13.8 25.4163 13.8 25.8626Z" fill="#1E0C29"/>
<path d="M20.2289 25.8952C20.3119 26.3261 19.973 26.8273 19.4722 27.0141C18.9711 27.2009 18.4978 27.0031 18.4148 26.5722C18.3319 26.1413 18.6706 25.6401 19.1716 25.4533C19.6726 25.2662 20.1459 25.4643 20.2289 25.8952Z" fill="#1E0C29"/>
<path d="M12.5891 28.6831C12.5891 29.1294 12.1687 29.491 11.65 29.491C11.1314 29.491 10.7109 29.1294 10.7109 28.6831C10.7109 28.2369 11.1314 27.875 11.65 27.875C12.1685 27.875 12.5891 28.2369 12.5891 28.6831Z" fill="#1E0C29"/>
<path d="M20.4816 30.032C20.4816 30.3905 20.1438 30.6811 19.7272 30.6811C19.3105 30.6811 18.9727 30.3905 18.9727 30.032C18.9727 29.6734 19.3105 29.3828 19.7272 29.3828C20.1438 29.3828 20.4816 29.6734 20.4816 30.032Z" fill="#1E0C29"/>
<path d="M26.0185 31.4775C25.9459 31.8215 25.5632 31.9682 25.1633 31.8049C24.7634 31.6415 24.4981 31.2303 24.5705 30.8863C24.643 30.5423 25.0258 30.3956 25.4257 30.5589C25.8255 30.7222 26.091 31.1335 26.0185 31.4775Z" fill="#1E0C29"/>
<path d="M27.8924 31.3019C27.9111 31.6594 27.5895 31.9837 27.174 32.0259C26.7584 32.0683 26.4062 31.8128 26.3875 31.4552C26.3686 31.0977 26.6903 30.7733 27.1059 30.7312C27.5216 30.6887 27.8737 30.9443 27.8924 31.3019Z" fill="#1E0C29"/>
<path d="M15.8699 26.0804C15.8699 26.4699 15.5029 26.7855 15.0502 26.7855C14.5975 26.7855 14.2305 26.4696 14.2305 26.0804C14.2305 25.6909 14.5975 25.375 15.0502 25.375C15.5029 25.3753 15.8699 25.6909 15.8699 26.0804Z" fill="#1E0C29"/>
<path d="M17.6944 26.6269C17.6615 26.9732 17.3085 27.194 16.906 27.1199C16.5036 27.0458 16.204 26.7051 16.2368 26.3588C16.2697 26.0125 16.6228 25.792 17.0252 25.8658C17.4276 25.9399 17.7272 26.2806 17.6944 26.6269Z" fill="#1E0C29"/>
</svg>
