<svg width="46" height="32" viewBox="0 0 46 32" fill="none" xmlns="http://www.w3.org/2000/svg">
<rect x="0.5" y="0.5" width="45" height="31" rx="5.5" fill="white"/>
<rect x="0.5" y="0.5" width="45" height="31" rx="5.5" stroke="white"/>
<path fill-rule="evenodd" clip-rule="evenodd" d="M22.9053 22.4357C21.3266 23.7665 19.2787 24.5698 17.0409 24.5698C12.0478 24.5698 8 20.5702 8 15.6365C8 10.7027 12.0478 6.70312 17.0409 6.70312C19.2787 6.70312 21.3266 7.50646 22.9053 8.83718C24.484 7.50646 26.5319 6.70312 28.7697 6.70312C33.7628 6.70312 37.8106 10.7027 37.8106 15.6365C37.8106 20.5702 33.7628 24.5698 28.7697 24.5698C26.5319 24.5698 24.484 23.7665 22.9053 22.4357Z" fill="#ED0006"/>
<path fill-rule="evenodd" clip-rule="evenodd" d="M22.9062 22.4357C24.8502 20.7972 26.0828 18.3591 26.0828 15.6365C26.0828 12.9139 24.8502 10.4757 22.9062 8.83718C24.485 7.50645 26.5329 6.70312 28.7706 6.70312C33.7638 6.70312 37.8115 10.7027 37.8115 15.6365C37.8115 20.5702 33.7638 24.5698 28.7706 24.5698C26.5329 24.5698 24.485 23.7665 22.9062 22.4357Z" fill="#F9A000"/>
<path fill-rule="evenodd" clip-rule="evenodd" d="M22.907 22.4344C24.8509 20.7959 26.0835 18.3578 26.0835 15.6352C26.0835 12.9126 24.8509 10.4745 22.907 8.83594C20.9631 10.4745 19.7305 12.9126 19.7305 15.6352C19.7305 18.3578 20.9631 20.7959 22.907 22.4344Z" fill="#FF5E00"/>
</svg>
