<svg width="36" height="37" viewBox="0 0 36 37" fill="none" xmlns="http://www.w3.org/2000/svg">
<rect y="0.5" width="36" height="36" rx="4.90909" fill="#FFA033"/>
<path d="M21.8752 8.71875H26.0938C26.3175 8.71875 26.5321 8.80764 26.6904 8.96588C26.8486 9.12411 26.9375 9.33872 26.9375 9.5625V27.2812C26.9375 27.505 26.8486 27.7196 26.6904 27.8779C26.5321 28.0361 26.3175 28.125 26.0938 28.125H10.9062C10.6825 28.125 10.4679 28.0361 10.3096 27.8779C10.1514 27.7196 10.0625 27.505 10.0625 27.2812V9.5625C10.0625 9.33872 10.1514 9.12411 10.3096 8.96588C10.4679 8.80764 10.6825 8.71875 10.9062 8.71875H15.1248" stroke="white" stroke-width="2" stroke-linecap="round" stroke-linejoin="round"/>
<path d="M14.2812 12.0938V11.25C14.2813 10.1311 14.7257 9.05806 15.5169 8.26689C16.3081 7.47572 17.3811 7.03125 18.5 7.03125C19.6189 7.03125 20.6919 7.47572 21.4831 8.26689C22.2743 9.05806 22.7188 10.1311 22.7188 11.25V12.0938H14.2812Z" stroke="white" stroke-width="2" stroke-linecap="round" stroke-linejoin="round"/>
<mask id="mask0_34264_12623" style="mask-type:alpha" maskUnits="userSpaceOnUse" x="12" y="14" width="13" height="13">
<path d="M25 17.2857L24.0714 14.5H21.75L18.0357 18.2143L15.7143 15.8929L12 18.2143L13.8571 23.3214L18.5 26.1071L21.2857 23.7857L25 17.2857Z" fill="#D9D9D9"/>
</mask>
<g mask="url(#mask0_34264_12623)">
<path d="M22.4454 16.6295C22.8081 16.2669 23.396 16.2669 23.7586 16.6295C24.1213 16.9922 24.1213 17.5801 23.7586 17.9427L18.4147 23.2857C17.6894 24.0109 16.5136 24.0108 15.7884 23.2856L14.1327 21.6299C13.77 21.2673 13.77 20.6793 14.1327 20.3167C14.4953 19.9541 15.0832 19.9541 15.4459 20.3167L16.4455 21.3163C16.8081 21.6789 17.396 21.6789 17.7587 21.3163L22.4454 16.6295Z" fill="white"/>
<path fill-rule="evenodd" clip-rule="evenodd" d="M18.5035 9.85938C17.5998 9.85938 16.927 10.2239 16.3551 10.5338C16.2219 10.6059 16.0942 10.6751 15.9704 10.736C15.2507 11.09 14.1602 11.5105 11.9435 11.6603C10.4884 11.7586 9.19386 12.9432 9.25188 14.5355C9.34732 17.1548 9.65116 19.8345 10.2622 22.0927C10.8602 24.3023 11.8069 26.3187 13.3456 27.3445C14.8171 28.3254 16.0273 29.1758 16.837 29.7562C17.8313 30.469 19.1758 30.469 20.1701 29.7562C20.9797 29.1758 22.19 28.3254 23.6615 27.3445C25.2001 26.3187 26.1469 24.3023 26.7448 22.0927C27.3559 19.8346 27.6598 17.1548 27.7552 14.5355C27.8132 12.9432 26.5186 11.7586 25.0635 11.6603C22.8469 11.5105 21.7563 11.09 21.0367 10.736C20.9128 10.6751 20.7852 10.606 20.652 10.5338C20.0802 10.224 19.4072 9.85938 18.5035 9.85938ZM12.0687 13.5132C14.5132 13.3481 15.8414 12.8692 16.7901 12.4025C17.0612 12.2692 17.2707 12.1581 17.4428 12.0668C17.9137 11.8173 18.1037 11.7165 18.5035 11.7165C18.9033 11.7165 19.0934 11.8173 19.5642 12.0668C19.7363 12.1581 19.9459 12.2692 20.217 12.4025C21.1657 12.8692 22.4938 13.3481 24.9383 13.5132C25.5299 13.5532 25.916 14.0103 25.8993 14.4679C25.8067 17.0082 25.5131 19.5349 24.9522 21.6076C24.3782 23.7289 23.5785 25.1678 22.6313 25.7992C21.1393 26.7939 19.9115 27.6565 19.088 28.2468C18.7406 28.4959 18.2665 28.4959 17.919 28.2468C17.0956 27.6565 15.8678 26.7939 14.3758 25.7992C13.4286 25.1678 12.6289 23.7288 12.0549 21.6076C11.494 19.5348 11.2004 17.0081 11.1078 14.4679C11.0911 14.0103 11.4772 13.5532 12.0687 13.5132Z" fill="white"/>
</g>
</svg>
