<svg width="36" height="37" viewBox="0 0 36 37" fill="none" xmlns="http://www.w3.org/2000/svg">
<rect y="0.5" width="36" height="36" rx="4.90909" fill="#957BF9"/>
<path d="M22.2456 14.7909C22.6361 14.4004 23.2693 14.4004 23.6598 14.7909C24.0504 15.1815 24.0504 15.8146 23.6598 16.2052L17.9048 21.9592C17.1237 22.7401 15.8575 22.74 15.0765 21.959L13.2934 20.1759C12.9029 19.7854 12.9029 19.1523 13.2934 18.7617C13.6839 18.3712 14.3171 18.3712 14.7076 18.7617L15.7841 19.8382C16.1746 20.2288 16.8078 20.2288 17.1983 19.8382L22.2456 14.7909Z" fill="white"/>
<path fill-rule="evenodd" clip-rule="evenodd" d="M18.0005 7.5C17.0273 7.5 16.3027 7.89261 15.6868 8.22629C15.5434 8.30399 15.4059 8.37849 15.2725 8.4441C14.4975 8.82533 13.3231 9.27819 10.9359 9.43948C9.36885 9.54537 7.97469 10.821 8.03718 12.5359C8.13996 15.3566 8.46718 18.2424 9.12526 20.6743C9.76919 23.0539 10.7888 25.2254 12.4458 26.3301C14.0304 27.3865 15.3338 28.3023 16.2058 28.9274C17.2765 29.6949 18.7245 29.6949 19.7952 28.9274C20.6672 28.3023 21.9706 27.3865 23.5552 26.3301C25.2122 25.2254 26.2318 23.054 26.8758 20.6744C27.5338 18.2425 27.8611 15.3566 27.9638 12.5359C28.0263 10.821 26.6322 9.54537 25.0651 9.43948C22.6779 9.27819 21.5035 8.82533 20.7285 8.4441C20.5951 8.3785 20.4577 8.30401 20.3143 8.22633C19.6984 7.89264 18.9737 7.5 18.0005 7.5ZM11.0707 11.4349C13.7033 11.2571 15.1336 10.7413 16.1553 10.2387C16.4472 10.0951 16.6729 9.97551 16.8582 9.87727C17.3653 9.6085 17.5699 9.5 18.0005 9.5C18.4311 9.5 18.6357 9.6085 19.1428 9.87727C19.3281 9.97551 19.5538 10.0951 19.8457 10.2387C20.8674 10.7413 22.2977 11.2571 24.9303 11.4349C25.5673 11.478 25.9831 11.9702 25.9652 12.463C25.8655 15.1987 25.5492 17.9198 24.9452 20.1519C24.327 22.4364 23.4658 23.986 22.4458 24.666C20.839 25.7372 19.5168 26.6662 18.63 27.3019C18.2558 27.5701 17.7452 27.5701 17.371 27.3019C16.4843 26.6662 15.162 25.7372 13.5552 24.666C12.5352 23.986 11.674 22.4363 11.0558 20.1519C10.4518 17.9197 10.1355 15.1986 10.0359 12.463C10.0179 11.9702 10.4337 11.478 11.0707 11.4349Z" fill="white"/>
</svg>
