<svg width="46" height="46" viewBox="0 0 46 46" fill="none" xmlns="http://www.w3.org/2000/svg">
<path d="M39.4875 29.3014L39.492 31.1027C39.3572 31.3678 36.8641 31.7496 32.7223 31.7496C28.5805 31.7496 26.0873 31.3678 25.957 31.1117V29.2969C27.1385 29.9078 32.4662 29.9123 32.7223 29.9123C32.9783 29.9123 38.3016 29.9123 39.4875 29.3014Z" fill="#95CEA3"/>
<path d="M38.7902 31.5859V38.2793C38.7902 38.5443 36.7059 39.052 32.7213 39.052C28.7367 39.052 26.6523 38.5443 26.6523 38.2793V31.5859C28.5076 31.9813 32.5057 31.9857 32.7213 31.9857C32.9369 31.9857 36.935 31.9813 38.7902 31.5859Z" fill="#95CEA3"/>
<path d="M36.1031 25.3359C36.9701 25.3359 37.6709 26.0412 37.6709 26.8992C37.6709 27.7662 36.9656 28.467 36.1031 28.467H32.8867L33.9424 26.8633C34.7105 25.8121 35.2047 25.3359 36.1031 25.3359Z" fill="#F59A9B"/>
<path d="M36.2031 28.4688C36.3873 28.4912 36.6074 28.5137 36.859 28.5361C36.6568 28.6305 36.4367 28.6889 36.2031 28.6979V28.4688Z" fill="#EF4666"/>
<path d="M33.7014 15.8496V19.7668C33.7014 20.3822 33.2027 20.8809 32.5873 20.8809H21.5859V14.7266H32.5873C33.2027 14.7311 33.7014 15.2297 33.7014 15.8496Z" fill="#FFF0C2"/>
<path d="M31.6705 23.7223C31.9176 23.583 32.1826 23.5156 32.4521 23.5156C32.5869 23.5156 32.7217 23.5291 32.8564 23.5695C33.2607 23.6773 33.5977 23.9379 33.8088 24.2973C34.2535 25.0744 34.1861 25.8561 33.5752 26.9117L32.6408 28.2863L31.0551 25.9369C30.8529 25.582 30.799 25.1418 30.9203 24.7105C31.0371 24.2883 31.3156 23.9289 31.6705 23.7223ZM31.383 26.8623L32.4477 28.4705H29.2268C29.0201 28.4705 28.8225 28.4301 28.6383 28.3492H28.6248C28.0633 28.1156 27.668 27.5586 27.668 26.9072C27.668 26.0492 28.3732 25.3439 29.2312 25.3439C30.1252 25.3395 30.6238 25.8156 31.383 26.8623Z" fill="#F59A9B"/>
<path d="M32.0625 23.3125V23.5057H31.6133V23.4832C31.757 23.4023 31.9098 23.3439 32.0625 23.3125Z" fill="#EF4666"/>
<path d="M30.6961 24.6434C30.6018 24.9937 30.6018 25.3531 30.7006 25.6811C30.2693 25.2857 29.8336 25.1016 29.2271 25.1016C28.2389 25.1016 27.4303 25.9102 27.4303 26.8984C27.4303 27.5184 27.7492 28.0709 28.2209 28.3943C27.1563 28.5381 25.7188 28.7807 25.7188 29.0412V31.1166C25.7188 31.2873 25.9883 31.4221 26.415 31.5389V38.2861C26.415 38.5197 26.7654 38.7039 27.318 38.8432H21.5859V21.3281H31.6125V23.4844C31.59 23.4889 31.5766 23.4979 31.5541 23.5113C31.1453 23.7494 30.8309 24.1627 30.6961 24.6434Z" fill="#FFE085"/>
<path d="M28.125 38.8438L32.7654 39.293H32.7205C31.1752 39.293 28.6506 39.1896 27.3164 38.8438H28.125Z" fill="#3D7749"/>
<path d="M28.8994 11.3197C28.8994 12.9504 27.5697 14.2801 25.9391 14.2801H19.8477L21.8557 11.2479C23.3021 9.25332 24.241 8.35938 25.9391 8.35938C27.5697 8.35938 28.8994 9.68906 28.8994 11.3197Z" fill="#F59A9B"/>
<path d="M28.6365 28.3527V28.5908C28.6275 28.5908 28.623 28.5908 28.6096 28.5953C28.4703 28.5414 28.34 28.474 28.2188 28.3977C28.358 28.3752 28.4928 28.3617 28.6186 28.3438H28.623C28.623 28.3482 28.6275 28.3527 28.6365 28.3527Z" fill="#EF4666"/>
<path d="M28.6397 28.3438V28.3482C28.6343 28.3482 28.6289 28.3438 28.6289 28.3438H28.6397Z" fill="#231815"/>
<path d="M32.7223 29.6809C28.5895 29.6809 26.1053 29.299 25.957 29.0564V29.052C26.0244 28.9307 27.6281 28.715 28.6074 28.5938C28.8006 28.6656 29.0027 28.7016 29.2229 28.7016H32.6414V28.7061L32.6459 28.7016H36.1004C36.1318 28.7016 36.1678 28.7016 36.1992 28.6971V28.7061C37.1471 28.8273 39.3887 28.9262 39.4785 29.0385C39.2854 29.3035 36.8146 29.6809 32.7223 29.6809Z" fill="#95CEA3"/>
<path d="M33.9479 26.8618L32.8922 28.4655H36.1086C36.9756 28.4655 37.6764 27.7603 37.6764 26.8978C37.6764 26.0398 36.9711 25.3345 36.1086 25.3345C35.2057 25.3345 34.7115 25.8107 33.9479 26.8618ZM32.452 23.5062C32.1824 23.5062 31.9174 23.5736 31.6703 23.7128C31.3154 23.9195 31.0414 24.2788 30.9246 24.7011C30.8033 25.1278 30.8572 25.5726 31.0594 25.9275L32.6451 28.2769L33.5795 26.9023C34.1904 25.8466 34.2578 25.065 33.8131 24.2878C33.5975 23.9284 33.265 23.6679 32.8607 23.5601C32.7215 23.5241 32.5867 23.5062 32.452 23.5062ZM31.6119 23.5062H32.0611V23.313C32.3441 23.2456 32.6361 23.2501 32.9191 23.3265C33.3818 23.4523 33.7727 23.7487 34.0152 24.1665C34.3746 24.7909 34.4285 25.4333 34.177 26.179C34.7834 25.4333 35.2865 25.1009 36.1041 25.1009C37.1014 25.1009 37.9055 25.9095 37.9055 26.8978C37.9055 27.621 37.4787 28.2454 36.8588 28.5329C36.6072 28.5105 36.3826 28.488 36.2029 28.4655V28.6946C36.1715 28.6991 36.1355 28.6991 36.1041 28.6991H32.6496L32.6451 28.7036H29.2266C29.0064 28.7036 28.8043 28.6677 28.6111 28.5958C28.6201 28.5913 28.6246 28.5913 28.6381 28.5913V28.3532C28.8223 28.4296 29.0199 28.4745 29.2266 28.4745H32.4475L31.3828 26.8663C30.6236 25.8196 30.125 25.3435 29.2266 25.3435C28.3686 25.3435 27.6633 26.0487 27.6633 26.9068C27.6633 27.5581 28.0586 28.1152 28.6201 28.3487C28.4943 28.3622 28.3596 28.3802 28.2203 28.4027C27.7441 28.0792 27.4297 27.5267 27.4297 26.9068C27.4297 25.9185 28.2383 25.1099 29.2266 25.1099C29.8375 25.1099 30.2688 25.2941 30.7 25.6894C30.6012 25.3614 30.6012 25.0021 30.6955 24.6517C30.8303 24.171 31.1447 23.7532 31.5535 23.5196C31.576 23.5107 31.5895 23.4972 31.6119 23.4927V23.5062Z" fill="#EF4666"/>
<path d="M25.9568 29.0633C26.1006 29.3104 28.5893 29.6877 32.7221 29.6877C36.8145 29.6877 39.2852 29.3104 39.4783 29.0453C39.3885 28.9285 37.1514 28.8297 36.199 28.7129V28.7039C36.4326 28.6949 36.6527 28.6365 36.8549 28.5422C38.0273 28.6635 39.7209 28.8072 39.7209 29.0498V31.1252C39.7209 31.2959 39.4514 31.4307 39.0246 31.5475V38.2947C39.0246 39.0854 34.9637 39.2965 32.7715 39.301H32.767L28.1266 38.8518H27.318C26.7654 38.7125 26.415 38.5283 26.415 38.2947V31.543C25.9883 31.4262 25.7188 31.2914 25.7188 31.1207V29.0453C25.7188 28.7848 27.1563 28.5467 28.2209 28.3984C28.3422 28.4748 28.4725 28.5422 28.6117 28.5961C27.6324 28.7174 26.0287 28.933 25.9613 29.0543V29.0633H25.9568ZM39.4873 29.3059C38.3014 29.9168 32.9781 29.9213 32.7221 29.9213C32.466 29.9213 27.1428 29.9168 25.9568 29.3059V31.1207C26.0871 31.3768 28.5758 31.7586 32.7221 31.7586C36.8684 31.7586 39.357 31.3768 39.4918 31.1117L39.4873 29.3059ZM32.7221 39.0584C36.7066 39.0584 38.791 38.5508 38.791 38.2857V31.5924C36.9357 31.9877 32.9377 31.9922 32.7221 31.9922C32.5064 31.9922 28.5084 31.9877 26.6531 31.5924V38.2857C26.6531 38.5553 28.7375 39.0584 32.7221 39.0584Z" fill="#3D7749"/>
<path d="M21.5906 6.37187C22.4352 7.84082 22.3049 9.32773 21.1549 11.3223L19.3895 13.9277L16.3932 9.48496C16.0023 8.81113 15.908 7.9666 16.1326 7.16699C16.3572 6.37188 16.8738 5.68906 17.5477 5.29824C18.0059 5.0332 18.5135 4.89844 19.0211 4.89844C19.2771 4.89844 19.5377 4.93438 19.7938 5.00176C20.5574 5.19941 21.1953 5.68906 21.5906 6.37187ZM21.1414 23.6398V38.8414H17.5971V14.7273H19.3895V14.7318L19.3939 14.7273H21.1414V21.3264V23.6398ZM17.0086 11.2414L19.0166 14.2781H12.9252C11.2945 14.2781 9.96484 12.9484 9.96484 11.3178C9.96484 9.68711 11.2945 8.35742 12.9252 8.35742C14.6277 8.35742 15.5576 9.25137 17.0086 11.2414Z" fill="#F59A9B"/>
<path d="M17.1463 21.3281V38.8387H8.36856C7.75313 38.8387 7.25 38.34 7.25 37.7246V21.3281H17.1463Z" fill="#FFE085"/>
<path d="M17.1459 14.7266V20.8809H6.2748C5.65937 20.8809 5.15625 20.3822 5.15625 19.7668V15.8496C5.15625 15.2297 5.66387 14.7311 6.2748 14.7311H17.1459V14.7266Z" fill="#FFF0C2"/>
<path d="M17.1459 20.888V14.7337H6.2748C5.65937 14.7337 5.15625 15.2324 5.15625 15.8523V19.7695C5.15625 20.3849 5.66387 20.8836 6.2748 20.8836H17.1459V20.888ZM17.1459 38.8478V21.3328H7.24512V37.7293C7.24512 38.3447 7.75273 38.8433 8.36367 38.8433H17.1459V38.8478ZM12.9232 14.2845H19.0102L17.0021 11.2478C15.5557 9.25777 14.6213 8.36832 12.9232 8.36832C11.2926 8.36832 9.96289 9.69801 9.96289 11.3287C9.96289 12.9593 11.2926 14.2845 12.9232 14.2845ZM19.3875 13.9341L21.1529 11.3287C22.3029 9.33414 22.4332 7.84723 21.5887 6.37828C21.1934 5.69547 20.551 5.20582 19.7918 5.00367C19.5357 4.93629 19.2752 4.90035 19.0191 4.90035C18.507 4.90035 18.0039 5.03512 17.5457 5.30016C16.8674 5.69098 16.3508 6.37379 16.1307 7.16891C15.9061 7.97301 16.0004 8.81754 16.3912 9.48688L19.3875 13.9341ZM21.1395 14.7337H19.392L19.3875 14.7382V14.7337H17.5951V38.8478H21.1395V14.7337ZM19.8457 14.2845H25.9371C27.5678 14.2845 28.8975 12.9548 28.8975 11.3242C28.8975 9.69352 27.5678 8.36383 25.9371 8.36383C24.2391 8.36383 23.3002 9.25328 21.8537 11.2523L19.8457 14.2845ZM21.5842 20.888H32.5855C33.201 20.888 33.6996 20.3894 33.6996 19.774V15.8568C33.6996 15.2369 33.201 14.7382 32.5855 14.7382H21.5842V20.888ZM4.70703 15.8523C4.70703 14.9853 5.4123 14.2845 6.2748 14.2845H11.2387C10.21 13.6961 9.51367 12.591 9.51367 11.3242C9.51367 9.44195 11.041 7.91461 12.9232 7.91461C14.0687 7.91461 14.8908 8.265 15.7039 9.0152C15.5197 8.39078 15.5107 7.70797 15.6949 7.05211C15.951 6.1402 16.5439 5.35856 17.3211 4.90934C18.1072 4.45563 19.0281 4.33434 19.9041 4.57242C20.7846 4.80602 21.5213 5.36754 21.9705 6.15816C22.6533 7.33512 22.7521 8.54801 22.2715 9.95856C23.417 8.55699 24.3783 7.9191 25.9281 7.9191C27.8104 7.9191 29.3377 9.44645 29.3377 11.3287C29.3377 12.5955 28.6414 13.7005 27.6127 14.289H32.5766C33.4346 14.289 34.1398 14.9943 34.1398 15.8568V19.7695C34.1398 20.6275 33.4346 21.3328 32.5766 21.3328H32.051V23.3183C31.8982 23.3498 31.75 23.4082 31.6018 23.489V21.3328H21.5842V38.8433H27.3162C28.6504 39.1892 31.1705 39.2925 32.7203 39.2925H8.36816C7.50117 39.2925 6.80039 38.5873 6.80039 37.7293V21.3328H6.2793C5.4123 21.3328 4.71152 20.6275 4.71152 19.7695V15.8523H4.70703Z" fill="#EF4666"/>
</svg>
