<svg width="46" height="32" viewBox="0 0 46 32" fill="none" xmlns="http://www.w3.org/2000/svg">
<rect x="0.5" y="0.5" width="45" height="31" rx="3.5" fill="white"/>
<rect x="0.5" y="0.5" width="45" height="31" rx="3.5" stroke="white"/>
<path fill-rule="evenodd" clip-rule="evenodd" d="M19.488 24.5964L19.7823 22.6643L19.1267 22.6485H15.9961L18.1717 8.3903C18.1785 8.34712 18.2004 8.30704 18.2324 8.27853C18.2646 8.25002 18.3056 8.23438 18.3484 8.23438H23.6271C25.3796 8.23438 26.589 8.61122 27.2203 9.35514C27.5163 9.70413 27.7049 10.0689 27.7961 10.4702C27.8918 10.8914 27.8934 11.3945 27.8001 12.0082L27.7933 12.0529V12.4462L28.0893 12.6195C28.3386 12.7562 28.5367 12.9126 28.6887 13.0917C28.9418 13.3902 29.1056 13.7695 29.1748 14.219C29.2464 14.6814 29.2227 15.2317 29.1056 15.8548C28.9705 16.5713 28.7522 17.1955 28.4573 17.7061C28.1861 18.1766 27.8406 18.567 27.4303 18.8694C27.0386 19.1568 26.5732 19.3749 26.0471 19.5146C25.5371 19.6518 24.9558 19.721 24.3181 19.721H23.9074C23.6137 19.721 23.3284 19.8303 23.1044 20.0263C22.8797 20.2264 22.7313 20.4998 22.6857 20.7988L22.6546 20.9728L22.1346 24.3784L22.1111 24.5034C22.1048 24.543 22.0941 24.5627 22.0783 24.576C22.0643 24.5883 22.0441 24.5964 22.0244 24.5964H19.488Z" fill="#28356A"/>
<path fill-rule="evenodd" clip-rule="evenodd" d="M28.3707 12.1016C28.3551 12.2057 28.337 12.3121 28.3168 12.4214C27.6207 16.1156 25.239 17.3918 22.1973 17.3918H20.6486C20.2766 17.3918 19.9631 17.6709 19.9052 18.0502L18.8877 24.7212C18.85 24.9703 19.0357 25.1946 19.2788 25.1946H22.0257C22.3509 25.1946 22.6272 24.9504 22.6784 24.6189L22.7054 24.4747L23.2226 21.0824L23.2558 20.8963C23.3064 20.5636 23.5834 20.3192 23.9086 20.3192H24.3194C26.9807 20.3192 29.0641 19.2025 29.6731 15.9707C29.9273 14.6207 29.7957 13.4934 29.1226 12.7006C28.9189 12.4616 28.6663 12.2632 28.3707 12.1016Z" fill="#298FC2"/>
<path fill-rule="evenodd" clip-rule="evenodd" d="M27.6397 11.7973C27.5333 11.7652 27.4236 11.7362 27.3111 11.71C27.1979 11.6844 27.082 11.6617 26.9627 11.6419C26.5451 11.5721 26.0875 11.5391 25.5974 11.5391H21.4601C21.3581 11.5391 21.2613 11.5628 21.1748 11.6059C20.9839 11.7007 20.8421 11.8874 20.8078 12.116L19.9276 17.878L19.9023 18.046C19.9602 17.6667 20.2737 17.3876 20.6457 17.3876H22.1945C25.2362 17.3876 27.6178 16.1108 28.3139 12.4172C28.3347 12.3079 28.3522 12.2015 28.3678 12.0974C28.1918 12.0008 28.001 11.9182 27.7956 11.8478C27.7449 11.8304 27.6925 11.8136 27.6397 11.7973Z" fill="#22284F"/>
<path fill-rule="evenodd" clip-rule="evenodd" d="M20.8088 12.1188C20.8432 11.8902 20.9849 11.7035 21.1758 11.6093C21.2629 11.5662 21.3591 11.5424 21.4611 11.5424H25.5985C26.0886 11.5424 26.5462 11.5756 26.9637 11.6454C27.0831 11.6651 27.1989 11.6879 27.3121 11.7135C27.4246 11.7395 27.5344 11.7687 27.6408 11.8006C27.6936 11.8169 27.7459 11.8339 27.7971 11.8506C28.0025 11.921 28.1934 12.0043 28.3695 12.1002C28.5766 10.7351 28.3678 9.80559 27.6537 8.96391C26.8663 8.03719 25.4454 7.64062 23.6271 7.64062H18.3483C17.9769 7.64062 17.6601 7.91972 17.6027 8.29966L15.4041 22.7045C15.3607 22.9894 15.5734 23.2465 15.8514 23.2465H19.1103L20.8088 12.1188Z" fill="#28356A"/>
</svg>
