<svg width="40" height="40" viewBox="0 0 40 40" fill="none" xmlns="http://www.w3.org/2000/svg">
<g clip-path="url(#clip0_34264_7074)">
<path d="M22.1031 17.2031H16.0234V22.8269H22.1031V17.2031Z" fill="#EAEAE3"/>
<path d="M19.9941 19.6876V20.3425C19.9941 21.7147 19.3575 22.8269 18.5663 22.8269H1.42773C0.636562 22.8269 0 21.7147 0 20.3425V19.6876C0 18.3155 0.636562 17.2031 1.42773 17.2031H18.5663C19.3575 17.2031 19.9941 18.3155 19.9941 19.6876Z" fill="#EAEAE3"/>
<path d="M8.75328 19.968C8.75328 20.9452 8.74141 21.9015 8.72953 22.8267C8.64625 27.12 8.37859 30.8 8.0157 33.066C7.88484 33.8561 7.74211 34.4693 7.59336 34.8851C7.46844 35.2386 7.34352 35.4465 7.20664 35.488C7.18289 35.5088 7.165 35.5088 7.14117 35.5088H3.51234C3.25656 35.5088 3.01266 34.9163 2.79258 33.8663C2.35234 31.7249 2.02516 27.6708 1.93 22.8266C1.91805 21.9014 1.90625 20.9451 1.90625 19.9679C1.90625 19.0219 1.91219 18.0967 1.93 17.2028C2.04305 11.3606 2.48922 6.65156 3.07219 5.04037C3.17336 4.75968 3.28039 4.56214 3.3875 4.48951C3.42914 4.45825 3.47078 4.4375 3.51242 4.4375H7.14125C7.165 4.4375 7.18289 4.4375 7.20672 4.45825C7.34351 4.49975 7.46844 4.70767 7.59344 5.06125C7.74219 5.47709 7.88492 6.10084 8.01578 6.89088C8.37867 9.17784 8.64633 12.8785 8.72961 17.203C8.74734 18.0968 8.75328 19.0221 8.75328 19.968Z" fill="#C98383"/>
<path d="M8.65531 19.9679C8.65531 20.9451 8.64938 21.9014 8.63156 22.8266C8.56016 27.1198 8.3282 30.7998 8.01289 33.0659C7.88797 33.9391 7.75117 34.6043 7.60836 35.0202C7.49531 35.3423 7.37633 35.5088 7.25742 35.5088C7.23953 35.5088 7.22172 35.5088 7.20383 35.488C6.54352 35.2178 6.00211 29.8539 5.8832 22.8266C5.86531 21.9014 5.85938 20.9451 5.85938 19.9679C5.85938 19.0219 5.86531 18.0968 5.8832 17.2028C5.99625 10.134 6.53758 4.72856 7.20383 4.45825C7.22172 4.4375 7.23953 4.4375 7.25742 4.4375C7.37633 4.4375 7.49539 4.60392 7.60836 4.9261C7.75109 5.34194 7.88797 6.00719 8.01289 6.89088C8.33414 9.17784 8.56609 12.8785 8.63156 17.203C8.64938 18.0966 8.65531 19.0219 8.65531 19.9679Z" fill="#7897AB"/>
<path d="M14.7238 19.9693C14.7238 20.936 14.7178 21.8924 14.6999 22.828C14.6999 23.3997 14.688 23.9715 14.6762 24.5328C14.4977 32.9427 13.8374 39.3044 13.0284 39.8971C12.9867 39.9386 12.9451 39.9491 12.9034 39.9491H8.79875C8.3407 39.9491 7.9243 38.0883 7.60898 35.0217C7.59711 34.9801 7.59711 34.9281 7.59117 34.8866C7.2818 31.8303 7.06172 27.5995 7.00813 22.828C6.99031 21.8924 6.98438 20.9361 6.98438 19.9693C6.98438 19.0337 6.99031 18.1085 7.00219 17.2042C7.06172 12.4016 7.27586 8.13952 7.59117 5.06253C7.59711 5.02089 7.59711 4.96887 7.60898 4.92737C7.92422 1.86075 8.34062 0 8.79867 0H12.9034C12.945 0 12.9866 0.0103754 13.0283 0.0520137C13.8373 0.644505 14.5036 7.04806 14.6761 15.4889C14.688 16.0502 14.6998 16.622 14.7059 17.2041C14.7178 18.1085 14.7238 19.0337 14.7238 19.9693Z" fill="#C98383"/>
<path d="M14.9667 19.9693C14.9667 20.936 14.9608 21.8924 14.943 22.828C14.943 23.3894 14.9311 23.9403 14.9192 24.4808C14.7348 33.348 14.015 39.9489 13.1524 39.9489C13.1108 39.9489 13.0691 39.9386 13.0275 39.8969C12.1649 39.2628 11.4689 32.0692 11.3559 22.8279C11.338 21.8923 11.332 20.936 11.332 19.9691C11.332 19.0336 11.338 18.1084 11.3499 17.2041C11.4689 7.92109 12.1649 0.686007 13.0275 0.0518771C13.0691 0.0103754 13.1107 0 13.1523 0C14.0209 0 14.7407 6.64246 14.9191 15.5409C14.931 16.0815 14.9429 16.6429 14.9489 17.2042C14.9608 18.1085 14.9667 19.0337 14.9667 19.9693Z" fill="#7897AB"/>
<path opacity="0.1" d="M16.8416 17.2031H15.6875V22.8269H16.8416V17.2031Z" fill="#040000"/>
<path d="M15.9923 17.165V22.872C15.9923 23.714 15.683 24.4104 15.3023 24.4104L14.9216 24.4832L14.6777 24.5352L12.8633 24.9094C12.8573 24.9094 12.8573 24.9094 12.8573 24.9094C12.8336 24.9094 12.8216 24.8783 12.8216 24.8263C12.8216 24.8263 12.7205 24.2753 12.6551 22.8304C12.6253 22.1235 12.6016 21.1983 12.6016 20.0133C12.6016 18.9426 12.6313 17.9863 12.673 17.2066C12.7384 15.98 12.8217 15.2003 12.8217 15.2003C12.8217 15.1587 12.8336 15.1276 12.8574 15.1276C12.8574 15.1172 12.8574 15.1172 12.8634 15.1172L14.6777 15.4914L14.9216 15.5434L15.3023 15.6265C15.683 15.6264 15.9923 16.3229 15.9923 17.165Z" fill="#EAEAE3"/>
<path d="M23.9742 17.2031H17.8945V22.8269H23.9742V17.2031Z" fill="#EAEAE3"/>
<path d="M40.0019 19.6876V20.3425C40.0019 21.7147 39.3653 22.8269 38.5741 22.8269H21.4355C21.3582 22.8269 21.2809 22.8165 21.2095 22.7958C20.5254 22.6086 20.0078 21.5795 20.0078 20.3425V19.6876C20.0078 18.3155 20.6444 17.2031 21.4355 17.2031H38.5741C39.3653 17.2031 40.0019 18.3155 40.0019 19.6876Z" fill="#EAEAE3"/>
<path d="M38.097 19.9679C38.097 20.9451 38.0852 21.9014 38.0733 22.8266C38.0673 23.0552 38.0614 23.2735 38.0554 23.5023C38.0554 23.7206 38.0495 23.9389 38.0376 24.1572C38.0197 24.8121 37.9959 25.4462 37.9722 26.0699C37.9543 26.3818 37.9424 26.6832 37.9246 26.9743C37.9127 27.255 37.8948 27.5357 37.877 27.806C37.8056 29.0326 37.7105 30.1553 37.6093 31.1324C37.5855 31.3716 37.5558 31.6106 37.532 31.8289C37.3178 33.5545 37.062 34.7604 36.7765 35.2593C36.7527 35.3008 36.7289 35.3321 36.7051 35.3632C36.6396 35.4567 36.5623 35.5088 36.4909 35.5088H32.8622C32.8503 35.5088 32.8384 35.4984 32.8265 35.4984C32.8146 35.4984 32.8086 35.4984 32.7967 35.488C32.7908 35.4984 32.7848 35.488 32.7788 35.488C32.648 35.4256 32.529 35.2178 32.41 34.8851C32.2612 34.4693 32.1185 33.8561 31.9936 33.066C31.6248 30.7998 31.357 27.12 31.2738 22.8267C31.262 21.9015 31.25 20.9452 31.25 19.968C31.25 19.0221 31.2559 18.0969 31.2738 17.203C31.3571 12.8785 31.6248 9.17784 31.9936 6.89088C32.1185 6.10084 32.2613 5.47709 32.41 5.06125C32.529 4.72856 32.648 4.52064 32.7788 4.45825C32.7848 4.45825 32.7907 4.44788 32.7967 4.45825C32.8086 4.44788 32.8145 4.44788 32.8265 4.44788C32.8384 4.4375 32.8502 4.4375 32.8622 4.4375H36.4909C36.5148 4.4375 36.5385 4.44788 36.5623 4.45825C36.5802 4.45825 36.5921 4.46863 36.604 4.479C36.7052 4.54139 36.8003 4.6973 36.8895 4.92596C36.9193 4.98835 36.943 5.06112 36.9669 5.13388C37.062 5.42494 37.1572 5.78876 37.2405 6.23573C37.2643 6.33962 37.2821 6.44351 37.3 6.55805C37.4488 7.38958 37.5796 8.4188 37.6866 9.62467C37.7045 9.78057 37.7164 9.93648 37.7283 10.0924C37.7462 10.2794 37.764 10.477 37.7759 10.6745C37.8175 11.1423 37.8473 11.6412 37.877 12.1507C37.8888 12.3378 37.9007 12.5352 37.9127 12.7328C37.9364 13.1279 37.9543 13.5332 37.9722 13.9387C37.99 14.3545 38.0079 14.7703 38.0198 15.2069C38.0436 15.8618 38.0614 16.5271 38.0734 17.2028C38.0911 18.0966 38.097 19.0219 38.097 19.9679Z" fill="#C98383"/>
<path d="M34.1398 19.968C34.1398 20.9452 34.1338 21.9015 34.1159 22.8267C33.997 29.7915 33.4675 35.1243 32.8131 35.4881C32.8072 35.4881 32.8012 35.4985 32.7953 35.4881C32.7834 35.4985 32.7774 35.5089 32.7655 35.4985C32.7596 35.4985 32.7537 35.5089 32.7417 35.5089C32.706 35.5089 32.6703 35.4881 32.6346 35.4569C32.6109 35.4361 32.587 35.4154 32.5632 35.3737C32.5037 35.301 32.4502 35.1866 32.3966 35.0307L32.3907 35.0203C32.2479 34.6045 32.1111 33.9392 31.9921 33.066C31.6709 30.7998 31.4389 27.12 31.3675 22.8267C31.3497 21.9015 31.3438 20.9452 31.3438 19.968C31.3438 19.0221 31.3497 18.0969 31.3675 17.203C31.433 12.8785 31.6649 9.17784 31.9921 6.89088C32.1111 6.00719 32.2479 5.34194 32.3907 4.9261L32.3966 4.91573C32.4502 4.75982 32.5037 4.64542 32.5632 4.57265C32.587 4.53115 32.6108 4.51026 32.6346 4.48951C32.6703 4.45825 32.706 4.4375 32.7417 4.4375C32.7536 4.4375 32.7596 4.4375 32.7655 4.44788C32.7774 4.4375 32.7834 4.44788 32.7953 4.45825C32.8012 4.44788 32.8072 4.45825 32.8131 4.45825C33.4675 4.82207 34.0029 10.1964 34.1159 17.2028C34.1338 18.0967 34.1398 19.0221 34.1398 19.968Z" fill="#7897AB"/>
<path d="M33.0206 19.9693C33.0206 20.936 33.0147 21.8924 32.9968 22.828C32.9433 27.5995 32.7232 31.8303 32.4138 34.8866C32.4138 34.9281 32.4079 34.9697 32.402 35.0113C32.402 35.0217 32.396 35.0217 32.396 35.0217C32.3901 35.1465 32.3781 35.2711 32.3603 35.3855C32.3365 35.635 32.3067 35.8741 32.277 36.1028C32.2532 36.2691 32.2354 36.4355 32.2116 36.6018C32.17 36.924 32.1224 37.2359 32.0748 37.5166C32.0748 37.5166 32.0748 37.527 32.0748 37.5375C32.0272 37.8078 31.9796 38.0572 31.938 38.2859C31.8844 38.5251 31.8309 38.7432 31.7773 38.9304C31.7298 39.1175 31.6763 39.2838 31.6227 39.419C31.5929 39.4917 31.5691 39.5541 31.5394 39.6061C31.5155 39.6685 31.4858 39.71 31.462 39.7517C31.4382 39.7932 31.4145 39.8244 31.3906 39.8452C31.3727 39.8659 31.3549 39.8868 31.3371 39.8972C31.3252 39.9076 31.3073 39.918 31.2895 39.9283C31.2658 39.9387 31.236 39.9491 31.2062 39.9491H27.1016C27.0599 39.9491 27.0183 39.9387 26.9766 39.8971C26.9707 39.8971 26.9707 39.8971 26.9648 39.8867C26.1616 39.2422 25.5073 32.901 25.3288 24.5328C25.317 23.9715 25.305 23.3997 25.305 22.828C25.2872 21.8924 25.2812 20.9361 25.2812 19.9693C25.2812 19.0337 25.2872 18.1085 25.2991 17.2042C25.305 16.6636 25.3109 16.1335 25.3229 15.6137C25.3229 15.5722 25.3288 15.5305 25.3288 15.4889C25.5013 7.04792 26.1676 0.644505 26.9766 0.0520137C27.0182 0.0103754 27.0598 0 27.1015 0H31.2062C31.6464 0 32.0509 1.71522 32.3602 4.56341C32.3662 4.61543 32.3721 4.67782 32.378 4.72983C32.39 4.79222 32.3959 4.85461 32.3959 4.92737C32.3959 4.92737 32.4019 4.92737 32.4019 4.93775C32.4078 4.97925 32.4138 5.02089 32.4138 5.06253C32.7291 8.13952 32.9432 12.4015 33.0027 17.2042C33.0146 18.1085 33.0206 19.0337 33.0206 19.9693Z" fill="#C98383"/>
<path d="M28.6697 19.9693C28.6697 20.936 28.6638 21.8924 28.6459 22.828C28.5328 32.0279 27.8428 39.2006 26.9862 39.8867C26.9802 39.8971 26.9802 39.8971 26.9743 39.8971C26.9327 39.9386 26.891 39.9491 26.8494 39.9491C26.8196 39.9491 26.7958 39.9387 26.7661 39.9283C26.7542 39.918 26.7423 39.918 26.7245 39.8972C26.7007 39.8868 26.6828 39.8659 26.665 39.8452C26.4627 39.6269 26.2723 39.0344 26.0939 38.1507C26.0047 37.6934 25.9155 37.1528 25.8322 36.5395C25.8322 36.5395 25.8322 36.5291 25.8322 36.5188C25.7905 36.2173 25.7489 35.8846 25.7132 35.5416C25.6538 35.0218 25.6002 34.4605 25.5466 33.8782C25.4752 33.0882 25.4098 32.2358 25.3563 31.3211C25.3563 31.2691 25.3503 31.2067 25.3444 31.1443C25.3266 30.7494 25.3027 30.3439 25.2789 29.9281C25.2254 28.9717 25.1838 27.9633 25.148 26.9134C25.1421 26.6433 25.1302 26.3833 25.1243 26.113C25.1065 25.5829 25.0945 25.0319 25.0827 24.481C25.0708 23.9403 25.0589 23.3895 25.0589 22.8281C25.041 21.8926 25.0352 20.9362 25.0352 19.9694C25.0352 19.0339 25.0411 18.1087 25.053 17.2044C25.0589 16.8198 25.0648 16.4351 25.0709 16.0609C25.0709 15.8842 25.0768 15.7074 25.0827 15.5412C25.261 6.64246 25.9809 0 26.8494 0C26.891 0 26.9327 0.0103754 26.9743 0.0520137C27.6048 0.509352 28.1403 4.48041 28.4377 10.1769C28.5448 12.308 28.6222 14.6781 28.6519 17.2041C28.6638 18.1085 28.6697 19.0337 28.6697 19.9693Z" fill="#7897AB"/>
<path opacity="0.1" d="M24.3142 17.2031H23.1602V22.8269H24.3142V17.2031Z" fill="#040000"/>
<path d="M27.3986 20.0134C27.3986 21.1984 27.3748 22.1236 27.3451 22.8305C27.2797 24.2754 27.1785 24.8264 27.1785 24.8264C27.1785 24.8784 27.1666 24.9095 27.1428 24.9095C27.1428 24.9095 27.1428 24.9095 27.1369 24.9095L25.3225 24.5353L25.0786 24.4833L24.6979 24.4106C24.3172 24.4106 24.0078 23.714 24.0078 22.8721V17.1651C24.0078 16.3231 24.3172 15.6265 24.6979 15.6265L25.0786 15.5434L25.3225 15.4914L25.3939 15.481L27.1369 15.1172C27.1428 15.1172 27.1428 15.1172 27.1428 15.1276C27.1666 15.1276 27.1785 15.1587 27.1785 15.2003C27.1785 15.2003 27.2618 15.98 27.3273 17.2066C27.3688 17.9864 27.3986 18.9427 27.3986 20.0134Z" fill="#EAEAE3"/>
<path opacity="0.1" d="M39.9976 19.6908V20.3456C39.9976 21.7178 39.361 22.83 38.5698 22.83H38.0702C38.0642 23.0587 38.0583 23.277 38.0523 23.5058C38.0523 23.7241 38.0463 23.9424 38.0345 24.1607C38.0166 24.8155 37.9928 25.4497 37.9691 26.0733C37.9512 26.3749 37.9393 26.6763 37.9215 26.9777C37.9096 27.2584 37.8917 27.5391 37.8739 27.8094C37.8025 29.036 37.7073 30.1588 37.6062 31.1358C37.5824 31.375 37.5527 31.614 37.5288 31.8323C37.3147 33.5579 37.0589 34.7638 36.7734 35.2628C36.7495 35.3043 36.7258 35.3355 36.702 35.3667C36.6365 35.4602 36.5591 35.5122 36.4878 35.5122H32.8591C32.8472 35.5122 32.8353 35.5018 32.8234 35.5018C32.8234 35.5018 32.8174 35.4914 32.8115 35.4914C32.8055 35.4914 32.7996 35.4811 32.7937 35.4811C32.7877 35.4811 32.7818 35.4914 32.7758 35.4914C32.7758 35.4914 32.7698 35.5018 32.7639 35.5018C32.758 35.5018 32.752 35.5122 32.7401 35.5122C32.7044 35.5122 32.6687 35.4914 32.633 35.4602C32.6092 35.4394 32.5854 35.4187 32.5616 35.377C32.5021 35.2939 32.4485 35.1691 32.395 35.0132C32.395 35.0236 32.395 35.0236 32.395 35.034C32.3772 35.1588 32.3652 35.2732 32.3534 35.3874C32.3295 35.6368 32.2998 35.876 32.2701 36.1047C32.2463 36.271 32.2284 36.4374 32.2047 36.6037C32.163 36.9258 32.1155 37.2274 32.0678 37.5185C32.0678 37.5185 32.0678 37.5289 32.0678 37.5394C32.0202 37.8097 31.9727 38.0591 31.931 38.2878C31.8774 38.5269 31.8239 38.7451 31.7704 38.9323C31.7228 39.1194 31.6693 39.2857 31.6157 39.4209C31.5859 39.4936 31.5622 39.556 31.5324 39.608C31.5086 39.6704 31.4788 39.7119 31.4551 39.7536C31.4313 39.7951 31.4075 39.8263 31.3837 39.8471C31.3658 39.8678 31.348 39.8887 31.3302 39.8991C31.3183 39.9095 31.3004 39.9198 31.2826 39.9302C31.2588 39.9406 31.2291 39.951 31.1993 39.951H27.0946C27.0589 39.951 27.0173 39.9197 26.9816 39.8886C26.9756 39.8886 26.9756 39.8782 26.9697 39.8782C26.9638 39.8782 26.9638 39.8886 26.9578 39.8886C26.9221 39.9197 26.8805 39.951 26.8448 39.951C26.815 39.951 26.7912 39.9406 26.7615 39.9302C26.7496 39.9198 26.7377 39.9198 26.7198 39.8991C26.6961 39.8887 26.6782 39.8678 26.6604 39.8471C26.4581 39.6288 26.2677 39.0363 26.0893 38.1526C26.0001 37.6953 25.9109 37.1547 25.8276 36.5414C25.8276 36.5414 25.8276 36.531 25.8276 36.5207C25.7859 36.2192 25.7443 35.8865 25.7086 35.5435C25.6491 35.0237 25.5955 34.4624 25.542 33.8801C25.4766 33.0901 25.4112 32.2377 25.3516 31.323C25.3516 31.271 25.3457 31.2086 25.3398 31.1462C25.322 30.7512 25.2981 30.3458 25.2743 29.9299C25.2208 28.9736 25.1791 27.9652 25.1434 26.9153C25.1375 26.6452 25.1256 26.3852 25.1197 26.1149C25.1019 25.5848 25.0899 25.0338 25.078 24.4828L24.6973 24.4101C24.3166 24.4101 24.0073 23.7136 24.0073 22.8717V22.83H21.1875L24.4058 17.2063L25.0662 16.0628L25.316 15.6158L25.3934 15.4807L28.4332 10.1791L32.2286 3.54688C32.2702 3.8692 32.3119 4.21213 32.3535 4.56558C32.3595 4.61759 32.3654 4.67998 32.3713 4.73199C32.3773 4.79438 32.3833 4.85677 32.3951 4.91902C32.3951 4.9294 32.3951 4.9294 32.3951 4.93991C32.4487 4.78401 32.5022 4.65923 32.5616 4.57609C32.5854 4.53459 32.6092 4.5137 32.633 4.49295C32.6688 4.46169 32.7045 4.44094 32.7402 4.44094C32.752 4.44094 32.758 4.44094 32.764 4.45131C32.7699 4.45131 32.7759 4.46169 32.7759 4.46169C32.7818 4.46169 32.7877 4.47206 32.7937 4.47206C32.7998 4.47206 32.8056 4.46169 32.8116 4.46169C32.8175 4.46169 32.8234 4.45131 32.8234 4.45131C32.8353 4.44094 32.8472 4.44094 32.8591 4.44094H36.4879C36.5117 4.44094 36.5355 4.45131 36.5593 4.46169C36.5772 4.46169 36.5891 4.47206 36.6009 4.48244C36.7021 4.54483 36.7973 4.70073 36.8865 4.9294C36.9163 4.99179 36.94 5.06455 36.9638 5.13732C37.059 5.42838 37.1541 5.7922 37.2374 6.23916C37.2613 6.34305 37.2791 6.44694 37.297 6.56148C37.4457 7.39302 37.5766 8.42223 37.6836 9.6281C37.7015 9.78401 37.7134 9.93991 37.7252 10.0958C37.7431 10.2828 37.7609 10.4804 37.7728 10.6779C37.8145 11.1458 37.8442 11.6446 37.8739 12.1541C37.8858 12.3413 37.8977 12.5387 37.9096 12.7362C37.9334 13.1313 37.9513 13.5366 37.9691 13.9421C37.987 14.3579 38.0048 14.7841 38.0167 15.2104C38.0405 15.8652 38.0584 16.5305 38.0703 17.2063H38.57C39.361 17.2063 39.9976 18.3186 39.9976 19.6908Z" fill="#040000"/>
</g>
<defs>
<clipPath id="clip0_34264_7074">
<rect width="40" height="40" fill="white"/>
</clipPath>
</defs>
</svg>
