<svg width="24" height="24" viewBox="0 0 24 24" fill="none" xmlns="http://www.w3.org/2000/svg">
<circle cx="12" cy="12" r="10.5" fill="#3C60A7"/>
<path d="M5.97546 11.1821C5.9735 10.5814 6.41778 10.2057 6.92862 10.194C7.05178 10.1925 7.19904 10.2519 7.32211 10.3014C7.36723 10.3196 7.40909 10.3365 7.44532 10.3485C7.57253 10.3916 7.6019 10.3818 7.65475 10.3857C7.77022 10.3935 7.917 10.3877 7.9444 10.2683H8.07163L7.77216 11.2839H7.65475C7.60581 10.8827 7.44727 10.4992 7.08323 10.5031C6.88751 10.507 6.6918 10.5833 6.62917 10.8573C6.55284 11.188 6.71919 11.3875 7.14587 11.8004C7.42184 12.0704 7.63321 12.3013 7.63515 12.6437C7.63907 13.3031 7.10671 13.6573 6.56458 13.6593C6.3344 13.6604 6.20078 13.609 6.09178 13.5671C6.01266 13.5366 5.94653 13.5112 5.86585 13.5145C5.85413 13.5149 5.84045 13.5152 5.82536 13.5154C5.70925 13.5175 5.50928 13.521 5.47636 13.6319H5.34915L5.68382 12.4168H5.81106C5.6897 12.9275 5.99698 13.3501 6.43735 13.3501C6.73485 13.3501 7.01081 13.0899 7.01864 12.9235C7.0312 12.5984 6.97408 12.5459 6.79259 12.3793C6.7196 12.3123 6.62652 12.2269 6.50977 12.0978L6.46106 12.0439C6.21513 11.7719 5.97729 11.5088 5.97546 11.1821Z" fill="white"/>
<path d="M8.17145 10.5305L8.20862 10.3309H9.32227L9.26747 10.5305C9.07514 10.5305 9.07652 10.6333 9.07748 10.7059C9.07755 10.7108 9.07761 10.7157 9.07761 10.7203V12.225L9.10503 12.2074L9.83897 11.0216V10.7399C9.84093 10.5853 9.76655 10.5344 9.59431 10.5305L9.63151 10.3309H10.7745L10.7373 10.5305C10.5729 10.5305 10.5142 10.5344 10.5201 10.7477C10.522 10.7907 10.5201 10.8455 10.5201 10.9023V12.1526L10.5377 12.18L11.3813 10.8025C11.4184 10.7321 11.4302 10.687 11.4263 10.6303C11.4199 10.5202 11.3198 10.5233 11.1611 10.5282C11.1251 10.5293 11.0862 10.5305 11.0446 10.5305L11.0818 10.3309H12.1074L12.0623 10.5305C11.8686 10.5344 11.8118 10.6284 11.7355 10.7653C11.7355 10.7653 10.0719 13.5106 9.9936 13.6299C9.9153 13.7493 9.83897 13.6299 9.83897 13.6299L9.84876 11.5813V11.5186C9.84876 11.5186 8.64507 13.5125 8.57071 13.6319C8.49635 13.7512 8.4435 13.6319 8.4435 13.6319V10.9023C8.4435 10.5305 8.37257 10.5305 8.17756 10.5305H8.17145Z" fill="white"/>
<path d="M12.2248 10.5305L12.262 10.3309H13.5909L13.5459 10.5305C13.3071 10.5344 13.1486 10.556 13.084 10.7751L12.4499 13.1153C12.4442 13.135 12.4376 13.1535 12.4313 13.1713C12.4182 13.2082 12.4062 13.2421 12.4049 13.2777L12.4043 13.2882C12.4002 13.3673 12.3971 13.4285 12.6221 13.4323L12.5771 13.6319H11.2443L11.2814 13.4323C11.53 13.4342 11.7159 13.3521 11.7531 13.1975L12.3794 10.8671C12.401 10.781 12.4284 10.7125 12.4244 10.6675C12.4147 10.5618 12.3187 10.5266 12.2248 10.5305Z" fill="white"/>
<path d="M13.7319 10.5305L13.7769 10.3309H16.0707L15.8359 11.2095H15.7086C15.74 10.6694 15.511 10.6068 15.1273 10.6107C15.1147 10.611 15.1027 10.6111 15.0913 10.6113C14.9046 10.6137 14.8738 10.6141 14.7927 10.8925L14.593 11.6908H14.7202C14.8201 11.6947 15.098 11.6908 15.2291 11.3562L15.3563 11.3738L15.1215 12.3444H14.9669C14.9631 12.3181 14.962 12.2868 14.9613 12.2508C14.9605 12.2118 14.9601 12.1673 14.9571 12.1174C14.9492 11.9687 14.8709 11.9335 14.595 11.9354H14.5323L14.2427 12.9333C14.2294 12.9978 14.2092 13.0721 14.195 13.1243L14.1879 13.1505C14.1253 13.3892 14.2505 13.4323 14.5597 13.4323L14.505 13.6319H13.0899L13.1447 13.4323C13.3228 13.4264 13.4696 13.3618 13.5166 13.1505L14.1233 10.8847C14.1429 10.8025 14.1253 10.826 14.1409 10.7751C14.2073 10.5636 13.9746 10.5475 13.7831 10.5342C13.7656 10.533 13.7484 10.5318 13.7319 10.5305Z" fill="white"/>
<path d="M16.0081 11.2095L16.2527 10.3309H18.5113L18.2765 11.2095H18.1395C18.1688 10.7986 18.0749 10.6107 17.6052 10.6107L16.9886 12.9588C16.9756 13.0166 16.9605 13.0695 16.9476 13.1148C16.939 13.1446 16.9314 13.1711 16.926 13.1936C16.8888 13.3403 17.0063 13.4656 17.1981 13.448L17.1609 13.6299H15.6636L15.7086 13.4303L15.7226 13.4301C16.0038 13.4244 16.2261 13.42 16.2703 13.0312L16.9319 10.6107C16.6794 10.6107 16.5189 10.6636 16.3702 10.7927C16.2372 10.9113 16.2247 10.9556 16.1689 11.153C16.164 11.1705 16.1587 11.1893 16.1529 11.2095H16.0081Z" fill="white"/>
<path d="M10.4027 13.4773C10.4242 13.3579 10.5064 13.2601 10.5847 13.2601C10.663 13.2601 10.7138 13.3579 10.6943 13.4773C10.6727 13.5967 10.5905 13.6945 10.5122 13.6945C10.432 13.6945 10.3831 13.5967 10.4027 13.4773Z" fill="white"/>
<path d="M12.7239 13.4773C12.7454 13.3579 12.8276 13.2601 12.9059 13.2601C12.9842 13.2601 13.0351 13.3579 13.0155 13.4773C12.994 13.5967 12.9118 13.6945 12.8335 13.6945C12.7533 13.6945 12.7043 13.5967 12.7239 13.4773Z" fill="white"/>
<path d="M14.7202 13.4773C14.7418 13.3579 14.824 13.2601 14.9023 13.2601C14.9805 13.2601 15.0217 13.3579 15.0021 13.4773C14.9805 13.5967 14.8984 13.6945 14.8201 13.6945C14.7418 13.6945 14.7007 13.5967 14.7202 13.4773Z" fill="white"/>
<path d="M7.58233 13.4851C7.6019 13.3658 7.67626 13.2679 7.75456 13.2679C7.83284 13.2699 7.88372 13.3658 7.86415 13.4851C7.84264 13.6045 7.76042 13.7023 7.68214 13.7023C7.60384 13.7023 7.56276 13.6045 7.58233 13.4851Z" fill="white"/>
<path d="M17.386 13.4851C17.4075 13.3658 17.4897 13.2679 17.568 13.2679C17.6463 13.2699 17.6971 13.3658 17.6776 13.4851C17.656 13.6045 17.5738 13.7023 17.4955 13.7023C17.4153 13.7023 17.3664 13.6045 17.386 13.4851Z" fill="white"/>
<path fill-rule="evenodd" clip-rule="evenodd" d="M9.07986 18.911C10.0056 19.3024 10.9881 19.5 12 19.5C13.0119 19.5 13.9944 19.3004 14.9201 18.9071C15.8126 18.5295 16.6151 17.9894 17.304 17.3007C17.993 16.6119 18.5331 15.8097 18.9109 14.9174C19.3023 13.9919 19.5 13.0096 19.5 11.9981C19.5 10.9864 19.3023 10.0042 18.9109 9.07867C18.5331 8.18642 17.993 7.38416 17.304 6.69541C16.6151 6.00666 15.8126 5.46661 14.9201 5.08896C13.9944 4.69762 13.0119 4.5 12 4.5C10.9881 4.5 10.0056 4.69762 9.07986 5.08896C8.18541 5.46661 7.38492 6.01057 6.69598 6.69933C6.00705 7.38808 5.46687 8.19033 5.08912 9.08258C4.69769 10.0081 4.5 10.9904 4.5 12.002C4.5 13.0136 4.69769 13.9958 5.08912 14.9213C5.46687 15.8136 6.00705 16.6158 6.69598 17.3046C7.38492 17.9933 8.18738 18.5334 9.07986 18.911ZM12.184 19.0695V17.0854H14.4074C14.1823 17.3809 13.9318 17.6646 13.6558 17.9347C12.9943 18.5804 12.3758 18.958 12.184 19.0695ZM10.3462 17.9209C10.0761 17.6568 9.82947 17.377 9.61024 17.0854H11.7925V19.05C11.5714 18.9208 10.9783 18.5432 10.3462 17.9209ZM11.0762 19.048C9.55545 18.8523 8.14627 18.1734 7.03262 17.0854H9.12682C9.40084 17.4807 9.72182 17.8564 10.0819 18.2105C10.4538 18.5764 10.81 18.8562 11.0762 19.048ZM13.92 18.2223C14.286 17.8662 14.6109 17.4846 14.8908 17.0854H16.9654C15.8557 18.1694 14.4524 18.8484 12.9355 19.0461C13.2135 18.8465 13.5599 18.5725 13.92 18.2223ZM17.3392 16.6941H15.1472C15.1511 16.6863 15.155 16.6804 15.1609 16.6726C15.5543 16.0191 15.8302 15.3225 15.9809 14.5985H18.6232C18.3237 15.3596 17.8912 16.068 17.3392 16.6941ZM14.6833 16.6941H12.184V14.5965H15.5797C15.4349 15.2462 15.1824 15.8743 14.8282 16.4632C14.7812 16.5415 14.7342 16.6178 14.6833 16.6941ZM11.7925 16.6941H9.33428C9.2975 16.639 9.2625 16.5829 9.22806 16.5272C9.21119 16.4999 9.19446 16.4726 9.1777 16.4456C8.83129 15.8605 8.58467 15.2403 8.44377 14.5985H11.7925V16.6941ZM8.8724 16.6941H6.66076C6.10686 16.068 5.67627 15.3596 5.37682 14.5965H8.04449C8.19129 15.3127 8.46137 16.0034 8.84695 16.6511C8.85477 16.6667 8.86457 16.6804 8.8724 16.6941ZM18.7621 14.2072H5.2359C5.00887 13.5027 4.88949 12.7611 4.88949 12C4.88949 11.2428 5.0069 10.5051 5.23396 9.80459H18.766C18.9931 10.5031 19.1105 11.2428 19.1105 12C19.1105 12.7611 18.9911 13.5047 18.7621 14.2072ZM18.6271 9.4113H15.9164C15.7696 8.69318 15.5014 7.99857 15.1159 7.34699C15.1102 7.33985 15.1055 7.33168 15.1011 7.32399C15.0995 7.32113 15.0979 7.31834 15.0963 7.31568H17.349C17.901 7.94181 18.3296 8.65015 18.6271 9.4113ZM15.5171 9.4113H12.184V7.31371H14.6364C14.6852 7.38984 14.7344 7.46658 14.7792 7.54461C15.1276 8.13554 15.3762 8.76363 15.5171 9.4113ZM11.7925 9.4113H8.39092C8.53576 8.75972 8.79018 8.12965 9.14836 7.53678C9.19338 7.46244 9.24035 7.39005 9.28928 7.31568H11.7925V9.4113ZM7.98969 9.4113H5.37291C5.67041 8.65015 6.09904 7.94181 6.65096 7.31568H8.82738C8.82346 7.3196 8.8215 7.32351 8.81955 7.32742C8.41832 7.98486 8.14039 8.68536 7.98969 9.4113ZM16.9791 6.92434H14.8458C14.5698 6.52322 14.2488 6.14165 13.8887 5.78162C13.5325 5.42747 13.19 5.14961 12.914 4.94808C14.4445 5.14375 15.8616 5.82859 16.9791 6.92434ZM14.3643 6.92434H12.184V4.93048C12.4012 5.05962 12.9845 5.43725 13.6127 6.05949C13.8887 6.33538 14.1412 6.62302 14.3643 6.92434ZM11.7925 6.92434H9.56916C9.79816 6.62496 10.0546 6.33538 10.3383 6.0634C10.9685 5.45096 11.5616 5.07722 11.7925 4.94222V6.92434ZM9.08377 6.92434H7.02088C8.13256 5.83447 9.53979 5.15158 11.0586 4.952C10.7787 5.15158 10.4342 5.42356 10.0741 5.77185C9.70029 6.13383 9.36953 6.51931 9.08377 6.92434Z" fill="white"/>
</svg>
