<svg width="40" height="40" viewBox="0 0 40 40" fill="none" xmlns="http://www.w3.org/2000/svg">
<path d="M8.87109 8.6875H17.168V32.2695H8.87109V8.6875Z" fill="#D39E33"/>
<path d="M17.168 32.8008H8.87109C8.57812 32.8008 8.34375 32.5664 8.34375 32.2734V8.69141C8.34375 8.39844 8.57812 8.16406 8.87109 8.16406H17.168C17.4609 8.16406 17.6953 8.39844 17.6953 8.69141V32.2734C17.6914 32.5664 17.457 32.8008 17.168 32.8008ZM9.39844 31.7461H16.6406V9.21875H9.39844V31.7461Z" fill="#111111"/>
<path d="M17.0234 38.5781H9.01562C8.9375 38.5781 8.87109 38.5156 8.87109 38.4336V32.2734H17.168V38.4336C17.168 38.5117 17.1016 38.5781 17.0234 38.5781Z" fill="#845A3D"/>
<path d="M17.0156 39.1055H9.01953C8.64844 39.1055 8.34375 38.8008 8.34375 38.4297V32.2773C8.34375 31.9844 8.57812 31.75 8.87109 31.75H17.168C17.4609 31.75 17.6953 31.9844 17.6953 32.2773V38.4297C17.6914 38.8047 17.3906 39.1055 17.0156 39.1055ZM9.39844 38.0547H16.6406V32.8047H9.39844V38.0547Z" fill="#141414"/>
<path d="M17.168 8.6875H8.87109L12.6016 2.98438H13.4336L17.168 8.6875Z" fill="#845A3D"/>
<path d="M17.169 9.21875H8.87216C8.67685 9.21875 8.50107 9.11328 8.40732 8.94141C8.31357 8.76953 8.32529 8.5625 8.43076 8.40234L12.1651 2.69922C12.2628 2.55078 12.4269 2.46094 12.6065 2.46094H13.4347C13.6143 2.46094 13.7784 2.55078 13.8761 2.69922L17.6104 8.40234C17.7159 8.5625 17.7237 8.76953 17.6339 8.94141C17.5401 9.11328 17.3604 9.21875 17.169 9.21875ZM9.84482 8.16406H16.1925L13.1495 3.51562H12.8917L9.84482 8.16406Z" fill="#141414"/>
<path d="M14.3828 4.53125H11.6523L12.8828 2.10938H13.1562L14.3828 4.53125Z" fill="#3F3025"/>
<path d="M14.3837 5.05859H11.6493C11.4657 5.05859 11.2977 4.96484 11.2001 4.80859C11.1024 4.65234 11.0946 4.45703 11.1806 4.29297L12.411 1.86719C12.5009 1.69141 12.6845 1.57812 12.8798 1.57812H13.1532C13.3524 1.57812 13.5321 1.69141 13.622 1.86719L14.8524 4.29297C14.9345 4.45703 14.9267 4.65234 14.8329 4.80859C14.7392 4.96484 14.5673 5.05859 14.3837 5.05859ZM12.5126 4.00391H13.5282L13.0204 3.00391L12.5126 4.00391Z" fill="#141414"/>
<path d="M8.61719 31.2969H17.418V33.25H8.61719V31.2969Z" fill="#FAFCFB"/>
<path d="M17.418 33.7734H8.61719C8.32422 33.7734 8.08984 33.5391 8.08984 33.2461V31.293C8.08984 31 8.32422 30.7656 8.61719 30.7656H17.418C17.7109 30.7656 17.9453 31 17.9453 31.293V33.2461C17.9453 33.5391 17.7109 33.7734 17.418 33.7734ZM9.14453 32.7227H16.8906V31.8203H9.14453V32.7227Z" fill="#0F0F0F"/>
<path d="M11.6523 22.1797C11.3594 22.1797 11.125 21.9453 11.125 21.6523V8.69141C11.125 8.39844 11.3594 8.16406 11.6523 8.16406C11.9453 8.16406 12.1797 8.39844 12.1797 8.69141V21.6523C12.1797 21.9453 11.9414 22.1797 11.6523 22.1797Z" fill="#141414"/>
<path d="M11.6523 31.8242C11.3594 31.8242 11.125 31.5898 11.125 31.2969V24.8164C11.125 24.5234 11.3594 24.2891 11.6523 24.2891C11.9453 24.2891 12.1797 24.5234 12.1797 24.8164V31.2969C12.1797 31.5898 11.9414 31.8242 11.6523 31.8242Z" fill="#141414"/>
<path d="M29.6367 38.5742H23.8555C23.0195 38.5742 22.3398 37.8945 22.3398 37.0586V2.53125C22.3398 1.69531 23.0195 1.01562 23.8555 1.01562H29.6367C30.4727 1.01562 31.1523 1.69531 31.1523 2.53125V37.0586C31.1523 37.8945 30.4727 38.5742 29.6367 38.5742Z" fill="#FAFCFB"/>
<path d="M29.6367 39.1016H23.8555C22.7266 39.1016 21.8125 38.1836 21.8125 37.0586V2.53516C21.8125 1.40625 22.7305 0.492188 23.8555 0.492188H29.6367C30.7656 0.492188 31.6797 1.41016 31.6797 2.53516V37.0625C31.6797 38.1875 30.7617 39.1016 29.6367 39.1016ZM23.8555 1.54297C23.3086 1.54297 22.8672 1.98828 22.8672 2.53125V37.0586C22.8672 37.6055 23.3125 38.0469 23.8555 38.0469H29.6367C30.1836 38.0469 30.625 37.6016 30.625 37.0586V2.53516C30.625 1.98828 30.1797 1.54687 29.6367 1.54687H23.8555V1.54297Z" fill="#0F0F0F"/>
<path d="M25.7617 4.60156H22.3398C22.0469 4.60156 21.8125 4.36719 21.8125 4.07422C21.8125 3.78125 22.0469 3.54688 22.3398 3.54688H25.7617C26.0547 3.54688 26.2891 3.78125 26.2891 4.07422C26.2891 4.36719 26.0508 4.60156 25.7617 4.60156Z" fill="#0F0F0F"/>
<path d="M25.7617 10.1484H22.3398C22.0469 10.1484 21.8125 9.91406 21.8125 9.62109C21.8125 9.32812 22.0469 9.09375 22.3398 9.09375H25.7617C26.0547 9.09375 26.2891 9.32812 26.2891 9.62109C26.2891 9.91406 26.0508 10.1484 25.7617 10.1484Z" fill="#0F0F0F"/>
<path d="M25.7617 15.6953H22.3398C22.0469 15.6953 21.8125 15.4609 21.8125 15.168C21.8125 14.875 22.0469 14.6406 22.3398 14.6406H25.7617C26.0547 14.6406 26.2891 14.875 26.2891 15.168C26.2891 15.4609 26.0508 15.6953 25.7617 15.6953Z" fill="#0F0F0F"/>
<path d="M25.7617 21.25H22.3398C22.0469 21.25 21.8125 21.0156 21.8125 20.7227C21.8125 20.4297 22.0469 20.1953 22.3398 20.1953H25.7617C26.0547 20.1953 26.2891 20.4297 26.2891 20.7227C26.2891 21.0156 26.0508 21.25 25.7617 21.25Z" fill="#0F0F0F"/>
<path d="M25.7617 26.7969H22.3398C22.0469 26.7969 21.8125 26.5625 21.8125 26.2695C21.8125 25.9766 22.0469 25.7422 22.3398 25.7422H25.7617C26.0547 25.7422 26.2891 25.9766 26.2891 26.2695C26.2891 26.5625 26.0508 26.7969 25.7617 26.7969Z" fill="#0F0F0F"/>
<path d="M25.7617 32.3438H22.3398C22.0469 32.3438 21.8125 32.1094 21.8125 31.8164C21.8125 31.5234 22.0469 31.2891 22.3398 31.2891H25.7617C26.0547 31.2891 26.2891 31.5234 26.2891 31.8164C26.2891 32.1094 26.0508 32.3438 25.7617 32.3438Z" fill="#0F0F0F"/>
<path d="M24.5156 6.45312H22.3398C22.0469 6.45312 21.8125 6.21875 21.8125 5.92578C21.8125 5.63281 22.0469 5.39844 22.3398 5.39844H24.5156C24.8086 5.39844 25.043 5.63281 25.043 5.92578C25.043 6.21875 24.8086 6.45312 24.5156 6.45312Z" fill="#0F0F0F"/>
<path d="M24.5156 13.8516H22.3398C22.0469 13.8516 21.8125 13.6172 21.8125 13.3242C21.8125 13.0312 22.0469 12.7969 22.3398 12.7969H24.5156C24.8086 12.7969 25.043 13.0312 25.043 13.3242C25.043 13.6172 24.8086 13.8516 24.5156 13.8516Z" fill="#0F0F0F"/>
<path d="M24.5156 17.5547H22.3398C22.0469 17.5547 21.8125 17.3203 21.8125 17.0273C21.8125 16.7344 22.0469 16.5 22.3398 16.5H24.5156C24.8086 16.5 25.043 16.7344 25.043 17.0273C25.043 17.3164 24.8086 17.5547 24.5156 17.5547Z" fill="#0F0F0F"/>
<path d="M24.5156 19.3984H22.3398C22.0469 19.3984 21.8125 19.1641 21.8125 18.8711C21.8125 18.5781 22.0469 18.3438 22.3398 18.3438H24.5156C24.8086 18.3438 25.043 18.5781 25.043 18.8711C25.043 19.1641 24.8086 19.3984 24.5156 19.3984Z" fill="#0F0F0F"/>
<path d="M24.5156 23.1016H22.3398C22.0469 23.1016 21.8125 22.8672 21.8125 22.5742C21.8125 22.2812 22.0469 22.0469 22.3398 22.0469H24.5156C24.8086 22.0469 25.043 22.2812 25.043 22.5742C25.043 22.8672 24.8086 23.1016 24.5156 23.1016Z" fill="#0F0F0F"/>
<path d="M24.5156 24.9453H22.3398C22.0469 24.9453 21.8125 24.7109 21.8125 24.418C21.8125 24.125 22.0469 23.8906 22.3398 23.8906H24.5156C24.8086 23.8906 25.043 24.125 25.043 24.418C25.043 24.7109 24.8086 24.9453 24.5156 24.9453Z" fill="#0F0F0F"/>
<path d="M24.5156 28.6484H22.3398C22.0469 28.6484 21.8125 28.4141 21.8125 28.1211C21.8125 27.8281 22.0469 27.5938 22.3398 27.5938H24.5156C24.8086 27.5938 25.043 27.8281 25.043 28.1211C25.043 28.4141 24.8086 28.6484 24.5156 28.6484Z" fill="#0F0F0F"/>
<path d="M24.5156 30.4922H22.3398C22.0469 30.4922 21.8125 30.2578 21.8125 29.9648C21.8125 29.6719 22.0469 29.4375 22.3398 29.4375H24.5156C24.8086 29.4375 25.043 29.6719 25.043 29.9648C25.043 30.2578 24.8086 30.4922 24.5156 30.4922Z" fill="#0F0F0F"/>
<path d="M24.5156 34.1953H22.3398C22.0469 34.1953 21.8125 33.9609 21.8125 33.668C21.8125 33.375 22.0469 33.1406 22.3398 33.1406H24.5156C24.8086 33.1406 25.043 33.375 25.043 33.668C25.043 33.9609 24.8086 34.1953 24.5156 34.1953Z" fill="#0F0F0F"/>
<path d="M24.5156 36.0391H22.3398C22.0469 36.0391 21.8125 35.8047 21.8125 35.5117C21.8125 35.2188 22.0469 34.9844 22.3398 34.9844H24.5156C24.8086 34.9844 25.043 35.2188 25.043 35.5117C25.043 35.8008 24.8086 36.0391 24.5156 36.0391Z" fill="#0F0F0F"/>
<path d="M24.5156 8.30469H22.3398C22.0469 8.30469 21.8125 8.07031 21.8125 7.77734C21.8125 7.48438 22.0469 7.25 22.3398 7.25H24.5156C24.8086 7.25 25.043 7.48438 25.043 7.77734C25.043 8.06641 24.8086 8.30469 24.5156 8.30469Z" fill="#0F0F0F"/>
<path d="M24.5156 12H22.3398C22.0469 12 21.8125 11.7656 21.8125 11.4727C21.8125 11.1797 22.0469 10.9453 22.3398 10.9453H24.5156C24.8086 10.9453 25.043 11.1797 25.043 11.4727C25.043 11.7617 24.8086 12 24.5156 12Z" fill="#0F0F0F"/>
</svg>
