<svg width="24" height="24" viewBox="0 0 24 24" fill="none" xmlns="http://www.w3.org/2000/svg">
<path d="M1.5 12C1.5 6.20101 6.20101 1.5 12 1.5C17.799 1.5 22.5 6.20101 22.5 12C22.5 17.799 17.799 22.5 12 22.5C6.20101 22.5 1.5 17.799 1.5 12Z" fill="#172A73"/>
<path d="M4.17969 7.30859V7.7554L5.81314 8.01258C6.97055 8.1948 7.90337 9.06476 8.17304 10.2134L10.0852 18.3583C10.1325 18.5598 10.3111 18.7022 10.5167 18.7022H13.2C13.377 18.7022 13.537 18.5961 13.6071 18.4324L18.2358 7.62049C18.2989 7.47301 18.1916 7.30859 18.0322 7.30859H15.56C15.3814 7.30859 15.2203 7.41646 15.1512 7.58228L12.0505 15.016L10.8136 8.40084C10.6951 7.7674 10.146 7.30859 9.50631 7.30859H4.17969Z" fill="white"/>
</svg>
