<svg width="46" height="32" viewBox="0 0 46 32" fill="none" xmlns="http://www.w3.org/2000/svg">
<rect x="0.5" y="0.5" width="45" height="31" rx="5.5" fill="white"/>
<rect x="0.5" y="0.5" width="45" height="31" rx="5.5" stroke="white"/>
<path fill-rule="evenodd" clip-rule="evenodd" d="M14.3321 21.1412H11.5858L9.52638 13.0534C9.42863 12.6813 9.22108 12.3524 8.91579 12.1974C8.15389 11.8078 7.31432 11.4978 6.39844 11.3415V11.0301H10.8225C11.4331 11.0301 11.8911 11.4978 11.9674 12.041L13.0359 17.8751L15.7809 11.0301H18.4509L14.3321 21.1412ZM19.9774 21.1412H17.3837L19.5195 11.0301H22.1131L19.9774 21.1412ZM25.4687 13.8312C25.545 13.2866 26.003 12.9752 26.5372 12.9752C27.3768 12.897 28.2914 13.0534 29.0546 13.4416L29.5125 11.2646C28.7493 10.9532 27.9097 10.7969 27.1478 10.7969C24.6305 10.7969 22.7987 12.1974 22.7987 14.1412C22.7987 15.6199 24.0962 16.3964 25.0121 16.8641C26.003 17.3305 26.3846 17.6419 26.3083 18.1083C26.3083 18.8079 25.545 19.1193 24.7831 19.1193C23.8672 19.1193 22.9514 18.8861 22.1131 18.4965L21.6552 20.6748C22.5711 21.063 23.5619 21.2194 24.4778 21.2194C27.3005 21.2962 29.0546 19.897 29.0546 17.7969C29.0546 15.1522 25.4687 14.9972 25.4687 13.8312ZM38.1318 21.1412L36.0724 11.0301H33.8603C33.4024 11.0301 32.9444 11.3415 32.7918 11.8078L28.9783 21.1412H31.6483L32.1812 19.6638H35.4618L35.7671 21.1412H38.1318ZM34.2419 13.753L35.0038 17.5637H32.8681L34.2419 13.753Z" fill="#172B85"/>
</svg>
