<svg width="51" height="51" viewBox="0 0 51 51" fill="none" xmlns="http://www.w3.org/2000/svg">
<mask id="mask0_34264_5940" style="mask-type:luminance" maskUnits="userSpaceOnUse" x="0" y="0" width="51" height="51">
<path d="M25.3119 50.3504C39.0368 50.3504 50.1629 39.2243 50.1629 25.4994C50.1629 11.7746 39.0368 0.648438 25.3119 0.648438C11.5871 0.648438 0.460938 11.7746 0.460938 25.4994C0.460938 39.2243 11.5871 50.3504 25.3119 50.3504Z" fill="white"/>
</mask>
<g mask="url(#mask0_34264_5940)">
<path d="M41.3883 17.2544C39.5733 6.70643 34.1913 1.64844 25.3123 1.64844C16.4333 1.64844 11.0513 6.70643 9.23634 17.2544C8.53334 21.3414 7.15234 31.5194 7.15234 31.5194C10.0843 34.5424 20.6973 36.2634 25.3123 36.2634C29.9273 36.2634 40.5403 34.5424 43.4723 31.5194C43.4723 31.5194 42.0913 21.3414 41.3883 17.2544Z" fill="#FFC149"/>
<path opacity="0.2" d="M38.0574 16.5979C39.2054 25.3709 33.3314 33.7329 25.3114 33.7329C17.2914 33.7329 11.4174 25.3709 12.5654 16.5979C13.5384 9.16388 19.1884 3.92188 25.3114 3.92188C31.4344 3.92188 37.0844 9.16388 38.0574 16.5979Z" fill="#FFC149"/>
<path d="M28.7797 32.8671V29.4141H21.8427V32.8671C21.8427 34.2851 20.6937 35.4341 19.2757 35.4341H13.4297V45.3991H37.1927V35.4341H31.3467C29.9287 35.4341 28.7797 34.2851 28.7797 32.8671Z" fill="#FFEDD2"/>
<path d="M15.1134 21.9241C15.4634 23.2111 14.9714 24.4661 14.0154 24.7251C13.0594 24.9841 12.0014 24.1511 11.6514 22.8641C11.3024 21.5761 11.7934 20.3221 12.7494 20.0631C13.7054 19.8031 14.7644 20.6371 15.1134 21.9241Z" fill="#FFEDD2"/>
<path d="M35.519 21.9241C35.169 23.2111 35.661 24.4661 36.617 24.7251C37.573 24.9841 38.631 24.1511 38.981 22.8641C39.331 21.5761 38.839 20.3221 37.883 20.0631C36.926 19.8031 35.868 20.6371 35.519 21.9241Z" fill="#FFEDD2"/>
<path d="M15.5498 22.0677C15.8848 22.9667 15.4138 23.8437 14.4988 24.0247C13.5838 24.2057 12.5708 23.6237 12.2368 22.7247C11.9018 21.8247 12.3728 20.9487 13.2878 20.7677C14.2018 20.5857 15.2148 21.1677 15.5498 22.0677Z" fill="#FFEDD2"/>
<path d="M35.0763 22.0677C34.7423 22.9667 35.2123 23.8437 36.1273 24.0247C37.0423 24.2057 38.0553 23.6237 38.3893 22.7247C38.7243 21.8247 38.2533 20.9487 37.3383 20.7677C36.4243 20.5857 35.4113 21.1677 35.0763 22.0677Z" fill="#FFEDD2"/>
<path d="M39.3603 37.0605C39.0613 36.0955 38.1693 35.4375 37.1593 35.4375H31.3553C31.1353 37.2315 28.2273 42.8945 25.3123 42.8945C22.3973 42.8945 19.4903 37.2315 19.2693 35.4375H13.4653C12.4553 35.4375 11.5633 36.0955 11.2643 37.0605L7.15234 50.3505H43.4713L39.3603 37.0605Z" fill="#FFA4C2"/>
<path d="M21.8457 29.4141V32.8671C21.8457 33.2881 21.7347 33.6801 21.5547 34.0311C22.7527 34.4551 24.0177 34.6841 25.3137 34.6841C26.6107 34.6841 27.8747 34.4551 29.0727 34.0311C28.8927 33.6801 28.7817 33.2881 28.7817 32.8671V29.4141H21.8457Z" fill="#FFEDD2"/>
<path d="M25.3151 32.3939C32.0734 32.3939 37.5521 26.0202 37.5521 18.1579C37.5521 10.2955 32.0734 3.92188 25.3151 3.92188C18.5568 3.92188 13.0781 10.2955 13.0781 18.1579C13.0781 26.0202 18.5568 32.3939 25.3151 32.3939Z" fill="#FFEDD2"/>
<path d="M25.3131 16.9034C31.5711 16.9034 37.1751 17.5414 40.9621 20.7684C38.8161 7.85943 33.5811 1.64844 25.3131 1.64844C17.0451 1.64844 11.8111 7.85943 9.66406 20.7684C13.4521 17.5414 19.0551 16.9034 25.3131 16.9034Z" fill="#FFC149"/>
<path d="M16.1233 20.0964C16.0483 20.0944 15.9743 20.0644 15.9183 20.0064C15.8063 19.8894 15.8083 19.7034 15.9253 19.5914C16.0073 19.5114 17.9843 17.6434 21.7123 18.4114C21.8713 18.4444 21.9733 18.5994 21.9413 18.7584C21.9083 18.9184 21.7493 19.0194 21.5933 18.9874C18.1883 18.2884 16.4073 19.9434 16.3333 20.0144C16.2753 20.0714 16.1993 20.0984 16.1233 20.0964Z" fill="#B5663A"/>
<path d="M19.7749 20.7656C19.4189 20.7656 19.0999 20.9166 18.8729 21.1556C18.6679 21.1576 18.4079 21.1176 18.1049 20.9656C17.9779 20.9016 17.8189 20.9536 17.7539 21.0826C17.6899 21.2116 17.7419 21.3696 17.8709 21.4346C18.1309 21.5646 18.3699 21.6306 18.5849 21.6606C18.5509 21.7736 18.5279 21.8906 18.5279 22.0146C18.5279 22.7036 19.0859 23.2616 19.7749 23.2616C20.4639 23.2616 21.0219 22.7036 21.0219 22.0146C21.0219 21.3236 20.4639 20.7656 19.7749 20.7656Z" fill="#B5663A"/>
<path d="M34.3164 20.0964C34.3914 20.0944 34.4664 20.0644 34.5214 20.0064C34.6334 19.8894 34.6314 19.7034 34.5144 19.5914C34.4324 19.5114 32.4553 17.6434 28.7273 18.4114C28.5683 18.4444 28.4653 18.5994 28.4983 18.7584C28.5313 18.9184 28.6904 19.0194 28.8464 18.9874C32.2514 18.2884 34.0323 19.9434 34.1063 20.0144C34.1643 20.0714 34.2404 20.0984 34.3164 20.0964Z" fill="#B5663A"/>
<path d="M30.6611 20.7656C31.0171 20.7656 31.3361 20.9166 31.5631 21.1556C31.7681 21.1576 32.0281 21.1176 32.3311 20.9656C32.4581 20.9016 32.6171 20.9536 32.6821 21.0826C32.7461 21.2116 32.6941 21.3696 32.5651 21.4346C32.3051 21.5646 32.0661 21.6306 31.8511 21.6606C31.8851 21.7736 31.9081 21.8906 31.9081 22.0146C31.9081 22.7036 31.3501 23.2616 30.6611 23.2616C29.9721 23.2616 29.4141 22.7036 29.4141 22.0146C29.4141 21.3236 29.9721 20.7656 30.6611 20.7656Z" fill="#B5663A"/>
<path d="M27.4487 26.7547C27.4487 27.2127 26.5207 28.3687 25.3767 28.3687C24.2327 28.3687 23.3047 27.2127 23.3047 26.7547C23.3047 26.2967 24.2327 26.7107 25.3767 26.7107C26.5207 26.7107 27.4487 26.2967 27.4487 26.7547Z" fill="#FFA4C2"/>
</g>
</svg>
